G04 #@! TF.FileFunction,Copper,L3,Inr,Signal*
%FSLAX46Y46*%
G04 Gerber Fmt 4.6, Leading zero omitted, Abs format (unit mm)*
G04 Created by KiCad (PCBNEW 4.0.0-2.201512091501+6195~38~ubuntu14.04.1-stable) date Wed 16 Dec 2015 17:24:57 GMT*
%MOMM*%
G01*
G04 APERTURE LIST*
%ADD10C,0.100000*%
%ADD11R,2.032000X2.032000*%
%ADD12O,2.032000X2.032000*%
%ADD13R,1.727200X1.727200*%
%ADD14O,1.727200X1.727200*%
%ADD15O,2.500000X1.500000*%
%ADD16C,1.998980*%
%ADD17R,1.680000X1.880000*%
%ADD18C,1.000000*%
%ADD19C,0.889000*%
%ADD20C,1.500000*%
%ADD21C,1.500000*%
%ADD22C,0.254000*%
%ADD23C,1.016000*%
%ADD24C,0.508000*%
G04 APERTURE END LIST*
D10*
D11*
X145288000Y-147828000D03*
D12*
X147828000Y-147828000D03*
D11*
X145288000Y-145288000D03*
D12*
X147828000Y-145288000D03*
D13*
X103886000Y-140208000D03*
D14*
X106426000Y-140208000D03*
X103886000Y-142748000D03*
X106426000Y-142748000D03*
X103886000Y-145288000D03*
X106426000Y-145288000D03*
X103886000Y-147828000D03*
X106426000Y-147828000D03*
D15*
X121742000Y-133416000D03*
X143942000Y-109916000D03*
D16*
X144272000Y-104648000D03*
X146972020Y-101947980D03*
X141571980Y-101947980D03*
X141571980Y-107348020D03*
X146972020Y-107348020D03*
X117348000Y-104648000D03*
X120048020Y-101947980D03*
X114647980Y-101947980D03*
X114647980Y-107348020D03*
X120048020Y-107348020D03*
X105156000Y-104648000D03*
X107856020Y-101947980D03*
X102455980Y-101947980D03*
X102455980Y-107348020D03*
X107856020Y-107348020D03*
X132080000Y-104648000D03*
X134780020Y-101947980D03*
X129379980Y-101947980D03*
X129379980Y-107348020D03*
X134780020Y-107348020D03*
D15*
X143942000Y-133416000D03*
X121742000Y-109916000D03*
D17*
X106172000Y-135128000D03*
X106172000Y-112776000D03*
X106172000Y-118364000D03*
X106172000Y-129540000D03*
X106172000Y-123952000D03*
D18*
X130175000Y-120269000D03*
D19*
X146812000Y-118745000D03*
X146812000Y-125603000D03*
X109474000Y-124968000D03*
D18*
X133985000Y-120269000D03*
X138176000Y-122047000D03*
X102616000Y-122186000D03*
D19*
X102616000Y-116598000D03*
D18*
X108204000Y-109220000D03*
X102616000Y-110236000D03*
X127508000Y-116586000D03*
X111760000Y-104140000D03*
X125857000Y-121666000D03*
X127127000Y-113792000D03*
X137414000Y-112903000D03*
X144145000Y-122936000D03*
X134366000Y-122174000D03*
X146812000Y-128270000D03*
X130048000Y-122174000D03*
X144526000Y-130556000D03*
X140970000Y-121031000D03*
X140970000Y-127889000D03*
X109474000Y-113792000D03*
X130479800Y-116586000D03*
X133731000Y-116586000D03*
X135255000Y-125603000D03*
X124460000Y-138684000D03*
X116713000Y-140208000D03*
X144018000Y-126619000D03*
D19*
X142494000Y-125349000D03*
D18*
X144006000Y-119761000D03*
D19*
X142494000Y-118491000D03*
D18*
X119888000Y-129032000D03*
X109474000Y-130556000D03*
X120015000Y-120523000D03*
X109474000Y-136144000D03*
X122555000Y-126619000D03*
X122555000Y-118237000D03*
X109474000Y-119380000D03*
X142240000Y-115062000D03*
X123698000Y-112268000D03*
X132842000Y-113538000D03*
X128651000Y-113157000D03*
X102870000Y-124968000D03*
X102870000Y-113792000D03*
D20*
X115824000Y-146812000D03*
X138303000Y-140248000D03*
D18*
X111252000Y-148590000D03*
X118872000Y-148082000D03*
D20*
X139192000Y-147828000D03*
X126492000Y-147828000D03*
X130683000Y-140248000D03*
D18*
X112268000Y-143764000D03*
X135890000Y-129921000D03*
X128016000Y-126365000D03*
X133096000Y-140208000D03*
X119380000Y-144780000D03*
X123190000Y-147828000D03*
X135636000Y-140208000D03*
X132334000Y-125603000D03*
D19*
X103886000Y-122682000D03*
X104267000Y-116840000D03*
D18*
X103886000Y-111506000D03*
X112776000Y-147320000D03*
X124460000Y-147828000D03*
X102870000Y-119380000D03*
X102870000Y-130556000D03*
X102870000Y-136144000D03*
X111506000Y-138176000D03*
X137668000Y-128131000D03*
X125984000Y-141478000D03*
X126492000Y-139700000D03*
X127000000Y-128331000D03*
D21*
X125857000Y-121666000D02*
X125984000Y-121539000D01*
X125984000Y-114935000D02*
X127127000Y-113792000D01*
X125984000Y-121539000D02*
X125984000Y-114935000D01*
X125857000Y-121666000D02*
X125857000Y-121285000D01*
X124206000Y-119634000D02*
X124206000Y-116586000D01*
X125857000Y-121285000D02*
X124206000Y-119634000D01*
D22*
X140208000Y-106680000D02*
X138430000Y-108458000D01*
X140208000Y-106680000D02*
X140208000Y-101346000D01*
X140970000Y-100584000D02*
X140208000Y-101346000D01*
X138430000Y-111760000D02*
X135890000Y-111760000D01*
X138430000Y-108458000D02*
X138430000Y-111760000D01*
D21*
X138176000Y-122047000D02*
X136144000Y-120015000D01*
X136144000Y-114300000D02*
X134780020Y-112936020D01*
X136144000Y-120015000D02*
X136144000Y-114300000D01*
X134780020Y-112936020D02*
X134780020Y-107348020D01*
X138176000Y-122047000D02*
X139446000Y-120777000D01*
X139700000Y-109220000D02*
X141571980Y-107348020D01*
X139700000Y-120142000D02*
X139700000Y-109220000D01*
X139446000Y-120396000D02*
X139700000Y-120142000D01*
X139446000Y-120777000D02*
X139446000Y-120396000D01*
X137922000Y-121793000D02*
X137922000Y-113411000D01*
X138176000Y-122047000D02*
X137922000Y-121793000D01*
X137922000Y-113411000D02*
X137414000Y-112903000D01*
D23*
X137795000Y-122047000D02*
X137414000Y-122428000D01*
X137414000Y-122428000D02*
X137414000Y-123190000D01*
X136398000Y-120650000D02*
X136398000Y-114554000D01*
X136398000Y-114554000D02*
X134780020Y-112936020D01*
X137795000Y-122047000D02*
X136398000Y-120650000D01*
X134780020Y-112936020D02*
X134780020Y-107348020D01*
X137795000Y-122047000D02*
X138557000Y-122047000D01*
X139446000Y-121158000D02*
X139446000Y-109474000D01*
X138557000Y-122047000D02*
X139446000Y-121158000D01*
D22*
X125476000Y-126492000D02*
X125476000Y-137160000D01*
X103124000Y-144526000D02*
X103886000Y-145288000D01*
X102616000Y-144526000D02*
X103124000Y-144526000D01*
X102616000Y-143256000D02*
X102616000Y-144526000D01*
X102616000Y-137160000D02*
X102616000Y-143256000D01*
X125476000Y-137160000D02*
X102616000Y-137160000D01*
X108204000Y-142748000D02*
X109982000Y-142748000D01*
X107188000Y-144526000D02*
X108204000Y-144526000D01*
X108204000Y-144526000D02*
X108204000Y-142748000D01*
X106426000Y-145288000D02*
X107188000Y-144526000D01*
X100584000Y-100584000D02*
X101854000Y-100584000D01*
X100584000Y-149352000D02*
X100584000Y-100584000D01*
X109982000Y-149352000D02*
X100584000Y-149352000D01*
X109982000Y-142748000D02*
X109982000Y-149352000D01*
X105752000Y-130010000D02*
X105752000Y-132588000D01*
X105752000Y-132588000D02*
X105752000Y-134658000D01*
X105752000Y-124422000D02*
X105752000Y-129070000D01*
X102616000Y-122186000D02*
X102616000Y-122936000D01*
X103162000Y-123482000D02*
X105752000Y-123482000D01*
X102616000Y-122936000D02*
X103162000Y-123482000D01*
X105752000Y-118834000D02*
X105752000Y-123482000D01*
X105752000Y-113246000D02*
X105752000Y-117894000D01*
X102616000Y-116598000D02*
X103912000Y-117894000D01*
X103912000Y-117894000D02*
X105752000Y-117894000D01*
X106592000Y-108712000D02*
X106680000Y-108712000D01*
X106592000Y-112306000D02*
X106592000Y-108712000D01*
X106680000Y-108712000D02*
X101854000Y-108712000D01*
X101092000Y-101346000D02*
X101854000Y-100584000D01*
X101092000Y-107950000D02*
X101092000Y-101346000D01*
X101854000Y-108712000D02*
X101092000Y-107950000D01*
X107696000Y-108712000D02*
X108204000Y-109220000D01*
X102616000Y-108712000D02*
X102616000Y-110236000D01*
X127254000Y-116586000D02*
X127508000Y-116586000D01*
X113284000Y-104140000D02*
X111760000Y-104140000D01*
D21*
X120048020Y-107348020D02*
X119380000Y-108016040D01*
X119380000Y-108016040D02*
X119380000Y-108458000D01*
D22*
X108458000Y-100584000D02*
X114046000Y-100584000D01*
X101854000Y-100584000D02*
X108458000Y-100584000D01*
X108458000Y-108712000D02*
X106680000Y-108712000D01*
X125857000Y-122809000D02*
X123317000Y-122809000D01*
X123317000Y-122809000D02*
X120904000Y-120396000D01*
X120904000Y-120396000D02*
X120904000Y-120904000D01*
X120904000Y-120904000D02*
X120396000Y-121412000D01*
X120396000Y-121412000D02*
X119634000Y-121412000D01*
X119634000Y-121412000D02*
X119126000Y-120904000D01*
X119126000Y-120904000D02*
X119126000Y-120142000D01*
X119126000Y-120142000D02*
X119634000Y-119634000D01*
X119634000Y-119634000D02*
X120142000Y-119634000D01*
X120142000Y-119634000D02*
X108966000Y-108458000D01*
X108966000Y-108458000D02*
X108712000Y-108458000D01*
X108712000Y-108458000D02*
X108458000Y-108712000D01*
X113284000Y-103124000D02*
X113284000Y-101346000D01*
X113284000Y-101346000D02*
X114046000Y-100584000D01*
X113284000Y-104140000D02*
X113284000Y-103124000D01*
X135382000Y-100584000D02*
X140970000Y-100584000D01*
X120650000Y-100584000D02*
X128778000Y-100584000D01*
X128778000Y-100584000D02*
X135382000Y-100584000D01*
X136144000Y-101346000D02*
X136144000Y-107823000D01*
X135890000Y-108077000D02*
X135890000Y-111760000D01*
X136144000Y-107823000D02*
X135890000Y-108077000D01*
X135382000Y-100584000D02*
X136144000Y-101346000D01*
X127000000Y-124968000D02*
X125476000Y-126492000D01*
X128270000Y-124968000D02*
X127000000Y-124968000D01*
X129032000Y-124206000D02*
X128270000Y-124968000D01*
X130048000Y-124206000D02*
X129032000Y-124206000D01*
X137414000Y-124206000D02*
X130048000Y-124206000D01*
X125476000Y-126492000D02*
X125476000Y-123190000D01*
X125476000Y-123190000D02*
X125857000Y-122809000D01*
X137541000Y-124333000D02*
X137414000Y-124206000D01*
D24*
X127254000Y-121666000D02*
X127254000Y-121920000D01*
X126365000Y-122809000D02*
X125857000Y-122809000D01*
X127254000Y-121920000D02*
X126365000Y-122809000D01*
D22*
X114046000Y-100584000D02*
X120650000Y-100584000D01*
D21*
X124206000Y-116586000D02*
X119380000Y-111760000D01*
X119380000Y-111760000D02*
X119380000Y-111760000D01*
X119380000Y-111760000D02*
X119380000Y-108458000D01*
X125857000Y-121666000D02*
X123698000Y-121666000D01*
X109380020Y-107348020D02*
X107856020Y-107348020D01*
X123698000Y-121666000D02*
X109380020Y-107348020D01*
D22*
X140843000Y-120142000D02*
X141224000Y-120142000D01*
X140843000Y-120142000D02*
X140843000Y-120142000D01*
X140843000Y-109728000D02*
X140843000Y-120142000D01*
X141859000Y-108712000D02*
X140843000Y-109728000D01*
X142113000Y-108712000D02*
X141859000Y-108712000D01*
D24*
X138176000Y-123190000D02*
X137414000Y-123190000D01*
D22*
X143317000Y-109916000D02*
X142113000Y-108712000D01*
X143942000Y-109916000D02*
X143317000Y-109916000D01*
X145034000Y-123825000D02*
X145034000Y-128270000D01*
X144145000Y-122936000D02*
X145034000Y-123825000D01*
D21*
X103886000Y-145288000D02*
X106426000Y-145288000D01*
D22*
X106426000Y-145288000D02*
X106426000Y-145542000D01*
D24*
X136906000Y-122682000D02*
X136398000Y-122174000D01*
X137414000Y-123190000D02*
X136906000Y-122682000D01*
D22*
X136398000Y-122174000D02*
X134366000Y-122174000D01*
X148336000Y-107950000D02*
X147574000Y-108712000D01*
X148336000Y-101346000D02*
X148336000Y-107950000D01*
X147574000Y-100584000D02*
X148336000Y-101346000D01*
X147574000Y-108712000D02*
X142113000Y-108712000D01*
X140970000Y-100584000D02*
X147574000Y-100584000D01*
X145034000Y-128270000D02*
X146812000Y-128270000D01*
X137541000Y-124333000D02*
X139446000Y-126238000D01*
X139446000Y-126238000D02*
X139446000Y-134112000D01*
X139446000Y-134112000D02*
X144272000Y-138938000D01*
X144272000Y-138938000D02*
X144272000Y-143764000D01*
X144272000Y-143764000D02*
X149352000Y-143764000D01*
X149352000Y-143764000D02*
X149352000Y-100584000D01*
X149352000Y-100584000D02*
X147574000Y-100584000D01*
X137414000Y-123190000D02*
X137414000Y-124206000D01*
X120650000Y-108966000D02*
X120650000Y-111506000D01*
X121412000Y-108204000D02*
X120650000Y-108966000D01*
X121412000Y-101346000D02*
X121412000Y-108204000D01*
X121412000Y-101346000D02*
X120650000Y-100584000D01*
X124714000Y-115570000D02*
X120650000Y-111506000D01*
X124714000Y-114554000D02*
X124714000Y-115570000D01*
X126746000Y-112522000D02*
X124714000Y-114554000D01*
X128016000Y-112522000D02*
X126746000Y-112522000D01*
X128270000Y-112268000D02*
X128016000Y-112522000D01*
X129032000Y-112268000D02*
X128270000Y-112268000D01*
X129540000Y-112776000D02*
X129032000Y-112268000D01*
X129540000Y-113538000D02*
X129540000Y-112776000D01*
X129032000Y-114046000D02*
X129540000Y-113538000D01*
X128524000Y-114046000D02*
X129032000Y-114046000D01*
X127254000Y-115316000D02*
X128524000Y-114046000D01*
X127254000Y-121666000D02*
X127254000Y-115316000D01*
X118110000Y-112014000D02*
X118110000Y-108712000D01*
X118110000Y-108712000D02*
X114046000Y-108712000D01*
X114046000Y-108712000D02*
X113284000Y-107950000D01*
X113284000Y-107950000D02*
X113284000Y-104140000D01*
X122174000Y-117348000D02*
X122936000Y-117348000D01*
X121666000Y-117856000D02*
X122174000Y-117348000D01*
X121666000Y-118110000D02*
X121666000Y-117856000D01*
X109728000Y-106172000D02*
X121666000Y-118110000D01*
X109220000Y-106172000D02*
X109728000Y-106172000D01*
X109220000Y-101346000D02*
X109220000Y-106172000D01*
X108458000Y-100584000D02*
X109220000Y-101346000D01*
X122936000Y-116840000D02*
X118110000Y-112014000D01*
X122936000Y-116840000D02*
X122936000Y-117348000D01*
X130048000Y-122174000D02*
X130048000Y-124206000D01*
D24*
X127000000Y-121666000D02*
X127254000Y-121666000D01*
X125857000Y-121666000D02*
X127000000Y-121666000D01*
X125857000Y-121666000D02*
X125857000Y-122809000D01*
X127000000Y-121666000D02*
X125857000Y-122809000D01*
X136525000Y-122047000D02*
X136398000Y-122174000D01*
X136906000Y-122047000D02*
X136525000Y-122047000D01*
X138176000Y-122047000D02*
X136906000Y-122047000D01*
X138176000Y-122047000D02*
X138176000Y-123190000D01*
X136906000Y-122047000D02*
X136906000Y-122682000D01*
D22*
X140208000Y-121920000D02*
X140462000Y-122174000D01*
X140462000Y-122174000D02*
X141224000Y-122174000D01*
X141224000Y-122174000D02*
X141986000Y-121412000D01*
X141986000Y-121412000D02*
X141986000Y-120650000D01*
X141986000Y-120650000D02*
X141478000Y-120142000D01*
X141478000Y-120142000D02*
X141224000Y-120142000D01*
X139954000Y-121920000D02*
X138684000Y-123190000D01*
X138176000Y-123190000D02*
X138684000Y-123190000D01*
X139954000Y-121920000D02*
X140208000Y-121920000D01*
X145034000Y-130048000D02*
X144526000Y-130556000D01*
X145034000Y-128270000D02*
X145034000Y-130048000D01*
X110490000Y-149352000D02*
X111252000Y-148590000D01*
X139192000Y-147828000D02*
X139192000Y-149352000D01*
X134279000Y-136652000D02*
X128524000Y-136652000D01*
X128524000Y-136652000D02*
X128524000Y-140462000D01*
X126238000Y-142748000D02*
X128524000Y-140462000D01*
X110490000Y-142748000D02*
X126238000Y-142748000D01*
X110490000Y-149352000D02*
X110490000Y-142748000D01*
X139192000Y-149352000D02*
X110490000Y-149352000D01*
X134279000Y-136652000D02*
X141224000Y-136652000D01*
X143764000Y-149352000D02*
X139192000Y-149352000D01*
X143764000Y-139192000D02*
X143764000Y-149352000D01*
X141224000Y-136652000D02*
X143764000Y-139192000D01*
X130683000Y-140248000D02*
X134279000Y-136652000D01*
X111506000Y-137668000D02*
X111506000Y-138176000D01*
X140716000Y-136144000D02*
X138938000Y-134366000D01*
X138938000Y-134366000D02*
X138938000Y-128016000D01*
X140716000Y-136144000D02*
X140462000Y-136144000D01*
X138823000Y-128131000D02*
X138938000Y-128016000D01*
X137668000Y-128131000D02*
X138823000Y-128131000D01*
X138938000Y-126492000D02*
X137160000Y-124714000D01*
X138938000Y-128016000D02*
X138938000Y-126492000D01*
X111506000Y-137668000D02*
X125984000Y-137668000D01*
X125984000Y-128524000D02*
X125984000Y-137668000D01*
X125984000Y-126746000D02*
X125984000Y-128524000D01*
X127254000Y-125476000D02*
X125984000Y-126746000D01*
X128524000Y-125476000D02*
X127254000Y-125476000D01*
X129286000Y-124714000D02*
X128524000Y-125476000D01*
X137160000Y-124714000D02*
X129286000Y-124714000D01*
X111760000Y-142240000D02*
X125984000Y-142240000D01*
X125984000Y-142240000D02*
X128016000Y-140208000D01*
X128016000Y-140208000D02*
X128016000Y-136144000D01*
X128016000Y-136144000D02*
X140462000Y-136144000D01*
X140462000Y-136144000D02*
X140716000Y-136144000D01*
X125984000Y-142240000D02*
X125984000Y-141478000D01*
X108204000Y-141986000D02*
X108204000Y-142240000D01*
X108204000Y-142240000D02*
X111760000Y-142240000D01*
X128016000Y-139700000D02*
X126492000Y-139700000D01*
X125984000Y-128331000D02*
X125984000Y-128524000D01*
X127000000Y-128331000D02*
X125984000Y-128331000D01*
X106426000Y-140208000D02*
X108204000Y-141986000D01*
X104902000Y-138684000D02*
X103124000Y-138684000D01*
X103124000Y-138684000D02*
X103124000Y-137668000D01*
X103124000Y-137668000D02*
X111506000Y-137668000D01*
X106426000Y-140208000D02*
X104902000Y-138684000D01*
D10*
G36*
X101593606Y-100773684D02*
X101281685Y-101085605D01*
X101061996Y-101187349D01*
X100877026Y-101778703D01*
X100932437Y-102395828D01*
X101042000Y-102660336D01*
X101042000Y-106651317D01*
X100877026Y-107178743D01*
X100932437Y-107795868D01*
X101061996Y-108108651D01*
X101281685Y-108210395D01*
X101593605Y-108522315D01*
X101695349Y-108742004D01*
X102286703Y-108926974D01*
X102903828Y-108871563D01*
X103168336Y-108762000D01*
X107159317Y-108762000D01*
X107686743Y-108926974D01*
X108303868Y-108871563D01*
X108616651Y-108742004D01*
X108718395Y-108522315D01*
X108730104Y-108510606D01*
X108833964Y-108614466D01*
X108940430Y-108508000D01*
X108945290Y-108508000D01*
X119902191Y-119464901D01*
X119805474Y-119464817D01*
X119416474Y-119625549D01*
X119118595Y-119922909D01*
X118957184Y-120311628D01*
X118956817Y-120732526D01*
X119117549Y-121121526D01*
X119414909Y-121419405D01*
X119803628Y-121580816D01*
X120224526Y-121581183D01*
X120613526Y-121420451D01*
X120911405Y-121123091D01*
X121072816Y-120734372D01*
X121072902Y-120635612D01*
X123154645Y-122717355D01*
X123171185Y-122728325D01*
X123185025Y-122731752D01*
X125725025Y-122985752D01*
X125730000Y-122986000D01*
X126238000Y-122986000D01*
X126257453Y-122982061D01*
X126273355Y-122971355D01*
X127289355Y-121955355D01*
X127300325Y-121938815D01*
X127304000Y-121920000D01*
X127304000Y-120478526D01*
X129116817Y-120478526D01*
X129277549Y-120867526D01*
X129574909Y-121165405D01*
X129963628Y-121326816D01*
X130384526Y-121327183D01*
X130773526Y-121166451D01*
X131071405Y-120869091D01*
X131232816Y-120480372D01*
X131233183Y-120059474D01*
X131072451Y-119670474D01*
X130775091Y-119372595D01*
X130386372Y-119211184D01*
X129965474Y-119210817D01*
X129576474Y-119371549D01*
X129278595Y-119668909D01*
X129117184Y-120057628D01*
X129116817Y-120478526D01*
X127304000Y-120478526D01*
X127304000Y-116795526D01*
X129421617Y-116795526D01*
X129582349Y-117184526D01*
X129879709Y-117482405D01*
X130268428Y-117643816D01*
X130689326Y-117644183D01*
X131078326Y-117483451D01*
X131376205Y-117186091D01*
X131537616Y-116797372D01*
X131537617Y-116795526D01*
X132672817Y-116795526D01*
X132833549Y-117184526D01*
X133130909Y-117482405D01*
X133519628Y-117643816D01*
X133940526Y-117644183D01*
X134329526Y-117483451D01*
X134627405Y-117186091D01*
X134788816Y-116797372D01*
X134789183Y-116376474D01*
X134628451Y-115987474D01*
X134331091Y-115689595D01*
X133942372Y-115528184D01*
X133521474Y-115527817D01*
X133132474Y-115688549D01*
X132834595Y-115985909D01*
X132673184Y-116374628D01*
X132672817Y-116795526D01*
X131537617Y-116795526D01*
X131537983Y-116376474D01*
X131377251Y-115987474D01*
X131079891Y-115689595D01*
X130691172Y-115528184D01*
X130270274Y-115527817D01*
X129881274Y-115688549D01*
X129583395Y-115985909D01*
X129421984Y-116374628D01*
X129421617Y-116795526D01*
X127304000Y-116795526D01*
X127304000Y-115336710D01*
X128429924Y-114210786D01*
X128439628Y-114214816D01*
X128860526Y-114215183D01*
X129249526Y-114054451D01*
X129547405Y-113757091D01*
X129708816Y-113368372D01*
X129709183Y-112947474D01*
X129548451Y-112558474D01*
X129251091Y-112260595D01*
X128862372Y-112099184D01*
X128441474Y-112098817D01*
X128052474Y-112259549D01*
X127839652Y-112472000D01*
X126746000Y-112472000D01*
X126726547Y-112475939D01*
X126710645Y-112486645D01*
X124678645Y-114518645D01*
X124667675Y-114535185D01*
X124664000Y-114554000D01*
X124664000Y-115449290D01*
X121692236Y-112477526D01*
X122639817Y-112477526D01*
X122800549Y-112866526D01*
X123097909Y-113164405D01*
X123486628Y-113325816D01*
X123907526Y-113326183D01*
X124296526Y-113165451D01*
X124594405Y-112868091D01*
X124755816Y-112479372D01*
X124756183Y-112058474D01*
X124595451Y-111669474D01*
X124298091Y-111371595D01*
X123909372Y-111210184D01*
X123488474Y-111209817D01*
X123099474Y-111370549D01*
X122801595Y-111667909D01*
X122640184Y-112056628D01*
X122639817Y-112477526D01*
X121692236Y-112477526D01*
X120700000Y-111485290D01*
X120700000Y-111100212D01*
X121038000Y-111224000D01*
X121538000Y-111224000D01*
X121538000Y-110120000D01*
X121946000Y-110120000D01*
X121946000Y-111224000D01*
X122446000Y-111224000D01*
X122931021Y-111046367D01*
X123311145Y-110696646D01*
X123486175Y-110319601D01*
X123392555Y-110120000D01*
X121946000Y-110120000D01*
X121538000Y-110120000D01*
X121518000Y-110120000D01*
X121518000Y-109712000D01*
X121538000Y-109712000D01*
X121538000Y-108608000D01*
X121946000Y-108608000D01*
X121946000Y-109712000D01*
X123392555Y-109712000D01*
X123486175Y-109512399D01*
X123311145Y-109135354D01*
X122931021Y-108785633D01*
X122446000Y-108608000D01*
X121946000Y-108608000D01*
X121538000Y-108608000D01*
X121078710Y-108608000D01*
X121447355Y-108239355D01*
X121458325Y-108222815D01*
X121462000Y-108204000D01*
X121462000Y-108044723D01*
X121626974Y-107517297D01*
X121571563Y-106900172D01*
X121462000Y-106635664D01*
X121462000Y-102644683D01*
X121626974Y-102117257D01*
X121571563Y-101500132D01*
X121442004Y-101187349D01*
X121222315Y-101085605D01*
X120910394Y-100773684D01*
X120868859Y-100684000D01*
X128559141Y-100684000D01*
X128517606Y-100773684D01*
X128205685Y-101085605D01*
X127985996Y-101187349D01*
X127801026Y-101778703D01*
X127856437Y-102395828D01*
X127966000Y-102660336D01*
X127966000Y-106651317D01*
X127801026Y-107178743D01*
X127856437Y-107795868D01*
X127985996Y-108108651D01*
X128205685Y-108210395D01*
X128517605Y-108522315D01*
X128619349Y-108742004D01*
X129210703Y-108926974D01*
X129827828Y-108871563D01*
X130092336Y-108762000D01*
X133554000Y-108762000D01*
X133554000Y-112753699D01*
X133442091Y-112641595D01*
X133053372Y-112480184D01*
X132632474Y-112479817D01*
X132243474Y-112640549D01*
X131945595Y-112937909D01*
X131784184Y-113326628D01*
X131783817Y-113747526D01*
X131944549Y-114136526D01*
X132241909Y-114434405D01*
X132630628Y-114595816D01*
X133051526Y-114596183D01*
X133440526Y-114435451D01*
X133738405Y-114138091D01*
X133854293Y-113859003D01*
X134824000Y-114828710D01*
X134824000Y-118822000D01*
X132588000Y-118822000D01*
X132568547Y-118825939D01*
X132552645Y-118836645D01*
X132044645Y-119344645D01*
X132033675Y-119361185D01*
X132030000Y-119380000D01*
X132030000Y-120142000D01*
X132033939Y-120161453D01*
X132044645Y-120177355D01*
X132552645Y-120685355D01*
X132569185Y-120696325D01*
X132588000Y-120700000D01*
X133018328Y-120700000D01*
X133087549Y-120867526D01*
X133384909Y-121165405D01*
X133773628Y-121326816D01*
X134194526Y-121327183D01*
X134583526Y-121166451D01*
X134881405Y-120869091D01*
X134951618Y-120700000D01*
X135097098Y-120700000D01*
X135337279Y-121180361D01*
X135346645Y-121193355D01*
X137364000Y-123210710D01*
X137364000Y-123952000D01*
X137367939Y-123971453D01*
X137379136Y-123987840D01*
X137395827Y-123998581D01*
X137415381Y-124001981D01*
X137434718Y-123997506D01*
X137450790Y-123985860D01*
X137461434Y-123967811D01*
X137704038Y-123240000D01*
X138684000Y-123240000D01*
X138703453Y-123236061D01*
X138719355Y-123225355D01*
X139963872Y-121980838D01*
X140439639Y-122218721D01*
X140462000Y-122224000D01*
X141224000Y-122224000D01*
X141243453Y-122220061D01*
X141259355Y-122209355D01*
X141520355Y-121948355D01*
X141568526Y-121928451D01*
X141866405Y-121631091D01*
X141886846Y-121581864D01*
X142021355Y-121447355D01*
X142032325Y-121430815D01*
X142036000Y-121412000D01*
X142036000Y-120650000D01*
X142032061Y-120630547D01*
X142021355Y-120614645D01*
X141887355Y-120480645D01*
X141867451Y-120432474D01*
X141570091Y-120134595D01*
X141520864Y-120114154D01*
X141513355Y-120106645D01*
X141496815Y-120095675D01*
X141478000Y-120092000D01*
X141467511Y-120092000D01*
X141181372Y-119973184D01*
X140766000Y-119972822D01*
X140766000Y-118689535D01*
X141491326Y-118689535D01*
X141643626Y-119058129D01*
X141925388Y-119340382D01*
X142293716Y-119493325D01*
X142692535Y-119493674D01*
X143029177Y-119354576D01*
X142948184Y-119549628D01*
X142947817Y-119970526D01*
X143108549Y-120359526D01*
X143405909Y-120657405D01*
X143794628Y-120818816D01*
X144215526Y-120819183D01*
X144604526Y-120658451D01*
X144902405Y-120361091D01*
X145063816Y-119972372D01*
X145064183Y-119551474D01*
X144903451Y-119162474D01*
X144684894Y-118943535D01*
X145809326Y-118943535D01*
X145961626Y-119312129D01*
X146243388Y-119594382D01*
X146611716Y-119747325D01*
X147010535Y-119747674D01*
X147379129Y-119595374D01*
X147661382Y-119313612D01*
X147814325Y-118945284D01*
X147814674Y-118546465D01*
X147662374Y-118177871D01*
X147380612Y-117895618D01*
X147012284Y-117742675D01*
X146613465Y-117742326D01*
X146244871Y-117894626D01*
X145962618Y-118176388D01*
X145809675Y-118544716D01*
X145809326Y-118943535D01*
X144684894Y-118943535D01*
X144606091Y-118864595D01*
X144217372Y-118703184D01*
X143796474Y-118702817D01*
X143428382Y-118854910D01*
X143496325Y-118691284D01*
X143496674Y-118292465D01*
X143344374Y-117923871D01*
X143062612Y-117641618D01*
X142694284Y-117488675D01*
X142295465Y-117488326D01*
X141926871Y-117640626D01*
X141644618Y-117922388D01*
X141491675Y-118290716D01*
X141491326Y-118689535D01*
X140766000Y-118689535D01*
X140766000Y-115271526D01*
X141181817Y-115271526D01*
X141342549Y-115660526D01*
X141639909Y-115958405D01*
X142028628Y-116119816D01*
X142449526Y-116120183D01*
X142838526Y-115959451D01*
X143136405Y-115662091D01*
X143297816Y-115273372D01*
X143298183Y-114852474D01*
X143137451Y-114463474D01*
X142840091Y-114165595D01*
X142451372Y-114004184D01*
X142030474Y-114003817D01*
X141641474Y-114164549D01*
X141343595Y-114461909D01*
X141182184Y-114850628D01*
X141181817Y-115271526D01*
X140766000Y-115271526D01*
X140766000Y-110319601D01*
X142197825Y-110319601D01*
X142372855Y-110696646D01*
X142752979Y-111046367D01*
X143238000Y-111224000D01*
X143738000Y-111224000D01*
X143738000Y-110120000D01*
X144146000Y-110120000D01*
X144146000Y-111224000D01*
X144646000Y-111224000D01*
X145131021Y-111046367D01*
X145511145Y-110696646D01*
X145686175Y-110319601D01*
X145592555Y-110120000D01*
X144146000Y-110120000D01*
X143738000Y-110120000D01*
X142291445Y-110120000D01*
X142197825Y-110319601D01*
X140766000Y-110319601D01*
X140766000Y-109999539D01*
X141641182Y-108905561D01*
X142019828Y-108871563D01*
X142284336Y-108762000D01*
X142817508Y-108762000D01*
X142752979Y-108785633D01*
X142372855Y-109135354D01*
X142197825Y-109512399D01*
X142291445Y-109712000D01*
X143738000Y-109712000D01*
X143738000Y-109692000D01*
X144146000Y-109692000D01*
X144146000Y-109712000D01*
X145592555Y-109712000D01*
X145686175Y-109512399D01*
X145511145Y-109135354D01*
X145131021Y-108785633D01*
X145066492Y-108762000D01*
X146275317Y-108762000D01*
X146802743Y-108926974D01*
X147419868Y-108871563D01*
X147732651Y-108742004D01*
X147834395Y-108522315D01*
X148146315Y-108210395D01*
X148366004Y-108108651D01*
X148550974Y-107517297D01*
X148495563Y-106900172D01*
X148386000Y-106635664D01*
X148386000Y-102644683D01*
X148550974Y-102117257D01*
X148495563Y-101500132D01*
X148366004Y-101187349D01*
X148146315Y-101085605D01*
X147834394Y-100773684D01*
X147792859Y-100684000D01*
X149252000Y-100684000D01*
X149252000Y-143714000D01*
X146357979Y-143714000D01*
X146304000Y-143703069D01*
X144449000Y-143703069D01*
X144449000Y-139192000D01*
X144396857Y-138929862D01*
X144248368Y-138707632D01*
X141708368Y-136167632D01*
X141486138Y-136019143D01*
X141408387Y-136003677D01*
X141364323Y-135959613D01*
X141348857Y-135881862D01*
X141200368Y-135659632D01*
X139623000Y-134082264D01*
X139623000Y-133819601D01*
X142197825Y-133819601D01*
X142372855Y-134196646D01*
X142752979Y-134546367D01*
X143238000Y-134724000D01*
X143738000Y-134724000D01*
X143738000Y-133620000D01*
X144146000Y-133620000D01*
X144146000Y-134724000D01*
X144646000Y-134724000D01*
X145131021Y-134546367D01*
X145511145Y-134196646D01*
X145686175Y-133819601D01*
X145592555Y-133620000D01*
X144146000Y-133620000D01*
X143738000Y-133620000D01*
X142291445Y-133620000D01*
X142197825Y-133819601D01*
X139623000Y-133819601D01*
X139623000Y-133012399D01*
X142197825Y-133012399D01*
X142291445Y-133212000D01*
X143738000Y-133212000D01*
X143738000Y-132108000D01*
X144146000Y-132108000D01*
X144146000Y-133212000D01*
X145592555Y-133212000D01*
X145686175Y-133012399D01*
X145511145Y-132635354D01*
X145131021Y-132285633D01*
X144646000Y-132108000D01*
X144146000Y-132108000D01*
X143738000Y-132108000D01*
X143238000Y-132108000D01*
X142752979Y-132285633D01*
X142372855Y-132635354D01*
X142197825Y-133012399D01*
X139623000Y-133012399D01*
X139623000Y-128098526D01*
X139911817Y-128098526D01*
X140072549Y-128487526D01*
X140369909Y-128785405D01*
X140758628Y-128946816D01*
X141179526Y-128947183D01*
X141568526Y-128786451D01*
X141866405Y-128489091D01*
X142027816Y-128100372D01*
X142028183Y-127679474D01*
X141867451Y-127290474D01*
X141570091Y-126992595D01*
X141181372Y-126831184D01*
X140760474Y-126830817D01*
X140371474Y-126991549D01*
X140073595Y-127288909D01*
X139912184Y-127677628D01*
X139911817Y-128098526D01*
X139623000Y-128098526D01*
X139623000Y-126492000D01*
X139570857Y-126229862D01*
X139422368Y-126007632D01*
X138962271Y-125547535D01*
X141491326Y-125547535D01*
X141643626Y-125916129D01*
X141925388Y-126198382D01*
X142293716Y-126351325D01*
X142692535Y-126351674D01*
X143043662Y-126206591D01*
X142960184Y-126407628D01*
X142959817Y-126828526D01*
X143120549Y-127217526D01*
X143417909Y-127515405D01*
X143806628Y-127676816D01*
X144227526Y-127677183D01*
X144616526Y-127516451D01*
X144914405Y-127219091D01*
X145075816Y-126830372D01*
X145076183Y-126409474D01*
X144915451Y-126020474D01*
X144696894Y-125801535D01*
X145809326Y-125801535D01*
X145961626Y-126170129D01*
X146243388Y-126452382D01*
X146611716Y-126605325D01*
X147010535Y-126605674D01*
X147379129Y-126453374D01*
X147661382Y-126171612D01*
X147814325Y-125803284D01*
X147814674Y-125404465D01*
X147662374Y-125035871D01*
X147380612Y-124753618D01*
X147012284Y-124600675D01*
X146613465Y-124600326D01*
X146244871Y-124752626D01*
X145962618Y-125034388D01*
X145809675Y-125402716D01*
X145809326Y-125801535D01*
X144696894Y-125801535D01*
X144618091Y-125722595D01*
X144229372Y-125561184D01*
X143808474Y-125560817D01*
X143425896Y-125718895D01*
X143496325Y-125549284D01*
X143496674Y-125150465D01*
X143344374Y-124781871D01*
X143062612Y-124499618D01*
X142694284Y-124346675D01*
X142295465Y-124346326D01*
X141926871Y-124498626D01*
X141644618Y-124780388D01*
X141491675Y-125148716D01*
X141491326Y-125547535D01*
X138962271Y-125547535D01*
X137644368Y-124229632D01*
X137422138Y-124081143D01*
X137160000Y-124029000D01*
X129286000Y-124029000D01*
X129023862Y-124081143D01*
X128801632Y-124229632D01*
X128240264Y-124791000D01*
X127254000Y-124791000D01*
X126991862Y-124843143D01*
X126769632Y-124991632D01*
X125499632Y-126261632D01*
X125351143Y-126483862D01*
X125299000Y-126746000D01*
X125299000Y-136983000D01*
X110131079Y-136983000D01*
X110370405Y-136744091D01*
X110531816Y-136355372D01*
X110532183Y-135934474D01*
X110371451Y-135545474D01*
X110074091Y-135247595D01*
X109685372Y-135086184D01*
X109264474Y-135085817D01*
X108875474Y-135246549D01*
X108577595Y-135543909D01*
X108416184Y-135932628D01*
X108415817Y-136353526D01*
X108576549Y-136742526D01*
X108816604Y-136983000D01*
X103527079Y-136983000D01*
X103766405Y-136744091D01*
X103927816Y-136355372D01*
X103928183Y-135934474D01*
X103767451Y-135545474D01*
X103693606Y-135471500D01*
X104774000Y-135471500D01*
X104774000Y-136178993D01*
X104858950Y-136384082D01*
X105015918Y-136541049D01*
X105221007Y-136626000D01*
X105828500Y-136626000D01*
X105968000Y-136486500D01*
X105968000Y-135332000D01*
X106376000Y-135332000D01*
X106376000Y-136486500D01*
X106515500Y-136626000D01*
X107122993Y-136626000D01*
X107328082Y-136541049D01*
X107485050Y-136384082D01*
X107570000Y-136178993D01*
X107570000Y-135471500D01*
X107430500Y-135332000D01*
X106376000Y-135332000D01*
X105968000Y-135332000D01*
X104913500Y-135332000D01*
X104774000Y-135471500D01*
X103693606Y-135471500D01*
X103470091Y-135247595D01*
X103081372Y-135086184D01*
X102660474Y-135085817D01*
X102271474Y-135246549D01*
X101973595Y-135543909D01*
X101812184Y-135932628D01*
X101811817Y-136353526D01*
X101972549Y-136742526D01*
X102269909Y-137040405D01*
X102566000Y-137163353D01*
X102566000Y-137293831D01*
X102491143Y-137405862D01*
X102439000Y-137668000D01*
X102439000Y-138684000D01*
X102491143Y-138946138D01*
X102554444Y-139040875D01*
X102498293Y-139123054D01*
X102453469Y-139344400D01*
X102453469Y-141071600D01*
X102492378Y-141278382D01*
X102566000Y-141392794D01*
X102566000Y-142172192D01*
X102544762Y-142203977D01*
X102436549Y-142748000D01*
X102544762Y-143292023D01*
X102566000Y-143323808D01*
X102566000Y-144526000D01*
X102569939Y-144545453D01*
X102581136Y-144561840D01*
X102597827Y-144572581D01*
X102616000Y-144576000D01*
X102668439Y-144576000D01*
X102627883Y-144626083D01*
X102528347Y-144866426D01*
X102620234Y-145084000D01*
X103611290Y-145084000D01*
X103850645Y-145323355D01*
X103867185Y-145334325D01*
X103886000Y-145338000D01*
X104110000Y-145338000D01*
X104110000Y-145492000D01*
X104090000Y-145492000D01*
X104090000Y-145512000D01*
X103682000Y-145512000D01*
X103682000Y-145492000D01*
X102620234Y-145492000D01*
X102528347Y-145709574D01*
X102627883Y-145949917D01*
X102976956Y-146380992D01*
X103273297Y-146541894D01*
X102852926Y-146822777D01*
X102544762Y-147283977D01*
X102436549Y-147828000D01*
X102544762Y-148372023D01*
X102852926Y-148833223D01*
X103314126Y-149141387D01*
X103858149Y-149249600D01*
X103913851Y-149249600D01*
X104457874Y-149141387D01*
X104919074Y-148833223D01*
X105156000Y-148478638D01*
X105392926Y-148833223D01*
X105854126Y-149141387D01*
X106398149Y-149249600D01*
X106453851Y-149249600D01*
X106997874Y-149141387D01*
X107459074Y-148833223D01*
X107767238Y-148372023D01*
X107875451Y-147828000D01*
X107767238Y-147283977D01*
X107459074Y-146822777D01*
X107038703Y-146541894D01*
X107335044Y-146380992D01*
X107684117Y-145949917D01*
X107783653Y-145709574D01*
X107691766Y-145492000D01*
X106630000Y-145492000D01*
X106630000Y-145512000D01*
X106222000Y-145512000D01*
X106222000Y-145492000D01*
X106202000Y-145492000D01*
X106202000Y-145338000D01*
X106426000Y-145338000D01*
X106445453Y-145334061D01*
X106461355Y-145323355D01*
X106700710Y-145084000D01*
X107691766Y-145084000D01*
X107783653Y-144866426D01*
X107684117Y-144626083D01*
X107643561Y-144576000D01*
X108204000Y-144576000D01*
X108223453Y-144572061D01*
X108239840Y-144560864D01*
X108250581Y-144544173D01*
X108254000Y-144526000D01*
X108254000Y-142925000D01*
X109805000Y-142925000D01*
X109805000Y-149252000D01*
X100684000Y-149252000D01*
X100684000Y-134077007D01*
X104774000Y-134077007D01*
X104774000Y-134784500D01*
X104913500Y-134924000D01*
X105968000Y-134924000D01*
X105968000Y-133769500D01*
X106376000Y-133769500D01*
X106376000Y-134924000D01*
X107430500Y-134924000D01*
X107570000Y-134784500D01*
X107570000Y-134077007D01*
X107485050Y-133871918D01*
X107432733Y-133819601D01*
X119997825Y-133819601D01*
X120172855Y-134196646D01*
X120552979Y-134546367D01*
X121038000Y-134724000D01*
X121538000Y-134724000D01*
X121538000Y-133620000D01*
X121946000Y-133620000D01*
X121946000Y-134724000D01*
X122446000Y-134724000D01*
X122931021Y-134546367D01*
X123311145Y-134196646D01*
X123486175Y-133819601D01*
X123392555Y-133620000D01*
X121946000Y-133620000D01*
X121538000Y-133620000D01*
X120091445Y-133620000D01*
X119997825Y-133819601D01*
X107432733Y-133819601D01*
X107328082Y-133714951D01*
X107122993Y-133630000D01*
X106515500Y-133630000D01*
X106376000Y-133769500D01*
X105968000Y-133769500D01*
X105828500Y-133630000D01*
X105221007Y-133630000D01*
X105015918Y-133714951D01*
X104858950Y-133871918D01*
X104774000Y-134077007D01*
X100684000Y-134077007D01*
X100684000Y-133012399D01*
X119997825Y-133012399D01*
X120091445Y-133212000D01*
X121538000Y-133212000D01*
X121538000Y-132108000D01*
X121946000Y-132108000D01*
X121946000Y-133212000D01*
X123392555Y-133212000D01*
X123486175Y-133012399D01*
X123311145Y-132635354D01*
X122931021Y-132285633D01*
X122446000Y-132108000D01*
X121946000Y-132108000D01*
X121538000Y-132108000D01*
X121038000Y-132108000D01*
X120552979Y-132285633D01*
X120172855Y-132635354D01*
X119997825Y-133012399D01*
X100684000Y-133012399D01*
X100684000Y-130765526D01*
X101811817Y-130765526D01*
X101972549Y-131154526D01*
X102269909Y-131452405D01*
X102658628Y-131613816D01*
X103079526Y-131614183D01*
X103468526Y-131453451D01*
X103766405Y-131156091D01*
X103927816Y-130767372D01*
X103928183Y-130346474D01*
X103767451Y-129957474D01*
X103693606Y-129883500D01*
X104774000Y-129883500D01*
X104774000Y-130590993D01*
X104858950Y-130796082D01*
X105015918Y-130953049D01*
X105221007Y-131038000D01*
X105828500Y-131038000D01*
X105968000Y-130898500D01*
X105968000Y-129744000D01*
X106376000Y-129744000D01*
X106376000Y-130898500D01*
X106515500Y-131038000D01*
X107122993Y-131038000D01*
X107328082Y-130953049D01*
X107485050Y-130796082D01*
X107497706Y-130765526D01*
X108415817Y-130765526D01*
X108576549Y-131154526D01*
X108873909Y-131452405D01*
X109262628Y-131613816D01*
X109683526Y-131614183D01*
X110072526Y-131453451D01*
X110370405Y-131156091D01*
X110531816Y-130767372D01*
X110532183Y-130346474D01*
X110371451Y-129957474D01*
X110074091Y-129659595D01*
X109685372Y-129498184D01*
X109264474Y-129497817D01*
X108875474Y-129658549D01*
X108577595Y-129955909D01*
X108416184Y-130344628D01*
X108415817Y-130765526D01*
X107497706Y-130765526D01*
X107570000Y-130590993D01*
X107570000Y-129883500D01*
X107430500Y-129744000D01*
X106376000Y-129744000D01*
X105968000Y-129744000D01*
X104913500Y-129744000D01*
X104774000Y-129883500D01*
X103693606Y-129883500D01*
X103470091Y-129659595D01*
X103081372Y-129498184D01*
X102660474Y-129497817D01*
X102271474Y-129658549D01*
X101973595Y-129955909D01*
X101812184Y-130344628D01*
X101811817Y-130765526D01*
X100684000Y-130765526D01*
X100684000Y-128489007D01*
X104774000Y-128489007D01*
X104774000Y-129196500D01*
X104913500Y-129336000D01*
X105968000Y-129336000D01*
X105968000Y-128181500D01*
X106376000Y-128181500D01*
X106376000Y-129336000D01*
X107430500Y-129336000D01*
X107524974Y-129241526D01*
X118829817Y-129241526D01*
X118990549Y-129630526D01*
X119287909Y-129928405D01*
X119676628Y-130089816D01*
X120097526Y-130090183D01*
X120486526Y-129929451D01*
X120784405Y-129632091D01*
X120945816Y-129243372D01*
X120946183Y-128822474D01*
X120785451Y-128433474D01*
X120488091Y-128135595D01*
X120099372Y-127974184D01*
X119678474Y-127973817D01*
X119289474Y-128134549D01*
X118991595Y-128431909D01*
X118830184Y-128820628D01*
X118829817Y-129241526D01*
X107524974Y-129241526D01*
X107570000Y-129196500D01*
X107570000Y-128489007D01*
X107485050Y-128283918D01*
X107328082Y-128126951D01*
X107122993Y-128042000D01*
X106515500Y-128042000D01*
X106376000Y-128181500D01*
X105968000Y-128181500D01*
X105828500Y-128042000D01*
X105221007Y-128042000D01*
X105015918Y-128126951D01*
X104858950Y-128283918D01*
X104774000Y-128489007D01*
X100684000Y-128489007D01*
X100684000Y-126828526D01*
X121496817Y-126828526D01*
X121657549Y-127217526D01*
X121954909Y-127515405D01*
X122343628Y-127676816D01*
X122764526Y-127677183D01*
X123153526Y-127516451D01*
X123451405Y-127219091D01*
X123612816Y-126830372D01*
X123613183Y-126409474D01*
X123452451Y-126020474D01*
X123155091Y-125722595D01*
X122766372Y-125561184D01*
X122345474Y-125560817D01*
X121956474Y-125721549D01*
X121658595Y-126018909D01*
X121497184Y-126407628D01*
X121496817Y-126828526D01*
X100684000Y-126828526D01*
X100684000Y-125177526D01*
X101811817Y-125177526D01*
X101972549Y-125566526D01*
X102269909Y-125864405D01*
X102658628Y-126025816D01*
X103079526Y-126026183D01*
X103468526Y-125865451D01*
X103766405Y-125568091D01*
X103927816Y-125179372D01*
X103928183Y-124758474D01*
X103767451Y-124369474D01*
X103693606Y-124295500D01*
X104774000Y-124295500D01*
X104774000Y-125002993D01*
X104858950Y-125208082D01*
X105015918Y-125365049D01*
X105221007Y-125450000D01*
X105828500Y-125450000D01*
X105968000Y-125310500D01*
X105968000Y-124156000D01*
X106376000Y-124156000D01*
X106376000Y-125310500D01*
X106515500Y-125450000D01*
X107122993Y-125450000D01*
X107328082Y-125365049D01*
X107485050Y-125208082D01*
X107502259Y-125166535D01*
X108471326Y-125166535D01*
X108623626Y-125535129D01*
X108905388Y-125817382D01*
X109273716Y-125970325D01*
X109672535Y-125970674D01*
X110041129Y-125818374D01*
X110323382Y-125536612D01*
X110476325Y-125168284D01*
X110476674Y-124769465D01*
X110324374Y-124400871D01*
X110042612Y-124118618D01*
X109674284Y-123965675D01*
X109275465Y-123965326D01*
X108906871Y-124117626D01*
X108624618Y-124399388D01*
X108471675Y-124767716D01*
X108471326Y-125166535D01*
X107502259Y-125166535D01*
X107570000Y-125002993D01*
X107570000Y-124295500D01*
X107430500Y-124156000D01*
X106376000Y-124156000D01*
X105968000Y-124156000D01*
X104913500Y-124156000D01*
X104774000Y-124295500D01*
X103693606Y-124295500D01*
X103470091Y-124071595D01*
X103081372Y-123910184D01*
X102660474Y-123909817D01*
X102271474Y-124070549D01*
X101973595Y-124367909D01*
X101812184Y-124756628D01*
X101811817Y-125177526D01*
X100684000Y-125177526D01*
X100684000Y-122880535D01*
X102883326Y-122880535D01*
X103035626Y-123249129D01*
X103317388Y-123531382D01*
X103685716Y-123684325D01*
X104084535Y-123684674D01*
X104453129Y-123532374D01*
X104735382Y-123250612D01*
X104774000Y-123157609D01*
X104774000Y-123608500D01*
X104913500Y-123748000D01*
X105968000Y-123748000D01*
X105968000Y-122593500D01*
X106376000Y-122593500D01*
X106376000Y-123748000D01*
X107430500Y-123748000D01*
X107570000Y-123608500D01*
X107570000Y-122901007D01*
X107485050Y-122695918D01*
X107328082Y-122538951D01*
X107122993Y-122454000D01*
X106515500Y-122454000D01*
X106376000Y-122593500D01*
X105968000Y-122593500D01*
X105828500Y-122454000D01*
X105221007Y-122454000D01*
X105015918Y-122538951D01*
X104888514Y-122666354D01*
X104888674Y-122483465D01*
X104736374Y-122114871D01*
X104454612Y-121832618D01*
X104086284Y-121679675D01*
X103687465Y-121679326D01*
X103318871Y-121831626D01*
X103036618Y-122113388D01*
X102883675Y-122481716D01*
X102883326Y-122880535D01*
X100684000Y-122880535D01*
X100684000Y-119589526D01*
X101811817Y-119589526D01*
X101972549Y-119978526D01*
X102269909Y-120276405D01*
X102658628Y-120437816D01*
X103079526Y-120438183D01*
X103468526Y-120277451D01*
X103766405Y-119980091D01*
X103927816Y-119591372D01*
X103928183Y-119170474D01*
X103767451Y-118781474D01*
X103693606Y-118707500D01*
X104774000Y-118707500D01*
X104774000Y-119414993D01*
X104858950Y-119620082D01*
X105015918Y-119777049D01*
X105221007Y-119862000D01*
X105828500Y-119862000D01*
X105968000Y-119722500D01*
X105968000Y-118568000D01*
X106376000Y-118568000D01*
X106376000Y-119722500D01*
X106515500Y-119862000D01*
X107122993Y-119862000D01*
X107328082Y-119777049D01*
X107485050Y-119620082D01*
X107497706Y-119589526D01*
X108415817Y-119589526D01*
X108576549Y-119978526D01*
X108873909Y-120276405D01*
X109262628Y-120437816D01*
X109683526Y-120438183D01*
X110072526Y-120277451D01*
X110370405Y-119980091D01*
X110531816Y-119591372D01*
X110532183Y-119170474D01*
X110371451Y-118781474D01*
X110074091Y-118483595D01*
X109685372Y-118322184D01*
X109264474Y-118321817D01*
X108875474Y-118482549D01*
X108577595Y-118779909D01*
X108416184Y-119168628D01*
X108415817Y-119589526D01*
X107497706Y-119589526D01*
X107570000Y-119414993D01*
X107570000Y-118707500D01*
X107430500Y-118568000D01*
X106376000Y-118568000D01*
X105968000Y-118568000D01*
X104913500Y-118568000D01*
X104774000Y-118707500D01*
X103693606Y-118707500D01*
X103470091Y-118483595D01*
X103081372Y-118322184D01*
X102660474Y-118321817D01*
X102271474Y-118482549D01*
X101973595Y-118779909D01*
X101812184Y-119168628D01*
X101811817Y-119589526D01*
X100684000Y-119589526D01*
X100684000Y-117038535D01*
X103264326Y-117038535D01*
X103416626Y-117407129D01*
X103698388Y-117689382D01*
X104066716Y-117842325D01*
X104465535Y-117842674D01*
X104774000Y-117715219D01*
X104774000Y-118020500D01*
X104913500Y-118160000D01*
X105968000Y-118160000D01*
X105968000Y-117005500D01*
X106376000Y-117005500D01*
X106376000Y-118160000D01*
X107430500Y-118160000D01*
X107570000Y-118020500D01*
X107570000Y-117313007D01*
X107485050Y-117107918D01*
X107328082Y-116950951D01*
X107122993Y-116866000D01*
X106515500Y-116866000D01*
X106376000Y-117005500D01*
X105968000Y-117005500D01*
X105828500Y-116866000D01*
X105269478Y-116866000D01*
X105269674Y-116641465D01*
X105117374Y-116272871D01*
X104835612Y-115990618D01*
X104467284Y-115837675D01*
X104068465Y-115837326D01*
X103699871Y-115989626D01*
X103417618Y-116271388D01*
X103264675Y-116639716D01*
X103264326Y-117038535D01*
X100684000Y-117038535D01*
X100684000Y-114001526D01*
X101811817Y-114001526D01*
X101972549Y-114390526D01*
X102269909Y-114688405D01*
X102658628Y-114849816D01*
X103079526Y-114850183D01*
X103468526Y-114689451D01*
X103766405Y-114392091D01*
X103927816Y-114003372D01*
X103928183Y-113582474D01*
X103767451Y-113193474D01*
X103693606Y-113119500D01*
X104774000Y-113119500D01*
X104774000Y-113826993D01*
X104858950Y-114032082D01*
X105015918Y-114189049D01*
X105221007Y-114274000D01*
X105828500Y-114274000D01*
X105968000Y-114134500D01*
X105968000Y-112980000D01*
X106376000Y-112980000D01*
X106376000Y-114134500D01*
X106515500Y-114274000D01*
X107122993Y-114274000D01*
X107328082Y-114189049D01*
X107485050Y-114032082D01*
X107497706Y-114001526D01*
X108415817Y-114001526D01*
X108576549Y-114390526D01*
X108873909Y-114688405D01*
X109262628Y-114849816D01*
X109683526Y-114850183D01*
X110072526Y-114689451D01*
X110370405Y-114392091D01*
X110531816Y-114003372D01*
X110532183Y-113582474D01*
X110371451Y-113193474D01*
X110074091Y-112895595D01*
X109685372Y-112734184D01*
X109264474Y-112733817D01*
X108875474Y-112894549D01*
X108577595Y-113191909D01*
X108416184Y-113580628D01*
X108415817Y-114001526D01*
X107497706Y-114001526D01*
X107570000Y-113826993D01*
X107570000Y-113119500D01*
X107430500Y-112980000D01*
X106376000Y-112980000D01*
X105968000Y-112980000D01*
X104913500Y-112980000D01*
X104774000Y-113119500D01*
X103693606Y-113119500D01*
X103470091Y-112895595D01*
X103081372Y-112734184D01*
X102660474Y-112733817D01*
X102271474Y-112894549D01*
X101973595Y-113191909D01*
X101812184Y-113580628D01*
X101811817Y-114001526D01*
X100684000Y-114001526D01*
X100684000Y-111715526D01*
X102827817Y-111715526D01*
X102988549Y-112104526D01*
X103285909Y-112402405D01*
X103674628Y-112563816D01*
X104095526Y-112564183D01*
X104484526Y-112403451D01*
X104774000Y-112114481D01*
X104774000Y-112432500D01*
X104913500Y-112572000D01*
X105968000Y-112572000D01*
X105968000Y-111417500D01*
X106376000Y-111417500D01*
X106376000Y-112572000D01*
X107430500Y-112572000D01*
X107570000Y-112432500D01*
X107570000Y-111725007D01*
X107485050Y-111519918D01*
X107328082Y-111362951D01*
X107122993Y-111278000D01*
X106515500Y-111278000D01*
X106376000Y-111417500D01*
X105968000Y-111417500D01*
X105828500Y-111278000D01*
X105221007Y-111278000D01*
X105015918Y-111362951D01*
X104944062Y-111434806D01*
X104944183Y-111296474D01*
X104783451Y-110907474D01*
X104486091Y-110609595D01*
X104097372Y-110448184D01*
X103676474Y-110447817D01*
X103287474Y-110608549D01*
X102989595Y-110905909D01*
X102828184Y-111294628D01*
X102827817Y-111715526D01*
X100684000Y-111715526D01*
X100684000Y-100684000D01*
X101635141Y-100684000D01*
X101593606Y-100773684D01*
X101593606Y-100773684D01*
G37*
X101593606Y-100773684D02*
X101281685Y-101085605D01*
X101061996Y-101187349D01*
X100877026Y-101778703D01*
X100932437Y-102395828D01*
X101042000Y-102660336D01*
X101042000Y-106651317D01*
X100877026Y-107178743D01*
X100932437Y-107795868D01*
X101061996Y-108108651D01*
X101281685Y-108210395D01*
X101593605Y-108522315D01*
X101695349Y-108742004D01*
X102286703Y-108926974D01*
X102903828Y-108871563D01*
X103168336Y-108762000D01*
X107159317Y-108762000D01*
X107686743Y-108926974D01*
X108303868Y-108871563D01*
X108616651Y-108742004D01*
X108718395Y-108522315D01*
X108730104Y-108510606D01*
X108833964Y-108614466D01*
X108940430Y-108508000D01*
X108945290Y-108508000D01*
X119902191Y-119464901D01*
X119805474Y-119464817D01*
X119416474Y-119625549D01*
X119118595Y-119922909D01*
X118957184Y-120311628D01*
X118956817Y-120732526D01*
X119117549Y-121121526D01*
X119414909Y-121419405D01*
X119803628Y-121580816D01*
X120224526Y-121581183D01*
X120613526Y-121420451D01*
X120911405Y-121123091D01*
X121072816Y-120734372D01*
X121072902Y-120635612D01*
X123154645Y-122717355D01*
X123171185Y-122728325D01*
X123185025Y-122731752D01*
X125725025Y-122985752D01*
X125730000Y-122986000D01*
X126238000Y-122986000D01*
X126257453Y-122982061D01*
X126273355Y-122971355D01*
X127289355Y-121955355D01*
X127300325Y-121938815D01*
X127304000Y-121920000D01*
X127304000Y-120478526D01*
X129116817Y-120478526D01*
X129277549Y-120867526D01*
X129574909Y-121165405D01*
X129963628Y-121326816D01*
X130384526Y-121327183D01*
X130773526Y-121166451D01*
X131071405Y-120869091D01*
X131232816Y-120480372D01*
X131233183Y-120059474D01*
X131072451Y-119670474D01*
X130775091Y-119372595D01*
X130386372Y-119211184D01*
X129965474Y-119210817D01*
X129576474Y-119371549D01*
X129278595Y-119668909D01*
X129117184Y-120057628D01*
X129116817Y-120478526D01*
X127304000Y-120478526D01*
X127304000Y-116795526D01*
X129421617Y-116795526D01*
X129582349Y-117184526D01*
X129879709Y-117482405D01*
X130268428Y-117643816D01*
X130689326Y-117644183D01*
X131078326Y-117483451D01*
X131376205Y-117186091D01*
X131537616Y-116797372D01*
X131537617Y-116795526D01*
X132672817Y-116795526D01*
X132833549Y-117184526D01*
X133130909Y-117482405D01*
X133519628Y-117643816D01*
X133940526Y-117644183D01*
X134329526Y-117483451D01*
X134627405Y-117186091D01*
X134788816Y-116797372D01*
X134789183Y-116376474D01*
X134628451Y-115987474D01*
X134331091Y-115689595D01*
X133942372Y-115528184D01*
X133521474Y-115527817D01*
X133132474Y-115688549D01*
X132834595Y-115985909D01*
X132673184Y-116374628D01*
X132672817Y-116795526D01*
X131537617Y-116795526D01*
X131537983Y-116376474D01*
X131377251Y-115987474D01*
X131079891Y-115689595D01*
X130691172Y-115528184D01*
X130270274Y-115527817D01*
X129881274Y-115688549D01*
X129583395Y-115985909D01*
X129421984Y-116374628D01*
X129421617Y-116795526D01*
X127304000Y-116795526D01*
X127304000Y-115336710D01*
X128429924Y-114210786D01*
X128439628Y-114214816D01*
X128860526Y-114215183D01*
X129249526Y-114054451D01*
X129547405Y-113757091D01*
X129708816Y-113368372D01*
X129709183Y-112947474D01*
X129548451Y-112558474D01*
X129251091Y-112260595D01*
X128862372Y-112099184D01*
X128441474Y-112098817D01*
X128052474Y-112259549D01*
X127839652Y-112472000D01*
X126746000Y-112472000D01*
X126726547Y-112475939D01*
X126710645Y-112486645D01*
X124678645Y-114518645D01*
X124667675Y-114535185D01*
X124664000Y-114554000D01*
X124664000Y-115449290D01*
X121692236Y-112477526D01*
X122639817Y-112477526D01*
X122800549Y-112866526D01*
X123097909Y-113164405D01*
X123486628Y-113325816D01*
X123907526Y-113326183D01*
X124296526Y-113165451D01*
X124594405Y-112868091D01*
X124755816Y-112479372D01*
X124756183Y-112058474D01*
X124595451Y-111669474D01*
X124298091Y-111371595D01*
X123909372Y-111210184D01*
X123488474Y-111209817D01*
X123099474Y-111370549D01*
X122801595Y-111667909D01*
X122640184Y-112056628D01*
X122639817Y-112477526D01*
X121692236Y-112477526D01*
X120700000Y-111485290D01*
X120700000Y-111100212D01*
X121038000Y-111224000D01*
X121538000Y-111224000D01*
X121538000Y-110120000D01*
X121946000Y-110120000D01*
X121946000Y-111224000D01*
X122446000Y-111224000D01*
X122931021Y-111046367D01*
X123311145Y-110696646D01*
X123486175Y-110319601D01*
X123392555Y-110120000D01*
X121946000Y-110120000D01*
X121538000Y-110120000D01*
X121518000Y-110120000D01*
X121518000Y-109712000D01*
X121538000Y-109712000D01*
X121538000Y-108608000D01*
X121946000Y-108608000D01*
X121946000Y-109712000D01*
X123392555Y-109712000D01*
X123486175Y-109512399D01*
X123311145Y-109135354D01*
X122931021Y-108785633D01*
X122446000Y-108608000D01*
X121946000Y-108608000D01*
X121538000Y-108608000D01*
X121078710Y-108608000D01*
X121447355Y-108239355D01*
X121458325Y-108222815D01*
X121462000Y-108204000D01*
X121462000Y-108044723D01*
X121626974Y-107517297D01*
X121571563Y-106900172D01*
X121462000Y-106635664D01*
X121462000Y-102644683D01*
X121626974Y-102117257D01*
X121571563Y-101500132D01*
X121442004Y-101187349D01*
X121222315Y-101085605D01*
X120910394Y-100773684D01*
X120868859Y-100684000D01*
X128559141Y-100684000D01*
X128517606Y-100773684D01*
X128205685Y-101085605D01*
X127985996Y-101187349D01*
X127801026Y-101778703D01*
X127856437Y-102395828D01*
X127966000Y-102660336D01*
X127966000Y-106651317D01*
X127801026Y-107178743D01*
X127856437Y-107795868D01*
X127985996Y-108108651D01*
X128205685Y-108210395D01*
X128517605Y-108522315D01*
X128619349Y-108742004D01*
X129210703Y-108926974D01*
X129827828Y-108871563D01*
X130092336Y-108762000D01*
X133554000Y-108762000D01*
X133554000Y-112753699D01*
X133442091Y-112641595D01*
X133053372Y-112480184D01*
X132632474Y-112479817D01*
X132243474Y-112640549D01*
X131945595Y-112937909D01*
X131784184Y-113326628D01*
X131783817Y-113747526D01*
X131944549Y-114136526D01*
X132241909Y-114434405D01*
X132630628Y-114595816D01*
X133051526Y-114596183D01*
X133440526Y-114435451D01*
X133738405Y-114138091D01*
X133854293Y-113859003D01*
X134824000Y-114828710D01*
X134824000Y-118822000D01*
X132588000Y-118822000D01*
X132568547Y-118825939D01*
X132552645Y-118836645D01*
X132044645Y-119344645D01*
X132033675Y-119361185D01*
X132030000Y-119380000D01*
X132030000Y-120142000D01*
X132033939Y-120161453D01*
X132044645Y-120177355D01*
X132552645Y-120685355D01*
X132569185Y-120696325D01*
X132588000Y-120700000D01*
X133018328Y-120700000D01*
X133087549Y-120867526D01*
X133384909Y-121165405D01*
X133773628Y-121326816D01*
X134194526Y-121327183D01*
X134583526Y-121166451D01*
X134881405Y-120869091D01*
X134951618Y-120700000D01*
X135097098Y-120700000D01*
X135337279Y-121180361D01*
X135346645Y-121193355D01*
X137364000Y-123210710D01*
X137364000Y-123952000D01*
X137367939Y-123971453D01*
X137379136Y-123987840D01*
X137395827Y-123998581D01*
X137415381Y-124001981D01*
X137434718Y-123997506D01*
X137450790Y-123985860D01*
X137461434Y-123967811D01*
X137704038Y-123240000D01*
X138684000Y-123240000D01*
X138703453Y-123236061D01*
X138719355Y-123225355D01*
X139963872Y-121980838D01*
X140439639Y-122218721D01*
X140462000Y-122224000D01*
X141224000Y-122224000D01*
X141243453Y-122220061D01*
X141259355Y-122209355D01*
X141520355Y-121948355D01*
X141568526Y-121928451D01*
X141866405Y-121631091D01*
X141886846Y-121581864D01*
X142021355Y-121447355D01*
X142032325Y-121430815D01*
X142036000Y-121412000D01*
X142036000Y-120650000D01*
X142032061Y-120630547D01*
X142021355Y-120614645D01*
X141887355Y-120480645D01*
X141867451Y-120432474D01*
X141570091Y-120134595D01*
X141520864Y-120114154D01*
X141513355Y-120106645D01*
X141496815Y-120095675D01*
X141478000Y-120092000D01*
X141467511Y-120092000D01*
X141181372Y-119973184D01*
X140766000Y-119972822D01*
X140766000Y-118689535D01*
X141491326Y-118689535D01*
X141643626Y-119058129D01*
X141925388Y-119340382D01*
X142293716Y-119493325D01*
X142692535Y-119493674D01*
X143029177Y-119354576D01*
X142948184Y-119549628D01*
X142947817Y-119970526D01*
X143108549Y-120359526D01*
X143405909Y-120657405D01*
X143794628Y-120818816D01*
X144215526Y-120819183D01*
X144604526Y-120658451D01*
X144902405Y-120361091D01*
X145063816Y-119972372D01*
X145064183Y-119551474D01*
X144903451Y-119162474D01*
X144684894Y-118943535D01*
X145809326Y-118943535D01*
X145961626Y-119312129D01*
X146243388Y-119594382D01*
X146611716Y-119747325D01*
X147010535Y-119747674D01*
X147379129Y-119595374D01*
X147661382Y-119313612D01*
X147814325Y-118945284D01*
X147814674Y-118546465D01*
X147662374Y-118177871D01*
X147380612Y-117895618D01*
X147012284Y-117742675D01*
X146613465Y-117742326D01*
X146244871Y-117894626D01*
X145962618Y-118176388D01*
X145809675Y-118544716D01*
X145809326Y-118943535D01*
X144684894Y-118943535D01*
X144606091Y-118864595D01*
X144217372Y-118703184D01*
X143796474Y-118702817D01*
X143428382Y-118854910D01*
X143496325Y-118691284D01*
X143496674Y-118292465D01*
X143344374Y-117923871D01*
X143062612Y-117641618D01*
X142694284Y-117488675D01*
X142295465Y-117488326D01*
X141926871Y-117640626D01*
X141644618Y-117922388D01*
X141491675Y-118290716D01*
X141491326Y-118689535D01*
X140766000Y-118689535D01*
X140766000Y-115271526D01*
X141181817Y-115271526D01*
X141342549Y-115660526D01*
X141639909Y-115958405D01*
X142028628Y-116119816D01*
X142449526Y-116120183D01*
X142838526Y-115959451D01*
X143136405Y-115662091D01*
X143297816Y-115273372D01*
X143298183Y-114852474D01*
X143137451Y-114463474D01*
X142840091Y-114165595D01*
X142451372Y-114004184D01*
X142030474Y-114003817D01*
X141641474Y-114164549D01*
X141343595Y-114461909D01*
X141182184Y-114850628D01*
X141181817Y-115271526D01*
X140766000Y-115271526D01*
X140766000Y-110319601D01*
X142197825Y-110319601D01*
X142372855Y-110696646D01*
X142752979Y-111046367D01*
X143238000Y-111224000D01*
X143738000Y-111224000D01*
X143738000Y-110120000D01*
X144146000Y-110120000D01*
X144146000Y-111224000D01*
X144646000Y-111224000D01*
X145131021Y-111046367D01*
X145511145Y-110696646D01*
X145686175Y-110319601D01*
X145592555Y-110120000D01*
X144146000Y-110120000D01*
X143738000Y-110120000D01*
X142291445Y-110120000D01*
X142197825Y-110319601D01*
X140766000Y-110319601D01*
X140766000Y-109999539D01*
X141641182Y-108905561D01*
X142019828Y-108871563D01*
X142284336Y-108762000D01*
X142817508Y-108762000D01*
X142752979Y-108785633D01*
X142372855Y-109135354D01*
X142197825Y-109512399D01*
X142291445Y-109712000D01*
X143738000Y-109712000D01*
X143738000Y-109692000D01*
X144146000Y-109692000D01*
X144146000Y-109712000D01*
X145592555Y-109712000D01*
X145686175Y-109512399D01*
X145511145Y-109135354D01*
X145131021Y-108785633D01*
X145066492Y-108762000D01*
X146275317Y-108762000D01*
X146802743Y-108926974D01*
X147419868Y-108871563D01*
X147732651Y-108742004D01*
X147834395Y-108522315D01*
X148146315Y-108210395D01*
X148366004Y-108108651D01*
X148550974Y-107517297D01*
X148495563Y-106900172D01*
X148386000Y-106635664D01*
X148386000Y-102644683D01*
X148550974Y-102117257D01*
X148495563Y-101500132D01*
X148366004Y-101187349D01*
X148146315Y-101085605D01*
X147834394Y-100773684D01*
X147792859Y-100684000D01*
X149252000Y-100684000D01*
X149252000Y-143714000D01*
X146357979Y-143714000D01*
X146304000Y-143703069D01*
X144449000Y-143703069D01*
X144449000Y-139192000D01*
X144396857Y-138929862D01*
X144248368Y-138707632D01*
X141708368Y-136167632D01*
X141486138Y-136019143D01*
X141408387Y-136003677D01*
X141364323Y-135959613D01*
X141348857Y-135881862D01*
X141200368Y-135659632D01*
X139623000Y-134082264D01*
X139623000Y-133819601D01*
X142197825Y-133819601D01*
X142372855Y-134196646D01*
X142752979Y-134546367D01*
X143238000Y-134724000D01*
X143738000Y-134724000D01*
X143738000Y-133620000D01*
X144146000Y-133620000D01*
X144146000Y-134724000D01*
X144646000Y-134724000D01*
X145131021Y-134546367D01*
X145511145Y-134196646D01*
X145686175Y-133819601D01*
X145592555Y-133620000D01*
X144146000Y-133620000D01*
X143738000Y-133620000D01*
X142291445Y-133620000D01*
X142197825Y-133819601D01*
X139623000Y-133819601D01*
X139623000Y-133012399D01*
X142197825Y-133012399D01*
X142291445Y-133212000D01*
X143738000Y-133212000D01*
X143738000Y-132108000D01*
X144146000Y-132108000D01*
X144146000Y-133212000D01*
X145592555Y-133212000D01*
X145686175Y-133012399D01*
X145511145Y-132635354D01*
X145131021Y-132285633D01*
X144646000Y-132108000D01*
X144146000Y-132108000D01*
X143738000Y-132108000D01*
X143238000Y-132108000D01*
X142752979Y-132285633D01*
X142372855Y-132635354D01*
X142197825Y-133012399D01*
X139623000Y-133012399D01*
X139623000Y-128098526D01*
X139911817Y-128098526D01*
X140072549Y-128487526D01*
X140369909Y-128785405D01*
X140758628Y-128946816D01*
X141179526Y-128947183D01*
X141568526Y-128786451D01*
X141866405Y-128489091D01*
X142027816Y-128100372D01*
X142028183Y-127679474D01*
X141867451Y-127290474D01*
X141570091Y-126992595D01*
X141181372Y-126831184D01*
X140760474Y-126830817D01*
X140371474Y-126991549D01*
X140073595Y-127288909D01*
X139912184Y-127677628D01*
X139911817Y-128098526D01*
X139623000Y-128098526D01*
X139623000Y-126492000D01*
X139570857Y-126229862D01*
X139422368Y-126007632D01*
X138962271Y-125547535D01*
X141491326Y-125547535D01*
X141643626Y-125916129D01*
X141925388Y-126198382D01*
X142293716Y-126351325D01*
X142692535Y-126351674D01*
X143043662Y-126206591D01*
X142960184Y-126407628D01*
X142959817Y-126828526D01*
X143120549Y-127217526D01*
X143417909Y-127515405D01*
X143806628Y-127676816D01*
X144227526Y-127677183D01*
X144616526Y-127516451D01*
X144914405Y-127219091D01*
X145075816Y-126830372D01*
X145076183Y-126409474D01*
X144915451Y-126020474D01*
X144696894Y-125801535D01*
X145809326Y-125801535D01*
X145961626Y-126170129D01*
X146243388Y-126452382D01*
X146611716Y-126605325D01*
X147010535Y-126605674D01*
X147379129Y-126453374D01*
X147661382Y-126171612D01*
X147814325Y-125803284D01*
X147814674Y-125404465D01*
X147662374Y-125035871D01*
X147380612Y-124753618D01*
X147012284Y-124600675D01*
X146613465Y-124600326D01*
X146244871Y-124752626D01*
X145962618Y-125034388D01*
X145809675Y-125402716D01*
X145809326Y-125801535D01*
X144696894Y-125801535D01*
X144618091Y-125722595D01*
X144229372Y-125561184D01*
X143808474Y-125560817D01*
X143425896Y-125718895D01*
X143496325Y-125549284D01*
X143496674Y-125150465D01*
X143344374Y-124781871D01*
X143062612Y-124499618D01*
X142694284Y-124346675D01*
X142295465Y-124346326D01*
X141926871Y-124498626D01*
X141644618Y-124780388D01*
X141491675Y-125148716D01*
X141491326Y-125547535D01*
X138962271Y-125547535D01*
X137644368Y-124229632D01*
X137422138Y-124081143D01*
X137160000Y-124029000D01*
X129286000Y-124029000D01*
X129023862Y-124081143D01*
X128801632Y-124229632D01*
X128240264Y-124791000D01*
X127254000Y-124791000D01*
X126991862Y-124843143D01*
X126769632Y-124991632D01*
X125499632Y-126261632D01*
X125351143Y-126483862D01*
X125299000Y-126746000D01*
X125299000Y-136983000D01*
X110131079Y-136983000D01*
X110370405Y-136744091D01*
X110531816Y-136355372D01*
X110532183Y-135934474D01*
X110371451Y-135545474D01*
X110074091Y-135247595D01*
X109685372Y-135086184D01*
X109264474Y-135085817D01*
X108875474Y-135246549D01*
X108577595Y-135543909D01*
X108416184Y-135932628D01*
X108415817Y-136353526D01*
X108576549Y-136742526D01*
X108816604Y-136983000D01*
X103527079Y-136983000D01*
X103766405Y-136744091D01*
X103927816Y-136355372D01*
X103928183Y-135934474D01*
X103767451Y-135545474D01*
X103693606Y-135471500D01*
X104774000Y-135471500D01*
X104774000Y-136178993D01*
X104858950Y-136384082D01*
X105015918Y-136541049D01*
X105221007Y-136626000D01*
X105828500Y-136626000D01*
X105968000Y-136486500D01*
X105968000Y-135332000D01*
X106376000Y-135332000D01*
X106376000Y-136486500D01*
X106515500Y-136626000D01*
X107122993Y-136626000D01*
X107328082Y-136541049D01*
X107485050Y-136384082D01*
X107570000Y-136178993D01*
X107570000Y-135471500D01*
X107430500Y-135332000D01*
X106376000Y-135332000D01*
X105968000Y-135332000D01*
X104913500Y-135332000D01*
X104774000Y-135471500D01*
X103693606Y-135471500D01*
X103470091Y-135247595D01*
X103081372Y-135086184D01*
X102660474Y-135085817D01*
X102271474Y-135246549D01*
X101973595Y-135543909D01*
X101812184Y-135932628D01*
X101811817Y-136353526D01*
X101972549Y-136742526D01*
X102269909Y-137040405D01*
X102566000Y-137163353D01*
X102566000Y-137293831D01*
X102491143Y-137405862D01*
X102439000Y-137668000D01*
X102439000Y-138684000D01*
X102491143Y-138946138D01*
X102554444Y-139040875D01*
X102498293Y-139123054D01*
X102453469Y-139344400D01*
X102453469Y-141071600D01*
X102492378Y-141278382D01*
X102566000Y-141392794D01*
X102566000Y-142172192D01*
X102544762Y-142203977D01*
X102436549Y-142748000D01*
X102544762Y-143292023D01*
X102566000Y-143323808D01*
X102566000Y-144526000D01*
X102569939Y-144545453D01*
X102581136Y-144561840D01*
X102597827Y-144572581D01*
X102616000Y-144576000D01*
X102668439Y-144576000D01*
X102627883Y-144626083D01*
X102528347Y-144866426D01*
X102620234Y-145084000D01*
X103611290Y-145084000D01*
X103850645Y-145323355D01*
X103867185Y-145334325D01*
X103886000Y-145338000D01*
X104110000Y-145338000D01*
X104110000Y-145492000D01*
X104090000Y-145492000D01*
X104090000Y-145512000D01*
X103682000Y-145512000D01*
X103682000Y-145492000D01*
X102620234Y-145492000D01*
X102528347Y-145709574D01*
X102627883Y-145949917D01*
X102976956Y-146380992D01*
X103273297Y-146541894D01*
X102852926Y-146822777D01*
X102544762Y-147283977D01*
X102436549Y-147828000D01*
X102544762Y-148372023D01*
X102852926Y-148833223D01*
X103314126Y-149141387D01*
X103858149Y-149249600D01*
X103913851Y-149249600D01*
X104457874Y-149141387D01*
X104919074Y-148833223D01*
X105156000Y-148478638D01*
X105392926Y-148833223D01*
X105854126Y-149141387D01*
X106398149Y-149249600D01*
X106453851Y-149249600D01*
X106997874Y-149141387D01*
X107459074Y-148833223D01*
X107767238Y-148372023D01*
X107875451Y-147828000D01*
X107767238Y-147283977D01*
X107459074Y-146822777D01*
X107038703Y-146541894D01*
X107335044Y-146380992D01*
X107684117Y-145949917D01*
X107783653Y-145709574D01*
X107691766Y-145492000D01*
X106630000Y-145492000D01*
X106630000Y-145512000D01*
X106222000Y-145512000D01*
X106222000Y-145492000D01*
X106202000Y-145492000D01*
X106202000Y-145338000D01*
X106426000Y-145338000D01*
X106445453Y-145334061D01*
X106461355Y-145323355D01*
X106700710Y-145084000D01*
X107691766Y-145084000D01*
X107783653Y-144866426D01*
X107684117Y-144626083D01*
X107643561Y-144576000D01*
X108204000Y-144576000D01*
X108223453Y-144572061D01*
X108239840Y-144560864D01*
X108250581Y-144544173D01*
X108254000Y-144526000D01*
X108254000Y-142925000D01*
X109805000Y-142925000D01*
X109805000Y-149252000D01*
X100684000Y-149252000D01*
X100684000Y-134077007D01*
X104774000Y-134077007D01*
X104774000Y-134784500D01*
X104913500Y-134924000D01*
X105968000Y-134924000D01*
X105968000Y-133769500D01*
X106376000Y-133769500D01*
X106376000Y-134924000D01*
X107430500Y-134924000D01*
X107570000Y-134784500D01*
X107570000Y-134077007D01*
X107485050Y-133871918D01*
X107432733Y-133819601D01*
X119997825Y-133819601D01*
X120172855Y-134196646D01*
X120552979Y-134546367D01*
X121038000Y-134724000D01*
X121538000Y-134724000D01*
X121538000Y-133620000D01*
X121946000Y-133620000D01*
X121946000Y-134724000D01*
X122446000Y-134724000D01*
X122931021Y-134546367D01*
X123311145Y-134196646D01*
X123486175Y-133819601D01*
X123392555Y-133620000D01*
X121946000Y-133620000D01*
X121538000Y-133620000D01*
X120091445Y-133620000D01*
X119997825Y-133819601D01*
X107432733Y-133819601D01*
X107328082Y-133714951D01*
X107122993Y-133630000D01*
X106515500Y-133630000D01*
X106376000Y-133769500D01*
X105968000Y-133769500D01*
X105828500Y-133630000D01*
X105221007Y-133630000D01*
X105015918Y-133714951D01*
X104858950Y-133871918D01*
X104774000Y-134077007D01*
X100684000Y-134077007D01*
X100684000Y-133012399D01*
X119997825Y-133012399D01*
X120091445Y-133212000D01*
X121538000Y-133212000D01*
X121538000Y-132108000D01*
X121946000Y-132108000D01*
X121946000Y-133212000D01*
X123392555Y-133212000D01*
X123486175Y-133012399D01*
X123311145Y-132635354D01*
X122931021Y-132285633D01*
X122446000Y-132108000D01*
X121946000Y-132108000D01*
X121538000Y-132108000D01*
X121038000Y-132108000D01*
X120552979Y-132285633D01*
X120172855Y-132635354D01*
X119997825Y-133012399D01*
X100684000Y-133012399D01*
X100684000Y-130765526D01*
X101811817Y-130765526D01*
X101972549Y-131154526D01*
X102269909Y-131452405D01*
X102658628Y-131613816D01*
X103079526Y-131614183D01*
X103468526Y-131453451D01*
X103766405Y-131156091D01*
X103927816Y-130767372D01*
X103928183Y-130346474D01*
X103767451Y-129957474D01*
X103693606Y-129883500D01*
X104774000Y-129883500D01*
X104774000Y-130590993D01*
X104858950Y-130796082D01*
X105015918Y-130953049D01*
X105221007Y-131038000D01*
X105828500Y-131038000D01*
X105968000Y-130898500D01*
X105968000Y-129744000D01*
X106376000Y-129744000D01*
X106376000Y-130898500D01*
X106515500Y-131038000D01*
X107122993Y-131038000D01*
X107328082Y-130953049D01*
X107485050Y-130796082D01*
X107497706Y-130765526D01*
X108415817Y-130765526D01*
X108576549Y-131154526D01*
X108873909Y-131452405D01*
X109262628Y-131613816D01*
X109683526Y-131614183D01*
X110072526Y-131453451D01*
X110370405Y-131156091D01*
X110531816Y-130767372D01*
X110532183Y-130346474D01*
X110371451Y-129957474D01*
X110074091Y-129659595D01*
X109685372Y-129498184D01*
X109264474Y-129497817D01*
X108875474Y-129658549D01*
X108577595Y-129955909D01*
X108416184Y-130344628D01*
X108415817Y-130765526D01*
X107497706Y-130765526D01*
X107570000Y-130590993D01*
X107570000Y-129883500D01*
X107430500Y-129744000D01*
X106376000Y-129744000D01*
X105968000Y-129744000D01*
X104913500Y-129744000D01*
X104774000Y-129883500D01*
X103693606Y-129883500D01*
X103470091Y-129659595D01*
X103081372Y-129498184D01*
X102660474Y-129497817D01*
X102271474Y-129658549D01*
X101973595Y-129955909D01*
X101812184Y-130344628D01*
X101811817Y-130765526D01*
X100684000Y-130765526D01*
X100684000Y-128489007D01*
X104774000Y-128489007D01*
X104774000Y-129196500D01*
X104913500Y-129336000D01*
X105968000Y-129336000D01*
X105968000Y-128181500D01*
X106376000Y-128181500D01*
X106376000Y-129336000D01*
X107430500Y-129336000D01*
X107524974Y-129241526D01*
X118829817Y-129241526D01*
X118990549Y-129630526D01*
X119287909Y-129928405D01*
X119676628Y-130089816D01*
X120097526Y-130090183D01*
X120486526Y-129929451D01*
X120784405Y-129632091D01*
X120945816Y-129243372D01*
X120946183Y-128822474D01*
X120785451Y-128433474D01*
X120488091Y-128135595D01*
X120099372Y-127974184D01*
X119678474Y-127973817D01*
X119289474Y-128134549D01*
X118991595Y-128431909D01*
X118830184Y-128820628D01*
X118829817Y-129241526D01*
X107524974Y-129241526D01*
X107570000Y-129196500D01*
X107570000Y-128489007D01*
X107485050Y-128283918D01*
X107328082Y-128126951D01*
X107122993Y-128042000D01*
X106515500Y-128042000D01*
X106376000Y-128181500D01*
X105968000Y-128181500D01*
X105828500Y-128042000D01*
X105221007Y-128042000D01*
X105015918Y-128126951D01*
X104858950Y-128283918D01*
X104774000Y-128489007D01*
X100684000Y-128489007D01*
X100684000Y-126828526D01*
X121496817Y-126828526D01*
X121657549Y-127217526D01*
X121954909Y-127515405D01*
X122343628Y-127676816D01*
X122764526Y-127677183D01*
X123153526Y-127516451D01*
X123451405Y-127219091D01*
X123612816Y-126830372D01*
X123613183Y-126409474D01*
X123452451Y-126020474D01*
X123155091Y-125722595D01*
X122766372Y-125561184D01*
X122345474Y-125560817D01*
X121956474Y-125721549D01*
X121658595Y-126018909D01*
X121497184Y-126407628D01*
X121496817Y-126828526D01*
X100684000Y-126828526D01*
X100684000Y-125177526D01*
X101811817Y-125177526D01*
X101972549Y-125566526D01*
X102269909Y-125864405D01*
X102658628Y-126025816D01*
X103079526Y-126026183D01*
X103468526Y-125865451D01*
X103766405Y-125568091D01*
X103927816Y-125179372D01*
X103928183Y-124758474D01*
X103767451Y-124369474D01*
X103693606Y-124295500D01*
X104774000Y-124295500D01*
X104774000Y-125002993D01*
X104858950Y-125208082D01*
X105015918Y-125365049D01*
X105221007Y-125450000D01*
X105828500Y-125450000D01*
X105968000Y-125310500D01*
X105968000Y-124156000D01*
X106376000Y-124156000D01*
X106376000Y-125310500D01*
X106515500Y-125450000D01*
X107122993Y-125450000D01*
X107328082Y-125365049D01*
X107485050Y-125208082D01*
X107502259Y-125166535D01*
X108471326Y-125166535D01*
X108623626Y-125535129D01*
X108905388Y-125817382D01*
X109273716Y-125970325D01*
X109672535Y-125970674D01*
X110041129Y-125818374D01*
X110323382Y-125536612D01*
X110476325Y-125168284D01*
X110476674Y-124769465D01*
X110324374Y-124400871D01*
X110042612Y-124118618D01*
X109674284Y-123965675D01*
X109275465Y-123965326D01*
X108906871Y-124117626D01*
X108624618Y-124399388D01*
X108471675Y-124767716D01*
X108471326Y-125166535D01*
X107502259Y-125166535D01*
X107570000Y-125002993D01*
X107570000Y-124295500D01*
X107430500Y-124156000D01*
X106376000Y-124156000D01*
X105968000Y-124156000D01*
X104913500Y-124156000D01*
X104774000Y-124295500D01*
X103693606Y-124295500D01*
X103470091Y-124071595D01*
X103081372Y-123910184D01*
X102660474Y-123909817D01*
X102271474Y-124070549D01*
X101973595Y-124367909D01*
X101812184Y-124756628D01*
X101811817Y-125177526D01*
X100684000Y-125177526D01*
X100684000Y-122880535D01*
X102883326Y-122880535D01*
X103035626Y-123249129D01*
X103317388Y-123531382D01*
X103685716Y-123684325D01*
X104084535Y-123684674D01*
X104453129Y-123532374D01*
X104735382Y-123250612D01*
X104774000Y-123157609D01*
X104774000Y-123608500D01*
X104913500Y-123748000D01*
X105968000Y-123748000D01*
X105968000Y-122593500D01*
X106376000Y-122593500D01*
X106376000Y-123748000D01*
X107430500Y-123748000D01*
X107570000Y-123608500D01*
X107570000Y-122901007D01*
X107485050Y-122695918D01*
X107328082Y-122538951D01*
X107122993Y-122454000D01*
X106515500Y-122454000D01*
X106376000Y-122593500D01*
X105968000Y-122593500D01*
X105828500Y-122454000D01*
X105221007Y-122454000D01*
X105015918Y-122538951D01*
X104888514Y-122666354D01*
X104888674Y-122483465D01*
X104736374Y-122114871D01*
X104454612Y-121832618D01*
X104086284Y-121679675D01*
X103687465Y-121679326D01*
X103318871Y-121831626D01*
X103036618Y-122113388D01*
X102883675Y-122481716D01*
X102883326Y-122880535D01*
X100684000Y-122880535D01*
X100684000Y-119589526D01*
X101811817Y-119589526D01*
X101972549Y-119978526D01*
X102269909Y-120276405D01*
X102658628Y-120437816D01*
X103079526Y-120438183D01*
X103468526Y-120277451D01*
X103766405Y-119980091D01*
X103927816Y-119591372D01*
X103928183Y-119170474D01*
X103767451Y-118781474D01*
X103693606Y-118707500D01*
X104774000Y-118707500D01*
X104774000Y-119414993D01*
X104858950Y-119620082D01*
X105015918Y-119777049D01*
X105221007Y-119862000D01*
X105828500Y-119862000D01*
X105968000Y-119722500D01*
X105968000Y-118568000D01*
X106376000Y-118568000D01*
X106376000Y-119722500D01*
X106515500Y-119862000D01*
X107122993Y-119862000D01*
X107328082Y-119777049D01*
X107485050Y-119620082D01*
X107497706Y-119589526D01*
X108415817Y-119589526D01*
X108576549Y-119978526D01*
X108873909Y-120276405D01*
X109262628Y-120437816D01*
X109683526Y-120438183D01*
X110072526Y-120277451D01*
X110370405Y-119980091D01*
X110531816Y-119591372D01*
X110532183Y-119170474D01*
X110371451Y-118781474D01*
X110074091Y-118483595D01*
X109685372Y-118322184D01*
X109264474Y-118321817D01*
X108875474Y-118482549D01*
X108577595Y-118779909D01*
X108416184Y-119168628D01*
X108415817Y-119589526D01*
X107497706Y-119589526D01*
X107570000Y-119414993D01*
X107570000Y-118707500D01*
X107430500Y-118568000D01*
X106376000Y-118568000D01*
X105968000Y-118568000D01*
X104913500Y-118568000D01*
X104774000Y-118707500D01*
X103693606Y-118707500D01*
X103470091Y-118483595D01*
X103081372Y-118322184D01*
X102660474Y-118321817D01*
X102271474Y-118482549D01*
X101973595Y-118779909D01*
X101812184Y-119168628D01*
X101811817Y-119589526D01*
X100684000Y-119589526D01*
X100684000Y-117038535D01*
X103264326Y-117038535D01*
X103416626Y-117407129D01*
X103698388Y-117689382D01*
X104066716Y-117842325D01*
X104465535Y-117842674D01*
X104774000Y-117715219D01*
X104774000Y-118020500D01*
X104913500Y-118160000D01*
X105968000Y-118160000D01*
X105968000Y-117005500D01*
X106376000Y-117005500D01*
X106376000Y-118160000D01*
X107430500Y-118160000D01*
X107570000Y-118020500D01*
X107570000Y-117313007D01*
X107485050Y-117107918D01*
X107328082Y-116950951D01*
X107122993Y-116866000D01*
X106515500Y-116866000D01*
X106376000Y-117005500D01*
X105968000Y-117005500D01*
X105828500Y-116866000D01*
X105269478Y-116866000D01*
X105269674Y-116641465D01*
X105117374Y-116272871D01*
X104835612Y-115990618D01*
X104467284Y-115837675D01*
X104068465Y-115837326D01*
X103699871Y-115989626D01*
X103417618Y-116271388D01*
X103264675Y-116639716D01*
X103264326Y-117038535D01*
X100684000Y-117038535D01*
X100684000Y-114001526D01*
X101811817Y-114001526D01*
X101972549Y-114390526D01*
X102269909Y-114688405D01*
X102658628Y-114849816D01*
X103079526Y-114850183D01*
X103468526Y-114689451D01*
X103766405Y-114392091D01*
X103927816Y-114003372D01*
X103928183Y-113582474D01*
X103767451Y-113193474D01*
X103693606Y-113119500D01*
X104774000Y-113119500D01*
X104774000Y-113826993D01*
X104858950Y-114032082D01*
X105015918Y-114189049D01*
X105221007Y-114274000D01*
X105828500Y-114274000D01*
X105968000Y-114134500D01*
X105968000Y-112980000D01*
X106376000Y-112980000D01*
X106376000Y-114134500D01*
X106515500Y-114274000D01*
X107122993Y-114274000D01*
X107328082Y-114189049D01*
X107485050Y-114032082D01*
X107497706Y-114001526D01*
X108415817Y-114001526D01*
X108576549Y-114390526D01*
X108873909Y-114688405D01*
X109262628Y-114849816D01*
X109683526Y-114850183D01*
X110072526Y-114689451D01*
X110370405Y-114392091D01*
X110531816Y-114003372D01*
X110532183Y-113582474D01*
X110371451Y-113193474D01*
X110074091Y-112895595D01*
X109685372Y-112734184D01*
X109264474Y-112733817D01*
X108875474Y-112894549D01*
X108577595Y-113191909D01*
X108416184Y-113580628D01*
X108415817Y-114001526D01*
X107497706Y-114001526D01*
X107570000Y-113826993D01*
X107570000Y-113119500D01*
X107430500Y-112980000D01*
X106376000Y-112980000D01*
X105968000Y-112980000D01*
X104913500Y-112980000D01*
X104774000Y-113119500D01*
X103693606Y-113119500D01*
X103470091Y-112895595D01*
X103081372Y-112734184D01*
X102660474Y-112733817D01*
X102271474Y-112894549D01*
X101973595Y-113191909D01*
X101812184Y-113580628D01*
X101811817Y-114001526D01*
X100684000Y-114001526D01*
X100684000Y-111715526D01*
X102827817Y-111715526D01*
X102988549Y-112104526D01*
X103285909Y-112402405D01*
X103674628Y-112563816D01*
X104095526Y-112564183D01*
X104484526Y-112403451D01*
X104774000Y-112114481D01*
X104774000Y-112432500D01*
X104913500Y-112572000D01*
X105968000Y-112572000D01*
X105968000Y-111417500D01*
X106376000Y-111417500D01*
X106376000Y-112572000D01*
X107430500Y-112572000D01*
X107570000Y-112432500D01*
X107570000Y-111725007D01*
X107485050Y-111519918D01*
X107328082Y-111362951D01*
X107122993Y-111278000D01*
X106515500Y-111278000D01*
X106376000Y-111417500D01*
X105968000Y-111417500D01*
X105828500Y-111278000D01*
X105221007Y-111278000D01*
X105015918Y-111362951D01*
X104944062Y-111434806D01*
X104944183Y-111296474D01*
X104783451Y-110907474D01*
X104486091Y-110609595D01*
X104097372Y-110448184D01*
X103676474Y-110447817D01*
X103287474Y-110608549D01*
X102989595Y-110905909D01*
X102828184Y-111294628D01*
X102827817Y-111715526D01*
X100684000Y-111715526D01*
X100684000Y-100684000D01*
X101635141Y-100684000D01*
X101593606Y-100773684D01*
G36*
X131437595Y-125002909D02*
X131276184Y-125391628D01*
X131275817Y-125812526D01*
X131436549Y-126201526D01*
X131733909Y-126499405D01*
X132122628Y-126660816D01*
X132543526Y-126661183D01*
X132932526Y-126500451D01*
X133230405Y-126203091D01*
X133391816Y-125814372D01*
X133392183Y-125393474D01*
X133231451Y-125004474D01*
X133118175Y-124891000D01*
X134470699Y-124891000D01*
X134358595Y-125002909D01*
X134197184Y-125391628D01*
X134196817Y-125812526D01*
X134357549Y-126201526D01*
X134654909Y-126499405D01*
X135043628Y-126660816D01*
X135464526Y-126661183D01*
X135853526Y-126500451D01*
X136151405Y-126203091D01*
X136312816Y-125814372D01*
X136313183Y-125393474D01*
X136152451Y-125004474D01*
X136039175Y-124891000D01*
X137130264Y-124891000D01*
X138761000Y-126521736D01*
X138761000Y-134112000D01*
X138813143Y-134374138D01*
X138961632Y-134596368D01*
X140332264Y-135967000D01*
X128524000Y-135967000D01*
X128261862Y-136019143D01*
X128149830Y-136094000D01*
X128016000Y-136094000D01*
X127996547Y-136097939D01*
X127980160Y-136109136D01*
X127969419Y-136125827D01*
X127966000Y-136144000D01*
X127966000Y-136277830D01*
X127891143Y-136389862D01*
X127839000Y-136652000D01*
X127839000Y-140178264D01*
X125954264Y-142063000D01*
X110490000Y-142063000D01*
X110236000Y-142113524D01*
X109982000Y-142063000D01*
X108254000Y-142063000D01*
X108254000Y-141986000D01*
X108250061Y-141966547D01*
X108239355Y-141950645D01*
X107448989Y-141160279D01*
X107684117Y-140869917D01*
X107783653Y-140629574D01*
X107694100Y-140417526D01*
X115654817Y-140417526D01*
X115815549Y-140806526D01*
X116112909Y-141104405D01*
X116501628Y-141265816D01*
X116922526Y-141266183D01*
X117311526Y-141105451D01*
X117609405Y-140808091D01*
X117770816Y-140419372D01*
X117771183Y-139998474D01*
X117610451Y-139609474D01*
X117313091Y-139311595D01*
X116924372Y-139150184D01*
X116503474Y-139149817D01*
X116114474Y-139310549D01*
X115816595Y-139607909D01*
X115655184Y-139996628D01*
X115654817Y-140417526D01*
X107694100Y-140417526D01*
X107691766Y-140412000D01*
X106700710Y-140412000D01*
X106222000Y-139933290D01*
X106222000Y-138940597D01*
X106630000Y-138940597D01*
X106630000Y-140004000D01*
X107691766Y-140004000D01*
X107783653Y-139786426D01*
X107684117Y-139546083D01*
X107335044Y-139115008D01*
X106847577Y-138850331D01*
X106630000Y-138940597D01*
X106222000Y-138940597D01*
X106004423Y-138850331D01*
X105516956Y-139115008D01*
X105466288Y-139177578D01*
X104937355Y-138648645D01*
X104920815Y-138637675D01*
X104902000Y-138634000D01*
X103301000Y-138634000D01*
X103301000Y-137845000D01*
X123802921Y-137845000D01*
X123563595Y-138083909D01*
X123402184Y-138472628D01*
X123401817Y-138893526D01*
X123562549Y-139282526D01*
X123859909Y-139580405D01*
X124248628Y-139741816D01*
X124669526Y-139742183D01*
X125058526Y-139581451D01*
X125356405Y-139284091D01*
X125517816Y-138895372D01*
X125518183Y-138474474D01*
X125357451Y-138085474D01*
X125117396Y-137845000D01*
X125476000Y-137845000D01*
X125738138Y-137792857D01*
X125850170Y-137718000D01*
X125984000Y-137718000D01*
X126003453Y-137714061D01*
X126019840Y-137702864D01*
X126030581Y-137686173D01*
X126034000Y-137668000D01*
X126034000Y-137534170D01*
X126108857Y-137422138D01*
X126161000Y-137160000D01*
X126161000Y-130130526D01*
X134831817Y-130130526D01*
X134992549Y-130519526D01*
X135289909Y-130817405D01*
X135678628Y-130978816D01*
X136099526Y-130979183D01*
X136488526Y-130818451D01*
X136786405Y-130521091D01*
X136947816Y-130132372D01*
X136948183Y-129711474D01*
X136787451Y-129322474D01*
X136490091Y-129024595D01*
X136101372Y-128863184D01*
X135680474Y-128862817D01*
X135291474Y-129023549D01*
X134993595Y-129320909D01*
X134832184Y-129709628D01*
X134831817Y-130130526D01*
X126161000Y-130130526D01*
X126161000Y-126775736D01*
X127082505Y-125854231D01*
X126958184Y-126153628D01*
X126957817Y-126574526D01*
X127118549Y-126963526D01*
X127415909Y-127261405D01*
X127804628Y-127422816D01*
X128225526Y-127423183D01*
X128614526Y-127262451D01*
X128912405Y-126965091D01*
X129073816Y-126576372D01*
X129074183Y-126155474D01*
X128913451Y-125766474D01*
X128661702Y-125514285D01*
X128754368Y-125452368D01*
X129315736Y-124891000D01*
X131549699Y-124891000D01*
X131437595Y-125002909D01*
X131437595Y-125002909D01*
G37*
X131437595Y-125002909D02*
X131276184Y-125391628D01*
X131275817Y-125812526D01*
X131436549Y-126201526D01*
X131733909Y-126499405D01*
X132122628Y-126660816D01*
X132543526Y-126661183D01*
X132932526Y-126500451D01*
X133230405Y-126203091D01*
X133391816Y-125814372D01*
X133392183Y-125393474D01*
X133231451Y-125004474D01*
X133118175Y-124891000D01*
X134470699Y-124891000D01*
X134358595Y-125002909D01*
X134197184Y-125391628D01*
X134196817Y-125812526D01*
X134357549Y-126201526D01*
X134654909Y-126499405D01*
X135043628Y-126660816D01*
X135464526Y-126661183D01*
X135853526Y-126500451D01*
X136151405Y-126203091D01*
X136312816Y-125814372D01*
X136313183Y-125393474D01*
X136152451Y-125004474D01*
X136039175Y-124891000D01*
X137130264Y-124891000D01*
X138761000Y-126521736D01*
X138761000Y-134112000D01*
X138813143Y-134374138D01*
X138961632Y-134596368D01*
X140332264Y-135967000D01*
X128524000Y-135967000D01*
X128261862Y-136019143D01*
X128149830Y-136094000D01*
X128016000Y-136094000D01*
X127996547Y-136097939D01*
X127980160Y-136109136D01*
X127969419Y-136125827D01*
X127966000Y-136144000D01*
X127966000Y-136277830D01*
X127891143Y-136389862D01*
X127839000Y-136652000D01*
X127839000Y-140178264D01*
X125954264Y-142063000D01*
X110490000Y-142063000D01*
X110236000Y-142113524D01*
X109982000Y-142063000D01*
X108254000Y-142063000D01*
X108254000Y-141986000D01*
X108250061Y-141966547D01*
X108239355Y-141950645D01*
X107448989Y-141160279D01*
X107684117Y-140869917D01*
X107783653Y-140629574D01*
X107694100Y-140417526D01*
X115654817Y-140417526D01*
X115815549Y-140806526D01*
X116112909Y-141104405D01*
X116501628Y-141265816D01*
X116922526Y-141266183D01*
X117311526Y-141105451D01*
X117609405Y-140808091D01*
X117770816Y-140419372D01*
X117771183Y-139998474D01*
X117610451Y-139609474D01*
X117313091Y-139311595D01*
X116924372Y-139150184D01*
X116503474Y-139149817D01*
X116114474Y-139310549D01*
X115816595Y-139607909D01*
X115655184Y-139996628D01*
X115654817Y-140417526D01*
X107694100Y-140417526D01*
X107691766Y-140412000D01*
X106700710Y-140412000D01*
X106222000Y-139933290D01*
X106222000Y-138940597D01*
X106630000Y-138940597D01*
X106630000Y-140004000D01*
X107691766Y-140004000D01*
X107783653Y-139786426D01*
X107684117Y-139546083D01*
X107335044Y-139115008D01*
X106847577Y-138850331D01*
X106630000Y-138940597D01*
X106222000Y-138940597D01*
X106004423Y-138850331D01*
X105516956Y-139115008D01*
X105466288Y-139177578D01*
X104937355Y-138648645D01*
X104920815Y-138637675D01*
X104902000Y-138634000D01*
X103301000Y-138634000D01*
X103301000Y-137845000D01*
X123802921Y-137845000D01*
X123563595Y-138083909D01*
X123402184Y-138472628D01*
X123401817Y-138893526D01*
X123562549Y-139282526D01*
X123859909Y-139580405D01*
X124248628Y-139741816D01*
X124669526Y-139742183D01*
X125058526Y-139581451D01*
X125356405Y-139284091D01*
X125517816Y-138895372D01*
X125518183Y-138474474D01*
X125357451Y-138085474D01*
X125117396Y-137845000D01*
X125476000Y-137845000D01*
X125738138Y-137792857D01*
X125850170Y-137718000D01*
X125984000Y-137718000D01*
X126003453Y-137714061D01*
X126019840Y-137702864D01*
X126030581Y-137686173D01*
X126034000Y-137668000D01*
X126034000Y-137534170D01*
X126108857Y-137422138D01*
X126161000Y-137160000D01*
X126161000Y-130130526D01*
X134831817Y-130130526D01*
X134992549Y-130519526D01*
X135289909Y-130817405D01*
X135678628Y-130978816D01*
X136099526Y-130979183D01*
X136488526Y-130818451D01*
X136786405Y-130521091D01*
X136947816Y-130132372D01*
X136948183Y-129711474D01*
X136787451Y-129322474D01*
X136490091Y-129024595D01*
X136101372Y-128863184D01*
X135680474Y-128862817D01*
X135291474Y-129023549D01*
X134993595Y-129320909D01*
X134832184Y-129709628D01*
X134831817Y-130130526D01*
X126161000Y-130130526D01*
X126161000Y-126775736D01*
X127082505Y-125854231D01*
X126958184Y-126153628D01*
X126957817Y-126574526D01*
X127118549Y-126963526D01*
X127415909Y-127261405D01*
X127804628Y-127422816D01*
X128225526Y-127423183D01*
X128614526Y-127262451D01*
X128912405Y-126965091D01*
X129073816Y-126576372D01*
X129074183Y-126155474D01*
X128913451Y-125766474D01*
X128661702Y-125514285D01*
X128754368Y-125452368D01*
X129315736Y-124891000D01*
X131549699Y-124891000D01*
X131437595Y-125002909D01*
G36*
X113785606Y-100773684D02*
X113473685Y-101085605D01*
X113253996Y-101187349D01*
X113069026Y-101778703D01*
X113124437Y-102395828D01*
X113234000Y-102660336D01*
X113234000Y-106651317D01*
X113069026Y-107178743D01*
X113124437Y-107795868D01*
X113253996Y-108108651D01*
X113473685Y-108210395D01*
X113785605Y-108522315D01*
X113887349Y-108742004D01*
X114478703Y-108926974D01*
X115095828Y-108871563D01*
X115360336Y-108762000D01*
X118060000Y-108762000D01*
X118060000Y-112014000D01*
X118063939Y-112033453D01*
X118074645Y-112049355D01*
X122886000Y-116860710D01*
X122886000Y-117228858D01*
X122766372Y-117179184D01*
X122345474Y-117178817D01*
X121956474Y-117339549D01*
X121658595Y-117636909D01*
X121542707Y-117915997D01*
X109763355Y-106136645D01*
X109746815Y-106125675D01*
X109728000Y-106122000D01*
X109270000Y-106122000D01*
X109270000Y-102644683D01*
X109434974Y-102117257D01*
X109379563Y-101500132D01*
X109250004Y-101187349D01*
X109030315Y-101085605D01*
X108718394Y-100773684D01*
X108676859Y-100684000D01*
X113827141Y-100684000D01*
X113785606Y-100773684D01*
X113785606Y-100773684D01*
G37*
X113785606Y-100773684D02*
X113473685Y-101085605D01*
X113253996Y-101187349D01*
X113069026Y-101778703D01*
X113124437Y-102395828D01*
X113234000Y-102660336D01*
X113234000Y-106651317D01*
X113069026Y-107178743D01*
X113124437Y-107795868D01*
X113253996Y-108108651D01*
X113473685Y-108210395D01*
X113785605Y-108522315D01*
X113887349Y-108742004D01*
X114478703Y-108926974D01*
X115095828Y-108871563D01*
X115360336Y-108762000D01*
X118060000Y-108762000D01*
X118060000Y-112014000D01*
X118063939Y-112033453D01*
X118074645Y-112049355D01*
X122886000Y-116860710D01*
X122886000Y-117228858D01*
X122766372Y-117179184D01*
X122345474Y-117178817D01*
X121956474Y-117339549D01*
X121658595Y-117636909D01*
X121542707Y-117915997D01*
X109763355Y-106136645D01*
X109746815Y-106125675D01*
X109728000Y-106122000D01*
X109270000Y-106122000D01*
X109270000Y-102644683D01*
X109434974Y-102117257D01*
X109379563Y-101500132D01*
X109250004Y-101187349D01*
X109030315Y-101085605D01*
X108718394Y-100773684D01*
X108676859Y-100684000D01*
X113827141Y-100684000D01*
X113785606Y-100773684D01*
D22*
G36*
X143510000Y-139253631D02*
X143510000Y-143764000D01*
X143568004Y-144055605D01*
X143637000Y-144158865D01*
X143637000Y-144210569D01*
X143624560Y-144272000D01*
X143624560Y-146304000D01*
X143637000Y-146370113D01*
X143637000Y-146750569D01*
X143624560Y-146812000D01*
X143624560Y-148844000D01*
X143637000Y-148910113D01*
X143637000Y-149175000D01*
X110744000Y-149175000D01*
X110744000Y-147544775D01*
X111640803Y-147544775D01*
X111813233Y-147962086D01*
X112132235Y-148281645D01*
X112549244Y-148454803D01*
X113000775Y-148455197D01*
X113418086Y-148282767D01*
X113737645Y-147963765D01*
X113910803Y-147546756D01*
X113911197Y-147095225D01*
X113907504Y-147086285D01*
X114438760Y-147086285D01*
X114649169Y-147595515D01*
X115038436Y-147985461D01*
X115547298Y-148196759D01*
X116098285Y-148197240D01*
X116447917Y-148052775D01*
X122054803Y-148052775D01*
X122227233Y-148470086D01*
X122546235Y-148789645D01*
X122963244Y-148962803D01*
X123414775Y-148963197D01*
X123825495Y-148793490D01*
X124233244Y-148962803D01*
X124684775Y-148963197D01*
X125102086Y-148790767D01*
X125421645Y-148471765D01*
X125594803Y-148054756D01*
X125595197Y-147603225D01*
X125422767Y-147185914D01*
X125103765Y-146866355D01*
X124686756Y-146693197D01*
X124235225Y-146692803D01*
X123824505Y-146862510D01*
X123416756Y-146693197D01*
X122965225Y-146692803D01*
X122547914Y-146865233D01*
X122228355Y-147184235D01*
X122055197Y-147601244D01*
X122054803Y-148052775D01*
X116447917Y-148052775D01*
X116607515Y-147986831D01*
X116997461Y-147597564D01*
X117208759Y-147088702D01*
X117209240Y-146537715D01*
X116998831Y-146028485D01*
X116609564Y-145638539D01*
X116100702Y-145427241D01*
X115549715Y-145426760D01*
X115040485Y-145637169D01*
X114650539Y-146026436D01*
X114439241Y-146535298D01*
X114438760Y-147086285D01*
X113907504Y-147086285D01*
X113738767Y-146677914D01*
X113419765Y-146358355D01*
X113002756Y-146185197D01*
X112551225Y-146184803D01*
X112133914Y-146357233D01*
X111814355Y-146676235D01*
X111641197Y-147093244D01*
X111640803Y-147544775D01*
X110744000Y-147544775D01*
X110744000Y-145004775D01*
X118244803Y-145004775D01*
X118417233Y-145422086D01*
X118736235Y-145741645D01*
X119153244Y-145914803D01*
X119604775Y-145915197D01*
X120022086Y-145742767D01*
X120341645Y-145423765D01*
X120514803Y-145006756D01*
X120515197Y-144555225D01*
X120342767Y-144137914D01*
X120023765Y-143818355D01*
X119606756Y-143645197D01*
X119155225Y-143644803D01*
X118737914Y-143817233D01*
X118418355Y-144136235D01*
X118245197Y-144553244D01*
X118244803Y-145004775D01*
X110744000Y-145004775D01*
X110744000Y-143002000D01*
X125984000Y-143002000D01*
X126275605Y-142943996D01*
X126522815Y-142778815D01*
X128554815Y-140746815D01*
X128611724Y-140661645D01*
X128719996Y-140499605D01*
X128733289Y-140432775D01*
X131960803Y-140432775D01*
X132133233Y-140850086D01*
X132452235Y-141169645D01*
X132869244Y-141342803D01*
X133320775Y-141343197D01*
X133738086Y-141170767D01*
X134057645Y-140851765D01*
X134230803Y-140434756D01*
X134230804Y-140432775D01*
X134500803Y-140432775D01*
X134673233Y-140850086D01*
X134992235Y-141169645D01*
X135409244Y-141342803D01*
X135860775Y-141343197D01*
X136278086Y-141170767D01*
X136597645Y-140851765D01*
X136734457Y-140522285D01*
X136917760Y-140522285D01*
X137128169Y-141031515D01*
X137517436Y-141421461D01*
X138026298Y-141632759D01*
X138577285Y-141633240D01*
X139086515Y-141422831D01*
X139476461Y-141033564D01*
X139687759Y-140524702D01*
X139688240Y-139973715D01*
X139477831Y-139464485D01*
X139088564Y-139074539D01*
X138579702Y-138863241D01*
X138028715Y-138862760D01*
X137519485Y-139073169D01*
X137129539Y-139462436D01*
X136918241Y-139971298D01*
X136917760Y-140522285D01*
X136734457Y-140522285D01*
X136770803Y-140434756D01*
X136771197Y-139983225D01*
X136598767Y-139565914D01*
X136279765Y-139246355D01*
X135862756Y-139073197D01*
X135411225Y-139072803D01*
X134993914Y-139245233D01*
X134674355Y-139564235D01*
X134501197Y-139981244D01*
X134500803Y-140432775D01*
X134230804Y-140432775D01*
X134231197Y-139983225D01*
X134058767Y-139565914D01*
X133739765Y-139246355D01*
X133322756Y-139073197D01*
X132871225Y-139072803D01*
X132453914Y-139245233D01*
X132134355Y-139564235D01*
X131961197Y-139981244D01*
X131960803Y-140432775D01*
X128733289Y-140432775D01*
X128778000Y-140208000D01*
X128778000Y-136906000D01*
X140716000Y-136906000D01*
X141007605Y-136847996D01*
X141065609Y-136809239D01*
X143510000Y-139253631D01*
X143510000Y-139253631D01*
G37*
X143510000Y-139253631D02*
X143510000Y-143764000D01*
X143568004Y-144055605D01*
X143637000Y-144158865D01*
X143637000Y-144210569D01*
X143624560Y-144272000D01*
X143624560Y-146304000D01*
X143637000Y-146370113D01*
X143637000Y-146750569D01*
X143624560Y-146812000D01*
X143624560Y-148844000D01*
X143637000Y-148910113D01*
X143637000Y-149175000D01*
X110744000Y-149175000D01*
X110744000Y-147544775D01*
X111640803Y-147544775D01*
X111813233Y-147962086D01*
X112132235Y-148281645D01*
X112549244Y-148454803D01*
X113000775Y-148455197D01*
X113418086Y-148282767D01*
X113737645Y-147963765D01*
X113910803Y-147546756D01*
X113911197Y-147095225D01*
X113907504Y-147086285D01*
X114438760Y-147086285D01*
X114649169Y-147595515D01*
X115038436Y-147985461D01*
X115547298Y-148196759D01*
X116098285Y-148197240D01*
X116447917Y-148052775D01*
X122054803Y-148052775D01*
X122227233Y-148470086D01*
X122546235Y-148789645D01*
X122963244Y-148962803D01*
X123414775Y-148963197D01*
X123825495Y-148793490D01*
X124233244Y-148962803D01*
X124684775Y-148963197D01*
X125102086Y-148790767D01*
X125421645Y-148471765D01*
X125594803Y-148054756D01*
X125595197Y-147603225D01*
X125422767Y-147185914D01*
X125103765Y-146866355D01*
X124686756Y-146693197D01*
X124235225Y-146692803D01*
X123824505Y-146862510D01*
X123416756Y-146693197D01*
X122965225Y-146692803D01*
X122547914Y-146865233D01*
X122228355Y-147184235D01*
X122055197Y-147601244D01*
X122054803Y-148052775D01*
X116447917Y-148052775D01*
X116607515Y-147986831D01*
X116997461Y-147597564D01*
X117208759Y-147088702D01*
X117209240Y-146537715D01*
X116998831Y-146028485D01*
X116609564Y-145638539D01*
X116100702Y-145427241D01*
X115549715Y-145426760D01*
X115040485Y-145637169D01*
X114650539Y-146026436D01*
X114439241Y-146535298D01*
X114438760Y-147086285D01*
X113907504Y-147086285D01*
X113738767Y-146677914D01*
X113419765Y-146358355D01*
X113002756Y-146185197D01*
X112551225Y-146184803D01*
X112133914Y-146357233D01*
X111814355Y-146676235D01*
X111641197Y-147093244D01*
X111640803Y-147544775D01*
X110744000Y-147544775D01*
X110744000Y-145004775D01*
X118244803Y-145004775D01*
X118417233Y-145422086D01*
X118736235Y-145741645D01*
X119153244Y-145914803D01*
X119604775Y-145915197D01*
X120022086Y-145742767D01*
X120341645Y-145423765D01*
X120514803Y-145006756D01*
X120515197Y-144555225D01*
X120342767Y-144137914D01*
X120023765Y-143818355D01*
X119606756Y-143645197D01*
X119155225Y-143644803D01*
X118737914Y-143817233D01*
X118418355Y-144136235D01*
X118245197Y-144553244D01*
X118244803Y-145004775D01*
X110744000Y-145004775D01*
X110744000Y-143002000D01*
X125984000Y-143002000D01*
X126275605Y-142943996D01*
X126522815Y-142778815D01*
X128554815Y-140746815D01*
X128611724Y-140661645D01*
X128719996Y-140499605D01*
X128733289Y-140432775D01*
X131960803Y-140432775D01*
X132133233Y-140850086D01*
X132452235Y-141169645D01*
X132869244Y-141342803D01*
X133320775Y-141343197D01*
X133738086Y-141170767D01*
X134057645Y-140851765D01*
X134230803Y-140434756D01*
X134230804Y-140432775D01*
X134500803Y-140432775D01*
X134673233Y-140850086D01*
X134992235Y-141169645D01*
X135409244Y-141342803D01*
X135860775Y-141343197D01*
X136278086Y-141170767D01*
X136597645Y-140851765D01*
X136734457Y-140522285D01*
X136917760Y-140522285D01*
X137128169Y-141031515D01*
X137517436Y-141421461D01*
X138026298Y-141632759D01*
X138577285Y-141633240D01*
X139086515Y-141422831D01*
X139476461Y-141033564D01*
X139687759Y-140524702D01*
X139688240Y-139973715D01*
X139477831Y-139464485D01*
X139088564Y-139074539D01*
X138579702Y-138863241D01*
X138028715Y-138862760D01*
X137519485Y-139073169D01*
X137129539Y-139462436D01*
X136918241Y-139971298D01*
X136917760Y-140522285D01*
X136734457Y-140522285D01*
X136770803Y-140434756D01*
X136771197Y-139983225D01*
X136598767Y-139565914D01*
X136279765Y-139246355D01*
X135862756Y-139073197D01*
X135411225Y-139072803D01*
X134993914Y-139245233D01*
X134674355Y-139564235D01*
X134501197Y-139981244D01*
X134500803Y-140432775D01*
X134230804Y-140432775D01*
X134231197Y-139983225D01*
X134058767Y-139565914D01*
X133739765Y-139246355D01*
X133322756Y-139073197D01*
X132871225Y-139072803D01*
X132453914Y-139245233D01*
X132134355Y-139564235D01*
X131961197Y-139981244D01*
X131960803Y-140432775D01*
X128733289Y-140432775D01*
X128778000Y-140208000D01*
X128778000Y-136906000D01*
X140716000Y-136906000D01*
X141007605Y-136847996D01*
X141065609Y-136809239D01*
X143510000Y-139253631D01*
M02*
