G04 #@! TF.FileFunction,Copper,L1,Top,Signal*
%FSLAX46Y46*%
G04 Gerber Fmt 4.6, Leading zero omitted, Abs format (unit mm)*
G04 Created by KiCad (PCBNEW 4.0.2-4+6225~38~ubuntu14.04.1-stable) date Thu 10 Mar 2016 19:01:21 GMT*
%MOMM*%
G01*
G04 APERTURE LIST*
%ADD10C,0.100000*%
%ADD11C,0.300000*%
%ADD12R,1.450000X0.450000*%
%ADD13R,1.500000X3.500000*%
%ADD14R,1.250000X1.000000*%
%ADD15R,0.700000X1.300000*%
%ADD16R,1.300000X0.700000*%
%ADD17R,0.250000X1.300000*%
%ADD18R,1.300000X0.250000*%
%ADD19R,1.550000X0.600000*%
%ADD20R,0.650000X1.060000*%
%ADD21R,0.600000X1.500000*%
%ADD22R,0.800000X0.750000*%
%ADD23R,0.750000X0.800000*%
%ADD24R,1.727200X1.727200*%
%ADD25O,1.727200X1.727200*%
%ADD26O,2.500000X1.500000*%
%ADD27R,1.170000X0.406400*%
%ADD28R,1.680000X1.880000*%
%ADD29C,0.300000*%
%ADD30C,2.800000*%
%ADD31R,2.500000X1.000000*%
%ADD32R,1.000000X2.500000*%
%ADD33R,2.032000X2.032000*%
%ADD34O,2.032000X2.032000*%
%ADD35R,0.500000X0.800000*%
%ADD36R,0.400000X0.800000*%
%ADD37C,1.000000*%
%ADD38C,0.889000*%
%ADD39C,1.500000*%
%ADD40C,0.768000*%
%ADD41C,0.508000*%
%ADD42C,0.381000*%
%ADD43C,0.254000*%
%ADD44C,1.016000*%
%ADD45C,1.500000*%
G04 APERTURE END LIST*
D10*
D11*
X134366000Y-124206000D02*
X134366000Y-124714000D01*
D12*
X125689000Y-111547000D03*
X125689000Y-112197000D03*
X125689000Y-112847000D03*
X125689000Y-113497000D03*
X130089000Y-113497000D03*
X130089000Y-112847000D03*
X130089000Y-112197000D03*
X130089000Y-111547000D03*
D13*
X130683000Y-140248000D03*
X131953000Y-145248000D03*
X133223000Y-140248000D03*
X134493000Y-145248000D03*
X135763000Y-140248000D03*
X137033000Y-145248000D03*
X138303000Y-140248000D03*
X139573000Y-145248000D03*
D14*
X142748000Y-140224000D03*
X142748000Y-142224000D03*
D15*
X134178000Y-130048000D03*
X136078000Y-130048000D03*
D16*
X127000000Y-126431000D03*
X127000000Y-128331000D03*
D15*
X105852000Y-121158000D03*
X103952000Y-121158000D03*
D16*
X111506000Y-124902000D03*
X111506000Y-123002000D03*
D15*
X110170000Y-121158000D03*
X108270000Y-121158000D03*
D16*
X111506000Y-130490000D03*
X111506000Y-128590000D03*
D15*
X110170000Y-126746000D03*
X108270000Y-126746000D03*
D16*
X111506000Y-119314000D03*
X111506000Y-117414000D03*
D15*
X110170000Y-115570000D03*
X108270000Y-115570000D03*
X105852000Y-109982000D03*
X103952000Y-109982000D03*
D16*
X111506000Y-113726000D03*
X111506000Y-111826000D03*
D15*
X110170000Y-109982000D03*
X108270000Y-109982000D03*
D16*
X111506000Y-136078000D03*
X111506000Y-134178000D03*
D15*
X110170000Y-132334000D03*
X108270000Y-132334000D03*
D17*
X129330000Y-126905000D03*
X129830000Y-126905000D03*
X130330000Y-126905000D03*
X130830000Y-126905000D03*
X131330000Y-126905000D03*
X131830000Y-126905000D03*
X132330000Y-126905000D03*
X132830000Y-126905000D03*
X133330000Y-126905000D03*
X133830000Y-126905000D03*
X134330000Y-126905000D03*
X134830000Y-126905000D03*
D18*
X136430000Y-125305000D03*
X136430000Y-124805000D03*
X136430000Y-124305000D03*
X136430000Y-123805000D03*
X136430000Y-123305000D03*
X136430000Y-122805000D03*
X136430000Y-122305000D03*
X136430000Y-121805000D03*
X136430000Y-121305000D03*
X136430000Y-120805000D03*
X136430000Y-120305000D03*
X136430000Y-119805000D03*
D17*
X134830000Y-118205000D03*
X134330000Y-118205000D03*
X133830000Y-118205000D03*
X133330000Y-118205000D03*
X132830000Y-118205000D03*
X132330000Y-118205000D03*
X131830000Y-118205000D03*
X131330000Y-118205000D03*
X130830000Y-118205000D03*
X130330000Y-118205000D03*
X129830000Y-118205000D03*
X129330000Y-118205000D03*
D18*
X127730000Y-119805000D03*
X127730000Y-120305000D03*
X127730000Y-120805000D03*
X127730000Y-121305000D03*
X127730000Y-121805000D03*
X127730000Y-122305000D03*
X127730000Y-122805000D03*
X127730000Y-123305000D03*
X127730000Y-123805000D03*
X127730000Y-124305000D03*
X127730000Y-124805000D03*
X127730000Y-125305000D03*
D12*
X141056000Y-125136000D03*
X141056000Y-125786000D03*
X141056000Y-126436000D03*
X141056000Y-127086000D03*
X145456000Y-127086000D03*
X145456000Y-126436000D03*
X145456000Y-125786000D03*
X145456000Y-125136000D03*
X141056000Y-118278000D03*
X141056000Y-118928000D03*
X141056000Y-119578000D03*
X141056000Y-120228000D03*
X145456000Y-120228000D03*
X145456000Y-119578000D03*
X145456000Y-118928000D03*
X145456000Y-118278000D03*
D19*
X124366000Y-130302000D03*
X124366000Y-129032000D03*
X124366000Y-127762000D03*
X124366000Y-126492000D03*
X118966000Y-126492000D03*
X118966000Y-127762000D03*
X118966000Y-129032000D03*
X118966000Y-130302000D03*
X123985000Y-121920000D03*
X123985000Y-120650000D03*
X123985000Y-119380000D03*
X123985000Y-118110000D03*
X118585000Y-118110000D03*
X118585000Y-119380000D03*
X118585000Y-120650000D03*
X118585000Y-121920000D03*
D20*
X114742000Y-144188000D03*
X113792000Y-144188000D03*
X112842000Y-144188000D03*
X112842000Y-146388000D03*
X114742000Y-146388000D03*
D21*
X116967000Y-146464000D03*
X118237000Y-146464000D03*
X119507000Y-146464000D03*
X120777000Y-146464000D03*
X122047000Y-146464000D03*
X123317000Y-146464000D03*
X124587000Y-146464000D03*
X125857000Y-146464000D03*
X125857000Y-141064000D03*
X124587000Y-141064000D03*
X123317000Y-141064000D03*
X122047000Y-141064000D03*
X120777000Y-141064000D03*
X119507000Y-141064000D03*
X118237000Y-141064000D03*
X116967000Y-141064000D03*
D22*
X129094800Y-116840000D03*
X130594800Y-116840000D03*
X135116000Y-116840000D03*
X133616000Y-116840000D03*
D23*
X135890000Y-126504000D03*
X135890000Y-128004000D03*
D22*
X142990000Y-128651000D03*
X141490000Y-128651000D03*
X142228000Y-121920000D03*
X140728000Y-121920000D03*
X120281000Y-124841000D03*
X121781000Y-124841000D03*
X120535000Y-116332000D03*
X122035000Y-116332000D03*
X134100000Y-111760000D03*
X132600000Y-111760000D03*
X128639000Y-115062000D03*
X127139000Y-115062000D03*
D23*
X102616000Y-123686000D03*
X102616000Y-122186000D03*
X102616000Y-129274000D03*
X102616000Y-127774000D03*
X102616000Y-118098000D03*
X102616000Y-116598000D03*
X109982000Y-124702000D03*
X109982000Y-123202000D03*
X109982000Y-130290000D03*
X109982000Y-128790000D03*
X109982000Y-119114000D03*
X109982000Y-117614000D03*
X102616000Y-112510000D03*
X102616000Y-111010000D03*
X102616000Y-134862000D03*
X102616000Y-133362000D03*
X109982000Y-113526000D03*
X109982000Y-112026000D03*
X109982000Y-135878000D03*
X109982000Y-134378000D03*
D10*
G36*
X126742000Y-117264000D02*
X127642000Y-117864000D01*
X127642000Y-118864000D01*
X126742000Y-119464000D01*
X126742000Y-117264000D01*
X126742000Y-117264000D01*
G37*
G36*
X126242000Y-119464000D02*
X125342000Y-118864000D01*
X125342000Y-117864000D01*
X126242000Y-117264000D01*
X126242000Y-119464000D01*
X126242000Y-119464000D01*
G37*
G36*
X124630000Y-123829000D02*
X125230000Y-122929000D01*
X126230000Y-122929000D01*
X126830000Y-123829000D01*
X124630000Y-123829000D01*
X124630000Y-123829000D01*
G37*
G36*
X126830000Y-124329000D02*
X126230000Y-125229000D01*
X125230000Y-125229000D01*
X124630000Y-124329000D01*
X126830000Y-124329000D01*
X126830000Y-124329000D01*
G37*
G36*
X139784000Y-120392000D02*
X139184000Y-121292000D01*
X138184000Y-121292000D01*
X137584000Y-120392000D01*
X139784000Y-120392000D01*
X139784000Y-120392000D01*
G37*
G36*
X137584000Y-119892000D02*
X138184000Y-118992000D01*
X139184000Y-118992000D01*
X139784000Y-119892000D01*
X137584000Y-119892000D01*
X137584000Y-119892000D01*
G37*
G36*
X137584000Y-123702000D02*
X138184000Y-122802000D01*
X139184000Y-122802000D01*
X139784000Y-123702000D01*
X137584000Y-123702000D01*
X137584000Y-123702000D01*
G37*
G36*
X139784000Y-124202000D02*
X139184000Y-125102000D01*
X138184000Y-125102000D01*
X137584000Y-124202000D01*
X139784000Y-124202000D01*
X139784000Y-124202000D01*
G37*
D12*
X138852000Y-114894000D03*
X138852000Y-114244000D03*
X138852000Y-113594000D03*
X138852000Y-112944000D03*
X134452000Y-112944000D03*
X134452000Y-113594000D03*
X134452000Y-114244000D03*
X134452000Y-114894000D03*
D24*
X103886000Y-140208000D03*
D25*
X106426000Y-140208000D03*
X103886000Y-142748000D03*
X106426000Y-142748000D03*
X103886000Y-145288000D03*
X106426000Y-145288000D03*
X103886000Y-147828000D03*
X106426000Y-147828000D03*
D26*
X121742000Y-133416000D03*
X143942000Y-109916000D03*
X143942000Y-133416000D03*
X121742000Y-109916000D03*
D23*
X111252000Y-146038000D03*
X111252000Y-144538000D03*
D22*
X116598000Y-148336000D03*
X118098000Y-148336000D03*
D27*
X108344500Y-136105900D03*
X108344500Y-135458200D03*
X108344500Y-134797800D03*
X108344500Y-134150100D03*
X103999500Y-134150100D03*
X103999500Y-134797800D03*
X103999500Y-135458200D03*
X103999500Y-136105900D03*
D28*
X106172000Y-135128000D03*
D27*
X108344500Y-113753900D03*
X108344500Y-113106200D03*
X108344500Y-112445800D03*
X108344500Y-111798100D03*
X103999500Y-111798100D03*
X103999500Y-112445800D03*
X103999500Y-113106200D03*
X103999500Y-113753900D03*
D28*
X106172000Y-112776000D03*
D27*
X108344500Y-119341900D03*
X108344500Y-118694200D03*
X108344500Y-118033800D03*
X108344500Y-117386100D03*
X103999500Y-117386100D03*
X103999500Y-118033800D03*
X103999500Y-118694200D03*
X103999500Y-119341900D03*
D28*
X106172000Y-118364000D03*
D27*
X108344500Y-130517900D03*
X108344500Y-129870200D03*
X108344500Y-129209800D03*
X108344500Y-128562100D03*
X103999500Y-128562100D03*
X103999500Y-129209800D03*
X103999500Y-129870200D03*
X103999500Y-130517900D03*
D28*
X106172000Y-129540000D03*
D27*
X108344500Y-124929900D03*
X108344500Y-124282200D03*
X108344500Y-123621800D03*
X108344500Y-122974100D03*
X103999500Y-122974100D03*
X103999500Y-123621800D03*
X103999500Y-124282200D03*
X103999500Y-124929900D03*
D28*
X106172000Y-123952000D03*
D16*
X118491000Y-123256000D03*
X118491000Y-125156000D03*
X118491000Y-114620000D03*
X118491000Y-116520000D03*
D29*
X134366000Y-124714000D03*
X134366000Y-124206000D03*
D30*
X132080000Y-104648000D03*
X134780000Y-101948000D03*
X129380000Y-101948000D03*
X129380000Y-107348000D03*
X134780000Y-107348000D03*
X144272000Y-104648000D03*
X146972000Y-101948000D03*
X141572000Y-101948000D03*
X141572000Y-107348000D03*
X146972000Y-107348000D03*
D31*
X138176000Y-127786000D03*
X138176000Y-130786000D03*
X141732000Y-115165000D03*
X141732000Y-112165000D03*
D32*
X123801000Y-112395000D03*
X120801000Y-112395000D03*
D33*
X145288000Y-147828000D03*
D34*
X147828000Y-147828000D03*
D33*
X145288000Y-145288000D03*
D34*
X147828000Y-145288000D03*
D30*
X105156000Y-104648000D03*
X107856000Y-101948000D03*
X102456000Y-101948000D03*
X102456000Y-107348000D03*
X107856000Y-107348000D03*
X117348000Y-104648000D03*
X120048000Y-101948000D03*
X114648000Y-101948000D03*
X114648000Y-107348000D03*
X120048000Y-107348000D03*
D35*
X119704000Y-138822000D03*
D36*
X121304000Y-138822000D03*
X120504000Y-138822000D03*
D35*
X122104000Y-138822000D03*
D36*
X120504000Y-137022000D03*
D35*
X119704000Y-137022000D03*
D36*
X121304000Y-137022000D03*
D35*
X122104000Y-137022000D03*
D32*
X143788000Y-122682000D03*
X146788000Y-122682000D03*
X115292000Y-140208000D03*
X112292000Y-140208000D03*
D16*
X124714000Y-135448000D03*
X124714000Y-137348000D03*
D37*
X130175000Y-120269000D03*
D38*
X109474000Y-124968000D03*
D37*
X133985000Y-120269000D03*
D38*
X146812000Y-118745000D03*
X146812000Y-125603000D03*
X113538000Y-127508000D03*
X115570000Y-118618000D03*
D37*
X132842000Y-121920000D03*
X131318000Y-121920000D03*
X144780000Y-121412000D03*
X146558000Y-113792000D03*
X111633000Y-102108000D03*
X102616000Y-122186000D03*
D38*
X102616000Y-116598000D03*
D37*
X108204000Y-109728000D03*
X102616000Y-110236000D03*
X127508000Y-116586000D03*
X125730000Y-121666000D03*
X127127000Y-113792000D03*
X137414000Y-112903000D03*
X144145000Y-122936000D03*
X134366000Y-122174000D03*
X146812000Y-128270000D03*
X130048000Y-122174000D03*
X144526000Y-130556000D03*
X137414000Y-103632000D03*
X138176000Y-122047000D03*
X146304000Y-131802000D03*
X140970000Y-121031000D03*
X140970000Y-127889000D03*
X109474000Y-113792000D03*
X130479800Y-116586000D03*
X133731000Y-116586000D03*
D38*
X105410000Y-121158000D03*
X105410000Y-109982000D03*
D37*
X135255000Y-125603000D03*
X124460000Y-138684000D03*
X116713000Y-140208000D03*
D38*
X143891000Y-126873000D03*
X142494000Y-125476000D03*
D37*
X144006000Y-119761000D03*
D38*
X142494000Y-118110000D03*
D37*
X119888000Y-129032000D03*
X109474000Y-130810000D03*
X120015000Y-120523000D03*
X109474000Y-136144000D03*
X122555000Y-126619000D03*
X122555000Y-118237000D03*
X109474000Y-119634000D03*
X142240000Y-115062000D03*
X123698000Y-112141000D03*
X134112000Y-129794000D03*
X128016000Y-126365000D03*
X132334000Y-125603000D03*
X112776000Y-147320000D03*
X124460000Y-147828000D03*
X135890000Y-128524000D03*
D38*
X133604000Y-125222000D03*
D37*
X111506000Y-138176000D03*
X125984000Y-141478000D03*
X126492000Y-139700000D03*
X127000000Y-128331000D03*
D38*
X132842000Y-113538000D03*
X131572000Y-113284000D03*
D37*
X102870000Y-124968000D03*
X102870000Y-119380000D03*
X102870000Y-130556000D03*
X102870000Y-113792000D03*
X102870000Y-136144000D03*
D39*
X115824000Y-146812000D03*
X138303000Y-140248000D03*
D37*
X111252000Y-148590000D03*
X118872000Y-148082000D03*
D39*
X139192000Y-147828000D03*
X126492000Y-147828000D03*
X130683000Y-140248000D03*
D37*
X112268000Y-143764000D03*
X133096000Y-140208000D03*
X119380000Y-144780000D03*
X123190000Y-147828000D03*
X135636000Y-140208000D03*
D38*
X104013000Y-122682000D03*
X104267000Y-116840000D03*
D37*
X103886000Y-111506000D03*
D40*
X146812000Y-125603000D02*
X146812000Y-122706000D01*
X146812000Y-122706000D02*
X146788000Y-122682000D01*
D41*
X142990000Y-119265000D02*
X142494000Y-119761000D01*
D42*
X144455000Y-118928000D02*
X144272000Y-118745000D01*
D41*
X143510000Y-118745000D02*
X144272000Y-118745000D01*
X142990000Y-119265000D02*
X143510000Y-118745000D01*
D42*
X145456000Y-118928000D02*
X144455000Y-118928000D01*
D41*
X142494000Y-119761000D02*
X142494000Y-121654000D01*
X142494000Y-121654000D02*
X142228000Y-121920000D01*
X129830000Y-119217000D02*
X129830000Y-119924000D01*
X129830000Y-119924000D02*
X130175000Y-120269000D01*
D43*
X129830000Y-118205000D02*
X129830000Y-119217000D01*
X129830000Y-119217000D02*
X129794000Y-119253000D01*
D41*
X146558000Y-118999000D02*
X146812000Y-118745000D01*
D43*
X146487000Y-118928000D02*
X146558000Y-118999000D01*
X145456000Y-118928000D02*
X146487000Y-118928000D01*
D41*
X143002000Y-126365000D02*
X142990000Y-128651000D01*
X144018000Y-125730000D02*
X143637000Y-125730000D01*
X143637000Y-125730000D02*
X143002000Y-126365000D01*
X144272000Y-125730000D02*
X144018000Y-125730000D01*
D42*
X144455000Y-125786000D02*
X144272000Y-125730000D01*
X145456000Y-125786000D02*
X144455000Y-125786000D01*
D43*
X145456000Y-125786000D02*
X146487000Y-125786000D01*
D41*
X109716000Y-124968000D02*
X109982000Y-124702000D01*
D42*
X109052000Y-124927000D02*
X108277000Y-124927000D01*
X109052000Y-124927000D02*
X109093000Y-124968000D01*
D41*
X109716000Y-124968000D02*
X109093000Y-124968000D01*
X111306000Y-124702000D02*
X109982000Y-124702000D01*
X111506000Y-124902000D02*
X111306000Y-124702000D01*
X109716000Y-124968000D02*
X109982000Y-124702000D01*
X109474000Y-124968000D02*
X109716000Y-124968000D01*
D43*
X134874000Y-116840000D02*
X135116000Y-116840000D01*
X134330000Y-117384000D02*
X134874000Y-116840000D01*
X134330000Y-118205000D02*
X134330000Y-117384000D01*
D41*
X134330000Y-119598000D02*
X133985000Y-119943000D01*
X133985000Y-119943000D02*
X133985000Y-120269000D01*
D43*
X134330000Y-118205000D02*
X134330000Y-119598000D01*
X129336800Y-116713000D02*
X129094800Y-116713000D01*
X129273300Y-116840000D02*
X129094800Y-116840000D01*
X129286000Y-116840000D02*
X129094800Y-116840000D01*
X129830000Y-117384000D02*
X129286000Y-116840000D01*
X129830000Y-118205000D02*
X129830000Y-117384000D01*
D41*
X146558000Y-125857000D02*
X146812000Y-125603000D01*
D43*
X146487000Y-125786000D02*
X146558000Y-125857000D01*
D41*
X144145000Y-122936000D02*
X144780000Y-122301000D01*
X144780000Y-122301000D02*
X144780000Y-121412000D01*
D44*
X134780020Y-107348020D02*
X134780020Y-101947980D01*
X134780020Y-101947980D02*
X129379980Y-101947980D01*
X129379980Y-101947980D02*
X129379980Y-107348020D01*
X129379980Y-107348020D02*
X134780020Y-107348020D01*
D43*
X134366000Y-124206000D02*
X134366000Y-122174000D01*
D41*
X136080500Y-114871500D02*
X136080500Y-115824000D01*
X136080500Y-115824000D02*
X136144000Y-115824000D01*
X136525000Y-113792000D02*
X136525000Y-115824000D01*
X136525000Y-115824000D02*
X136652000Y-115824000D01*
X136525000Y-112522000D02*
X136906000Y-112903000D01*
X136906000Y-112903000D02*
X136906000Y-115570000D01*
X136906000Y-115570000D02*
X136652000Y-115824000D01*
X134366000Y-115824000D02*
X134112000Y-115570000D01*
X136144000Y-115824000D02*
X134366000Y-115824000D01*
X136652000Y-115824000D02*
X136144000Y-115824000D01*
D43*
X128778000Y-122551000D02*
X128778000Y-122551000D01*
X128524000Y-121805000D02*
X128708500Y-121989500D01*
X128708500Y-121989500D02*
X128778000Y-122059000D01*
X128778000Y-122551000D02*
X128524000Y-122805000D01*
X128778000Y-122059000D02*
X128778000Y-122551000D01*
X127730000Y-122805000D02*
X128524000Y-122805000D01*
X128524000Y-121805000D02*
X127730000Y-121805000D01*
X126746000Y-122428000D02*
X126492000Y-122174000D01*
X126492000Y-122174000D02*
X126492000Y-121920000D01*
X126746000Y-122682000D02*
X125730000Y-121793000D01*
X125730000Y-121793000D02*
X125730000Y-121666000D01*
D44*
X137344500Y-111321500D02*
X136906000Y-111760000D01*
X136906000Y-112522000D02*
X136525000Y-112522000D01*
X136525000Y-112522000D02*
X136525000Y-112522000D01*
X136906000Y-111760000D02*
X136906000Y-112522000D01*
X135636000Y-110490000D02*
X136525000Y-111379000D01*
X136525000Y-111379000D02*
X136525000Y-112522000D01*
X136525000Y-112522000D02*
X136525000Y-113792000D01*
D41*
X136017000Y-114300000D02*
X136017000Y-111633000D01*
X136017000Y-111633000D02*
X134874000Y-110490000D01*
D44*
X132600000Y-111240000D02*
X133350000Y-110490000D01*
X133350000Y-110490000D02*
X134874000Y-110490000D01*
X132600000Y-111760000D02*
X132600000Y-111240000D01*
X136513000Y-110490000D02*
X137344500Y-111321500D01*
X137344500Y-111321500D02*
X137402000Y-111379000D01*
X134874000Y-110490000D02*
X135636000Y-110490000D01*
X135636000Y-110490000D02*
X136513000Y-110490000D01*
D41*
X135699500Y-115379500D02*
X135890000Y-115570000D01*
X136017000Y-114808000D02*
X136080500Y-114871500D01*
X136080500Y-114871500D02*
X136144000Y-114935000D01*
D42*
X105752000Y-134658000D02*
X105752000Y-134454000D01*
X105752000Y-134454000D02*
X104660000Y-133362000D01*
X104660000Y-133362000D02*
X102616000Y-133362000D01*
X108277000Y-134153000D02*
X107097000Y-134153000D01*
X107097000Y-134153000D02*
X106592000Y-134658000D01*
X102616000Y-127774000D02*
X104914000Y-127774000D01*
X104914000Y-127774000D02*
X105752000Y-128612000D01*
X105752000Y-128612000D02*
X105752000Y-129070000D01*
X108277000Y-128565000D02*
X107097000Y-128565000D01*
X107097000Y-128565000D02*
X106592000Y-129070000D01*
D43*
X108270000Y-109794000D02*
X108270000Y-109982000D01*
X108270000Y-109794000D02*
X108204000Y-109728000D01*
X102616000Y-110236000D02*
X102616000Y-111010000D01*
X126492000Y-121920000D02*
X126607000Y-121805000D01*
X126607000Y-121805000D02*
X126861000Y-121805000D01*
X126492000Y-121920000D02*
X126746000Y-122174000D01*
X126746000Y-122174000D02*
X126746000Y-122301000D01*
D41*
X126492000Y-121920000D02*
X125984000Y-121920000D01*
X125984000Y-121920000D02*
X125730000Y-121666000D01*
D43*
X126492000Y-121920000D02*
X126746000Y-121920000D01*
X127730000Y-122805000D02*
X126869000Y-122805000D01*
X126746000Y-122682000D02*
X126746000Y-122428000D01*
X126746000Y-122428000D02*
X126746000Y-122301000D01*
X126869000Y-122805000D02*
X126746000Y-122682000D01*
X126746000Y-121920000D02*
X126861000Y-121805000D01*
X126746000Y-122301000D02*
X126746000Y-121920000D01*
X137299000Y-121805000D02*
X136430000Y-121805000D01*
X136430000Y-122805000D02*
X137291000Y-122805000D01*
D41*
X108270000Y-132334000D02*
X108270000Y-133924000D01*
X108270000Y-133924000D02*
X108277000Y-133931000D01*
D42*
X108277000Y-134153000D02*
X108277000Y-133931000D01*
D41*
X108270000Y-126746000D02*
X108270000Y-128336000D01*
D42*
X108277000Y-128565000D02*
X108277000Y-128343000D01*
D41*
X108270000Y-128336000D02*
X108277000Y-128343000D01*
X108277000Y-117094000D02*
X107392000Y-117094000D01*
X107392000Y-117094000D02*
X106592000Y-117894000D01*
D42*
X108277000Y-117389000D02*
X108277000Y-117094000D01*
D41*
X127127000Y-114554000D02*
X127127000Y-114554000D01*
X127127000Y-113792000D02*
X127127000Y-114554000D01*
X127127000Y-114554000D02*
X127127000Y-115050000D01*
X127127000Y-115050000D02*
X127139000Y-115062000D01*
X137668000Y-112141000D02*
X138430000Y-112903000D01*
X138430000Y-112903000D02*
X137414000Y-112903000D01*
X138684000Y-112649000D02*
X138430000Y-112903000D01*
X141732000Y-112205000D02*
X141160000Y-111633000D01*
X141160000Y-111633000D02*
X138176000Y-111633000D01*
X140462000Y-111887000D02*
X137910000Y-111887000D01*
X138176000Y-111887000D02*
X138176000Y-111633000D01*
X137910000Y-111887000D02*
X138176000Y-111887000D01*
X140462000Y-112395000D02*
X138418000Y-112395000D01*
X138684000Y-112395000D02*
X138684000Y-112649000D01*
X138418000Y-112395000D02*
X138684000Y-112395000D01*
X137789000Y-111766000D02*
X137922000Y-111633000D01*
X137922000Y-111633000D02*
X138176000Y-111633000D01*
X140462000Y-111887000D02*
X140462000Y-112649000D01*
X140462000Y-112649000D02*
X140462000Y-112395000D01*
X140462000Y-112395000D02*
X140462000Y-112649000D01*
X141732000Y-112205000D02*
X140906000Y-111379000D01*
X139192000Y-112649000D02*
X138684000Y-112649000D01*
D43*
X139147000Y-112649000D02*
X139192000Y-112649000D01*
D41*
X138684000Y-112649000D02*
X138672000Y-112649000D01*
X138672000Y-112649000D02*
X137789000Y-111766000D01*
X139147000Y-112649000D02*
X140462000Y-112649000D01*
X140462000Y-112649000D02*
X141288000Y-112649000D01*
X141288000Y-112649000D02*
X141732000Y-112205000D01*
D43*
X138852000Y-112944000D02*
X139147000Y-112649000D01*
D42*
X108270000Y-111794000D02*
X108270000Y-111506000D01*
X108277000Y-111801000D02*
X108270000Y-111794000D01*
D41*
X107392000Y-111506000D02*
X108270000Y-111506000D01*
X106592000Y-112306000D02*
X107392000Y-111506000D01*
D42*
X108277000Y-122682000D02*
X108277000Y-122977000D01*
D41*
X107392000Y-122682000D02*
X108277000Y-122682000D01*
X106592000Y-123482000D02*
X107392000Y-122682000D01*
X108270000Y-109982000D02*
X108270000Y-111506000D01*
X108277000Y-115577000D02*
X108270000Y-115570000D01*
X108277000Y-117094000D02*
X108277000Y-115577000D01*
X108270000Y-122682000D02*
X108277000Y-122682000D01*
X108270000Y-121158000D02*
X108270000Y-122682000D01*
X137402000Y-112141000D02*
X137668000Y-112141000D01*
X137402000Y-112891000D02*
X137402000Y-112141000D01*
X137414000Y-112903000D02*
X137402000Y-112891000D01*
X137402000Y-112141000D02*
X137402000Y-111379000D01*
X140906000Y-111379000D02*
X137402000Y-111379000D01*
X137789000Y-111766000D02*
X137402000Y-111379000D01*
X136906000Y-113411000D02*
X137414000Y-112903000D01*
X136017000Y-115062000D02*
X136017000Y-114808000D01*
X136017000Y-114808000D02*
X136017000Y-114300000D01*
X136017000Y-114300000D02*
X136525000Y-113792000D01*
X134112000Y-115570000D02*
X135509000Y-115570000D01*
X135699500Y-115379500D02*
X135509000Y-115570000D01*
X136017000Y-115062000D02*
X135699500Y-115379500D01*
X136525000Y-113792000D02*
X136906000Y-113411000D01*
D43*
X132830000Y-116217000D02*
X133350000Y-115697000D01*
X132830000Y-118205000D02*
X132830000Y-116217000D01*
D41*
X133477000Y-115570000D02*
X134112000Y-115570000D01*
X133350000Y-115697000D02*
X133477000Y-115570000D01*
D43*
X133830000Y-118205000D02*
X133830000Y-119027000D01*
X133830000Y-119027000D02*
X133477000Y-119380000D01*
D41*
X133477000Y-119380000D02*
X132969000Y-119888000D01*
X132969000Y-121285000D02*
X133858000Y-122174000D01*
X133858000Y-122174000D02*
X134366000Y-122174000D01*
X132969000Y-119888000D02*
X132969000Y-121285000D01*
D42*
X135394000Y-122694000D02*
X135505000Y-122805000D01*
D43*
X135505000Y-122805000D02*
X136430000Y-122805000D01*
D42*
X135382000Y-122682000D02*
X135394000Y-122694000D01*
X135394000Y-121920000D02*
X135394000Y-122694000D01*
X135394000Y-121805000D02*
X135394000Y-121920000D01*
X135501498Y-121812502D02*
X135394000Y-121920000D01*
D43*
X135509000Y-121805000D02*
X135501498Y-121812502D01*
X136430000Y-121805000D02*
X135509000Y-121805000D01*
D41*
X130683000Y-115570000D02*
X130048000Y-115570000D01*
X130048000Y-115570000D02*
X129667000Y-115951000D01*
X129667000Y-115951000D02*
X128028000Y-115951000D01*
X128028000Y-115951000D02*
X127139000Y-115062000D01*
D43*
X131330000Y-118205000D02*
X131330000Y-116217000D01*
X131330000Y-116217000D02*
X130810000Y-115697000D01*
D41*
X130810000Y-115697000D02*
X130683000Y-115570000D01*
D42*
X125984000Y-113792000D02*
X127127000Y-113792000D01*
X125689000Y-113497000D02*
X125984000Y-113792000D01*
D44*
X120841000Y-112840000D02*
X120841000Y-112395000D01*
X126492000Y-114427000D02*
X122301000Y-114427000D01*
X127127000Y-113792000D02*
X126492000Y-114427000D01*
X122301000Y-114427000D02*
X120841000Y-112840000D01*
D41*
X130048000Y-123698000D02*
X130048000Y-122174000D01*
D43*
X128941000Y-124805000D02*
X129540000Y-124206000D01*
D41*
X129540000Y-124206000D02*
X130048000Y-123698000D01*
D43*
X127730000Y-124805000D02*
X128941000Y-124805000D01*
D44*
X133985000Y-122555000D02*
X134366000Y-122174000D01*
D43*
X134330000Y-122210000D02*
X134366000Y-122174000D01*
X134330000Y-122210000D02*
X134366000Y-122174000D01*
X137668000Y-122174000D02*
X137299000Y-121805000D01*
X137291000Y-122805000D02*
X137668000Y-122428000D01*
X137795000Y-122047000D02*
X138176000Y-122047000D01*
X137668000Y-122174000D02*
X137795000Y-122047000D01*
X137668000Y-122428000D02*
X137668000Y-122174000D01*
D41*
X140728000Y-121920000D02*
X140970000Y-121678000D01*
X140970000Y-121678000D02*
X140970000Y-121031000D01*
D40*
X140970000Y-127889000D02*
X140970000Y-129540000D01*
X143232000Y-131802000D02*
X140970000Y-129540000D01*
X143232000Y-131802000D02*
X146304000Y-131802000D01*
D41*
X140970000Y-120523000D02*
X140970000Y-121031000D01*
X141224000Y-127635000D02*
X141056000Y-127467000D01*
X141490000Y-127901000D02*
X141224000Y-127635000D01*
X140970000Y-127889000D02*
X141224000Y-127635000D01*
D43*
X140970000Y-120523000D02*
X141056000Y-120437000D01*
X141056000Y-120228000D02*
X141056000Y-120437000D01*
D42*
X141056000Y-127086000D02*
X141056000Y-127201000D01*
X141056000Y-127467000D02*
X141056000Y-127086000D01*
D41*
X141490000Y-128651000D02*
X141490000Y-127901000D01*
X109716000Y-113792000D02*
X109982000Y-113526000D01*
D42*
X108925000Y-113751000D02*
X108966000Y-113792000D01*
X108925000Y-113751000D02*
X108277000Y-113751000D01*
D41*
X109716000Y-113792000D02*
X108966000Y-113792000D01*
X109716000Y-113792000D02*
X109982000Y-113526000D01*
X109474000Y-113792000D02*
X109716000Y-113792000D01*
X111306000Y-113526000D02*
X111506000Y-113726000D01*
X109982000Y-113526000D02*
X111306000Y-113526000D01*
D43*
X133330000Y-118205000D02*
X133330000Y-117368000D01*
X133330000Y-117368000D02*
X133616000Y-117082000D01*
X133616000Y-117082000D02*
X133616000Y-116840000D01*
X130467800Y-116955000D02*
X130467800Y-116713000D01*
X130830000Y-117241000D02*
X130467800Y-116955000D01*
X130830000Y-118205000D02*
X130830000Y-117241000D01*
X130467800Y-116598000D02*
X130467800Y-116840000D01*
X130479800Y-116586000D02*
X130467800Y-116598000D01*
D41*
X136430000Y-125305000D02*
X136430000Y-126040000D01*
X136430000Y-126040000D02*
X136894000Y-126504000D01*
X135255000Y-125603000D02*
X135255000Y-125869000D01*
X135255000Y-125869000D02*
X135890000Y-126504000D01*
D44*
X135890000Y-126504000D02*
X136894000Y-126504000D01*
X136894000Y-126504000D02*
X138176000Y-127786000D01*
D40*
X115292000Y-140208000D02*
X116111000Y-140208000D01*
X116111000Y-140208000D02*
X116967000Y-141064000D01*
D43*
X105410000Y-121158000D02*
X105852000Y-121158000D01*
D42*
X105852000Y-109982000D02*
X105410000Y-109982000D01*
D43*
X135636000Y-125476000D02*
X135890000Y-125476000D01*
X135890000Y-125476000D02*
X136259000Y-125476000D01*
X135382000Y-125476000D02*
X135636000Y-125476000D01*
X135382000Y-125476000D02*
X135211000Y-125305000D01*
X135211000Y-125305000D02*
X136430000Y-125305000D01*
X136430000Y-124805000D02*
X136430000Y-125095000D01*
X136430000Y-125095000D02*
X136430000Y-125305000D01*
X116840000Y-140937000D02*
X116967000Y-141064000D01*
D41*
X124587000Y-138799000D02*
X124587000Y-141064000D01*
D43*
X124472000Y-138684000D02*
X124587000Y-138799000D01*
X116713000Y-140810000D02*
X116967000Y-141064000D01*
X116713000Y-140208000D02*
X116713000Y-140810000D01*
X146375000Y-126436000D02*
X146558000Y-126619000D01*
X145456000Y-126436000D02*
X146375000Y-126436000D01*
D41*
X147320000Y-126619000D02*
X148082000Y-125857000D01*
X146558000Y-126619000D02*
X147320000Y-126619000D01*
D42*
X144343000Y-126436000D02*
X144033000Y-126492000D01*
X144033000Y-126492000D02*
X143891000Y-126492000D01*
X145456000Y-126436000D02*
X144343000Y-126436000D01*
D44*
X148082000Y-111442500D02*
X148082000Y-125857000D01*
X144272000Y-107632500D02*
X148082000Y-111442500D01*
X144272000Y-104648000D02*
X144272000Y-107632500D01*
D42*
X142057000Y-125786000D02*
X142494000Y-125349000D01*
X141056000Y-125786000D02*
X142057000Y-125786000D01*
X145456000Y-119578000D02*
X144189000Y-119578000D01*
D43*
X144189000Y-119578000D02*
X144006000Y-119761000D01*
D41*
X144006000Y-119761000D02*
X144018000Y-119761000D01*
D42*
X141056000Y-118928000D02*
X142057000Y-118928000D01*
X142057000Y-118928000D02*
X142494000Y-118491000D01*
X108344500Y-130517900D02*
X109181900Y-130517900D01*
X109181900Y-130517900D02*
X109474000Y-130810000D01*
D44*
X118966000Y-129032000D02*
X119888000Y-129032000D01*
X111506000Y-130490000D02*
X114620000Y-130490000D01*
X116078000Y-129032000D02*
X118966000Y-129032000D01*
X114620000Y-130490000D02*
X116078000Y-129032000D01*
D41*
X111506000Y-130490000D02*
X111306000Y-130290000D01*
X111306000Y-130290000D02*
X109982000Y-130290000D01*
X109474000Y-130810000D02*
X109716000Y-130810000D01*
X109716000Y-130810000D02*
X109982000Y-130290000D01*
D44*
X119888000Y-120650000D02*
X120015000Y-120523000D01*
X118585000Y-120650000D02*
X119888000Y-120650000D01*
X120015000Y-120523000D02*
X119888000Y-120650000D01*
D40*
X121781000Y-124841000D02*
X122555000Y-125615000D01*
X124366000Y-126492000D02*
X122715000Y-124841000D01*
X122715000Y-124841000D02*
X121781000Y-124841000D01*
D44*
X122555000Y-125615000D02*
X123432000Y-126492000D01*
X123432000Y-126492000D02*
X123432000Y-126377000D01*
X123432000Y-126377000D02*
X123444000Y-126365000D01*
X123444000Y-126365000D02*
X123444000Y-126492000D01*
X122555000Y-126619000D02*
X122555000Y-125615000D01*
D41*
X109982000Y-135878000D02*
X111306000Y-135878000D01*
X111306000Y-135878000D02*
X111506000Y-136078000D01*
X109474000Y-136144000D02*
X109740000Y-135878000D01*
X109740000Y-135878000D02*
X109982000Y-135878000D01*
D42*
X108318000Y-136144000D02*
X108966000Y-136144000D01*
D41*
X109474000Y-136144000D02*
X108966000Y-136144000D01*
D42*
X108277000Y-136103000D02*
X108318000Y-136144000D01*
D44*
X124366000Y-126492000D02*
X123444000Y-126492000D01*
X123444000Y-126492000D02*
X122682000Y-126492000D01*
X122682000Y-126492000D02*
X122555000Y-126619000D01*
X122682000Y-118110000D02*
X122555000Y-118237000D01*
X123985000Y-118110000D02*
X122682000Y-118110000D01*
D41*
X122334000Y-116459000D02*
X122035000Y-116459000D01*
D44*
X122555000Y-116680000D02*
X122334000Y-116459000D01*
X123985000Y-118110000D02*
X122555000Y-116680000D01*
X122555000Y-117221000D02*
X122555000Y-116680000D01*
X122555000Y-116680000D02*
X122555000Y-117221000D01*
X122555000Y-118237000D02*
X122555000Y-116680000D01*
D42*
X125689000Y-112197000D02*
X123999000Y-112197000D01*
X123999000Y-112197000D02*
X123801000Y-112395000D01*
D41*
X140906000Y-115125000D02*
X140208000Y-114427000D01*
X140025000Y-114244000D02*
X140208000Y-114427000D01*
D42*
X140025000Y-114244000D02*
X138852000Y-114244000D01*
D44*
X142177000Y-115125000D02*
X141732000Y-115125000D01*
D41*
X111506000Y-119314000D02*
X111306000Y-119114000D01*
X111306000Y-119114000D02*
X109982000Y-119114000D01*
X109474000Y-119380000D02*
X109740000Y-119114000D01*
X109740000Y-119114000D02*
X109982000Y-119114000D01*
X108966000Y-119380000D02*
X109474000Y-119380000D01*
D42*
X108925000Y-119339000D02*
X108966000Y-119380000D01*
X108277000Y-119339000D02*
X108925000Y-119339000D01*
D41*
X140906000Y-115125000D02*
X141732000Y-115125000D01*
D44*
X142240000Y-115062000D02*
X142177000Y-115125000D01*
D43*
X124086000Y-112070000D02*
X123761000Y-112395000D01*
D41*
X123761000Y-112204000D02*
X123761000Y-112395000D01*
X123698000Y-112141000D02*
X123761000Y-112204000D01*
D43*
X134272000Y-129634000D02*
X134112000Y-129794000D01*
X133830000Y-126905000D02*
X133830000Y-129192000D01*
X133830000Y-129192000D02*
X134272000Y-129634000D01*
X127730000Y-125701000D02*
X127000000Y-126431000D01*
X127730000Y-125305000D02*
X127730000Y-125701000D01*
X127730000Y-126079000D02*
X128016000Y-126365000D01*
X127730000Y-125857000D02*
X127730000Y-126079000D01*
X127730000Y-125305000D02*
X127730000Y-125857000D01*
X127156000Y-126431000D02*
X127000000Y-126431000D01*
X127730000Y-125857000D02*
X127156000Y-126431000D01*
X136430000Y-124305000D02*
X138337000Y-124305000D01*
X138337000Y-124305000D02*
X138684000Y-124652000D01*
D42*
X138684000Y-124652000D02*
X139446000Y-125414000D01*
X139898000Y-126436000D02*
X141056000Y-126436000D01*
X139898000Y-126436000D02*
X139446000Y-125984000D01*
X139446000Y-125414000D02*
X139446000Y-125984000D01*
D43*
X137386000Y-124305000D02*
X137414000Y-124333000D01*
X137386000Y-124305000D02*
X136430000Y-124305000D01*
X136430000Y-124305000D02*
X135608000Y-124305000D01*
X135608000Y-124305000D02*
X135382000Y-124079000D01*
X135382000Y-124079000D02*
X135382000Y-123571000D01*
X135382000Y-123571000D02*
X135648000Y-123305000D01*
X135648000Y-123305000D02*
X136430000Y-123305000D01*
X137307000Y-123805000D02*
X137860000Y-123252000D01*
X136430000Y-123805000D02*
X137307000Y-123805000D01*
X137860000Y-123252000D02*
X138684000Y-123252000D01*
D41*
X138820000Y-119578000D02*
X139883000Y-119578000D01*
D42*
X139883000Y-119578000D02*
X141056000Y-119578000D01*
D41*
X138820000Y-119578000D02*
X138684000Y-119442000D01*
D43*
X137860000Y-119696000D02*
X138303000Y-119696000D01*
X136430000Y-120305000D02*
X135600000Y-120305000D01*
X135656000Y-121305000D02*
X136430000Y-121305000D01*
X135382000Y-121031000D02*
X135656000Y-121305000D01*
X135382000Y-120523000D02*
X135382000Y-121031000D01*
X135600000Y-120305000D02*
X135382000Y-120523000D01*
X138050500Y-119442000D02*
X138684000Y-119442000D01*
X137187500Y-120305000D02*
X138050500Y-119442000D01*
X136430000Y-120305000D02*
X137187500Y-120305000D01*
D41*
X138622000Y-120904000D02*
X137541000Y-120904000D01*
D43*
X137442000Y-120805000D02*
X137541000Y-120904000D01*
X137442000Y-120805000D02*
X136430000Y-120805000D01*
D41*
X138622000Y-120904000D02*
X138684000Y-120842000D01*
D43*
X127730000Y-123805000D02*
X126218000Y-123805000D01*
X127730000Y-120805000D02*
X128496000Y-120805000D01*
X128496000Y-120805000D02*
X128778000Y-120523000D01*
X128778000Y-120523000D02*
X128778000Y-119507000D01*
X128778000Y-119507000D02*
X128524000Y-119253000D01*
X128524000Y-119253000D02*
X128081000Y-119253000D01*
X128081000Y-119253000D02*
X127192000Y-118364000D01*
X132330000Y-125607000D02*
X132334000Y-125603000D01*
X132330000Y-125607000D02*
X132330000Y-126905000D01*
D44*
X108712000Y-104648000D02*
X105156000Y-104648000D01*
X114427000Y-110363000D02*
X108712000Y-104648000D01*
X114427000Y-120777000D02*
X114427000Y-110363000D01*
X116906000Y-123256000D02*
X114427000Y-120777000D01*
X118491000Y-123256000D02*
X116906000Y-123256000D01*
D41*
X124366000Y-127762000D02*
X125222000Y-127762000D01*
X125730000Y-127254000D02*
X125730000Y-124779000D01*
X125222000Y-127762000D02*
X125730000Y-127254000D01*
D43*
X126266000Y-124305000D02*
X125730000Y-124841000D01*
X127730000Y-124305000D02*
X126266000Y-124305000D01*
X127730000Y-123305000D02*
X128512000Y-123305000D01*
X128552000Y-124305000D02*
X127730000Y-124305000D01*
X128778000Y-124079000D02*
X128552000Y-124305000D01*
X128778000Y-123571000D02*
X128778000Y-124079000D01*
X128512000Y-123305000D02*
X128778000Y-123571000D01*
D44*
X117348000Y-113477000D02*
X117348000Y-104648000D01*
X118491000Y-114620000D02*
X117348000Y-113477000D01*
D43*
X124968000Y-119380000D02*
X126047500Y-120459500D01*
X125984000Y-120396000D02*
X126047500Y-120396000D01*
X126047500Y-120459500D02*
X125984000Y-120396000D01*
X125984000Y-120650000D02*
X124714000Y-119380000D01*
X124714000Y-119380000D02*
X123985000Y-119380000D01*
X125984000Y-120015000D02*
X126138500Y-120015000D01*
X126138500Y-120015000D02*
X126428500Y-120305000D01*
X125792000Y-119380000D02*
X125792000Y-119442000D01*
X125792000Y-119442000D02*
X126746000Y-120396000D01*
X127000000Y-120305000D02*
X126909000Y-120305000D01*
X126909000Y-120305000D02*
X125792000Y-119188000D01*
X126274000Y-120305000D02*
X126274000Y-120813000D01*
X126274000Y-120813000D02*
X126238000Y-120777000D01*
X126428500Y-120967500D02*
X126428500Y-120305000D01*
X126492000Y-120396000D02*
X126492000Y-120305000D01*
X126428500Y-120305000D02*
X126492000Y-120368500D01*
X126492000Y-120368500D02*
X126492000Y-120396000D01*
X126047500Y-120078500D02*
X126047500Y-120396000D01*
X126047500Y-120396000D02*
X126047500Y-120586500D01*
X126047500Y-120586500D02*
X126428500Y-120967500D01*
X126428500Y-120967500D02*
X126555500Y-121094500D01*
X126555500Y-121094500D02*
X126555500Y-120586500D01*
X126555500Y-120586500D02*
X126746000Y-120396000D01*
X126746000Y-120396000D02*
X126837000Y-120305000D01*
X127730000Y-120305000D02*
X127000000Y-120305000D01*
X127000000Y-120305000D02*
X126837000Y-120305000D01*
X126837000Y-120305000D02*
X126492000Y-120305000D01*
X126492000Y-120305000D02*
X126274000Y-120305000D01*
X126274000Y-120305000D02*
X126047500Y-120078500D01*
X126047500Y-120078500D02*
X125984000Y-120015000D01*
X126238000Y-120777000D02*
X126111000Y-120777000D01*
X125984000Y-120650000D02*
X125984000Y-120015000D01*
X126111000Y-120777000D02*
X125984000Y-120650000D01*
X126492000Y-121031000D02*
X126238000Y-120777000D01*
X126555500Y-121094500D02*
X126492000Y-121031000D01*
X126893000Y-121305000D02*
X126766000Y-121305000D01*
X127730000Y-121305000D02*
X126893000Y-121305000D01*
X126766000Y-121305000D02*
X126555500Y-121094500D01*
D41*
X125792000Y-118364000D02*
X125792000Y-119380000D01*
X125792000Y-119380000D02*
X125792000Y-119188000D01*
X125792000Y-119188000D02*
X125792000Y-118937000D01*
X125792000Y-118937000D02*
X125349000Y-119380000D01*
X125792000Y-118364000D02*
X125792000Y-119823000D01*
X125792000Y-119823000D02*
X125984000Y-120015000D01*
X125349000Y-119380000D02*
X125984000Y-120015000D01*
X125222000Y-119380000D02*
X124968000Y-119380000D01*
X124968000Y-119380000D02*
X123985000Y-119380000D01*
X125222000Y-119380000D02*
X125349000Y-119380000D01*
X124587000Y-146464000D02*
X124587000Y-147701000D01*
X112842000Y-147254000D02*
X112842000Y-146388000D01*
X112776000Y-147320000D02*
X112842000Y-147254000D01*
X124587000Y-147701000D02*
X124460000Y-147828000D01*
D44*
X145288000Y-145288000D02*
X145288000Y-147828000D01*
X147828000Y-145288000D02*
X147828000Y-147828000D01*
D41*
X118966000Y-126492000D02*
X120281000Y-125177000D01*
X120281000Y-125177000D02*
X120281000Y-124841000D01*
D43*
X119126000Y-126332000D02*
X118966000Y-126492000D01*
D41*
X118585000Y-118110000D02*
X118757000Y-118110000D01*
X118757000Y-118110000D02*
X120535000Y-116332000D01*
D44*
X117411500Y-127190500D02*
X117411500Y-125793500D01*
X117729000Y-125476000D02*
X118491000Y-125476000D01*
X117411500Y-125793500D02*
X117729000Y-125476000D01*
X118491000Y-125476000D02*
X118491000Y-125156000D01*
D43*
X121031000Y-124333000D02*
X121031000Y-125349000D01*
X121031000Y-125349000D02*
X120142000Y-126238000D01*
X120777000Y-124079000D02*
X121031000Y-124333000D01*
X119761000Y-124079000D02*
X120777000Y-124079000D01*
X119507000Y-124333000D02*
X119761000Y-124079000D01*
X119507000Y-125095000D02*
X119507000Y-124333000D01*
X118745000Y-125857000D02*
X119507000Y-125095000D01*
X117983000Y-125857000D02*
X118745000Y-125857000D01*
X117856000Y-125984000D02*
X117983000Y-125857000D01*
X117856000Y-127000000D02*
X117856000Y-125984000D01*
D44*
X117729000Y-127508000D02*
X117411500Y-127190500D01*
X117411500Y-127190500D02*
X116840000Y-126619000D01*
D43*
X118966000Y-127254000D02*
X117475000Y-127254000D01*
X117729000Y-127254000D02*
X117729000Y-127508000D01*
X117475000Y-127254000D02*
X117729000Y-127254000D01*
X118966000Y-127762000D02*
X118966000Y-127254000D01*
X118966000Y-127254000D02*
X118966000Y-127127000D01*
X118966000Y-127127000D02*
X118999000Y-127127000D01*
X120142000Y-126238000D02*
X120142000Y-126873000D01*
X120142000Y-126873000D02*
X119888000Y-127127000D01*
X119888000Y-127127000D02*
X118999000Y-127127000D01*
X117983000Y-127127000D02*
X117856000Y-127000000D01*
X118331000Y-127127000D02*
X117983000Y-127127000D01*
X118966000Y-127762000D02*
X118331000Y-127127000D01*
X118999000Y-127127000D02*
X118331000Y-127127000D01*
D44*
X118966000Y-127762000D02*
X117983000Y-127762000D01*
X117983000Y-127762000D02*
X117729000Y-127508000D01*
D41*
X124366000Y-129032000D02*
X122047000Y-129032000D01*
X120777000Y-127762000D02*
X118966000Y-127762000D01*
X122047000Y-129032000D02*
X120777000Y-127762000D01*
D44*
X118491000Y-116967000D02*
X118491000Y-116520000D01*
X117348000Y-116967000D02*
X118491000Y-116967000D01*
X116840000Y-118618000D02*
X116840000Y-117475000D01*
X118585000Y-119380000D02*
X117602000Y-119380000D01*
X117602000Y-119380000D02*
X116840000Y-118618000D01*
X116840000Y-117475000D02*
X117348000Y-116967000D01*
D43*
X119761000Y-116205000D02*
X118491000Y-117475000D01*
X119761000Y-115824000D02*
X119761000Y-116205000D01*
X120015000Y-115570000D02*
X119761000Y-115824000D01*
X118491000Y-117475000D02*
X117475000Y-117475000D01*
X121031000Y-115570000D02*
X121285000Y-115824000D01*
X121285000Y-115824000D02*
X121285000Y-116967000D01*
X121031000Y-117221000D02*
X121285000Y-116967000D01*
X117475000Y-117475000D02*
X117221000Y-117729000D01*
X117221000Y-117729000D02*
X117221000Y-118491000D01*
X117221000Y-118491000D02*
X117475000Y-118745000D01*
X117475000Y-118745000D02*
X118237000Y-118745000D01*
X120015000Y-115570000D02*
X121031000Y-115570000D01*
X118237000Y-118745000D02*
X118491000Y-118745000D01*
X118585000Y-118905000D02*
X118425000Y-118745000D01*
X118425000Y-118745000D02*
X118491000Y-118745000D01*
X118585000Y-118905000D02*
X118745000Y-118745000D01*
X120523000Y-117221000D02*
X121031000Y-117221000D01*
X119761000Y-117983000D02*
X120523000Y-117221000D01*
X119761000Y-118491000D02*
X119761000Y-117983000D01*
X119507000Y-118745000D02*
X119761000Y-118491000D01*
X119507000Y-118745000D02*
X118745000Y-118745000D01*
X118585000Y-119380000D02*
X118585000Y-118905000D01*
D41*
X120396000Y-119380000D02*
X121666000Y-120650000D01*
X121666000Y-120650000D02*
X123985000Y-120650000D01*
X118585000Y-119380000D02*
X120396000Y-119380000D01*
D44*
X135890000Y-128004000D02*
X135890000Y-128524000D01*
D43*
X134330000Y-126905000D02*
X134330000Y-127726000D01*
X134608000Y-128004000D02*
X135890000Y-128004000D01*
X134330000Y-127726000D02*
X134608000Y-128004000D01*
D44*
X138176000Y-130786000D02*
X136816000Y-130786000D01*
X136816000Y-130786000D02*
X136078000Y-130048000D01*
X135890000Y-128004000D02*
X135890000Y-129860000D01*
X135890000Y-129860000D02*
X136078000Y-130048000D01*
D40*
X112292000Y-140208000D02*
X112292000Y-138962000D01*
X112292000Y-138962000D02*
X111506000Y-138176000D01*
D43*
X134366000Y-124714000D02*
X134112000Y-124714000D01*
X134112000Y-124714000D02*
X133604000Y-125222000D01*
X134366000Y-124714000D02*
X134330000Y-124750000D01*
X134330000Y-124750000D02*
X134330000Y-126905000D01*
X125857000Y-141351000D02*
X125857000Y-141064000D01*
X125984000Y-141478000D02*
X125857000Y-141351000D01*
D41*
X125857000Y-139700000D02*
X125857000Y-141064000D01*
X125857000Y-138799000D02*
X125857000Y-139700000D01*
X125972000Y-138684000D02*
X125857000Y-138799000D01*
X126492000Y-139700000D02*
X125857000Y-139700000D01*
X134100000Y-111760000D02*
X134620000Y-112280000D01*
D43*
X134620000Y-112649000D02*
X134620000Y-112776000D01*
D41*
X134620000Y-112280000D02*
X134620000Y-112649000D01*
D43*
X134452000Y-112944000D02*
X134620000Y-112776000D01*
D41*
X130089000Y-113612000D02*
X128639000Y-115062000D01*
D43*
X130089000Y-113497000D02*
X130089000Y-113612000D01*
D41*
X132588000Y-114356000D02*
X132588000Y-113792000D01*
X132588000Y-113792000D02*
X132842000Y-113538000D01*
X133294000Y-113538000D02*
X133350000Y-113594000D01*
X132842000Y-113538000D02*
X133294000Y-113538000D01*
D42*
X133350000Y-113594000D02*
X134452000Y-113594000D01*
D43*
X133279000Y-113594000D02*
X133350000Y-113594000D01*
X132330000Y-118205000D02*
X132330000Y-115955000D01*
X132330000Y-115955000D02*
X132588000Y-115443000D01*
D41*
X132588000Y-114356000D02*
X132588000Y-115443000D01*
X133350000Y-113594000D02*
X132588000Y-114356000D01*
X131572000Y-113284000D02*
X131318000Y-113030000D01*
D42*
X131135000Y-112847000D02*
X130089000Y-112847000D01*
X131135000Y-112847000D02*
X131318000Y-113030000D01*
D43*
X131832000Y-115953000D02*
X131572000Y-115443000D01*
X131830000Y-118205000D02*
X131832000Y-115953000D01*
D41*
X131572000Y-115443000D02*
X131572000Y-113284000D01*
D42*
X103165000Y-124927000D02*
X104067000Y-124927000D01*
D41*
X102870000Y-124968000D02*
X103124000Y-124968000D01*
D42*
X103165000Y-124927000D02*
X103124000Y-124968000D01*
X103419000Y-119339000D02*
X104067000Y-119339000D01*
D43*
X104067000Y-130515000D02*
X104689000Y-130515000D01*
X104689000Y-128565000D02*
X104067000Y-128565000D01*
X104902000Y-128778000D02*
X104689000Y-128565000D01*
X104902000Y-130302000D02*
X104902000Y-128778000D01*
X104689000Y-130515000D02*
X104902000Y-130302000D01*
X103419000Y-119339000D02*
X103378000Y-119380000D01*
D41*
X102870000Y-119380000D02*
X103378000Y-119380000D01*
D42*
X102911000Y-130515000D02*
X102870000Y-130556000D01*
X104067000Y-130515000D02*
X102911000Y-130515000D01*
D41*
X102929000Y-123627000D02*
X102870000Y-123686000D01*
D42*
X103449000Y-123627000D02*
X103813000Y-123627000D01*
D41*
X102929000Y-123627000D02*
X103449000Y-123627000D01*
D42*
X104067000Y-129215000D02*
X103449000Y-129215000D01*
D41*
X102675000Y-129215000D02*
X102616000Y-129274000D01*
X103449000Y-129215000D02*
X102675000Y-129215000D01*
X103136000Y-118098000D02*
X102616000Y-118098000D01*
D42*
X104067000Y-118039000D02*
X103195000Y-118039000D01*
D41*
X103195000Y-118039000D02*
X103136000Y-118098000D01*
X111306000Y-123202000D02*
X111506000Y-123002000D01*
X110756000Y-123202000D02*
X111306000Y-123202000D01*
X109982000Y-123202000D02*
X110756000Y-123202000D01*
X109982000Y-121346000D02*
X110170000Y-121158000D01*
X109982000Y-121920000D02*
X109982000Y-121346000D01*
X109982000Y-122682000D02*
X109982000Y-121920000D01*
X109982000Y-123202000D02*
X109982000Y-122682000D01*
X111506000Y-122494000D02*
X110170000Y-121158000D01*
X111506000Y-123002000D02*
X111506000Y-122494000D01*
X110424000Y-121920000D02*
X111506000Y-123002000D01*
X109982000Y-121920000D02*
X110424000Y-121920000D01*
X109982000Y-121920000D02*
X109982000Y-121920000D01*
X111306000Y-123202000D02*
X111506000Y-123002000D01*
X110024000Y-121920000D02*
X111306000Y-123202000D01*
X109982000Y-121920000D02*
X110024000Y-121920000D01*
X110236000Y-122682000D02*
X110756000Y-123202000D01*
X109982000Y-122682000D02*
X110236000Y-122682000D01*
X109982000Y-123317000D02*
X109982000Y-123202000D01*
D43*
X109016800Y-124282200D02*
X108344500Y-124282200D01*
X109016800Y-124282200D02*
X109474000Y-123825000D01*
D41*
X109982000Y-123317000D02*
X109474000Y-123825000D01*
X109982000Y-128270000D02*
X110236000Y-128270000D01*
X110236000Y-128270000D02*
X110756000Y-128790000D01*
X109982000Y-127508000D02*
X110024000Y-127508000D01*
X110024000Y-127508000D02*
X111306000Y-128790000D01*
X111306000Y-128790000D02*
X111506000Y-128590000D01*
X109982000Y-127508000D02*
X109982000Y-127508000D01*
X109982000Y-127508000D02*
X110424000Y-127508000D01*
X110424000Y-127508000D02*
X111506000Y-128590000D01*
X109982000Y-128790000D02*
X109982000Y-128270000D01*
X109982000Y-128270000D02*
X109982000Y-127508000D01*
X109982000Y-127508000D02*
X109982000Y-126934000D01*
X109982000Y-126934000D02*
X110170000Y-126746000D01*
X109982000Y-128790000D02*
X110756000Y-128790000D01*
X110756000Y-128790000D02*
X111306000Y-128790000D01*
X111306000Y-128790000D02*
X111506000Y-128590000D01*
X111506000Y-128590000D02*
X111506000Y-128082000D01*
X111506000Y-128082000D02*
X110170000Y-126746000D01*
X109982000Y-128905000D02*
X109982000Y-128790000D01*
D43*
X109016800Y-129870200D02*
X108344500Y-129870200D01*
X109016800Y-129870200D02*
X109474000Y-129413000D01*
D41*
X109982000Y-128905000D02*
X109474000Y-129413000D01*
D42*
X109970000Y-117614000D02*
X109982000Y-117614000D01*
D41*
X111506000Y-117414000D02*
X111306000Y-117614000D01*
X111306000Y-117614000D02*
X110744000Y-117614000D01*
X110744000Y-117614000D02*
X109982000Y-117614000D01*
X109982000Y-116840000D02*
X109982000Y-117614000D01*
X109982000Y-116332000D02*
X109982000Y-116840000D01*
X109982000Y-115758000D02*
X109982000Y-116332000D01*
X110170000Y-115570000D02*
X109982000Y-115758000D01*
X111506000Y-116906000D02*
X110170000Y-115570000D01*
X111506000Y-117414000D02*
X111506000Y-116906000D01*
X110424000Y-116332000D02*
X111506000Y-117414000D01*
X109982000Y-116332000D02*
X110424000Y-116332000D01*
X109982000Y-116332000D02*
X109982000Y-116332000D01*
X110744000Y-117094000D02*
X110744000Y-117614000D01*
X109982000Y-116332000D02*
X110744000Y-117094000D01*
X110744000Y-117602000D02*
X110744000Y-117614000D01*
X109982000Y-116840000D02*
X110744000Y-117602000D01*
X109982000Y-117729000D02*
X109982000Y-117614000D01*
D43*
X109016800Y-118694200D02*
X108344500Y-118694200D01*
X109016800Y-118694200D02*
X109474000Y-118237000D01*
D41*
X109982000Y-117729000D02*
X109474000Y-118237000D01*
D44*
X101346000Y-140716000D02*
X101346000Y-115316000D01*
X101346000Y-115316000D02*
X102870000Y-113792000D01*
D42*
X103419000Y-113751000D02*
X104067000Y-113751000D01*
X103419000Y-113751000D02*
X103378000Y-113792000D01*
D41*
X102870000Y-113792000D02*
X103378000Y-113792000D01*
D44*
X103378000Y-142748000D02*
X101346000Y-140716000D01*
X103886000Y-142748000D02*
X103378000Y-142748000D01*
D43*
X104067000Y-136103000D02*
X104689000Y-136103000D01*
X104689000Y-134153000D02*
X104067000Y-134153000D01*
X104902000Y-134366000D02*
X104689000Y-134153000D01*
X104902000Y-135890000D02*
X104902000Y-134366000D01*
X104689000Y-136103000D02*
X104902000Y-135890000D01*
D42*
X102911000Y-136103000D02*
X102870000Y-136144000D01*
X102911000Y-136103000D02*
X104067000Y-136103000D01*
X103999500Y-136105900D02*
X103999500Y-136511500D01*
D44*
X104521000Y-136525000D02*
X104902000Y-136906000D01*
X104902000Y-136906000D02*
X105664000Y-136906000D01*
X105664000Y-136906000D02*
X108204000Y-139446000D01*
X108204000Y-139446000D02*
X108204000Y-140970000D01*
X108204000Y-140970000D02*
X106426000Y-142748000D01*
D42*
X103999500Y-136511500D02*
X104013000Y-136525000D01*
D44*
X104013000Y-136525000D02*
X104521000Y-136525000D01*
X103251000Y-136525000D02*
X102870000Y-136144000D01*
X104013000Y-136525000D02*
X103251000Y-136525000D01*
D42*
X102675000Y-112451000D02*
X102616000Y-112510000D01*
X104067000Y-112451000D02*
X102675000Y-112451000D01*
D41*
X103449000Y-134803000D02*
X102675000Y-134803000D01*
X102675000Y-134803000D02*
X102616000Y-134862000D01*
D42*
X104067000Y-134803000D02*
X103449000Y-134803000D01*
X108277000Y-113101000D02*
X108895000Y-113101000D01*
D41*
X110502000Y-112026000D02*
X109982000Y-112026000D01*
X111306000Y-112026000D02*
X110502000Y-112026000D01*
X111506000Y-111826000D02*
X111306000Y-112026000D01*
X111506000Y-111318000D02*
X110170000Y-109982000D01*
X111506000Y-111826000D02*
X111506000Y-111318000D01*
X109982000Y-110170000D02*
X110170000Y-109982000D01*
X109982000Y-110744000D02*
X109982000Y-110170000D01*
X109982000Y-111252000D02*
X109982000Y-110744000D01*
X109982000Y-112026000D02*
X109982000Y-111252000D01*
X110424000Y-110744000D02*
X111506000Y-111826000D01*
X109982000Y-110744000D02*
X110424000Y-110744000D01*
X111010000Y-112026000D02*
X111506000Y-111826000D01*
X110236000Y-111252000D02*
X111010000Y-112026000D01*
X109982000Y-111252000D02*
X110236000Y-111252000D01*
X109982000Y-111252000D02*
X109982000Y-111252000D01*
X109982000Y-111506000D02*
X110502000Y-112026000D01*
X109982000Y-111252000D02*
X109982000Y-111506000D01*
X110424000Y-110810000D02*
X109982000Y-111252000D01*
X110424000Y-110744000D02*
X110424000Y-110810000D01*
X109982000Y-112141000D02*
X109982000Y-112026000D01*
D43*
X109016800Y-113106200D02*
X108344500Y-113106200D01*
X109016800Y-113106200D02*
X109474000Y-112649000D01*
D41*
X109982000Y-112141000D02*
X109474000Y-112649000D01*
X109982000Y-133858000D02*
X110236000Y-133858000D01*
X110236000Y-133858000D02*
X110756000Y-134378000D01*
X109982000Y-133096000D02*
X110024000Y-133096000D01*
X110024000Y-133096000D02*
X111306000Y-134378000D01*
X111306000Y-134378000D02*
X111506000Y-134178000D01*
X109982000Y-133096000D02*
X109982000Y-133096000D01*
X109982000Y-133096000D02*
X110424000Y-133096000D01*
X110424000Y-133096000D02*
X111506000Y-134178000D01*
X110170000Y-132334000D02*
X109982000Y-132522000D01*
X109982000Y-132522000D02*
X109982000Y-133096000D01*
X109982000Y-133096000D02*
X109982000Y-133858000D01*
X109982000Y-133858000D02*
X109982000Y-134378000D01*
X111506000Y-134178000D02*
X111506000Y-133670000D01*
X111506000Y-133670000D02*
X110170000Y-132334000D01*
X109982000Y-134378000D02*
X110756000Y-134378000D01*
X110756000Y-134378000D02*
X111306000Y-134378000D01*
X111306000Y-134378000D02*
X111506000Y-134178000D01*
X109982000Y-134493000D02*
X109982000Y-134378000D01*
D43*
X109016800Y-135458200D02*
X108344500Y-135458200D01*
X109016800Y-135458200D02*
X109474000Y-135001000D01*
D41*
X109982000Y-134493000D02*
X109474000Y-135001000D01*
X116967000Y-147320000D02*
X116459000Y-146812000D01*
X116459000Y-146812000D02*
X115824000Y-146812000D01*
X115824000Y-146812000D02*
X116598000Y-147586000D01*
X116598000Y-147586000D02*
X116598000Y-148336000D01*
X116598000Y-148336000D02*
X116967000Y-147967000D01*
X116967000Y-147967000D02*
X116967000Y-147320000D01*
X116967000Y-147320000D02*
X116967000Y-146464000D01*
X114742000Y-146388000D02*
X114384000Y-146388000D01*
X112002000Y-145288000D02*
X111252000Y-146038000D01*
X113284000Y-145288000D02*
X112002000Y-145288000D01*
X114384000Y-146388000D02*
X113284000Y-145288000D01*
X115824000Y-146812000D02*
X115166000Y-146812000D01*
X115166000Y-146812000D02*
X114742000Y-146388000D01*
X115824000Y-146812000D02*
X116619000Y-146812000D01*
X116619000Y-146812000D02*
X116967000Y-146464000D01*
X114742000Y-146388000D02*
X116891000Y-146388000D01*
X116891000Y-146388000D02*
X116967000Y-146464000D01*
D44*
X138327000Y-140224000D02*
X138303000Y-140248000D01*
X142748000Y-140224000D02*
X138327000Y-140224000D01*
X118098000Y-148336000D02*
X118618000Y-148336000D01*
X118618000Y-148336000D02*
X118872000Y-148082000D01*
X125857000Y-146464000D02*
X125857000Y-148463000D01*
X118860000Y-149098000D02*
X118098000Y-148336000D01*
X125222000Y-149098000D02*
X118860000Y-149098000D01*
X125857000Y-148463000D02*
X125222000Y-149098000D01*
D41*
X111252000Y-144538000D02*
X111602000Y-144188000D01*
X111602000Y-144188000D02*
X112842000Y-144188000D01*
X139573000Y-143891000D02*
X139573000Y-145248000D01*
X138430000Y-142748000D02*
X139573000Y-143891000D01*
X132080000Y-142748000D02*
X138430000Y-142748000D01*
X130683000Y-141351000D02*
X132080000Y-142748000D01*
X130683000Y-140248000D02*
X130683000Y-141351000D01*
X125857000Y-147193000D02*
X125857000Y-146464000D01*
D45*
X139573000Y-147447000D02*
X139192000Y-147828000D01*
X139573000Y-147447000D02*
X139573000Y-145248000D01*
D41*
X125857000Y-147193000D02*
X126492000Y-147828000D01*
X111602000Y-144188000D02*
X111252000Y-144538000D01*
X112026000Y-143764000D02*
X111602000Y-144188000D01*
X112268000Y-143764000D02*
X112026000Y-143764000D01*
X112418000Y-143764000D02*
X112842000Y-144188000D01*
X112268000Y-143764000D02*
X112418000Y-143764000D01*
D44*
X139724000Y-145248000D02*
X142748000Y-142224000D01*
X139573000Y-145248000D02*
X139724000Y-145248000D01*
D41*
X113792000Y-144188000D02*
X113792000Y-144780000D01*
X117602000Y-144780000D02*
X118237000Y-145415000D01*
X116332000Y-144780000D02*
X117602000Y-144780000D01*
X115824000Y-145288000D02*
X116332000Y-144780000D01*
X114300000Y-145288000D02*
X115824000Y-145288000D01*
X113792000Y-144780000D02*
X114300000Y-145288000D01*
X118237000Y-146464000D02*
X118237000Y-145415000D01*
X118237000Y-144399000D02*
X119126000Y-143510000D01*
X119126000Y-143510000D02*
X130215000Y-143510000D01*
X130215000Y-143510000D02*
X131953000Y-145248000D01*
X118237000Y-145415000D02*
X118237000Y-144399000D01*
X119507000Y-146464000D02*
X119507000Y-144653000D01*
X133096000Y-140208000D02*
X133136000Y-140248000D01*
X119507000Y-144653000D02*
X119380000Y-144780000D01*
X133136000Y-140248000D02*
X133223000Y-140248000D01*
X134493000Y-147447000D02*
X134493000Y-145248000D01*
X134112000Y-147828000D02*
X134493000Y-147447000D01*
X130556000Y-147828000D02*
X134112000Y-147828000D01*
X120777000Y-146464000D02*
X120777000Y-145415000D01*
X121920000Y-144272000D02*
X127000000Y-144272000D01*
X120777000Y-145415000D02*
X121920000Y-144272000D01*
X130556000Y-147828000D02*
X127000000Y-144272000D01*
X123317000Y-146464000D02*
X123317000Y-147701000D01*
X123317000Y-147701000D02*
X123190000Y-147828000D01*
X123317000Y-146464000D02*
X123317000Y-145923000D01*
X135636000Y-140208000D02*
X135676000Y-140248000D01*
X135676000Y-140248000D02*
X135763000Y-140248000D01*
X122047000Y-146464000D02*
X122047000Y-145669000D01*
X126238000Y-145034000D02*
X130048000Y-148844000D01*
X122682000Y-145034000D02*
X126238000Y-145034000D01*
X122047000Y-145669000D02*
X122682000Y-145034000D01*
X137033000Y-145248000D02*
X137033000Y-147320000D01*
X135636000Y-148844000D02*
X130048000Y-148844000D01*
X137033000Y-147447000D02*
X135636000Y-148844000D01*
X137033000Y-147320000D02*
X137033000Y-147447000D01*
D43*
X103999500Y-122974100D02*
X103999500Y-122695500D01*
X103999500Y-122695500D02*
X104013000Y-122682000D01*
X103952000Y-121158000D02*
X104267000Y-121158000D01*
X104267000Y-121158000D02*
X104902000Y-120523000D01*
X103999500Y-117386100D02*
X104686100Y-117386100D01*
X104902000Y-117602000D02*
X104902000Y-120523000D01*
X104686100Y-117386100D02*
X104902000Y-117602000D01*
X104267000Y-116840000D02*
X104099000Y-117389000D01*
X104099000Y-117389000D02*
X104067000Y-117389000D01*
D41*
X103952000Y-115570000D02*
X103952000Y-116906000D01*
D42*
X103952000Y-117274000D02*
X104067000Y-117389000D01*
X103952000Y-116906000D02*
X103952000Y-117274000D01*
D43*
X103886000Y-111506000D02*
X104067000Y-111687000D01*
X104067000Y-111687000D02*
X104067000Y-111801000D01*
D41*
X103952000Y-111440000D02*
X103886000Y-111506000D01*
X103952000Y-109982000D02*
X103952000Y-111440000D01*
D43*
X119704000Y-137022000D02*
X119704000Y-136328000D01*
X129830000Y-127980000D02*
X129830000Y-126905000D01*
X129032000Y-128778000D02*
X129830000Y-127980000D01*
X128524000Y-128778000D02*
X129032000Y-128778000D01*
X122174000Y-135128000D02*
X128524000Y-128778000D01*
X120904000Y-135128000D02*
X122174000Y-135128000D01*
X119704000Y-136328000D02*
X120904000Y-135128000D01*
X120504000Y-137022000D02*
X120504000Y-136544000D01*
X130330000Y-128107914D02*
X130330000Y-126905000D01*
X129151914Y-129286000D02*
X130330000Y-128107914D01*
X128643914Y-129286000D02*
X129151914Y-129286000D01*
X122293914Y-135636000D02*
X128643914Y-129286000D01*
X121412000Y-135636000D02*
X122293914Y-135636000D01*
X120504000Y-136544000D02*
X121412000Y-135636000D01*
X130830000Y-126905000D02*
X130830000Y-128250000D01*
X121304000Y-136506000D02*
X121666000Y-136144000D01*
X121666000Y-136144000D02*
X122428000Y-136144000D01*
X121304000Y-136506000D02*
X121304000Y-137022000D01*
X128785086Y-129786914D02*
X122428000Y-136144000D01*
X129293086Y-129786914D02*
X128785086Y-129786914D01*
X130830000Y-128250000D02*
X129293086Y-129786914D01*
X124714000Y-135448000D02*
X124714000Y-135128000D01*
X124714000Y-135128000D02*
X131330000Y-128512000D01*
X131330000Y-128512000D02*
X131330000Y-126905000D01*
X131830000Y-126905000D02*
X131830000Y-130044000D01*
X122820000Y-137022000D02*
X122104000Y-137022000D01*
X123444000Y-136398000D02*
X122820000Y-137022000D01*
X125476000Y-136398000D02*
X123444000Y-136398000D01*
X131830000Y-130044000D02*
X125476000Y-136398000D01*
D41*
X124714000Y-137348000D02*
X124272000Y-137348000D01*
X124272000Y-137348000D02*
X123317000Y-138303000D01*
X123317000Y-138303000D02*
X123317000Y-141064000D01*
X119704000Y-138822000D02*
X118237000Y-140289000D01*
X118237000Y-140289000D02*
X118237000Y-141064000D01*
X120777000Y-141064000D02*
X120777000Y-140335000D01*
X120777000Y-140335000D02*
X121304000Y-139808000D01*
X121304000Y-139808000D02*
X121304000Y-138822000D01*
X120504000Y-138822000D02*
X120504000Y-139338000D01*
X120504000Y-139338000D02*
X119507000Y-140335000D01*
X119507000Y-140335000D02*
X119507000Y-141064000D01*
X122104000Y-138822000D02*
X122104000Y-141007000D01*
X122104000Y-141007000D02*
X122047000Y-141064000D01*
D43*
G36*
X102489000Y-143475446D02*
X102489000Y-144526000D01*
X102499006Y-144575410D01*
X102527447Y-144617035D01*
X102553342Y-144633698D01*
X102431042Y-144928974D01*
X102552183Y-145161000D01*
X103759000Y-145161000D01*
X103759000Y-145141000D01*
X104013000Y-145141000D01*
X104013000Y-145161000D01*
X106299000Y-145161000D01*
X106299000Y-145141000D01*
X106553000Y-145141000D01*
X106553000Y-145161000D01*
X107759817Y-145161000D01*
X107880958Y-144928974D01*
X107766653Y-144653000D01*
X108204000Y-144653000D01*
X108253410Y-144642994D01*
X108295035Y-144614553D01*
X108322315Y-144572159D01*
X108331000Y-144526000D01*
X108331000Y-142875000D01*
X109855000Y-142875000D01*
X109855000Y-149175000D01*
X107085010Y-149175000D01*
X107515029Y-148887670D01*
X107839885Y-148401489D01*
X107953959Y-147828000D01*
X107839885Y-147254511D01*
X107515029Y-146768330D01*
X107191772Y-146552336D01*
X107314490Y-146494821D01*
X107708688Y-146062947D01*
X107880958Y-145647026D01*
X107759817Y-145415000D01*
X106553000Y-145415000D01*
X106553000Y-145435000D01*
X106299000Y-145435000D01*
X106299000Y-145415000D01*
X104013000Y-145415000D01*
X104013000Y-145435000D01*
X103759000Y-145435000D01*
X103759000Y-145415000D01*
X102552183Y-145415000D01*
X102431042Y-145647026D01*
X102603312Y-146062947D01*
X102997510Y-146494821D01*
X103120228Y-146552336D01*
X102796971Y-146768330D01*
X102472115Y-147254511D01*
X102358041Y-147828000D01*
X102472115Y-148401489D01*
X102796971Y-148887670D01*
X103226990Y-149175000D01*
X100761000Y-149175000D01*
X100761000Y-141747446D01*
X102489000Y-143475446D01*
X102489000Y-143475446D01*
G37*
X102489000Y-143475446D02*
X102489000Y-144526000D01*
X102499006Y-144575410D01*
X102527447Y-144617035D01*
X102553342Y-144633698D01*
X102431042Y-144928974D01*
X102552183Y-145161000D01*
X103759000Y-145161000D01*
X103759000Y-145141000D01*
X104013000Y-145141000D01*
X104013000Y-145161000D01*
X106299000Y-145161000D01*
X106299000Y-145141000D01*
X106553000Y-145141000D01*
X106553000Y-145161000D01*
X107759817Y-145161000D01*
X107880958Y-144928974D01*
X107766653Y-144653000D01*
X108204000Y-144653000D01*
X108253410Y-144642994D01*
X108295035Y-144614553D01*
X108322315Y-144572159D01*
X108331000Y-144526000D01*
X108331000Y-142875000D01*
X109855000Y-142875000D01*
X109855000Y-149175000D01*
X107085010Y-149175000D01*
X107515029Y-148887670D01*
X107839885Y-148401489D01*
X107953959Y-147828000D01*
X107839885Y-147254511D01*
X107515029Y-146768330D01*
X107191772Y-146552336D01*
X107314490Y-146494821D01*
X107708688Y-146062947D01*
X107880958Y-145647026D01*
X107759817Y-145415000D01*
X106553000Y-145415000D01*
X106553000Y-145435000D01*
X106299000Y-145435000D01*
X106299000Y-145415000D01*
X104013000Y-145415000D01*
X104013000Y-145435000D01*
X103759000Y-145435000D01*
X103759000Y-145415000D01*
X102552183Y-145415000D01*
X102431042Y-145647026D01*
X102603312Y-146062947D01*
X102997510Y-146494821D01*
X103120228Y-146552336D01*
X102796971Y-146768330D01*
X102472115Y-147254511D01*
X102358041Y-147828000D01*
X102472115Y-148401489D01*
X102796971Y-148887670D01*
X103226990Y-149175000D01*
X100761000Y-149175000D01*
X100761000Y-141747446D01*
X102489000Y-143475446D01*
G36*
X149175000Y-143637000D02*
X146365431Y-143637000D01*
X146304000Y-143624560D01*
X144399000Y-143624560D01*
X144399000Y-138938000D01*
X144388994Y-138888590D01*
X144361803Y-138848197D01*
X140081000Y-134567394D01*
X140081000Y-133757185D01*
X142099682Y-133757185D01*
X142113827Y-133828684D01*
X142372855Y-134305540D01*
X142794651Y-134646972D01*
X143315000Y-134801000D01*
X143815000Y-134801000D01*
X143815000Y-133543000D01*
X144069000Y-133543000D01*
X144069000Y-134801000D01*
X144569000Y-134801000D01*
X145089349Y-134646972D01*
X145511145Y-134305540D01*
X145770173Y-133828684D01*
X145784318Y-133757185D01*
X145661656Y-133543000D01*
X144069000Y-133543000D01*
X143815000Y-133543000D01*
X142222344Y-133543000D01*
X142099682Y-133757185D01*
X140081000Y-133757185D01*
X140081000Y-130008427D01*
X140249458Y-130260542D01*
X142451619Y-132462703D01*
X142372855Y-132526460D01*
X142113827Y-133003316D01*
X142099682Y-133074815D01*
X142222344Y-133289000D01*
X143815000Y-133289000D01*
X143815000Y-133269000D01*
X144069000Y-133269000D01*
X144069000Y-133289000D01*
X145661656Y-133289000D01*
X145784318Y-133074815D01*
X145770173Y-133003316D01*
X145671139Y-132821000D01*
X145798361Y-132821000D01*
X146077244Y-132936803D01*
X146528775Y-132937197D01*
X146946086Y-132764767D01*
X147265645Y-132445765D01*
X147438803Y-132028756D01*
X147439197Y-131577225D01*
X147266767Y-131159914D01*
X146947765Y-130840355D01*
X146530756Y-130667197D01*
X146079225Y-130666803D01*
X145798008Y-130783000D01*
X143654084Y-130783000D01*
X142532976Y-129661892D01*
X142590000Y-129673440D01*
X143390000Y-129673440D01*
X143625317Y-129629162D01*
X143841441Y-129490090D01*
X143986431Y-129277890D01*
X144037440Y-129026000D01*
X144037440Y-128276000D01*
X143993162Y-128040683D01*
X143936444Y-127952540D01*
X144104784Y-127952687D01*
X144379323Y-127839250D01*
X144479110Y-127907431D01*
X144731000Y-127958440D01*
X146181000Y-127958440D01*
X146416317Y-127914162D01*
X146632441Y-127775090D01*
X146777431Y-127562890D01*
X146788547Y-127508000D01*
X147320000Y-127508000D01*
X147660206Y-127440329D01*
X147948618Y-127247618D01*
X148224601Y-126971635D01*
X148519407Y-126912994D01*
X148890223Y-126665223D01*
X149137994Y-126294407D01*
X149175000Y-126108366D01*
X149175000Y-143637000D01*
X149175000Y-143637000D01*
G37*
X149175000Y-143637000D02*
X146365431Y-143637000D01*
X146304000Y-143624560D01*
X144399000Y-143624560D01*
X144399000Y-138938000D01*
X144388994Y-138888590D01*
X144361803Y-138848197D01*
X140081000Y-134567394D01*
X140081000Y-133757185D01*
X142099682Y-133757185D01*
X142113827Y-133828684D01*
X142372855Y-134305540D01*
X142794651Y-134646972D01*
X143315000Y-134801000D01*
X143815000Y-134801000D01*
X143815000Y-133543000D01*
X144069000Y-133543000D01*
X144069000Y-134801000D01*
X144569000Y-134801000D01*
X145089349Y-134646972D01*
X145511145Y-134305540D01*
X145770173Y-133828684D01*
X145784318Y-133757185D01*
X145661656Y-133543000D01*
X144069000Y-133543000D01*
X143815000Y-133543000D01*
X142222344Y-133543000D01*
X142099682Y-133757185D01*
X140081000Y-133757185D01*
X140081000Y-130008427D01*
X140249458Y-130260542D01*
X142451619Y-132462703D01*
X142372855Y-132526460D01*
X142113827Y-133003316D01*
X142099682Y-133074815D01*
X142222344Y-133289000D01*
X143815000Y-133289000D01*
X143815000Y-133269000D01*
X144069000Y-133269000D01*
X144069000Y-133289000D01*
X145661656Y-133289000D01*
X145784318Y-133074815D01*
X145770173Y-133003316D01*
X145671139Y-132821000D01*
X145798361Y-132821000D01*
X146077244Y-132936803D01*
X146528775Y-132937197D01*
X146946086Y-132764767D01*
X147265645Y-132445765D01*
X147438803Y-132028756D01*
X147439197Y-131577225D01*
X147266767Y-131159914D01*
X146947765Y-130840355D01*
X146530756Y-130667197D01*
X146079225Y-130666803D01*
X145798008Y-130783000D01*
X143654084Y-130783000D01*
X142532976Y-129661892D01*
X142590000Y-129673440D01*
X143390000Y-129673440D01*
X143625317Y-129629162D01*
X143841441Y-129490090D01*
X143986431Y-129277890D01*
X144037440Y-129026000D01*
X144037440Y-128276000D01*
X143993162Y-128040683D01*
X143936444Y-127952540D01*
X144104784Y-127952687D01*
X144379323Y-127839250D01*
X144479110Y-127907431D01*
X144731000Y-127958440D01*
X146181000Y-127958440D01*
X146416317Y-127914162D01*
X146632441Y-127775090D01*
X146777431Y-127562890D01*
X146788547Y-127508000D01*
X147320000Y-127508000D01*
X147660206Y-127440329D01*
X147948618Y-127247618D01*
X148224601Y-126971635D01*
X148519407Y-126912994D01*
X148890223Y-126665223D01*
X149137994Y-126294407D01*
X149175000Y-126108366D01*
X149175000Y-143637000D01*
G36*
X121418382Y-129660618D02*
X121706794Y-129853329D01*
X122047000Y-129921000D01*
X122959963Y-129921000D01*
X122943560Y-130002000D01*
X122943560Y-130602000D01*
X122987838Y-130837317D01*
X123126910Y-131053441D01*
X123339110Y-131198431D01*
X123591000Y-131249440D01*
X124856954Y-131249440D01*
X123405758Y-132700636D01*
X123311145Y-132526460D01*
X122889349Y-132185028D01*
X122369000Y-132031000D01*
X121869000Y-132031000D01*
X121869000Y-133289000D01*
X121889000Y-133289000D01*
X121889000Y-133543000D01*
X121869000Y-133543000D01*
X121869000Y-133563000D01*
X121615000Y-133563000D01*
X121615000Y-133543000D01*
X120022344Y-133543000D01*
X119899682Y-133757185D01*
X119913827Y-133828684D01*
X120172855Y-134305540D01*
X120370702Y-134465692D01*
X118782197Y-136054197D01*
X118754334Y-136096211D01*
X118745000Y-136144000D01*
X118745000Y-137033000D01*
X112381549Y-137033000D01*
X112391317Y-137031162D01*
X112607441Y-136892090D01*
X112752431Y-136679890D01*
X112803440Y-136428000D01*
X112803440Y-135728000D01*
X112759162Y-135492683D01*
X112620090Y-135276559D01*
X112407890Y-135131569D01*
X112394803Y-135128919D01*
X112607441Y-134992090D01*
X112752431Y-134779890D01*
X112803440Y-134528000D01*
X112803440Y-133828000D01*
X112759162Y-133592683D01*
X112620090Y-133376559D01*
X112407890Y-133231569D01*
X112238820Y-133197332D01*
X112156958Y-133074815D01*
X119899682Y-133074815D01*
X120022344Y-133289000D01*
X121615000Y-133289000D01*
X121615000Y-132031000D01*
X121115000Y-132031000D01*
X120594651Y-132185028D01*
X120172855Y-132526460D01*
X119913827Y-133003316D01*
X119899682Y-133074815D01*
X112156958Y-133074815D01*
X112134618Y-133041382D01*
X111167440Y-132074204D01*
X111167440Y-131684000D01*
X111144306Y-131561054D01*
X111506000Y-131633000D01*
X114620000Y-131633000D01*
X115057407Y-131545994D01*
X115428223Y-131298223D01*
X116551446Y-130175000D01*
X117543560Y-130175000D01*
X117543560Y-130602000D01*
X117587838Y-130837317D01*
X117726910Y-131053441D01*
X117939110Y-131198431D01*
X118191000Y-131249440D01*
X119741000Y-131249440D01*
X119976317Y-131205162D01*
X120192441Y-131066090D01*
X120337431Y-130853890D01*
X120388440Y-130602000D01*
X120388440Y-130053294D01*
X120530086Y-129994767D01*
X120661978Y-129863104D01*
X120696223Y-129840223D01*
X120718905Y-129806277D01*
X120849645Y-129675765D01*
X120921114Y-129503650D01*
X120943994Y-129469407D01*
X120951958Y-129429369D01*
X121020960Y-129263196D01*
X121418382Y-129660618D01*
X121418382Y-129660618D01*
G37*
X121418382Y-129660618D02*
X121706794Y-129853329D01*
X122047000Y-129921000D01*
X122959963Y-129921000D01*
X122943560Y-130002000D01*
X122943560Y-130602000D01*
X122987838Y-130837317D01*
X123126910Y-131053441D01*
X123339110Y-131198431D01*
X123591000Y-131249440D01*
X124856954Y-131249440D01*
X123405758Y-132700636D01*
X123311145Y-132526460D01*
X122889349Y-132185028D01*
X122369000Y-132031000D01*
X121869000Y-132031000D01*
X121869000Y-133289000D01*
X121889000Y-133289000D01*
X121889000Y-133543000D01*
X121869000Y-133543000D01*
X121869000Y-133563000D01*
X121615000Y-133563000D01*
X121615000Y-133543000D01*
X120022344Y-133543000D01*
X119899682Y-133757185D01*
X119913827Y-133828684D01*
X120172855Y-134305540D01*
X120370702Y-134465692D01*
X118782197Y-136054197D01*
X118754334Y-136096211D01*
X118745000Y-136144000D01*
X118745000Y-137033000D01*
X112381549Y-137033000D01*
X112391317Y-137031162D01*
X112607441Y-136892090D01*
X112752431Y-136679890D01*
X112803440Y-136428000D01*
X112803440Y-135728000D01*
X112759162Y-135492683D01*
X112620090Y-135276559D01*
X112407890Y-135131569D01*
X112394803Y-135128919D01*
X112607441Y-134992090D01*
X112752431Y-134779890D01*
X112803440Y-134528000D01*
X112803440Y-133828000D01*
X112759162Y-133592683D01*
X112620090Y-133376559D01*
X112407890Y-133231569D01*
X112238820Y-133197332D01*
X112156958Y-133074815D01*
X119899682Y-133074815D01*
X120022344Y-133289000D01*
X121615000Y-133289000D01*
X121615000Y-132031000D01*
X121115000Y-132031000D01*
X120594651Y-132185028D01*
X120172855Y-132526460D01*
X119913827Y-133003316D01*
X119899682Y-133074815D01*
X112156958Y-133074815D01*
X112134618Y-133041382D01*
X111167440Y-132074204D01*
X111167440Y-131684000D01*
X111144306Y-131561054D01*
X111506000Y-131633000D01*
X114620000Y-131633000D01*
X115057407Y-131545994D01*
X115428223Y-131298223D01*
X116551446Y-130175000D01*
X117543560Y-130175000D01*
X117543560Y-130602000D01*
X117587838Y-130837317D01*
X117726910Y-131053441D01*
X117939110Y-131198431D01*
X118191000Y-131249440D01*
X119741000Y-131249440D01*
X119976317Y-131205162D01*
X120192441Y-131066090D01*
X120337431Y-130853890D01*
X120388440Y-130602000D01*
X120388440Y-130053294D01*
X120530086Y-129994767D01*
X120661978Y-129863104D01*
X120696223Y-129840223D01*
X120718905Y-129806277D01*
X120849645Y-129675765D01*
X120921114Y-129503650D01*
X120943994Y-129469407D01*
X120951958Y-129429369D01*
X121020960Y-129263196D01*
X121418382Y-129660618D01*
G36*
X106299000Y-123825000D02*
X106319000Y-123825000D01*
X106319000Y-124079000D01*
X106299000Y-124079000D01*
X106299000Y-125368250D01*
X106457750Y-125527000D01*
X107138310Y-125527000D01*
X107233114Y-125487731D01*
X107295410Y-125584541D01*
X107436815Y-125681159D01*
X107381673Y-125736301D01*
X107285000Y-125969690D01*
X107285000Y-126460250D01*
X107443750Y-126619000D01*
X108143000Y-126619000D01*
X108143000Y-126599000D01*
X108397000Y-126599000D01*
X108397000Y-126619000D01*
X108417000Y-126619000D01*
X108417000Y-126873000D01*
X108397000Y-126873000D01*
X108397000Y-127872250D01*
X108471500Y-127946750D01*
X108471500Y-128359160D01*
X108217500Y-128359160D01*
X108217500Y-127882650D01*
X108143000Y-127808150D01*
X108143000Y-126873000D01*
X107443750Y-126873000D01*
X107285000Y-127031750D01*
X107285000Y-127522310D01*
X107381673Y-127755699D01*
X107432856Y-127806881D01*
X107399801Y-127820573D01*
X107221173Y-127999202D01*
X107221130Y-127999305D01*
X107138310Y-127965000D01*
X106457750Y-127965000D01*
X106299000Y-128123750D01*
X106299000Y-129413000D01*
X106319000Y-129413000D01*
X106319000Y-129667000D01*
X106299000Y-129667000D01*
X106299000Y-130956250D01*
X106457750Y-131115000D01*
X107138310Y-131115000D01*
X107233114Y-131075731D01*
X107295410Y-131172541D01*
X107436815Y-131269159D01*
X107381673Y-131324301D01*
X107285000Y-131557690D01*
X107285000Y-132048250D01*
X107443750Y-132207000D01*
X108143000Y-132207000D01*
X108143000Y-132187000D01*
X108397000Y-132187000D01*
X108397000Y-132207000D01*
X108417000Y-132207000D01*
X108417000Y-132461000D01*
X108397000Y-132461000D01*
X108397000Y-133460250D01*
X108471500Y-133534750D01*
X108471500Y-133947160D01*
X108217500Y-133947160D01*
X108217500Y-133470650D01*
X108143000Y-133396150D01*
X108143000Y-132461000D01*
X107443750Y-132461000D01*
X107285000Y-132619750D01*
X107285000Y-133110310D01*
X107381673Y-133343699D01*
X107432856Y-133394881D01*
X107399801Y-133408573D01*
X107221173Y-133587202D01*
X107221130Y-133587305D01*
X107138310Y-133553000D01*
X106457750Y-133553000D01*
X106299000Y-133711750D01*
X106299000Y-135001000D01*
X106319000Y-135001000D01*
X106319000Y-135255000D01*
X106299000Y-135255000D01*
X106299000Y-135275000D01*
X106045000Y-135275000D01*
X106045000Y-135255000D01*
X106025000Y-135255000D01*
X106025000Y-135001000D01*
X106045000Y-135001000D01*
X106045000Y-133711750D01*
X105886250Y-133553000D01*
X105205690Y-133553000D01*
X105162821Y-133570757D01*
X104980605Y-133449004D01*
X104980599Y-133449003D01*
X104836390Y-133350469D01*
X104584500Y-133299460D01*
X103626000Y-133299460D01*
X103626000Y-133234998D01*
X103467252Y-133234998D01*
X103626000Y-133076250D01*
X103626000Y-132835691D01*
X103529327Y-132602302D01*
X103350699Y-132423673D01*
X103117310Y-132327000D01*
X102901750Y-132327000D01*
X102743000Y-132485750D01*
X102743000Y-133235000D01*
X102763000Y-133235000D01*
X102763000Y-133489000D01*
X102743000Y-133489000D01*
X102743000Y-133509000D01*
X102489000Y-133509000D01*
X102489000Y-131626755D01*
X102643244Y-131690803D01*
X103094775Y-131691197D01*
X103512086Y-131518767D01*
X103662575Y-131368540D01*
X104584500Y-131368540D01*
X104819817Y-131324262D01*
X105035941Y-131185190D01*
X105039925Y-131179360D01*
X105162821Y-131097243D01*
X105205690Y-131115000D01*
X105886250Y-131115000D01*
X106045000Y-130956250D01*
X106045000Y-129667000D01*
X106025000Y-129667000D01*
X106025000Y-129413000D01*
X106045000Y-129413000D01*
X106045000Y-128123750D01*
X105886250Y-127965000D01*
X105205690Y-127965000D01*
X105162821Y-127982757D01*
X105152717Y-127976006D01*
X104980605Y-127861004D01*
X104980599Y-127861003D01*
X104836390Y-127762469D01*
X104584500Y-127711460D01*
X103626000Y-127711460D01*
X103626000Y-127646998D01*
X103467252Y-127646998D01*
X103626000Y-127488250D01*
X103626000Y-127247691D01*
X103529327Y-127014302D01*
X103350699Y-126835673D01*
X103117310Y-126739000D01*
X102901750Y-126739000D01*
X102743000Y-126897750D01*
X102743000Y-127647000D01*
X102763000Y-127647000D01*
X102763000Y-127901000D01*
X102743000Y-127901000D01*
X102743000Y-127921000D01*
X102489000Y-127921000D01*
X102489000Y-126038755D01*
X102643244Y-126102803D01*
X103094775Y-126103197D01*
X103512086Y-125930767D01*
X103662575Y-125780540D01*
X104584500Y-125780540D01*
X104819817Y-125736262D01*
X105035941Y-125597190D01*
X105110765Y-125487681D01*
X105205690Y-125527000D01*
X105886250Y-125527000D01*
X106045000Y-125368250D01*
X106045000Y-124079000D01*
X106025000Y-124079000D01*
X106025000Y-123825000D01*
X106045000Y-123825000D01*
X106045000Y-123805000D01*
X106299000Y-123805000D01*
X106299000Y-123825000D01*
X106299000Y-123825000D01*
G37*
X106299000Y-123825000D02*
X106319000Y-123825000D01*
X106319000Y-124079000D01*
X106299000Y-124079000D01*
X106299000Y-125368250D01*
X106457750Y-125527000D01*
X107138310Y-125527000D01*
X107233114Y-125487731D01*
X107295410Y-125584541D01*
X107436815Y-125681159D01*
X107381673Y-125736301D01*
X107285000Y-125969690D01*
X107285000Y-126460250D01*
X107443750Y-126619000D01*
X108143000Y-126619000D01*
X108143000Y-126599000D01*
X108397000Y-126599000D01*
X108397000Y-126619000D01*
X108417000Y-126619000D01*
X108417000Y-126873000D01*
X108397000Y-126873000D01*
X108397000Y-127872250D01*
X108471500Y-127946750D01*
X108471500Y-128359160D01*
X108217500Y-128359160D01*
X108217500Y-127882650D01*
X108143000Y-127808150D01*
X108143000Y-126873000D01*
X107443750Y-126873000D01*
X107285000Y-127031750D01*
X107285000Y-127522310D01*
X107381673Y-127755699D01*
X107432856Y-127806881D01*
X107399801Y-127820573D01*
X107221173Y-127999202D01*
X107221130Y-127999305D01*
X107138310Y-127965000D01*
X106457750Y-127965000D01*
X106299000Y-128123750D01*
X106299000Y-129413000D01*
X106319000Y-129413000D01*
X106319000Y-129667000D01*
X106299000Y-129667000D01*
X106299000Y-130956250D01*
X106457750Y-131115000D01*
X107138310Y-131115000D01*
X107233114Y-131075731D01*
X107295410Y-131172541D01*
X107436815Y-131269159D01*
X107381673Y-131324301D01*
X107285000Y-131557690D01*
X107285000Y-132048250D01*
X107443750Y-132207000D01*
X108143000Y-132207000D01*
X108143000Y-132187000D01*
X108397000Y-132187000D01*
X108397000Y-132207000D01*
X108417000Y-132207000D01*
X108417000Y-132461000D01*
X108397000Y-132461000D01*
X108397000Y-133460250D01*
X108471500Y-133534750D01*
X108471500Y-133947160D01*
X108217500Y-133947160D01*
X108217500Y-133470650D01*
X108143000Y-133396150D01*
X108143000Y-132461000D01*
X107443750Y-132461000D01*
X107285000Y-132619750D01*
X107285000Y-133110310D01*
X107381673Y-133343699D01*
X107432856Y-133394881D01*
X107399801Y-133408573D01*
X107221173Y-133587202D01*
X107221130Y-133587305D01*
X107138310Y-133553000D01*
X106457750Y-133553000D01*
X106299000Y-133711750D01*
X106299000Y-135001000D01*
X106319000Y-135001000D01*
X106319000Y-135255000D01*
X106299000Y-135255000D01*
X106299000Y-135275000D01*
X106045000Y-135275000D01*
X106045000Y-135255000D01*
X106025000Y-135255000D01*
X106025000Y-135001000D01*
X106045000Y-135001000D01*
X106045000Y-133711750D01*
X105886250Y-133553000D01*
X105205690Y-133553000D01*
X105162821Y-133570757D01*
X104980605Y-133449004D01*
X104980599Y-133449003D01*
X104836390Y-133350469D01*
X104584500Y-133299460D01*
X103626000Y-133299460D01*
X103626000Y-133234998D01*
X103467252Y-133234998D01*
X103626000Y-133076250D01*
X103626000Y-132835691D01*
X103529327Y-132602302D01*
X103350699Y-132423673D01*
X103117310Y-132327000D01*
X102901750Y-132327000D01*
X102743000Y-132485750D01*
X102743000Y-133235000D01*
X102763000Y-133235000D01*
X102763000Y-133489000D01*
X102743000Y-133489000D01*
X102743000Y-133509000D01*
X102489000Y-133509000D01*
X102489000Y-131626755D01*
X102643244Y-131690803D01*
X103094775Y-131691197D01*
X103512086Y-131518767D01*
X103662575Y-131368540D01*
X104584500Y-131368540D01*
X104819817Y-131324262D01*
X105035941Y-131185190D01*
X105039925Y-131179360D01*
X105162821Y-131097243D01*
X105205690Y-131115000D01*
X105886250Y-131115000D01*
X106045000Y-130956250D01*
X106045000Y-129667000D01*
X106025000Y-129667000D01*
X106025000Y-129413000D01*
X106045000Y-129413000D01*
X106045000Y-128123750D01*
X105886250Y-127965000D01*
X105205690Y-127965000D01*
X105162821Y-127982757D01*
X105152717Y-127976006D01*
X104980605Y-127861004D01*
X104980599Y-127861003D01*
X104836390Y-127762469D01*
X104584500Y-127711460D01*
X103626000Y-127711460D01*
X103626000Y-127646998D01*
X103467252Y-127646998D01*
X103626000Y-127488250D01*
X103626000Y-127247691D01*
X103529327Y-127014302D01*
X103350699Y-126835673D01*
X103117310Y-126739000D01*
X102901750Y-126739000D01*
X102743000Y-126897750D01*
X102743000Y-127647000D01*
X102763000Y-127647000D01*
X102763000Y-127901000D01*
X102743000Y-127901000D01*
X102743000Y-127921000D01*
X102489000Y-127921000D01*
X102489000Y-126038755D01*
X102643244Y-126102803D01*
X103094775Y-126103197D01*
X103512086Y-125930767D01*
X103662575Y-125780540D01*
X104584500Y-125780540D01*
X104819817Y-125736262D01*
X105035941Y-125597190D01*
X105110765Y-125487681D01*
X105205690Y-125527000D01*
X105886250Y-125527000D01*
X106045000Y-125368250D01*
X106045000Y-124079000D01*
X106025000Y-124079000D01*
X106025000Y-123825000D01*
X106045000Y-123825000D01*
X106045000Y-123805000D01*
X106299000Y-123805000D01*
X106299000Y-123825000D01*
G36*
X113284000Y-110836446D02*
X113284000Y-120777000D01*
X113371006Y-121214407D01*
X113618777Y-121585223D01*
X116097777Y-124064223D01*
X116468593Y-124311994D01*
X116906000Y-124399000D01*
X117350551Y-124399000D01*
X117343214Y-124409738D01*
X117291593Y-124420006D01*
X116920777Y-124667777D01*
X116603277Y-124985277D01*
X116355506Y-125356093D01*
X116300822Y-125631007D01*
X116031777Y-125810777D01*
X115784006Y-126181593D01*
X115697000Y-126619000D01*
X115784006Y-127056407D01*
X116031777Y-127427223D01*
X116493554Y-127889000D01*
X116078000Y-127889000D01*
X115640593Y-127976006D01*
X115269777Y-128223777D01*
X114146554Y-129347000D01*
X112646449Y-129347000D01*
X112752431Y-129191890D01*
X112803440Y-128940000D01*
X112803440Y-128240000D01*
X112759162Y-128004683D01*
X112620090Y-127788559D01*
X112407890Y-127643569D01*
X112238820Y-127609332D01*
X112134618Y-127453382D01*
X111167440Y-126486204D01*
X111167440Y-126096000D01*
X111130455Y-125899440D01*
X112156000Y-125899440D01*
X112391317Y-125855162D01*
X112607441Y-125716090D01*
X112752431Y-125503890D01*
X112803440Y-125252000D01*
X112803440Y-124552000D01*
X112759162Y-124316683D01*
X112620090Y-124100559D01*
X112407890Y-123955569D01*
X112394803Y-123952919D01*
X112607441Y-123816090D01*
X112752431Y-123603890D01*
X112803440Y-123352000D01*
X112803440Y-122652000D01*
X112759162Y-122416683D01*
X112620090Y-122200559D01*
X112407890Y-122055569D01*
X112238820Y-122021332D01*
X112134618Y-121865382D01*
X111167440Y-120898204D01*
X111167440Y-120508000D01*
X111130455Y-120311440D01*
X112156000Y-120311440D01*
X112391317Y-120267162D01*
X112607441Y-120128090D01*
X112752431Y-119915890D01*
X112803440Y-119664000D01*
X112803440Y-118964000D01*
X112759162Y-118728683D01*
X112620090Y-118512559D01*
X112407890Y-118367569D01*
X112394803Y-118364919D01*
X112607441Y-118228090D01*
X112752431Y-118015890D01*
X112803440Y-117764000D01*
X112803440Y-117064000D01*
X112759162Y-116828683D01*
X112620090Y-116612559D01*
X112407890Y-116467569D01*
X112238820Y-116433332D01*
X112134618Y-116277382D01*
X111167440Y-115310204D01*
X111167440Y-114920000D01*
X111130455Y-114723440D01*
X112156000Y-114723440D01*
X112391317Y-114679162D01*
X112607441Y-114540090D01*
X112752431Y-114327890D01*
X112803440Y-114076000D01*
X112803440Y-113376000D01*
X112759162Y-113140683D01*
X112620090Y-112924559D01*
X112407890Y-112779569D01*
X112394803Y-112776919D01*
X112607441Y-112640090D01*
X112752431Y-112427890D01*
X112803440Y-112176000D01*
X112803440Y-111476000D01*
X112759162Y-111240683D01*
X112620090Y-111024559D01*
X112407890Y-110879569D01*
X112238820Y-110845332D01*
X112134618Y-110689382D01*
X111167440Y-109722204D01*
X111167440Y-109332000D01*
X111123162Y-109096683D01*
X110984090Y-108880559D01*
X110771890Y-108735569D01*
X110520000Y-108684560D01*
X109820000Y-108684560D01*
X109584683Y-108728838D01*
X109368559Y-108867910D01*
X109223569Y-109080110D01*
X109216809Y-109113490D01*
X109158327Y-108972301D01*
X109148816Y-108962790D01*
X109563803Y-108547803D01*
X109591666Y-108505789D01*
X109599494Y-108465709D01*
X109606106Y-108462545D01*
X109899405Y-107707969D01*
X109893649Y-107446095D01*
X113284000Y-110836446D01*
X113284000Y-110836446D01*
G37*
X113284000Y-110836446D02*
X113284000Y-120777000D01*
X113371006Y-121214407D01*
X113618777Y-121585223D01*
X116097777Y-124064223D01*
X116468593Y-124311994D01*
X116906000Y-124399000D01*
X117350551Y-124399000D01*
X117343214Y-124409738D01*
X117291593Y-124420006D01*
X116920777Y-124667777D01*
X116603277Y-124985277D01*
X116355506Y-125356093D01*
X116300822Y-125631007D01*
X116031777Y-125810777D01*
X115784006Y-126181593D01*
X115697000Y-126619000D01*
X115784006Y-127056407D01*
X116031777Y-127427223D01*
X116493554Y-127889000D01*
X116078000Y-127889000D01*
X115640593Y-127976006D01*
X115269777Y-128223777D01*
X114146554Y-129347000D01*
X112646449Y-129347000D01*
X112752431Y-129191890D01*
X112803440Y-128940000D01*
X112803440Y-128240000D01*
X112759162Y-128004683D01*
X112620090Y-127788559D01*
X112407890Y-127643569D01*
X112238820Y-127609332D01*
X112134618Y-127453382D01*
X111167440Y-126486204D01*
X111167440Y-126096000D01*
X111130455Y-125899440D01*
X112156000Y-125899440D01*
X112391317Y-125855162D01*
X112607441Y-125716090D01*
X112752431Y-125503890D01*
X112803440Y-125252000D01*
X112803440Y-124552000D01*
X112759162Y-124316683D01*
X112620090Y-124100559D01*
X112407890Y-123955569D01*
X112394803Y-123952919D01*
X112607441Y-123816090D01*
X112752431Y-123603890D01*
X112803440Y-123352000D01*
X112803440Y-122652000D01*
X112759162Y-122416683D01*
X112620090Y-122200559D01*
X112407890Y-122055569D01*
X112238820Y-122021332D01*
X112134618Y-121865382D01*
X111167440Y-120898204D01*
X111167440Y-120508000D01*
X111130455Y-120311440D01*
X112156000Y-120311440D01*
X112391317Y-120267162D01*
X112607441Y-120128090D01*
X112752431Y-119915890D01*
X112803440Y-119664000D01*
X112803440Y-118964000D01*
X112759162Y-118728683D01*
X112620090Y-118512559D01*
X112407890Y-118367569D01*
X112394803Y-118364919D01*
X112607441Y-118228090D01*
X112752431Y-118015890D01*
X112803440Y-117764000D01*
X112803440Y-117064000D01*
X112759162Y-116828683D01*
X112620090Y-116612559D01*
X112407890Y-116467569D01*
X112238820Y-116433332D01*
X112134618Y-116277382D01*
X111167440Y-115310204D01*
X111167440Y-114920000D01*
X111130455Y-114723440D01*
X112156000Y-114723440D01*
X112391317Y-114679162D01*
X112607441Y-114540090D01*
X112752431Y-114327890D01*
X112803440Y-114076000D01*
X112803440Y-113376000D01*
X112759162Y-113140683D01*
X112620090Y-112924559D01*
X112407890Y-112779569D01*
X112394803Y-112776919D01*
X112607441Y-112640090D01*
X112752431Y-112427890D01*
X112803440Y-112176000D01*
X112803440Y-111476000D01*
X112759162Y-111240683D01*
X112620090Y-111024559D01*
X112407890Y-110879569D01*
X112238820Y-110845332D01*
X112134618Y-110689382D01*
X111167440Y-109722204D01*
X111167440Y-109332000D01*
X111123162Y-109096683D01*
X110984090Y-108880559D01*
X110771890Y-108735569D01*
X110520000Y-108684560D01*
X109820000Y-108684560D01*
X109584683Y-108728838D01*
X109368559Y-108867910D01*
X109223569Y-109080110D01*
X109216809Y-109113490D01*
X109158327Y-108972301D01*
X109148816Y-108962790D01*
X109563803Y-108547803D01*
X109591666Y-108505789D01*
X109599494Y-108465709D01*
X109606106Y-108462545D01*
X109899405Y-107707969D01*
X109893649Y-107446095D01*
X113284000Y-110836446D01*
G36*
X145691569Y-121180110D02*
X145640560Y-121432000D01*
X145640560Y-123932000D01*
X145684838Y-124167317D01*
X145746769Y-124263560D01*
X144837983Y-124263560D01*
X144923000Y-124058310D01*
X144923000Y-122967750D01*
X144764250Y-122809000D01*
X143915000Y-122809000D01*
X143915000Y-124408250D01*
X144073750Y-124567000D01*
X144197505Y-124567000D01*
X144134569Y-124659110D01*
X144097735Y-124841000D01*
X143637000Y-124841000D01*
X143417670Y-124884627D01*
X143409689Y-124865311D01*
X143106286Y-124561378D01*
X142709668Y-124396687D01*
X142280216Y-124396313D01*
X142200645Y-124429191D01*
X142032890Y-124314569D01*
X141781000Y-124263560D01*
X140417308Y-124263560D01*
X140431193Y-124219887D01*
X140387162Y-123966683D01*
X140371475Y-123942305D01*
X140417052Y-123837732D01*
X140419984Y-123580745D01*
X140322703Y-123342865D01*
X139976267Y-122823211D01*
X140076110Y-122891431D01*
X140328000Y-122942440D01*
X141128000Y-122942440D01*
X141363317Y-122898162D01*
X141477978Y-122824380D01*
X141576110Y-122891431D01*
X141828000Y-122942440D01*
X142628000Y-122942440D01*
X142689971Y-122930779D01*
X142653000Y-122967750D01*
X142653000Y-124058310D01*
X142749673Y-124291699D01*
X142928302Y-124470327D01*
X143161691Y-124567000D01*
X143502250Y-124567000D01*
X143661000Y-124408250D01*
X143661000Y-122809000D01*
X143641000Y-122809000D01*
X143641000Y-122555000D01*
X143661000Y-122555000D01*
X143661000Y-122535000D01*
X143915000Y-122535000D01*
X143915000Y-122555000D01*
X144764250Y-122555000D01*
X144923000Y-122396250D01*
X144923000Y-121305690D01*
X144837983Y-121100440D01*
X145746005Y-121100440D01*
X145691569Y-121180110D01*
X145691569Y-121180110D01*
G37*
X145691569Y-121180110D02*
X145640560Y-121432000D01*
X145640560Y-123932000D01*
X145684838Y-124167317D01*
X145746769Y-124263560D01*
X144837983Y-124263560D01*
X144923000Y-124058310D01*
X144923000Y-122967750D01*
X144764250Y-122809000D01*
X143915000Y-122809000D01*
X143915000Y-124408250D01*
X144073750Y-124567000D01*
X144197505Y-124567000D01*
X144134569Y-124659110D01*
X144097735Y-124841000D01*
X143637000Y-124841000D01*
X143417670Y-124884627D01*
X143409689Y-124865311D01*
X143106286Y-124561378D01*
X142709668Y-124396687D01*
X142280216Y-124396313D01*
X142200645Y-124429191D01*
X142032890Y-124314569D01*
X141781000Y-124263560D01*
X140417308Y-124263560D01*
X140431193Y-124219887D01*
X140387162Y-123966683D01*
X140371475Y-123942305D01*
X140417052Y-123837732D01*
X140419984Y-123580745D01*
X140322703Y-123342865D01*
X139976267Y-122823211D01*
X140076110Y-122891431D01*
X140328000Y-122942440D01*
X141128000Y-122942440D01*
X141363317Y-122898162D01*
X141477978Y-122824380D01*
X141576110Y-122891431D01*
X141828000Y-122942440D01*
X142628000Y-122942440D01*
X142689971Y-122930779D01*
X142653000Y-122967750D01*
X142653000Y-124058310D01*
X142749673Y-124291699D01*
X142928302Y-124470327D01*
X143161691Y-124567000D01*
X143502250Y-124567000D01*
X143661000Y-124408250D01*
X143661000Y-122809000D01*
X143641000Y-122809000D01*
X143641000Y-122555000D01*
X143661000Y-122555000D01*
X143661000Y-122535000D01*
X143915000Y-122535000D01*
X143915000Y-122555000D01*
X144764250Y-122555000D01*
X144923000Y-122396250D01*
X144923000Y-121305690D01*
X144837983Y-121100440D01*
X145746005Y-121100440D01*
X145691569Y-121180110D01*
G36*
X132953110Y-119451431D02*
X133027808Y-119466558D01*
X133051250Y-119490000D01*
X133081310Y-119490000D01*
X133101753Y-119481532D01*
X133156253Y-119492569D01*
X133023355Y-119625235D01*
X132850197Y-120042244D01*
X132849803Y-120493775D01*
X133022233Y-120911086D01*
X133341235Y-121230645D01*
X133758244Y-121403803D01*
X134209775Y-121404197D01*
X134627086Y-121231767D01*
X134654493Y-121204408D01*
X134678004Y-121322605D01*
X134777379Y-121471329D01*
X134843185Y-121569815D01*
X135117185Y-121843816D01*
X135145000Y-121862401D01*
X135145000Y-121932002D01*
X135182781Y-121932002D01*
X135168442Y-122002808D01*
X135145000Y-122026250D01*
X135145000Y-122056310D01*
X135153468Y-122076753D01*
X135132560Y-122180000D01*
X135132560Y-122430000D01*
X135152450Y-122535705D01*
X135145000Y-122553690D01*
X135145000Y-122583750D01*
X135165312Y-122604062D01*
X135176838Y-122665317D01*
X135184998Y-122677998D01*
X135145000Y-122677998D01*
X135145000Y-122742253D01*
X135109185Y-122766184D01*
X134843185Y-123032185D01*
X134678004Y-123279395D01*
X134640041Y-123470245D01*
X134479095Y-123413651D01*
X134167267Y-123430686D01*
X133958296Y-123517245D01*
X133960157Y-123551205D01*
X133810921Y-123650921D01*
X133711205Y-123800157D01*
X133677245Y-123798296D01*
X133578540Y-124079000D01*
X129540000Y-124079000D01*
X129540000Y-123571000D01*
X129481996Y-123279395D01*
X129377241Y-123122618D01*
X129316816Y-123032185D01*
X129050815Y-122766185D01*
X129015000Y-122742254D01*
X129015000Y-122677998D01*
X128977219Y-122677998D01*
X128991558Y-122607192D01*
X129015000Y-122583750D01*
X129015000Y-122553690D01*
X129006532Y-122533247D01*
X129027440Y-122430000D01*
X129027440Y-122180000D01*
X129007550Y-122074295D01*
X129015000Y-122056310D01*
X129015000Y-122026250D01*
X128994688Y-122005938D01*
X128983162Y-121944683D01*
X128892810Y-121804273D01*
X128976431Y-121681890D01*
X128991558Y-121607192D01*
X129015000Y-121583750D01*
X129015000Y-121553690D01*
X129006532Y-121533247D01*
X129027440Y-121430000D01*
X129027440Y-121348743D01*
X129034815Y-121343815D01*
X129316815Y-121061816D01*
X129335213Y-121034281D01*
X129531235Y-121230645D01*
X129948244Y-121403803D01*
X130399775Y-121404197D01*
X130817086Y-121231767D01*
X131136645Y-120912765D01*
X131309803Y-120495756D01*
X131310197Y-120044225D01*
X131137767Y-119626914D01*
X131004258Y-119493172D01*
X131060705Y-119482550D01*
X131078690Y-119490000D01*
X131108750Y-119490000D01*
X131129062Y-119469688D01*
X131190317Y-119458162D01*
X131330727Y-119367810D01*
X131453110Y-119451431D01*
X131527808Y-119466558D01*
X131551250Y-119490000D01*
X131581310Y-119490000D01*
X131601753Y-119481532D01*
X131705000Y-119502440D01*
X131955000Y-119502440D01*
X132084589Y-119478056D01*
X132205000Y-119502440D01*
X132455000Y-119502440D01*
X132560705Y-119482550D01*
X132578690Y-119490000D01*
X132608750Y-119490000D01*
X132629062Y-119469688D01*
X132690317Y-119458162D01*
X132830727Y-119367810D01*
X132953110Y-119451431D01*
X132953110Y-119451431D01*
G37*
X132953110Y-119451431D02*
X133027808Y-119466558D01*
X133051250Y-119490000D01*
X133081310Y-119490000D01*
X133101753Y-119481532D01*
X133156253Y-119492569D01*
X133023355Y-119625235D01*
X132850197Y-120042244D01*
X132849803Y-120493775D01*
X133022233Y-120911086D01*
X133341235Y-121230645D01*
X133758244Y-121403803D01*
X134209775Y-121404197D01*
X134627086Y-121231767D01*
X134654493Y-121204408D01*
X134678004Y-121322605D01*
X134777379Y-121471329D01*
X134843185Y-121569815D01*
X135117185Y-121843816D01*
X135145000Y-121862401D01*
X135145000Y-121932002D01*
X135182781Y-121932002D01*
X135168442Y-122002808D01*
X135145000Y-122026250D01*
X135145000Y-122056310D01*
X135153468Y-122076753D01*
X135132560Y-122180000D01*
X135132560Y-122430000D01*
X135152450Y-122535705D01*
X135145000Y-122553690D01*
X135145000Y-122583750D01*
X135165312Y-122604062D01*
X135176838Y-122665317D01*
X135184998Y-122677998D01*
X135145000Y-122677998D01*
X135145000Y-122742253D01*
X135109185Y-122766184D01*
X134843185Y-123032185D01*
X134678004Y-123279395D01*
X134640041Y-123470245D01*
X134479095Y-123413651D01*
X134167267Y-123430686D01*
X133958296Y-123517245D01*
X133960157Y-123551205D01*
X133810921Y-123650921D01*
X133711205Y-123800157D01*
X133677245Y-123798296D01*
X133578540Y-124079000D01*
X129540000Y-124079000D01*
X129540000Y-123571000D01*
X129481996Y-123279395D01*
X129377241Y-123122618D01*
X129316816Y-123032185D01*
X129050815Y-122766185D01*
X129015000Y-122742254D01*
X129015000Y-122677998D01*
X128977219Y-122677998D01*
X128991558Y-122607192D01*
X129015000Y-122583750D01*
X129015000Y-122553690D01*
X129006532Y-122533247D01*
X129027440Y-122430000D01*
X129027440Y-122180000D01*
X129007550Y-122074295D01*
X129015000Y-122056310D01*
X129015000Y-122026250D01*
X128994688Y-122005938D01*
X128983162Y-121944683D01*
X128892810Y-121804273D01*
X128976431Y-121681890D01*
X128991558Y-121607192D01*
X129015000Y-121583750D01*
X129015000Y-121553690D01*
X129006532Y-121533247D01*
X129027440Y-121430000D01*
X129027440Y-121348743D01*
X129034815Y-121343815D01*
X129316815Y-121061816D01*
X129335213Y-121034281D01*
X129531235Y-121230645D01*
X129948244Y-121403803D01*
X130399775Y-121404197D01*
X130817086Y-121231767D01*
X131136645Y-120912765D01*
X131309803Y-120495756D01*
X131310197Y-120044225D01*
X131137767Y-119626914D01*
X131004258Y-119493172D01*
X131060705Y-119482550D01*
X131078690Y-119490000D01*
X131108750Y-119490000D01*
X131129062Y-119469688D01*
X131190317Y-119458162D01*
X131330727Y-119367810D01*
X131453110Y-119451431D01*
X131527808Y-119466558D01*
X131551250Y-119490000D01*
X131581310Y-119490000D01*
X131601753Y-119481532D01*
X131705000Y-119502440D01*
X131955000Y-119502440D01*
X132084589Y-119478056D01*
X132205000Y-119502440D01*
X132455000Y-119502440D01*
X132560705Y-119482550D01*
X132578690Y-119490000D01*
X132608750Y-119490000D01*
X132629062Y-119469688D01*
X132690317Y-119458162D01*
X132830727Y-119367810D01*
X132953110Y-119451431D01*
G36*
X107295410Y-119996541D02*
X107436815Y-120093159D01*
X107381673Y-120148301D01*
X107285000Y-120381690D01*
X107285000Y-120872250D01*
X107443750Y-121031000D01*
X108143000Y-121031000D01*
X108143000Y-121011000D01*
X108397000Y-121011000D01*
X108397000Y-121031000D01*
X108417000Y-121031000D01*
X108417000Y-121285000D01*
X108397000Y-121285000D01*
X108397000Y-122284250D01*
X108471500Y-122358750D01*
X108471500Y-122771160D01*
X108217500Y-122771160D01*
X108217500Y-122294650D01*
X108143000Y-122220150D01*
X108143000Y-121285000D01*
X107443750Y-121285000D01*
X107285000Y-121443750D01*
X107285000Y-121934310D01*
X107381673Y-122167699D01*
X107432856Y-122218881D01*
X107399801Y-122232573D01*
X107221173Y-122411202D01*
X107221130Y-122411305D01*
X107138310Y-122377000D01*
X106490406Y-122377000D01*
X106653441Y-122272090D01*
X106798431Y-122059890D01*
X106849440Y-121808000D01*
X106849440Y-120508000D01*
X106805162Y-120272683D01*
X106666090Y-120056559D01*
X106494037Y-119939000D01*
X107138310Y-119939000D01*
X107233114Y-119899731D01*
X107295410Y-119996541D01*
X107295410Y-119996541D01*
G37*
X107295410Y-119996541D02*
X107436815Y-120093159D01*
X107381673Y-120148301D01*
X107285000Y-120381690D01*
X107285000Y-120872250D01*
X107443750Y-121031000D01*
X108143000Y-121031000D01*
X108143000Y-121011000D01*
X108397000Y-121011000D01*
X108397000Y-121031000D01*
X108417000Y-121031000D01*
X108417000Y-121285000D01*
X108397000Y-121285000D01*
X108397000Y-122284250D01*
X108471500Y-122358750D01*
X108471500Y-122771160D01*
X108217500Y-122771160D01*
X108217500Y-122294650D01*
X108143000Y-122220150D01*
X108143000Y-121285000D01*
X107443750Y-121285000D01*
X107285000Y-121443750D01*
X107285000Y-121934310D01*
X107381673Y-122167699D01*
X107432856Y-122218881D01*
X107399801Y-122232573D01*
X107221173Y-122411202D01*
X107221130Y-122411305D01*
X107138310Y-122377000D01*
X106490406Y-122377000D01*
X106653441Y-122272090D01*
X106798431Y-122059890D01*
X106849440Y-121808000D01*
X106849440Y-120508000D01*
X106805162Y-120272683D01*
X106666090Y-120056559D01*
X106494037Y-119939000D01*
X107138310Y-119939000D01*
X107233114Y-119899731D01*
X107295410Y-119996541D01*
G36*
X139680560Y-122295000D02*
X139705742Y-122428833D01*
X139435890Y-122205569D01*
X139184000Y-122154560D01*
X138184000Y-122154560D01*
X137827463Y-122261574D01*
X137727440Y-122361117D01*
X137727440Y-122180000D01*
X137707550Y-122074295D01*
X137715000Y-122056310D01*
X137715000Y-122026250D01*
X137694688Y-122005938D01*
X137683162Y-121944683D01*
X137592810Y-121804273D01*
X137600513Y-121793000D01*
X137816765Y-121793000D01*
X137932110Y-121888431D01*
X138184000Y-121939440D01*
X139184000Y-121939440D01*
X139540537Y-121832426D01*
X139680560Y-121693076D01*
X139680560Y-122295000D01*
X139680560Y-122295000D01*
G37*
X139680560Y-122295000D02*
X139705742Y-122428833D01*
X139435890Y-122205569D01*
X139184000Y-122154560D01*
X138184000Y-122154560D01*
X137827463Y-122261574D01*
X137727440Y-122361117D01*
X137727440Y-122180000D01*
X137707550Y-122074295D01*
X137715000Y-122056310D01*
X137715000Y-122026250D01*
X137694688Y-122005938D01*
X137683162Y-121944683D01*
X137592810Y-121804273D01*
X137600513Y-121793000D01*
X137816765Y-121793000D01*
X137932110Y-121888431D01*
X138184000Y-121939440D01*
X139184000Y-121939440D01*
X139540537Y-121832426D01*
X139680560Y-121693076D01*
X139680560Y-122295000D01*
G36*
X102643244Y-120514803D02*
X102954560Y-120515075D01*
X102954560Y-121151000D01*
X102901750Y-121151000D01*
X102743000Y-121309750D01*
X102743000Y-122059000D01*
X102763000Y-122059000D01*
X102763000Y-122313000D01*
X102743000Y-122313000D01*
X102743000Y-122333000D01*
X102489000Y-122333000D01*
X102489000Y-120450755D01*
X102643244Y-120514803D01*
X102643244Y-120514803D01*
G37*
X102643244Y-120514803D02*
X102954560Y-120515075D01*
X102954560Y-121151000D01*
X102901750Y-121151000D01*
X102743000Y-121309750D01*
X102743000Y-122059000D01*
X102763000Y-122059000D01*
X102763000Y-122313000D01*
X102743000Y-122313000D01*
X102743000Y-122333000D01*
X102489000Y-122333000D01*
X102489000Y-120450755D01*
X102643244Y-120514803D01*
G36*
X125445184Y-121188815D02*
X125445187Y-121188817D01*
X125572185Y-121315815D01*
X125819395Y-121480996D01*
X125875532Y-121492162D01*
X125953184Y-121569815D01*
X125953187Y-121569817D01*
X126016685Y-121633316D01*
X126016688Y-121633318D01*
X126227185Y-121843815D01*
X126467117Y-122004133D01*
X126445000Y-122026250D01*
X126445000Y-122056310D01*
X126453468Y-122076753D01*
X126432560Y-122180000D01*
X126432560Y-122322579D01*
X126230000Y-122281560D01*
X125394974Y-122281560D01*
X125407440Y-122220000D01*
X125407440Y-121620000D01*
X125363162Y-121384683D01*
X125299322Y-121285472D01*
X125356431Y-121201890D01*
X125373579Y-121117210D01*
X125445184Y-121188815D01*
X125445184Y-121188815D01*
G37*
X125445184Y-121188815D02*
X125445187Y-121188817D01*
X125572185Y-121315815D01*
X125819395Y-121480996D01*
X125875532Y-121492162D01*
X125953184Y-121569815D01*
X125953187Y-121569817D01*
X126016685Y-121633316D01*
X126016688Y-121633318D01*
X126227185Y-121843815D01*
X126467117Y-122004133D01*
X126445000Y-122026250D01*
X126445000Y-122056310D01*
X126453468Y-122076753D01*
X126432560Y-122180000D01*
X126432560Y-122322579D01*
X126230000Y-122281560D01*
X125394974Y-122281560D01*
X125407440Y-122220000D01*
X125407440Y-121620000D01*
X125363162Y-121384683D01*
X125299322Y-121285472D01*
X125356431Y-121201890D01*
X125373579Y-121117210D01*
X125445184Y-121188815D01*
G36*
X116205000Y-113477000D02*
X116292006Y-113914407D01*
X116539777Y-114285223D01*
X117193560Y-114939006D01*
X117193560Y-114970000D01*
X117237838Y-115205317D01*
X117376910Y-115421441D01*
X117589110Y-115566431D01*
X117602197Y-115569081D01*
X117389559Y-115705910D01*
X117302717Y-115833007D01*
X116910593Y-115911006D01*
X116539777Y-116158777D01*
X116031777Y-116666777D01*
X115784006Y-117037593D01*
X115697000Y-117475000D01*
X115697000Y-118618000D01*
X115784006Y-119055407D01*
X116031777Y-119426223D01*
X116793777Y-120188223D01*
X117162560Y-120434636D01*
X117162560Y-120950000D01*
X117206838Y-121185317D01*
X117270678Y-121284528D01*
X117213569Y-121368110D01*
X117162560Y-121620000D01*
X117162560Y-121896114D01*
X115570000Y-120303554D01*
X115570000Y-110363000D01*
X115482994Y-109925593D01*
X115235223Y-109554777D01*
X115054992Y-109374546D01*
X115097409Y-109373614D01*
X115161661Y-109347000D01*
X116205000Y-109347000D01*
X116205000Y-113477000D01*
X116205000Y-113477000D01*
G37*
X116205000Y-113477000D02*
X116292006Y-113914407D01*
X116539777Y-114285223D01*
X117193560Y-114939006D01*
X117193560Y-114970000D01*
X117237838Y-115205317D01*
X117376910Y-115421441D01*
X117589110Y-115566431D01*
X117602197Y-115569081D01*
X117389559Y-115705910D01*
X117302717Y-115833007D01*
X116910593Y-115911006D01*
X116539777Y-116158777D01*
X116031777Y-116666777D01*
X115784006Y-117037593D01*
X115697000Y-117475000D01*
X115697000Y-118618000D01*
X115784006Y-119055407D01*
X116031777Y-119426223D01*
X116793777Y-120188223D01*
X117162560Y-120434636D01*
X117162560Y-120950000D01*
X117206838Y-121185317D01*
X117270678Y-121284528D01*
X117213569Y-121368110D01*
X117162560Y-121620000D01*
X117162560Y-121896114D01*
X115570000Y-120303554D01*
X115570000Y-110363000D01*
X115482994Y-109925593D01*
X115235223Y-109554777D01*
X115054992Y-109374546D01*
X115097409Y-109373614D01*
X115161661Y-109347000D01*
X116205000Y-109347000D01*
X116205000Y-113477000D01*
G36*
X144069000Y-109789000D02*
X144089000Y-109789000D01*
X144089000Y-110043000D01*
X144069000Y-110043000D01*
X144069000Y-111301000D01*
X144569000Y-111301000D01*
X145089349Y-111146972D01*
X145511145Y-110805540D01*
X145622886Y-110599832D01*
X146939000Y-111915946D01*
X146939000Y-117665610D01*
X146686164Y-117665390D01*
X146645090Y-117601559D01*
X146432890Y-117456569D01*
X146181000Y-117405560D01*
X144731000Y-117405560D01*
X144495683Y-117449838D01*
X144279559Y-117588910D01*
X144134569Y-117801110D01*
X144123453Y-117856000D01*
X143557070Y-117856000D01*
X143409689Y-117499311D01*
X143106286Y-117195378D01*
X142709668Y-117030687D01*
X142280216Y-117030313D01*
X141883311Y-117194311D01*
X141671693Y-117405560D01*
X140331000Y-117405560D01*
X140095683Y-117449838D01*
X139879559Y-117588910D01*
X139734569Y-117801110D01*
X139683560Y-118053000D01*
X139683560Y-118503000D01*
X139703067Y-118606671D01*
X139701342Y-118615192D01*
X139435890Y-118395569D01*
X139184000Y-118344560D01*
X138184000Y-118344560D01*
X137827463Y-118451574D01*
X137645297Y-118632865D01*
X137371883Y-119042986D01*
X137331400Y-119083470D01*
X137080000Y-119032560D01*
X135780000Y-119032560D01*
X135558025Y-119074328D01*
X135602440Y-118855000D01*
X135602440Y-117846175D01*
X135751317Y-117818162D01*
X135967441Y-117679090D01*
X136112431Y-117466890D01*
X136163440Y-117215000D01*
X136163440Y-116465000D01*
X136162311Y-116459000D01*
X137160000Y-116459000D01*
X137209410Y-116448994D01*
X137249803Y-116421803D01*
X137503803Y-116167803D01*
X137531666Y-116125789D01*
X137541000Y-116078000D01*
X137541000Y-115380988D01*
X137662910Y-115570441D01*
X137875110Y-115715431D01*
X138127000Y-115766440D01*
X139577000Y-115766440D01*
X139812317Y-115722162D01*
X139841752Y-115703221D01*
X139878838Y-115900317D01*
X140017910Y-116116441D01*
X140230110Y-116261431D01*
X140482000Y-116312440D01*
X142982000Y-116312440D01*
X143217317Y-116268162D01*
X143433441Y-116129090D01*
X143578431Y-115916890D01*
X143629440Y-115665000D01*
X143629440Y-114665000D01*
X143585162Y-114429683D01*
X143446090Y-114213559D01*
X143233890Y-114068569D01*
X142982000Y-114017560D01*
X142694699Y-114017560D01*
X142677407Y-114006006D01*
X142637369Y-113998042D01*
X142466756Y-113927197D01*
X142280391Y-113927034D01*
X142240000Y-113919000D01*
X142199961Y-113926964D01*
X142015225Y-113926803D01*
X141881639Y-113982000D01*
X141732000Y-113982000D01*
X141553229Y-114017560D01*
X141055796Y-114017560D01*
X140703236Y-113665000D01*
X143256000Y-113665000D01*
X143305410Y-113654994D01*
X143347035Y-113626553D01*
X143374315Y-113584159D01*
X143383000Y-113538000D01*
X143383000Y-113162026D01*
X143520327Y-113024698D01*
X143617000Y-112791309D01*
X143617000Y-112450750D01*
X143458250Y-112292000D01*
X143383000Y-112292000D01*
X143383000Y-112038000D01*
X143458250Y-112038000D01*
X143617000Y-111879250D01*
X143617000Y-111538691D01*
X143520327Y-111305302D01*
X143516025Y-111301000D01*
X143815000Y-111301000D01*
X143815000Y-110043000D01*
X142621000Y-110043000D01*
X142621000Y-109789000D01*
X143815000Y-109789000D01*
X143815000Y-109769000D01*
X144069000Y-109769000D01*
X144069000Y-109789000D01*
X144069000Y-109789000D01*
G37*
X144069000Y-109789000D02*
X144089000Y-109789000D01*
X144089000Y-110043000D01*
X144069000Y-110043000D01*
X144069000Y-111301000D01*
X144569000Y-111301000D01*
X145089349Y-111146972D01*
X145511145Y-110805540D01*
X145622886Y-110599832D01*
X146939000Y-111915946D01*
X146939000Y-117665610D01*
X146686164Y-117665390D01*
X146645090Y-117601559D01*
X146432890Y-117456569D01*
X146181000Y-117405560D01*
X144731000Y-117405560D01*
X144495683Y-117449838D01*
X144279559Y-117588910D01*
X144134569Y-117801110D01*
X144123453Y-117856000D01*
X143557070Y-117856000D01*
X143409689Y-117499311D01*
X143106286Y-117195378D01*
X142709668Y-117030687D01*
X142280216Y-117030313D01*
X141883311Y-117194311D01*
X141671693Y-117405560D01*
X140331000Y-117405560D01*
X140095683Y-117449838D01*
X139879559Y-117588910D01*
X139734569Y-117801110D01*
X139683560Y-118053000D01*
X139683560Y-118503000D01*
X139703067Y-118606671D01*
X139701342Y-118615192D01*
X139435890Y-118395569D01*
X139184000Y-118344560D01*
X138184000Y-118344560D01*
X137827463Y-118451574D01*
X137645297Y-118632865D01*
X137371883Y-119042986D01*
X137331400Y-119083470D01*
X137080000Y-119032560D01*
X135780000Y-119032560D01*
X135558025Y-119074328D01*
X135602440Y-118855000D01*
X135602440Y-117846175D01*
X135751317Y-117818162D01*
X135967441Y-117679090D01*
X136112431Y-117466890D01*
X136163440Y-117215000D01*
X136163440Y-116465000D01*
X136162311Y-116459000D01*
X137160000Y-116459000D01*
X137209410Y-116448994D01*
X137249803Y-116421803D01*
X137503803Y-116167803D01*
X137531666Y-116125789D01*
X137541000Y-116078000D01*
X137541000Y-115380988D01*
X137662910Y-115570441D01*
X137875110Y-115715431D01*
X138127000Y-115766440D01*
X139577000Y-115766440D01*
X139812317Y-115722162D01*
X139841752Y-115703221D01*
X139878838Y-115900317D01*
X140017910Y-116116441D01*
X140230110Y-116261431D01*
X140482000Y-116312440D01*
X142982000Y-116312440D01*
X143217317Y-116268162D01*
X143433441Y-116129090D01*
X143578431Y-115916890D01*
X143629440Y-115665000D01*
X143629440Y-114665000D01*
X143585162Y-114429683D01*
X143446090Y-114213559D01*
X143233890Y-114068569D01*
X142982000Y-114017560D01*
X142694699Y-114017560D01*
X142677407Y-114006006D01*
X142637369Y-113998042D01*
X142466756Y-113927197D01*
X142280391Y-113927034D01*
X142240000Y-113919000D01*
X142199961Y-113926964D01*
X142015225Y-113926803D01*
X141881639Y-113982000D01*
X141732000Y-113982000D01*
X141553229Y-114017560D01*
X141055796Y-114017560D01*
X140703236Y-113665000D01*
X143256000Y-113665000D01*
X143305410Y-113654994D01*
X143347035Y-113626553D01*
X143374315Y-113584159D01*
X143383000Y-113538000D01*
X143383000Y-113162026D01*
X143520327Y-113024698D01*
X143617000Y-112791309D01*
X143617000Y-112450750D01*
X143458250Y-112292000D01*
X143383000Y-112292000D01*
X143383000Y-112038000D01*
X143458250Y-112038000D01*
X143617000Y-111879250D01*
X143617000Y-111538691D01*
X143520327Y-111305302D01*
X143516025Y-111301000D01*
X143815000Y-111301000D01*
X143815000Y-110043000D01*
X142621000Y-110043000D01*
X142621000Y-109789000D01*
X143815000Y-109789000D01*
X143815000Y-109769000D01*
X144069000Y-109769000D01*
X144069000Y-109789000D01*
G36*
X106299000Y-112649000D02*
X106319000Y-112649000D01*
X106319000Y-112903000D01*
X106299000Y-112903000D01*
X106299000Y-114192250D01*
X106457750Y-114351000D01*
X107138310Y-114351000D01*
X107233114Y-114311731D01*
X107295410Y-114408541D01*
X107436815Y-114505159D01*
X107381673Y-114560301D01*
X107285000Y-114793690D01*
X107285000Y-115284250D01*
X107443750Y-115443000D01*
X108143000Y-115443000D01*
X108143000Y-115423000D01*
X108397000Y-115423000D01*
X108397000Y-115443000D01*
X108417000Y-115443000D01*
X108417000Y-115697000D01*
X108397000Y-115697000D01*
X108397000Y-116696250D01*
X108471500Y-116770750D01*
X108471500Y-117183160D01*
X108217500Y-117183160D01*
X108217500Y-116706650D01*
X108143000Y-116632150D01*
X108143000Y-115697000D01*
X107443750Y-115697000D01*
X107285000Y-115855750D01*
X107285000Y-116346310D01*
X107381673Y-116579699D01*
X107432856Y-116630881D01*
X107399801Y-116644573D01*
X107221173Y-116823202D01*
X107221130Y-116823305D01*
X107138310Y-116789000D01*
X106457750Y-116789000D01*
X106299000Y-116947750D01*
X106299000Y-118237000D01*
X106319000Y-118237000D01*
X106319000Y-118491000D01*
X106299000Y-118491000D01*
X106299000Y-118511000D01*
X106045000Y-118511000D01*
X106045000Y-118491000D01*
X106025000Y-118491000D01*
X106025000Y-118237000D01*
X106045000Y-118237000D01*
X106045000Y-116947750D01*
X105886250Y-116789000D01*
X105346545Y-116789000D01*
X105346687Y-116626216D01*
X105182689Y-116229311D01*
X104879286Y-115925378D01*
X104841000Y-115909480D01*
X104841000Y-115570000D01*
X104773329Y-115229794D01*
X104580618Y-114941382D01*
X104292206Y-114748671D01*
X103952000Y-114681000D01*
X103611794Y-114748671D01*
X103364615Y-114913831D01*
X103651935Y-114626511D01*
X103718206Y-114613329D01*
X103731360Y-114604540D01*
X104584500Y-114604540D01*
X104819817Y-114560262D01*
X105035941Y-114421190D01*
X105110765Y-114311681D01*
X105205690Y-114351000D01*
X105886250Y-114351000D01*
X106045000Y-114192250D01*
X106045000Y-112903000D01*
X106025000Y-112903000D01*
X106025000Y-112649000D01*
X106045000Y-112649000D01*
X106045000Y-112629000D01*
X106299000Y-112629000D01*
X106299000Y-112649000D01*
X106299000Y-112649000D01*
G37*
X106299000Y-112649000D02*
X106319000Y-112649000D01*
X106319000Y-112903000D01*
X106299000Y-112903000D01*
X106299000Y-114192250D01*
X106457750Y-114351000D01*
X107138310Y-114351000D01*
X107233114Y-114311731D01*
X107295410Y-114408541D01*
X107436815Y-114505159D01*
X107381673Y-114560301D01*
X107285000Y-114793690D01*
X107285000Y-115284250D01*
X107443750Y-115443000D01*
X108143000Y-115443000D01*
X108143000Y-115423000D01*
X108397000Y-115423000D01*
X108397000Y-115443000D01*
X108417000Y-115443000D01*
X108417000Y-115697000D01*
X108397000Y-115697000D01*
X108397000Y-116696250D01*
X108471500Y-116770750D01*
X108471500Y-117183160D01*
X108217500Y-117183160D01*
X108217500Y-116706650D01*
X108143000Y-116632150D01*
X108143000Y-115697000D01*
X107443750Y-115697000D01*
X107285000Y-115855750D01*
X107285000Y-116346310D01*
X107381673Y-116579699D01*
X107432856Y-116630881D01*
X107399801Y-116644573D01*
X107221173Y-116823202D01*
X107221130Y-116823305D01*
X107138310Y-116789000D01*
X106457750Y-116789000D01*
X106299000Y-116947750D01*
X106299000Y-118237000D01*
X106319000Y-118237000D01*
X106319000Y-118491000D01*
X106299000Y-118491000D01*
X106299000Y-118511000D01*
X106045000Y-118511000D01*
X106045000Y-118491000D01*
X106025000Y-118491000D01*
X106025000Y-118237000D01*
X106045000Y-118237000D01*
X106045000Y-116947750D01*
X105886250Y-116789000D01*
X105346545Y-116789000D01*
X105346687Y-116626216D01*
X105182689Y-116229311D01*
X104879286Y-115925378D01*
X104841000Y-115909480D01*
X104841000Y-115570000D01*
X104773329Y-115229794D01*
X104580618Y-114941382D01*
X104292206Y-114748671D01*
X103952000Y-114681000D01*
X103611794Y-114748671D01*
X103364615Y-114913831D01*
X103651935Y-114626511D01*
X103718206Y-114613329D01*
X103731360Y-114604540D01*
X104584500Y-114604540D01*
X104819817Y-114560262D01*
X105035941Y-114421190D01*
X105110765Y-114311681D01*
X105205690Y-114351000D01*
X105886250Y-114351000D01*
X106045000Y-114192250D01*
X106045000Y-112903000D01*
X106025000Y-112903000D01*
X106025000Y-112649000D01*
X106045000Y-112649000D01*
X106045000Y-112629000D01*
X106299000Y-112629000D01*
X106299000Y-112649000D01*
G36*
X125894197Y-115659803D02*
X125936211Y-115687666D01*
X125984000Y-115697000D01*
X126159376Y-115697000D01*
X126200673Y-115796699D01*
X126379302Y-115975327D01*
X126612691Y-116072000D01*
X126853250Y-116072000D01*
X127012000Y-115913250D01*
X127012000Y-115761606D01*
X127926197Y-116675803D01*
X127968211Y-116703666D01*
X128016000Y-116713000D01*
X128047360Y-116713000D01*
X128047360Y-117215000D01*
X128083730Y-117408291D01*
X128001135Y-117325297D01*
X127101135Y-116725297D01*
X126759887Y-116616807D01*
X126506683Y-116660838D01*
X126482305Y-116676525D01*
X126377732Y-116630948D01*
X126120745Y-116628016D01*
X125882865Y-116725297D01*
X125080321Y-117260326D01*
X125011890Y-117213569D01*
X124760000Y-117162560D01*
X124654006Y-117162560D01*
X123142223Y-115650777D01*
X122831262Y-115443000D01*
X125677394Y-115443000D01*
X125894197Y-115659803D01*
X125894197Y-115659803D01*
G37*
X125894197Y-115659803D02*
X125936211Y-115687666D01*
X125984000Y-115697000D01*
X126159376Y-115697000D01*
X126200673Y-115796699D01*
X126379302Y-115975327D01*
X126612691Y-116072000D01*
X126853250Y-116072000D01*
X127012000Y-115913250D01*
X127012000Y-115761606D01*
X127926197Y-116675803D01*
X127968211Y-116703666D01*
X128016000Y-116713000D01*
X128047360Y-116713000D01*
X128047360Y-117215000D01*
X128083730Y-117408291D01*
X128001135Y-117325297D01*
X127101135Y-116725297D01*
X126759887Y-116616807D01*
X126506683Y-116660838D01*
X126482305Y-116676525D01*
X126377732Y-116630948D01*
X126120745Y-116628016D01*
X125882865Y-116725297D01*
X125080321Y-117260326D01*
X125011890Y-117213569D01*
X124760000Y-117162560D01*
X124654006Y-117162560D01*
X123142223Y-115650777D01*
X122831262Y-115443000D01*
X125677394Y-115443000D01*
X125894197Y-115659803D01*
G36*
X102743000Y-116471000D02*
X102763000Y-116471000D01*
X102763000Y-116725000D01*
X102743000Y-116725000D01*
X102743000Y-116745000D01*
X102489000Y-116745000D01*
X102489000Y-116451000D01*
X102743000Y-116451000D01*
X102743000Y-116471000D01*
X102743000Y-116471000D01*
G37*
X102743000Y-116471000D02*
X102763000Y-116471000D01*
X102763000Y-116725000D01*
X102743000Y-116725000D01*
X102743000Y-116745000D01*
X102489000Y-116745000D01*
X102489000Y-116451000D01*
X102743000Y-116451000D01*
X102743000Y-116471000D01*
G36*
X101256197Y-109055803D02*
X101298211Y-109083666D01*
X101338291Y-109091494D01*
X101341455Y-109098106D01*
X102096031Y-109391405D01*
X102905409Y-109373614D01*
X102954560Y-109353255D01*
X102954560Y-109975000D01*
X102901750Y-109975000D01*
X102743000Y-110133750D01*
X102743000Y-110883000D01*
X102763000Y-110883000D01*
X102763000Y-111137000D01*
X102743000Y-111137000D01*
X102743000Y-111157000D01*
X102489000Y-111157000D01*
X102489000Y-111137000D01*
X101764750Y-111137000D01*
X101606000Y-111295750D01*
X101606000Y-111536309D01*
X101702673Y-111769698D01*
X101704043Y-111771068D01*
X101644569Y-111858110D01*
X101593560Y-112110000D01*
X101593560Y-112910000D01*
X101637838Y-113145317D01*
X101740577Y-113304977D01*
X100761000Y-114284554D01*
X100761000Y-110483691D01*
X101606000Y-110483691D01*
X101606000Y-110724250D01*
X101764750Y-110883000D01*
X102489000Y-110883000D01*
X102489000Y-110133750D01*
X102330250Y-109975000D01*
X102114690Y-109975000D01*
X101881301Y-110071673D01*
X101702673Y-110250302D01*
X101606000Y-110483691D01*
X100761000Y-110483691D01*
X100761000Y-108560606D01*
X101256197Y-109055803D01*
X101256197Y-109055803D01*
G37*
X101256197Y-109055803D02*
X101298211Y-109083666D01*
X101338291Y-109091494D01*
X101341455Y-109098106D01*
X102096031Y-109391405D01*
X102905409Y-109373614D01*
X102954560Y-109353255D01*
X102954560Y-109975000D01*
X102901750Y-109975000D01*
X102743000Y-110133750D01*
X102743000Y-110883000D01*
X102763000Y-110883000D01*
X102763000Y-111137000D01*
X102743000Y-111137000D01*
X102743000Y-111157000D01*
X102489000Y-111157000D01*
X102489000Y-111137000D01*
X101764750Y-111137000D01*
X101606000Y-111295750D01*
X101606000Y-111536309D01*
X101702673Y-111769698D01*
X101704043Y-111771068D01*
X101644569Y-111858110D01*
X101593560Y-112110000D01*
X101593560Y-112910000D01*
X101637838Y-113145317D01*
X101740577Y-113304977D01*
X100761000Y-114284554D01*
X100761000Y-110483691D01*
X101606000Y-110483691D01*
X101606000Y-110724250D01*
X101764750Y-110883000D01*
X102489000Y-110883000D01*
X102489000Y-110133750D01*
X102330250Y-109975000D01*
X102114690Y-109975000D01*
X101881301Y-110071673D01*
X101702673Y-110250302D01*
X101606000Y-110483691D01*
X100761000Y-110483691D01*
X100761000Y-108560606D01*
X101256197Y-109055803D01*
G36*
X127629894Y-100833455D02*
X127336595Y-101588031D01*
X127354386Y-102397409D01*
X127629894Y-103062545D01*
X127635000Y-103064988D01*
X127635000Y-106231012D01*
X127629894Y-106233455D01*
X127336595Y-106988031D01*
X127354386Y-107797409D01*
X127629894Y-108462545D01*
X127636567Y-108465738D01*
X127645006Y-108507410D01*
X127672197Y-108547803D01*
X128180197Y-109055803D01*
X128222211Y-109083666D01*
X128262291Y-109091494D01*
X128265455Y-109098106D01*
X129020031Y-109391405D01*
X129829409Y-109373614D01*
X130494545Y-109098106D01*
X130496988Y-109093000D01*
X133663012Y-109093000D01*
X133665455Y-109098106D01*
X134420031Y-109391405D01*
X135229409Y-109373614D01*
X135894545Y-109098106D01*
X135897738Y-109091433D01*
X135939410Y-109082994D01*
X135979803Y-109055803D01*
X136487803Y-108547803D01*
X136515666Y-108505789D01*
X136523494Y-108465709D01*
X136530106Y-108462545D01*
X136823405Y-107707969D01*
X136805614Y-106898591D01*
X136530106Y-106233455D01*
X136525000Y-106231012D01*
X136525000Y-103064988D01*
X136530106Y-103062545D01*
X136823405Y-102307969D01*
X136805614Y-101498591D01*
X136530106Y-100833455D01*
X136378697Y-100761000D01*
X139973303Y-100761000D01*
X139821894Y-100833455D01*
X139528595Y-101588031D01*
X139546386Y-102397409D01*
X139821894Y-103062545D01*
X139827000Y-103064988D01*
X139827000Y-106231012D01*
X139821894Y-106233455D01*
X139528595Y-106988031D01*
X139546386Y-107797409D01*
X139821894Y-108462545D01*
X139828567Y-108465738D01*
X139837006Y-108507410D01*
X139864197Y-108547803D01*
X140372197Y-109055803D01*
X140414211Y-109083666D01*
X140454291Y-109091494D01*
X140457455Y-109098106D01*
X141212031Y-109391405D01*
X142021409Y-109373614D01*
X142113000Y-109335676D01*
X142113000Y-109507496D01*
X142099682Y-109574815D01*
X142113000Y-109598070D01*
X142113000Y-110233930D01*
X142099682Y-110257185D01*
X142113000Y-110324504D01*
X142113000Y-110617000D01*
X137974606Y-110617000D01*
X136995803Y-109638197D01*
X136953789Y-109610334D01*
X136906000Y-109601000D01*
X133096000Y-109601000D01*
X133046590Y-109611006D01*
X133006197Y-109638197D01*
X131736197Y-110908197D01*
X131708334Y-110950211D01*
X131701434Y-110985541D01*
X131661673Y-111025301D01*
X131565000Y-111258690D01*
X131565000Y-111474250D01*
X131699000Y-111608250D01*
X131699000Y-111911750D01*
X131565000Y-112045750D01*
X131565000Y-112160572D01*
X131461440Y-112091376D01*
X131461440Y-111972000D01*
X131441933Y-111868329D01*
X131461440Y-111772000D01*
X131461440Y-111322000D01*
X131417162Y-111086683D01*
X131278090Y-110870559D01*
X131065890Y-110725569D01*
X130814000Y-110674560D01*
X129364000Y-110674560D01*
X129128683Y-110718838D01*
X128912559Y-110857910D01*
X128767569Y-111070110D01*
X128716560Y-111322000D01*
X128716560Y-111772000D01*
X128736067Y-111875671D01*
X128716560Y-111972000D01*
X128716560Y-112422000D01*
X128736067Y-112525671D01*
X128716560Y-112622000D01*
X128716560Y-113072000D01*
X128736067Y-113175671D01*
X128716560Y-113272000D01*
X128716560Y-113722000D01*
X128717384Y-113726380D01*
X128404204Y-114039560D01*
X128239000Y-114039560D01*
X128143000Y-114057624D01*
X128143000Y-113284000D01*
X128132994Y-113234590D01*
X128105803Y-113194197D01*
X127597803Y-112686197D01*
X127555789Y-112658334D01*
X127508000Y-112649000D01*
X127061440Y-112649000D01*
X127061440Y-112622000D01*
X127041933Y-112518329D01*
X127061440Y-112422000D01*
X127061440Y-111972000D01*
X127041933Y-111868329D01*
X127061440Y-111772000D01*
X127061440Y-111322000D01*
X127017162Y-111086683D01*
X126878090Y-110870559D01*
X126665890Y-110725569D01*
X126414000Y-110674560D01*
X124964000Y-110674560D01*
X124775668Y-110709997D01*
X124765090Y-110693559D01*
X124552890Y-110548569D01*
X124301000Y-110497560D01*
X123478440Y-110497560D01*
X123570173Y-110328684D01*
X123584318Y-110257185D01*
X123461656Y-110043000D01*
X121869000Y-110043000D01*
X121869000Y-110063000D01*
X121615000Y-110063000D01*
X121615000Y-110043000D01*
X120022344Y-110043000D01*
X119899682Y-110257185D01*
X119913827Y-110328684D01*
X120042142Y-110564904D01*
X119941302Y-110606673D01*
X119762673Y-110785301D01*
X119727175Y-110871000D01*
X119380000Y-110871000D01*
X119330590Y-110881006D01*
X119288965Y-110909447D01*
X119261685Y-110951841D01*
X119253000Y-110998000D01*
X119253000Y-113645241D01*
X119141000Y-113622560D01*
X119110006Y-113622560D01*
X118491000Y-113003554D01*
X118491000Y-109347000D01*
X119573789Y-109347000D01*
X119688031Y-109391405D01*
X119978080Y-109385029D01*
X119913827Y-109503316D01*
X119899682Y-109574815D01*
X120022344Y-109789000D01*
X121615000Y-109789000D01*
X121615000Y-109769000D01*
X121869000Y-109769000D01*
X121869000Y-109789000D01*
X123461656Y-109789000D01*
X123584318Y-109574815D01*
X123570173Y-109503316D01*
X123311145Y-109026460D01*
X122889349Y-108685028D01*
X122369000Y-108531000D01*
X121793000Y-108531000D01*
X121793000Y-108464988D01*
X121798106Y-108462545D01*
X122091405Y-107707969D01*
X122073614Y-106898591D01*
X121798106Y-106233455D01*
X121793000Y-106231012D01*
X121793000Y-103064988D01*
X121798106Y-103062545D01*
X122091405Y-102307969D01*
X122073614Y-101498591D01*
X121798106Y-100833455D01*
X121646697Y-100761000D01*
X127781303Y-100761000D01*
X127629894Y-100833455D01*
X127629894Y-100833455D01*
G37*
X127629894Y-100833455D02*
X127336595Y-101588031D01*
X127354386Y-102397409D01*
X127629894Y-103062545D01*
X127635000Y-103064988D01*
X127635000Y-106231012D01*
X127629894Y-106233455D01*
X127336595Y-106988031D01*
X127354386Y-107797409D01*
X127629894Y-108462545D01*
X127636567Y-108465738D01*
X127645006Y-108507410D01*
X127672197Y-108547803D01*
X128180197Y-109055803D01*
X128222211Y-109083666D01*
X128262291Y-109091494D01*
X128265455Y-109098106D01*
X129020031Y-109391405D01*
X129829409Y-109373614D01*
X130494545Y-109098106D01*
X130496988Y-109093000D01*
X133663012Y-109093000D01*
X133665455Y-109098106D01*
X134420031Y-109391405D01*
X135229409Y-109373614D01*
X135894545Y-109098106D01*
X135897738Y-109091433D01*
X135939410Y-109082994D01*
X135979803Y-109055803D01*
X136487803Y-108547803D01*
X136515666Y-108505789D01*
X136523494Y-108465709D01*
X136530106Y-108462545D01*
X136823405Y-107707969D01*
X136805614Y-106898591D01*
X136530106Y-106233455D01*
X136525000Y-106231012D01*
X136525000Y-103064988D01*
X136530106Y-103062545D01*
X136823405Y-102307969D01*
X136805614Y-101498591D01*
X136530106Y-100833455D01*
X136378697Y-100761000D01*
X139973303Y-100761000D01*
X139821894Y-100833455D01*
X139528595Y-101588031D01*
X139546386Y-102397409D01*
X139821894Y-103062545D01*
X139827000Y-103064988D01*
X139827000Y-106231012D01*
X139821894Y-106233455D01*
X139528595Y-106988031D01*
X139546386Y-107797409D01*
X139821894Y-108462545D01*
X139828567Y-108465738D01*
X139837006Y-108507410D01*
X139864197Y-108547803D01*
X140372197Y-109055803D01*
X140414211Y-109083666D01*
X140454291Y-109091494D01*
X140457455Y-109098106D01*
X141212031Y-109391405D01*
X142021409Y-109373614D01*
X142113000Y-109335676D01*
X142113000Y-109507496D01*
X142099682Y-109574815D01*
X142113000Y-109598070D01*
X142113000Y-110233930D01*
X142099682Y-110257185D01*
X142113000Y-110324504D01*
X142113000Y-110617000D01*
X137974606Y-110617000D01*
X136995803Y-109638197D01*
X136953789Y-109610334D01*
X136906000Y-109601000D01*
X133096000Y-109601000D01*
X133046590Y-109611006D01*
X133006197Y-109638197D01*
X131736197Y-110908197D01*
X131708334Y-110950211D01*
X131701434Y-110985541D01*
X131661673Y-111025301D01*
X131565000Y-111258690D01*
X131565000Y-111474250D01*
X131699000Y-111608250D01*
X131699000Y-111911750D01*
X131565000Y-112045750D01*
X131565000Y-112160572D01*
X131461440Y-112091376D01*
X131461440Y-111972000D01*
X131441933Y-111868329D01*
X131461440Y-111772000D01*
X131461440Y-111322000D01*
X131417162Y-111086683D01*
X131278090Y-110870559D01*
X131065890Y-110725569D01*
X130814000Y-110674560D01*
X129364000Y-110674560D01*
X129128683Y-110718838D01*
X128912559Y-110857910D01*
X128767569Y-111070110D01*
X128716560Y-111322000D01*
X128716560Y-111772000D01*
X128736067Y-111875671D01*
X128716560Y-111972000D01*
X128716560Y-112422000D01*
X128736067Y-112525671D01*
X128716560Y-112622000D01*
X128716560Y-113072000D01*
X128736067Y-113175671D01*
X128716560Y-113272000D01*
X128716560Y-113722000D01*
X128717384Y-113726380D01*
X128404204Y-114039560D01*
X128239000Y-114039560D01*
X128143000Y-114057624D01*
X128143000Y-113284000D01*
X128132994Y-113234590D01*
X128105803Y-113194197D01*
X127597803Y-112686197D01*
X127555789Y-112658334D01*
X127508000Y-112649000D01*
X127061440Y-112649000D01*
X127061440Y-112622000D01*
X127041933Y-112518329D01*
X127061440Y-112422000D01*
X127061440Y-111972000D01*
X127041933Y-111868329D01*
X127061440Y-111772000D01*
X127061440Y-111322000D01*
X127017162Y-111086683D01*
X126878090Y-110870559D01*
X126665890Y-110725569D01*
X126414000Y-110674560D01*
X124964000Y-110674560D01*
X124775668Y-110709997D01*
X124765090Y-110693559D01*
X124552890Y-110548569D01*
X124301000Y-110497560D01*
X123478440Y-110497560D01*
X123570173Y-110328684D01*
X123584318Y-110257185D01*
X123461656Y-110043000D01*
X121869000Y-110043000D01*
X121869000Y-110063000D01*
X121615000Y-110063000D01*
X121615000Y-110043000D01*
X120022344Y-110043000D01*
X119899682Y-110257185D01*
X119913827Y-110328684D01*
X120042142Y-110564904D01*
X119941302Y-110606673D01*
X119762673Y-110785301D01*
X119727175Y-110871000D01*
X119380000Y-110871000D01*
X119330590Y-110881006D01*
X119288965Y-110909447D01*
X119261685Y-110951841D01*
X119253000Y-110998000D01*
X119253000Y-113645241D01*
X119141000Y-113622560D01*
X119110006Y-113622560D01*
X118491000Y-113003554D01*
X118491000Y-109347000D01*
X119573789Y-109347000D01*
X119688031Y-109391405D01*
X119978080Y-109385029D01*
X119913827Y-109503316D01*
X119899682Y-109574815D01*
X120022344Y-109789000D01*
X121615000Y-109789000D01*
X121615000Y-109769000D01*
X121869000Y-109769000D01*
X121869000Y-109789000D01*
X123461656Y-109789000D01*
X123584318Y-109574815D01*
X123570173Y-109503316D01*
X123311145Y-109026460D01*
X122889349Y-108685028D01*
X122369000Y-108531000D01*
X121793000Y-108531000D01*
X121793000Y-108464988D01*
X121798106Y-108462545D01*
X122091405Y-107707969D01*
X122073614Y-106898591D01*
X121798106Y-106233455D01*
X121793000Y-106231012D01*
X121793000Y-103064988D01*
X121798106Y-103062545D01*
X122091405Y-102307969D01*
X122073614Y-101498591D01*
X121798106Y-100833455D01*
X121646697Y-100761000D01*
X127781303Y-100761000D01*
X127629894Y-100833455D01*
G36*
X107285000Y-109309379D02*
X107285000Y-109696250D01*
X107443750Y-109855000D01*
X108143000Y-109855000D01*
X108143000Y-109835000D01*
X108397000Y-109835000D01*
X108397000Y-109855000D01*
X108417000Y-109855000D01*
X108417000Y-110109000D01*
X108397000Y-110109000D01*
X108397000Y-111108250D01*
X108471500Y-111182750D01*
X108471500Y-111595160D01*
X108217500Y-111595160D01*
X108217500Y-111118650D01*
X108143000Y-111044150D01*
X108143000Y-110109000D01*
X107443750Y-110109000D01*
X107285000Y-110267750D01*
X107285000Y-110758310D01*
X107381673Y-110991699D01*
X107432856Y-111042881D01*
X107399801Y-111056573D01*
X107221173Y-111235202D01*
X107221130Y-111235305D01*
X107138310Y-111201000D01*
X106490406Y-111201000D01*
X106653441Y-111096090D01*
X106798431Y-110883890D01*
X106849440Y-110632000D01*
X106849440Y-109332000D01*
X106810478Y-109124935D01*
X107285000Y-109309379D01*
X107285000Y-109309379D01*
G37*
X107285000Y-109309379D02*
X107285000Y-109696250D01*
X107443750Y-109855000D01*
X108143000Y-109855000D01*
X108143000Y-109835000D01*
X108397000Y-109835000D01*
X108397000Y-109855000D01*
X108417000Y-109855000D01*
X108417000Y-110109000D01*
X108397000Y-110109000D01*
X108397000Y-111108250D01*
X108471500Y-111182750D01*
X108471500Y-111595160D01*
X108217500Y-111595160D01*
X108217500Y-111118650D01*
X108143000Y-111044150D01*
X108143000Y-110109000D01*
X107443750Y-110109000D01*
X107285000Y-110267750D01*
X107285000Y-110758310D01*
X107381673Y-110991699D01*
X107432856Y-111042881D01*
X107399801Y-111056573D01*
X107221173Y-111235202D01*
X107221130Y-111235305D01*
X107138310Y-111201000D01*
X106490406Y-111201000D01*
X106653441Y-111096090D01*
X106798431Y-110883890D01*
X106849440Y-110632000D01*
X106849440Y-109332000D01*
X106810478Y-109124935D01*
X107285000Y-109309379D01*
G36*
X112686197Y-101002197D02*
X112658334Y-101044211D01*
X112649000Y-101092000D01*
X112649000Y-101473789D01*
X112604595Y-101588031D01*
X112622386Y-102397409D01*
X112649000Y-102461661D01*
X112649000Y-106873788D01*
X112622475Y-106942029D01*
X109601000Y-103920554D01*
X109601000Y-103064988D01*
X109606106Y-103062545D01*
X109899405Y-102307969D01*
X109881614Y-101498591D01*
X109606106Y-100833455D01*
X109454697Y-100761000D01*
X112927394Y-100761000D01*
X112686197Y-101002197D01*
X112686197Y-101002197D01*
G37*
X112686197Y-101002197D02*
X112658334Y-101044211D01*
X112649000Y-101092000D01*
X112649000Y-101473789D01*
X112604595Y-101588031D01*
X112622386Y-102397409D01*
X112649000Y-102461661D01*
X112649000Y-106873788D01*
X112622475Y-106942029D01*
X109601000Y-103920554D01*
X109601000Y-103064988D01*
X109606106Y-103062545D01*
X109899405Y-102307969D01*
X109881614Y-101498591D01*
X109606106Y-100833455D01*
X109454697Y-100761000D01*
X112927394Y-100761000D01*
X112686197Y-101002197D01*
G36*
X118989910Y-137873441D02*
X119059711Y-137921134D01*
X119002559Y-137957910D01*
X118857569Y-138170110D01*
X118806560Y-138422000D01*
X118806560Y-138462204D01*
X117683686Y-139585078D01*
X117675767Y-139565914D01*
X117356765Y-139246355D01*
X116939756Y-139073197D01*
X116488225Y-139072803D01*
X116439440Y-139092961D01*
X116439440Y-138958000D01*
X116395162Y-138722683D01*
X116256090Y-138506559D01*
X116043890Y-138361569D01*
X115792000Y-138310560D01*
X114792000Y-138310560D01*
X114556683Y-138354838D01*
X114340559Y-138493910D01*
X114195569Y-138706110D01*
X114144560Y-138958000D01*
X114144560Y-141458000D01*
X114188838Y-141693317D01*
X114327910Y-141909441D01*
X114540110Y-142054431D01*
X114792000Y-142105440D01*
X115792000Y-142105440D01*
X116027317Y-142061162D01*
X116061882Y-142038920D01*
X116063838Y-142049317D01*
X116104817Y-142113000D01*
X108677446Y-142113000D01*
X109012223Y-141778223D01*
X109259994Y-141407407D01*
X109347000Y-140970000D01*
X109347000Y-140493750D01*
X111157000Y-140493750D01*
X111157000Y-141584310D01*
X111253673Y-141817699D01*
X111432302Y-141996327D01*
X111665691Y-142093000D01*
X112006250Y-142093000D01*
X112165000Y-141934250D01*
X112165000Y-140335000D01*
X112419000Y-140335000D01*
X112419000Y-141934250D01*
X112577750Y-142093000D01*
X112918309Y-142093000D01*
X113151698Y-141996327D01*
X113330327Y-141817699D01*
X113427000Y-141584310D01*
X113427000Y-140493750D01*
X113268250Y-140335000D01*
X112419000Y-140335000D01*
X112165000Y-140335000D01*
X111315750Y-140335000D01*
X111157000Y-140493750D01*
X109347000Y-140493750D01*
X109347000Y-139446000D01*
X109259994Y-139008593D01*
X109141792Y-138831690D01*
X111157000Y-138831690D01*
X111157000Y-139922250D01*
X111315750Y-140081000D01*
X112165000Y-140081000D01*
X112165000Y-138481750D01*
X112419000Y-138481750D01*
X112419000Y-140081000D01*
X113268250Y-140081000D01*
X113427000Y-139922250D01*
X113427000Y-138831690D01*
X113330327Y-138598301D01*
X113151698Y-138419673D01*
X112918309Y-138323000D01*
X112577750Y-138323000D01*
X112419000Y-138481750D01*
X112165000Y-138481750D01*
X112006250Y-138323000D01*
X111665691Y-138323000D01*
X111432302Y-138419673D01*
X111253673Y-138598301D01*
X111157000Y-138831690D01*
X109141792Y-138831690D01*
X109012223Y-138637777D01*
X108169446Y-137795000D01*
X118939435Y-137795000D01*
X118989910Y-137873441D01*
X118989910Y-137873441D01*
G37*
X118989910Y-137873441D02*
X119059711Y-137921134D01*
X119002559Y-137957910D01*
X118857569Y-138170110D01*
X118806560Y-138422000D01*
X118806560Y-138462204D01*
X117683686Y-139585078D01*
X117675767Y-139565914D01*
X117356765Y-139246355D01*
X116939756Y-139073197D01*
X116488225Y-139072803D01*
X116439440Y-139092961D01*
X116439440Y-138958000D01*
X116395162Y-138722683D01*
X116256090Y-138506559D01*
X116043890Y-138361569D01*
X115792000Y-138310560D01*
X114792000Y-138310560D01*
X114556683Y-138354838D01*
X114340559Y-138493910D01*
X114195569Y-138706110D01*
X114144560Y-138958000D01*
X114144560Y-141458000D01*
X114188838Y-141693317D01*
X114327910Y-141909441D01*
X114540110Y-142054431D01*
X114792000Y-142105440D01*
X115792000Y-142105440D01*
X116027317Y-142061162D01*
X116061882Y-142038920D01*
X116063838Y-142049317D01*
X116104817Y-142113000D01*
X108677446Y-142113000D01*
X109012223Y-141778223D01*
X109259994Y-141407407D01*
X109347000Y-140970000D01*
X109347000Y-140493750D01*
X111157000Y-140493750D01*
X111157000Y-141584310D01*
X111253673Y-141817699D01*
X111432302Y-141996327D01*
X111665691Y-142093000D01*
X112006250Y-142093000D01*
X112165000Y-141934250D01*
X112165000Y-140335000D01*
X112419000Y-140335000D01*
X112419000Y-141934250D01*
X112577750Y-142093000D01*
X112918309Y-142093000D01*
X113151698Y-141996327D01*
X113330327Y-141817699D01*
X113427000Y-141584310D01*
X113427000Y-140493750D01*
X113268250Y-140335000D01*
X112419000Y-140335000D01*
X112165000Y-140335000D01*
X111315750Y-140335000D01*
X111157000Y-140493750D01*
X109347000Y-140493750D01*
X109347000Y-139446000D01*
X109259994Y-139008593D01*
X109141792Y-138831690D01*
X111157000Y-138831690D01*
X111157000Y-139922250D01*
X111315750Y-140081000D01*
X112165000Y-140081000D01*
X112165000Y-138481750D01*
X112419000Y-138481750D01*
X112419000Y-140081000D01*
X113268250Y-140081000D01*
X113427000Y-139922250D01*
X113427000Y-138831690D01*
X113330327Y-138598301D01*
X113151698Y-138419673D01*
X112918309Y-138323000D01*
X112577750Y-138323000D01*
X112419000Y-138481750D01*
X112165000Y-138481750D01*
X112006250Y-138323000D01*
X111665691Y-138323000D01*
X111432302Y-138419673D01*
X111253673Y-138598301D01*
X111157000Y-138831690D01*
X109141792Y-138831690D01*
X109012223Y-138637777D01*
X108169446Y-137795000D01*
X118939435Y-137795000D01*
X118989910Y-137873441D01*
G36*
X132705000Y-128202440D02*
X132955000Y-128202440D01*
X133068000Y-128181178D01*
X133068000Y-129192000D01*
X133089056Y-129297858D01*
X132977197Y-129567244D01*
X132976803Y-130018775D01*
X133149233Y-130436086D01*
X133180560Y-130467468D01*
X133180560Y-130698000D01*
X133224838Y-130933317D01*
X133363910Y-131149441D01*
X133576110Y-131294431D01*
X133828000Y-131345440D01*
X134528000Y-131345440D01*
X134763317Y-131301162D01*
X134979441Y-131162090D01*
X135124431Y-130949890D01*
X135131191Y-130916510D01*
X135189673Y-131057699D01*
X135368302Y-131236327D01*
X135601691Y-131333000D01*
X135792250Y-131333000D01*
X135951000Y-131174250D01*
X135951000Y-130175000D01*
X135931000Y-130175000D01*
X135931000Y-129921000D01*
X135951000Y-129921000D01*
X135951000Y-129901000D01*
X136205000Y-129901000D01*
X136205000Y-129921000D01*
X136225000Y-129921000D01*
X136225000Y-130175000D01*
X136205000Y-130175000D01*
X136205000Y-131174250D01*
X136291000Y-131260250D01*
X136291000Y-131412309D01*
X136387673Y-131645698D01*
X136566301Y-131824327D01*
X136799690Y-131921000D01*
X137890250Y-131921000D01*
X138049000Y-131762250D01*
X138049000Y-130913000D01*
X138029000Y-130913000D01*
X138029000Y-130659000D01*
X138049000Y-130659000D01*
X138049000Y-129809750D01*
X137890250Y-129651000D01*
X137063000Y-129651000D01*
X137063000Y-129271690D01*
X136966327Y-129038301D01*
X136845078Y-128917053D01*
X136926000Y-128933440D01*
X139319000Y-128933440D01*
X139319000Y-129651000D01*
X138461750Y-129651000D01*
X138303000Y-129809750D01*
X138303000Y-130659000D01*
X138323000Y-130659000D01*
X138323000Y-130913000D01*
X138303000Y-130913000D01*
X138303000Y-131762250D01*
X138461750Y-131921000D01*
X139319000Y-131921000D01*
X139319000Y-134874000D01*
X139329006Y-134923410D01*
X139356197Y-134963803D01*
X140409394Y-136017000D01*
X128016000Y-136017000D01*
X127966590Y-136027006D01*
X127924965Y-136055447D01*
X127897685Y-136097841D01*
X127889000Y-136144000D01*
X127889000Y-140155394D01*
X126743322Y-141301072D01*
X126633250Y-141191000D01*
X125984000Y-141191000D01*
X125984000Y-141211000D01*
X125730000Y-141211000D01*
X125730000Y-141191000D01*
X125710000Y-141191000D01*
X125710000Y-140937000D01*
X125730000Y-140937000D01*
X125730000Y-139837750D01*
X125984000Y-139837750D01*
X125984000Y-140937000D01*
X126633250Y-140937000D01*
X126792000Y-140778250D01*
X126792000Y-140187691D01*
X126695327Y-139954302D01*
X126516699Y-139775673D01*
X126283310Y-139679000D01*
X126142750Y-139679000D01*
X125984000Y-139837750D01*
X125730000Y-139837750D01*
X125571250Y-139679000D01*
X125476000Y-139679000D01*
X125476000Y-139196864D01*
X125594803Y-138910756D01*
X125595197Y-138459225D01*
X125534895Y-138313284D01*
X125599317Y-138301162D01*
X125815441Y-138162090D01*
X125960431Y-137949890D01*
X126011440Y-137698000D01*
X126011440Y-136998000D01*
X126001590Y-136945652D01*
X126014815Y-136936815D01*
X132368815Y-130582815D01*
X132430832Y-130490000D01*
X132533996Y-130335605D01*
X132592000Y-130044000D01*
X132592000Y-128179557D01*
X132705000Y-128202440D01*
X132705000Y-128202440D01*
G37*
X132705000Y-128202440D02*
X132955000Y-128202440D01*
X133068000Y-128181178D01*
X133068000Y-129192000D01*
X133089056Y-129297858D01*
X132977197Y-129567244D01*
X132976803Y-130018775D01*
X133149233Y-130436086D01*
X133180560Y-130467468D01*
X133180560Y-130698000D01*
X133224838Y-130933317D01*
X133363910Y-131149441D01*
X133576110Y-131294431D01*
X133828000Y-131345440D01*
X134528000Y-131345440D01*
X134763317Y-131301162D01*
X134979441Y-131162090D01*
X135124431Y-130949890D01*
X135131191Y-130916510D01*
X135189673Y-131057699D01*
X135368302Y-131236327D01*
X135601691Y-131333000D01*
X135792250Y-131333000D01*
X135951000Y-131174250D01*
X135951000Y-130175000D01*
X135931000Y-130175000D01*
X135931000Y-129921000D01*
X135951000Y-129921000D01*
X135951000Y-129901000D01*
X136205000Y-129901000D01*
X136205000Y-129921000D01*
X136225000Y-129921000D01*
X136225000Y-130175000D01*
X136205000Y-130175000D01*
X136205000Y-131174250D01*
X136291000Y-131260250D01*
X136291000Y-131412309D01*
X136387673Y-131645698D01*
X136566301Y-131824327D01*
X136799690Y-131921000D01*
X137890250Y-131921000D01*
X138049000Y-131762250D01*
X138049000Y-130913000D01*
X138029000Y-130913000D01*
X138029000Y-130659000D01*
X138049000Y-130659000D01*
X138049000Y-129809750D01*
X137890250Y-129651000D01*
X137063000Y-129651000D01*
X137063000Y-129271690D01*
X136966327Y-129038301D01*
X136845078Y-128917053D01*
X136926000Y-128933440D01*
X139319000Y-128933440D01*
X139319000Y-129651000D01*
X138461750Y-129651000D01*
X138303000Y-129809750D01*
X138303000Y-130659000D01*
X138323000Y-130659000D01*
X138323000Y-130913000D01*
X138303000Y-130913000D01*
X138303000Y-131762250D01*
X138461750Y-131921000D01*
X139319000Y-131921000D01*
X139319000Y-134874000D01*
X139329006Y-134923410D01*
X139356197Y-134963803D01*
X140409394Y-136017000D01*
X128016000Y-136017000D01*
X127966590Y-136027006D01*
X127924965Y-136055447D01*
X127897685Y-136097841D01*
X127889000Y-136144000D01*
X127889000Y-140155394D01*
X126743322Y-141301072D01*
X126633250Y-141191000D01*
X125984000Y-141191000D01*
X125984000Y-141211000D01*
X125730000Y-141211000D01*
X125730000Y-141191000D01*
X125710000Y-141191000D01*
X125710000Y-140937000D01*
X125730000Y-140937000D01*
X125730000Y-139837750D01*
X125984000Y-139837750D01*
X125984000Y-140937000D01*
X126633250Y-140937000D01*
X126792000Y-140778250D01*
X126792000Y-140187691D01*
X126695327Y-139954302D01*
X126516699Y-139775673D01*
X126283310Y-139679000D01*
X126142750Y-139679000D01*
X125984000Y-139837750D01*
X125730000Y-139837750D01*
X125571250Y-139679000D01*
X125476000Y-139679000D01*
X125476000Y-139196864D01*
X125594803Y-138910756D01*
X125595197Y-138459225D01*
X125534895Y-138313284D01*
X125599317Y-138301162D01*
X125815441Y-138162090D01*
X125960431Y-137949890D01*
X126011440Y-137698000D01*
X126011440Y-136998000D01*
X126001590Y-136945652D01*
X126014815Y-136936815D01*
X132368815Y-130582815D01*
X132430832Y-130490000D01*
X132533996Y-130335605D01*
X132592000Y-130044000D01*
X132592000Y-128179557D01*
X132705000Y-128202440D01*
G36*
X127127000Y-128204000D02*
X127147000Y-128204000D01*
X127147000Y-128458000D01*
X127127000Y-128458000D01*
X127127000Y-128478000D01*
X126873000Y-128478000D01*
X126873000Y-128458000D01*
X126853000Y-128458000D01*
X126853000Y-128204000D01*
X126873000Y-128204000D01*
X126873000Y-128184000D01*
X127127000Y-128184000D01*
X127127000Y-128204000D01*
X127127000Y-128204000D01*
G37*
X127127000Y-128204000D02*
X127147000Y-128204000D01*
X127147000Y-128458000D01*
X127127000Y-128458000D01*
X127127000Y-128478000D01*
X126873000Y-128478000D01*
X126873000Y-128458000D01*
X126853000Y-128458000D01*
X126853000Y-128204000D01*
X126873000Y-128204000D01*
X126873000Y-128184000D01*
X127127000Y-128184000D01*
X127127000Y-128204000D01*
G36*
X136017000Y-127877000D02*
X136037000Y-127877000D01*
X136037000Y-128131000D01*
X136017000Y-128131000D01*
X136017000Y-128151000D01*
X135763000Y-128151000D01*
X135763000Y-128131000D01*
X135743000Y-128131000D01*
X135743000Y-127877000D01*
X135763000Y-127877000D01*
X135763000Y-127857000D01*
X136017000Y-127857000D01*
X136017000Y-127877000D01*
X136017000Y-127877000D01*
G37*
X136017000Y-127877000D02*
X136037000Y-127877000D01*
X136037000Y-128131000D01*
X136017000Y-128131000D01*
X136017000Y-128151000D01*
X135763000Y-128151000D01*
X135763000Y-128131000D01*
X135743000Y-128131000D01*
X135743000Y-127877000D01*
X135763000Y-127877000D01*
X135763000Y-127857000D01*
X136017000Y-127857000D01*
X136017000Y-127877000D01*
G36*
X133590686Y-124912733D02*
X133677245Y-125121704D01*
X133711205Y-125119843D01*
X133810921Y-125269079D01*
X133960157Y-125368795D01*
X133958296Y-125402755D01*
X134120124Y-125459659D01*
X134119975Y-125631225D01*
X134108750Y-125620000D01*
X134078690Y-125620000D01*
X134058247Y-125628468D01*
X133955000Y-125607560D01*
X133705000Y-125607560D01*
X133575411Y-125631944D01*
X133468994Y-125610394D01*
X133469197Y-125378225D01*
X133296767Y-124960914D01*
X133177062Y-124841000D01*
X133586767Y-124841000D01*
X133590686Y-124912733D01*
X133590686Y-124912733D01*
G37*
X133590686Y-124912733D02*
X133677245Y-125121704D01*
X133711205Y-125119843D01*
X133810921Y-125269079D01*
X133960157Y-125368795D01*
X133958296Y-125402755D01*
X134120124Y-125459659D01*
X134119975Y-125631225D01*
X134108750Y-125620000D01*
X134078690Y-125620000D01*
X134058247Y-125628468D01*
X133955000Y-125607560D01*
X133705000Y-125607560D01*
X133575411Y-125631944D01*
X133468994Y-125610394D01*
X133469197Y-125378225D01*
X133296767Y-124960914D01*
X133177062Y-124841000D01*
X133586767Y-124841000D01*
X133590686Y-124912733D01*
G36*
X125984000Y-146337000D02*
X126004000Y-146337000D01*
X126004000Y-146591000D01*
X125984000Y-146591000D01*
X125984000Y-147690250D01*
X126142750Y-147849000D01*
X126283310Y-147849000D01*
X126516699Y-147752327D01*
X126695327Y-147573698D01*
X126792000Y-147340309D01*
X126792000Y-146845236D01*
X129121764Y-149175000D01*
X118932025Y-149175000D01*
X119036327Y-149070699D01*
X119133000Y-148837310D01*
X119133000Y-148621750D01*
X118974250Y-148463000D01*
X118225000Y-148463000D01*
X118225000Y-148483000D01*
X117971000Y-148483000D01*
X117971000Y-148463000D01*
X117951000Y-148463000D01*
X117951000Y-148209000D01*
X117971000Y-148209000D01*
X117971000Y-148189000D01*
X118225000Y-148189000D01*
X118225000Y-148209000D01*
X118974250Y-148209000D01*
X119133000Y-148050250D01*
X119133000Y-147846455D01*
X119207000Y-147861440D01*
X119807000Y-147861440D01*
X120042317Y-147817162D01*
X120141528Y-147753322D01*
X120225110Y-147810431D01*
X120477000Y-147861440D01*
X121077000Y-147861440D01*
X121312317Y-147817162D01*
X121411528Y-147753322D01*
X121495110Y-147810431D01*
X121747000Y-147861440D01*
X122054970Y-147861440D01*
X122054803Y-148052775D01*
X122227233Y-148470086D01*
X122546235Y-148789645D01*
X122963244Y-148962803D01*
X123414775Y-148963197D01*
X123825495Y-148793490D01*
X124233244Y-148962803D01*
X124684775Y-148963197D01*
X125102086Y-148790767D01*
X125421645Y-148471765D01*
X125594803Y-148054756D01*
X125595003Y-147825247D01*
X125730000Y-147690250D01*
X125730000Y-146591000D01*
X125710000Y-146591000D01*
X125710000Y-146337000D01*
X125730000Y-146337000D01*
X125730000Y-146317000D01*
X125984000Y-146317000D01*
X125984000Y-146337000D01*
X125984000Y-146337000D01*
G37*
X125984000Y-146337000D02*
X126004000Y-146337000D01*
X126004000Y-146591000D01*
X125984000Y-146591000D01*
X125984000Y-147690250D01*
X126142750Y-147849000D01*
X126283310Y-147849000D01*
X126516699Y-147752327D01*
X126695327Y-147573698D01*
X126792000Y-147340309D01*
X126792000Y-146845236D01*
X129121764Y-149175000D01*
X118932025Y-149175000D01*
X119036327Y-149070699D01*
X119133000Y-148837310D01*
X119133000Y-148621750D01*
X118974250Y-148463000D01*
X118225000Y-148463000D01*
X118225000Y-148483000D01*
X117971000Y-148483000D01*
X117971000Y-148463000D01*
X117951000Y-148463000D01*
X117951000Y-148209000D01*
X117971000Y-148209000D01*
X117971000Y-148189000D01*
X118225000Y-148189000D01*
X118225000Y-148209000D01*
X118974250Y-148209000D01*
X119133000Y-148050250D01*
X119133000Y-147846455D01*
X119207000Y-147861440D01*
X119807000Y-147861440D01*
X120042317Y-147817162D01*
X120141528Y-147753322D01*
X120225110Y-147810431D01*
X120477000Y-147861440D01*
X121077000Y-147861440D01*
X121312317Y-147817162D01*
X121411528Y-147753322D01*
X121495110Y-147810431D01*
X121747000Y-147861440D01*
X122054970Y-147861440D01*
X122054803Y-148052775D01*
X122227233Y-148470086D01*
X122546235Y-148789645D01*
X122963244Y-148962803D01*
X123414775Y-148963197D01*
X123825495Y-148793490D01*
X124233244Y-148962803D01*
X124684775Y-148963197D01*
X125102086Y-148790767D01*
X125421645Y-148471765D01*
X125594803Y-148054756D01*
X125595003Y-147825247D01*
X125730000Y-147690250D01*
X125730000Y-146591000D01*
X125710000Y-146591000D01*
X125710000Y-146337000D01*
X125730000Y-146337000D01*
X125730000Y-146317000D01*
X125984000Y-146317000D01*
X125984000Y-146337000D01*
G36*
X143493319Y-139100925D02*
X143373000Y-139076560D01*
X142123000Y-139076560D01*
X142099403Y-139081000D01*
X139700440Y-139081000D01*
X139700440Y-138498000D01*
X139656162Y-138262683D01*
X139517090Y-138046559D01*
X139304890Y-137901569D01*
X139053000Y-137850560D01*
X137553000Y-137850560D01*
X137317683Y-137894838D01*
X137101559Y-138033910D01*
X137033266Y-138133860D01*
X136977090Y-138046559D01*
X136764890Y-137901569D01*
X136513000Y-137850560D01*
X135013000Y-137850560D01*
X134777683Y-137894838D01*
X134561559Y-138033910D01*
X134493266Y-138133860D01*
X134437090Y-138046559D01*
X134224890Y-137901569D01*
X133973000Y-137850560D01*
X132473000Y-137850560D01*
X132237683Y-137894838D01*
X132021559Y-138033910D01*
X131958795Y-138125769D01*
X131792698Y-137959673D01*
X131559309Y-137863000D01*
X130968750Y-137863000D01*
X130810000Y-138021750D01*
X130810000Y-140121000D01*
X130830000Y-140121000D01*
X130830000Y-140375000D01*
X130810000Y-140375000D01*
X130810000Y-142474250D01*
X130968750Y-142633000D01*
X131559309Y-142633000D01*
X131792698Y-142536327D01*
X131958275Y-142370751D01*
X132008910Y-142449441D01*
X132221110Y-142594431D01*
X132473000Y-142645440D01*
X133973000Y-142645440D01*
X134208317Y-142601162D01*
X134424441Y-142462090D01*
X134492734Y-142362140D01*
X134548910Y-142449441D01*
X134761110Y-142594431D01*
X135013000Y-142645440D01*
X136513000Y-142645440D01*
X136748317Y-142601162D01*
X136964441Y-142462090D01*
X137032734Y-142362140D01*
X137088910Y-142449441D01*
X137301110Y-142594431D01*
X137553000Y-142645440D01*
X139053000Y-142645440D01*
X139288317Y-142601162D01*
X139430375Y-142509750D01*
X141488000Y-142509750D01*
X141488000Y-142850309D01*
X141584673Y-143083698D01*
X141763301Y-143262327D01*
X141996690Y-143359000D01*
X142462250Y-143359000D01*
X142621000Y-143200250D01*
X142621000Y-142351000D01*
X141646750Y-142351000D01*
X141488000Y-142509750D01*
X139430375Y-142509750D01*
X139504441Y-142462090D01*
X139649431Y-142249890D01*
X139700440Y-141998000D01*
X139700440Y-141367000D01*
X141583555Y-141367000D01*
X141488000Y-141597691D01*
X141488000Y-141938250D01*
X141646750Y-142097000D01*
X142621000Y-142097000D01*
X142621000Y-142077000D01*
X142875000Y-142077000D01*
X142875000Y-142097000D01*
X142895000Y-142097000D01*
X142895000Y-142351000D01*
X142875000Y-142351000D01*
X142875000Y-143200250D01*
X143033750Y-143359000D01*
X143499310Y-143359000D01*
X143637000Y-143301967D01*
X143637000Y-144210569D01*
X143624560Y-144272000D01*
X143624560Y-146304000D01*
X143637000Y-146370113D01*
X143637000Y-146750569D01*
X143624560Y-146812000D01*
X143624560Y-148844000D01*
X143637000Y-148910113D01*
X143637000Y-149175000D01*
X136562236Y-149175000D01*
X137661618Y-148075618D01*
X137854329Y-147787206D01*
X137886398Y-147625984D01*
X138018317Y-147601162D01*
X138234441Y-147462090D01*
X138297205Y-147370231D01*
X138463302Y-147536327D01*
X138696691Y-147633000D01*
X139287250Y-147633000D01*
X139446000Y-147474250D01*
X139446000Y-145375000D01*
X139700000Y-145375000D01*
X139700000Y-147474250D01*
X139858750Y-147633000D01*
X140449309Y-147633000D01*
X140682698Y-147536327D01*
X140861327Y-147357699D01*
X140958000Y-147124310D01*
X140958000Y-145533750D01*
X140799250Y-145375000D01*
X139700000Y-145375000D01*
X139446000Y-145375000D01*
X139426000Y-145375000D01*
X139426000Y-145121000D01*
X139446000Y-145121000D01*
X139446000Y-143021750D01*
X139700000Y-143021750D01*
X139700000Y-145121000D01*
X140799250Y-145121000D01*
X140958000Y-144962250D01*
X140958000Y-143371690D01*
X140861327Y-143138301D01*
X140682698Y-142959673D01*
X140449309Y-142863000D01*
X139858750Y-142863000D01*
X139700000Y-143021750D01*
X139446000Y-143021750D01*
X139287250Y-142863000D01*
X138696691Y-142863000D01*
X138463302Y-142959673D01*
X138297725Y-143125249D01*
X138247090Y-143046559D01*
X138034890Y-142901569D01*
X137783000Y-142850560D01*
X136283000Y-142850560D01*
X136047683Y-142894838D01*
X135831559Y-143033910D01*
X135763266Y-143133860D01*
X135707090Y-143046559D01*
X135494890Y-142901569D01*
X135243000Y-142850560D01*
X133743000Y-142850560D01*
X133507683Y-142894838D01*
X133291559Y-143033910D01*
X133223266Y-143133860D01*
X133167090Y-143046559D01*
X132954890Y-142901569D01*
X132703000Y-142850560D01*
X131203000Y-142850560D01*
X130967683Y-142894838D01*
X130900381Y-142938145D01*
X130843618Y-142881382D01*
X130797114Y-142850309D01*
X130555206Y-142688671D01*
X130275328Y-142633000D01*
X130397250Y-142633000D01*
X130556000Y-142474250D01*
X130556000Y-140375000D01*
X129456750Y-140375000D01*
X129298000Y-140533750D01*
X129298000Y-142124310D01*
X129394673Y-142357699D01*
X129573302Y-142536327D01*
X129777720Y-142621000D01*
X126544606Y-142621000D01*
X128613803Y-140551803D01*
X128641666Y-140509789D01*
X128651000Y-140462000D01*
X128651000Y-138371690D01*
X129298000Y-138371690D01*
X129298000Y-139962250D01*
X129456750Y-140121000D01*
X130556000Y-140121000D01*
X130556000Y-138021750D01*
X130397250Y-137863000D01*
X129806691Y-137863000D01*
X129573302Y-137959673D01*
X129394673Y-138138301D01*
X129298000Y-138371690D01*
X128651000Y-138371690D01*
X128651000Y-136779000D01*
X141171394Y-136779000D01*
X143493319Y-139100925D01*
X143493319Y-139100925D01*
G37*
X143493319Y-139100925D02*
X143373000Y-139076560D01*
X142123000Y-139076560D01*
X142099403Y-139081000D01*
X139700440Y-139081000D01*
X139700440Y-138498000D01*
X139656162Y-138262683D01*
X139517090Y-138046559D01*
X139304890Y-137901569D01*
X139053000Y-137850560D01*
X137553000Y-137850560D01*
X137317683Y-137894838D01*
X137101559Y-138033910D01*
X137033266Y-138133860D01*
X136977090Y-138046559D01*
X136764890Y-137901569D01*
X136513000Y-137850560D01*
X135013000Y-137850560D01*
X134777683Y-137894838D01*
X134561559Y-138033910D01*
X134493266Y-138133860D01*
X134437090Y-138046559D01*
X134224890Y-137901569D01*
X133973000Y-137850560D01*
X132473000Y-137850560D01*
X132237683Y-137894838D01*
X132021559Y-138033910D01*
X131958795Y-138125769D01*
X131792698Y-137959673D01*
X131559309Y-137863000D01*
X130968750Y-137863000D01*
X130810000Y-138021750D01*
X130810000Y-140121000D01*
X130830000Y-140121000D01*
X130830000Y-140375000D01*
X130810000Y-140375000D01*
X130810000Y-142474250D01*
X130968750Y-142633000D01*
X131559309Y-142633000D01*
X131792698Y-142536327D01*
X131958275Y-142370751D01*
X132008910Y-142449441D01*
X132221110Y-142594431D01*
X132473000Y-142645440D01*
X133973000Y-142645440D01*
X134208317Y-142601162D01*
X134424441Y-142462090D01*
X134492734Y-142362140D01*
X134548910Y-142449441D01*
X134761110Y-142594431D01*
X135013000Y-142645440D01*
X136513000Y-142645440D01*
X136748317Y-142601162D01*
X136964441Y-142462090D01*
X137032734Y-142362140D01*
X137088910Y-142449441D01*
X137301110Y-142594431D01*
X137553000Y-142645440D01*
X139053000Y-142645440D01*
X139288317Y-142601162D01*
X139430375Y-142509750D01*
X141488000Y-142509750D01*
X141488000Y-142850309D01*
X141584673Y-143083698D01*
X141763301Y-143262327D01*
X141996690Y-143359000D01*
X142462250Y-143359000D01*
X142621000Y-143200250D01*
X142621000Y-142351000D01*
X141646750Y-142351000D01*
X141488000Y-142509750D01*
X139430375Y-142509750D01*
X139504441Y-142462090D01*
X139649431Y-142249890D01*
X139700440Y-141998000D01*
X139700440Y-141367000D01*
X141583555Y-141367000D01*
X141488000Y-141597691D01*
X141488000Y-141938250D01*
X141646750Y-142097000D01*
X142621000Y-142097000D01*
X142621000Y-142077000D01*
X142875000Y-142077000D01*
X142875000Y-142097000D01*
X142895000Y-142097000D01*
X142895000Y-142351000D01*
X142875000Y-142351000D01*
X142875000Y-143200250D01*
X143033750Y-143359000D01*
X143499310Y-143359000D01*
X143637000Y-143301967D01*
X143637000Y-144210569D01*
X143624560Y-144272000D01*
X143624560Y-146304000D01*
X143637000Y-146370113D01*
X143637000Y-146750569D01*
X143624560Y-146812000D01*
X143624560Y-148844000D01*
X143637000Y-148910113D01*
X143637000Y-149175000D01*
X136562236Y-149175000D01*
X137661618Y-148075618D01*
X137854329Y-147787206D01*
X137886398Y-147625984D01*
X138018317Y-147601162D01*
X138234441Y-147462090D01*
X138297205Y-147370231D01*
X138463302Y-147536327D01*
X138696691Y-147633000D01*
X139287250Y-147633000D01*
X139446000Y-147474250D01*
X139446000Y-145375000D01*
X139700000Y-145375000D01*
X139700000Y-147474250D01*
X139858750Y-147633000D01*
X140449309Y-147633000D01*
X140682698Y-147536327D01*
X140861327Y-147357699D01*
X140958000Y-147124310D01*
X140958000Y-145533750D01*
X140799250Y-145375000D01*
X139700000Y-145375000D01*
X139446000Y-145375000D01*
X139426000Y-145375000D01*
X139426000Y-145121000D01*
X139446000Y-145121000D01*
X139446000Y-143021750D01*
X139700000Y-143021750D01*
X139700000Y-145121000D01*
X140799250Y-145121000D01*
X140958000Y-144962250D01*
X140958000Y-143371690D01*
X140861327Y-143138301D01*
X140682698Y-142959673D01*
X140449309Y-142863000D01*
X139858750Y-142863000D01*
X139700000Y-143021750D01*
X139446000Y-143021750D01*
X139287250Y-142863000D01*
X138696691Y-142863000D01*
X138463302Y-142959673D01*
X138297725Y-143125249D01*
X138247090Y-143046559D01*
X138034890Y-142901569D01*
X137783000Y-142850560D01*
X136283000Y-142850560D01*
X136047683Y-142894838D01*
X135831559Y-143033910D01*
X135763266Y-143133860D01*
X135707090Y-143046559D01*
X135494890Y-142901569D01*
X135243000Y-142850560D01*
X133743000Y-142850560D01*
X133507683Y-142894838D01*
X133291559Y-143033910D01*
X133223266Y-143133860D01*
X133167090Y-143046559D01*
X132954890Y-142901569D01*
X132703000Y-142850560D01*
X131203000Y-142850560D01*
X130967683Y-142894838D01*
X130900381Y-142938145D01*
X130843618Y-142881382D01*
X130797114Y-142850309D01*
X130555206Y-142688671D01*
X130275328Y-142633000D01*
X130397250Y-142633000D01*
X130556000Y-142474250D01*
X130556000Y-140375000D01*
X129456750Y-140375000D01*
X129298000Y-140533750D01*
X129298000Y-142124310D01*
X129394673Y-142357699D01*
X129573302Y-142536327D01*
X129777720Y-142621000D01*
X126544606Y-142621000D01*
X128613803Y-140551803D01*
X128641666Y-140509789D01*
X128651000Y-140462000D01*
X128651000Y-138371690D01*
X129298000Y-138371690D01*
X129298000Y-139962250D01*
X129456750Y-140121000D01*
X130556000Y-140121000D01*
X130556000Y-138021750D01*
X130397250Y-137863000D01*
X129806691Y-137863000D01*
X129573302Y-137959673D01*
X129394673Y-138138301D01*
X129298000Y-138371690D01*
X128651000Y-138371690D01*
X128651000Y-136779000D01*
X141171394Y-136779000D01*
X143493319Y-139100925D01*
G36*
X110625110Y-147034431D02*
X110877000Y-147085440D01*
X111627000Y-147085440D01*
X111645915Y-147081881D01*
X111641197Y-147093244D01*
X111640803Y-147544775D01*
X111813233Y-147962086D01*
X112132235Y-148281645D01*
X112549244Y-148454803D01*
X113000775Y-148455197D01*
X113418086Y-148282767D01*
X113737645Y-147963765D01*
X113910803Y-147546756D01*
X113911015Y-147304334D01*
X113952910Y-147369441D01*
X114165110Y-147514431D01*
X114417000Y-147565440D01*
X114636742Y-147565440D01*
X114649169Y-147595515D01*
X115038436Y-147985461D01*
X115547298Y-148196759D01*
X115550560Y-148196762D01*
X115550560Y-148711000D01*
X115594838Y-148946317D01*
X115733910Y-149162441D01*
X115752291Y-149175000D01*
X110617000Y-149175000D01*
X110617000Y-147028890D01*
X110625110Y-147034431D01*
X110625110Y-147034431D01*
G37*
X110625110Y-147034431D02*
X110877000Y-147085440D01*
X111627000Y-147085440D01*
X111645915Y-147081881D01*
X111641197Y-147093244D01*
X111640803Y-147544775D01*
X111813233Y-147962086D01*
X112132235Y-148281645D01*
X112549244Y-148454803D01*
X113000775Y-148455197D01*
X113418086Y-148282767D01*
X113737645Y-147963765D01*
X113910803Y-147546756D01*
X113911015Y-147304334D01*
X113952910Y-147369441D01*
X114165110Y-147514431D01*
X114417000Y-147565440D01*
X114636742Y-147565440D01*
X114649169Y-147595515D01*
X115038436Y-147985461D01*
X115547298Y-148196759D01*
X115550560Y-148196762D01*
X115550560Y-148711000D01*
X115594838Y-148946317D01*
X115733910Y-149162441D01*
X115752291Y-149175000D01*
X110617000Y-149175000D01*
X110617000Y-147028890D01*
X110625110Y-147034431D01*
G36*
X118497382Y-142881382D02*
X117608382Y-143770382D01*
X117527788Y-143891000D01*
X116332000Y-143891000D01*
X115991794Y-143958671D01*
X115714440Y-144143993D01*
X115714440Y-143658000D01*
X115670162Y-143422683D01*
X115531090Y-143206559D01*
X115318890Y-143061569D01*
X115067000Y-143010560D01*
X114417000Y-143010560D01*
X114261493Y-143039821D01*
X114117000Y-143010560D01*
X113467000Y-143010560D01*
X113326914Y-143036919D01*
X113293310Y-143023000D01*
X113127750Y-143023000D01*
X112969000Y-143181750D01*
X112969000Y-143262051D01*
X112870569Y-143406110D01*
X112819560Y-143658000D01*
X112819560Y-144335000D01*
X112715000Y-144335000D01*
X112715000Y-144315000D01*
X112695000Y-144315000D01*
X112695000Y-144061000D01*
X112715000Y-144061000D01*
X112715000Y-143181750D01*
X112556250Y-143023000D01*
X112390690Y-143023000D01*
X112157301Y-143119673D01*
X111978673Y-143298302D01*
X111882000Y-143531691D01*
X111882000Y-143556305D01*
X111753310Y-143503000D01*
X111537750Y-143503000D01*
X111379000Y-143661750D01*
X111379000Y-144411000D01*
X111399000Y-144411000D01*
X111399000Y-144642265D01*
X111373382Y-144659382D01*
X111347764Y-144685000D01*
X111125000Y-144685000D01*
X111125000Y-144665000D01*
X111105000Y-144665000D01*
X111105000Y-144411000D01*
X111125000Y-144411000D01*
X111125000Y-143661750D01*
X110966250Y-143503000D01*
X110750690Y-143503000D01*
X110617000Y-143558376D01*
X110617000Y-142875000D01*
X118506933Y-142875000D01*
X118497382Y-142881382D01*
X118497382Y-142881382D01*
G37*
X118497382Y-142881382D02*
X117608382Y-143770382D01*
X117527788Y-143891000D01*
X116332000Y-143891000D01*
X115991794Y-143958671D01*
X115714440Y-144143993D01*
X115714440Y-143658000D01*
X115670162Y-143422683D01*
X115531090Y-143206559D01*
X115318890Y-143061569D01*
X115067000Y-143010560D01*
X114417000Y-143010560D01*
X114261493Y-143039821D01*
X114117000Y-143010560D01*
X113467000Y-143010560D01*
X113326914Y-143036919D01*
X113293310Y-143023000D01*
X113127750Y-143023000D01*
X112969000Y-143181750D01*
X112969000Y-143262051D01*
X112870569Y-143406110D01*
X112819560Y-143658000D01*
X112819560Y-144335000D01*
X112715000Y-144335000D01*
X112715000Y-144315000D01*
X112695000Y-144315000D01*
X112695000Y-144061000D01*
X112715000Y-144061000D01*
X112715000Y-143181750D01*
X112556250Y-143023000D01*
X112390690Y-143023000D01*
X112157301Y-143119673D01*
X111978673Y-143298302D01*
X111882000Y-143531691D01*
X111882000Y-143556305D01*
X111753310Y-143503000D01*
X111537750Y-143503000D01*
X111379000Y-143661750D01*
X111379000Y-144411000D01*
X111399000Y-144411000D01*
X111399000Y-144642265D01*
X111373382Y-144659382D01*
X111347764Y-144685000D01*
X111125000Y-144685000D01*
X111125000Y-144665000D01*
X111105000Y-144665000D01*
X111105000Y-144411000D01*
X111125000Y-144411000D01*
X111125000Y-143661750D01*
X110966250Y-143503000D01*
X110750690Y-143503000D01*
X110617000Y-143558376D01*
X110617000Y-142875000D01*
X118506933Y-142875000D01*
X118497382Y-142881382D01*
M02*
