G04 #@! TF.FileFunction,Soldermask,Top*
%FSLAX46Y46*%
G04 Gerber Fmt 4.6, Leading zero omitted, Abs format (unit mm)*
G04 Created by KiCad (PCBNEW 4.0.2-4+6225~38~ubuntu14.04.1-stable) date Tue 22 Mar 2016 18:15:30 GMT*
%MOMM*%
G01*
G04 APERTURE LIST*
%ADD10C,0.100000*%
%ADD11C,2.800000*%
%ADD12R,0.406400X1.170000*%
%ADD13R,1.880000X1.680000*%
%ADD14R,0.800000X0.750000*%
%ADD15R,0.700000X1.300000*%
%ADD16R,1.300000X0.700000*%
%ADD17R,0.750000X0.800000*%
%ADD18R,1.727200X1.727200*%
%ADD19O,1.727200X1.727200*%
%ADD20R,0.450000X1.450000*%
%ADD21R,0.600000X1.550000*%
%ADD22R,1.450000X0.450000*%
%ADD23R,1.500000X3.500000*%
%ADD24R,1.060000X0.650000*%
%ADD25R,0.250000X1.300000*%
%ADD26R,1.300000X0.250000*%
%ADD27R,0.650000X1.060000*%
%ADD28R,0.600000X1.500000*%
%ADD29R,1.000000X2.500000*%
%ADD30R,2.032000X2.032000*%
%ADD31O,2.032000X2.032000*%
%ADD32R,0.500000X0.800000*%
%ADD33R,0.400000X0.800000*%
%ADD34R,0.800100X0.800100*%
%ADD35O,1.500000X2.500000*%
%ADD36O,2.500000X1.500000*%
G04 APERTURE END LIST*
D10*
D11*
X144272000Y-104648000D03*
X146972000Y-101948000D03*
X141572000Y-101948000D03*
X141572000Y-107348000D03*
X146972000Y-107348000D03*
D12*
X148551900Y-136511500D03*
X147904200Y-136511500D03*
X147243800Y-136511500D03*
X146596100Y-136511500D03*
X146596100Y-140856500D03*
X147243800Y-140856500D03*
X147904200Y-140856500D03*
X148551900Y-140856500D03*
D13*
X147574000Y-138684000D03*
D14*
X147181000Y-131191000D03*
X145681000Y-131191000D03*
D15*
X109032000Y-155448000D03*
X110932000Y-155448000D03*
D16*
X112776000Y-154112000D03*
X112776000Y-152212000D03*
D17*
X110236000Y-146546000D03*
X110236000Y-145046000D03*
D14*
X109232000Y-153924000D03*
X110732000Y-153924000D03*
D12*
X109004100Y-152286500D03*
X109651800Y-152286500D03*
X110312200Y-152286500D03*
X110959900Y-152286500D03*
X110959900Y-147941500D03*
X110312200Y-147941500D03*
X109651800Y-147941500D03*
X109004100Y-147941500D03*
D13*
X109982000Y-150114000D03*
D12*
X148551900Y-125335500D03*
X147904200Y-125335500D03*
X147243800Y-125335500D03*
X146596100Y-125335500D03*
X146596100Y-129680500D03*
X147243800Y-129680500D03*
X147904200Y-129680500D03*
X148551900Y-129680500D03*
D13*
X147574000Y-127508000D03*
D14*
X148324000Y-123698000D03*
X146824000Y-123698000D03*
D16*
X144780000Y-123764000D03*
X144780000Y-125664000D03*
D15*
X148524000Y-122428000D03*
X146624000Y-122428000D03*
D16*
X144780000Y-134940000D03*
X144780000Y-136840000D03*
D14*
X148324000Y-134874000D03*
X146824000Y-134874000D03*
X147308000Y-142240000D03*
X145808000Y-142240000D03*
D15*
X148524000Y-133350000D03*
X146624000Y-133350000D03*
X123632000Y-141986000D03*
X121732000Y-141986000D03*
D10*
G36*
X130306000Y-145372000D02*
X129406000Y-144772000D01*
X129406000Y-143772000D01*
X130306000Y-143172000D01*
X130306000Y-145372000D01*
X130306000Y-145372000D01*
G37*
G36*
X130806000Y-143172000D02*
X131706000Y-143772000D01*
X131706000Y-144772000D01*
X130806000Y-145372000D01*
X130806000Y-143172000D01*
X130806000Y-143172000D01*
G37*
D18*
X103886000Y-140208000D03*
D19*
X106426000Y-140208000D03*
X103886000Y-142748000D03*
X106426000Y-142748000D03*
X103886000Y-145288000D03*
X106426000Y-145288000D03*
X103886000Y-147828000D03*
X106426000Y-147828000D03*
D12*
X105117900Y-128383500D03*
X104470200Y-128383500D03*
X103809800Y-128383500D03*
X103162100Y-128383500D03*
X103162100Y-132728500D03*
X103809800Y-132728500D03*
X104470200Y-132728500D03*
X105117900Y-132728500D03*
D13*
X104140000Y-130556000D03*
D14*
X147054000Y-116840000D03*
X145554000Y-116840000D03*
X147054000Y-118364000D03*
X145554000Y-118364000D03*
X140728000Y-109982000D03*
X142228000Y-109982000D03*
D20*
X142027000Y-117770000D03*
X142677000Y-117770000D03*
X143327000Y-117770000D03*
X143977000Y-117770000D03*
X143977000Y-113370000D03*
X143327000Y-113370000D03*
X142677000Y-113370000D03*
X142027000Y-113370000D03*
D15*
X142682000Y-119888000D03*
X140782000Y-119888000D03*
D14*
X140728000Y-111506000D03*
X142228000Y-111506000D03*
X128536000Y-111506000D03*
X130036000Y-111506000D03*
D16*
X105156000Y-109794000D03*
X105156000Y-111694000D03*
D14*
X108446000Y-120396000D03*
X106946000Y-120396000D03*
X108446000Y-118872000D03*
X106946000Y-118872000D03*
D17*
X107188000Y-115582000D03*
X107188000Y-117082000D03*
D14*
X101358000Y-110236000D03*
X102858000Y-110236000D03*
D21*
X101727000Y-119032000D03*
X102997000Y-119032000D03*
X104267000Y-119032000D03*
X105537000Y-119032000D03*
X105537000Y-113632000D03*
X104267000Y-113632000D03*
X102997000Y-113632000D03*
X101727000Y-113632000D03*
D14*
X101358000Y-111760000D03*
X102858000Y-111760000D03*
X113550000Y-111760000D03*
X115050000Y-111760000D03*
D22*
X120736000Y-123739000D03*
X120736000Y-124389000D03*
X120736000Y-125039000D03*
X120736000Y-125689000D03*
X125136000Y-125689000D03*
X125136000Y-125039000D03*
X125136000Y-124389000D03*
X125136000Y-123739000D03*
D23*
X134493000Y-153456000D03*
X135763000Y-158456000D03*
X137033000Y-153456000D03*
X138303000Y-158456000D03*
X139573000Y-153456000D03*
X140843000Y-158456000D03*
X142113000Y-153456000D03*
X143383000Y-158456000D03*
D24*
X113114000Y-160462000D03*
X113114000Y-159512000D03*
X113114000Y-158562000D03*
X110914000Y-158562000D03*
X110914000Y-160462000D03*
X110914000Y-159512000D03*
D15*
X130622000Y-119888000D03*
X132522000Y-119888000D03*
X107762000Y-161290000D03*
X109662000Y-161290000D03*
X107762000Y-157734000D03*
X109662000Y-157734000D03*
X110678000Y-125222000D03*
X108778000Y-125222000D03*
D16*
X106934000Y-126558000D03*
X106934000Y-128458000D03*
D15*
X105090000Y-125222000D03*
X103190000Y-125222000D03*
D16*
X101346000Y-126558000D03*
X101346000Y-128458000D03*
D25*
X125266000Y-141383000D03*
X125766000Y-141383000D03*
X126266000Y-141383000D03*
X126766000Y-141383000D03*
X127266000Y-141383000D03*
X127766000Y-141383000D03*
X128266000Y-141383000D03*
X128766000Y-141383000D03*
X129266000Y-141383000D03*
X129766000Y-141383000D03*
X130266000Y-141383000D03*
X130766000Y-141383000D03*
D26*
X132366000Y-139783000D03*
X132366000Y-139283000D03*
X132366000Y-138783000D03*
X132366000Y-138283000D03*
X132366000Y-137783000D03*
X132366000Y-137283000D03*
X132366000Y-136783000D03*
X132366000Y-136283000D03*
X132366000Y-135783000D03*
X132366000Y-135283000D03*
X132366000Y-134783000D03*
X132366000Y-134283000D03*
D25*
X130766000Y-132683000D03*
X130266000Y-132683000D03*
X129766000Y-132683000D03*
X129266000Y-132683000D03*
X128766000Y-132683000D03*
X128266000Y-132683000D03*
X127766000Y-132683000D03*
X127266000Y-132683000D03*
X126766000Y-132683000D03*
X126266000Y-132683000D03*
X125766000Y-132683000D03*
X125266000Y-132683000D03*
D26*
X123666000Y-134283000D03*
X123666000Y-134783000D03*
X123666000Y-135283000D03*
X123666000Y-135783000D03*
X123666000Y-136283000D03*
X123666000Y-136783000D03*
X123666000Y-137283000D03*
X123666000Y-137783000D03*
X123666000Y-138283000D03*
X123666000Y-138783000D03*
X123666000Y-139283000D03*
X123666000Y-139783000D03*
D20*
X129835000Y-117770000D03*
X130485000Y-117770000D03*
X131135000Y-117770000D03*
X131785000Y-117770000D03*
X131785000Y-113370000D03*
X131135000Y-113370000D03*
X130485000Y-113370000D03*
X129835000Y-113370000D03*
D21*
X113919000Y-119032000D03*
X115189000Y-119032000D03*
X116459000Y-119032000D03*
X117729000Y-119032000D03*
X117729000Y-113632000D03*
X116459000Y-113632000D03*
X115189000Y-113632000D03*
X113919000Y-113632000D03*
D27*
X118552000Y-157396000D03*
X117602000Y-157396000D03*
X116652000Y-157396000D03*
X116652000Y-159596000D03*
X118552000Y-159596000D03*
D28*
X120777000Y-159672000D03*
X122047000Y-159672000D03*
X123317000Y-159672000D03*
X124587000Y-159672000D03*
X125857000Y-159672000D03*
X127127000Y-159672000D03*
X128397000Y-159672000D03*
X129667000Y-159672000D03*
X129667000Y-154272000D03*
X128397000Y-154272000D03*
X127127000Y-154272000D03*
X125857000Y-154272000D03*
X124587000Y-154272000D03*
X123317000Y-154272000D03*
X122047000Y-154272000D03*
X120777000Y-154272000D03*
D17*
X123190000Y-131560000D03*
X123190000Y-130060000D03*
X132842000Y-131560000D03*
X132842000Y-130060000D03*
D14*
X124980000Y-131318000D03*
X126480000Y-131318000D03*
X131052000Y-131318000D03*
X129552000Y-131318000D03*
X125972000Y-130048000D03*
X124472000Y-130048000D03*
X130060000Y-130048000D03*
X131560000Y-130048000D03*
D17*
X131826000Y-140982000D03*
X131826000Y-142482000D03*
D14*
X128536000Y-109982000D03*
X130036000Y-109982000D03*
X134862000Y-118364000D03*
X133362000Y-118364000D03*
X113550000Y-110236000D03*
X115050000Y-110236000D03*
D17*
X119380000Y-115582000D03*
X119380000Y-117082000D03*
D14*
X120638000Y-118872000D03*
X119138000Y-118872000D03*
X120638000Y-120396000D03*
X119138000Y-120396000D03*
X130568000Y-124206000D03*
X132068000Y-124206000D03*
X125210000Y-127254000D03*
X123710000Y-127254000D03*
X109335000Y-133985000D03*
X107835000Y-133985000D03*
X110478000Y-126746000D03*
X108978000Y-126746000D03*
D17*
X114300000Y-158000000D03*
X114300000Y-159500000D03*
D14*
X103874000Y-134112000D03*
X102374000Y-134112000D03*
X104890000Y-126746000D03*
X103390000Y-126746000D03*
D10*
G36*
X122512000Y-135378000D02*
X121912000Y-136278000D01*
X120912000Y-136278000D01*
X120312000Y-135378000D01*
X122512000Y-135378000D01*
X122512000Y-135378000D01*
G37*
G36*
X120312000Y-134878000D02*
X120912000Y-133978000D01*
X121912000Y-133978000D01*
X122512000Y-134878000D01*
X120312000Y-134878000D01*
X120312000Y-134878000D01*
G37*
G36*
X120312000Y-138180000D02*
X120912000Y-137280000D01*
X121912000Y-137280000D01*
X122512000Y-138180000D01*
X120312000Y-138180000D01*
X120312000Y-138180000D01*
G37*
G36*
X122512000Y-138680000D02*
X121912000Y-139580000D01*
X120912000Y-139580000D01*
X120312000Y-138680000D01*
X122512000Y-138680000D01*
X122512000Y-138680000D01*
G37*
G36*
X135720000Y-135378000D02*
X135120000Y-136278000D01*
X134120000Y-136278000D01*
X133520000Y-135378000D01*
X135720000Y-135378000D01*
X135720000Y-135378000D01*
G37*
G36*
X133520000Y-134878000D02*
X134120000Y-133978000D01*
X135120000Y-133978000D01*
X135720000Y-134878000D01*
X133520000Y-134878000D01*
X133520000Y-134878000D01*
G37*
G36*
X133520000Y-138180000D02*
X134120000Y-137280000D01*
X135120000Y-137280000D01*
X135720000Y-138180000D01*
X133520000Y-138180000D01*
X133520000Y-138180000D01*
G37*
G36*
X135720000Y-138680000D02*
X135120000Y-139580000D01*
X134120000Y-139580000D01*
X133520000Y-138680000D01*
X135720000Y-138680000D01*
X135720000Y-138680000D01*
G37*
G36*
X123186000Y-143172000D02*
X124086000Y-143772000D01*
X124086000Y-144772000D01*
X123186000Y-145372000D01*
X123186000Y-143172000D01*
X123186000Y-143172000D01*
G37*
G36*
X122686000Y-145372000D02*
X121786000Y-144772000D01*
X121786000Y-143772000D01*
X122686000Y-143172000D01*
X122686000Y-145372000D01*
X122686000Y-145372000D01*
G37*
D22*
X135042000Y-127721000D03*
X135042000Y-127071000D03*
X135042000Y-126421000D03*
X135042000Y-125771000D03*
X130642000Y-125771000D03*
X130642000Y-126421000D03*
X130642000Y-127071000D03*
X130642000Y-127721000D03*
D14*
X120408000Y-161544000D03*
X121908000Y-161544000D03*
D12*
X110705900Y-128383500D03*
X110058200Y-128383500D03*
X109397800Y-128383500D03*
X108750100Y-128383500D03*
X108750100Y-132728500D03*
X109397800Y-132728500D03*
X110058200Y-132728500D03*
X110705900Y-132728500D03*
D13*
X109728000Y-130556000D03*
D16*
X117348000Y-109794000D03*
X117348000Y-111694000D03*
D11*
X132080000Y-104648000D03*
X134780000Y-101948000D03*
X129380000Y-101948000D03*
X129380000Y-107348000D03*
X134780000Y-107348000D03*
D29*
X134390000Y-142494000D03*
X137390000Y-142494000D03*
D30*
X145288000Y-147828000D03*
D31*
X147828000Y-147828000D03*
D30*
X145288000Y-145288000D03*
D31*
X147828000Y-145288000D03*
D11*
X105156000Y-104648000D03*
X107856000Y-101948000D03*
X102456000Y-101948000D03*
X102456000Y-107348000D03*
X107856000Y-107348000D03*
X117348000Y-104648000D03*
X120048000Y-101948000D03*
X114648000Y-101948000D03*
X114648000Y-107348000D03*
X120048000Y-107348000D03*
D32*
X122498000Y-152030000D03*
D33*
X124098000Y-152030000D03*
X123298000Y-152030000D03*
D32*
X124898000Y-152030000D03*
D33*
X123298000Y-150230000D03*
D32*
X122498000Y-150230000D03*
D33*
X124098000Y-150230000D03*
D32*
X124898000Y-150230000D03*
D14*
X134862000Y-116840000D03*
X133362000Y-116840000D03*
D16*
X126492000Y-150688000D03*
X126492000Y-152588000D03*
D15*
X107762000Y-159512000D03*
X109662000Y-159512000D03*
D17*
X103886000Y-160032000D03*
X103886000Y-161532000D03*
X106426000Y-160032000D03*
X106426000Y-161532000D03*
D34*
X106106000Y-157495240D03*
X104206000Y-157495240D03*
X105156000Y-159494220D03*
D35*
X139954000Y-141174000D03*
X114554000Y-128574000D03*
D36*
X120954000Y-122174000D03*
X133554000Y-147574000D03*
M02*
