G04 #@! TF.FileFunction,Copper,L4,Bot,Signal*
%FSLAX46Y46*%
G04 Gerber Fmt 4.6, Leading zero omitted, Abs format (unit mm)*
G04 Created by KiCad (PCBNEW 4.0.2-4+6225~38~ubuntu14.04.1-stable) date Thu 10 Mar 2016 19:43:35 GMT*
%MOMM*%
G01*
G04 APERTURE LIST*
%ADD10C,0.100000*%
%ADD11R,1.060000X0.650000*%
%ADD12R,1.000000X1.250000*%
%ADD13R,0.700000X1.300000*%
%ADD14R,1.300000X0.700000*%
%ADD15R,2.230000X1.800000*%
%ADD16R,0.800000X0.750000*%
%ADD17R,1.800000X2.230000*%
%ADD18R,0.750000X0.800000*%
%ADD19R,1.727200X1.727200*%
%ADD20O,1.727200X1.727200*%
%ADD21O,2.500000X1.500000*%
%ADD22R,1.680000X1.880000*%
%ADD23C,2.800000*%
%ADD24R,1.000000X2.500000*%
%ADD25R,2.032000X2.032000*%
%ADD26O,2.032000X2.032000*%
%ADD27R,2.500000X1.000000*%
%ADD28C,1.000000*%
%ADD29C,0.889000*%
%ADD30C,1.500000*%
%ADD31C,0.508000*%
%ADD32C,1.016000*%
%ADD33C,0.254000*%
%ADD34C,1.500000*%
%ADD35C,0.768000*%
%ADD36C,0.381000*%
G04 APERTURE END LIST*
D10*
D11*
X106764000Y-114874000D03*
X106764000Y-115824000D03*
X106764000Y-116774000D03*
X104564000Y-116774000D03*
X104564000Y-114874000D03*
X104564000Y-115824000D03*
D12*
X102886000Y-123952000D03*
X104886000Y-123952000D03*
X102886000Y-129540000D03*
X104886000Y-129540000D03*
X102886000Y-118364000D03*
X104886000Y-118364000D03*
X102886000Y-112776000D03*
X104886000Y-112776000D03*
X102886000Y-135128000D03*
X104886000Y-135128000D03*
D13*
X132654000Y-126365000D03*
X134554000Y-126365000D03*
D14*
X140716000Y-124907000D03*
X140716000Y-126807000D03*
D13*
X144206000Y-125222000D03*
X142306000Y-125222000D03*
D14*
X140716000Y-118049000D03*
X140716000Y-119949000D03*
D13*
X144206000Y-117856000D03*
X142306000Y-117856000D03*
X105852000Y-121158000D03*
X103952000Y-121158000D03*
D15*
X129032000Y-122999000D03*
X129032000Y-120079000D03*
D16*
X129528000Y-118491000D03*
X128028000Y-118491000D03*
D15*
X135128000Y-122999000D03*
X135128000Y-120079000D03*
D16*
X134632000Y-118491000D03*
X136132000Y-118491000D03*
D17*
X133160000Y-116459000D03*
X136080000Y-116459000D03*
D18*
X131318000Y-119519000D03*
X131318000Y-121019000D03*
D17*
X131000000Y-116459000D03*
X128080000Y-116459000D03*
D18*
X132842000Y-119519000D03*
X132842000Y-121019000D03*
D16*
X144006000Y-127000000D03*
X142506000Y-127000000D03*
D18*
X146050000Y-127369000D03*
X146050000Y-125869000D03*
X147574000Y-127369000D03*
X147574000Y-125869000D03*
D16*
X143498000Y-128524000D03*
X141998000Y-128524000D03*
X143498000Y-130048000D03*
X141998000Y-130048000D03*
D18*
X147320000Y-119876000D03*
X147320000Y-118376000D03*
X145796000Y-119876000D03*
X145796000Y-118376000D03*
D16*
X143498000Y-122555000D03*
X141998000Y-122555000D03*
D18*
X121285000Y-128639000D03*
X121285000Y-127139000D03*
X121031000Y-131687000D03*
X121031000Y-130187000D03*
X119761000Y-131687000D03*
X119761000Y-130187000D03*
X122555000Y-128893000D03*
X122555000Y-127393000D03*
X123825000Y-128893000D03*
X123825000Y-127393000D03*
X121285000Y-120257000D03*
X121285000Y-118757000D03*
X120904000Y-123305000D03*
X120904000Y-121805000D03*
X119634000Y-123305000D03*
X119634000Y-121805000D03*
X122555000Y-120511000D03*
X122555000Y-119011000D03*
X123825000Y-120511000D03*
X123825000Y-119011000D03*
X108204000Y-116828000D03*
X108204000Y-115328000D03*
D16*
X118122000Y-140208000D03*
X119622000Y-140208000D03*
D10*
G36*
X128136000Y-125865000D02*
X129036000Y-125265000D01*
X129036000Y-127465000D01*
X128136000Y-126865000D01*
X128136000Y-125865000D01*
X128136000Y-125865000D01*
G37*
G36*
X130436000Y-126865000D02*
X129536000Y-127465000D01*
X129536000Y-125265000D01*
X130436000Y-125865000D01*
X130436000Y-126865000D01*
X130436000Y-126865000D01*
G37*
G36*
X133358000Y-129674000D02*
X132758000Y-128774000D01*
X134958000Y-128774000D01*
X134358000Y-129674000D01*
X133358000Y-129674000D01*
X133358000Y-129674000D01*
G37*
G36*
X134358000Y-127374000D02*
X134958000Y-128274000D01*
X132758000Y-128274000D01*
X133358000Y-127374000D01*
X134358000Y-127374000D01*
X134358000Y-127374000D01*
G37*
D19*
X103886000Y-140208000D03*
D20*
X106426000Y-140208000D03*
X103886000Y-142748000D03*
X106426000Y-142748000D03*
X103886000Y-145288000D03*
X106426000Y-145288000D03*
X103886000Y-147828000D03*
X106426000Y-147828000D03*
D21*
X121742000Y-133416000D03*
X143942000Y-109916000D03*
X143942000Y-133416000D03*
X121742000Y-109916000D03*
D22*
X106172000Y-135128000D03*
X106172000Y-112776000D03*
X106172000Y-118364000D03*
X106172000Y-129540000D03*
X106172000Y-123952000D03*
D23*
X132080000Y-104648000D03*
X134780000Y-101948000D03*
X129380000Y-101948000D03*
X129380000Y-107348000D03*
X134780000Y-107348000D03*
X144272000Y-104648000D03*
X146972000Y-101948000D03*
X141572000Y-101948000D03*
X141572000Y-107348000D03*
X146972000Y-107348000D03*
D24*
X134644000Y-113538000D03*
X137644000Y-113538000D03*
X129008000Y-113030000D03*
X126008000Y-113030000D03*
X109958000Y-123952000D03*
X106958000Y-123952000D03*
X109958000Y-129540000D03*
X106958000Y-129540000D03*
X109958000Y-118618000D03*
X106958000Y-118618000D03*
X109958000Y-112522000D03*
X106958000Y-112522000D03*
X109958000Y-135128000D03*
X106958000Y-135128000D03*
D25*
X145288000Y-147828000D03*
D26*
X147828000Y-147828000D03*
D25*
X145288000Y-145288000D03*
D26*
X147828000Y-145288000D03*
D23*
X105156000Y-104648000D03*
X107856000Y-101948000D03*
X102456000Y-101948000D03*
X102456000Y-107348000D03*
X107856000Y-107348000D03*
X117348000Y-104648000D03*
X120048000Y-101948000D03*
X114648000Y-101948000D03*
X114648000Y-107348000D03*
X120048000Y-107348000D03*
D14*
X132842000Y-113980000D03*
X132842000Y-112080000D03*
X130810000Y-113980000D03*
X130810000Y-112080000D03*
D16*
X143498000Y-121158000D03*
X141998000Y-121158000D03*
D27*
X146304000Y-128802000D03*
X146304000Y-131802000D03*
D16*
X144006000Y-119634000D03*
X142506000Y-119634000D03*
D27*
X146558000Y-113816000D03*
X146558000Y-116816000D03*
X146558000Y-121436000D03*
X146558000Y-124436000D03*
X119253000Y-125754000D03*
X119253000Y-128754000D03*
X123063000Y-122960000D03*
X123063000Y-125960000D03*
X119253000Y-116610000D03*
X119253000Y-119610000D03*
X122555000Y-114578000D03*
X122555000Y-117578000D03*
D28*
X130175000Y-120269000D03*
D29*
X109474000Y-124968000D03*
D28*
X133985000Y-120269000D03*
D29*
X146812000Y-118745000D03*
X146812000Y-125603000D03*
X113538000Y-127508000D03*
X115570000Y-118618000D03*
D28*
X132842000Y-121920000D03*
X131318000Y-121920000D03*
X144780000Y-121412000D03*
X146558000Y-113792000D03*
X111633000Y-102108000D03*
X102616000Y-122186000D03*
D29*
X102616000Y-116598000D03*
D28*
X108204000Y-109728000D03*
X102616000Y-110236000D03*
X127508000Y-116586000D03*
X125730000Y-121666000D03*
X127127000Y-113792000D03*
X137414000Y-112903000D03*
X144145000Y-122936000D03*
X134366000Y-122174000D03*
X146812000Y-128270000D03*
X130048000Y-122174000D03*
X144526000Y-130556000D03*
X137414000Y-103632000D03*
X138176000Y-122047000D03*
X146304000Y-131802000D03*
X140970000Y-121031000D03*
X140970000Y-127889000D03*
X109474000Y-113792000D03*
X130479800Y-116586000D03*
X133731000Y-116586000D03*
D29*
X105410000Y-121158000D03*
X105410000Y-109982000D03*
D28*
X135255000Y-125603000D03*
X124460000Y-138684000D03*
X116713000Y-140208000D03*
D29*
X143891000Y-126873000D03*
X142494000Y-125476000D03*
D28*
X144006000Y-119761000D03*
D29*
X142494000Y-118110000D03*
D28*
X119888000Y-129032000D03*
X109474000Y-130810000D03*
X120015000Y-120523000D03*
X109474000Y-136144000D03*
X122555000Y-126619000D03*
X122555000Y-118237000D03*
X109474000Y-119634000D03*
X142240000Y-115062000D03*
X123698000Y-112141000D03*
X134112000Y-129794000D03*
X128016000Y-126365000D03*
X132334000Y-125603000D03*
X112776000Y-147320000D03*
X124460000Y-147828000D03*
D29*
X133604000Y-125222000D03*
D28*
X135890000Y-128524000D03*
X111506000Y-138176000D03*
X125984000Y-141478000D03*
X126492000Y-139700000D03*
X127000000Y-128331000D03*
D29*
X132842000Y-113538000D03*
X131572000Y-113284000D03*
D28*
X102870000Y-124968000D03*
X102870000Y-119380000D03*
X102870000Y-130556000D03*
X102870000Y-113792000D03*
X102870000Y-136144000D03*
D30*
X115824000Y-146812000D03*
X138303000Y-140248000D03*
D28*
X111252000Y-148590000D03*
X118872000Y-148082000D03*
D30*
X139192000Y-147828000D03*
X126492000Y-147828000D03*
X130683000Y-140248000D03*
D28*
X112268000Y-143764000D03*
X133096000Y-140208000D03*
X119380000Y-144780000D03*
X123190000Y-147828000D03*
X135636000Y-140208000D03*
D29*
X104013000Y-122682000D03*
X104267000Y-116840000D03*
D28*
X103886000Y-111506000D03*
D31*
X145796000Y-118376000D02*
X145911000Y-118491000D01*
X145911000Y-118491000D02*
X147205000Y-118491000D01*
X147205000Y-118491000D02*
X147320000Y-118376000D01*
D32*
X146812000Y-118745000D02*
X146558000Y-118491000D01*
X146558000Y-118491000D02*
X146558000Y-116816000D01*
D31*
X134378000Y-119837000D02*
X134874000Y-120333000D01*
D32*
X129032000Y-120079000D02*
X128841000Y-120079000D01*
D33*
X129857000Y-120587000D02*
X130175000Y-120269000D01*
D31*
X134811000Y-120333000D02*
X134874000Y-120333000D01*
D33*
X129857000Y-120587000D02*
X129032000Y-120079000D01*
D32*
X109458000Y-124952000D02*
X109474000Y-124968000D01*
X109458000Y-123952000D02*
X109458000Y-124952000D01*
X134632000Y-119583000D02*
X135128000Y-120079000D01*
X134632000Y-118491000D02*
X134632000Y-119583000D01*
X134175000Y-120079000D02*
X135128000Y-120079000D01*
X133985000Y-120269000D02*
X134175000Y-120079000D01*
X129528000Y-119583000D02*
X129032000Y-120079000D01*
X129528000Y-118491000D02*
X129528000Y-119583000D01*
X129985000Y-120079000D02*
X130175000Y-120269000D01*
X129032000Y-120079000D02*
X129985000Y-120079000D01*
D31*
X146812000Y-125603000D02*
X147066000Y-125857000D01*
X147066000Y-125857000D02*
X146812000Y-125857000D01*
X146062000Y-125857000D02*
X146050000Y-125869000D01*
X146062000Y-125857000D02*
X146812000Y-125857000D01*
X147562000Y-125857000D02*
X147574000Y-125869000D01*
X146812000Y-125857000D02*
X147562000Y-125857000D01*
D33*
X115570000Y-125476000D02*
X113538000Y-127508000D01*
X115570000Y-118618000D02*
X115570000Y-125476000D01*
D34*
X138176000Y-122047000D02*
X138176000Y-118555000D01*
X138176000Y-118555000D02*
X136080000Y-116459000D01*
X125730000Y-121666000D02*
X125730000Y-118809000D01*
X125730000Y-118809000D02*
X128080000Y-116459000D01*
D32*
X137160000Y-121285000D02*
X137414000Y-121285000D01*
X137414000Y-121285000D02*
X138176000Y-122047000D01*
X138176000Y-122047000D02*
X136398000Y-122047000D01*
X138176000Y-122047000D02*
X138176000Y-120904000D01*
X138176000Y-120904000D02*
X137160000Y-119888000D01*
X129032000Y-122999000D02*
X130111000Y-121920000D01*
D31*
X132842000Y-121920000D02*
X132842000Y-121019000D01*
D32*
X130111000Y-121920000D02*
X132842000Y-121920000D01*
X129032000Y-122999000D02*
X127953000Y-121920000D01*
X127953000Y-121920000D02*
X125984000Y-121920000D01*
X125984000Y-121920000D02*
X125730000Y-121666000D01*
D35*
X128028000Y-118491000D02*
X127635000Y-118491000D01*
X127635000Y-118491000D02*
X126746000Y-119380000D01*
X125806683Y-119380000D02*
X125806683Y-119380001D01*
X126746000Y-119380000D02*
X125806683Y-119380000D01*
D31*
X131318000Y-121019000D02*
X131318000Y-121920000D01*
D33*
X106172000Y-118872000D02*
X107442000Y-120142000D01*
D32*
X106172000Y-118364000D02*
X106426000Y-118618000D01*
X106426000Y-118618000D02*
X106958000Y-118618000D01*
X106958000Y-118618000D02*
X106172000Y-118364000D01*
X123063000Y-122960000D02*
X120269000Y-125754000D01*
X120269000Y-125754000D02*
X119253000Y-125754000D01*
X122555000Y-114578000D02*
X121285000Y-114578000D01*
X121285000Y-114578000D02*
X119253000Y-116610000D01*
X125730000Y-121666000D02*
X125806683Y-119380001D01*
X125806683Y-119380001D02*
X125857000Y-117880000D01*
X125857000Y-117880000D02*
X122555000Y-114578000D01*
D35*
X144964500Y-128454500D02*
X145312000Y-128802000D01*
X145312000Y-128802000D02*
X146304000Y-128802000D01*
X146050000Y-127369000D02*
X144964500Y-128454500D01*
X144964500Y-128454500D02*
X144895000Y-128524000D01*
X144895000Y-128524000D02*
X143498000Y-128524000D01*
D31*
X144780000Y-121412000D02*
X144780000Y-121146000D01*
X144780000Y-121146000D02*
X145796000Y-119876000D01*
X145796000Y-119876000D02*
X147320000Y-119876000D01*
X144780000Y-121412000D02*
X144780000Y-121285000D01*
D32*
X146558000Y-113792000D02*
X146558000Y-113816000D01*
X106172000Y-112776000D02*
X106704000Y-112776000D01*
X106704000Y-112776000D02*
X106958000Y-112522000D01*
X106958000Y-112522000D02*
X106172000Y-112776000D01*
X126008000Y-113030000D02*
X126365000Y-113030000D01*
X126365000Y-113030000D02*
X127127000Y-113792000D01*
X107856020Y-107348020D02*
X107856020Y-101947980D01*
X107856020Y-101947980D02*
X102455980Y-101947980D01*
X102455980Y-101947980D02*
X102455980Y-107348020D01*
X102455980Y-107348020D02*
X107856020Y-107348020D01*
X146972020Y-101947980D02*
X146972020Y-107348020D01*
X146972020Y-101947980D02*
X141571980Y-101947980D01*
X141571980Y-101947980D02*
X141571980Y-107348020D01*
X141571980Y-107348020D02*
X146972020Y-107348020D01*
X114647980Y-101947980D02*
X120048020Y-101947980D01*
X120048020Y-101947980D02*
X120048020Y-107348020D01*
X120048020Y-107348020D02*
X114647980Y-107348020D01*
X114647980Y-107348020D02*
X114647980Y-101947980D01*
D33*
X106172000Y-123952000D02*
X106172000Y-123444000D01*
X106172000Y-123444000D02*
X107442000Y-122174000D01*
X106172000Y-118364000D02*
X106172000Y-118872000D01*
D31*
X121742000Y-131255000D02*
X122555000Y-130442000D01*
X122555000Y-130442000D02*
X122555000Y-128893000D01*
X135128000Y-122999000D02*
X134822000Y-122999000D01*
X134822000Y-122999000D02*
X132842000Y-121019000D01*
D32*
X136144000Y-117856000D02*
X136144000Y-116523000D01*
X136144000Y-116523000D02*
X136080000Y-116459000D01*
X135128000Y-122999000D02*
X135446000Y-122999000D01*
X135446000Y-122999000D02*
X136398000Y-122047000D01*
X136398000Y-122047000D02*
X137160000Y-121285000D01*
X137160000Y-121285000D02*
X137160000Y-119888000D01*
X136144000Y-117856000D02*
X136132000Y-117856000D01*
X136132000Y-117844000D02*
X136144000Y-117856000D01*
X137160000Y-119888000D02*
X137160000Y-118872000D01*
X137160000Y-118872000D02*
X136132000Y-117844000D01*
D31*
X121850500Y-122358500D02*
X121920000Y-122428000D01*
X121920000Y-122428000D02*
X124968000Y-122428000D01*
D32*
X122682000Y-121666000D02*
X122682000Y-122936000D01*
X124714000Y-121666000D02*
X122682000Y-121666000D01*
X124968000Y-121920000D02*
X124714000Y-121666000D01*
X124968000Y-122428000D02*
X124968000Y-121920000D01*
X124968000Y-123190000D02*
X124968000Y-122428000D01*
X121412000Y-123190000D02*
X124968000Y-123190000D01*
D31*
X125730000Y-121666000D02*
X125476000Y-122047000D01*
X124968000Y-123698000D02*
X121412000Y-123698000D01*
X125476000Y-123190000D02*
X124968000Y-123698000D01*
X125476000Y-122047000D02*
X125476000Y-123190000D01*
X125730000Y-121666000D02*
X125222000Y-121666000D01*
X124460000Y-120904000D02*
X122682000Y-120904000D01*
X125222000Y-121666000D02*
X124460000Y-120904000D01*
X122682000Y-120904000D02*
X122174000Y-121412000D01*
X122174000Y-122428000D02*
X121412000Y-123190000D01*
X121412000Y-123190000D02*
X120904000Y-123698000D01*
X122174000Y-121412000D02*
X122174000Y-122428000D01*
X120904000Y-123698000D02*
X119634000Y-123698000D01*
X119634000Y-123698000D02*
X119888000Y-123698000D01*
X119888000Y-123698000D02*
X119634000Y-123305000D01*
X119634000Y-123305000D02*
X119634000Y-123952000D01*
X125857000Y-123317000D02*
X125730000Y-121666000D01*
X125222000Y-123952000D02*
X125857000Y-123317000D01*
X119634000Y-123952000D02*
X125222000Y-123952000D01*
X125730000Y-121666000D02*
X124702000Y-120511000D01*
X124702000Y-120511000D02*
X123825000Y-120511000D01*
D33*
X102616000Y-122174000D02*
X102616000Y-122186000D01*
D31*
X102616000Y-116586000D02*
X102616000Y-116598000D01*
X105752000Y-116244000D02*
X105752000Y-117894000D01*
X128028000Y-118491000D02*
X128080000Y-118439000D01*
X128080000Y-118439000D02*
X128080000Y-116459000D01*
X127508000Y-116586000D02*
X127635000Y-116459000D01*
X127635000Y-116459000D02*
X128080000Y-116459000D01*
X136132000Y-118491000D02*
X136132000Y-117856000D01*
X136132000Y-117856000D02*
X136132000Y-116511000D01*
X136132000Y-116511000D02*
X136080000Y-116459000D01*
X123825000Y-120511000D02*
X122555000Y-120511000D01*
X122555000Y-120511000D02*
X121920000Y-121146000D01*
X121920000Y-122289000D02*
X121850500Y-122358500D01*
X121850500Y-122358500D02*
X120904000Y-123305000D01*
X121920000Y-121146000D02*
X121920000Y-122289000D01*
X120904000Y-123305000D02*
X119634000Y-123305000D01*
X123825000Y-128893000D02*
X122555000Y-128893000D01*
X119761000Y-131687000D02*
X121031000Y-131687000D01*
X121031000Y-131687000D02*
X121742000Y-131255000D01*
X121742000Y-131255000D02*
X121742000Y-132334000D01*
X121742000Y-132334000D02*
X121742000Y-133416000D01*
D32*
X107458000Y-135128000D02*
X107062000Y-135128000D01*
X107062000Y-135128000D02*
X106592000Y-135598000D01*
X107062000Y-135128000D02*
X106592000Y-134658000D01*
X105752000Y-134658000D02*
X106592000Y-134658000D01*
X105752000Y-135598000D02*
X106592000Y-135598000D01*
X104886000Y-135128000D02*
X105282000Y-135128000D01*
X105282000Y-135128000D02*
X105752000Y-135598000D01*
X105282000Y-135128000D02*
X105752000Y-134658000D01*
X106592000Y-130010000D02*
X107062000Y-129540000D01*
X107062000Y-129540000D02*
X107458000Y-129540000D01*
X107458000Y-129540000D02*
X107062000Y-129540000D01*
X107062000Y-129540000D02*
X106592000Y-129070000D01*
X106592000Y-118148000D02*
X105752000Y-117894000D01*
X104886000Y-118364000D02*
X105282000Y-118364000D01*
X105282000Y-118364000D02*
X105752000Y-118834000D01*
X105282000Y-118364000D02*
X105752000Y-117894000D01*
D31*
X127127000Y-113792000D02*
X126238000Y-113284000D01*
X126238000Y-113284000D02*
X126048000Y-113284000D01*
X137414000Y-112903000D02*
X137604000Y-112903000D01*
D32*
X105282000Y-123952000D02*
X105752000Y-124422000D01*
X105282000Y-123952000D02*
X105752000Y-123482000D01*
X104886000Y-123952000D02*
X105282000Y-123952000D01*
X106592000Y-124422000D02*
X105752000Y-124422000D01*
X107062000Y-123952000D02*
X106592000Y-124422000D01*
X106592000Y-123482000D02*
X105752000Y-123482000D01*
X107062000Y-123952000D02*
X106592000Y-123482000D01*
X107458000Y-123952000D02*
X107062000Y-123952000D01*
X106592000Y-113246000D02*
X105752000Y-113246000D01*
X106592000Y-112306000D02*
X105752000Y-112306000D01*
X105282000Y-112776000D02*
X105752000Y-112306000D01*
X105282000Y-112776000D02*
X105752000Y-113246000D01*
X104886000Y-112776000D02*
X105282000Y-112776000D01*
X105282000Y-129540000D02*
X105752000Y-129070000D01*
X105282000Y-129540000D02*
X105752000Y-130010000D01*
X104886000Y-129540000D02*
X105282000Y-129540000D01*
X106592000Y-129070000D02*
X105752000Y-129070000D01*
X105752000Y-130010000D02*
X106592000Y-130010000D01*
D31*
X143498000Y-122555000D02*
X143498000Y-121285000D01*
D33*
X143764000Y-122555000D02*
X143498000Y-122555000D01*
X143764000Y-122555000D02*
X144145000Y-122936000D01*
D31*
X144780000Y-121285000D02*
X143498000Y-121285000D01*
X146812000Y-127369000D02*
X146050000Y-127369000D01*
X147574000Y-127369000D02*
X146812000Y-127369000D01*
X143498000Y-128524000D02*
X143498000Y-130048000D01*
X143498000Y-130048000D02*
X143498000Y-130417000D01*
X135128000Y-122999000D02*
X135128000Y-122428000D01*
X134366000Y-122174000D02*
X135128000Y-122428000D01*
D33*
X136715000Y-115824000D02*
X136080000Y-116459000D01*
X132842000Y-121019000D02*
X132842000Y-121221500D01*
D31*
X132842000Y-121019000D02*
X131318000Y-121019000D01*
X146812000Y-128270000D02*
X146812000Y-127369000D01*
D33*
X129223000Y-122999000D02*
X129032000Y-122999000D01*
X130048000Y-122174000D02*
X129223000Y-122999000D01*
D31*
X130048000Y-122174000D02*
X129032000Y-122999000D01*
X130163000Y-122174000D02*
X130048000Y-122174000D01*
X131318000Y-121019000D02*
X130163000Y-122174000D01*
X144018000Y-130302000D02*
X143498000Y-130417000D01*
X144272000Y-130556000D02*
X144018000Y-130302000D01*
X144272000Y-130556000D02*
X144526000Y-130556000D01*
X106172000Y-115824000D02*
X105752000Y-116244000D01*
X106764000Y-115824000D02*
X106172000Y-115824000D01*
X106764000Y-115824000D02*
X107708000Y-115824000D01*
X107708000Y-115824000D02*
X108204000Y-115328000D01*
D35*
X140716000Y-119949000D02*
X140274000Y-119949000D01*
D32*
X140274000Y-119949000D02*
X138176000Y-122047000D01*
X138176000Y-124714000D02*
X138176000Y-122047000D01*
X140269000Y-126807000D02*
X138176000Y-124714000D01*
D35*
X140269000Y-126807000D02*
X140716000Y-126807000D01*
D32*
X109958000Y-112522000D02*
X109958000Y-113308000D01*
X109958000Y-113308000D02*
X109467266Y-113798734D01*
X109467266Y-113798734D02*
X109474000Y-113792000D01*
D31*
X146558000Y-124436000D02*
X146074000Y-123952000D01*
X146074000Y-123952000D02*
X142748000Y-123952000D01*
X142748000Y-123952000D02*
X141998000Y-123202000D01*
X141998000Y-123202000D02*
X141998000Y-122555000D01*
X141478000Y-121031000D02*
X141478000Y-121539000D01*
X141478000Y-121539000D02*
X141732000Y-121793000D01*
X140970000Y-121031000D02*
X141478000Y-121031000D01*
X141478000Y-121031000D02*
X141744000Y-121031000D01*
X141744000Y-121031000D02*
X141998000Y-121285000D01*
X141998000Y-121285000D02*
X141998000Y-122555000D01*
X140970000Y-121031000D02*
X140970000Y-121527000D01*
X141998000Y-122555000D02*
X140970000Y-121527000D01*
X140970000Y-127889000D02*
X140970000Y-128397000D01*
X140970000Y-127889000D02*
X141478000Y-127889000D01*
X141478000Y-127889000D02*
X141478000Y-128651000D01*
X141478000Y-128397000D02*
X141478000Y-128651000D01*
X141478000Y-128651000D02*
X141478000Y-128397000D01*
X130683000Y-116713000D02*
X130631000Y-116661000D01*
X130631000Y-116661000D02*
X130631000Y-116459000D01*
D33*
X131318000Y-119761000D02*
X131318000Y-119519000D01*
D31*
X141998000Y-129806000D02*
X141998000Y-130048000D01*
X141998000Y-128524000D02*
X141998000Y-129806000D01*
X141744000Y-128270000D02*
X141998000Y-128524000D01*
X141744000Y-128270000D02*
X140970000Y-127889000D01*
X140970000Y-128397000D02*
X141998000Y-130048000D01*
X141478000Y-128651000D02*
X141998000Y-129806000D01*
D32*
X132207000Y-116459000D02*
X133160000Y-116459000D01*
X130873000Y-116459000D02*
X132207000Y-116459000D01*
X131318000Y-116777000D02*
X130873000Y-116459000D01*
X131318000Y-119519000D02*
X131318000Y-116777000D01*
X132080000Y-119519000D02*
X131318000Y-119519000D01*
X132842000Y-119519000D02*
X132080000Y-119519000D01*
X132842000Y-116777000D02*
X132842000Y-119519000D01*
X133160000Y-116459000D02*
X132842000Y-116777000D01*
X132080000Y-116586000D02*
X132080000Y-119519000D01*
X132207000Y-116459000D02*
X132080000Y-116586000D01*
X110744000Y-121158000D02*
X111252000Y-121666000D01*
X108458000Y-133858000D02*
X111252000Y-131064000D01*
X111252000Y-131064000D02*
X111252000Y-121666000D01*
D31*
X108458000Y-133858000D02*
X108458000Y-136906000D01*
D32*
X105664000Y-138430000D02*
X106934000Y-138430000D01*
X106934000Y-138430000D02*
X108458000Y-136906000D01*
X103886000Y-140208000D02*
X105664000Y-138430000D01*
X111252000Y-121666000D02*
X111252000Y-120650000D01*
D31*
X133858000Y-127824000D02*
X134554000Y-127128000D01*
X134554000Y-127128000D02*
X134554000Y-126365000D01*
D32*
X109474000Y-115062000D02*
X111252000Y-116840000D01*
X111252000Y-120650000D02*
X110744000Y-121158000D01*
X111252000Y-116840000D02*
X111252000Y-120650000D01*
X116713000Y-140208000D02*
X118122000Y-140208000D01*
D33*
X105852000Y-121158000D02*
X105410000Y-121158000D01*
D31*
X105852000Y-121158000D02*
X110744000Y-121158000D01*
X110744000Y-121158000D02*
X110998000Y-121158000D01*
D36*
X105410000Y-109982000D02*
X106934000Y-109982000D01*
X108458000Y-111506000D02*
X108458000Y-114300000D01*
X106934000Y-109982000D02*
X108458000Y-111506000D01*
D33*
X134554000Y-126365000D02*
X135255000Y-125664000D01*
X135255000Y-125664000D02*
X135255000Y-125603000D01*
D36*
X106764000Y-114874000D02*
X107338000Y-114300000D01*
X108712000Y-114300000D02*
X109220000Y-114808000D01*
X107338000Y-114300000D02*
X108458000Y-114300000D01*
X108458000Y-114300000D02*
X108712000Y-114300000D01*
D31*
X109220000Y-114808000D02*
X109474000Y-115062000D01*
D32*
X109474000Y-115062000D02*
X110998000Y-116586000D01*
D33*
X134554000Y-126365000D02*
X134554000Y-126869000D01*
X131064000Y-126365000D02*
X132080000Y-127381000D01*
X132080000Y-127381000D02*
X133538000Y-127381000D01*
X133538000Y-127381000D02*
X134554000Y-126365000D01*
X129986000Y-126365000D02*
X131064000Y-126365000D01*
D31*
X144206000Y-125222000D02*
X144206000Y-126558000D01*
X144206000Y-126558000D02*
X143891000Y-126873000D01*
X143891000Y-126873000D02*
X144006000Y-127000000D01*
D33*
X143891000Y-126873000D02*
X143879000Y-126873000D01*
D31*
X140716000Y-124907000D02*
X141478000Y-124907000D01*
X141478000Y-124907000D02*
X141544000Y-124907000D01*
D33*
X142306000Y-125288000D02*
X142306000Y-125222000D01*
X142494000Y-125476000D02*
X142306000Y-125288000D01*
D31*
X142494000Y-125476000D02*
X142306000Y-125222000D01*
X142506000Y-125488000D02*
X142494000Y-125476000D01*
X142506000Y-125857000D02*
X142506000Y-125488000D01*
X142506000Y-127000000D02*
X142506000Y-125857000D01*
X142118000Y-125034000D02*
X142306000Y-125222000D01*
X141478000Y-124907000D02*
X142118000Y-125034000D01*
X141544000Y-124907000D02*
X142506000Y-125869000D01*
X142506000Y-125869000D02*
X142494000Y-125857000D01*
X142494000Y-125857000D02*
X142506000Y-125857000D01*
D32*
X144206000Y-117856000D02*
X144206000Y-113472000D01*
D31*
X144006000Y-118056000D02*
X144006000Y-119761000D01*
X144206000Y-117856000D02*
X144006000Y-118056000D01*
D32*
X135382000Y-104648000D02*
X132080000Y-104648000D01*
X144206000Y-113472000D02*
X135382000Y-104648000D01*
D31*
X141478000Y-118049000D02*
X140716000Y-118049000D01*
X141478000Y-118049000D02*
X142506000Y-119077000D01*
X142494000Y-118999000D02*
X142506000Y-118999000D01*
X142506000Y-119011000D02*
X142494000Y-118999000D01*
X142506000Y-119077000D02*
X142506000Y-119011000D01*
X142506000Y-119761000D02*
X142506000Y-118999000D01*
X142306000Y-117856000D02*
X142118000Y-117668000D01*
X142118000Y-117668000D02*
X141478000Y-118049000D01*
X142506000Y-118999000D02*
X142506000Y-118056000D01*
X142506000Y-118056000D02*
X142306000Y-117856000D01*
D33*
X142494000Y-118110000D02*
X142306000Y-117922000D01*
X142306000Y-117922000D02*
X142306000Y-117856000D01*
D32*
X119253000Y-128754000D02*
X119610000Y-128754000D01*
X119610000Y-128754000D02*
X119888000Y-129032000D01*
X119888000Y-129032000D02*
X119253000Y-128754000D01*
X120015000Y-120523000D02*
X120015000Y-120372000D01*
X120015000Y-120372000D02*
X119253000Y-119610000D01*
X121285000Y-128639000D02*
X121043000Y-128639000D01*
X121043000Y-128639000D02*
X119761000Y-129921000D01*
X119761000Y-129921000D02*
X119761000Y-130187000D01*
X119761000Y-130187000D02*
X119761000Y-129159000D01*
X120281000Y-128639000D02*
X121285000Y-128639000D01*
X119761000Y-129159000D02*
X120281000Y-128639000D01*
D31*
X121031000Y-120904000D02*
X120928000Y-120904000D01*
X120928000Y-120904000D02*
X120281000Y-120257000D01*
X120904000Y-121805000D02*
X120535000Y-121805000D01*
X120535000Y-121805000D02*
X119888000Y-121158000D01*
X119761000Y-121158000D02*
X119888000Y-121158000D01*
X119888000Y-121158000D02*
X120257000Y-121158000D01*
X120257000Y-121158000D02*
X120904000Y-121805000D01*
X109458000Y-129540000D02*
X109458000Y-130794000D01*
X109458000Y-130794000D02*
X109474000Y-130810000D01*
D32*
X121031000Y-130187000D02*
X121031000Y-129921000D01*
X121031000Y-130187000D02*
X119761000Y-130187000D01*
X121031000Y-130187000D02*
X121031000Y-128917000D01*
X121031000Y-128917000D02*
X121019000Y-128905000D01*
X121019000Y-128905000D02*
X121285000Y-128639000D01*
X119761000Y-130187000D02*
X119761000Y-130175000D01*
X121019000Y-128905000D02*
X121285000Y-128639000D01*
D31*
X120281000Y-120257000D02*
X120015000Y-120523000D01*
X121285000Y-120257000D02*
X120281000Y-120257000D01*
X119761000Y-120777000D02*
X120015000Y-120523000D01*
X119761000Y-121805000D02*
X119761000Y-121158000D01*
X119761000Y-121158000D02*
X119761000Y-120777000D01*
X121031000Y-121805000D02*
X119761000Y-121805000D01*
X121031000Y-120511000D02*
X121285000Y-120257000D01*
X121031000Y-121805000D02*
X121031000Y-120904000D01*
X121031000Y-120904000D02*
X121031000Y-120511000D01*
X121031000Y-121539000D02*
X120015000Y-120523000D01*
X121031000Y-121805000D02*
X121031000Y-121539000D01*
D32*
X123063000Y-125960000D02*
X123063000Y-126111000D01*
X123063000Y-126111000D02*
X122555000Y-126619000D01*
X122555000Y-117578000D02*
X122555000Y-118237000D01*
X122555000Y-126619000D02*
X122035000Y-127139000D01*
X122035000Y-127139000D02*
X121285000Y-127139000D01*
X109474000Y-136144000D02*
X110109000Y-135509000D01*
D34*
X110109000Y-135509000D02*
X116967000Y-128651000D01*
X116967000Y-128651000D02*
X116967000Y-118237000D01*
D32*
X116967000Y-118237000D02*
X122555000Y-118237000D01*
D31*
X122555000Y-118237000D02*
X123329000Y-119011000D01*
X123329000Y-119011000D02*
X123190000Y-118872000D01*
X123190000Y-118872000D02*
X123190000Y-119011000D01*
X109474000Y-136144000D02*
X109474000Y-135144000D01*
X109474000Y-135144000D02*
X109458000Y-135128000D01*
D32*
X123825000Y-127393000D02*
X123051000Y-126619000D01*
X123051000Y-126619000D02*
X122555000Y-126619000D01*
X123825000Y-127393000D02*
X122555000Y-127393000D01*
X122555000Y-127393000D02*
X122301000Y-127139000D01*
D31*
X122555000Y-119011000D02*
X123190000Y-119011000D01*
X123190000Y-119011000D02*
X123825000Y-119011000D01*
X122301000Y-118757000D02*
X122555000Y-119011000D01*
X122047000Y-118757000D02*
X122301000Y-118757000D01*
X121285000Y-118757000D02*
X122047000Y-118757000D01*
X122555000Y-118237000D02*
X122047000Y-118745000D01*
X122047000Y-118745000D02*
X122047000Y-118757000D01*
X123051000Y-118237000D02*
X122555000Y-118237000D01*
X123825000Y-119011000D02*
X123051000Y-118237000D01*
X109474000Y-119634000D02*
X109474000Y-118634000D01*
X109474000Y-118634000D02*
X109458000Y-118618000D01*
D33*
X134112000Y-129794000D02*
X133858000Y-129540000D01*
X133858000Y-129540000D02*
X133858000Y-129224000D01*
X128016000Y-126365000D02*
X128586000Y-126365000D01*
X132654000Y-125923000D02*
X132334000Y-125603000D01*
X132654000Y-125923000D02*
X132654000Y-126365000D01*
D31*
X124460000Y-147828000D02*
X124460000Y-148590000D01*
X123952000Y-149098000D02*
X123190000Y-149098000D01*
X124460000Y-148590000D02*
X123952000Y-149098000D01*
X123190000Y-149098000D02*
X114554000Y-149098000D01*
X114554000Y-149098000D02*
X112776000Y-147320000D01*
D32*
X119622000Y-140208000D02*
X124714000Y-140208000D01*
X124714000Y-140208000D02*
X125984000Y-141478000D01*
D31*
X132842000Y-113980000D02*
X132842000Y-113538000D01*
X131572000Y-113284000D02*
X131506000Y-113284000D01*
X131506000Y-113284000D02*
X130810000Y-113980000D01*
D32*
X102886000Y-124952000D02*
X102870000Y-124968000D01*
X102886000Y-123952000D02*
X102886000Y-124952000D01*
X101346000Y-132080000D02*
X101346000Y-120904000D01*
X101346000Y-120904000D02*
X102870000Y-119380000D01*
X102870000Y-130556000D02*
X101346000Y-132080000D01*
D31*
X102886000Y-119364000D02*
X102870000Y-119380000D01*
X102886000Y-118364000D02*
X102886000Y-119364000D01*
D36*
X102870000Y-130556000D02*
X102886000Y-130540000D01*
X102886000Y-130540000D02*
X102886000Y-129540000D01*
X105156000Y-146558000D02*
X104394000Y-146558000D01*
D32*
X106426000Y-147828000D02*
X105156000Y-146558000D01*
D36*
X102108000Y-144018000D02*
X101346000Y-144018000D01*
X102616000Y-144018000D02*
X102108000Y-144018000D01*
X103124000Y-144018000D02*
X102616000Y-144018000D01*
X103378000Y-144018000D02*
X103124000Y-144018000D01*
X104394000Y-144018000D02*
X103378000Y-144018000D01*
X105156000Y-145796000D02*
X105156000Y-144780000D01*
X105156000Y-146558000D02*
X105156000Y-145796000D01*
X104394000Y-144018000D02*
X105156000Y-144780000D01*
X105156000Y-145796000D02*
X104394000Y-146558000D01*
X104394000Y-146558000D02*
X105664000Y-147828000D01*
X106426000Y-147066000D02*
X105156000Y-145796000D01*
X106426000Y-147828000D02*
X106426000Y-147066000D01*
X102616000Y-148336000D02*
X101092000Y-146812000D01*
X103378000Y-149098000D02*
X102616000Y-148336000D01*
X105156000Y-149098000D02*
X106426000Y-147828000D01*
X104394000Y-149098000D02*
X103378000Y-149098000D01*
X105156000Y-149098000D02*
X104394000Y-149098000D01*
X104394000Y-146558000D02*
X103124000Y-146558000D01*
X102108000Y-146558000D02*
X101346000Y-146558000D01*
X103124000Y-146558000D02*
X102108000Y-146558000D01*
D32*
X101346000Y-145796000D02*
X101346000Y-146558000D01*
X101346000Y-145288000D02*
X101346000Y-145796000D01*
X101346000Y-144780000D02*
X101346000Y-145288000D01*
X101346000Y-143764000D02*
X101346000Y-144780000D01*
X101346000Y-143002000D02*
X101346000Y-143764000D01*
X101346000Y-142494000D02*
X101346000Y-143002000D01*
X101346000Y-141986000D02*
X101346000Y-142494000D01*
X101346000Y-132080000D02*
X101346000Y-141986000D01*
D36*
X101854000Y-145288000D02*
X101346000Y-145796000D01*
X102108000Y-145034000D02*
X101854000Y-145288000D01*
X102362000Y-144780000D02*
X102108000Y-145034000D01*
X102616000Y-144526000D02*
X102362000Y-144780000D01*
X102997000Y-144145000D02*
X102616000Y-144526000D01*
X103124000Y-144018000D02*
X102997000Y-144145000D01*
X102616000Y-147828000D02*
X102616000Y-148336000D01*
X102616000Y-147320000D02*
X102616000Y-147828000D01*
X102616000Y-145796000D02*
X102616000Y-147320000D01*
X102616000Y-144526000D02*
X102616000Y-145796000D01*
X103378000Y-146558000D02*
X103124000Y-146558000D01*
X102870000Y-146050000D02*
X103378000Y-146558000D01*
X102616000Y-145796000D02*
X102870000Y-146050000D01*
X102870000Y-147066000D02*
X102616000Y-147320000D01*
X103378000Y-146558000D02*
X102870000Y-147066000D01*
X104648000Y-148844000D02*
X104394000Y-149098000D01*
X105664000Y-147828000D02*
X104648000Y-148844000D01*
X106426000Y-147828000D02*
X105664000Y-147828000D01*
X105918000Y-147828000D02*
X106426000Y-147828000D01*
X104902000Y-148844000D02*
X105918000Y-147828000D01*
X104648000Y-148844000D02*
X104902000Y-148844000D01*
X102870000Y-147066000D02*
X102870000Y-146050000D01*
X102616000Y-147828000D02*
X101346000Y-146558000D01*
X101854000Y-146558000D02*
X102108000Y-146558000D01*
X102616000Y-147320000D02*
X101854000Y-146558000D01*
X102616000Y-147320000D02*
X102616000Y-147320000D01*
X102362000Y-147066000D02*
X102362000Y-144780000D01*
X102616000Y-147320000D02*
X102362000Y-147066000D01*
X102108000Y-145288000D02*
X102108000Y-145034000D01*
X102108000Y-145034000D02*
X102108000Y-145288000D01*
X102108000Y-146558000D02*
X102108000Y-145034000D01*
X101854000Y-145542000D02*
X101854000Y-145288000D01*
X101854000Y-145288000D02*
X101854000Y-145542000D01*
X101854000Y-146558000D02*
X101854000Y-145288000D01*
X102489000Y-144145000D02*
X101346000Y-145288000D01*
X102616000Y-144018000D02*
X102489000Y-144145000D01*
X101981000Y-144145000D02*
X101346000Y-144780000D01*
X102108000Y-144018000D02*
X101981000Y-144145000D01*
X103378000Y-144018000D02*
X101346000Y-141986000D01*
X102997000Y-144145000D02*
X101346000Y-142494000D01*
X102489000Y-144145000D02*
X101346000Y-143002000D01*
X101346000Y-143510000D02*
X101600000Y-143764000D01*
X101600000Y-143764000D02*
X101346000Y-143764000D01*
X101981000Y-144145000D02*
X101346000Y-143510000D01*
D32*
X102886000Y-113776000D02*
X102870000Y-113792000D01*
X102886000Y-112776000D02*
X102886000Y-113776000D01*
D36*
X102886000Y-136128000D02*
X102886000Y-135128000D01*
X102870000Y-136144000D02*
X102886000Y-136128000D01*
D31*
X138176000Y-140208000D02*
X138263000Y-140208000D01*
X138263000Y-140208000D02*
X138303000Y-140248000D01*
X133096000Y-141732000D02*
X133096000Y-140208000D01*
X131572000Y-143256000D02*
X133096000Y-141732000D01*
X120904000Y-143256000D02*
X131572000Y-143256000D01*
X119380000Y-144780000D02*
X120904000Y-143256000D01*
X123190000Y-147574000D02*
X125984000Y-144780000D01*
X123190000Y-147828000D02*
X123190000Y-147574000D01*
X125984000Y-144780000D02*
X132588000Y-144780000D01*
X135636000Y-141732000D02*
X135636000Y-140208000D01*
X132588000Y-144780000D02*
X135636000Y-141732000D01*
D33*
X103952000Y-122621000D02*
X103952000Y-121158000D01*
X104013000Y-122682000D02*
X103952000Y-122621000D01*
X103952000Y-121158000D02*
X103952000Y-117795000D01*
X103947000Y-114874000D02*
X104564000Y-114874000D01*
X103505000Y-115316000D02*
X103947000Y-114874000D01*
X103505000Y-117348000D02*
X103505000Y-115316000D01*
X103952000Y-117795000D02*
X103505000Y-117348000D01*
X104267000Y-116690000D02*
X104267000Y-116926000D01*
X104267000Y-116926000D02*
X104267000Y-116840000D01*
D36*
X104267000Y-116840000D02*
X104267000Y-116690000D01*
D33*
X105156000Y-115824000D02*
X105664000Y-115316000D01*
X104564000Y-115824000D02*
X105156000Y-115824000D01*
X103886000Y-113538000D02*
X103886000Y-111506000D01*
X104394000Y-114046000D02*
X103886000Y-113538000D01*
X105156000Y-114046000D02*
X104394000Y-114046000D01*
X105664000Y-114554000D02*
X105156000Y-114046000D01*
X105664000Y-115316000D02*
X105664000Y-114554000D01*
D32*
X134644000Y-113538000D02*
X133186000Y-112080000D01*
X133186000Y-112080000D02*
X132842000Y-112080000D01*
X130810000Y-112080000D02*
X129958000Y-112080000D01*
X129958000Y-112080000D02*
X129008000Y-113030000D01*
D31*
X108204000Y-116828000D02*
X106818000Y-116828000D01*
X106818000Y-116828000D02*
X106764000Y-116774000D01*
D33*
G36*
X143637000Y-139244606D02*
X143637000Y-144210569D01*
X143624560Y-144272000D01*
X143624560Y-146304000D01*
X143637000Y-146370113D01*
X143637000Y-146750569D01*
X143624560Y-146812000D01*
X143624560Y-148844000D01*
X143637000Y-148910113D01*
X143637000Y-149175000D01*
X125117763Y-149175000D01*
X125281329Y-148930206D01*
X125349000Y-148590000D01*
X125349000Y-148544283D01*
X125421645Y-148471765D01*
X125594803Y-148054756D01*
X125595197Y-147603225D01*
X125422767Y-147185914D01*
X125129301Y-146891935D01*
X126352236Y-145669000D01*
X132588000Y-145669000D01*
X132928206Y-145601329D01*
X133216618Y-145408618D01*
X136264618Y-142360618D01*
X136314327Y-142286223D01*
X136457329Y-142072206D01*
X136525000Y-141732000D01*
X136525000Y-140924283D01*
X136597645Y-140851765D01*
X136734457Y-140522285D01*
X136917760Y-140522285D01*
X137128169Y-141031515D01*
X137517436Y-141421461D01*
X138026298Y-141632759D01*
X138577285Y-141633240D01*
X139086515Y-141422831D01*
X139476461Y-141033564D01*
X139687759Y-140524702D01*
X139688240Y-139973715D01*
X139477831Y-139464485D01*
X139088564Y-139074539D01*
X138579702Y-138863241D01*
X138028715Y-138862760D01*
X137519485Y-139073169D01*
X137129539Y-139462436D01*
X136918241Y-139971298D01*
X136917760Y-140522285D01*
X136734457Y-140522285D01*
X136770803Y-140434756D01*
X136771197Y-139983225D01*
X136598767Y-139565914D01*
X136279765Y-139246355D01*
X135862756Y-139073197D01*
X135411225Y-139072803D01*
X134993914Y-139245233D01*
X134674355Y-139564235D01*
X134501197Y-139981244D01*
X134500803Y-140432775D01*
X134673233Y-140850086D01*
X134747000Y-140923982D01*
X134747000Y-141363764D01*
X132219764Y-143891000D01*
X132191067Y-143891000D01*
X132200618Y-143884618D01*
X133724618Y-142360618D01*
X133917329Y-142072206D01*
X133985000Y-141732000D01*
X133985000Y-140924283D01*
X134057645Y-140851765D01*
X134230803Y-140434756D01*
X134231197Y-139983225D01*
X134058767Y-139565914D01*
X133739765Y-139246355D01*
X133322756Y-139073197D01*
X132871225Y-139072803D01*
X132453914Y-139245233D01*
X132134355Y-139564235D01*
X131961197Y-139981244D01*
X131960803Y-140432775D01*
X132133233Y-140850086D01*
X132207000Y-140923982D01*
X132207000Y-141363764D01*
X131203764Y-142367000D01*
X126798606Y-142367000D01*
X128613803Y-140551803D01*
X128641666Y-140509789D01*
X128651000Y-140462000D01*
X128651000Y-136779000D01*
X141171394Y-136779000D01*
X143637000Y-139244606D01*
X143637000Y-139244606D01*
G37*
X143637000Y-139244606D02*
X143637000Y-144210569D01*
X143624560Y-144272000D01*
X143624560Y-146304000D01*
X143637000Y-146370113D01*
X143637000Y-146750569D01*
X143624560Y-146812000D01*
X143624560Y-148844000D01*
X143637000Y-148910113D01*
X143637000Y-149175000D01*
X125117763Y-149175000D01*
X125281329Y-148930206D01*
X125349000Y-148590000D01*
X125349000Y-148544283D01*
X125421645Y-148471765D01*
X125594803Y-148054756D01*
X125595197Y-147603225D01*
X125422767Y-147185914D01*
X125129301Y-146891935D01*
X126352236Y-145669000D01*
X132588000Y-145669000D01*
X132928206Y-145601329D01*
X133216618Y-145408618D01*
X136264618Y-142360618D01*
X136314327Y-142286223D01*
X136457329Y-142072206D01*
X136525000Y-141732000D01*
X136525000Y-140924283D01*
X136597645Y-140851765D01*
X136734457Y-140522285D01*
X136917760Y-140522285D01*
X137128169Y-141031515D01*
X137517436Y-141421461D01*
X138026298Y-141632759D01*
X138577285Y-141633240D01*
X139086515Y-141422831D01*
X139476461Y-141033564D01*
X139687759Y-140524702D01*
X139688240Y-139973715D01*
X139477831Y-139464485D01*
X139088564Y-139074539D01*
X138579702Y-138863241D01*
X138028715Y-138862760D01*
X137519485Y-139073169D01*
X137129539Y-139462436D01*
X136918241Y-139971298D01*
X136917760Y-140522285D01*
X136734457Y-140522285D01*
X136770803Y-140434756D01*
X136771197Y-139983225D01*
X136598767Y-139565914D01*
X136279765Y-139246355D01*
X135862756Y-139073197D01*
X135411225Y-139072803D01*
X134993914Y-139245233D01*
X134674355Y-139564235D01*
X134501197Y-139981244D01*
X134500803Y-140432775D01*
X134673233Y-140850086D01*
X134747000Y-140923982D01*
X134747000Y-141363764D01*
X132219764Y-143891000D01*
X132191067Y-143891000D01*
X132200618Y-143884618D01*
X133724618Y-142360618D01*
X133917329Y-142072206D01*
X133985000Y-141732000D01*
X133985000Y-140924283D01*
X134057645Y-140851765D01*
X134230803Y-140434756D01*
X134231197Y-139983225D01*
X134058767Y-139565914D01*
X133739765Y-139246355D01*
X133322756Y-139073197D01*
X132871225Y-139072803D01*
X132453914Y-139245233D01*
X132134355Y-139564235D01*
X131961197Y-139981244D01*
X131960803Y-140432775D01*
X132133233Y-140850086D01*
X132207000Y-140923982D01*
X132207000Y-141363764D01*
X131203764Y-142367000D01*
X126798606Y-142367000D01*
X128613803Y-140551803D01*
X128641666Y-140509789D01*
X128651000Y-140462000D01*
X128651000Y-136779000D01*
X141171394Y-136779000D01*
X143637000Y-139244606D01*
G36*
X119257871Y-143644893D02*
X119155225Y-143644803D01*
X118737914Y-143817233D01*
X118418355Y-144136235D01*
X118245197Y-144553244D01*
X118244803Y-145004775D01*
X118417233Y-145422086D01*
X118736235Y-145741645D01*
X119153244Y-145914803D01*
X119604775Y-145915197D01*
X120022086Y-145742767D01*
X120341645Y-145423765D01*
X120514803Y-145006756D01*
X120514894Y-144902342D01*
X121272236Y-144145000D01*
X125364933Y-144145000D01*
X125355382Y-144151382D01*
X122707450Y-146799314D01*
X122547914Y-146865233D01*
X122228355Y-147184235D01*
X122055197Y-147601244D01*
X122054803Y-148052775D01*
X122119354Y-148209000D01*
X114922236Y-148209000D01*
X113911107Y-147197871D01*
X113911197Y-147095225D01*
X113907504Y-147086285D01*
X114438760Y-147086285D01*
X114649169Y-147595515D01*
X115038436Y-147985461D01*
X115547298Y-148196759D01*
X116098285Y-148197240D01*
X116607515Y-147986831D01*
X116997461Y-147597564D01*
X117208759Y-147088702D01*
X117209240Y-146537715D01*
X116998831Y-146028485D01*
X116609564Y-145638539D01*
X116100702Y-145427241D01*
X115549715Y-145426760D01*
X115040485Y-145637169D01*
X114650539Y-146026436D01*
X114439241Y-146535298D01*
X114438760Y-147086285D01*
X113907504Y-147086285D01*
X113738767Y-146677914D01*
X113419765Y-146358355D01*
X113002756Y-146185197D01*
X112551225Y-146184803D01*
X112133914Y-146357233D01*
X111814355Y-146676235D01*
X111641197Y-147093244D01*
X111640803Y-147544775D01*
X111813233Y-147962086D01*
X112132235Y-148281645D01*
X112549244Y-148454803D01*
X112653658Y-148454894D01*
X113373764Y-149175000D01*
X110617000Y-149175000D01*
X110617000Y-142875000D01*
X120027764Y-142875000D01*
X119257871Y-143644893D01*
X119257871Y-143644893D01*
G37*
X119257871Y-143644893D02*
X119155225Y-143644803D01*
X118737914Y-143817233D01*
X118418355Y-144136235D01*
X118245197Y-144553244D01*
X118244803Y-145004775D01*
X118417233Y-145422086D01*
X118736235Y-145741645D01*
X119153244Y-145914803D01*
X119604775Y-145915197D01*
X120022086Y-145742767D01*
X120341645Y-145423765D01*
X120514803Y-145006756D01*
X120514894Y-144902342D01*
X121272236Y-144145000D01*
X125364933Y-144145000D01*
X125355382Y-144151382D01*
X122707450Y-146799314D01*
X122547914Y-146865233D01*
X122228355Y-147184235D01*
X122055197Y-147601244D01*
X122054803Y-148052775D01*
X122119354Y-148209000D01*
X114922236Y-148209000D01*
X113911107Y-147197871D01*
X113911197Y-147095225D01*
X113907504Y-147086285D01*
X114438760Y-147086285D01*
X114649169Y-147595515D01*
X115038436Y-147985461D01*
X115547298Y-148196759D01*
X116098285Y-148197240D01*
X116607515Y-147986831D01*
X116997461Y-147597564D01*
X117208759Y-147088702D01*
X117209240Y-146537715D01*
X116998831Y-146028485D01*
X116609564Y-145638539D01*
X116100702Y-145427241D01*
X115549715Y-145426760D01*
X115040485Y-145637169D01*
X114650539Y-146026436D01*
X114439241Y-146535298D01*
X114438760Y-147086285D01*
X113907504Y-147086285D01*
X113738767Y-146677914D01*
X113419765Y-146358355D01*
X113002756Y-146185197D01*
X112551225Y-146184803D01*
X112133914Y-146357233D01*
X111814355Y-146676235D01*
X111641197Y-147093244D01*
X111640803Y-147544775D01*
X111813233Y-147962086D01*
X112132235Y-148281645D01*
X112549244Y-148454803D01*
X112653658Y-148454894D01*
X113373764Y-149175000D01*
X110617000Y-149175000D01*
X110617000Y-142875000D01*
X120027764Y-142875000D01*
X119257871Y-143644893D01*
G36*
X137120006Y-125151407D02*
X137367777Y-125522223D01*
X139319000Y-127473446D01*
X139319000Y-134874000D01*
X139329006Y-134923410D01*
X139356197Y-134963803D01*
X140409394Y-136017000D01*
X128016000Y-136017000D01*
X127966590Y-136027006D01*
X127924965Y-136055447D01*
X127897685Y-136097841D01*
X127889000Y-136144000D01*
X127889000Y-140155394D01*
X125931394Y-142113000D01*
X108331000Y-142113000D01*
X108331000Y-141986000D01*
X108320994Y-141936590D01*
X108293803Y-141896197D01*
X107552103Y-141154497D01*
X107708688Y-140982947D01*
X107880958Y-140567026D01*
X107759817Y-140335000D01*
X106732606Y-140335000D01*
X106605606Y-140208000D01*
X115570000Y-140208000D01*
X115577964Y-140248039D01*
X115577803Y-140432775D01*
X115648972Y-140605016D01*
X115657006Y-140645407D01*
X115679686Y-140679350D01*
X115750233Y-140850086D01*
X115881896Y-140981978D01*
X115904777Y-141016223D01*
X115938723Y-141038905D01*
X116069235Y-141169645D01*
X116241350Y-141241114D01*
X116275593Y-141263994D01*
X116315631Y-141271958D01*
X116486244Y-141342803D01*
X116672609Y-141342966D01*
X116713000Y-141351000D01*
X118122000Y-141351000D01*
X118559407Y-141263994D01*
X118643972Y-141207489D01*
X118757317Y-141186162D01*
X118860646Y-141119671D01*
X118862302Y-141121327D01*
X119095691Y-141218000D01*
X119336250Y-141218000D01*
X119495000Y-141059250D01*
X119495000Y-140335000D01*
X119749000Y-140335000D01*
X119749000Y-141059250D01*
X119907750Y-141218000D01*
X120148309Y-141218000D01*
X120381698Y-141121327D01*
X120560327Y-140942699D01*
X120657000Y-140709310D01*
X120657000Y-140493750D01*
X120498250Y-140335000D01*
X119749000Y-140335000D01*
X119495000Y-140335000D01*
X119475000Y-140335000D01*
X119475000Y-140081000D01*
X119495000Y-140081000D01*
X119495000Y-139356750D01*
X119749000Y-139356750D01*
X119749000Y-140081000D01*
X120498250Y-140081000D01*
X120657000Y-139922250D01*
X120657000Y-139706690D01*
X120560327Y-139473301D01*
X120381698Y-139294673D01*
X120148309Y-139198000D01*
X119907750Y-139198000D01*
X119749000Y-139356750D01*
X119495000Y-139356750D01*
X119336250Y-139198000D01*
X119095691Y-139198000D01*
X118862302Y-139294673D01*
X118860932Y-139296043D01*
X118773890Y-139236569D01*
X118647729Y-139211021D01*
X118559407Y-139152006D01*
X118122000Y-139065000D01*
X116713000Y-139065000D01*
X116672961Y-139072964D01*
X116488225Y-139072803D01*
X116315984Y-139143972D01*
X116275593Y-139152006D01*
X116241650Y-139174686D01*
X116070914Y-139245233D01*
X115939022Y-139376896D01*
X115904777Y-139399777D01*
X115882095Y-139433723D01*
X115751355Y-139564235D01*
X115679886Y-139736350D01*
X115657006Y-139770593D01*
X115649042Y-139810631D01*
X115578197Y-139981244D01*
X115578034Y-140167609D01*
X115570000Y-140208000D01*
X106605606Y-140208000D01*
X106458606Y-140061000D01*
X106553000Y-140061000D01*
X106553000Y-140081000D01*
X107759817Y-140081000D01*
X107880958Y-139848974D01*
X107708688Y-139433053D01*
X107610929Y-139325951D01*
X107742223Y-139238223D01*
X108071671Y-138908775D01*
X123324803Y-138908775D01*
X123497233Y-139326086D01*
X123816235Y-139645645D01*
X124233244Y-139818803D01*
X124684775Y-139819197D01*
X125102086Y-139646767D01*
X125421645Y-139327765D01*
X125594803Y-138910756D01*
X125595197Y-138459225D01*
X125422767Y-138041914D01*
X125103765Y-137722355D01*
X124686756Y-137549197D01*
X124235225Y-137548803D01*
X123817914Y-137721233D01*
X123498355Y-138040235D01*
X123325197Y-138457244D01*
X123324803Y-138908775D01*
X108071671Y-138908775D01*
X109185446Y-137795000D01*
X119380000Y-137795000D01*
X119429410Y-137784994D01*
X119471035Y-137756553D01*
X119498315Y-137714159D01*
X119507000Y-137668000D01*
X119507000Y-136450606D01*
X120956606Y-135001000D01*
X122174000Y-135001000D01*
X122223410Y-134990994D01*
X122263803Y-134963803D01*
X122463275Y-134764331D01*
X122808946Y-134695573D01*
X123258272Y-134395343D01*
X123558502Y-133946017D01*
X123627260Y-133600346D01*
X126073803Y-131153803D01*
X126101666Y-131111789D01*
X126111000Y-131064000D01*
X126111000Y-126798606D01*
X126959191Y-125950415D01*
X126881197Y-126138244D01*
X126880803Y-126589775D01*
X127053233Y-127007086D01*
X127372235Y-127326645D01*
X127789244Y-127499803D01*
X127921188Y-127499918D01*
X128676865Y-128003703D01*
X129018113Y-128112193D01*
X129271317Y-128068162D01*
X129295695Y-128052475D01*
X129400268Y-128098052D01*
X129657255Y-128100984D01*
X129895135Y-128003703D01*
X130795135Y-127403703D01*
X130899242Y-127277872D01*
X131541185Y-127919815D01*
X131788395Y-128084996D01*
X132080000Y-128143000D01*
X132146768Y-128143000D01*
X132110807Y-128256113D01*
X132154838Y-128509317D01*
X132170525Y-128533695D01*
X132124948Y-128638268D01*
X132122016Y-128895255D01*
X132219297Y-129133135D01*
X132819297Y-130033135D01*
X133067631Y-130238595D01*
X133149233Y-130436086D01*
X133468235Y-130755645D01*
X133885244Y-130928803D01*
X134336775Y-130929197D01*
X134754086Y-130756767D01*
X135073645Y-130437765D01*
X135246803Y-130020756D01*
X135247197Y-129569225D01*
X135231424Y-129531053D01*
X135496703Y-129133135D01*
X135605193Y-128791887D01*
X135561162Y-128538683D01*
X135545475Y-128514305D01*
X135591052Y-128409732D01*
X135593984Y-128152745D01*
X135496703Y-127914865D01*
X135287030Y-127600355D01*
X135375330Y-127468205D01*
X135380443Y-127442498D01*
X135500431Y-127266890D01*
X135551440Y-127015000D01*
X135551440Y-126708586D01*
X135897086Y-126565767D01*
X136216645Y-126246765D01*
X136389803Y-125829756D01*
X136390197Y-125378225D01*
X136217767Y-124960914D01*
X136098062Y-124841000D01*
X137058262Y-124841000D01*
X137120006Y-125151407D01*
X137120006Y-125151407D01*
G37*
X137120006Y-125151407D02*
X137367777Y-125522223D01*
X139319000Y-127473446D01*
X139319000Y-134874000D01*
X139329006Y-134923410D01*
X139356197Y-134963803D01*
X140409394Y-136017000D01*
X128016000Y-136017000D01*
X127966590Y-136027006D01*
X127924965Y-136055447D01*
X127897685Y-136097841D01*
X127889000Y-136144000D01*
X127889000Y-140155394D01*
X125931394Y-142113000D01*
X108331000Y-142113000D01*
X108331000Y-141986000D01*
X108320994Y-141936590D01*
X108293803Y-141896197D01*
X107552103Y-141154497D01*
X107708688Y-140982947D01*
X107880958Y-140567026D01*
X107759817Y-140335000D01*
X106732606Y-140335000D01*
X106605606Y-140208000D01*
X115570000Y-140208000D01*
X115577964Y-140248039D01*
X115577803Y-140432775D01*
X115648972Y-140605016D01*
X115657006Y-140645407D01*
X115679686Y-140679350D01*
X115750233Y-140850086D01*
X115881896Y-140981978D01*
X115904777Y-141016223D01*
X115938723Y-141038905D01*
X116069235Y-141169645D01*
X116241350Y-141241114D01*
X116275593Y-141263994D01*
X116315631Y-141271958D01*
X116486244Y-141342803D01*
X116672609Y-141342966D01*
X116713000Y-141351000D01*
X118122000Y-141351000D01*
X118559407Y-141263994D01*
X118643972Y-141207489D01*
X118757317Y-141186162D01*
X118860646Y-141119671D01*
X118862302Y-141121327D01*
X119095691Y-141218000D01*
X119336250Y-141218000D01*
X119495000Y-141059250D01*
X119495000Y-140335000D01*
X119749000Y-140335000D01*
X119749000Y-141059250D01*
X119907750Y-141218000D01*
X120148309Y-141218000D01*
X120381698Y-141121327D01*
X120560327Y-140942699D01*
X120657000Y-140709310D01*
X120657000Y-140493750D01*
X120498250Y-140335000D01*
X119749000Y-140335000D01*
X119495000Y-140335000D01*
X119475000Y-140335000D01*
X119475000Y-140081000D01*
X119495000Y-140081000D01*
X119495000Y-139356750D01*
X119749000Y-139356750D01*
X119749000Y-140081000D01*
X120498250Y-140081000D01*
X120657000Y-139922250D01*
X120657000Y-139706690D01*
X120560327Y-139473301D01*
X120381698Y-139294673D01*
X120148309Y-139198000D01*
X119907750Y-139198000D01*
X119749000Y-139356750D01*
X119495000Y-139356750D01*
X119336250Y-139198000D01*
X119095691Y-139198000D01*
X118862302Y-139294673D01*
X118860932Y-139296043D01*
X118773890Y-139236569D01*
X118647729Y-139211021D01*
X118559407Y-139152006D01*
X118122000Y-139065000D01*
X116713000Y-139065000D01*
X116672961Y-139072964D01*
X116488225Y-139072803D01*
X116315984Y-139143972D01*
X116275593Y-139152006D01*
X116241650Y-139174686D01*
X116070914Y-139245233D01*
X115939022Y-139376896D01*
X115904777Y-139399777D01*
X115882095Y-139433723D01*
X115751355Y-139564235D01*
X115679886Y-139736350D01*
X115657006Y-139770593D01*
X115649042Y-139810631D01*
X115578197Y-139981244D01*
X115578034Y-140167609D01*
X115570000Y-140208000D01*
X106605606Y-140208000D01*
X106458606Y-140061000D01*
X106553000Y-140061000D01*
X106553000Y-140081000D01*
X107759817Y-140081000D01*
X107880958Y-139848974D01*
X107708688Y-139433053D01*
X107610929Y-139325951D01*
X107742223Y-139238223D01*
X108071671Y-138908775D01*
X123324803Y-138908775D01*
X123497233Y-139326086D01*
X123816235Y-139645645D01*
X124233244Y-139818803D01*
X124684775Y-139819197D01*
X125102086Y-139646767D01*
X125421645Y-139327765D01*
X125594803Y-138910756D01*
X125595197Y-138459225D01*
X125422767Y-138041914D01*
X125103765Y-137722355D01*
X124686756Y-137549197D01*
X124235225Y-137548803D01*
X123817914Y-137721233D01*
X123498355Y-138040235D01*
X123325197Y-138457244D01*
X123324803Y-138908775D01*
X108071671Y-138908775D01*
X109185446Y-137795000D01*
X119380000Y-137795000D01*
X119429410Y-137784994D01*
X119471035Y-137756553D01*
X119498315Y-137714159D01*
X119507000Y-137668000D01*
X119507000Y-136450606D01*
X120956606Y-135001000D01*
X122174000Y-135001000D01*
X122223410Y-134990994D01*
X122263803Y-134963803D01*
X122463275Y-134764331D01*
X122808946Y-134695573D01*
X123258272Y-134395343D01*
X123558502Y-133946017D01*
X123627260Y-133600346D01*
X126073803Y-131153803D01*
X126101666Y-131111789D01*
X126111000Y-131064000D01*
X126111000Y-126798606D01*
X126959191Y-125950415D01*
X126881197Y-126138244D01*
X126880803Y-126589775D01*
X127053233Y-127007086D01*
X127372235Y-127326645D01*
X127789244Y-127499803D01*
X127921188Y-127499918D01*
X128676865Y-128003703D01*
X129018113Y-128112193D01*
X129271317Y-128068162D01*
X129295695Y-128052475D01*
X129400268Y-128098052D01*
X129657255Y-128100984D01*
X129895135Y-128003703D01*
X130795135Y-127403703D01*
X130899242Y-127277872D01*
X131541185Y-127919815D01*
X131788395Y-128084996D01*
X132080000Y-128143000D01*
X132146768Y-128143000D01*
X132110807Y-128256113D01*
X132154838Y-128509317D01*
X132170525Y-128533695D01*
X132124948Y-128638268D01*
X132122016Y-128895255D01*
X132219297Y-129133135D01*
X132819297Y-130033135D01*
X133067631Y-130238595D01*
X133149233Y-130436086D01*
X133468235Y-130755645D01*
X133885244Y-130928803D01*
X134336775Y-130929197D01*
X134754086Y-130756767D01*
X135073645Y-130437765D01*
X135246803Y-130020756D01*
X135247197Y-129569225D01*
X135231424Y-129531053D01*
X135496703Y-129133135D01*
X135605193Y-128791887D01*
X135561162Y-128538683D01*
X135545475Y-128514305D01*
X135591052Y-128409732D01*
X135593984Y-128152745D01*
X135496703Y-127914865D01*
X135287030Y-127600355D01*
X135375330Y-127468205D01*
X135380443Y-127442498D01*
X135500431Y-127266890D01*
X135551440Y-127015000D01*
X135551440Y-126708586D01*
X135897086Y-126565767D01*
X136216645Y-126246765D01*
X136389803Y-125829756D01*
X136390197Y-125378225D01*
X136217767Y-124960914D01*
X136098062Y-124841000D01*
X137058262Y-124841000D01*
X137120006Y-125151407D01*
G36*
X134293355Y-124959235D02*
X134248374Y-125067560D01*
X134204000Y-125067560D01*
X133968683Y-125111838D01*
X133752559Y-125250910D01*
X133607569Y-125463110D01*
X133604919Y-125476197D01*
X133468090Y-125263559D01*
X133403615Y-125219505D01*
X133296767Y-124960914D01*
X133177062Y-124841000D01*
X134411796Y-124841000D01*
X134293355Y-124959235D01*
X134293355Y-124959235D01*
G37*
X134293355Y-124959235D02*
X134248374Y-125067560D01*
X134204000Y-125067560D01*
X133968683Y-125111838D01*
X133752559Y-125250910D01*
X133607569Y-125463110D01*
X133604919Y-125476197D01*
X133468090Y-125263559D01*
X133403615Y-125219505D01*
X133296767Y-124960914D01*
X133177062Y-124841000D01*
X134411796Y-124841000D01*
X134293355Y-124959235D01*
G36*
X109855000Y-149175000D02*
X107085010Y-149175000D01*
X107515029Y-148887670D01*
X107839885Y-148401489D01*
X107953959Y-147828000D01*
X107839885Y-147254511D01*
X107515029Y-146768330D01*
X107191772Y-146552336D01*
X107314490Y-146494821D01*
X107708688Y-146062947D01*
X107880958Y-145647026D01*
X107759817Y-145415000D01*
X106553000Y-145415000D01*
X106553000Y-145435000D01*
X106299000Y-145435000D01*
X106299000Y-145415000D01*
X106279000Y-145415000D01*
X106279000Y-145161000D01*
X106299000Y-145161000D01*
X106299000Y-145141000D01*
X106553000Y-145141000D01*
X106553000Y-145161000D01*
X107759817Y-145161000D01*
X107880958Y-144928974D01*
X107766653Y-144653000D01*
X108204000Y-144653000D01*
X108253410Y-144642994D01*
X108295035Y-144614553D01*
X108322315Y-144572159D01*
X108331000Y-144526000D01*
X108331000Y-142875000D01*
X109855000Y-142875000D01*
X109855000Y-149175000D01*
X109855000Y-149175000D01*
G37*
X109855000Y-149175000D02*
X107085010Y-149175000D01*
X107515029Y-148887670D01*
X107839885Y-148401489D01*
X107953959Y-147828000D01*
X107839885Y-147254511D01*
X107515029Y-146768330D01*
X107191772Y-146552336D01*
X107314490Y-146494821D01*
X107708688Y-146062947D01*
X107880958Y-145647026D01*
X107759817Y-145415000D01*
X106553000Y-145415000D01*
X106553000Y-145435000D01*
X106299000Y-145435000D01*
X106299000Y-145415000D01*
X106279000Y-145415000D01*
X106279000Y-145161000D01*
X106299000Y-145161000D01*
X106299000Y-145141000D01*
X106553000Y-145141000D01*
X106553000Y-145161000D01*
X107759817Y-145161000D01*
X107880958Y-144928974D01*
X107766653Y-144653000D01*
X108204000Y-144653000D01*
X108253410Y-144642994D01*
X108295035Y-144614553D01*
X108322315Y-144572159D01*
X108331000Y-144526000D01*
X108331000Y-142875000D01*
X109855000Y-142875000D01*
X109855000Y-149175000D01*
G36*
X104013000Y-145161000D02*
X104033000Y-145161000D01*
X104033000Y-145415000D01*
X104013000Y-145415000D01*
X104013000Y-145435000D01*
X103759000Y-145435000D01*
X103759000Y-145415000D01*
X103739000Y-145415000D01*
X103739000Y-145161000D01*
X103759000Y-145161000D01*
X103759000Y-145141000D01*
X104013000Y-145141000D01*
X104013000Y-145161000D01*
X104013000Y-145161000D01*
G37*
X104013000Y-145161000D02*
X104033000Y-145161000D01*
X104033000Y-145415000D01*
X104013000Y-145415000D01*
X104013000Y-145435000D01*
X103759000Y-145435000D01*
X103759000Y-145415000D01*
X103739000Y-145415000D01*
X103739000Y-145161000D01*
X103759000Y-145161000D01*
X103759000Y-145141000D01*
X104013000Y-145141000D01*
X104013000Y-145161000D01*
G36*
X149175000Y-143637000D02*
X146365431Y-143637000D01*
X146304000Y-143624560D01*
X144399000Y-143624560D01*
X144399000Y-138938000D01*
X144388994Y-138888590D01*
X144361803Y-138848197D01*
X140081000Y-134567394D01*
X140081000Y-133757185D01*
X142099682Y-133757185D01*
X142113827Y-133828684D01*
X142372855Y-134305540D01*
X142794651Y-134646972D01*
X143315000Y-134801000D01*
X143815000Y-134801000D01*
X143815000Y-133543000D01*
X144069000Y-133543000D01*
X144069000Y-134801000D01*
X144569000Y-134801000D01*
X145089349Y-134646972D01*
X145511145Y-134305540D01*
X145770173Y-133828684D01*
X145784318Y-133757185D01*
X145661656Y-133543000D01*
X144069000Y-133543000D01*
X143815000Y-133543000D01*
X142222344Y-133543000D01*
X142099682Y-133757185D01*
X140081000Y-133757185D01*
X140081000Y-133074815D01*
X142099682Y-133074815D01*
X142222344Y-133289000D01*
X143815000Y-133289000D01*
X143815000Y-132031000D01*
X144069000Y-132031000D01*
X144069000Y-133289000D01*
X145661656Y-133289000D01*
X145784318Y-133074815D01*
X145770173Y-133003316D01*
X145740908Y-132949440D01*
X147554000Y-132949440D01*
X147789317Y-132905162D01*
X148005441Y-132766090D01*
X148150431Y-132553890D01*
X148201440Y-132302000D01*
X148201440Y-131302000D01*
X148157162Y-131066683D01*
X148018090Y-130850559D01*
X147805890Y-130705569D01*
X147554000Y-130654560D01*
X145054000Y-130654560D01*
X144818683Y-130698838D01*
X144602559Y-130837910D01*
X144457569Y-131050110D01*
X144406560Y-131302000D01*
X144406560Y-132031000D01*
X144069000Y-132031000D01*
X143815000Y-132031000D01*
X143315000Y-132031000D01*
X142794651Y-132185028D01*
X142372855Y-132526460D01*
X142113827Y-133003316D01*
X142099682Y-133074815D01*
X140081000Y-133074815D01*
X140081000Y-128604982D01*
X140132665Y-128656737D01*
X140148671Y-128737206D01*
X140189444Y-128798228D01*
X140215335Y-128866895D01*
X140950560Y-130047689D01*
X140950560Y-130423000D01*
X140994838Y-130658317D01*
X141133910Y-130874441D01*
X141346110Y-131019431D01*
X141598000Y-131070440D01*
X142398000Y-131070440D01*
X142633317Y-131026162D01*
X142736646Y-130959671D01*
X142738302Y-130961327D01*
X142971691Y-131058000D01*
X143212250Y-131058000D01*
X143371000Y-130899250D01*
X143371000Y-130175000D01*
X143625000Y-130175000D01*
X143625000Y-130899250D01*
X143783750Y-131058000D01*
X144024309Y-131058000D01*
X144257698Y-130961327D01*
X144436327Y-130782699D01*
X144533000Y-130549310D01*
X144533000Y-130333750D01*
X144374250Y-130175000D01*
X143625000Y-130175000D01*
X143371000Y-130175000D01*
X143351000Y-130175000D01*
X143351000Y-129921000D01*
X143371000Y-129921000D01*
X143371000Y-128651000D01*
X143351000Y-128651000D01*
X143351000Y-128397000D01*
X143371000Y-128397000D01*
X143371000Y-128377000D01*
X143625000Y-128377000D01*
X143625000Y-128397000D01*
X143645000Y-128397000D01*
X143645000Y-128651000D01*
X143625000Y-128651000D01*
X143625000Y-129921000D01*
X144374250Y-129921000D01*
X144533000Y-129762250D01*
X144533000Y-129679025D01*
X144694301Y-129840327D01*
X144927690Y-129937000D01*
X146018250Y-129937000D01*
X146177000Y-129778250D01*
X146177000Y-128929000D01*
X146431000Y-128929000D01*
X146431000Y-129778250D01*
X146589750Y-129937000D01*
X147680310Y-129937000D01*
X147913699Y-129840327D01*
X148092327Y-129661698D01*
X148189000Y-129428309D01*
X148189000Y-129087750D01*
X148030250Y-128929000D01*
X146431000Y-128929000D01*
X146177000Y-128929000D01*
X146157000Y-128929000D01*
X146157000Y-128675000D01*
X146177000Y-128675000D01*
X146177000Y-128655000D01*
X146431000Y-128655000D01*
X146431000Y-128675000D01*
X148030250Y-128675000D01*
X148189000Y-128516250D01*
X148189000Y-128356908D01*
X148308699Y-128307327D01*
X148487327Y-128128698D01*
X148584000Y-127895309D01*
X148584000Y-127654750D01*
X148425250Y-127496000D01*
X147701000Y-127496000D01*
X147701000Y-127516000D01*
X147447000Y-127516000D01*
X147447000Y-127496000D01*
X146177000Y-127496000D01*
X146177000Y-127516000D01*
X145923000Y-127516000D01*
X145923000Y-127496000D01*
X145903000Y-127496000D01*
X145903000Y-127242000D01*
X145923000Y-127242000D01*
X145923000Y-127222000D01*
X146177000Y-127222000D01*
X146177000Y-127242000D01*
X147447000Y-127242000D01*
X147447000Y-127222000D01*
X147701000Y-127222000D01*
X147701000Y-127242000D01*
X148425250Y-127242000D01*
X148584000Y-127083250D01*
X148584000Y-126842691D01*
X148487327Y-126609302D01*
X148485957Y-126607932D01*
X148545431Y-126520890D01*
X148596440Y-126269000D01*
X148596440Y-125469000D01*
X148552162Y-125233683D01*
X148432740Y-125048096D01*
X148455440Y-124936000D01*
X148455440Y-123936000D01*
X148411162Y-123700683D01*
X148272090Y-123484559D01*
X148059890Y-123339569D01*
X147808000Y-123288560D01*
X146650503Y-123288560D01*
X146644801Y-123284750D01*
X146414206Y-123130671D01*
X146074000Y-123063000D01*
X144530229Y-123063000D01*
X144533000Y-123056310D01*
X144533000Y-122840750D01*
X144374250Y-122682000D01*
X143625000Y-122682000D01*
X143625000Y-122702000D01*
X143371000Y-122702000D01*
X143371000Y-122682000D01*
X143351000Y-122682000D01*
X143351000Y-122428000D01*
X143371000Y-122428000D01*
X143371000Y-121285000D01*
X143625000Y-121285000D01*
X143625000Y-122428000D01*
X144374250Y-122428000D01*
X144533000Y-122269250D01*
X144533000Y-122053690D01*
X144451321Y-121856500D01*
X144507136Y-121721750D01*
X144673000Y-121721750D01*
X144673000Y-122062309D01*
X144769673Y-122295698D01*
X144948301Y-122474327D01*
X145181690Y-122571000D01*
X146272250Y-122571000D01*
X146431000Y-122412250D01*
X146431000Y-121563000D01*
X146685000Y-121563000D01*
X146685000Y-122412250D01*
X146843750Y-122571000D01*
X147934310Y-122571000D01*
X148167699Y-122474327D01*
X148346327Y-122295698D01*
X148443000Y-122062309D01*
X148443000Y-121721750D01*
X148284250Y-121563000D01*
X146685000Y-121563000D01*
X146431000Y-121563000D01*
X144831750Y-121563000D01*
X144673000Y-121721750D01*
X144507136Y-121721750D01*
X144533000Y-121659310D01*
X144533000Y-121443750D01*
X144374250Y-121285000D01*
X143625000Y-121285000D01*
X143371000Y-121285000D01*
X143351000Y-121285000D01*
X143351000Y-121031000D01*
X143371000Y-121031000D01*
X143371000Y-121011000D01*
X143625000Y-121011000D01*
X143625000Y-121031000D01*
X144374250Y-121031000D01*
X144533000Y-120872250D01*
X144533000Y-120771320D01*
X144648086Y-120723767D01*
X144751247Y-120620786D01*
X144673000Y-120809691D01*
X144673000Y-121150250D01*
X144831750Y-121309000D01*
X146431000Y-121309000D01*
X146431000Y-121289000D01*
X146685000Y-121289000D01*
X146685000Y-121309000D01*
X148284250Y-121309000D01*
X148443000Y-121150250D01*
X148443000Y-120809691D01*
X148346327Y-120576302D01*
X148283821Y-120513795D01*
X148330000Y-120402309D01*
X148330000Y-120161750D01*
X148171250Y-120003000D01*
X147447000Y-120003000D01*
X147447000Y-120023000D01*
X147193000Y-120023000D01*
X147193000Y-120003000D01*
X146806000Y-120003000D01*
X146806000Y-119886807D01*
X146812000Y-119888000D01*
X147249407Y-119800994D01*
X147357154Y-119729000D01*
X147447000Y-119729000D01*
X147447000Y-119749000D01*
X148171250Y-119749000D01*
X148330000Y-119590250D01*
X148330000Y-119349691D01*
X148233327Y-119116302D01*
X148231957Y-119114932D01*
X148291431Y-119027890D01*
X148342440Y-118776000D01*
X148342440Y-117976000D01*
X148298162Y-117740683D01*
X148292441Y-117731793D01*
X148404431Y-117567890D01*
X148455440Y-117316000D01*
X148455440Y-116316000D01*
X148411162Y-116080683D01*
X148272090Y-115864559D01*
X148059890Y-115719569D01*
X147808000Y-115668560D01*
X145349000Y-115668560D01*
X145349000Y-114951000D01*
X146272250Y-114951000D01*
X146431000Y-114792250D01*
X146431000Y-113943000D01*
X146685000Y-113943000D01*
X146685000Y-114792250D01*
X146843750Y-114951000D01*
X147934310Y-114951000D01*
X148167699Y-114854327D01*
X148346327Y-114675698D01*
X148443000Y-114442309D01*
X148443000Y-114101750D01*
X148284250Y-113943000D01*
X146685000Y-113943000D01*
X146431000Y-113943000D01*
X146411000Y-113943000D01*
X146411000Y-113689000D01*
X146431000Y-113689000D01*
X146431000Y-112839750D01*
X146685000Y-112839750D01*
X146685000Y-113689000D01*
X148284250Y-113689000D01*
X148443000Y-113530250D01*
X148443000Y-113189691D01*
X148346327Y-112956302D01*
X148167699Y-112777673D01*
X147934310Y-112681000D01*
X146843750Y-112681000D01*
X146685000Y-112839750D01*
X146431000Y-112839750D01*
X146272250Y-112681000D01*
X145181690Y-112681000D01*
X145059539Y-112731597D01*
X145014223Y-112663777D01*
X143651446Y-111301000D01*
X143815000Y-111301000D01*
X143815000Y-110043000D01*
X144069000Y-110043000D01*
X144069000Y-111301000D01*
X144569000Y-111301000D01*
X145089349Y-111146972D01*
X145511145Y-110805540D01*
X145770173Y-110328684D01*
X145784318Y-110257185D01*
X145661656Y-110043000D01*
X144069000Y-110043000D01*
X143815000Y-110043000D01*
X143795000Y-110043000D01*
X143795000Y-109789000D01*
X143815000Y-109789000D01*
X143815000Y-109769000D01*
X144069000Y-109769000D01*
X144069000Y-109789000D01*
X145661656Y-109789000D01*
X145784318Y-109574815D01*
X145770173Y-109503316D01*
X145547290Y-109093000D01*
X145855012Y-109093000D01*
X145857455Y-109098106D01*
X146612031Y-109391405D01*
X147421409Y-109373614D01*
X148086545Y-109098106D01*
X148089738Y-109091433D01*
X148131410Y-109082994D01*
X148171803Y-109055803D01*
X148679803Y-108547803D01*
X148707666Y-108505789D01*
X148715494Y-108465709D01*
X148722106Y-108462545D01*
X149015405Y-107707969D01*
X148997614Y-106898591D01*
X148722106Y-106233455D01*
X148717000Y-106231012D01*
X148717000Y-103064988D01*
X148722106Y-103062545D01*
X149015405Y-102307969D01*
X148997614Y-101498591D01*
X148722106Y-100833455D01*
X148570697Y-100761000D01*
X149175000Y-100761000D01*
X149175000Y-143637000D01*
X149175000Y-143637000D01*
G37*
X149175000Y-143637000D02*
X146365431Y-143637000D01*
X146304000Y-143624560D01*
X144399000Y-143624560D01*
X144399000Y-138938000D01*
X144388994Y-138888590D01*
X144361803Y-138848197D01*
X140081000Y-134567394D01*
X140081000Y-133757185D01*
X142099682Y-133757185D01*
X142113827Y-133828684D01*
X142372855Y-134305540D01*
X142794651Y-134646972D01*
X143315000Y-134801000D01*
X143815000Y-134801000D01*
X143815000Y-133543000D01*
X144069000Y-133543000D01*
X144069000Y-134801000D01*
X144569000Y-134801000D01*
X145089349Y-134646972D01*
X145511145Y-134305540D01*
X145770173Y-133828684D01*
X145784318Y-133757185D01*
X145661656Y-133543000D01*
X144069000Y-133543000D01*
X143815000Y-133543000D01*
X142222344Y-133543000D01*
X142099682Y-133757185D01*
X140081000Y-133757185D01*
X140081000Y-133074815D01*
X142099682Y-133074815D01*
X142222344Y-133289000D01*
X143815000Y-133289000D01*
X143815000Y-132031000D01*
X144069000Y-132031000D01*
X144069000Y-133289000D01*
X145661656Y-133289000D01*
X145784318Y-133074815D01*
X145770173Y-133003316D01*
X145740908Y-132949440D01*
X147554000Y-132949440D01*
X147789317Y-132905162D01*
X148005441Y-132766090D01*
X148150431Y-132553890D01*
X148201440Y-132302000D01*
X148201440Y-131302000D01*
X148157162Y-131066683D01*
X148018090Y-130850559D01*
X147805890Y-130705569D01*
X147554000Y-130654560D01*
X145054000Y-130654560D01*
X144818683Y-130698838D01*
X144602559Y-130837910D01*
X144457569Y-131050110D01*
X144406560Y-131302000D01*
X144406560Y-132031000D01*
X144069000Y-132031000D01*
X143815000Y-132031000D01*
X143315000Y-132031000D01*
X142794651Y-132185028D01*
X142372855Y-132526460D01*
X142113827Y-133003316D01*
X142099682Y-133074815D01*
X140081000Y-133074815D01*
X140081000Y-128604982D01*
X140132665Y-128656737D01*
X140148671Y-128737206D01*
X140189444Y-128798228D01*
X140215335Y-128866895D01*
X140950560Y-130047689D01*
X140950560Y-130423000D01*
X140994838Y-130658317D01*
X141133910Y-130874441D01*
X141346110Y-131019431D01*
X141598000Y-131070440D01*
X142398000Y-131070440D01*
X142633317Y-131026162D01*
X142736646Y-130959671D01*
X142738302Y-130961327D01*
X142971691Y-131058000D01*
X143212250Y-131058000D01*
X143371000Y-130899250D01*
X143371000Y-130175000D01*
X143625000Y-130175000D01*
X143625000Y-130899250D01*
X143783750Y-131058000D01*
X144024309Y-131058000D01*
X144257698Y-130961327D01*
X144436327Y-130782699D01*
X144533000Y-130549310D01*
X144533000Y-130333750D01*
X144374250Y-130175000D01*
X143625000Y-130175000D01*
X143371000Y-130175000D01*
X143351000Y-130175000D01*
X143351000Y-129921000D01*
X143371000Y-129921000D01*
X143371000Y-128651000D01*
X143351000Y-128651000D01*
X143351000Y-128397000D01*
X143371000Y-128397000D01*
X143371000Y-128377000D01*
X143625000Y-128377000D01*
X143625000Y-128397000D01*
X143645000Y-128397000D01*
X143645000Y-128651000D01*
X143625000Y-128651000D01*
X143625000Y-129921000D01*
X144374250Y-129921000D01*
X144533000Y-129762250D01*
X144533000Y-129679025D01*
X144694301Y-129840327D01*
X144927690Y-129937000D01*
X146018250Y-129937000D01*
X146177000Y-129778250D01*
X146177000Y-128929000D01*
X146431000Y-128929000D01*
X146431000Y-129778250D01*
X146589750Y-129937000D01*
X147680310Y-129937000D01*
X147913699Y-129840327D01*
X148092327Y-129661698D01*
X148189000Y-129428309D01*
X148189000Y-129087750D01*
X148030250Y-128929000D01*
X146431000Y-128929000D01*
X146177000Y-128929000D01*
X146157000Y-128929000D01*
X146157000Y-128675000D01*
X146177000Y-128675000D01*
X146177000Y-128655000D01*
X146431000Y-128655000D01*
X146431000Y-128675000D01*
X148030250Y-128675000D01*
X148189000Y-128516250D01*
X148189000Y-128356908D01*
X148308699Y-128307327D01*
X148487327Y-128128698D01*
X148584000Y-127895309D01*
X148584000Y-127654750D01*
X148425250Y-127496000D01*
X147701000Y-127496000D01*
X147701000Y-127516000D01*
X147447000Y-127516000D01*
X147447000Y-127496000D01*
X146177000Y-127496000D01*
X146177000Y-127516000D01*
X145923000Y-127516000D01*
X145923000Y-127496000D01*
X145903000Y-127496000D01*
X145903000Y-127242000D01*
X145923000Y-127242000D01*
X145923000Y-127222000D01*
X146177000Y-127222000D01*
X146177000Y-127242000D01*
X147447000Y-127242000D01*
X147447000Y-127222000D01*
X147701000Y-127222000D01*
X147701000Y-127242000D01*
X148425250Y-127242000D01*
X148584000Y-127083250D01*
X148584000Y-126842691D01*
X148487327Y-126609302D01*
X148485957Y-126607932D01*
X148545431Y-126520890D01*
X148596440Y-126269000D01*
X148596440Y-125469000D01*
X148552162Y-125233683D01*
X148432740Y-125048096D01*
X148455440Y-124936000D01*
X148455440Y-123936000D01*
X148411162Y-123700683D01*
X148272090Y-123484559D01*
X148059890Y-123339569D01*
X147808000Y-123288560D01*
X146650503Y-123288560D01*
X146644801Y-123284750D01*
X146414206Y-123130671D01*
X146074000Y-123063000D01*
X144530229Y-123063000D01*
X144533000Y-123056310D01*
X144533000Y-122840750D01*
X144374250Y-122682000D01*
X143625000Y-122682000D01*
X143625000Y-122702000D01*
X143371000Y-122702000D01*
X143371000Y-122682000D01*
X143351000Y-122682000D01*
X143351000Y-122428000D01*
X143371000Y-122428000D01*
X143371000Y-121285000D01*
X143625000Y-121285000D01*
X143625000Y-122428000D01*
X144374250Y-122428000D01*
X144533000Y-122269250D01*
X144533000Y-122053690D01*
X144451321Y-121856500D01*
X144507136Y-121721750D01*
X144673000Y-121721750D01*
X144673000Y-122062309D01*
X144769673Y-122295698D01*
X144948301Y-122474327D01*
X145181690Y-122571000D01*
X146272250Y-122571000D01*
X146431000Y-122412250D01*
X146431000Y-121563000D01*
X146685000Y-121563000D01*
X146685000Y-122412250D01*
X146843750Y-122571000D01*
X147934310Y-122571000D01*
X148167699Y-122474327D01*
X148346327Y-122295698D01*
X148443000Y-122062309D01*
X148443000Y-121721750D01*
X148284250Y-121563000D01*
X146685000Y-121563000D01*
X146431000Y-121563000D01*
X144831750Y-121563000D01*
X144673000Y-121721750D01*
X144507136Y-121721750D01*
X144533000Y-121659310D01*
X144533000Y-121443750D01*
X144374250Y-121285000D01*
X143625000Y-121285000D01*
X143371000Y-121285000D01*
X143351000Y-121285000D01*
X143351000Y-121031000D01*
X143371000Y-121031000D01*
X143371000Y-121011000D01*
X143625000Y-121011000D01*
X143625000Y-121031000D01*
X144374250Y-121031000D01*
X144533000Y-120872250D01*
X144533000Y-120771320D01*
X144648086Y-120723767D01*
X144751247Y-120620786D01*
X144673000Y-120809691D01*
X144673000Y-121150250D01*
X144831750Y-121309000D01*
X146431000Y-121309000D01*
X146431000Y-121289000D01*
X146685000Y-121289000D01*
X146685000Y-121309000D01*
X148284250Y-121309000D01*
X148443000Y-121150250D01*
X148443000Y-120809691D01*
X148346327Y-120576302D01*
X148283821Y-120513795D01*
X148330000Y-120402309D01*
X148330000Y-120161750D01*
X148171250Y-120003000D01*
X147447000Y-120003000D01*
X147447000Y-120023000D01*
X147193000Y-120023000D01*
X147193000Y-120003000D01*
X146806000Y-120003000D01*
X146806000Y-119886807D01*
X146812000Y-119888000D01*
X147249407Y-119800994D01*
X147357154Y-119729000D01*
X147447000Y-119729000D01*
X147447000Y-119749000D01*
X148171250Y-119749000D01*
X148330000Y-119590250D01*
X148330000Y-119349691D01*
X148233327Y-119116302D01*
X148231957Y-119114932D01*
X148291431Y-119027890D01*
X148342440Y-118776000D01*
X148342440Y-117976000D01*
X148298162Y-117740683D01*
X148292441Y-117731793D01*
X148404431Y-117567890D01*
X148455440Y-117316000D01*
X148455440Y-116316000D01*
X148411162Y-116080683D01*
X148272090Y-115864559D01*
X148059890Y-115719569D01*
X147808000Y-115668560D01*
X145349000Y-115668560D01*
X145349000Y-114951000D01*
X146272250Y-114951000D01*
X146431000Y-114792250D01*
X146431000Y-113943000D01*
X146685000Y-113943000D01*
X146685000Y-114792250D01*
X146843750Y-114951000D01*
X147934310Y-114951000D01*
X148167699Y-114854327D01*
X148346327Y-114675698D01*
X148443000Y-114442309D01*
X148443000Y-114101750D01*
X148284250Y-113943000D01*
X146685000Y-113943000D01*
X146431000Y-113943000D01*
X146411000Y-113943000D01*
X146411000Y-113689000D01*
X146431000Y-113689000D01*
X146431000Y-112839750D01*
X146685000Y-112839750D01*
X146685000Y-113689000D01*
X148284250Y-113689000D01*
X148443000Y-113530250D01*
X148443000Y-113189691D01*
X148346327Y-112956302D01*
X148167699Y-112777673D01*
X147934310Y-112681000D01*
X146843750Y-112681000D01*
X146685000Y-112839750D01*
X146431000Y-112839750D01*
X146272250Y-112681000D01*
X145181690Y-112681000D01*
X145059539Y-112731597D01*
X145014223Y-112663777D01*
X143651446Y-111301000D01*
X143815000Y-111301000D01*
X143815000Y-110043000D01*
X144069000Y-110043000D01*
X144069000Y-111301000D01*
X144569000Y-111301000D01*
X145089349Y-111146972D01*
X145511145Y-110805540D01*
X145770173Y-110328684D01*
X145784318Y-110257185D01*
X145661656Y-110043000D01*
X144069000Y-110043000D01*
X143815000Y-110043000D01*
X143795000Y-110043000D01*
X143795000Y-109789000D01*
X143815000Y-109789000D01*
X143815000Y-109769000D01*
X144069000Y-109769000D01*
X144069000Y-109789000D01*
X145661656Y-109789000D01*
X145784318Y-109574815D01*
X145770173Y-109503316D01*
X145547290Y-109093000D01*
X145855012Y-109093000D01*
X145857455Y-109098106D01*
X146612031Y-109391405D01*
X147421409Y-109373614D01*
X148086545Y-109098106D01*
X148089738Y-109091433D01*
X148131410Y-109082994D01*
X148171803Y-109055803D01*
X148679803Y-108547803D01*
X148707666Y-108505789D01*
X148715494Y-108465709D01*
X148722106Y-108462545D01*
X149015405Y-107707969D01*
X148997614Y-106898591D01*
X148722106Y-106233455D01*
X148717000Y-106231012D01*
X148717000Y-103064988D01*
X148722106Y-103062545D01*
X149015405Y-102307969D01*
X148997614Y-101498591D01*
X148722106Y-100833455D01*
X148570697Y-100761000D01*
X149175000Y-100761000D01*
X149175000Y-143637000D01*
G36*
X112686197Y-101002197D02*
X112658334Y-101044211D01*
X112649000Y-101092000D01*
X112649000Y-101473789D01*
X112604595Y-101588031D01*
X112622386Y-102397409D01*
X112649000Y-102461661D01*
X112649000Y-106873789D01*
X112604595Y-106988031D01*
X112622386Y-107797409D01*
X112649000Y-107861661D01*
X112649000Y-108458000D01*
X112659006Y-108507410D01*
X112686197Y-108547803D01*
X113448197Y-109309803D01*
X113490211Y-109337666D01*
X113538000Y-109347000D01*
X114173789Y-109347000D01*
X114288031Y-109391405D01*
X115097409Y-109373614D01*
X115161661Y-109347000D01*
X119573789Y-109347000D01*
X119688031Y-109391405D01*
X119978080Y-109385029D01*
X119913827Y-109503316D01*
X119899682Y-109574815D01*
X120022344Y-109789000D01*
X121615000Y-109789000D01*
X121615000Y-109769000D01*
X121869000Y-109769000D01*
X121869000Y-109789000D01*
X123461656Y-109789000D01*
X123584318Y-109574815D01*
X123570173Y-109503316D01*
X123311145Y-109026460D01*
X122889349Y-108685028D01*
X122369000Y-108531000D01*
X121793000Y-108531000D01*
X121793000Y-108464988D01*
X121798106Y-108462545D01*
X122091405Y-107707969D01*
X122073614Y-106898591D01*
X121798106Y-106233455D01*
X121793000Y-106231012D01*
X121793000Y-103064988D01*
X121798106Y-103062545D01*
X122091405Y-102307969D01*
X122073614Y-101498591D01*
X121798106Y-100833455D01*
X121646697Y-100761000D01*
X127781303Y-100761000D01*
X127629894Y-100833455D01*
X127336595Y-101588031D01*
X127354386Y-102397409D01*
X127629894Y-103062545D01*
X127635000Y-103064988D01*
X127635000Y-106231012D01*
X127629894Y-106233455D01*
X127336595Y-106988031D01*
X127354386Y-107797409D01*
X127629894Y-108462545D01*
X127636567Y-108465738D01*
X127645006Y-108507410D01*
X127672197Y-108547803D01*
X128180197Y-109055803D01*
X128222211Y-109083666D01*
X128262291Y-109091494D01*
X128265455Y-109098106D01*
X129020031Y-109391405D01*
X129829409Y-109373614D01*
X130494545Y-109098106D01*
X130496988Y-109093000D01*
X133663012Y-109093000D01*
X133665455Y-109098106D01*
X134420031Y-109391405D01*
X135229409Y-109373614D01*
X135894545Y-109098106D01*
X135897738Y-109091433D01*
X135939410Y-109082994D01*
X135979803Y-109055803D01*
X136487803Y-108547803D01*
X136515666Y-108505789D01*
X136523494Y-108465709D01*
X136530106Y-108462545D01*
X136823405Y-107707969D01*
X136823357Y-107705803D01*
X143063000Y-113945446D01*
X143063000Y-114279903D01*
X142883765Y-114100355D01*
X142466756Y-113927197D01*
X142015225Y-113926803D01*
X141597914Y-114099233D01*
X141278355Y-114418235D01*
X141105197Y-114835244D01*
X141104803Y-115286775D01*
X141277233Y-115704086D01*
X141596235Y-116023645D01*
X142013244Y-116196803D01*
X142464775Y-116197197D01*
X142882086Y-116024767D01*
X143063000Y-115844168D01*
X143063000Y-116715551D01*
X142907890Y-116609569D01*
X142656000Y-116558560D01*
X141956000Y-116558560D01*
X141720683Y-116602838D01*
X141504559Y-116741910D01*
X141359569Y-116954110D01*
X141339835Y-117051560D01*
X140066000Y-117051560D01*
X139830683Y-117095838D01*
X139614559Y-117234910D01*
X139469569Y-117447110D01*
X139418560Y-117699000D01*
X139418560Y-118399000D01*
X139462838Y-118634317D01*
X139601910Y-118850441D01*
X139814110Y-118995431D01*
X139847490Y-119002191D01*
X139706301Y-119060673D01*
X139527673Y-119239302D01*
X139433331Y-119467063D01*
X137869394Y-121031000D01*
X137668000Y-121031000D01*
X137618590Y-121041006D01*
X137578197Y-121068197D01*
X137324197Y-121322197D01*
X137296334Y-121364211D01*
X137287000Y-121412000D01*
X137287000Y-124079000D01*
X136855760Y-124079000D01*
X136878000Y-124025309D01*
X136878000Y-123284750D01*
X136719250Y-123126000D01*
X135255000Y-123126000D01*
X135255000Y-123146000D01*
X135001000Y-123146000D01*
X135001000Y-123126000D01*
X133536750Y-123126000D01*
X133378000Y-123284750D01*
X133378000Y-124025309D01*
X133400240Y-124079000D01*
X130759760Y-124079000D01*
X130782000Y-124025309D01*
X130782000Y-123284750D01*
X130623250Y-123126000D01*
X129159000Y-123126000D01*
X129159000Y-123146000D01*
X128905000Y-123146000D01*
X128905000Y-123126000D01*
X127440750Y-123126000D01*
X127282000Y-123284750D01*
X127282000Y-124025309D01*
X127378673Y-124258698D01*
X127557301Y-124437327D01*
X127790690Y-124534000D01*
X128524394Y-124534000D01*
X128217394Y-124841000D01*
X127000000Y-124841000D01*
X126950590Y-124851006D01*
X126910197Y-124878197D01*
X125386197Y-126402197D01*
X125358334Y-126444211D01*
X125349000Y-126492000D01*
X125349000Y-130757394D01*
X123405758Y-132700636D01*
X123311145Y-132526460D01*
X122889349Y-132185028D01*
X122369000Y-132031000D01*
X122041000Y-132031000D01*
X122041000Y-131972750D01*
X121882250Y-131814000D01*
X121158000Y-131814000D01*
X121158000Y-131834000D01*
X120904000Y-131834000D01*
X120904000Y-131814000D01*
X119888000Y-131814000D01*
X119888000Y-132563250D01*
X120046750Y-132722000D01*
X120066638Y-132722000D01*
X119913827Y-133003316D01*
X119899682Y-133074815D01*
X120022344Y-133289000D01*
X121615000Y-133289000D01*
X121615000Y-133269000D01*
X121869000Y-133269000D01*
X121869000Y-133289000D01*
X121889000Y-133289000D01*
X121889000Y-133543000D01*
X121869000Y-133543000D01*
X121869000Y-133563000D01*
X121615000Y-133563000D01*
X121615000Y-133543000D01*
X120022344Y-133543000D01*
X119899682Y-133757185D01*
X119913827Y-133828684D01*
X120172855Y-134305540D01*
X120370702Y-134465692D01*
X118782197Y-136054197D01*
X118754334Y-136096211D01*
X118745000Y-136144000D01*
X118745000Y-137033000D01*
X110189982Y-137033000D01*
X110197555Y-137025440D01*
X110458000Y-137025440D01*
X110693317Y-136981162D01*
X110909441Y-136842090D01*
X111054431Y-136629890D01*
X111082274Y-136492398D01*
X111088343Y-136488343D01*
X115603936Y-131972750D01*
X118751000Y-131972750D01*
X118751000Y-132213309D01*
X118847673Y-132446698D01*
X119026301Y-132625327D01*
X119259690Y-132722000D01*
X119475250Y-132722000D01*
X119634000Y-132563250D01*
X119634000Y-131814000D01*
X118909750Y-131814000D01*
X118751000Y-131972750D01*
X115603936Y-131972750D01*
X117736344Y-129840342D01*
X117751110Y-129850431D01*
X118003000Y-129901440D01*
X118618000Y-129901440D01*
X118618000Y-130187000D01*
X118705006Y-130624407D01*
X118761511Y-130708972D01*
X118782838Y-130822317D01*
X118849329Y-130925646D01*
X118847673Y-130927302D01*
X118751000Y-131160691D01*
X118751000Y-131401250D01*
X118909750Y-131560000D01*
X119634000Y-131560000D01*
X119634000Y-131540000D01*
X119888000Y-131540000D01*
X119888000Y-131560000D01*
X120904000Y-131560000D01*
X120904000Y-131540000D01*
X121158000Y-131540000D01*
X121158000Y-131560000D01*
X121882250Y-131560000D01*
X122041000Y-131401250D01*
X122041000Y-131160691D01*
X121944327Y-130927302D01*
X121942957Y-130925932D01*
X122002431Y-130838890D01*
X122027979Y-130712729D01*
X122086994Y-130624407D01*
X122174000Y-130187000D01*
X122174000Y-129928000D01*
X122269250Y-129928000D01*
X122428000Y-129769250D01*
X122428000Y-129020000D01*
X122682000Y-129020000D01*
X122682000Y-129769250D01*
X122840750Y-129928000D01*
X123056310Y-129928000D01*
X123190000Y-129872624D01*
X123323690Y-129928000D01*
X123539250Y-129928000D01*
X123698000Y-129769250D01*
X123698000Y-129020000D01*
X123952000Y-129020000D01*
X123952000Y-129769250D01*
X124110750Y-129928000D01*
X124326310Y-129928000D01*
X124559699Y-129831327D01*
X124738327Y-129652698D01*
X124835000Y-129419309D01*
X124835000Y-129178750D01*
X124676250Y-129020000D01*
X123952000Y-129020000D01*
X123698000Y-129020000D01*
X122682000Y-129020000D01*
X122428000Y-129020000D01*
X122408000Y-129020000D01*
X122408000Y-128766000D01*
X122428000Y-128766000D01*
X122428000Y-128746000D01*
X122682000Y-128746000D01*
X122682000Y-128766000D01*
X123698000Y-128766000D01*
X123698000Y-128746000D01*
X123952000Y-128746000D01*
X123952000Y-128766000D01*
X124676250Y-128766000D01*
X124835000Y-128607250D01*
X124835000Y-128366691D01*
X124738327Y-128133302D01*
X124736957Y-128131932D01*
X124796431Y-128044890D01*
X124821979Y-127918729D01*
X124880994Y-127830407D01*
X124968000Y-127393000D01*
X124880994Y-126955593D01*
X124824489Y-126871028D01*
X124819352Y-126843725D01*
X124909431Y-126711890D01*
X124960440Y-126460000D01*
X124960440Y-125460000D01*
X124916162Y-125224683D01*
X124777090Y-125008559D01*
X124564890Y-124863569D01*
X124313000Y-124812560D01*
X121813000Y-124812560D01*
X121577683Y-124856838D01*
X121361559Y-124995910D01*
X121216569Y-125208110D01*
X121165560Y-125460000D01*
X121165560Y-126019758D01*
X121125898Y-126027648D01*
X120979250Y-125881000D01*
X119380000Y-125881000D01*
X119380000Y-126730250D01*
X119538750Y-126889000D01*
X120191728Y-126889000D01*
X120142000Y-127139000D01*
X120215600Y-127509009D01*
X119843593Y-127583006D01*
X119808342Y-127606560D01*
X118352000Y-127606560D01*
X118352000Y-126889000D01*
X118967250Y-126889000D01*
X119126000Y-126730250D01*
X119126000Y-125881000D01*
X119106000Y-125881000D01*
X119106000Y-125627000D01*
X119126000Y-125627000D01*
X119126000Y-124777750D01*
X119380000Y-124777750D01*
X119380000Y-125627000D01*
X120979250Y-125627000D01*
X121138000Y-125468250D01*
X121138000Y-125127691D01*
X121041327Y-124894302D01*
X120862699Y-124715673D01*
X120629310Y-124619000D01*
X119538750Y-124619000D01*
X119380000Y-124777750D01*
X119126000Y-124777750D01*
X118967250Y-124619000D01*
X118352000Y-124619000D01*
X118352000Y-123590750D01*
X118624000Y-123590750D01*
X118624000Y-123831309D01*
X118720673Y-124064698D01*
X118899301Y-124243327D01*
X119132690Y-124340000D01*
X119348250Y-124340000D01*
X119507000Y-124181250D01*
X119507000Y-123432000D01*
X119761000Y-123432000D01*
X119761000Y-124181250D01*
X119919750Y-124340000D01*
X120135310Y-124340000D01*
X120269000Y-124284624D01*
X120402690Y-124340000D01*
X120618250Y-124340000D01*
X120777000Y-124181250D01*
X120777000Y-123432000D01*
X119761000Y-123432000D01*
X119507000Y-123432000D01*
X118782750Y-123432000D01*
X118624000Y-123590750D01*
X118352000Y-123590750D01*
X118352000Y-120757440D01*
X118783994Y-120757440D01*
X118872000Y-120845446D01*
X118872000Y-120899443D01*
X118807559Y-120940910D01*
X118662569Y-121153110D01*
X118611560Y-121405000D01*
X118611560Y-122205000D01*
X118655838Y-122440317D01*
X118722329Y-122543646D01*
X118720673Y-122545302D01*
X118624000Y-122778691D01*
X118624000Y-123019250D01*
X118782750Y-123178000D01*
X119507000Y-123178000D01*
X119507000Y-123158000D01*
X119761000Y-123158000D01*
X119761000Y-123178000D01*
X120777000Y-123178000D01*
X120777000Y-123158000D01*
X121031000Y-123158000D01*
X121031000Y-123178000D01*
X121051000Y-123178000D01*
X121051000Y-123432000D01*
X121031000Y-123432000D01*
X121031000Y-124181250D01*
X121189750Y-124340000D01*
X121405310Y-124340000D01*
X121638699Y-124243327D01*
X121787025Y-124095000D01*
X122777250Y-124095000D01*
X122936000Y-123936250D01*
X122936000Y-123087000D01*
X123190000Y-123087000D01*
X123190000Y-123936250D01*
X123348750Y-124095000D01*
X124439310Y-124095000D01*
X124672699Y-123998327D01*
X124851327Y-123819698D01*
X124948000Y-123586309D01*
X124948000Y-123245750D01*
X124789250Y-123087000D01*
X123190000Y-123087000D01*
X122936000Y-123087000D01*
X122916000Y-123087000D01*
X122916000Y-122833000D01*
X122936000Y-122833000D01*
X122936000Y-121983750D01*
X123190000Y-121983750D01*
X123190000Y-122833000D01*
X124789250Y-122833000D01*
X124948000Y-122674250D01*
X124948000Y-122333691D01*
X124851327Y-122100302D01*
X124672699Y-121921673D01*
X124439310Y-121825000D01*
X123348750Y-121825000D01*
X123190000Y-121983750D01*
X122936000Y-121983750D01*
X122777250Y-121825000D01*
X121926440Y-121825000D01*
X121926440Y-121493291D01*
X122053690Y-121546000D01*
X122269250Y-121546000D01*
X122428000Y-121387250D01*
X122428000Y-120638000D01*
X122682000Y-120638000D01*
X122682000Y-121387250D01*
X122840750Y-121546000D01*
X123056310Y-121546000D01*
X123190000Y-121490624D01*
X123323690Y-121546000D01*
X123539250Y-121546000D01*
X123698000Y-121387250D01*
X123698000Y-120638000D01*
X123952000Y-120638000D01*
X123952000Y-121387250D01*
X124110750Y-121546000D01*
X124326310Y-121546000D01*
X124559699Y-121449327D01*
X124738327Y-121270698D01*
X124835000Y-121037309D01*
X124835000Y-120796750D01*
X124676250Y-120638000D01*
X123952000Y-120638000D01*
X123698000Y-120638000D01*
X122682000Y-120638000D01*
X122428000Y-120638000D01*
X122408000Y-120638000D01*
X122408000Y-120384000D01*
X122428000Y-120384000D01*
X122428000Y-120364000D01*
X122682000Y-120364000D01*
X122682000Y-120384000D01*
X123698000Y-120384000D01*
X123698000Y-120364000D01*
X123952000Y-120364000D01*
X123952000Y-120384000D01*
X124676250Y-120384000D01*
X124835000Y-120225250D01*
X124835000Y-119984691D01*
X124738327Y-119751302D01*
X124736957Y-119749932D01*
X124796431Y-119662890D01*
X124847440Y-119411000D01*
X124847440Y-118611000D01*
X124803162Y-118375683D01*
X124664090Y-118159559D01*
X124452440Y-118014945D01*
X124452440Y-117078000D01*
X124408162Y-116842683D01*
X124345144Y-116744750D01*
X126545000Y-116744750D01*
X126545000Y-117700310D01*
X126641673Y-117933699D01*
X126820302Y-118112327D01*
X126993000Y-118183861D01*
X126993000Y-118205250D01*
X127151750Y-118364000D01*
X127901000Y-118364000D01*
X127901000Y-118102250D01*
X127953000Y-118050250D01*
X127953000Y-116586000D01*
X126703750Y-116586000D01*
X126545000Y-116744750D01*
X124345144Y-116744750D01*
X124269090Y-116626559D01*
X124056890Y-116481569D01*
X123805000Y-116430560D01*
X121305000Y-116430560D01*
X121069683Y-116474838D01*
X121057002Y-116482998D01*
X120979252Y-116482998D01*
X121138000Y-116324250D01*
X121138000Y-115983691D01*
X121041327Y-115750302D01*
X120862699Y-115571673D01*
X120629310Y-115475000D01*
X119538750Y-115475000D01*
X119380000Y-115633750D01*
X119380000Y-116483000D01*
X119400000Y-116483000D01*
X119400000Y-116737000D01*
X119380000Y-116737000D01*
X119380000Y-116757000D01*
X119126000Y-116757000D01*
X119126000Y-116737000D01*
X117526750Y-116737000D01*
X117368000Y-116895750D01*
X117368000Y-116931764D01*
X116967000Y-116852000D01*
X116436983Y-116957427D01*
X115987657Y-117257657D01*
X115687427Y-117706983D01*
X115582000Y-118237000D01*
X115582000Y-128077314D01*
X112345261Y-131314053D01*
X112395000Y-131064000D01*
X112395000Y-116840000D01*
X112307994Y-116402593D01*
X112060223Y-116031777D01*
X112012137Y-115983691D01*
X117368000Y-115983691D01*
X117368000Y-116324250D01*
X117526750Y-116483000D01*
X119126000Y-116483000D01*
X119126000Y-115633750D01*
X118967250Y-115475000D01*
X117876690Y-115475000D01*
X117643301Y-115571673D01*
X117464673Y-115750302D01*
X117368000Y-115983691D01*
X112012137Y-115983691D01*
X110892196Y-114863750D01*
X120670000Y-114863750D01*
X120670000Y-115204309D01*
X120766673Y-115437698D01*
X120945301Y-115616327D01*
X121178690Y-115713000D01*
X122269250Y-115713000D01*
X122428000Y-115554250D01*
X122428000Y-114705000D01*
X122682000Y-114705000D01*
X122682000Y-115554250D01*
X122840750Y-115713000D01*
X123931310Y-115713000D01*
X124164699Y-115616327D01*
X124343327Y-115437698D01*
X124440000Y-115204309D01*
X124440000Y-114863750D01*
X124281250Y-114705000D01*
X122682000Y-114705000D01*
X122428000Y-114705000D01*
X120828750Y-114705000D01*
X120670000Y-114863750D01*
X110892196Y-114863750D01*
X110455446Y-114427000D01*
X110464166Y-114418280D01*
X110693317Y-114375162D01*
X110909441Y-114236090D01*
X111054431Y-114023890D01*
X111069051Y-113951691D01*
X120670000Y-113951691D01*
X120670000Y-114292250D01*
X120828750Y-114451000D01*
X122428000Y-114451000D01*
X122428000Y-113601750D01*
X122682000Y-113601750D01*
X122682000Y-114451000D01*
X124281250Y-114451000D01*
X124440000Y-114292250D01*
X124440000Y-113951691D01*
X124343327Y-113718302D01*
X124164699Y-113539673D01*
X123931310Y-113443000D01*
X122840750Y-113443000D01*
X122682000Y-113601750D01*
X122428000Y-113601750D01*
X122269250Y-113443000D01*
X121178690Y-113443000D01*
X120945301Y-113539673D01*
X120766673Y-113718302D01*
X120670000Y-113951691D01*
X111069051Y-113951691D01*
X111105440Y-113772000D01*
X111105440Y-112365775D01*
X122562803Y-112365775D01*
X122735233Y-112783086D01*
X123054235Y-113102645D01*
X123471244Y-113275803D01*
X123922775Y-113276197D01*
X124340086Y-113103767D01*
X124659645Y-112784765D01*
X124832803Y-112367756D01*
X124833197Y-111916225D01*
X124724720Y-111653690D01*
X124873000Y-111653690D01*
X124873000Y-112744250D01*
X125031750Y-112903000D01*
X125095000Y-112903000D01*
X125095000Y-113157000D01*
X125031750Y-113157000D01*
X124873000Y-113315750D01*
X124873000Y-114406310D01*
X124969673Y-114639699D01*
X125148302Y-114818327D01*
X125381691Y-114915000D01*
X125722250Y-114915000D01*
X125881000Y-114756250D01*
X125881000Y-114681000D01*
X126135000Y-114681000D01*
X126135000Y-114756250D01*
X126293750Y-114915000D01*
X126634309Y-114915000D01*
X126765186Y-114860789D01*
X126641673Y-114984301D01*
X126545000Y-115217690D01*
X126545000Y-116173250D01*
X126703750Y-116332000D01*
X127953000Y-116332000D01*
X127953000Y-116312000D01*
X128207000Y-116312000D01*
X128207000Y-116332000D01*
X128227000Y-116332000D01*
X128227000Y-116586000D01*
X128207000Y-116586000D01*
X128207000Y-117587750D01*
X128155000Y-117639750D01*
X128155000Y-118364000D01*
X128175000Y-118364000D01*
X128175000Y-118531560D01*
X127917000Y-118531560D01*
X127681683Y-118575838D01*
X127616161Y-118618000D01*
X127151750Y-118618000D01*
X126993000Y-118776750D01*
X126993000Y-118992310D01*
X127089673Y-119225699D01*
X127268302Y-119404327D01*
X127269560Y-119404848D01*
X127269560Y-120979000D01*
X127313838Y-121214317D01*
X127452910Y-121430441D01*
X127610973Y-121538441D01*
X127557301Y-121560673D01*
X127378673Y-121739302D01*
X127282000Y-121972691D01*
X127282000Y-122713250D01*
X127440750Y-122872000D01*
X128905000Y-122872000D01*
X128905000Y-122852000D01*
X129159000Y-122852000D01*
X129159000Y-122872000D01*
X130623250Y-122872000D01*
X130782000Y-122713250D01*
X130782000Y-122039631D01*
X130816690Y-122054000D01*
X131032250Y-122054000D01*
X131191000Y-121895250D01*
X131191000Y-121146000D01*
X131445000Y-121146000D01*
X131445000Y-121895250D01*
X131603750Y-122054000D01*
X131819310Y-122054000D01*
X132052699Y-121957327D01*
X132080000Y-121930026D01*
X132107301Y-121957327D01*
X132340690Y-122054000D01*
X132556250Y-122054000D01*
X132715000Y-121895250D01*
X132715000Y-121146000D01*
X131445000Y-121146000D01*
X131191000Y-121146000D01*
X131171000Y-121146000D01*
X131171000Y-120892000D01*
X131191000Y-120892000D01*
X131191000Y-120872000D01*
X131445000Y-120872000D01*
X131445000Y-120892000D01*
X132715000Y-120892000D01*
X132715000Y-120872000D01*
X132969000Y-120872000D01*
X132969000Y-120892000D01*
X132989000Y-120892000D01*
X132989000Y-121146000D01*
X132969000Y-121146000D01*
X132969000Y-121895250D01*
X133127750Y-122054000D01*
X133343310Y-122054000D01*
X133378000Y-122039631D01*
X133378000Y-122713250D01*
X133536750Y-122872000D01*
X135001000Y-122872000D01*
X135001000Y-122852000D01*
X135255000Y-122852000D01*
X135255000Y-122872000D01*
X136719250Y-122872000D01*
X136878000Y-122713250D01*
X136878000Y-121972691D01*
X136781327Y-121739302D01*
X136602699Y-121560673D01*
X136547344Y-121537744D01*
X136694441Y-121443090D01*
X136839431Y-121230890D01*
X136890440Y-120979000D01*
X136890440Y-119404848D01*
X136891698Y-119404327D01*
X137070327Y-119225699D01*
X137167000Y-118992310D01*
X137167000Y-118776750D01*
X137008250Y-118618000D01*
X136546745Y-118618000D01*
X136494890Y-118582569D01*
X136243000Y-118531560D01*
X135985000Y-118531560D01*
X135985000Y-118364000D01*
X136005000Y-118364000D01*
X136005000Y-117639750D01*
X135953000Y-117587750D01*
X135953000Y-116586000D01*
X136207000Y-116586000D01*
X136207000Y-118050250D01*
X136259000Y-118102250D01*
X136259000Y-118364000D01*
X137008250Y-118364000D01*
X137167000Y-118205250D01*
X137167000Y-118183861D01*
X137339698Y-118112327D01*
X137518327Y-117933699D01*
X137615000Y-117700310D01*
X137615000Y-116744750D01*
X137456250Y-116586000D01*
X136207000Y-116586000D01*
X135953000Y-116586000D01*
X135933000Y-116586000D01*
X135933000Y-116332000D01*
X135953000Y-116332000D01*
X135953000Y-114867750D01*
X136207000Y-114867750D01*
X136207000Y-116332000D01*
X137456250Y-116332000D01*
X137615000Y-116173250D01*
X137615000Y-115443000D01*
X138684000Y-115443000D01*
X138733410Y-115432994D01*
X138775035Y-115404553D01*
X138802315Y-115362159D01*
X138811000Y-115316000D01*
X138811000Y-111760000D01*
X138800994Y-111710590D01*
X138772553Y-111668965D01*
X138730159Y-111641685D01*
X138684000Y-111633000D01*
X136652000Y-111633000D01*
X136602590Y-111643006D01*
X136560965Y-111671447D01*
X136533685Y-111713841D01*
X136525000Y-111760000D01*
X136525000Y-112123063D01*
X136509000Y-112161690D01*
X136509000Y-113252250D01*
X136525000Y-113268250D01*
X136525000Y-113807750D01*
X136509000Y-113823750D01*
X136509000Y-114709000D01*
X136365750Y-114709000D01*
X136207000Y-114867750D01*
X135953000Y-114867750D01*
X135794250Y-114709000D01*
X135791440Y-114709000D01*
X135791440Y-112288000D01*
X135747162Y-112052683D01*
X135608090Y-111836559D01*
X135395890Y-111691569D01*
X135144000Y-111640560D01*
X134363006Y-111640560D01*
X133994223Y-111271777D01*
X133623407Y-111024006D01*
X133186000Y-110937000D01*
X132842000Y-110937000D01*
X132404593Y-111024006D01*
X132316961Y-111082560D01*
X132192000Y-111082560D01*
X131956683Y-111126838D01*
X131825543Y-111211225D01*
X131711890Y-111133569D01*
X131460000Y-111082560D01*
X131335039Y-111082560D01*
X131247407Y-111024006D01*
X130810000Y-110937000D01*
X129958000Y-110937000D01*
X129520593Y-111024006D01*
X129358130Y-111132560D01*
X128508000Y-111132560D01*
X128272683Y-111176838D01*
X128056559Y-111315910D01*
X127911569Y-111528110D01*
X127860560Y-111780000D01*
X127860560Y-113202954D01*
X127143000Y-112485394D01*
X127143000Y-111653690D01*
X127046327Y-111420301D01*
X126871724Y-111245699D01*
X126862994Y-111202590D01*
X126834553Y-111160965D01*
X126792159Y-111133685D01*
X126746000Y-111125000D01*
X125222000Y-111125000D01*
X125172590Y-111135006D01*
X125130965Y-111163447D01*
X125103685Y-111205841D01*
X125095000Y-111252000D01*
X125095000Y-111294975D01*
X124969673Y-111420301D01*
X124873000Y-111653690D01*
X124724720Y-111653690D01*
X124660767Y-111498914D01*
X124341765Y-111179355D01*
X123924756Y-111006197D01*
X123473225Y-111005803D01*
X123055914Y-111178233D01*
X122736355Y-111497235D01*
X122563197Y-111914244D01*
X122562803Y-112365775D01*
X111105440Y-112365775D01*
X111105440Y-111272000D01*
X111061162Y-111036683D01*
X110922090Y-110820559D01*
X110709890Y-110675569D01*
X110458000Y-110624560D01*
X109458000Y-110624560D01*
X109222683Y-110668838D01*
X109006559Y-110807910D01*
X108974404Y-110854971D01*
X108376619Y-110257185D01*
X119899682Y-110257185D01*
X119913827Y-110328684D01*
X120172855Y-110805540D01*
X120594651Y-111146972D01*
X121115000Y-111301000D01*
X121615000Y-111301000D01*
X121615000Y-110043000D01*
X121869000Y-110043000D01*
X121869000Y-111301000D01*
X122369000Y-111301000D01*
X122889349Y-111146972D01*
X123311145Y-110805540D01*
X123570173Y-110328684D01*
X123584318Y-110257185D01*
X123461656Y-110043000D01*
X121869000Y-110043000D01*
X121615000Y-110043000D01*
X120022344Y-110043000D01*
X119899682Y-110257185D01*
X108376619Y-110257185D01*
X107517717Y-109398283D01*
X107507061Y-109391163D01*
X108305409Y-109373614D01*
X108970545Y-109098106D01*
X108973738Y-109091433D01*
X109015410Y-109082994D01*
X109055803Y-109055803D01*
X109563803Y-108547803D01*
X109591666Y-108505789D01*
X109599494Y-108465709D01*
X109606106Y-108462545D01*
X109899405Y-107707969D01*
X109881614Y-106898591D01*
X109606106Y-106233455D01*
X109601000Y-106231012D01*
X109601000Y-103064988D01*
X109606106Y-103062545D01*
X109899405Y-102307969D01*
X109881614Y-101498591D01*
X109606106Y-100833455D01*
X109454697Y-100761000D01*
X112927394Y-100761000D01*
X112686197Y-101002197D01*
X112686197Y-101002197D01*
G37*
X112686197Y-101002197D02*
X112658334Y-101044211D01*
X112649000Y-101092000D01*
X112649000Y-101473789D01*
X112604595Y-101588031D01*
X112622386Y-102397409D01*
X112649000Y-102461661D01*
X112649000Y-106873789D01*
X112604595Y-106988031D01*
X112622386Y-107797409D01*
X112649000Y-107861661D01*
X112649000Y-108458000D01*
X112659006Y-108507410D01*
X112686197Y-108547803D01*
X113448197Y-109309803D01*
X113490211Y-109337666D01*
X113538000Y-109347000D01*
X114173789Y-109347000D01*
X114288031Y-109391405D01*
X115097409Y-109373614D01*
X115161661Y-109347000D01*
X119573789Y-109347000D01*
X119688031Y-109391405D01*
X119978080Y-109385029D01*
X119913827Y-109503316D01*
X119899682Y-109574815D01*
X120022344Y-109789000D01*
X121615000Y-109789000D01*
X121615000Y-109769000D01*
X121869000Y-109769000D01*
X121869000Y-109789000D01*
X123461656Y-109789000D01*
X123584318Y-109574815D01*
X123570173Y-109503316D01*
X123311145Y-109026460D01*
X122889349Y-108685028D01*
X122369000Y-108531000D01*
X121793000Y-108531000D01*
X121793000Y-108464988D01*
X121798106Y-108462545D01*
X122091405Y-107707969D01*
X122073614Y-106898591D01*
X121798106Y-106233455D01*
X121793000Y-106231012D01*
X121793000Y-103064988D01*
X121798106Y-103062545D01*
X122091405Y-102307969D01*
X122073614Y-101498591D01*
X121798106Y-100833455D01*
X121646697Y-100761000D01*
X127781303Y-100761000D01*
X127629894Y-100833455D01*
X127336595Y-101588031D01*
X127354386Y-102397409D01*
X127629894Y-103062545D01*
X127635000Y-103064988D01*
X127635000Y-106231012D01*
X127629894Y-106233455D01*
X127336595Y-106988031D01*
X127354386Y-107797409D01*
X127629894Y-108462545D01*
X127636567Y-108465738D01*
X127645006Y-108507410D01*
X127672197Y-108547803D01*
X128180197Y-109055803D01*
X128222211Y-109083666D01*
X128262291Y-109091494D01*
X128265455Y-109098106D01*
X129020031Y-109391405D01*
X129829409Y-109373614D01*
X130494545Y-109098106D01*
X130496988Y-109093000D01*
X133663012Y-109093000D01*
X133665455Y-109098106D01*
X134420031Y-109391405D01*
X135229409Y-109373614D01*
X135894545Y-109098106D01*
X135897738Y-109091433D01*
X135939410Y-109082994D01*
X135979803Y-109055803D01*
X136487803Y-108547803D01*
X136515666Y-108505789D01*
X136523494Y-108465709D01*
X136530106Y-108462545D01*
X136823405Y-107707969D01*
X136823357Y-107705803D01*
X143063000Y-113945446D01*
X143063000Y-114279903D01*
X142883765Y-114100355D01*
X142466756Y-113927197D01*
X142015225Y-113926803D01*
X141597914Y-114099233D01*
X141278355Y-114418235D01*
X141105197Y-114835244D01*
X141104803Y-115286775D01*
X141277233Y-115704086D01*
X141596235Y-116023645D01*
X142013244Y-116196803D01*
X142464775Y-116197197D01*
X142882086Y-116024767D01*
X143063000Y-115844168D01*
X143063000Y-116715551D01*
X142907890Y-116609569D01*
X142656000Y-116558560D01*
X141956000Y-116558560D01*
X141720683Y-116602838D01*
X141504559Y-116741910D01*
X141359569Y-116954110D01*
X141339835Y-117051560D01*
X140066000Y-117051560D01*
X139830683Y-117095838D01*
X139614559Y-117234910D01*
X139469569Y-117447110D01*
X139418560Y-117699000D01*
X139418560Y-118399000D01*
X139462838Y-118634317D01*
X139601910Y-118850441D01*
X139814110Y-118995431D01*
X139847490Y-119002191D01*
X139706301Y-119060673D01*
X139527673Y-119239302D01*
X139433331Y-119467063D01*
X137869394Y-121031000D01*
X137668000Y-121031000D01*
X137618590Y-121041006D01*
X137578197Y-121068197D01*
X137324197Y-121322197D01*
X137296334Y-121364211D01*
X137287000Y-121412000D01*
X137287000Y-124079000D01*
X136855760Y-124079000D01*
X136878000Y-124025309D01*
X136878000Y-123284750D01*
X136719250Y-123126000D01*
X135255000Y-123126000D01*
X135255000Y-123146000D01*
X135001000Y-123146000D01*
X135001000Y-123126000D01*
X133536750Y-123126000D01*
X133378000Y-123284750D01*
X133378000Y-124025309D01*
X133400240Y-124079000D01*
X130759760Y-124079000D01*
X130782000Y-124025309D01*
X130782000Y-123284750D01*
X130623250Y-123126000D01*
X129159000Y-123126000D01*
X129159000Y-123146000D01*
X128905000Y-123146000D01*
X128905000Y-123126000D01*
X127440750Y-123126000D01*
X127282000Y-123284750D01*
X127282000Y-124025309D01*
X127378673Y-124258698D01*
X127557301Y-124437327D01*
X127790690Y-124534000D01*
X128524394Y-124534000D01*
X128217394Y-124841000D01*
X127000000Y-124841000D01*
X126950590Y-124851006D01*
X126910197Y-124878197D01*
X125386197Y-126402197D01*
X125358334Y-126444211D01*
X125349000Y-126492000D01*
X125349000Y-130757394D01*
X123405758Y-132700636D01*
X123311145Y-132526460D01*
X122889349Y-132185028D01*
X122369000Y-132031000D01*
X122041000Y-132031000D01*
X122041000Y-131972750D01*
X121882250Y-131814000D01*
X121158000Y-131814000D01*
X121158000Y-131834000D01*
X120904000Y-131834000D01*
X120904000Y-131814000D01*
X119888000Y-131814000D01*
X119888000Y-132563250D01*
X120046750Y-132722000D01*
X120066638Y-132722000D01*
X119913827Y-133003316D01*
X119899682Y-133074815D01*
X120022344Y-133289000D01*
X121615000Y-133289000D01*
X121615000Y-133269000D01*
X121869000Y-133269000D01*
X121869000Y-133289000D01*
X121889000Y-133289000D01*
X121889000Y-133543000D01*
X121869000Y-133543000D01*
X121869000Y-133563000D01*
X121615000Y-133563000D01*
X121615000Y-133543000D01*
X120022344Y-133543000D01*
X119899682Y-133757185D01*
X119913827Y-133828684D01*
X120172855Y-134305540D01*
X120370702Y-134465692D01*
X118782197Y-136054197D01*
X118754334Y-136096211D01*
X118745000Y-136144000D01*
X118745000Y-137033000D01*
X110189982Y-137033000D01*
X110197555Y-137025440D01*
X110458000Y-137025440D01*
X110693317Y-136981162D01*
X110909441Y-136842090D01*
X111054431Y-136629890D01*
X111082274Y-136492398D01*
X111088343Y-136488343D01*
X115603936Y-131972750D01*
X118751000Y-131972750D01*
X118751000Y-132213309D01*
X118847673Y-132446698D01*
X119026301Y-132625327D01*
X119259690Y-132722000D01*
X119475250Y-132722000D01*
X119634000Y-132563250D01*
X119634000Y-131814000D01*
X118909750Y-131814000D01*
X118751000Y-131972750D01*
X115603936Y-131972750D01*
X117736344Y-129840342D01*
X117751110Y-129850431D01*
X118003000Y-129901440D01*
X118618000Y-129901440D01*
X118618000Y-130187000D01*
X118705006Y-130624407D01*
X118761511Y-130708972D01*
X118782838Y-130822317D01*
X118849329Y-130925646D01*
X118847673Y-130927302D01*
X118751000Y-131160691D01*
X118751000Y-131401250D01*
X118909750Y-131560000D01*
X119634000Y-131560000D01*
X119634000Y-131540000D01*
X119888000Y-131540000D01*
X119888000Y-131560000D01*
X120904000Y-131560000D01*
X120904000Y-131540000D01*
X121158000Y-131540000D01*
X121158000Y-131560000D01*
X121882250Y-131560000D01*
X122041000Y-131401250D01*
X122041000Y-131160691D01*
X121944327Y-130927302D01*
X121942957Y-130925932D01*
X122002431Y-130838890D01*
X122027979Y-130712729D01*
X122086994Y-130624407D01*
X122174000Y-130187000D01*
X122174000Y-129928000D01*
X122269250Y-129928000D01*
X122428000Y-129769250D01*
X122428000Y-129020000D01*
X122682000Y-129020000D01*
X122682000Y-129769250D01*
X122840750Y-129928000D01*
X123056310Y-129928000D01*
X123190000Y-129872624D01*
X123323690Y-129928000D01*
X123539250Y-129928000D01*
X123698000Y-129769250D01*
X123698000Y-129020000D01*
X123952000Y-129020000D01*
X123952000Y-129769250D01*
X124110750Y-129928000D01*
X124326310Y-129928000D01*
X124559699Y-129831327D01*
X124738327Y-129652698D01*
X124835000Y-129419309D01*
X124835000Y-129178750D01*
X124676250Y-129020000D01*
X123952000Y-129020000D01*
X123698000Y-129020000D01*
X122682000Y-129020000D01*
X122428000Y-129020000D01*
X122408000Y-129020000D01*
X122408000Y-128766000D01*
X122428000Y-128766000D01*
X122428000Y-128746000D01*
X122682000Y-128746000D01*
X122682000Y-128766000D01*
X123698000Y-128766000D01*
X123698000Y-128746000D01*
X123952000Y-128746000D01*
X123952000Y-128766000D01*
X124676250Y-128766000D01*
X124835000Y-128607250D01*
X124835000Y-128366691D01*
X124738327Y-128133302D01*
X124736957Y-128131932D01*
X124796431Y-128044890D01*
X124821979Y-127918729D01*
X124880994Y-127830407D01*
X124968000Y-127393000D01*
X124880994Y-126955593D01*
X124824489Y-126871028D01*
X124819352Y-126843725D01*
X124909431Y-126711890D01*
X124960440Y-126460000D01*
X124960440Y-125460000D01*
X124916162Y-125224683D01*
X124777090Y-125008559D01*
X124564890Y-124863569D01*
X124313000Y-124812560D01*
X121813000Y-124812560D01*
X121577683Y-124856838D01*
X121361559Y-124995910D01*
X121216569Y-125208110D01*
X121165560Y-125460000D01*
X121165560Y-126019758D01*
X121125898Y-126027648D01*
X120979250Y-125881000D01*
X119380000Y-125881000D01*
X119380000Y-126730250D01*
X119538750Y-126889000D01*
X120191728Y-126889000D01*
X120142000Y-127139000D01*
X120215600Y-127509009D01*
X119843593Y-127583006D01*
X119808342Y-127606560D01*
X118352000Y-127606560D01*
X118352000Y-126889000D01*
X118967250Y-126889000D01*
X119126000Y-126730250D01*
X119126000Y-125881000D01*
X119106000Y-125881000D01*
X119106000Y-125627000D01*
X119126000Y-125627000D01*
X119126000Y-124777750D01*
X119380000Y-124777750D01*
X119380000Y-125627000D01*
X120979250Y-125627000D01*
X121138000Y-125468250D01*
X121138000Y-125127691D01*
X121041327Y-124894302D01*
X120862699Y-124715673D01*
X120629310Y-124619000D01*
X119538750Y-124619000D01*
X119380000Y-124777750D01*
X119126000Y-124777750D01*
X118967250Y-124619000D01*
X118352000Y-124619000D01*
X118352000Y-123590750D01*
X118624000Y-123590750D01*
X118624000Y-123831309D01*
X118720673Y-124064698D01*
X118899301Y-124243327D01*
X119132690Y-124340000D01*
X119348250Y-124340000D01*
X119507000Y-124181250D01*
X119507000Y-123432000D01*
X119761000Y-123432000D01*
X119761000Y-124181250D01*
X119919750Y-124340000D01*
X120135310Y-124340000D01*
X120269000Y-124284624D01*
X120402690Y-124340000D01*
X120618250Y-124340000D01*
X120777000Y-124181250D01*
X120777000Y-123432000D01*
X119761000Y-123432000D01*
X119507000Y-123432000D01*
X118782750Y-123432000D01*
X118624000Y-123590750D01*
X118352000Y-123590750D01*
X118352000Y-120757440D01*
X118783994Y-120757440D01*
X118872000Y-120845446D01*
X118872000Y-120899443D01*
X118807559Y-120940910D01*
X118662569Y-121153110D01*
X118611560Y-121405000D01*
X118611560Y-122205000D01*
X118655838Y-122440317D01*
X118722329Y-122543646D01*
X118720673Y-122545302D01*
X118624000Y-122778691D01*
X118624000Y-123019250D01*
X118782750Y-123178000D01*
X119507000Y-123178000D01*
X119507000Y-123158000D01*
X119761000Y-123158000D01*
X119761000Y-123178000D01*
X120777000Y-123178000D01*
X120777000Y-123158000D01*
X121031000Y-123158000D01*
X121031000Y-123178000D01*
X121051000Y-123178000D01*
X121051000Y-123432000D01*
X121031000Y-123432000D01*
X121031000Y-124181250D01*
X121189750Y-124340000D01*
X121405310Y-124340000D01*
X121638699Y-124243327D01*
X121787025Y-124095000D01*
X122777250Y-124095000D01*
X122936000Y-123936250D01*
X122936000Y-123087000D01*
X123190000Y-123087000D01*
X123190000Y-123936250D01*
X123348750Y-124095000D01*
X124439310Y-124095000D01*
X124672699Y-123998327D01*
X124851327Y-123819698D01*
X124948000Y-123586309D01*
X124948000Y-123245750D01*
X124789250Y-123087000D01*
X123190000Y-123087000D01*
X122936000Y-123087000D01*
X122916000Y-123087000D01*
X122916000Y-122833000D01*
X122936000Y-122833000D01*
X122936000Y-121983750D01*
X123190000Y-121983750D01*
X123190000Y-122833000D01*
X124789250Y-122833000D01*
X124948000Y-122674250D01*
X124948000Y-122333691D01*
X124851327Y-122100302D01*
X124672699Y-121921673D01*
X124439310Y-121825000D01*
X123348750Y-121825000D01*
X123190000Y-121983750D01*
X122936000Y-121983750D01*
X122777250Y-121825000D01*
X121926440Y-121825000D01*
X121926440Y-121493291D01*
X122053690Y-121546000D01*
X122269250Y-121546000D01*
X122428000Y-121387250D01*
X122428000Y-120638000D01*
X122682000Y-120638000D01*
X122682000Y-121387250D01*
X122840750Y-121546000D01*
X123056310Y-121546000D01*
X123190000Y-121490624D01*
X123323690Y-121546000D01*
X123539250Y-121546000D01*
X123698000Y-121387250D01*
X123698000Y-120638000D01*
X123952000Y-120638000D01*
X123952000Y-121387250D01*
X124110750Y-121546000D01*
X124326310Y-121546000D01*
X124559699Y-121449327D01*
X124738327Y-121270698D01*
X124835000Y-121037309D01*
X124835000Y-120796750D01*
X124676250Y-120638000D01*
X123952000Y-120638000D01*
X123698000Y-120638000D01*
X122682000Y-120638000D01*
X122428000Y-120638000D01*
X122408000Y-120638000D01*
X122408000Y-120384000D01*
X122428000Y-120384000D01*
X122428000Y-120364000D01*
X122682000Y-120364000D01*
X122682000Y-120384000D01*
X123698000Y-120384000D01*
X123698000Y-120364000D01*
X123952000Y-120364000D01*
X123952000Y-120384000D01*
X124676250Y-120384000D01*
X124835000Y-120225250D01*
X124835000Y-119984691D01*
X124738327Y-119751302D01*
X124736957Y-119749932D01*
X124796431Y-119662890D01*
X124847440Y-119411000D01*
X124847440Y-118611000D01*
X124803162Y-118375683D01*
X124664090Y-118159559D01*
X124452440Y-118014945D01*
X124452440Y-117078000D01*
X124408162Y-116842683D01*
X124345144Y-116744750D01*
X126545000Y-116744750D01*
X126545000Y-117700310D01*
X126641673Y-117933699D01*
X126820302Y-118112327D01*
X126993000Y-118183861D01*
X126993000Y-118205250D01*
X127151750Y-118364000D01*
X127901000Y-118364000D01*
X127901000Y-118102250D01*
X127953000Y-118050250D01*
X127953000Y-116586000D01*
X126703750Y-116586000D01*
X126545000Y-116744750D01*
X124345144Y-116744750D01*
X124269090Y-116626559D01*
X124056890Y-116481569D01*
X123805000Y-116430560D01*
X121305000Y-116430560D01*
X121069683Y-116474838D01*
X121057002Y-116482998D01*
X120979252Y-116482998D01*
X121138000Y-116324250D01*
X121138000Y-115983691D01*
X121041327Y-115750302D01*
X120862699Y-115571673D01*
X120629310Y-115475000D01*
X119538750Y-115475000D01*
X119380000Y-115633750D01*
X119380000Y-116483000D01*
X119400000Y-116483000D01*
X119400000Y-116737000D01*
X119380000Y-116737000D01*
X119380000Y-116757000D01*
X119126000Y-116757000D01*
X119126000Y-116737000D01*
X117526750Y-116737000D01*
X117368000Y-116895750D01*
X117368000Y-116931764D01*
X116967000Y-116852000D01*
X116436983Y-116957427D01*
X115987657Y-117257657D01*
X115687427Y-117706983D01*
X115582000Y-118237000D01*
X115582000Y-128077314D01*
X112345261Y-131314053D01*
X112395000Y-131064000D01*
X112395000Y-116840000D01*
X112307994Y-116402593D01*
X112060223Y-116031777D01*
X112012137Y-115983691D01*
X117368000Y-115983691D01*
X117368000Y-116324250D01*
X117526750Y-116483000D01*
X119126000Y-116483000D01*
X119126000Y-115633750D01*
X118967250Y-115475000D01*
X117876690Y-115475000D01*
X117643301Y-115571673D01*
X117464673Y-115750302D01*
X117368000Y-115983691D01*
X112012137Y-115983691D01*
X110892196Y-114863750D01*
X120670000Y-114863750D01*
X120670000Y-115204309D01*
X120766673Y-115437698D01*
X120945301Y-115616327D01*
X121178690Y-115713000D01*
X122269250Y-115713000D01*
X122428000Y-115554250D01*
X122428000Y-114705000D01*
X122682000Y-114705000D01*
X122682000Y-115554250D01*
X122840750Y-115713000D01*
X123931310Y-115713000D01*
X124164699Y-115616327D01*
X124343327Y-115437698D01*
X124440000Y-115204309D01*
X124440000Y-114863750D01*
X124281250Y-114705000D01*
X122682000Y-114705000D01*
X122428000Y-114705000D01*
X120828750Y-114705000D01*
X120670000Y-114863750D01*
X110892196Y-114863750D01*
X110455446Y-114427000D01*
X110464166Y-114418280D01*
X110693317Y-114375162D01*
X110909441Y-114236090D01*
X111054431Y-114023890D01*
X111069051Y-113951691D01*
X120670000Y-113951691D01*
X120670000Y-114292250D01*
X120828750Y-114451000D01*
X122428000Y-114451000D01*
X122428000Y-113601750D01*
X122682000Y-113601750D01*
X122682000Y-114451000D01*
X124281250Y-114451000D01*
X124440000Y-114292250D01*
X124440000Y-113951691D01*
X124343327Y-113718302D01*
X124164699Y-113539673D01*
X123931310Y-113443000D01*
X122840750Y-113443000D01*
X122682000Y-113601750D01*
X122428000Y-113601750D01*
X122269250Y-113443000D01*
X121178690Y-113443000D01*
X120945301Y-113539673D01*
X120766673Y-113718302D01*
X120670000Y-113951691D01*
X111069051Y-113951691D01*
X111105440Y-113772000D01*
X111105440Y-112365775D01*
X122562803Y-112365775D01*
X122735233Y-112783086D01*
X123054235Y-113102645D01*
X123471244Y-113275803D01*
X123922775Y-113276197D01*
X124340086Y-113103767D01*
X124659645Y-112784765D01*
X124832803Y-112367756D01*
X124833197Y-111916225D01*
X124724720Y-111653690D01*
X124873000Y-111653690D01*
X124873000Y-112744250D01*
X125031750Y-112903000D01*
X125095000Y-112903000D01*
X125095000Y-113157000D01*
X125031750Y-113157000D01*
X124873000Y-113315750D01*
X124873000Y-114406310D01*
X124969673Y-114639699D01*
X125148302Y-114818327D01*
X125381691Y-114915000D01*
X125722250Y-114915000D01*
X125881000Y-114756250D01*
X125881000Y-114681000D01*
X126135000Y-114681000D01*
X126135000Y-114756250D01*
X126293750Y-114915000D01*
X126634309Y-114915000D01*
X126765186Y-114860789D01*
X126641673Y-114984301D01*
X126545000Y-115217690D01*
X126545000Y-116173250D01*
X126703750Y-116332000D01*
X127953000Y-116332000D01*
X127953000Y-116312000D01*
X128207000Y-116312000D01*
X128207000Y-116332000D01*
X128227000Y-116332000D01*
X128227000Y-116586000D01*
X128207000Y-116586000D01*
X128207000Y-117587750D01*
X128155000Y-117639750D01*
X128155000Y-118364000D01*
X128175000Y-118364000D01*
X128175000Y-118531560D01*
X127917000Y-118531560D01*
X127681683Y-118575838D01*
X127616161Y-118618000D01*
X127151750Y-118618000D01*
X126993000Y-118776750D01*
X126993000Y-118992310D01*
X127089673Y-119225699D01*
X127268302Y-119404327D01*
X127269560Y-119404848D01*
X127269560Y-120979000D01*
X127313838Y-121214317D01*
X127452910Y-121430441D01*
X127610973Y-121538441D01*
X127557301Y-121560673D01*
X127378673Y-121739302D01*
X127282000Y-121972691D01*
X127282000Y-122713250D01*
X127440750Y-122872000D01*
X128905000Y-122872000D01*
X128905000Y-122852000D01*
X129159000Y-122852000D01*
X129159000Y-122872000D01*
X130623250Y-122872000D01*
X130782000Y-122713250D01*
X130782000Y-122039631D01*
X130816690Y-122054000D01*
X131032250Y-122054000D01*
X131191000Y-121895250D01*
X131191000Y-121146000D01*
X131445000Y-121146000D01*
X131445000Y-121895250D01*
X131603750Y-122054000D01*
X131819310Y-122054000D01*
X132052699Y-121957327D01*
X132080000Y-121930026D01*
X132107301Y-121957327D01*
X132340690Y-122054000D01*
X132556250Y-122054000D01*
X132715000Y-121895250D01*
X132715000Y-121146000D01*
X131445000Y-121146000D01*
X131191000Y-121146000D01*
X131171000Y-121146000D01*
X131171000Y-120892000D01*
X131191000Y-120892000D01*
X131191000Y-120872000D01*
X131445000Y-120872000D01*
X131445000Y-120892000D01*
X132715000Y-120892000D01*
X132715000Y-120872000D01*
X132969000Y-120872000D01*
X132969000Y-120892000D01*
X132989000Y-120892000D01*
X132989000Y-121146000D01*
X132969000Y-121146000D01*
X132969000Y-121895250D01*
X133127750Y-122054000D01*
X133343310Y-122054000D01*
X133378000Y-122039631D01*
X133378000Y-122713250D01*
X133536750Y-122872000D01*
X135001000Y-122872000D01*
X135001000Y-122852000D01*
X135255000Y-122852000D01*
X135255000Y-122872000D01*
X136719250Y-122872000D01*
X136878000Y-122713250D01*
X136878000Y-121972691D01*
X136781327Y-121739302D01*
X136602699Y-121560673D01*
X136547344Y-121537744D01*
X136694441Y-121443090D01*
X136839431Y-121230890D01*
X136890440Y-120979000D01*
X136890440Y-119404848D01*
X136891698Y-119404327D01*
X137070327Y-119225699D01*
X137167000Y-118992310D01*
X137167000Y-118776750D01*
X137008250Y-118618000D01*
X136546745Y-118618000D01*
X136494890Y-118582569D01*
X136243000Y-118531560D01*
X135985000Y-118531560D01*
X135985000Y-118364000D01*
X136005000Y-118364000D01*
X136005000Y-117639750D01*
X135953000Y-117587750D01*
X135953000Y-116586000D01*
X136207000Y-116586000D01*
X136207000Y-118050250D01*
X136259000Y-118102250D01*
X136259000Y-118364000D01*
X137008250Y-118364000D01*
X137167000Y-118205250D01*
X137167000Y-118183861D01*
X137339698Y-118112327D01*
X137518327Y-117933699D01*
X137615000Y-117700310D01*
X137615000Y-116744750D01*
X137456250Y-116586000D01*
X136207000Y-116586000D01*
X135953000Y-116586000D01*
X135933000Y-116586000D01*
X135933000Y-116332000D01*
X135953000Y-116332000D01*
X135953000Y-114867750D01*
X136207000Y-114867750D01*
X136207000Y-116332000D01*
X137456250Y-116332000D01*
X137615000Y-116173250D01*
X137615000Y-115443000D01*
X138684000Y-115443000D01*
X138733410Y-115432994D01*
X138775035Y-115404553D01*
X138802315Y-115362159D01*
X138811000Y-115316000D01*
X138811000Y-111760000D01*
X138800994Y-111710590D01*
X138772553Y-111668965D01*
X138730159Y-111641685D01*
X138684000Y-111633000D01*
X136652000Y-111633000D01*
X136602590Y-111643006D01*
X136560965Y-111671447D01*
X136533685Y-111713841D01*
X136525000Y-111760000D01*
X136525000Y-112123063D01*
X136509000Y-112161690D01*
X136509000Y-113252250D01*
X136525000Y-113268250D01*
X136525000Y-113807750D01*
X136509000Y-113823750D01*
X136509000Y-114709000D01*
X136365750Y-114709000D01*
X136207000Y-114867750D01*
X135953000Y-114867750D01*
X135794250Y-114709000D01*
X135791440Y-114709000D01*
X135791440Y-112288000D01*
X135747162Y-112052683D01*
X135608090Y-111836559D01*
X135395890Y-111691569D01*
X135144000Y-111640560D01*
X134363006Y-111640560D01*
X133994223Y-111271777D01*
X133623407Y-111024006D01*
X133186000Y-110937000D01*
X132842000Y-110937000D01*
X132404593Y-111024006D01*
X132316961Y-111082560D01*
X132192000Y-111082560D01*
X131956683Y-111126838D01*
X131825543Y-111211225D01*
X131711890Y-111133569D01*
X131460000Y-111082560D01*
X131335039Y-111082560D01*
X131247407Y-111024006D01*
X130810000Y-110937000D01*
X129958000Y-110937000D01*
X129520593Y-111024006D01*
X129358130Y-111132560D01*
X128508000Y-111132560D01*
X128272683Y-111176838D01*
X128056559Y-111315910D01*
X127911569Y-111528110D01*
X127860560Y-111780000D01*
X127860560Y-113202954D01*
X127143000Y-112485394D01*
X127143000Y-111653690D01*
X127046327Y-111420301D01*
X126871724Y-111245699D01*
X126862994Y-111202590D01*
X126834553Y-111160965D01*
X126792159Y-111133685D01*
X126746000Y-111125000D01*
X125222000Y-111125000D01*
X125172590Y-111135006D01*
X125130965Y-111163447D01*
X125103685Y-111205841D01*
X125095000Y-111252000D01*
X125095000Y-111294975D01*
X124969673Y-111420301D01*
X124873000Y-111653690D01*
X124724720Y-111653690D01*
X124660767Y-111498914D01*
X124341765Y-111179355D01*
X123924756Y-111006197D01*
X123473225Y-111005803D01*
X123055914Y-111178233D01*
X122736355Y-111497235D01*
X122563197Y-111914244D01*
X122562803Y-112365775D01*
X111105440Y-112365775D01*
X111105440Y-111272000D01*
X111061162Y-111036683D01*
X110922090Y-110820559D01*
X110709890Y-110675569D01*
X110458000Y-110624560D01*
X109458000Y-110624560D01*
X109222683Y-110668838D01*
X109006559Y-110807910D01*
X108974404Y-110854971D01*
X108376619Y-110257185D01*
X119899682Y-110257185D01*
X119913827Y-110328684D01*
X120172855Y-110805540D01*
X120594651Y-111146972D01*
X121115000Y-111301000D01*
X121615000Y-111301000D01*
X121615000Y-110043000D01*
X121869000Y-110043000D01*
X121869000Y-111301000D01*
X122369000Y-111301000D01*
X122889349Y-111146972D01*
X123311145Y-110805540D01*
X123570173Y-110328684D01*
X123584318Y-110257185D01*
X123461656Y-110043000D01*
X121869000Y-110043000D01*
X121615000Y-110043000D01*
X120022344Y-110043000D01*
X119899682Y-110257185D01*
X108376619Y-110257185D01*
X107517717Y-109398283D01*
X107507061Y-109391163D01*
X108305409Y-109373614D01*
X108970545Y-109098106D01*
X108973738Y-109091433D01*
X109015410Y-109082994D01*
X109055803Y-109055803D01*
X109563803Y-108547803D01*
X109591666Y-108505789D01*
X109599494Y-108465709D01*
X109606106Y-108462545D01*
X109899405Y-107707969D01*
X109881614Y-106898591D01*
X109606106Y-106233455D01*
X109601000Y-106231012D01*
X109601000Y-103064988D01*
X109606106Y-103062545D01*
X109899405Y-102307969D01*
X109881614Y-101498591D01*
X109606106Y-100833455D01*
X109454697Y-100761000D01*
X112927394Y-100761000D01*
X112686197Y-101002197D01*
G36*
X104855750Y-135001000D02*
X106319000Y-135001000D01*
X106319000Y-135255000D01*
X104855750Y-135255000D01*
X104835750Y-135275000D01*
X104759000Y-135275000D01*
X104759000Y-135255000D01*
X104739000Y-135255000D01*
X104739000Y-135001000D01*
X104759000Y-135001000D01*
X104759000Y-134981000D01*
X104835750Y-134981000D01*
X104855750Y-135001000D01*
X104855750Y-135001000D01*
G37*
X104855750Y-135001000D02*
X106319000Y-135001000D01*
X106319000Y-135255000D01*
X104855750Y-135255000D01*
X104835750Y-135275000D01*
X104759000Y-135275000D01*
X104759000Y-135255000D01*
X104739000Y-135255000D01*
X104739000Y-135001000D01*
X104759000Y-135001000D01*
X104759000Y-134981000D01*
X104835750Y-134981000D01*
X104855750Y-135001000D01*
G36*
X110024114Y-122054560D02*
X109458000Y-122054560D01*
X109222683Y-122098838D01*
X109006559Y-122237910D01*
X108861569Y-122450110D01*
X108810560Y-122702000D01*
X108810560Y-123036345D01*
X108649777Y-123143777D01*
X108402006Y-123514593D01*
X108315000Y-123952000D01*
X108315000Y-124952000D01*
X108402006Y-125389407D01*
X108649777Y-125760223D01*
X108665777Y-125776223D01*
X109036593Y-126023994D01*
X109474000Y-126111000D01*
X109911407Y-126023994D01*
X110109000Y-125891967D01*
X110109000Y-127642560D01*
X109458000Y-127642560D01*
X109222683Y-127686838D01*
X109006559Y-127825910D01*
X108861569Y-128038110D01*
X108810560Y-128290000D01*
X108810560Y-128939551D01*
X108636671Y-129199794D01*
X108569000Y-129540000D01*
X108569000Y-130109689D01*
X108512355Y-130166235D01*
X108339197Y-130583244D01*
X108338803Y-131034775D01*
X108511233Y-131452086D01*
X108830235Y-131771645D01*
X108899251Y-131800303D01*
X107649777Y-133049777D01*
X107520670Y-133243000D01*
X107243750Y-133243000D01*
X107085000Y-133401750D01*
X107085000Y-133553000D01*
X106831000Y-133553000D01*
X106831000Y-133401750D01*
X106672250Y-133243000D01*
X106331691Y-133243000D01*
X106098302Y-133339673D01*
X105919673Y-133518301D01*
X105899721Y-133566471D01*
X105886250Y-133553000D01*
X105205690Y-133553000D01*
X104972301Y-133649673D01*
X104793673Y-133828302D01*
X104777229Y-133868000D01*
X104758998Y-133868000D01*
X104758998Y-133912014D01*
X104725393Y-133993143D01*
X104600250Y-133868000D01*
X104259691Y-133868000D01*
X104026302Y-133964673D01*
X103885064Y-134105910D01*
X103850090Y-134051559D01*
X103637890Y-133906569D01*
X103386000Y-133855560D01*
X102489000Y-133855560D01*
X102489000Y-132553446D01*
X103678223Y-131364223D01*
X103700905Y-131330277D01*
X103831645Y-131199765D01*
X103903114Y-131027650D01*
X103925994Y-130993407D01*
X103933958Y-130953369D01*
X104004803Y-130782756D01*
X104004891Y-130681916D01*
X104026302Y-130703327D01*
X104259691Y-130800000D01*
X104600250Y-130800000D01*
X104725393Y-130674857D01*
X104758998Y-130755986D01*
X104758998Y-130800000D01*
X104777229Y-130800000D01*
X104793673Y-130839698D01*
X104972301Y-131018327D01*
X105205690Y-131115000D01*
X105886250Y-131115000D01*
X105899721Y-131101529D01*
X105919673Y-131149699D01*
X106098302Y-131328327D01*
X106331691Y-131425000D01*
X106672250Y-131425000D01*
X106831000Y-131266250D01*
X106831000Y-131115000D01*
X107085000Y-131115000D01*
X107085000Y-131266250D01*
X107243750Y-131425000D01*
X107584309Y-131425000D01*
X107817698Y-131328327D01*
X107996327Y-131149699D01*
X108093000Y-130916310D01*
X108093000Y-129825750D01*
X107934250Y-129667000D01*
X104855750Y-129667000D01*
X104835750Y-129687000D01*
X104759000Y-129687000D01*
X104759000Y-129667000D01*
X104739000Y-129667000D01*
X104739000Y-129413000D01*
X104759000Y-129413000D01*
X104759000Y-129393000D01*
X104835750Y-129393000D01*
X104855750Y-129413000D01*
X107934250Y-129413000D01*
X108093000Y-129254250D01*
X108093000Y-128163690D01*
X107996327Y-127930301D01*
X107817698Y-127751673D01*
X107584309Y-127655000D01*
X107243750Y-127655000D01*
X107085000Y-127813750D01*
X107085000Y-127965000D01*
X106831000Y-127965000D01*
X106831000Y-127813750D01*
X106672250Y-127655000D01*
X106331691Y-127655000D01*
X106098302Y-127751673D01*
X105919673Y-127930301D01*
X105899721Y-127978471D01*
X105886250Y-127965000D01*
X105205690Y-127965000D01*
X104972301Y-128061673D01*
X104793673Y-128240302D01*
X104777229Y-128280000D01*
X104758998Y-128280000D01*
X104758998Y-128324014D01*
X104725393Y-128405143D01*
X104600250Y-128280000D01*
X104259691Y-128280000D01*
X104026302Y-128376673D01*
X103885064Y-128517910D01*
X103850090Y-128463559D01*
X103637890Y-128318569D01*
X103386000Y-128267560D01*
X102489000Y-128267560D01*
X102489000Y-126038755D01*
X102643244Y-126102803D01*
X102829609Y-126102966D01*
X102870000Y-126111000D01*
X102910039Y-126103036D01*
X103094775Y-126103197D01*
X103267016Y-126032028D01*
X103307407Y-126023994D01*
X103341350Y-126001314D01*
X103512086Y-125930767D01*
X103643978Y-125799104D01*
X103678223Y-125776223D01*
X103694223Y-125760223D01*
X103716849Y-125726361D01*
X103831645Y-125611765D01*
X103894398Y-125460639D01*
X103941994Y-125389407D01*
X103958561Y-125306118D01*
X104004803Y-125194756D01*
X104004891Y-125093916D01*
X104026302Y-125115327D01*
X104259691Y-125212000D01*
X104600250Y-125212000D01*
X104725393Y-125086857D01*
X104758998Y-125167986D01*
X104758998Y-125212000D01*
X104777229Y-125212000D01*
X104793673Y-125251698D01*
X104972301Y-125430327D01*
X105205690Y-125527000D01*
X105886250Y-125527000D01*
X105899721Y-125513529D01*
X105919673Y-125561699D01*
X106098302Y-125740327D01*
X106331691Y-125837000D01*
X106672250Y-125837000D01*
X106831000Y-125678250D01*
X106831000Y-125527000D01*
X107085000Y-125527000D01*
X107085000Y-125678250D01*
X107243750Y-125837000D01*
X107584309Y-125837000D01*
X107817698Y-125740327D01*
X107996327Y-125561699D01*
X108093000Y-125328310D01*
X108093000Y-124237750D01*
X107934250Y-124079000D01*
X104855750Y-124079000D01*
X104835750Y-124099000D01*
X104759000Y-124099000D01*
X104759000Y-124079000D01*
X104739000Y-124079000D01*
X104739000Y-123825000D01*
X104759000Y-123825000D01*
X104759000Y-123805000D01*
X104835750Y-123805000D01*
X104855750Y-123825000D01*
X107934250Y-123825000D01*
X108093000Y-123666250D01*
X108093000Y-122575690D01*
X107996327Y-122342301D01*
X107817698Y-122163673D01*
X107584309Y-122067000D01*
X107243750Y-122067000D01*
X107085000Y-122225750D01*
X107085000Y-122377000D01*
X106831000Y-122377000D01*
X106831000Y-122225750D01*
X106744326Y-122139076D01*
X106798431Y-122059890D01*
X106801041Y-122047000D01*
X110016554Y-122047000D01*
X110024114Y-122054560D01*
X110024114Y-122054560D01*
G37*
X110024114Y-122054560D02*
X109458000Y-122054560D01*
X109222683Y-122098838D01*
X109006559Y-122237910D01*
X108861569Y-122450110D01*
X108810560Y-122702000D01*
X108810560Y-123036345D01*
X108649777Y-123143777D01*
X108402006Y-123514593D01*
X108315000Y-123952000D01*
X108315000Y-124952000D01*
X108402006Y-125389407D01*
X108649777Y-125760223D01*
X108665777Y-125776223D01*
X109036593Y-126023994D01*
X109474000Y-126111000D01*
X109911407Y-126023994D01*
X110109000Y-125891967D01*
X110109000Y-127642560D01*
X109458000Y-127642560D01*
X109222683Y-127686838D01*
X109006559Y-127825910D01*
X108861569Y-128038110D01*
X108810560Y-128290000D01*
X108810560Y-128939551D01*
X108636671Y-129199794D01*
X108569000Y-129540000D01*
X108569000Y-130109689D01*
X108512355Y-130166235D01*
X108339197Y-130583244D01*
X108338803Y-131034775D01*
X108511233Y-131452086D01*
X108830235Y-131771645D01*
X108899251Y-131800303D01*
X107649777Y-133049777D01*
X107520670Y-133243000D01*
X107243750Y-133243000D01*
X107085000Y-133401750D01*
X107085000Y-133553000D01*
X106831000Y-133553000D01*
X106831000Y-133401750D01*
X106672250Y-133243000D01*
X106331691Y-133243000D01*
X106098302Y-133339673D01*
X105919673Y-133518301D01*
X105899721Y-133566471D01*
X105886250Y-133553000D01*
X105205690Y-133553000D01*
X104972301Y-133649673D01*
X104793673Y-133828302D01*
X104777229Y-133868000D01*
X104758998Y-133868000D01*
X104758998Y-133912014D01*
X104725393Y-133993143D01*
X104600250Y-133868000D01*
X104259691Y-133868000D01*
X104026302Y-133964673D01*
X103885064Y-134105910D01*
X103850090Y-134051559D01*
X103637890Y-133906569D01*
X103386000Y-133855560D01*
X102489000Y-133855560D01*
X102489000Y-132553446D01*
X103678223Y-131364223D01*
X103700905Y-131330277D01*
X103831645Y-131199765D01*
X103903114Y-131027650D01*
X103925994Y-130993407D01*
X103933958Y-130953369D01*
X104004803Y-130782756D01*
X104004891Y-130681916D01*
X104026302Y-130703327D01*
X104259691Y-130800000D01*
X104600250Y-130800000D01*
X104725393Y-130674857D01*
X104758998Y-130755986D01*
X104758998Y-130800000D01*
X104777229Y-130800000D01*
X104793673Y-130839698D01*
X104972301Y-131018327D01*
X105205690Y-131115000D01*
X105886250Y-131115000D01*
X105899721Y-131101529D01*
X105919673Y-131149699D01*
X106098302Y-131328327D01*
X106331691Y-131425000D01*
X106672250Y-131425000D01*
X106831000Y-131266250D01*
X106831000Y-131115000D01*
X107085000Y-131115000D01*
X107085000Y-131266250D01*
X107243750Y-131425000D01*
X107584309Y-131425000D01*
X107817698Y-131328327D01*
X107996327Y-131149699D01*
X108093000Y-130916310D01*
X108093000Y-129825750D01*
X107934250Y-129667000D01*
X104855750Y-129667000D01*
X104835750Y-129687000D01*
X104759000Y-129687000D01*
X104759000Y-129667000D01*
X104739000Y-129667000D01*
X104739000Y-129413000D01*
X104759000Y-129413000D01*
X104759000Y-129393000D01*
X104835750Y-129393000D01*
X104855750Y-129413000D01*
X107934250Y-129413000D01*
X108093000Y-129254250D01*
X108093000Y-128163690D01*
X107996327Y-127930301D01*
X107817698Y-127751673D01*
X107584309Y-127655000D01*
X107243750Y-127655000D01*
X107085000Y-127813750D01*
X107085000Y-127965000D01*
X106831000Y-127965000D01*
X106831000Y-127813750D01*
X106672250Y-127655000D01*
X106331691Y-127655000D01*
X106098302Y-127751673D01*
X105919673Y-127930301D01*
X105899721Y-127978471D01*
X105886250Y-127965000D01*
X105205690Y-127965000D01*
X104972301Y-128061673D01*
X104793673Y-128240302D01*
X104777229Y-128280000D01*
X104758998Y-128280000D01*
X104758998Y-128324014D01*
X104725393Y-128405143D01*
X104600250Y-128280000D01*
X104259691Y-128280000D01*
X104026302Y-128376673D01*
X103885064Y-128517910D01*
X103850090Y-128463559D01*
X103637890Y-128318569D01*
X103386000Y-128267560D01*
X102489000Y-128267560D01*
X102489000Y-126038755D01*
X102643244Y-126102803D01*
X102829609Y-126102966D01*
X102870000Y-126111000D01*
X102910039Y-126103036D01*
X103094775Y-126103197D01*
X103267016Y-126032028D01*
X103307407Y-126023994D01*
X103341350Y-126001314D01*
X103512086Y-125930767D01*
X103643978Y-125799104D01*
X103678223Y-125776223D01*
X103694223Y-125760223D01*
X103716849Y-125726361D01*
X103831645Y-125611765D01*
X103894398Y-125460639D01*
X103941994Y-125389407D01*
X103958561Y-125306118D01*
X104004803Y-125194756D01*
X104004891Y-125093916D01*
X104026302Y-125115327D01*
X104259691Y-125212000D01*
X104600250Y-125212000D01*
X104725393Y-125086857D01*
X104758998Y-125167986D01*
X104758998Y-125212000D01*
X104777229Y-125212000D01*
X104793673Y-125251698D01*
X104972301Y-125430327D01*
X105205690Y-125527000D01*
X105886250Y-125527000D01*
X105899721Y-125513529D01*
X105919673Y-125561699D01*
X106098302Y-125740327D01*
X106331691Y-125837000D01*
X106672250Y-125837000D01*
X106831000Y-125678250D01*
X106831000Y-125527000D01*
X107085000Y-125527000D01*
X107085000Y-125678250D01*
X107243750Y-125837000D01*
X107584309Y-125837000D01*
X107817698Y-125740327D01*
X107996327Y-125561699D01*
X108093000Y-125328310D01*
X108093000Y-124237750D01*
X107934250Y-124079000D01*
X104855750Y-124079000D01*
X104835750Y-124099000D01*
X104759000Y-124099000D01*
X104759000Y-124079000D01*
X104739000Y-124079000D01*
X104739000Y-123825000D01*
X104759000Y-123825000D01*
X104759000Y-123805000D01*
X104835750Y-123805000D01*
X104855750Y-123825000D01*
X107934250Y-123825000D01*
X108093000Y-123666250D01*
X108093000Y-122575690D01*
X107996327Y-122342301D01*
X107817698Y-122163673D01*
X107584309Y-122067000D01*
X107243750Y-122067000D01*
X107085000Y-122225750D01*
X107085000Y-122377000D01*
X106831000Y-122377000D01*
X106831000Y-122225750D01*
X106744326Y-122139076D01*
X106798431Y-122059890D01*
X106801041Y-122047000D01*
X110016554Y-122047000D01*
X110024114Y-122054560D01*
G36*
X102954560Y-121808000D02*
X102998838Y-122043317D01*
X103066000Y-122147689D01*
X102933687Y-122466332D01*
X102933501Y-122679560D01*
X102489000Y-122679560D01*
X102489000Y-121377446D01*
X102954560Y-120911886D01*
X102954560Y-121808000D01*
X102954560Y-121808000D01*
G37*
X102954560Y-121808000D02*
X102998838Y-122043317D01*
X103066000Y-122147689D01*
X102933687Y-122466332D01*
X102933501Y-122679560D01*
X102489000Y-122679560D01*
X102489000Y-121377446D01*
X102954560Y-120911886D01*
X102954560Y-121808000D01*
G36*
X145923000Y-119749000D02*
X145943000Y-119749000D01*
X145943000Y-120003000D01*
X145923000Y-120003000D01*
X145923000Y-120023000D01*
X145669000Y-120023000D01*
X145669000Y-120003000D01*
X145649000Y-120003000D01*
X145649000Y-119749000D01*
X145669000Y-119749000D01*
X145669000Y-119729000D01*
X145923000Y-119729000D01*
X145923000Y-119749000D01*
X145923000Y-119749000D01*
G37*
X145923000Y-119749000D02*
X145943000Y-119749000D01*
X145943000Y-120003000D01*
X145923000Y-120003000D01*
X145923000Y-120023000D01*
X145669000Y-120023000D01*
X145669000Y-120003000D01*
X145649000Y-120003000D01*
X145649000Y-119749000D01*
X145669000Y-119749000D01*
X145669000Y-119729000D01*
X145923000Y-119729000D01*
X145923000Y-119749000D01*
G36*
X101256197Y-109055803D02*
X101298211Y-109083666D01*
X101338291Y-109091494D01*
X101341455Y-109098106D01*
X102096031Y-109391405D01*
X102905409Y-109373614D01*
X103570545Y-109098106D01*
X103572988Y-109093000D01*
X104772575Y-109093000D01*
X104495378Y-109369714D01*
X104330687Y-109766332D01*
X104330313Y-110195784D01*
X104462861Y-110516574D01*
X104112756Y-110371197D01*
X103661225Y-110370803D01*
X103243914Y-110543233D01*
X102924355Y-110862235D01*
X102751197Y-111279244D01*
X102751001Y-111503560D01*
X102386000Y-111503560D01*
X102150683Y-111547838D01*
X101934559Y-111686910D01*
X101789569Y-111899110D01*
X101738560Y-112151000D01*
X101738560Y-113401000D01*
X101743000Y-113424597D01*
X101743000Y-113546452D01*
X101735197Y-113565244D01*
X101735034Y-113751609D01*
X101727000Y-113792000D01*
X101734964Y-113832039D01*
X101734803Y-114016775D01*
X101805972Y-114189016D01*
X101814006Y-114229407D01*
X101836686Y-114263350D01*
X101907233Y-114434086D01*
X102038896Y-114565978D01*
X102061777Y-114600223D01*
X102095723Y-114622905D01*
X102226235Y-114753645D01*
X102398350Y-114825114D01*
X102432593Y-114847994D01*
X102472631Y-114855958D01*
X102643244Y-114926803D01*
X102829609Y-114926966D01*
X102861823Y-114933373D01*
X102801004Y-115024395D01*
X102743000Y-115316000D01*
X102743000Y-117091560D01*
X102386000Y-117091560D01*
X102150683Y-117135838D01*
X101934559Y-117274910D01*
X101789569Y-117487110D01*
X101738560Y-117739000D01*
X101738560Y-118894994D01*
X100761000Y-119872554D01*
X100761000Y-108560606D01*
X101256197Y-109055803D01*
X101256197Y-109055803D01*
G37*
X101256197Y-109055803D02*
X101298211Y-109083666D01*
X101338291Y-109091494D01*
X101341455Y-109098106D01*
X102096031Y-109391405D01*
X102905409Y-109373614D01*
X103570545Y-109098106D01*
X103572988Y-109093000D01*
X104772575Y-109093000D01*
X104495378Y-109369714D01*
X104330687Y-109766332D01*
X104330313Y-110195784D01*
X104462861Y-110516574D01*
X104112756Y-110371197D01*
X103661225Y-110370803D01*
X103243914Y-110543233D01*
X102924355Y-110862235D01*
X102751197Y-111279244D01*
X102751001Y-111503560D01*
X102386000Y-111503560D01*
X102150683Y-111547838D01*
X101934559Y-111686910D01*
X101789569Y-111899110D01*
X101738560Y-112151000D01*
X101738560Y-113401000D01*
X101743000Y-113424597D01*
X101743000Y-113546452D01*
X101735197Y-113565244D01*
X101735034Y-113751609D01*
X101727000Y-113792000D01*
X101734964Y-113832039D01*
X101734803Y-114016775D01*
X101805972Y-114189016D01*
X101814006Y-114229407D01*
X101836686Y-114263350D01*
X101907233Y-114434086D01*
X102038896Y-114565978D01*
X102061777Y-114600223D01*
X102095723Y-114622905D01*
X102226235Y-114753645D01*
X102398350Y-114825114D01*
X102432593Y-114847994D01*
X102472631Y-114855958D01*
X102643244Y-114926803D01*
X102829609Y-114926966D01*
X102861823Y-114933373D01*
X102801004Y-115024395D01*
X102743000Y-115316000D01*
X102743000Y-117091560D01*
X102386000Y-117091560D01*
X102150683Y-117135838D01*
X101934559Y-117274910D01*
X101789569Y-117487110D01*
X101738560Y-117739000D01*
X101738560Y-118894994D01*
X100761000Y-119872554D01*
X100761000Y-108560606D01*
X101256197Y-109055803D01*
G36*
X108331000Y-115201000D02*
X108351000Y-115201000D01*
X108351000Y-115455000D01*
X108331000Y-115455000D01*
X108331000Y-115475000D01*
X108077000Y-115475000D01*
X108077000Y-115455000D01*
X108057000Y-115455000D01*
X108057000Y-115201000D01*
X108077000Y-115201000D01*
X108077000Y-115181000D01*
X108331000Y-115181000D01*
X108331000Y-115201000D01*
X108331000Y-115201000D01*
G37*
X108331000Y-115201000D02*
X108351000Y-115201000D01*
X108351000Y-115455000D01*
X108331000Y-115455000D01*
X108331000Y-115475000D01*
X108077000Y-115475000D01*
X108077000Y-115455000D01*
X108057000Y-115455000D01*
X108057000Y-115201000D01*
X108077000Y-115201000D01*
X108077000Y-115181000D01*
X108331000Y-115181000D01*
X108331000Y-115201000D01*
G36*
X104855750Y-112649000D02*
X105033000Y-112649000D01*
X105033000Y-112903000D01*
X104855750Y-112903000D01*
X104835750Y-112923000D01*
X104759000Y-112923000D01*
X104759000Y-112903000D01*
X104739000Y-112903000D01*
X104739000Y-112649000D01*
X104759000Y-112649000D01*
X104759000Y-112629000D01*
X104835750Y-112629000D01*
X104855750Y-112649000D01*
X104855750Y-112649000D01*
G37*
X104855750Y-112649000D02*
X105033000Y-112649000D01*
X105033000Y-112903000D01*
X104855750Y-112903000D01*
X104835750Y-112923000D01*
X104759000Y-112923000D01*
X104759000Y-112903000D01*
X104739000Y-112903000D01*
X104739000Y-112649000D01*
X104759000Y-112649000D01*
X104759000Y-112629000D01*
X104835750Y-112629000D01*
X104855750Y-112649000D01*
G36*
X139821894Y-100833455D02*
X139528595Y-101588031D01*
X139546386Y-102397409D01*
X139821894Y-103062545D01*
X139827000Y-103064988D01*
X139827000Y-106231012D01*
X139821894Y-106233455D01*
X139528595Y-106988031D01*
X139532868Y-107182422D01*
X136525000Y-104174554D01*
X136525000Y-103064988D01*
X136530106Y-103062545D01*
X136823405Y-102307969D01*
X136805614Y-101498591D01*
X136530106Y-100833455D01*
X136378697Y-100761000D01*
X139973303Y-100761000D01*
X139821894Y-100833455D01*
X139821894Y-100833455D01*
G37*
X139821894Y-100833455D02*
X139528595Y-101588031D01*
X139546386Y-102397409D01*
X139821894Y-103062545D01*
X139827000Y-103064988D01*
X139827000Y-106231012D01*
X139821894Y-106233455D01*
X139528595Y-106988031D01*
X139532868Y-107182422D01*
X136525000Y-104174554D01*
X136525000Y-103064988D01*
X136530106Y-103062545D01*
X136823405Y-102307969D01*
X136805614Y-101498591D01*
X136530106Y-100833455D01*
X136378697Y-100761000D01*
X139973303Y-100761000D01*
X139821894Y-100833455D01*
M02*
