G04 #@! TF.FileFunction,Soldermask,Top*
%FSLAX46Y46*%
G04 Gerber Fmt 4.6, Leading zero omitted, Abs format (unit mm)*
G04 Created by KiCad (PCBNEW 4.0.0-2.201512091501+6195~38~ubuntu14.04.1-stable) date Wed 16 Dec 2015 17:24:57 GMT*
%MOMM*%
G01*
G04 APERTURE LIST*
%ADD10C,0.100000*%
%ADD11R,1.500000X3.500000*%
%ADD12R,1.250000X1.000000*%
%ADD13R,0.700000X1.300000*%
%ADD14R,1.300000X0.700000*%
%ADD15R,0.250000X1.300000*%
%ADD16R,1.300000X0.250000*%
%ADD17R,1.450000X0.450000*%
%ADD18R,1.550000X0.600000*%
%ADD19R,0.650000X1.060000*%
%ADD20R,0.600000X1.500000*%
%ADD21R,0.800000X0.750000*%
%ADD22R,0.750000X0.800000*%
%ADD23R,2.230000X1.800000*%
%ADD24R,1.800000X2.230000*%
%ADD25R,2.032000X2.032000*%
%ADD26O,2.032000X2.032000*%
%ADD27R,1.727200X1.727200*%
%ADD28O,1.727200X1.727200*%
%ADD29O,2.500000X1.500000*%
%ADD30C,1.998980*%
%ADD31R,1.170000X0.406400*%
%ADD32R,1.680000X1.880000*%
G04 APERTURE END LIST*
D10*
D11*
X130683000Y-140248000D03*
X131953000Y-145248000D03*
X133223000Y-140248000D03*
X134493000Y-145248000D03*
X135763000Y-140248000D03*
X137033000Y-145248000D03*
X138303000Y-140248000D03*
X139573000Y-145248000D03*
D12*
X142748000Y-140224000D03*
X142748000Y-142224000D03*
D13*
X135702000Y-129921000D03*
X137602000Y-129921000D03*
D14*
X127000000Y-126431000D03*
X127000000Y-128331000D03*
X133858000Y-130241000D03*
X133858000Y-132141000D03*
D13*
X135702000Y-131699000D03*
X137602000Y-131699000D03*
X105852000Y-121158000D03*
X103952000Y-121158000D03*
X105852000Y-115570000D03*
X103952000Y-115570000D03*
D14*
X111506000Y-124902000D03*
X111506000Y-123002000D03*
D13*
X110170000Y-121158000D03*
X108270000Y-121158000D03*
D14*
X111506000Y-130490000D03*
X111506000Y-128590000D03*
D13*
X110170000Y-126746000D03*
X108270000Y-126746000D03*
D14*
X111506000Y-119314000D03*
X111506000Y-117414000D03*
D13*
X110170000Y-115570000D03*
X108270000Y-115570000D03*
X105852000Y-109982000D03*
X103952000Y-109982000D03*
D14*
X111506000Y-113726000D03*
X111506000Y-111826000D03*
D13*
X110170000Y-109982000D03*
X108270000Y-109982000D03*
D14*
X111506000Y-136078000D03*
X111506000Y-134178000D03*
D13*
X110170000Y-132334000D03*
X108270000Y-132334000D03*
D15*
X129330000Y-126905000D03*
X129830000Y-126905000D03*
X130330000Y-126905000D03*
X130830000Y-126905000D03*
X131330000Y-126905000D03*
X131830000Y-126905000D03*
X132330000Y-126905000D03*
X132830000Y-126905000D03*
X133330000Y-126905000D03*
X133830000Y-126905000D03*
X134330000Y-126905000D03*
X134830000Y-126905000D03*
D16*
X136430000Y-125305000D03*
X136430000Y-124805000D03*
X136430000Y-124305000D03*
X136430000Y-123805000D03*
X136430000Y-123305000D03*
X136430000Y-122805000D03*
X136430000Y-122305000D03*
X136430000Y-121805000D03*
X136430000Y-121305000D03*
X136430000Y-120805000D03*
X136430000Y-120305000D03*
X136430000Y-119805000D03*
D15*
X134830000Y-118205000D03*
X134330000Y-118205000D03*
X133830000Y-118205000D03*
X133330000Y-118205000D03*
X132830000Y-118205000D03*
X132330000Y-118205000D03*
X131830000Y-118205000D03*
X131330000Y-118205000D03*
X130830000Y-118205000D03*
X130330000Y-118205000D03*
X129830000Y-118205000D03*
X129330000Y-118205000D03*
D16*
X127730000Y-119805000D03*
X127730000Y-120305000D03*
X127730000Y-120805000D03*
X127730000Y-121305000D03*
X127730000Y-121805000D03*
X127730000Y-122305000D03*
X127730000Y-122805000D03*
X127730000Y-123305000D03*
X127730000Y-123805000D03*
X127730000Y-124305000D03*
X127730000Y-124805000D03*
X127730000Y-125305000D03*
D17*
X141056000Y-125136000D03*
X141056000Y-125786000D03*
X141056000Y-126436000D03*
X141056000Y-127086000D03*
X145456000Y-127086000D03*
X145456000Y-126436000D03*
X145456000Y-125786000D03*
X145456000Y-125136000D03*
X141056000Y-118278000D03*
X141056000Y-118928000D03*
X141056000Y-119578000D03*
X141056000Y-120228000D03*
X145456000Y-120228000D03*
X145456000Y-119578000D03*
X145456000Y-118928000D03*
X145456000Y-118278000D03*
D18*
X124366000Y-130302000D03*
X124366000Y-129032000D03*
X124366000Y-127762000D03*
X124366000Y-126492000D03*
X118966000Y-126492000D03*
X118966000Y-127762000D03*
X118966000Y-129032000D03*
X118966000Y-130302000D03*
X123985000Y-121920000D03*
X123985000Y-120650000D03*
X123985000Y-119380000D03*
X123985000Y-118110000D03*
X118585000Y-118110000D03*
X118585000Y-119380000D03*
X118585000Y-120650000D03*
X118585000Y-121920000D03*
D19*
X114742000Y-144188000D03*
X113792000Y-144188000D03*
X112842000Y-144188000D03*
X112842000Y-146388000D03*
X114742000Y-146388000D03*
D20*
X116967000Y-146464000D03*
X118237000Y-146464000D03*
X119507000Y-146464000D03*
X120777000Y-146464000D03*
X122047000Y-146464000D03*
X123317000Y-146464000D03*
X124587000Y-146464000D03*
X125857000Y-146464000D03*
X125857000Y-141064000D03*
X124587000Y-141064000D03*
X123317000Y-141064000D03*
X122047000Y-141064000D03*
X120777000Y-141064000D03*
X119507000Y-141064000D03*
X118237000Y-141064000D03*
X116967000Y-141064000D03*
D21*
X129094800Y-116840000D03*
X130594800Y-116840000D03*
X135116000Y-116840000D03*
X133616000Y-116840000D03*
D22*
X138430000Y-126631000D03*
X138430000Y-128131000D03*
X136906000Y-126631000D03*
X136906000Y-128131000D03*
D21*
X142990000Y-128651000D03*
X141490000Y-128651000D03*
X142990000Y-121793000D03*
X141490000Y-121793000D03*
X120281000Y-124841000D03*
X121781000Y-124841000D03*
X120535000Y-116332000D03*
X122035000Y-116332000D03*
D23*
X141732000Y-112205000D03*
X141732000Y-115125000D03*
D24*
X120841000Y-112522000D03*
X123761000Y-112522000D03*
D21*
X134100000Y-111760000D03*
X132600000Y-111760000D03*
X128639000Y-115062000D03*
X127139000Y-115062000D03*
D22*
X102616000Y-123686000D03*
X102616000Y-122186000D03*
X102616000Y-129274000D03*
X102616000Y-127774000D03*
X102616000Y-118098000D03*
X102616000Y-116598000D03*
X109982000Y-124702000D03*
X109982000Y-123202000D03*
X109982000Y-130290000D03*
X109982000Y-128790000D03*
X109982000Y-119114000D03*
X109982000Y-117614000D03*
X102616000Y-112510000D03*
X102616000Y-111010000D03*
X102616000Y-134862000D03*
X102616000Y-133362000D03*
X109982000Y-113526000D03*
X109982000Y-112026000D03*
X109982000Y-135878000D03*
X109982000Y-134378000D03*
D21*
X124472000Y-138684000D03*
X125972000Y-138684000D03*
D10*
G36*
X126742000Y-117264000D02*
X127642000Y-117864000D01*
X127642000Y-118864000D01*
X126742000Y-119464000D01*
X126742000Y-117264000D01*
X126742000Y-117264000D01*
G37*
G36*
X126242000Y-119464000D02*
X125342000Y-118864000D01*
X125342000Y-117864000D01*
X126242000Y-117264000D01*
X126242000Y-119464000D01*
X126242000Y-119464000D01*
G37*
G36*
X124630000Y-123829000D02*
X125230000Y-122929000D01*
X126230000Y-122929000D01*
X126830000Y-123829000D01*
X124630000Y-123829000D01*
X124630000Y-123829000D01*
G37*
G36*
X126830000Y-124329000D02*
X126230000Y-125229000D01*
X125230000Y-125229000D01*
X124630000Y-124329000D01*
X126830000Y-124329000D01*
X126830000Y-124329000D01*
G37*
G36*
X139784000Y-120392000D02*
X139184000Y-121292000D01*
X138184000Y-121292000D01*
X137584000Y-120392000D01*
X139784000Y-120392000D01*
X139784000Y-120392000D01*
G37*
G36*
X137584000Y-119892000D02*
X138184000Y-118992000D01*
X139184000Y-118992000D01*
X139784000Y-119892000D01*
X137584000Y-119892000D01*
X137584000Y-119892000D01*
G37*
G36*
X137584000Y-123702000D02*
X138184000Y-122802000D01*
X139184000Y-122802000D01*
X139784000Y-123702000D01*
X137584000Y-123702000D01*
X137584000Y-123702000D01*
G37*
G36*
X139784000Y-124202000D02*
X139184000Y-125102000D01*
X138184000Y-125102000D01*
X137584000Y-124202000D01*
X139784000Y-124202000D01*
X139784000Y-124202000D01*
G37*
D17*
X125689000Y-111547000D03*
X125689000Y-112197000D03*
X125689000Y-112847000D03*
X125689000Y-113497000D03*
X130089000Y-113497000D03*
X130089000Y-112847000D03*
X130089000Y-112197000D03*
X130089000Y-111547000D03*
X138852000Y-114894000D03*
X138852000Y-114244000D03*
X138852000Y-113594000D03*
X138852000Y-112944000D03*
X134452000Y-112944000D03*
X134452000Y-113594000D03*
X134452000Y-114244000D03*
X134452000Y-114894000D03*
D25*
X145288000Y-147828000D03*
D26*
X147828000Y-147828000D03*
D25*
X145288000Y-145288000D03*
D26*
X147828000Y-145288000D03*
D27*
X103886000Y-140208000D03*
D28*
X106426000Y-140208000D03*
X103886000Y-142748000D03*
X106426000Y-142748000D03*
X103886000Y-145288000D03*
X106426000Y-145288000D03*
X103886000Y-147828000D03*
X106426000Y-147828000D03*
D29*
X121742000Y-133416000D03*
X143942000Y-109916000D03*
D30*
X144272000Y-104648000D03*
X146972020Y-101947980D03*
X141571980Y-101947980D03*
X141571980Y-107348020D03*
X146972020Y-107348020D03*
X117348000Y-104648000D03*
X120048020Y-101947980D03*
X114647980Y-101947980D03*
X114647980Y-107348020D03*
X120048020Y-107348020D03*
X105156000Y-104648000D03*
X107856020Y-101947980D03*
X102455980Y-101947980D03*
X102455980Y-107348020D03*
X107856020Y-107348020D03*
X132080000Y-104648000D03*
X134780020Y-101947980D03*
X129379980Y-101947980D03*
X129379980Y-107348020D03*
X134780020Y-107348020D03*
D29*
X143942000Y-133416000D03*
X121742000Y-109916000D03*
D22*
X111252000Y-146038000D03*
X111252000Y-144538000D03*
D21*
X116598000Y-148336000D03*
X118098000Y-148336000D03*
D31*
X108344500Y-136105900D03*
X108344500Y-135458200D03*
X108344500Y-134797800D03*
X108344500Y-134150100D03*
X103999500Y-134150100D03*
X103999500Y-134797800D03*
X103999500Y-135458200D03*
X103999500Y-136105900D03*
D32*
X106172000Y-135128000D03*
D31*
X108344500Y-113753900D03*
X108344500Y-113106200D03*
X108344500Y-112445800D03*
X108344500Y-111798100D03*
X103999500Y-111798100D03*
X103999500Y-112445800D03*
X103999500Y-113106200D03*
X103999500Y-113753900D03*
D32*
X106172000Y-112776000D03*
D31*
X108344500Y-119341900D03*
X108344500Y-118694200D03*
X108344500Y-118033800D03*
X108344500Y-117386100D03*
X103999500Y-117386100D03*
X103999500Y-118033800D03*
X103999500Y-118694200D03*
X103999500Y-119341900D03*
D32*
X106172000Y-118364000D03*
D31*
X108344500Y-130517900D03*
X108344500Y-129870200D03*
X108344500Y-129209800D03*
X108344500Y-128562100D03*
X103999500Y-128562100D03*
X103999500Y-129209800D03*
X103999500Y-129870200D03*
X103999500Y-130517900D03*
D32*
X106172000Y-129540000D03*
D31*
X108344500Y-124929900D03*
X108344500Y-124282200D03*
X108344500Y-123621800D03*
X108344500Y-122974100D03*
X103999500Y-122974100D03*
X103999500Y-123621800D03*
X103999500Y-124282200D03*
X103999500Y-124929900D03*
D32*
X106172000Y-123952000D03*
D14*
X118491000Y-123256000D03*
X118491000Y-125156000D03*
X118491000Y-114620000D03*
X118491000Y-116520000D03*
M02*
