M48
METRIC,TZ
T1C0.500
T2C0.635
T3C0.700
T4C1.016
T5C1.400
T6C1.500
T7C1.600
%
G90
G05
T1
X101358Y-110236
X101358Y-111760
X102858Y-110236
X102858Y-111760
X102870Y-114808
X105090Y-125222
X105090Y-126546
X105156Y-133858
X105410Y-117856
X106946Y-118872
X106946Y-120396
X108204Y-153924
X108446Y-118872
X108446Y-120396
X108966Y-146812
X109232Y-153924
X110490Y-118618
X110678Y-125222
X110678Y-126546
X110744Y-133858
X111252Y-119634
X111760Y-118618
X113538Y-117348
X113550Y-110236
X113550Y-111760
X115050Y-110236
X115050Y-111760
X115062Y-114808
X116586Y-156972
X116586Y-160528
X117602Y-117856
X119126Y-124206
X119126Y-125222
X119138Y-118872
X119138Y-120396
X119634Y-160020
X120638Y-118872
X120638Y-120396
X120650Y-154686
X120904Y-143002
X120904Y-144780
X121920Y-144780
X122670Y-126214
X122682Y-125222
X122682Y-161290
X123190Y-129794
X123190Y-157988
X124206Y-132588
X124460Y-129794
X125222Y-134112
X125603Y-136779
X125857Y-128651
X125972Y-130048
X126416Y-131064
X127000Y-161036
X127254Y-126492
X127508Y-134874
X128016Y-139954
X128270Y-161036
X128524Y-118618
X128524Y-134874
X128536Y-109982
X128536Y-111506
X128778Y-126492
X129286Y-139954
X129540Y-154686
X129667Y-131064
X129794Y-146050
X130036Y-109982
X130036Y-111506
X130060Y-130048
X130175Y-128651
X130429Y-136779
X130556Y-116332
X130810Y-134112
X131064Y-114808
X131560Y-130048
X131826Y-132588
X131826Y-142494
X131826Y-144526
X132334Y-140970
X132842Y-130060
X133108Y-125246
X133108Y-126238
X133350Y-113804
X133350Y-115304
X133362Y-116840
X133362Y-118364
X134862Y-116840
X134862Y-118364
X136398Y-127127
X136906Y-128016
X136906Y-153416
X137160Y-116840
X137160Y-119888
X137922Y-117856
X138430Y-116840
X138430Y-119888
X139446Y-153416
X140716Y-118110
X140728Y-109982
X140728Y-111506
X141986Y-154940
X142228Y-109982
X142228Y-111506
X142494Y-138176
X142748Y-116332
X143256Y-114808
X145542Y-113804
X145542Y-115304
X145554Y-116840
X145554Y-118364
X146050Y-140970
X147054Y-116840
X147054Y-118364
X148336Y-131064
X148524Y-122174
X148524Y-123498
X148524Y-133350
X148524Y-134674
X148590Y-141986
T2
X109662Y-159512
X110998Y-160782
T3
X115824Y-143764
X115824Y-145034
X130302Y-161036
X134493Y-153456
X143002Y-161036
T4
X103886Y-140208
X103886Y-142748
X103886Y-145288
X103886Y-147828
X106426Y-140208
X106426Y-142748
X106426Y-145288
X106426Y-147828
X145288Y-145288
X145288Y-147828
X147828Y-145288
X147828Y-147828
T5
X104140Y-130556
X109728Y-130556
X109982Y-150114
X147574Y-127508
X147574Y-138684
T6
X105156Y-104648
X117348Y-104648
X132080Y-104648
X144272Y-104648
T7
X102456Y-101948
X102456Y-107348
X107856Y-101948
X107856Y-107348
X114648Y-101948
X114648Y-107348
X120048Y-101948
X120048Y-107348
X129380Y-101948
X129380Y-107348
X134780Y-101948
X134780Y-107348
X141572Y-101948
X141572Y-107348
X146972Y-101948
X146972Y-107348
T3
X114554Y-129074G85X114554Y-128074
G05
X121454Y-122174G85X120454Y-122174
G05
X134054Y-147574G85X133054Y-147574
G05
X139954Y-141674G85X139954Y-140674
G05
T0
M30
