M48
METRIC,TZ
T1C0.500
T2C0.635
T3C0.700
T4C1.001
T5C1.016
T6C1.400
%
G90
G05
T1
X102616Y-110236
X102616Y-122186
X102870Y-113792
X102870Y-119380
X102870Y-124968
X102870Y-130556
X102870Y-136144
X103886Y-111506
X108204Y-109220
X109474Y-113792
X109474Y-119380
X109474Y-130556
X109474Y-136144
X111252Y-148590
X111506Y-138176
X111760Y-104140
X112268Y-143764
X112776Y-147320
X116713Y-140208
X118872Y-148082
X119380Y-144780
X119888Y-129032
X120015Y-120523
X122555Y-118237
X122555Y-126619
X123190Y-147828
X123698Y-112268
X124460Y-138684
X124460Y-147828
X125857Y-121666
X125984Y-141478
X126492Y-139700
X127000Y-128331
X127127Y-113792
X127508Y-116586
X128016Y-126365
X128651Y-113157
X130048Y-122174
X130175Y-120269
X130480Y-116586
X132334Y-125603
X132842Y-113538
X133096Y-140208
X133731Y-116586
X133985Y-120269
X134366Y-122174
X135255Y-125603
X135636Y-140208
X135890Y-129921
X137414Y-112903
X137668Y-128131
X138176Y-122047
X140970Y-121031
X140970Y-127889
X142240Y-115062
X144006Y-119761
X144018Y-126619
X144145Y-122936
X144526Y-130556
X146812Y-128270
T2
X102616Y-116598
X103886Y-122682
X104267Y-116840
X109474Y-124968
X142494Y-118491
X142494Y-125349
X146812Y-118745
X146812Y-125603
T3
X115824Y-146812
X126492Y-147828
X130683Y-140248
X138303Y-140248
X139192Y-147828
T4
X102456Y-101948
X102456Y-107348
X105156Y-104648
X107856Y-101948
X107856Y-107348
X114648Y-101948
X114648Y-107348
X117348Y-104648
X120048Y-101948
X120048Y-107348
X129380Y-101948
X129380Y-107348
X132080Y-104648
X134780Y-101948
X134780Y-107348
X141572Y-101948
X141572Y-107348
X144272Y-104648
X146972Y-101948
X146972Y-107348
T5
X103886Y-140208
X103886Y-142748
X103886Y-145288
X103886Y-147828
X106426Y-140208
X106426Y-142748
X106426Y-145288
X106426Y-147828
X145288Y-145288
X145288Y-147828
X147828Y-145288
X147828Y-147828
T6
X106172Y-112776
X106172Y-118364
X106172Y-123952
X106172Y-129540
X106172Y-135128
T3
X121242Y-109916G85X122242Y-109916
G05
X121242Y-133416G85X122242Y-133416
G05
X143442Y-109916G85X144442Y-109916
G05
X143442Y-133416G85X144442Y-133416
G05
T0
M30
