G04 #@! TF.FileFunction,Copper,L2,Inr,Signal*
%FSLAX46Y46*%
G04 Gerber Fmt 4.6, Leading zero omitted, Abs format (unit mm)*
G04 Created by KiCad (PCBNEW 4.0.0-2.201512091501+6195~38~ubuntu14.04.1-stable) date Wed 16 Dec 2015 17:24:57 GMT*
%MOMM*%
G01*
G04 APERTURE LIST*
%ADD10C,0.100000*%
%ADD11R,2.032000X2.032000*%
%ADD12O,2.032000X2.032000*%
%ADD13R,1.727200X1.727200*%
%ADD14O,1.727200X1.727200*%
%ADD15O,2.500000X1.500000*%
%ADD16C,1.998980*%
%ADD17R,1.680000X1.880000*%
%ADD18C,1.000000*%
%ADD19C,0.889000*%
%ADD20C,1.500000*%
%ADD21C,1.500000*%
%ADD22C,1.016000*%
%ADD23C,0.508000*%
%ADD24C,0.254000*%
G04 APERTURE END LIST*
D10*
D11*
X145288000Y-147828000D03*
D12*
X147828000Y-147828000D03*
D11*
X145288000Y-145288000D03*
D12*
X147828000Y-145288000D03*
D13*
X103886000Y-140208000D03*
D14*
X106426000Y-140208000D03*
X103886000Y-142748000D03*
X106426000Y-142748000D03*
X103886000Y-145288000D03*
X106426000Y-145288000D03*
X103886000Y-147828000D03*
X106426000Y-147828000D03*
D15*
X121742000Y-133416000D03*
X143942000Y-109916000D03*
D16*
X144272000Y-104648000D03*
X146972020Y-101947980D03*
X141571980Y-101947980D03*
X141571980Y-107348020D03*
X146972020Y-107348020D03*
X117348000Y-104648000D03*
X120048020Y-101947980D03*
X114647980Y-101947980D03*
X114647980Y-107348020D03*
X120048020Y-107348020D03*
X105156000Y-104648000D03*
X107856020Y-101947980D03*
X102455980Y-101947980D03*
X102455980Y-107348020D03*
X107856020Y-107348020D03*
X132080000Y-104648000D03*
X134780020Y-101947980D03*
X129379980Y-101947980D03*
X129379980Y-107348020D03*
X134780020Y-107348020D03*
D15*
X143942000Y-133416000D03*
X121742000Y-109916000D03*
D17*
X106172000Y-135128000D03*
X106172000Y-112776000D03*
X106172000Y-118364000D03*
X106172000Y-129540000D03*
X106172000Y-123952000D03*
D18*
X130175000Y-120269000D03*
D19*
X146812000Y-118745000D03*
X146812000Y-125603000D03*
X109474000Y-124968000D03*
D18*
X133985000Y-120269000D03*
X138176000Y-122047000D03*
X102616000Y-122186000D03*
D19*
X102616000Y-116598000D03*
D18*
X108204000Y-109220000D03*
X102616000Y-110236000D03*
X127508000Y-116586000D03*
X111760000Y-104140000D03*
X125857000Y-121666000D03*
X127127000Y-113792000D03*
X137414000Y-112903000D03*
X144145000Y-122936000D03*
X134366000Y-122174000D03*
X146812000Y-128270000D03*
X130048000Y-122174000D03*
X144526000Y-130556000D03*
X140970000Y-121031000D03*
X140970000Y-127889000D03*
X109474000Y-113792000D03*
X130479800Y-116586000D03*
X133731000Y-116586000D03*
X135255000Y-125603000D03*
X124460000Y-138684000D03*
X116713000Y-140208000D03*
X144018000Y-126619000D03*
D19*
X142494000Y-125349000D03*
D18*
X144006000Y-119761000D03*
D19*
X142494000Y-118491000D03*
D18*
X119888000Y-129032000D03*
X109474000Y-130556000D03*
X120015000Y-120523000D03*
X109474000Y-136144000D03*
X122555000Y-126619000D03*
X122555000Y-118237000D03*
X109474000Y-119380000D03*
X142240000Y-115062000D03*
X123698000Y-112268000D03*
X132842000Y-113538000D03*
X128651000Y-113157000D03*
X102870000Y-124968000D03*
X102870000Y-113792000D03*
D20*
X115824000Y-146812000D03*
X138303000Y-140248000D03*
D18*
X111252000Y-148590000D03*
X118872000Y-148082000D03*
D20*
X139192000Y-147828000D03*
X126492000Y-147828000D03*
X130683000Y-140248000D03*
D18*
X112268000Y-143764000D03*
X135890000Y-129921000D03*
X128016000Y-126365000D03*
X133096000Y-140208000D03*
X119380000Y-144780000D03*
X123190000Y-147828000D03*
X135636000Y-140208000D03*
X132334000Y-125603000D03*
D19*
X103886000Y-122682000D03*
X104267000Y-116840000D03*
D18*
X103886000Y-111506000D03*
X112776000Y-147320000D03*
X124460000Y-147828000D03*
X102870000Y-119380000D03*
X102870000Y-130556000D03*
X102870000Y-136144000D03*
X111506000Y-138176000D03*
X137668000Y-128131000D03*
X125984000Y-141478000D03*
X126492000Y-139700000D03*
X127000000Y-128331000D03*
D21*
X146812000Y-118745000D02*
X146812000Y-125603000D01*
X120904000Y-124460000D02*
X120396000Y-124968000D01*
D22*
X127762000Y-124968000D02*
X124206000Y-124968000D01*
X124206000Y-124968000D02*
X123444000Y-124206000D01*
X123444000Y-124206000D02*
X121158000Y-124206000D01*
X121158000Y-124206000D02*
X120904000Y-124460000D01*
D21*
X146812000Y-125603000D02*
X146812000Y-125984000D01*
X139192000Y-125730000D02*
X137287000Y-123825000D01*
X139192000Y-128524000D02*
X139192000Y-125730000D01*
X140462000Y-129794000D02*
X139192000Y-128524000D01*
X143002000Y-129794000D02*
X140462000Y-129794000D01*
X146812000Y-125984000D02*
X143002000Y-129794000D01*
D22*
X128016000Y-124714000D02*
X127762000Y-124968000D01*
D21*
X120396000Y-124968000D02*
X109474000Y-124968000D01*
X137287000Y-123825000D02*
X128905000Y-123825000D01*
X128016000Y-124714000D02*
X128905000Y-123825000D01*
X129667000Y-120269000D02*
X133985000Y-120269000D01*
X124333000Y-122428000D02*
X112014000Y-122428000D01*
X126619000Y-123317000D02*
X125222000Y-123317000D01*
X125222000Y-123317000D02*
X124333000Y-122428000D01*
X112014000Y-122428000D02*
X109474000Y-124968000D01*
X126619000Y-123317000D02*
X129667000Y-120269000D01*
X140970000Y-127889000D02*
X140970000Y-121031000D01*
X124714000Y-116713000D02*
X126111000Y-118110000D01*
X124714000Y-116713000D02*
X112395000Y-116713000D01*
X109474000Y-113792000D02*
X112395000Y-116713000D01*
X129921000Y-116586000D02*
X133731000Y-116586000D01*
X128397000Y-118110000D02*
X129921000Y-116586000D01*
X126111000Y-118110000D02*
X128397000Y-118110000D01*
X125222000Y-113792000D02*
X109474000Y-113792000D01*
X140970000Y-121031000D02*
X135001000Y-115062000D01*
D22*
X135001000Y-115062000D02*
X126492000Y-115062000D01*
X126492000Y-115062000D02*
X125222000Y-113792000D01*
D21*
X135255000Y-125603000D02*
X123634500Y-137223500D01*
X120650000Y-140208000D02*
X116713000Y-140208000D01*
X120650000Y-140208000D02*
X123634500Y-137223500D01*
D23*
X124015500Y-137223500D02*
X124460000Y-137668000D01*
X124460000Y-137668000D02*
X124460000Y-138684000D01*
X122999500Y-137223500D02*
X124015500Y-137223500D01*
D21*
X103886000Y-139700000D02*
X103886000Y-140208000D01*
X109728000Y-140208000D02*
X107823000Y-138303000D01*
X107823000Y-138303000D02*
X105283000Y-138303000D01*
X105283000Y-138303000D02*
X103886000Y-139700000D01*
X116713000Y-140208000D02*
X109728000Y-140208000D01*
X107950000Y-125730000D02*
X107950000Y-127000000D01*
D22*
X107950000Y-123952000D02*
X107950000Y-125730000D01*
D21*
X120015000Y-120523000D02*
X111379000Y-120523000D01*
X111379000Y-120523000D02*
X108204000Y-123698000D01*
D22*
X108204000Y-123698000D02*
X107950000Y-123952000D01*
D21*
X109474000Y-128524000D02*
X109474000Y-130556000D01*
X107950000Y-127000000D02*
X109474000Y-128524000D01*
X114998500Y-130619500D02*
X120967500Y-130619500D01*
X120967500Y-130619500D02*
X122555000Y-129032000D01*
X122555000Y-129032000D02*
X122555000Y-126619000D01*
X114998500Y-130619500D02*
X109474000Y-136144000D01*
X136525000Y-111379000D02*
X136398000Y-111506000D01*
X138430000Y-111379000D02*
X142240000Y-115062000D01*
X138430000Y-111379000D02*
X136525000Y-111379000D01*
X123698000Y-111506000D02*
X136398000Y-111506000D01*
D23*
X123698000Y-111506000D02*
X123698000Y-112268000D01*
D21*
X108712000Y-112014000D02*
X123190000Y-112014000D01*
X123190000Y-112014000D02*
X123698000Y-111506000D01*
X109474000Y-116332000D02*
X107950000Y-114808000D01*
D22*
X107950000Y-114808000D02*
X107950000Y-112776000D01*
X107950000Y-112776000D02*
X108458000Y-112268000D01*
D21*
X109474000Y-119380000D02*
X109474000Y-116332000D01*
X108458000Y-112268000D02*
X108712000Y-112014000D01*
D22*
X101346000Y-145288000D02*
X101346000Y-126492000D01*
X101346000Y-126492000D02*
X102870000Y-124968000D01*
X103886000Y-147828000D02*
X101346000Y-145288000D01*
X138303000Y-140248000D02*
X138303000Y-141097000D01*
X138303000Y-141097000D02*
X133096000Y-146304000D01*
X133096000Y-146304000D02*
X116332000Y-146304000D01*
X116332000Y-146304000D02*
X115824000Y-146812000D01*
D21*
X126492000Y-147828000D02*
X139192000Y-147828000D01*
D22*
X112776000Y-143256000D02*
X112268000Y-143764000D01*
X127675000Y-143256000D02*
X112776000Y-143256000D01*
X130683000Y-140248000D02*
X127675000Y-143256000D01*
D24*
G36*
X109855000Y-149175000D02*
X107085010Y-149175000D01*
X107515029Y-148887670D01*
X107839885Y-148401489D01*
X107953959Y-147828000D01*
X107839885Y-147254511D01*
X107515029Y-146768330D01*
X107191772Y-146552336D01*
X107314490Y-146494821D01*
X107708688Y-146062947D01*
X107880958Y-145647026D01*
X107759817Y-145415000D01*
X106553000Y-145415000D01*
X106553000Y-145435000D01*
X106299000Y-145435000D01*
X106299000Y-145415000D01*
X104013000Y-145415000D01*
X104013000Y-145435000D01*
X103759000Y-145435000D01*
X103759000Y-145415000D01*
X103739000Y-145415000D01*
X103739000Y-145161000D01*
X103759000Y-145161000D01*
X103759000Y-145141000D01*
X104013000Y-145141000D01*
X104013000Y-145161000D01*
X106299000Y-145161000D01*
X106299000Y-145141000D01*
X106553000Y-145141000D01*
X106553000Y-145161000D01*
X107759817Y-145161000D01*
X107880958Y-144928974D01*
X107766653Y-144653000D01*
X108204000Y-144653000D01*
X108253410Y-144642994D01*
X108295035Y-144614553D01*
X108322315Y-144572159D01*
X108331000Y-144526000D01*
X108331000Y-142875000D01*
X109855000Y-142875000D01*
X109855000Y-149175000D01*
X109855000Y-149175000D01*
G37*
X109855000Y-149175000D02*
X107085010Y-149175000D01*
X107515029Y-148887670D01*
X107839885Y-148401489D01*
X107953959Y-147828000D01*
X107839885Y-147254511D01*
X107515029Y-146768330D01*
X107191772Y-146552336D01*
X107314490Y-146494821D01*
X107708688Y-146062947D01*
X107880958Y-145647026D01*
X107759817Y-145415000D01*
X106553000Y-145415000D01*
X106553000Y-145435000D01*
X106299000Y-145435000D01*
X106299000Y-145415000D01*
X104013000Y-145415000D01*
X104013000Y-145435000D01*
X103759000Y-145435000D01*
X103759000Y-145415000D01*
X103739000Y-145415000D01*
X103739000Y-145161000D01*
X103759000Y-145161000D01*
X103759000Y-145141000D01*
X104013000Y-145141000D01*
X104013000Y-145161000D01*
X106299000Y-145161000D01*
X106299000Y-145141000D01*
X106553000Y-145141000D01*
X106553000Y-145161000D01*
X107759817Y-145161000D01*
X107880958Y-144928974D01*
X107766653Y-144653000D01*
X108204000Y-144653000D01*
X108253410Y-144642994D01*
X108295035Y-144614553D01*
X108322315Y-144572159D01*
X108331000Y-144526000D01*
X108331000Y-142875000D01*
X109855000Y-142875000D01*
X109855000Y-149175000D01*
G36*
X101483423Y-100795817D02*
X102455980Y-101768375D01*
X103428537Y-100795817D01*
X103415670Y-100761000D01*
X106896330Y-100761000D01*
X106883463Y-100795817D01*
X107856020Y-101768375D01*
X108828577Y-100795817D01*
X108815710Y-100761000D01*
X113688290Y-100761000D01*
X113675423Y-100795817D01*
X114647980Y-101768375D01*
X115620537Y-100795817D01*
X115607670Y-100761000D01*
X119088330Y-100761000D01*
X119075463Y-100795817D01*
X120048020Y-101768375D01*
X121020577Y-100795817D01*
X121007710Y-100761000D01*
X128420290Y-100761000D01*
X128407423Y-100795817D01*
X129379980Y-101768375D01*
X130352537Y-100795817D01*
X130339670Y-100761000D01*
X133820330Y-100761000D01*
X133807463Y-100795817D01*
X134780020Y-101768375D01*
X135752577Y-100795817D01*
X135739710Y-100761000D01*
X140612290Y-100761000D01*
X140599423Y-100795817D01*
X141571980Y-101768375D01*
X142544537Y-100795817D01*
X142531670Y-100761000D01*
X146012330Y-100761000D01*
X145999463Y-100795817D01*
X146972020Y-101768375D01*
X147944577Y-100795817D01*
X147931710Y-100761000D01*
X149175000Y-100761000D01*
X149175000Y-143637000D01*
X146365431Y-143637000D01*
X146304000Y-143624560D01*
X144399000Y-143624560D01*
X144399000Y-138938000D01*
X144388994Y-138888590D01*
X144361803Y-138848197D01*
X139573000Y-134059394D01*
X139573000Y-133757185D01*
X142099682Y-133757185D01*
X142113827Y-133828684D01*
X142372855Y-134305540D01*
X142794651Y-134646972D01*
X143315000Y-134801000D01*
X143815000Y-134801000D01*
X143815000Y-133543000D01*
X144069000Y-133543000D01*
X144069000Y-134801000D01*
X144569000Y-134801000D01*
X145089349Y-134646972D01*
X145511145Y-134305540D01*
X145770173Y-133828684D01*
X145784318Y-133757185D01*
X145661656Y-133543000D01*
X144069000Y-133543000D01*
X143815000Y-133543000D01*
X142222344Y-133543000D01*
X142099682Y-133757185D01*
X139573000Y-133757185D01*
X139573000Y-133074815D01*
X142099682Y-133074815D01*
X142222344Y-133289000D01*
X143815000Y-133289000D01*
X143815000Y-132031000D01*
X144069000Y-132031000D01*
X144069000Y-133289000D01*
X145661656Y-133289000D01*
X145784318Y-133074815D01*
X145770173Y-133003316D01*
X145511145Y-132526460D01*
X145089349Y-132185028D01*
X144569000Y-132031000D01*
X144069000Y-132031000D01*
X143815000Y-132031000D01*
X143315000Y-132031000D01*
X142794651Y-132185028D01*
X142372855Y-132526460D01*
X142113827Y-133003316D01*
X142099682Y-133074815D01*
X139573000Y-133074815D01*
X139573000Y-130833708D01*
X139931983Y-131073573D01*
X140462000Y-131179000D01*
X143002000Y-131179000D01*
X143532017Y-131073573D01*
X143981343Y-130773343D01*
X147791343Y-126963343D01*
X148091574Y-126514016D01*
X148197000Y-125984000D01*
X148197000Y-118745000D01*
X148091573Y-118214983D01*
X147791343Y-117765657D01*
X147342017Y-117465427D01*
X146812000Y-117360000D01*
X146281983Y-117465427D01*
X145832657Y-117765657D01*
X145532427Y-118214983D01*
X145427000Y-118745000D01*
X145427000Y-125410314D01*
X144920636Y-125916678D01*
X144661765Y-125657355D01*
X144244756Y-125484197D01*
X143793225Y-125483803D01*
X143568300Y-125576740D01*
X143573313Y-125564668D01*
X143573687Y-125135216D01*
X143409689Y-124738311D01*
X143106286Y-124434378D01*
X142709668Y-124269687D01*
X142355000Y-124269378D01*
X142355000Y-121031000D01*
X142328108Y-120895803D01*
X142249574Y-120500984D01*
X141949343Y-120051657D01*
X140602470Y-118704784D01*
X141414313Y-118704784D01*
X141578311Y-119101689D01*
X141881714Y-119405622D01*
X142278332Y-119570313D01*
X142707784Y-119570687D01*
X142886774Y-119496730D01*
X142871197Y-119534244D01*
X142870803Y-119985775D01*
X143043233Y-120403086D01*
X143362235Y-120722645D01*
X143779244Y-120895803D01*
X144230775Y-120896197D01*
X144648086Y-120723767D01*
X144967645Y-120404765D01*
X145140803Y-119987756D01*
X145141197Y-119536225D01*
X144968767Y-119118914D01*
X144649765Y-118799355D01*
X144232756Y-118626197D01*
X143781225Y-118625803D01*
X143570785Y-118712755D01*
X143573313Y-118706668D01*
X143573687Y-118277216D01*
X143409689Y-117880311D01*
X143106286Y-117576378D01*
X142709668Y-117411687D01*
X142280216Y-117411313D01*
X141883311Y-117575311D01*
X141579378Y-117878714D01*
X141414687Y-118275332D01*
X141414313Y-118704784D01*
X140602470Y-118704784D01*
X135980343Y-114082657D01*
X135531016Y-113782427D01*
X135001000Y-113677000D01*
X134470984Y-113782427D01*
X134266588Y-113919000D01*
X133912755Y-113919000D01*
X133976803Y-113764756D01*
X133977197Y-113313225D01*
X133804767Y-112895914D01*
X133799862Y-112891000D01*
X136398000Y-112891000D01*
X136928017Y-112785573D01*
X136960303Y-112764000D01*
X137870016Y-112764000D01*
X141277394Y-116057799D01*
X141731744Y-116350372D01*
X142263471Y-116446801D01*
X142791625Y-116332408D01*
X143235799Y-116024606D01*
X143528372Y-115570255D01*
X143624801Y-115038529D01*
X143510408Y-114510375D01*
X143202606Y-114066201D01*
X139392606Y-110383201D01*
X139196910Y-110257185D01*
X142099682Y-110257185D01*
X142113827Y-110328684D01*
X142372855Y-110805540D01*
X142794651Y-111146972D01*
X143315000Y-111301000D01*
X143815000Y-111301000D01*
X143815000Y-110043000D01*
X144069000Y-110043000D01*
X144069000Y-111301000D01*
X144569000Y-111301000D01*
X145089349Y-111146972D01*
X145511145Y-110805540D01*
X145770173Y-110328684D01*
X145784318Y-110257185D01*
X145661656Y-110043000D01*
X144069000Y-110043000D01*
X143815000Y-110043000D01*
X142222344Y-110043000D01*
X142099682Y-110257185D01*
X139196910Y-110257185D01*
X139175108Y-110243146D01*
X138960017Y-110099427D01*
X138948300Y-110097096D01*
X138938255Y-110090628D01*
X138683707Y-110044465D01*
X138430000Y-109994000D01*
X136525000Y-109994000D01*
X135994983Y-110099427D01*
X135962697Y-110121000D01*
X123698000Y-110121000D01*
X123525928Y-110155227D01*
X123461656Y-110043000D01*
X121869000Y-110043000D01*
X121869000Y-110063000D01*
X121615000Y-110063000D01*
X121615000Y-110043000D01*
X120022344Y-110043000D01*
X119899682Y-110257185D01*
X119913827Y-110328684D01*
X120076959Y-110629000D01*
X108712000Y-110629000D01*
X108181983Y-110734427D01*
X107732657Y-111034657D01*
X107478657Y-111288657D01*
X107432204Y-111358179D01*
X107371699Y-111297673D01*
X107138310Y-111201000D01*
X106457750Y-111201000D01*
X106299000Y-111359750D01*
X106299000Y-112649000D01*
X106319000Y-112649000D01*
X106319000Y-112903000D01*
X106299000Y-112903000D01*
X106299000Y-114192250D01*
X106457750Y-114351000D01*
X106655903Y-114351000D01*
X106565000Y-114808000D01*
X106670427Y-115338016D01*
X106970657Y-115787343D01*
X108089000Y-116905686D01*
X108089000Y-119380000D01*
X108194427Y-119910017D01*
X108494657Y-120359343D01*
X108943983Y-120659573D01*
X109227371Y-120715943D01*
X107420670Y-122522644D01*
X107371699Y-122473673D01*
X107138310Y-122377000D01*
X106457750Y-122377000D01*
X106299000Y-122535750D01*
X106299000Y-123825000D01*
X106319000Y-123825000D01*
X106319000Y-124079000D01*
X106299000Y-124079000D01*
X106299000Y-125368250D01*
X106457750Y-125527000D01*
X106605379Y-125527000D01*
X106565000Y-125730000D01*
X106565000Y-127000000D01*
X106670427Y-127530017D01*
X106921801Y-127906225D01*
X106961073Y-127965000D01*
X106457750Y-127965000D01*
X106299000Y-128123750D01*
X106299000Y-129413000D01*
X107488250Y-129413000D01*
X107647000Y-129254250D01*
X107647000Y-128655686D01*
X108089000Y-129097686D01*
X108089000Y-130556000D01*
X108194427Y-131086017D01*
X108494657Y-131535343D01*
X108943983Y-131835573D01*
X109474000Y-131941000D01*
X110004017Y-131835573D01*
X110453343Y-131535343D01*
X110753573Y-131086017D01*
X110859000Y-130556000D01*
X110859000Y-128524000D01*
X110753573Y-127993983D01*
X110453343Y-127544657D01*
X109335000Y-126426314D01*
X109335000Y-126325351D01*
X109474000Y-126353000D01*
X120396000Y-126353000D01*
X120926017Y-126247573D01*
X121365813Y-125953711D01*
X121275427Y-126088983D01*
X121170000Y-126619000D01*
X121170000Y-128458314D01*
X120964104Y-128664210D01*
X120850767Y-128389914D01*
X120531765Y-128070355D01*
X120114756Y-127897197D01*
X119663225Y-127896803D01*
X119245914Y-128069233D01*
X118926355Y-128388235D01*
X118753197Y-128805244D01*
X118752822Y-129234500D01*
X114998500Y-129234500D01*
X114468483Y-129339927D01*
X114136102Y-129562017D01*
X114019157Y-129640157D01*
X108494657Y-135164657D01*
X108194427Y-135613984D01*
X108089000Y-136144000D01*
X108194427Y-136674016D01*
X108434292Y-137033000D01*
X108367344Y-137033000D01*
X108353017Y-137023427D01*
X107823000Y-136918000D01*
X105283000Y-136918000D01*
X104752983Y-137023427D01*
X104738656Y-137033000D01*
X103585982Y-137033000D01*
X103831645Y-136787765D01*
X104004803Y-136370756D01*
X104005197Y-135919225D01*
X103832767Y-135501914D01*
X103744757Y-135413750D01*
X104697000Y-135413750D01*
X104697000Y-136194309D01*
X104793673Y-136427698D01*
X104972301Y-136606327D01*
X105205690Y-136703000D01*
X105886250Y-136703000D01*
X106045000Y-136544250D01*
X106045000Y-135255000D01*
X106299000Y-135255000D01*
X106299000Y-136544250D01*
X106457750Y-136703000D01*
X107138310Y-136703000D01*
X107371699Y-136606327D01*
X107550327Y-136427698D01*
X107647000Y-136194309D01*
X107647000Y-135413750D01*
X107488250Y-135255000D01*
X106299000Y-135255000D01*
X106045000Y-135255000D01*
X104855750Y-135255000D01*
X104697000Y-135413750D01*
X103744757Y-135413750D01*
X103513765Y-135182355D01*
X103096756Y-135009197D01*
X102645225Y-135008803D01*
X102489000Y-135073354D01*
X102489000Y-134061691D01*
X104697000Y-134061691D01*
X104697000Y-134842250D01*
X104855750Y-135001000D01*
X106045000Y-135001000D01*
X106045000Y-133711750D01*
X106299000Y-133711750D01*
X106299000Y-135001000D01*
X107488250Y-135001000D01*
X107647000Y-134842250D01*
X107647000Y-134061691D01*
X107550327Y-133828302D01*
X107371699Y-133649673D01*
X107138310Y-133553000D01*
X106457750Y-133553000D01*
X106299000Y-133711750D01*
X106045000Y-133711750D01*
X105886250Y-133553000D01*
X105205690Y-133553000D01*
X104972301Y-133649673D01*
X104793673Y-133828302D01*
X104697000Y-134061691D01*
X102489000Y-134061691D01*
X102489000Y-131626755D01*
X102643244Y-131690803D01*
X103094775Y-131691197D01*
X103512086Y-131518767D01*
X103831645Y-131199765D01*
X104004803Y-130782756D01*
X104005197Y-130331225D01*
X103832767Y-129913914D01*
X103744757Y-129825750D01*
X104697000Y-129825750D01*
X104697000Y-130606309D01*
X104793673Y-130839698D01*
X104972301Y-131018327D01*
X105205690Y-131115000D01*
X105886250Y-131115000D01*
X106045000Y-130956250D01*
X106045000Y-129667000D01*
X106299000Y-129667000D01*
X106299000Y-130956250D01*
X106457750Y-131115000D01*
X107138310Y-131115000D01*
X107371699Y-131018327D01*
X107550327Y-130839698D01*
X107647000Y-130606309D01*
X107647000Y-129825750D01*
X107488250Y-129667000D01*
X106299000Y-129667000D01*
X106045000Y-129667000D01*
X104855750Y-129667000D01*
X104697000Y-129825750D01*
X103744757Y-129825750D01*
X103513765Y-129594355D01*
X103096756Y-129421197D01*
X102645225Y-129420803D01*
X102489000Y-129485354D01*
X102489000Y-128473691D01*
X104697000Y-128473691D01*
X104697000Y-129254250D01*
X104855750Y-129413000D01*
X106045000Y-129413000D01*
X106045000Y-128123750D01*
X105886250Y-127965000D01*
X105205690Y-127965000D01*
X104972301Y-128061673D01*
X104793673Y-128240302D01*
X104697000Y-128473691D01*
X102489000Y-128473691D01*
X102489000Y-126965446D01*
X103678223Y-125776223D01*
X103700905Y-125742277D01*
X103831645Y-125611765D01*
X103903114Y-125439650D01*
X103925994Y-125405407D01*
X103933958Y-125365369D01*
X104004803Y-125194756D01*
X104004966Y-125008391D01*
X104013000Y-124968000D01*
X104005036Y-124927961D01*
X104005197Y-124743225D01*
X103934028Y-124570984D01*
X103925994Y-124530593D01*
X103903314Y-124496650D01*
X103832767Y-124325914D01*
X103744757Y-124237750D01*
X104697000Y-124237750D01*
X104697000Y-125018309D01*
X104793673Y-125251698D01*
X104972301Y-125430327D01*
X105205690Y-125527000D01*
X105886250Y-125527000D01*
X106045000Y-125368250D01*
X106045000Y-124079000D01*
X104855750Y-124079000D01*
X104697000Y-124237750D01*
X103744757Y-124237750D01*
X103701104Y-124194022D01*
X103678223Y-124159777D01*
X103644277Y-124137095D01*
X103513765Y-124006355D01*
X103341650Y-123934886D01*
X103307407Y-123912006D01*
X103267369Y-123904042D01*
X103096756Y-123833197D01*
X102910391Y-123833034D01*
X102870000Y-123825000D01*
X102829961Y-123832964D01*
X102645225Y-123832803D01*
X102472984Y-123903972D01*
X102432593Y-123912006D01*
X102398650Y-123934686D01*
X102227914Y-124005233D01*
X102096022Y-124136896D01*
X102061777Y-124159777D01*
X100761000Y-125460554D01*
X100761000Y-122895784D01*
X102806313Y-122895784D01*
X102970311Y-123292689D01*
X103273714Y-123596622D01*
X103670332Y-123761313D01*
X104099784Y-123761687D01*
X104496689Y-123597689D01*
X104697000Y-123397727D01*
X104697000Y-123666250D01*
X104855750Y-123825000D01*
X106045000Y-123825000D01*
X106045000Y-122535750D01*
X105886250Y-122377000D01*
X105205690Y-122377000D01*
X104972301Y-122473673D01*
X104965676Y-122480298D01*
X104965687Y-122468216D01*
X104801689Y-122071311D01*
X104498286Y-121767378D01*
X104101668Y-121602687D01*
X103672216Y-121602313D01*
X103275311Y-121766311D01*
X102971378Y-122069714D01*
X102806687Y-122466332D01*
X102806313Y-122895784D01*
X100761000Y-122895784D01*
X100761000Y-119604775D01*
X101734803Y-119604775D01*
X101907233Y-120022086D01*
X102226235Y-120341645D01*
X102643244Y-120514803D01*
X103094775Y-120515197D01*
X103512086Y-120342767D01*
X103831645Y-120023765D01*
X104004803Y-119606756D01*
X104005197Y-119155225D01*
X103832767Y-118737914D01*
X103744757Y-118649750D01*
X104697000Y-118649750D01*
X104697000Y-119430309D01*
X104793673Y-119663698D01*
X104972301Y-119842327D01*
X105205690Y-119939000D01*
X105886250Y-119939000D01*
X106045000Y-119780250D01*
X106045000Y-118491000D01*
X106299000Y-118491000D01*
X106299000Y-119780250D01*
X106457750Y-119939000D01*
X107138310Y-119939000D01*
X107371699Y-119842327D01*
X107550327Y-119663698D01*
X107647000Y-119430309D01*
X107647000Y-118649750D01*
X107488250Y-118491000D01*
X106299000Y-118491000D01*
X106045000Y-118491000D01*
X104855750Y-118491000D01*
X104697000Y-118649750D01*
X103744757Y-118649750D01*
X103513765Y-118418355D01*
X103096756Y-118245197D01*
X102645225Y-118244803D01*
X102227914Y-118417233D01*
X101908355Y-118736235D01*
X101735197Y-119153244D01*
X101734803Y-119604775D01*
X100761000Y-119604775D01*
X100761000Y-117053784D01*
X103187313Y-117053784D01*
X103351311Y-117450689D01*
X103654714Y-117754622D01*
X104051332Y-117919313D01*
X104480784Y-117919687D01*
X104697000Y-117830348D01*
X104697000Y-118078250D01*
X104855750Y-118237000D01*
X106045000Y-118237000D01*
X106045000Y-116947750D01*
X106299000Y-116947750D01*
X106299000Y-118237000D01*
X107488250Y-118237000D01*
X107647000Y-118078250D01*
X107647000Y-117297691D01*
X107550327Y-117064302D01*
X107371699Y-116885673D01*
X107138310Y-116789000D01*
X106457750Y-116789000D01*
X106299000Y-116947750D01*
X106045000Y-116947750D01*
X105886250Y-116789000D01*
X105346545Y-116789000D01*
X105346687Y-116626216D01*
X105182689Y-116229311D01*
X104879286Y-115925378D01*
X104482668Y-115760687D01*
X104053216Y-115760313D01*
X103656311Y-115924311D01*
X103352378Y-116227714D01*
X103187687Y-116624332D01*
X103187313Y-117053784D01*
X100761000Y-117053784D01*
X100761000Y-114016775D01*
X101734803Y-114016775D01*
X101907233Y-114434086D01*
X102226235Y-114753645D01*
X102643244Y-114926803D01*
X103094775Y-114927197D01*
X103512086Y-114754767D01*
X103831645Y-114435765D01*
X104004803Y-114018756D01*
X104005197Y-113567225D01*
X103832767Y-113149914D01*
X103744757Y-113061750D01*
X104697000Y-113061750D01*
X104697000Y-113842309D01*
X104793673Y-114075698D01*
X104972301Y-114254327D01*
X105205690Y-114351000D01*
X105886250Y-114351000D01*
X106045000Y-114192250D01*
X106045000Y-112903000D01*
X104855750Y-112903000D01*
X104697000Y-113061750D01*
X103744757Y-113061750D01*
X103513765Y-112830355D01*
X103096756Y-112657197D01*
X102645225Y-112656803D01*
X102227914Y-112829233D01*
X101908355Y-113148235D01*
X101735197Y-113565244D01*
X101734803Y-114016775D01*
X100761000Y-114016775D01*
X100761000Y-111730775D01*
X102750803Y-111730775D01*
X102923233Y-112148086D01*
X103242235Y-112467645D01*
X103659244Y-112640803D01*
X104110775Y-112641197D01*
X104528086Y-112468767D01*
X104697000Y-112300147D01*
X104697000Y-112490250D01*
X104855750Y-112649000D01*
X106045000Y-112649000D01*
X106045000Y-111359750D01*
X105886250Y-111201000D01*
X105205690Y-111201000D01*
X105019854Y-111277976D01*
X104848767Y-110863914D01*
X104529765Y-110544355D01*
X104112756Y-110371197D01*
X103661225Y-110370803D01*
X103243914Y-110543233D01*
X102924355Y-110862235D01*
X102751197Y-111279244D01*
X102750803Y-111730775D01*
X100761000Y-111730775D01*
X100761000Y-108500183D01*
X101483423Y-108500183D01*
X101582022Y-108766985D01*
X102191562Y-108993421D01*
X102841357Y-108969361D01*
X103329938Y-108766985D01*
X103428537Y-108500183D01*
X106883463Y-108500183D01*
X106982062Y-108766985D01*
X107591602Y-108993421D01*
X108241397Y-108969361D01*
X108729978Y-108766985D01*
X108828577Y-108500183D01*
X113675423Y-108500183D01*
X113774022Y-108766985D01*
X114383562Y-108993421D01*
X115033357Y-108969361D01*
X115521938Y-108766985D01*
X115620537Y-108500183D01*
X119075463Y-108500183D01*
X119174062Y-108766985D01*
X119783602Y-108993421D01*
X120234286Y-108976734D01*
X120172855Y-109026460D01*
X119913827Y-109503316D01*
X119899682Y-109574815D01*
X120022344Y-109789000D01*
X121615000Y-109789000D01*
X121615000Y-108531000D01*
X121869000Y-108531000D01*
X121869000Y-109789000D01*
X123461656Y-109789000D01*
X123584318Y-109574815D01*
X142099682Y-109574815D01*
X142222344Y-109789000D01*
X143815000Y-109789000D01*
X143815000Y-108531000D01*
X144069000Y-108531000D01*
X144069000Y-109789000D01*
X145661656Y-109789000D01*
X145784318Y-109574815D01*
X145770173Y-109503316D01*
X145511145Y-109026460D01*
X145089349Y-108685028D01*
X144569000Y-108531000D01*
X144069000Y-108531000D01*
X143815000Y-108531000D01*
X143315000Y-108531000D01*
X142794651Y-108685028D01*
X142372855Y-109026460D01*
X142113827Y-109503316D01*
X142099682Y-109574815D01*
X123584318Y-109574815D01*
X123570173Y-109503316D01*
X123311145Y-109026460D01*
X122889349Y-108685028D01*
X122369000Y-108531000D01*
X121869000Y-108531000D01*
X121615000Y-108531000D01*
X121115000Y-108531000D01*
X120996192Y-108566168D01*
X121020577Y-108500183D01*
X128407423Y-108500183D01*
X128506022Y-108766985D01*
X129115562Y-108993421D01*
X129765357Y-108969361D01*
X130253938Y-108766985D01*
X130352537Y-108500183D01*
X133807463Y-108500183D01*
X133906062Y-108766985D01*
X134515602Y-108993421D01*
X135165397Y-108969361D01*
X135653978Y-108766985D01*
X135752577Y-108500183D01*
X140599423Y-108500183D01*
X140698022Y-108766985D01*
X141307562Y-108993421D01*
X141957357Y-108969361D01*
X142445938Y-108766985D01*
X142544537Y-108500183D01*
X145999463Y-108500183D01*
X146098062Y-108766985D01*
X146707602Y-108993421D01*
X147357397Y-108969361D01*
X147845978Y-108766985D01*
X147944577Y-108500183D01*
X146972020Y-107527625D01*
X145999463Y-108500183D01*
X142544537Y-108500183D01*
X141571980Y-107527625D01*
X140599423Y-108500183D01*
X135752577Y-108500183D01*
X134780020Y-107527625D01*
X133807463Y-108500183D01*
X130352537Y-108500183D01*
X129379980Y-107527625D01*
X128407423Y-108500183D01*
X121020577Y-108500183D01*
X120048020Y-107527625D01*
X119075463Y-108500183D01*
X115620537Y-108500183D01*
X114647980Y-107527625D01*
X113675423Y-108500183D01*
X108828577Y-108500183D01*
X107856020Y-107527625D01*
X106883463Y-108500183D01*
X103428537Y-108500183D01*
X102455980Y-107527625D01*
X101483423Y-108500183D01*
X100761000Y-108500183D01*
X100761000Y-107083602D01*
X100810579Y-107083602D01*
X100834639Y-107733397D01*
X101037015Y-108221978D01*
X101303817Y-108320577D01*
X102276375Y-107348020D01*
X102635585Y-107348020D01*
X103608143Y-108320577D01*
X103874945Y-108221978D01*
X104101381Y-107612438D01*
X104081800Y-107083602D01*
X106210619Y-107083602D01*
X106234679Y-107733397D01*
X106437055Y-108221978D01*
X106703857Y-108320577D01*
X107676415Y-107348020D01*
X108035625Y-107348020D01*
X109008183Y-108320577D01*
X109274985Y-108221978D01*
X109501421Y-107612438D01*
X109481840Y-107083602D01*
X113002579Y-107083602D01*
X113026639Y-107733397D01*
X113229015Y-108221978D01*
X113495817Y-108320577D01*
X114468375Y-107348020D01*
X114827585Y-107348020D01*
X115800143Y-108320577D01*
X116066945Y-108221978D01*
X116293381Y-107612438D01*
X116273800Y-107083602D01*
X118402619Y-107083602D01*
X118426679Y-107733397D01*
X118629055Y-108221978D01*
X118895857Y-108320577D01*
X119868415Y-107348020D01*
X120227625Y-107348020D01*
X121200183Y-108320577D01*
X121466985Y-108221978D01*
X121693421Y-107612438D01*
X121673840Y-107083602D01*
X127734579Y-107083602D01*
X127758639Y-107733397D01*
X127961015Y-108221978D01*
X128227817Y-108320577D01*
X129200375Y-107348020D01*
X129559585Y-107348020D01*
X130532143Y-108320577D01*
X130798945Y-108221978D01*
X131025381Y-107612438D01*
X131005800Y-107083602D01*
X133134619Y-107083602D01*
X133158679Y-107733397D01*
X133361055Y-108221978D01*
X133627857Y-108320577D01*
X134600415Y-107348020D01*
X134959625Y-107348020D01*
X135932183Y-108320577D01*
X136198985Y-108221978D01*
X136425421Y-107612438D01*
X136405840Y-107083602D01*
X139926579Y-107083602D01*
X139950639Y-107733397D01*
X140153015Y-108221978D01*
X140419817Y-108320577D01*
X141392375Y-107348020D01*
X141751585Y-107348020D01*
X142724143Y-108320577D01*
X142990945Y-108221978D01*
X143217381Y-107612438D01*
X143197800Y-107083602D01*
X145326619Y-107083602D01*
X145350679Y-107733397D01*
X145553055Y-108221978D01*
X145819857Y-108320577D01*
X146792415Y-107348020D01*
X147151625Y-107348020D01*
X148124183Y-108320577D01*
X148390985Y-108221978D01*
X148617421Y-107612438D01*
X148593361Y-106962643D01*
X148390985Y-106474062D01*
X148124183Y-106375463D01*
X147151625Y-107348020D01*
X146792415Y-107348020D01*
X145819857Y-106375463D01*
X145553055Y-106474062D01*
X145326619Y-107083602D01*
X143197800Y-107083602D01*
X143193321Y-106962643D01*
X142990945Y-106474062D01*
X142724143Y-106375463D01*
X141751585Y-107348020D01*
X141392375Y-107348020D01*
X140419817Y-106375463D01*
X140153015Y-106474062D01*
X139926579Y-107083602D01*
X136405840Y-107083602D01*
X136401361Y-106962643D01*
X136198985Y-106474062D01*
X135932183Y-106375463D01*
X134959625Y-107348020D01*
X134600415Y-107348020D01*
X133627857Y-106375463D01*
X133361055Y-106474062D01*
X133134619Y-107083602D01*
X131005800Y-107083602D01*
X131001321Y-106962643D01*
X130798945Y-106474062D01*
X130532143Y-106375463D01*
X129559585Y-107348020D01*
X129200375Y-107348020D01*
X128227817Y-106375463D01*
X127961015Y-106474062D01*
X127734579Y-107083602D01*
X121673840Y-107083602D01*
X121669361Y-106962643D01*
X121466985Y-106474062D01*
X121200183Y-106375463D01*
X120227625Y-107348020D01*
X119868415Y-107348020D01*
X118895857Y-106375463D01*
X118629055Y-106474062D01*
X118402619Y-107083602D01*
X116273800Y-107083602D01*
X116269321Y-106962643D01*
X116066945Y-106474062D01*
X115800143Y-106375463D01*
X114827585Y-107348020D01*
X114468375Y-107348020D01*
X113495817Y-106375463D01*
X113229015Y-106474062D01*
X113002579Y-107083602D01*
X109481840Y-107083602D01*
X109477361Y-106962643D01*
X109274985Y-106474062D01*
X109008183Y-106375463D01*
X108035625Y-107348020D01*
X107676415Y-107348020D01*
X106703857Y-106375463D01*
X106437055Y-106474062D01*
X106210619Y-107083602D01*
X104081800Y-107083602D01*
X104077321Y-106962643D01*
X103874945Y-106474062D01*
X103608143Y-106375463D01*
X102635585Y-107348020D01*
X102276375Y-107348020D01*
X101303817Y-106375463D01*
X101037015Y-106474062D01*
X100810579Y-107083602D01*
X100761000Y-107083602D01*
X100761000Y-106195857D01*
X101483423Y-106195857D01*
X102455980Y-107168415D01*
X103428537Y-106195857D01*
X103329938Y-105929055D01*
X102720398Y-105702619D01*
X102070603Y-105726679D01*
X101582022Y-105929055D01*
X101483423Y-106195857D01*
X100761000Y-106195857D01*
X100761000Y-104971694D01*
X103521226Y-104971694D01*
X103769538Y-105572655D01*
X104228927Y-106032846D01*
X104829453Y-106282206D01*
X105479694Y-106282774D01*
X105690049Y-106195857D01*
X106883463Y-106195857D01*
X107856020Y-107168415D01*
X108828577Y-106195857D01*
X113675423Y-106195857D01*
X114647980Y-107168415D01*
X115620537Y-106195857D01*
X115521938Y-105929055D01*
X114912398Y-105702619D01*
X114262603Y-105726679D01*
X113774022Y-105929055D01*
X113675423Y-106195857D01*
X108828577Y-106195857D01*
X108729978Y-105929055D01*
X108120438Y-105702619D01*
X107470643Y-105726679D01*
X106982062Y-105929055D01*
X106883463Y-106195857D01*
X105690049Y-106195857D01*
X106080655Y-106034462D01*
X106540846Y-105575073D01*
X106790206Y-104974547D01*
X106790208Y-104971694D01*
X115713226Y-104971694D01*
X115961538Y-105572655D01*
X116420927Y-106032846D01*
X117021453Y-106282206D01*
X117671694Y-106282774D01*
X117882049Y-106195857D01*
X119075463Y-106195857D01*
X120048020Y-107168415D01*
X121020577Y-106195857D01*
X128407423Y-106195857D01*
X129379980Y-107168415D01*
X130352537Y-106195857D01*
X130253938Y-105929055D01*
X129644398Y-105702619D01*
X128994603Y-105726679D01*
X128506022Y-105929055D01*
X128407423Y-106195857D01*
X121020577Y-106195857D01*
X120921978Y-105929055D01*
X120312438Y-105702619D01*
X119662643Y-105726679D01*
X119174062Y-105929055D01*
X119075463Y-106195857D01*
X117882049Y-106195857D01*
X118272655Y-106034462D01*
X118732846Y-105575073D01*
X118982206Y-104974547D01*
X118982208Y-104971694D01*
X130445226Y-104971694D01*
X130693538Y-105572655D01*
X131152927Y-106032846D01*
X131753453Y-106282206D01*
X132403694Y-106282774D01*
X132614049Y-106195857D01*
X133807463Y-106195857D01*
X134780020Y-107168415D01*
X135752577Y-106195857D01*
X140599423Y-106195857D01*
X141571980Y-107168415D01*
X142544537Y-106195857D01*
X142445938Y-105929055D01*
X141836398Y-105702619D01*
X141186603Y-105726679D01*
X140698022Y-105929055D01*
X140599423Y-106195857D01*
X135752577Y-106195857D01*
X135653978Y-105929055D01*
X135044438Y-105702619D01*
X134394643Y-105726679D01*
X133906062Y-105929055D01*
X133807463Y-106195857D01*
X132614049Y-106195857D01*
X133004655Y-106034462D01*
X133464846Y-105575073D01*
X133714206Y-104974547D01*
X133714208Y-104971694D01*
X142637226Y-104971694D01*
X142885538Y-105572655D01*
X143344927Y-106032846D01*
X143945453Y-106282206D01*
X144595694Y-106282774D01*
X144806049Y-106195857D01*
X145999463Y-106195857D01*
X146972020Y-107168415D01*
X147944577Y-106195857D01*
X147845978Y-105929055D01*
X147236438Y-105702619D01*
X146586643Y-105726679D01*
X146098062Y-105929055D01*
X145999463Y-106195857D01*
X144806049Y-106195857D01*
X145196655Y-106034462D01*
X145656846Y-105575073D01*
X145906206Y-104974547D01*
X145906774Y-104324306D01*
X145658462Y-103723345D01*
X145199073Y-103263154D01*
X144806499Y-103100143D01*
X145999463Y-103100143D01*
X146098062Y-103366945D01*
X146707602Y-103593381D01*
X147357397Y-103569321D01*
X147845978Y-103366945D01*
X147944577Y-103100143D01*
X146972020Y-102127585D01*
X145999463Y-103100143D01*
X144806499Y-103100143D01*
X144598547Y-103013794D01*
X143948306Y-103013226D01*
X143347345Y-103261538D01*
X142887154Y-103720927D01*
X142637794Y-104321453D01*
X142637226Y-104971694D01*
X133714208Y-104971694D01*
X133714774Y-104324306D01*
X133466462Y-103723345D01*
X133007073Y-103263154D01*
X132614499Y-103100143D01*
X133807463Y-103100143D01*
X133906062Y-103366945D01*
X134515602Y-103593381D01*
X135165397Y-103569321D01*
X135653978Y-103366945D01*
X135752577Y-103100143D01*
X140599423Y-103100143D01*
X140698022Y-103366945D01*
X141307562Y-103593381D01*
X141957357Y-103569321D01*
X142445938Y-103366945D01*
X142544537Y-103100143D01*
X141571980Y-102127585D01*
X140599423Y-103100143D01*
X135752577Y-103100143D01*
X134780020Y-102127585D01*
X133807463Y-103100143D01*
X132614499Y-103100143D01*
X132406547Y-103013794D01*
X131756306Y-103013226D01*
X131155345Y-103261538D01*
X130695154Y-103720927D01*
X130445794Y-104321453D01*
X130445226Y-104971694D01*
X118982208Y-104971694D01*
X118982774Y-104324306D01*
X118734462Y-103723345D01*
X118275073Y-103263154D01*
X117882499Y-103100143D01*
X119075463Y-103100143D01*
X119174062Y-103366945D01*
X119783602Y-103593381D01*
X120433397Y-103569321D01*
X120921978Y-103366945D01*
X121020577Y-103100143D01*
X128407423Y-103100143D01*
X128506022Y-103366945D01*
X129115562Y-103593381D01*
X129765357Y-103569321D01*
X130253938Y-103366945D01*
X130352537Y-103100143D01*
X129379980Y-102127585D01*
X128407423Y-103100143D01*
X121020577Y-103100143D01*
X120048020Y-102127585D01*
X119075463Y-103100143D01*
X117882499Y-103100143D01*
X117674547Y-103013794D01*
X117024306Y-103013226D01*
X116423345Y-103261538D01*
X115963154Y-103720927D01*
X115713794Y-104321453D01*
X115713226Y-104971694D01*
X106790208Y-104971694D01*
X106790774Y-104324306D01*
X106542462Y-103723345D01*
X106083073Y-103263154D01*
X105690499Y-103100143D01*
X106883463Y-103100143D01*
X106982062Y-103366945D01*
X107591602Y-103593381D01*
X108241397Y-103569321D01*
X108729978Y-103366945D01*
X108828577Y-103100143D01*
X113675423Y-103100143D01*
X113774022Y-103366945D01*
X114383562Y-103593381D01*
X115033357Y-103569321D01*
X115521938Y-103366945D01*
X115620537Y-103100143D01*
X114647980Y-102127585D01*
X113675423Y-103100143D01*
X108828577Y-103100143D01*
X107856020Y-102127585D01*
X106883463Y-103100143D01*
X105690499Y-103100143D01*
X105482547Y-103013794D01*
X104832306Y-103013226D01*
X104231345Y-103261538D01*
X103771154Y-103720927D01*
X103521794Y-104321453D01*
X103521226Y-104971694D01*
X100761000Y-104971694D01*
X100761000Y-103100143D01*
X101483423Y-103100143D01*
X101582022Y-103366945D01*
X102191562Y-103593381D01*
X102841357Y-103569321D01*
X103329938Y-103366945D01*
X103428537Y-103100143D01*
X102455980Y-102127585D01*
X101483423Y-103100143D01*
X100761000Y-103100143D01*
X100761000Y-101683562D01*
X100810579Y-101683562D01*
X100834639Y-102333357D01*
X101037015Y-102821938D01*
X101303817Y-102920537D01*
X102276375Y-101947980D01*
X102635585Y-101947980D01*
X103608143Y-102920537D01*
X103874945Y-102821938D01*
X104101381Y-102212398D01*
X104081800Y-101683562D01*
X106210619Y-101683562D01*
X106234679Y-102333357D01*
X106437055Y-102821938D01*
X106703857Y-102920537D01*
X107676415Y-101947980D01*
X108035625Y-101947980D01*
X109008183Y-102920537D01*
X109274985Y-102821938D01*
X109501421Y-102212398D01*
X109481840Y-101683562D01*
X113002579Y-101683562D01*
X113026639Y-102333357D01*
X113229015Y-102821938D01*
X113495817Y-102920537D01*
X114468375Y-101947980D01*
X114827585Y-101947980D01*
X115800143Y-102920537D01*
X116066945Y-102821938D01*
X116293381Y-102212398D01*
X116273800Y-101683562D01*
X118402619Y-101683562D01*
X118426679Y-102333357D01*
X118629055Y-102821938D01*
X118895857Y-102920537D01*
X119868415Y-101947980D01*
X120227625Y-101947980D01*
X121200183Y-102920537D01*
X121466985Y-102821938D01*
X121693421Y-102212398D01*
X121673840Y-101683562D01*
X127734579Y-101683562D01*
X127758639Y-102333357D01*
X127961015Y-102821938D01*
X128227817Y-102920537D01*
X129200375Y-101947980D01*
X129559585Y-101947980D01*
X130532143Y-102920537D01*
X130798945Y-102821938D01*
X131025381Y-102212398D01*
X131005800Y-101683562D01*
X133134619Y-101683562D01*
X133158679Y-102333357D01*
X133361055Y-102821938D01*
X133627857Y-102920537D01*
X134600415Y-101947980D01*
X134959625Y-101947980D01*
X135932183Y-102920537D01*
X136198985Y-102821938D01*
X136425421Y-102212398D01*
X136405840Y-101683562D01*
X139926579Y-101683562D01*
X139950639Y-102333357D01*
X140153015Y-102821938D01*
X140419817Y-102920537D01*
X141392375Y-101947980D01*
X141751585Y-101947980D01*
X142724143Y-102920537D01*
X142990945Y-102821938D01*
X143217381Y-102212398D01*
X143197800Y-101683562D01*
X145326619Y-101683562D01*
X145350679Y-102333357D01*
X145553055Y-102821938D01*
X145819857Y-102920537D01*
X146792415Y-101947980D01*
X147151625Y-101947980D01*
X148124183Y-102920537D01*
X148390985Y-102821938D01*
X148617421Y-102212398D01*
X148593361Y-101562603D01*
X148390985Y-101074022D01*
X148124183Y-100975423D01*
X147151625Y-101947980D01*
X146792415Y-101947980D01*
X145819857Y-100975423D01*
X145553055Y-101074022D01*
X145326619Y-101683562D01*
X143197800Y-101683562D01*
X143193321Y-101562603D01*
X142990945Y-101074022D01*
X142724143Y-100975423D01*
X141751585Y-101947980D01*
X141392375Y-101947980D01*
X140419817Y-100975423D01*
X140153015Y-101074022D01*
X139926579Y-101683562D01*
X136405840Y-101683562D01*
X136401361Y-101562603D01*
X136198985Y-101074022D01*
X135932183Y-100975423D01*
X134959625Y-101947980D01*
X134600415Y-101947980D01*
X133627857Y-100975423D01*
X133361055Y-101074022D01*
X133134619Y-101683562D01*
X131005800Y-101683562D01*
X131001321Y-101562603D01*
X130798945Y-101074022D01*
X130532143Y-100975423D01*
X129559585Y-101947980D01*
X129200375Y-101947980D01*
X128227817Y-100975423D01*
X127961015Y-101074022D01*
X127734579Y-101683562D01*
X121673840Y-101683562D01*
X121669361Y-101562603D01*
X121466985Y-101074022D01*
X121200183Y-100975423D01*
X120227625Y-101947980D01*
X119868415Y-101947980D01*
X118895857Y-100975423D01*
X118629055Y-101074022D01*
X118402619Y-101683562D01*
X116273800Y-101683562D01*
X116269321Y-101562603D01*
X116066945Y-101074022D01*
X115800143Y-100975423D01*
X114827585Y-101947980D01*
X114468375Y-101947980D01*
X113495817Y-100975423D01*
X113229015Y-101074022D01*
X113002579Y-101683562D01*
X109481840Y-101683562D01*
X109477361Y-101562603D01*
X109274985Y-101074022D01*
X109008183Y-100975423D01*
X108035625Y-101947980D01*
X107676415Y-101947980D01*
X106703857Y-100975423D01*
X106437055Y-101074022D01*
X106210619Y-101683562D01*
X104081800Y-101683562D01*
X104077321Y-101562603D01*
X103874945Y-101074022D01*
X103608143Y-100975423D01*
X102635585Y-101947980D01*
X102276375Y-101947980D01*
X101303817Y-100975423D01*
X101037015Y-101074022D01*
X100810579Y-101683562D01*
X100761000Y-101683562D01*
X100761000Y-100761000D01*
X101496290Y-100761000D01*
X101483423Y-100795817D01*
X101483423Y-100795817D01*
G37*
X101483423Y-100795817D02*
X102455980Y-101768375D01*
X103428537Y-100795817D01*
X103415670Y-100761000D01*
X106896330Y-100761000D01*
X106883463Y-100795817D01*
X107856020Y-101768375D01*
X108828577Y-100795817D01*
X108815710Y-100761000D01*
X113688290Y-100761000D01*
X113675423Y-100795817D01*
X114647980Y-101768375D01*
X115620537Y-100795817D01*
X115607670Y-100761000D01*
X119088330Y-100761000D01*
X119075463Y-100795817D01*
X120048020Y-101768375D01*
X121020577Y-100795817D01*
X121007710Y-100761000D01*
X128420290Y-100761000D01*
X128407423Y-100795817D01*
X129379980Y-101768375D01*
X130352537Y-100795817D01*
X130339670Y-100761000D01*
X133820330Y-100761000D01*
X133807463Y-100795817D01*
X134780020Y-101768375D01*
X135752577Y-100795817D01*
X135739710Y-100761000D01*
X140612290Y-100761000D01*
X140599423Y-100795817D01*
X141571980Y-101768375D01*
X142544537Y-100795817D01*
X142531670Y-100761000D01*
X146012330Y-100761000D01*
X145999463Y-100795817D01*
X146972020Y-101768375D01*
X147944577Y-100795817D01*
X147931710Y-100761000D01*
X149175000Y-100761000D01*
X149175000Y-143637000D01*
X146365431Y-143637000D01*
X146304000Y-143624560D01*
X144399000Y-143624560D01*
X144399000Y-138938000D01*
X144388994Y-138888590D01*
X144361803Y-138848197D01*
X139573000Y-134059394D01*
X139573000Y-133757185D01*
X142099682Y-133757185D01*
X142113827Y-133828684D01*
X142372855Y-134305540D01*
X142794651Y-134646972D01*
X143315000Y-134801000D01*
X143815000Y-134801000D01*
X143815000Y-133543000D01*
X144069000Y-133543000D01*
X144069000Y-134801000D01*
X144569000Y-134801000D01*
X145089349Y-134646972D01*
X145511145Y-134305540D01*
X145770173Y-133828684D01*
X145784318Y-133757185D01*
X145661656Y-133543000D01*
X144069000Y-133543000D01*
X143815000Y-133543000D01*
X142222344Y-133543000D01*
X142099682Y-133757185D01*
X139573000Y-133757185D01*
X139573000Y-133074815D01*
X142099682Y-133074815D01*
X142222344Y-133289000D01*
X143815000Y-133289000D01*
X143815000Y-132031000D01*
X144069000Y-132031000D01*
X144069000Y-133289000D01*
X145661656Y-133289000D01*
X145784318Y-133074815D01*
X145770173Y-133003316D01*
X145511145Y-132526460D01*
X145089349Y-132185028D01*
X144569000Y-132031000D01*
X144069000Y-132031000D01*
X143815000Y-132031000D01*
X143315000Y-132031000D01*
X142794651Y-132185028D01*
X142372855Y-132526460D01*
X142113827Y-133003316D01*
X142099682Y-133074815D01*
X139573000Y-133074815D01*
X139573000Y-130833708D01*
X139931983Y-131073573D01*
X140462000Y-131179000D01*
X143002000Y-131179000D01*
X143532017Y-131073573D01*
X143981343Y-130773343D01*
X147791343Y-126963343D01*
X148091574Y-126514016D01*
X148197000Y-125984000D01*
X148197000Y-118745000D01*
X148091573Y-118214983D01*
X147791343Y-117765657D01*
X147342017Y-117465427D01*
X146812000Y-117360000D01*
X146281983Y-117465427D01*
X145832657Y-117765657D01*
X145532427Y-118214983D01*
X145427000Y-118745000D01*
X145427000Y-125410314D01*
X144920636Y-125916678D01*
X144661765Y-125657355D01*
X144244756Y-125484197D01*
X143793225Y-125483803D01*
X143568300Y-125576740D01*
X143573313Y-125564668D01*
X143573687Y-125135216D01*
X143409689Y-124738311D01*
X143106286Y-124434378D01*
X142709668Y-124269687D01*
X142355000Y-124269378D01*
X142355000Y-121031000D01*
X142328108Y-120895803D01*
X142249574Y-120500984D01*
X141949343Y-120051657D01*
X140602470Y-118704784D01*
X141414313Y-118704784D01*
X141578311Y-119101689D01*
X141881714Y-119405622D01*
X142278332Y-119570313D01*
X142707784Y-119570687D01*
X142886774Y-119496730D01*
X142871197Y-119534244D01*
X142870803Y-119985775D01*
X143043233Y-120403086D01*
X143362235Y-120722645D01*
X143779244Y-120895803D01*
X144230775Y-120896197D01*
X144648086Y-120723767D01*
X144967645Y-120404765D01*
X145140803Y-119987756D01*
X145141197Y-119536225D01*
X144968767Y-119118914D01*
X144649765Y-118799355D01*
X144232756Y-118626197D01*
X143781225Y-118625803D01*
X143570785Y-118712755D01*
X143573313Y-118706668D01*
X143573687Y-118277216D01*
X143409689Y-117880311D01*
X143106286Y-117576378D01*
X142709668Y-117411687D01*
X142280216Y-117411313D01*
X141883311Y-117575311D01*
X141579378Y-117878714D01*
X141414687Y-118275332D01*
X141414313Y-118704784D01*
X140602470Y-118704784D01*
X135980343Y-114082657D01*
X135531016Y-113782427D01*
X135001000Y-113677000D01*
X134470984Y-113782427D01*
X134266588Y-113919000D01*
X133912755Y-113919000D01*
X133976803Y-113764756D01*
X133977197Y-113313225D01*
X133804767Y-112895914D01*
X133799862Y-112891000D01*
X136398000Y-112891000D01*
X136928017Y-112785573D01*
X136960303Y-112764000D01*
X137870016Y-112764000D01*
X141277394Y-116057799D01*
X141731744Y-116350372D01*
X142263471Y-116446801D01*
X142791625Y-116332408D01*
X143235799Y-116024606D01*
X143528372Y-115570255D01*
X143624801Y-115038529D01*
X143510408Y-114510375D01*
X143202606Y-114066201D01*
X139392606Y-110383201D01*
X139196910Y-110257185D01*
X142099682Y-110257185D01*
X142113827Y-110328684D01*
X142372855Y-110805540D01*
X142794651Y-111146972D01*
X143315000Y-111301000D01*
X143815000Y-111301000D01*
X143815000Y-110043000D01*
X144069000Y-110043000D01*
X144069000Y-111301000D01*
X144569000Y-111301000D01*
X145089349Y-111146972D01*
X145511145Y-110805540D01*
X145770173Y-110328684D01*
X145784318Y-110257185D01*
X145661656Y-110043000D01*
X144069000Y-110043000D01*
X143815000Y-110043000D01*
X142222344Y-110043000D01*
X142099682Y-110257185D01*
X139196910Y-110257185D01*
X139175108Y-110243146D01*
X138960017Y-110099427D01*
X138948300Y-110097096D01*
X138938255Y-110090628D01*
X138683707Y-110044465D01*
X138430000Y-109994000D01*
X136525000Y-109994000D01*
X135994983Y-110099427D01*
X135962697Y-110121000D01*
X123698000Y-110121000D01*
X123525928Y-110155227D01*
X123461656Y-110043000D01*
X121869000Y-110043000D01*
X121869000Y-110063000D01*
X121615000Y-110063000D01*
X121615000Y-110043000D01*
X120022344Y-110043000D01*
X119899682Y-110257185D01*
X119913827Y-110328684D01*
X120076959Y-110629000D01*
X108712000Y-110629000D01*
X108181983Y-110734427D01*
X107732657Y-111034657D01*
X107478657Y-111288657D01*
X107432204Y-111358179D01*
X107371699Y-111297673D01*
X107138310Y-111201000D01*
X106457750Y-111201000D01*
X106299000Y-111359750D01*
X106299000Y-112649000D01*
X106319000Y-112649000D01*
X106319000Y-112903000D01*
X106299000Y-112903000D01*
X106299000Y-114192250D01*
X106457750Y-114351000D01*
X106655903Y-114351000D01*
X106565000Y-114808000D01*
X106670427Y-115338016D01*
X106970657Y-115787343D01*
X108089000Y-116905686D01*
X108089000Y-119380000D01*
X108194427Y-119910017D01*
X108494657Y-120359343D01*
X108943983Y-120659573D01*
X109227371Y-120715943D01*
X107420670Y-122522644D01*
X107371699Y-122473673D01*
X107138310Y-122377000D01*
X106457750Y-122377000D01*
X106299000Y-122535750D01*
X106299000Y-123825000D01*
X106319000Y-123825000D01*
X106319000Y-124079000D01*
X106299000Y-124079000D01*
X106299000Y-125368250D01*
X106457750Y-125527000D01*
X106605379Y-125527000D01*
X106565000Y-125730000D01*
X106565000Y-127000000D01*
X106670427Y-127530017D01*
X106921801Y-127906225D01*
X106961073Y-127965000D01*
X106457750Y-127965000D01*
X106299000Y-128123750D01*
X106299000Y-129413000D01*
X107488250Y-129413000D01*
X107647000Y-129254250D01*
X107647000Y-128655686D01*
X108089000Y-129097686D01*
X108089000Y-130556000D01*
X108194427Y-131086017D01*
X108494657Y-131535343D01*
X108943983Y-131835573D01*
X109474000Y-131941000D01*
X110004017Y-131835573D01*
X110453343Y-131535343D01*
X110753573Y-131086017D01*
X110859000Y-130556000D01*
X110859000Y-128524000D01*
X110753573Y-127993983D01*
X110453343Y-127544657D01*
X109335000Y-126426314D01*
X109335000Y-126325351D01*
X109474000Y-126353000D01*
X120396000Y-126353000D01*
X120926017Y-126247573D01*
X121365813Y-125953711D01*
X121275427Y-126088983D01*
X121170000Y-126619000D01*
X121170000Y-128458314D01*
X120964104Y-128664210D01*
X120850767Y-128389914D01*
X120531765Y-128070355D01*
X120114756Y-127897197D01*
X119663225Y-127896803D01*
X119245914Y-128069233D01*
X118926355Y-128388235D01*
X118753197Y-128805244D01*
X118752822Y-129234500D01*
X114998500Y-129234500D01*
X114468483Y-129339927D01*
X114136102Y-129562017D01*
X114019157Y-129640157D01*
X108494657Y-135164657D01*
X108194427Y-135613984D01*
X108089000Y-136144000D01*
X108194427Y-136674016D01*
X108434292Y-137033000D01*
X108367344Y-137033000D01*
X108353017Y-137023427D01*
X107823000Y-136918000D01*
X105283000Y-136918000D01*
X104752983Y-137023427D01*
X104738656Y-137033000D01*
X103585982Y-137033000D01*
X103831645Y-136787765D01*
X104004803Y-136370756D01*
X104005197Y-135919225D01*
X103832767Y-135501914D01*
X103744757Y-135413750D01*
X104697000Y-135413750D01*
X104697000Y-136194309D01*
X104793673Y-136427698D01*
X104972301Y-136606327D01*
X105205690Y-136703000D01*
X105886250Y-136703000D01*
X106045000Y-136544250D01*
X106045000Y-135255000D01*
X106299000Y-135255000D01*
X106299000Y-136544250D01*
X106457750Y-136703000D01*
X107138310Y-136703000D01*
X107371699Y-136606327D01*
X107550327Y-136427698D01*
X107647000Y-136194309D01*
X107647000Y-135413750D01*
X107488250Y-135255000D01*
X106299000Y-135255000D01*
X106045000Y-135255000D01*
X104855750Y-135255000D01*
X104697000Y-135413750D01*
X103744757Y-135413750D01*
X103513765Y-135182355D01*
X103096756Y-135009197D01*
X102645225Y-135008803D01*
X102489000Y-135073354D01*
X102489000Y-134061691D01*
X104697000Y-134061691D01*
X104697000Y-134842250D01*
X104855750Y-135001000D01*
X106045000Y-135001000D01*
X106045000Y-133711750D01*
X106299000Y-133711750D01*
X106299000Y-135001000D01*
X107488250Y-135001000D01*
X107647000Y-134842250D01*
X107647000Y-134061691D01*
X107550327Y-133828302D01*
X107371699Y-133649673D01*
X107138310Y-133553000D01*
X106457750Y-133553000D01*
X106299000Y-133711750D01*
X106045000Y-133711750D01*
X105886250Y-133553000D01*
X105205690Y-133553000D01*
X104972301Y-133649673D01*
X104793673Y-133828302D01*
X104697000Y-134061691D01*
X102489000Y-134061691D01*
X102489000Y-131626755D01*
X102643244Y-131690803D01*
X103094775Y-131691197D01*
X103512086Y-131518767D01*
X103831645Y-131199765D01*
X104004803Y-130782756D01*
X104005197Y-130331225D01*
X103832767Y-129913914D01*
X103744757Y-129825750D01*
X104697000Y-129825750D01*
X104697000Y-130606309D01*
X104793673Y-130839698D01*
X104972301Y-131018327D01*
X105205690Y-131115000D01*
X105886250Y-131115000D01*
X106045000Y-130956250D01*
X106045000Y-129667000D01*
X106299000Y-129667000D01*
X106299000Y-130956250D01*
X106457750Y-131115000D01*
X107138310Y-131115000D01*
X107371699Y-131018327D01*
X107550327Y-130839698D01*
X107647000Y-130606309D01*
X107647000Y-129825750D01*
X107488250Y-129667000D01*
X106299000Y-129667000D01*
X106045000Y-129667000D01*
X104855750Y-129667000D01*
X104697000Y-129825750D01*
X103744757Y-129825750D01*
X103513765Y-129594355D01*
X103096756Y-129421197D01*
X102645225Y-129420803D01*
X102489000Y-129485354D01*
X102489000Y-128473691D01*
X104697000Y-128473691D01*
X104697000Y-129254250D01*
X104855750Y-129413000D01*
X106045000Y-129413000D01*
X106045000Y-128123750D01*
X105886250Y-127965000D01*
X105205690Y-127965000D01*
X104972301Y-128061673D01*
X104793673Y-128240302D01*
X104697000Y-128473691D01*
X102489000Y-128473691D01*
X102489000Y-126965446D01*
X103678223Y-125776223D01*
X103700905Y-125742277D01*
X103831645Y-125611765D01*
X103903114Y-125439650D01*
X103925994Y-125405407D01*
X103933958Y-125365369D01*
X104004803Y-125194756D01*
X104004966Y-125008391D01*
X104013000Y-124968000D01*
X104005036Y-124927961D01*
X104005197Y-124743225D01*
X103934028Y-124570984D01*
X103925994Y-124530593D01*
X103903314Y-124496650D01*
X103832767Y-124325914D01*
X103744757Y-124237750D01*
X104697000Y-124237750D01*
X104697000Y-125018309D01*
X104793673Y-125251698D01*
X104972301Y-125430327D01*
X105205690Y-125527000D01*
X105886250Y-125527000D01*
X106045000Y-125368250D01*
X106045000Y-124079000D01*
X104855750Y-124079000D01*
X104697000Y-124237750D01*
X103744757Y-124237750D01*
X103701104Y-124194022D01*
X103678223Y-124159777D01*
X103644277Y-124137095D01*
X103513765Y-124006355D01*
X103341650Y-123934886D01*
X103307407Y-123912006D01*
X103267369Y-123904042D01*
X103096756Y-123833197D01*
X102910391Y-123833034D01*
X102870000Y-123825000D01*
X102829961Y-123832964D01*
X102645225Y-123832803D01*
X102472984Y-123903972D01*
X102432593Y-123912006D01*
X102398650Y-123934686D01*
X102227914Y-124005233D01*
X102096022Y-124136896D01*
X102061777Y-124159777D01*
X100761000Y-125460554D01*
X100761000Y-122895784D01*
X102806313Y-122895784D01*
X102970311Y-123292689D01*
X103273714Y-123596622D01*
X103670332Y-123761313D01*
X104099784Y-123761687D01*
X104496689Y-123597689D01*
X104697000Y-123397727D01*
X104697000Y-123666250D01*
X104855750Y-123825000D01*
X106045000Y-123825000D01*
X106045000Y-122535750D01*
X105886250Y-122377000D01*
X105205690Y-122377000D01*
X104972301Y-122473673D01*
X104965676Y-122480298D01*
X104965687Y-122468216D01*
X104801689Y-122071311D01*
X104498286Y-121767378D01*
X104101668Y-121602687D01*
X103672216Y-121602313D01*
X103275311Y-121766311D01*
X102971378Y-122069714D01*
X102806687Y-122466332D01*
X102806313Y-122895784D01*
X100761000Y-122895784D01*
X100761000Y-119604775D01*
X101734803Y-119604775D01*
X101907233Y-120022086D01*
X102226235Y-120341645D01*
X102643244Y-120514803D01*
X103094775Y-120515197D01*
X103512086Y-120342767D01*
X103831645Y-120023765D01*
X104004803Y-119606756D01*
X104005197Y-119155225D01*
X103832767Y-118737914D01*
X103744757Y-118649750D01*
X104697000Y-118649750D01*
X104697000Y-119430309D01*
X104793673Y-119663698D01*
X104972301Y-119842327D01*
X105205690Y-119939000D01*
X105886250Y-119939000D01*
X106045000Y-119780250D01*
X106045000Y-118491000D01*
X106299000Y-118491000D01*
X106299000Y-119780250D01*
X106457750Y-119939000D01*
X107138310Y-119939000D01*
X107371699Y-119842327D01*
X107550327Y-119663698D01*
X107647000Y-119430309D01*
X107647000Y-118649750D01*
X107488250Y-118491000D01*
X106299000Y-118491000D01*
X106045000Y-118491000D01*
X104855750Y-118491000D01*
X104697000Y-118649750D01*
X103744757Y-118649750D01*
X103513765Y-118418355D01*
X103096756Y-118245197D01*
X102645225Y-118244803D01*
X102227914Y-118417233D01*
X101908355Y-118736235D01*
X101735197Y-119153244D01*
X101734803Y-119604775D01*
X100761000Y-119604775D01*
X100761000Y-117053784D01*
X103187313Y-117053784D01*
X103351311Y-117450689D01*
X103654714Y-117754622D01*
X104051332Y-117919313D01*
X104480784Y-117919687D01*
X104697000Y-117830348D01*
X104697000Y-118078250D01*
X104855750Y-118237000D01*
X106045000Y-118237000D01*
X106045000Y-116947750D01*
X106299000Y-116947750D01*
X106299000Y-118237000D01*
X107488250Y-118237000D01*
X107647000Y-118078250D01*
X107647000Y-117297691D01*
X107550327Y-117064302D01*
X107371699Y-116885673D01*
X107138310Y-116789000D01*
X106457750Y-116789000D01*
X106299000Y-116947750D01*
X106045000Y-116947750D01*
X105886250Y-116789000D01*
X105346545Y-116789000D01*
X105346687Y-116626216D01*
X105182689Y-116229311D01*
X104879286Y-115925378D01*
X104482668Y-115760687D01*
X104053216Y-115760313D01*
X103656311Y-115924311D01*
X103352378Y-116227714D01*
X103187687Y-116624332D01*
X103187313Y-117053784D01*
X100761000Y-117053784D01*
X100761000Y-114016775D01*
X101734803Y-114016775D01*
X101907233Y-114434086D01*
X102226235Y-114753645D01*
X102643244Y-114926803D01*
X103094775Y-114927197D01*
X103512086Y-114754767D01*
X103831645Y-114435765D01*
X104004803Y-114018756D01*
X104005197Y-113567225D01*
X103832767Y-113149914D01*
X103744757Y-113061750D01*
X104697000Y-113061750D01*
X104697000Y-113842309D01*
X104793673Y-114075698D01*
X104972301Y-114254327D01*
X105205690Y-114351000D01*
X105886250Y-114351000D01*
X106045000Y-114192250D01*
X106045000Y-112903000D01*
X104855750Y-112903000D01*
X104697000Y-113061750D01*
X103744757Y-113061750D01*
X103513765Y-112830355D01*
X103096756Y-112657197D01*
X102645225Y-112656803D01*
X102227914Y-112829233D01*
X101908355Y-113148235D01*
X101735197Y-113565244D01*
X101734803Y-114016775D01*
X100761000Y-114016775D01*
X100761000Y-111730775D01*
X102750803Y-111730775D01*
X102923233Y-112148086D01*
X103242235Y-112467645D01*
X103659244Y-112640803D01*
X104110775Y-112641197D01*
X104528086Y-112468767D01*
X104697000Y-112300147D01*
X104697000Y-112490250D01*
X104855750Y-112649000D01*
X106045000Y-112649000D01*
X106045000Y-111359750D01*
X105886250Y-111201000D01*
X105205690Y-111201000D01*
X105019854Y-111277976D01*
X104848767Y-110863914D01*
X104529765Y-110544355D01*
X104112756Y-110371197D01*
X103661225Y-110370803D01*
X103243914Y-110543233D01*
X102924355Y-110862235D01*
X102751197Y-111279244D01*
X102750803Y-111730775D01*
X100761000Y-111730775D01*
X100761000Y-108500183D01*
X101483423Y-108500183D01*
X101582022Y-108766985D01*
X102191562Y-108993421D01*
X102841357Y-108969361D01*
X103329938Y-108766985D01*
X103428537Y-108500183D01*
X106883463Y-108500183D01*
X106982062Y-108766985D01*
X107591602Y-108993421D01*
X108241397Y-108969361D01*
X108729978Y-108766985D01*
X108828577Y-108500183D01*
X113675423Y-108500183D01*
X113774022Y-108766985D01*
X114383562Y-108993421D01*
X115033357Y-108969361D01*
X115521938Y-108766985D01*
X115620537Y-108500183D01*
X119075463Y-108500183D01*
X119174062Y-108766985D01*
X119783602Y-108993421D01*
X120234286Y-108976734D01*
X120172855Y-109026460D01*
X119913827Y-109503316D01*
X119899682Y-109574815D01*
X120022344Y-109789000D01*
X121615000Y-109789000D01*
X121615000Y-108531000D01*
X121869000Y-108531000D01*
X121869000Y-109789000D01*
X123461656Y-109789000D01*
X123584318Y-109574815D01*
X142099682Y-109574815D01*
X142222344Y-109789000D01*
X143815000Y-109789000D01*
X143815000Y-108531000D01*
X144069000Y-108531000D01*
X144069000Y-109789000D01*
X145661656Y-109789000D01*
X145784318Y-109574815D01*
X145770173Y-109503316D01*
X145511145Y-109026460D01*
X145089349Y-108685028D01*
X144569000Y-108531000D01*
X144069000Y-108531000D01*
X143815000Y-108531000D01*
X143315000Y-108531000D01*
X142794651Y-108685028D01*
X142372855Y-109026460D01*
X142113827Y-109503316D01*
X142099682Y-109574815D01*
X123584318Y-109574815D01*
X123570173Y-109503316D01*
X123311145Y-109026460D01*
X122889349Y-108685028D01*
X122369000Y-108531000D01*
X121869000Y-108531000D01*
X121615000Y-108531000D01*
X121115000Y-108531000D01*
X120996192Y-108566168D01*
X121020577Y-108500183D01*
X128407423Y-108500183D01*
X128506022Y-108766985D01*
X129115562Y-108993421D01*
X129765357Y-108969361D01*
X130253938Y-108766985D01*
X130352537Y-108500183D01*
X133807463Y-108500183D01*
X133906062Y-108766985D01*
X134515602Y-108993421D01*
X135165397Y-108969361D01*
X135653978Y-108766985D01*
X135752577Y-108500183D01*
X140599423Y-108500183D01*
X140698022Y-108766985D01*
X141307562Y-108993421D01*
X141957357Y-108969361D01*
X142445938Y-108766985D01*
X142544537Y-108500183D01*
X145999463Y-108500183D01*
X146098062Y-108766985D01*
X146707602Y-108993421D01*
X147357397Y-108969361D01*
X147845978Y-108766985D01*
X147944577Y-108500183D01*
X146972020Y-107527625D01*
X145999463Y-108500183D01*
X142544537Y-108500183D01*
X141571980Y-107527625D01*
X140599423Y-108500183D01*
X135752577Y-108500183D01*
X134780020Y-107527625D01*
X133807463Y-108500183D01*
X130352537Y-108500183D01*
X129379980Y-107527625D01*
X128407423Y-108500183D01*
X121020577Y-108500183D01*
X120048020Y-107527625D01*
X119075463Y-108500183D01*
X115620537Y-108500183D01*
X114647980Y-107527625D01*
X113675423Y-108500183D01*
X108828577Y-108500183D01*
X107856020Y-107527625D01*
X106883463Y-108500183D01*
X103428537Y-108500183D01*
X102455980Y-107527625D01*
X101483423Y-108500183D01*
X100761000Y-108500183D01*
X100761000Y-107083602D01*
X100810579Y-107083602D01*
X100834639Y-107733397D01*
X101037015Y-108221978D01*
X101303817Y-108320577D01*
X102276375Y-107348020D01*
X102635585Y-107348020D01*
X103608143Y-108320577D01*
X103874945Y-108221978D01*
X104101381Y-107612438D01*
X104081800Y-107083602D01*
X106210619Y-107083602D01*
X106234679Y-107733397D01*
X106437055Y-108221978D01*
X106703857Y-108320577D01*
X107676415Y-107348020D01*
X108035625Y-107348020D01*
X109008183Y-108320577D01*
X109274985Y-108221978D01*
X109501421Y-107612438D01*
X109481840Y-107083602D01*
X113002579Y-107083602D01*
X113026639Y-107733397D01*
X113229015Y-108221978D01*
X113495817Y-108320577D01*
X114468375Y-107348020D01*
X114827585Y-107348020D01*
X115800143Y-108320577D01*
X116066945Y-108221978D01*
X116293381Y-107612438D01*
X116273800Y-107083602D01*
X118402619Y-107083602D01*
X118426679Y-107733397D01*
X118629055Y-108221978D01*
X118895857Y-108320577D01*
X119868415Y-107348020D01*
X120227625Y-107348020D01*
X121200183Y-108320577D01*
X121466985Y-108221978D01*
X121693421Y-107612438D01*
X121673840Y-107083602D01*
X127734579Y-107083602D01*
X127758639Y-107733397D01*
X127961015Y-108221978D01*
X128227817Y-108320577D01*
X129200375Y-107348020D01*
X129559585Y-107348020D01*
X130532143Y-108320577D01*
X130798945Y-108221978D01*
X131025381Y-107612438D01*
X131005800Y-107083602D01*
X133134619Y-107083602D01*
X133158679Y-107733397D01*
X133361055Y-108221978D01*
X133627857Y-108320577D01*
X134600415Y-107348020D01*
X134959625Y-107348020D01*
X135932183Y-108320577D01*
X136198985Y-108221978D01*
X136425421Y-107612438D01*
X136405840Y-107083602D01*
X139926579Y-107083602D01*
X139950639Y-107733397D01*
X140153015Y-108221978D01*
X140419817Y-108320577D01*
X141392375Y-107348020D01*
X141751585Y-107348020D01*
X142724143Y-108320577D01*
X142990945Y-108221978D01*
X143217381Y-107612438D01*
X143197800Y-107083602D01*
X145326619Y-107083602D01*
X145350679Y-107733397D01*
X145553055Y-108221978D01*
X145819857Y-108320577D01*
X146792415Y-107348020D01*
X147151625Y-107348020D01*
X148124183Y-108320577D01*
X148390985Y-108221978D01*
X148617421Y-107612438D01*
X148593361Y-106962643D01*
X148390985Y-106474062D01*
X148124183Y-106375463D01*
X147151625Y-107348020D01*
X146792415Y-107348020D01*
X145819857Y-106375463D01*
X145553055Y-106474062D01*
X145326619Y-107083602D01*
X143197800Y-107083602D01*
X143193321Y-106962643D01*
X142990945Y-106474062D01*
X142724143Y-106375463D01*
X141751585Y-107348020D01*
X141392375Y-107348020D01*
X140419817Y-106375463D01*
X140153015Y-106474062D01*
X139926579Y-107083602D01*
X136405840Y-107083602D01*
X136401361Y-106962643D01*
X136198985Y-106474062D01*
X135932183Y-106375463D01*
X134959625Y-107348020D01*
X134600415Y-107348020D01*
X133627857Y-106375463D01*
X133361055Y-106474062D01*
X133134619Y-107083602D01*
X131005800Y-107083602D01*
X131001321Y-106962643D01*
X130798945Y-106474062D01*
X130532143Y-106375463D01*
X129559585Y-107348020D01*
X129200375Y-107348020D01*
X128227817Y-106375463D01*
X127961015Y-106474062D01*
X127734579Y-107083602D01*
X121673840Y-107083602D01*
X121669361Y-106962643D01*
X121466985Y-106474062D01*
X121200183Y-106375463D01*
X120227625Y-107348020D01*
X119868415Y-107348020D01*
X118895857Y-106375463D01*
X118629055Y-106474062D01*
X118402619Y-107083602D01*
X116273800Y-107083602D01*
X116269321Y-106962643D01*
X116066945Y-106474062D01*
X115800143Y-106375463D01*
X114827585Y-107348020D01*
X114468375Y-107348020D01*
X113495817Y-106375463D01*
X113229015Y-106474062D01*
X113002579Y-107083602D01*
X109481840Y-107083602D01*
X109477361Y-106962643D01*
X109274985Y-106474062D01*
X109008183Y-106375463D01*
X108035625Y-107348020D01*
X107676415Y-107348020D01*
X106703857Y-106375463D01*
X106437055Y-106474062D01*
X106210619Y-107083602D01*
X104081800Y-107083602D01*
X104077321Y-106962643D01*
X103874945Y-106474062D01*
X103608143Y-106375463D01*
X102635585Y-107348020D01*
X102276375Y-107348020D01*
X101303817Y-106375463D01*
X101037015Y-106474062D01*
X100810579Y-107083602D01*
X100761000Y-107083602D01*
X100761000Y-106195857D01*
X101483423Y-106195857D01*
X102455980Y-107168415D01*
X103428537Y-106195857D01*
X103329938Y-105929055D01*
X102720398Y-105702619D01*
X102070603Y-105726679D01*
X101582022Y-105929055D01*
X101483423Y-106195857D01*
X100761000Y-106195857D01*
X100761000Y-104971694D01*
X103521226Y-104971694D01*
X103769538Y-105572655D01*
X104228927Y-106032846D01*
X104829453Y-106282206D01*
X105479694Y-106282774D01*
X105690049Y-106195857D01*
X106883463Y-106195857D01*
X107856020Y-107168415D01*
X108828577Y-106195857D01*
X113675423Y-106195857D01*
X114647980Y-107168415D01*
X115620537Y-106195857D01*
X115521938Y-105929055D01*
X114912398Y-105702619D01*
X114262603Y-105726679D01*
X113774022Y-105929055D01*
X113675423Y-106195857D01*
X108828577Y-106195857D01*
X108729978Y-105929055D01*
X108120438Y-105702619D01*
X107470643Y-105726679D01*
X106982062Y-105929055D01*
X106883463Y-106195857D01*
X105690049Y-106195857D01*
X106080655Y-106034462D01*
X106540846Y-105575073D01*
X106790206Y-104974547D01*
X106790208Y-104971694D01*
X115713226Y-104971694D01*
X115961538Y-105572655D01*
X116420927Y-106032846D01*
X117021453Y-106282206D01*
X117671694Y-106282774D01*
X117882049Y-106195857D01*
X119075463Y-106195857D01*
X120048020Y-107168415D01*
X121020577Y-106195857D01*
X128407423Y-106195857D01*
X129379980Y-107168415D01*
X130352537Y-106195857D01*
X130253938Y-105929055D01*
X129644398Y-105702619D01*
X128994603Y-105726679D01*
X128506022Y-105929055D01*
X128407423Y-106195857D01*
X121020577Y-106195857D01*
X120921978Y-105929055D01*
X120312438Y-105702619D01*
X119662643Y-105726679D01*
X119174062Y-105929055D01*
X119075463Y-106195857D01*
X117882049Y-106195857D01*
X118272655Y-106034462D01*
X118732846Y-105575073D01*
X118982206Y-104974547D01*
X118982208Y-104971694D01*
X130445226Y-104971694D01*
X130693538Y-105572655D01*
X131152927Y-106032846D01*
X131753453Y-106282206D01*
X132403694Y-106282774D01*
X132614049Y-106195857D01*
X133807463Y-106195857D01*
X134780020Y-107168415D01*
X135752577Y-106195857D01*
X140599423Y-106195857D01*
X141571980Y-107168415D01*
X142544537Y-106195857D01*
X142445938Y-105929055D01*
X141836398Y-105702619D01*
X141186603Y-105726679D01*
X140698022Y-105929055D01*
X140599423Y-106195857D01*
X135752577Y-106195857D01*
X135653978Y-105929055D01*
X135044438Y-105702619D01*
X134394643Y-105726679D01*
X133906062Y-105929055D01*
X133807463Y-106195857D01*
X132614049Y-106195857D01*
X133004655Y-106034462D01*
X133464846Y-105575073D01*
X133714206Y-104974547D01*
X133714208Y-104971694D01*
X142637226Y-104971694D01*
X142885538Y-105572655D01*
X143344927Y-106032846D01*
X143945453Y-106282206D01*
X144595694Y-106282774D01*
X144806049Y-106195857D01*
X145999463Y-106195857D01*
X146972020Y-107168415D01*
X147944577Y-106195857D01*
X147845978Y-105929055D01*
X147236438Y-105702619D01*
X146586643Y-105726679D01*
X146098062Y-105929055D01*
X145999463Y-106195857D01*
X144806049Y-106195857D01*
X145196655Y-106034462D01*
X145656846Y-105575073D01*
X145906206Y-104974547D01*
X145906774Y-104324306D01*
X145658462Y-103723345D01*
X145199073Y-103263154D01*
X144806499Y-103100143D01*
X145999463Y-103100143D01*
X146098062Y-103366945D01*
X146707602Y-103593381D01*
X147357397Y-103569321D01*
X147845978Y-103366945D01*
X147944577Y-103100143D01*
X146972020Y-102127585D01*
X145999463Y-103100143D01*
X144806499Y-103100143D01*
X144598547Y-103013794D01*
X143948306Y-103013226D01*
X143347345Y-103261538D01*
X142887154Y-103720927D01*
X142637794Y-104321453D01*
X142637226Y-104971694D01*
X133714208Y-104971694D01*
X133714774Y-104324306D01*
X133466462Y-103723345D01*
X133007073Y-103263154D01*
X132614499Y-103100143D01*
X133807463Y-103100143D01*
X133906062Y-103366945D01*
X134515602Y-103593381D01*
X135165397Y-103569321D01*
X135653978Y-103366945D01*
X135752577Y-103100143D01*
X140599423Y-103100143D01*
X140698022Y-103366945D01*
X141307562Y-103593381D01*
X141957357Y-103569321D01*
X142445938Y-103366945D01*
X142544537Y-103100143D01*
X141571980Y-102127585D01*
X140599423Y-103100143D01*
X135752577Y-103100143D01*
X134780020Y-102127585D01*
X133807463Y-103100143D01*
X132614499Y-103100143D01*
X132406547Y-103013794D01*
X131756306Y-103013226D01*
X131155345Y-103261538D01*
X130695154Y-103720927D01*
X130445794Y-104321453D01*
X130445226Y-104971694D01*
X118982208Y-104971694D01*
X118982774Y-104324306D01*
X118734462Y-103723345D01*
X118275073Y-103263154D01*
X117882499Y-103100143D01*
X119075463Y-103100143D01*
X119174062Y-103366945D01*
X119783602Y-103593381D01*
X120433397Y-103569321D01*
X120921978Y-103366945D01*
X121020577Y-103100143D01*
X128407423Y-103100143D01*
X128506022Y-103366945D01*
X129115562Y-103593381D01*
X129765357Y-103569321D01*
X130253938Y-103366945D01*
X130352537Y-103100143D01*
X129379980Y-102127585D01*
X128407423Y-103100143D01*
X121020577Y-103100143D01*
X120048020Y-102127585D01*
X119075463Y-103100143D01*
X117882499Y-103100143D01*
X117674547Y-103013794D01*
X117024306Y-103013226D01*
X116423345Y-103261538D01*
X115963154Y-103720927D01*
X115713794Y-104321453D01*
X115713226Y-104971694D01*
X106790208Y-104971694D01*
X106790774Y-104324306D01*
X106542462Y-103723345D01*
X106083073Y-103263154D01*
X105690499Y-103100143D01*
X106883463Y-103100143D01*
X106982062Y-103366945D01*
X107591602Y-103593381D01*
X108241397Y-103569321D01*
X108729978Y-103366945D01*
X108828577Y-103100143D01*
X113675423Y-103100143D01*
X113774022Y-103366945D01*
X114383562Y-103593381D01*
X115033357Y-103569321D01*
X115521938Y-103366945D01*
X115620537Y-103100143D01*
X114647980Y-102127585D01*
X113675423Y-103100143D01*
X108828577Y-103100143D01*
X107856020Y-102127585D01*
X106883463Y-103100143D01*
X105690499Y-103100143D01*
X105482547Y-103013794D01*
X104832306Y-103013226D01*
X104231345Y-103261538D01*
X103771154Y-103720927D01*
X103521794Y-104321453D01*
X103521226Y-104971694D01*
X100761000Y-104971694D01*
X100761000Y-103100143D01*
X101483423Y-103100143D01*
X101582022Y-103366945D01*
X102191562Y-103593381D01*
X102841357Y-103569321D01*
X103329938Y-103366945D01*
X103428537Y-103100143D01*
X102455980Y-102127585D01*
X101483423Y-103100143D01*
X100761000Y-103100143D01*
X100761000Y-101683562D01*
X100810579Y-101683562D01*
X100834639Y-102333357D01*
X101037015Y-102821938D01*
X101303817Y-102920537D01*
X102276375Y-101947980D01*
X102635585Y-101947980D01*
X103608143Y-102920537D01*
X103874945Y-102821938D01*
X104101381Y-102212398D01*
X104081800Y-101683562D01*
X106210619Y-101683562D01*
X106234679Y-102333357D01*
X106437055Y-102821938D01*
X106703857Y-102920537D01*
X107676415Y-101947980D01*
X108035625Y-101947980D01*
X109008183Y-102920537D01*
X109274985Y-102821938D01*
X109501421Y-102212398D01*
X109481840Y-101683562D01*
X113002579Y-101683562D01*
X113026639Y-102333357D01*
X113229015Y-102821938D01*
X113495817Y-102920537D01*
X114468375Y-101947980D01*
X114827585Y-101947980D01*
X115800143Y-102920537D01*
X116066945Y-102821938D01*
X116293381Y-102212398D01*
X116273800Y-101683562D01*
X118402619Y-101683562D01*
X118426679Y-102333357D01*
X118629055Y-102821938D01*
X118895857Y-102920537D01*
X119868415Y-101947980D01*
X120227625Y-101947980D01*
X121200183Y-102920537D01*
X121466985Y-102821938D01*
X121693421Y-102212398D01*
X121673840Y-101683562D01*
X127734579Y-101683562D01*
X127758639Y-102333357D01*
X127961015Y-102821938D01*
X128227817Y-102920537D01*
X129200375Y-101947980D01*
X129559585Y-101947980D01*
X130532143Y-102920537D01*
X130798945Y-102821938D01*
X131025381Y-102212398D01*
X131005800Y-101683562D01*
X133134619Y-101683562D01*
X133158679Y-102333357D01*
X133361055Y-102821938D01*
X133627857Y-102920537D01*
X134600415Y-101947980D01*
X134959625Y-101947980D01*
X135932183Y-102920537D01*
X136198985Y-102821938D01*
X136425421Y-102212398D01*
X136405840Y-101683562D01*
X139926579Y-101683562D01*
X139950639Y-102333357D01*
X140153015Y-102821938D01*
X140419817Y-102920537D01*
X141392375Y-101947980D01*
X141751585Y-101947980D01*
X142724143Y-102920537D01*
X142990945Y-102821938D01*
X143217381Y-102212398D01*
X143197800Y-101683562D01*
X145326619Y-101683562D01*
X145350679Y-102333357D01*
X145553055Y-102821938D01*
X145819857Y-102920537D01*
X146792415Y-101947980D01*
X147151625Y-101947980D01*
X148124183Y-102920537D01*
X148390985Y-102821938D01*
X148617421Y-102212398D01*
X148593361Y-101562603D01*
X148390985Y-101074022D01*
X148124183Y-100975423D01*
X147151625Y-101947980D01*
X146792415Y-101947980D01*
X145819857Y-100975423D01*
X145553055Y-101074022D01*
X145326619Y-101683562D01*
X143197800Y-101683562D01*
X143193321Y-101562603D01*
X142990945Y-101074022D01*
X142724143Y-100975423D01*
X141751585Y-101947980D01*
X141392375Y-101947980D01*
X140419817Y-100975423D01*
X140153015Y-101074022D01*
X139926579Y-101683562D01*
X136405840Y-101683562D01*
X136401361Y-101562603D01*
X136198985Y-101074022D01*
X135932183Y-100975423D01*
X134959625Y-101947980D01*
X134600415Y-101947980D01*
X133627857Y-100975423D01*
X133361055Y-101074022D01*
X133134619Y-101683562D01*
X131005800Y-101683562D01*
X131001321Y-101562603D01*
X130798945Y-101074022D01*
X130532143Y-100975423D01*
X129559585Y-101947980D01*
X129200375Y-101947980D01*
X128227817Y-100975423D01*
X127961015Y-101074022D01*
X127734579Y-101683562D01*
X121673840Y-101683562D01*
X121669361Y-101562603D01*
X121466985Y-101074022D01*
X121200183Y-100975423D01*
X120227625Y-101947980D01*
X119868415Y-101947980D01*
X118895857Y-100975423D01*
X118629055Y-101074022D01*
X118402619Y-101683562D01*
X116273800Y-101683562D01*
X116269321Y-101562603D01*
X116066945Y-101074022D01*
X115800143Y-100975423D01*
X114827585Y-101947980D01*
X114468375Y-101947980D01*
X113495817Y-100975423D01*
X113229015Y-101074022D01*
X113002579Y-101683562D01*
X109481840Y-101683562D01*
X109477361Y-101562603D01*
X109274985Y-101074022D01*
X109008183Y-100975423D01*
X108035625Y-101947980D01*
X107676415Y-101947980D01*
X106703857Y-100975423D01*
X106437055Y-101074022D01*
X106210619Y-101683562D01*
X104081800Y-101683562D01*
X104077321Y-101562603D01*
X103874945Y-101074022D01*
X103608143Y-100975423D01*
X102635585Y-101947980D01*
X102276375Y-101947980D01*
X101303817Y-100975423D01*
X101037015Y-101074022D01*
X100810579Y-101683562D01*
X100761000Y-101683562D01*
X100761000Y-100761000D01*
X101496290Y-100761000D01*
X101483423Y-100795817D01*
G36*
X124206000Y-126111000D02*
X125677394Y-126111000D01*
X125386197Y-126402197D01*
X125358334Y-126444211D01*
X125349000Y-126492000D01*
X125349000Y-133550314D01*
X121866314Y-137033000D01*
X110543686Y-137033000D01*
X113819501Y-133757185D01*
X119899682Y-133757185D01*
X119913827Y-133828684D01*
X120172855Y-134305540D01*
X120594651Y-134646972D01*
X121115000Y-134801000D01*
X121615000Y-134801000D01*
X121615000Y-133543000D01*
X121869000Y-133543000D01*
X121869000Y-134801000D01*
X122369000Y-134801000D01*
X122889349Y-134646972D01*
X123311145Y-134305540D01*
X123570173Y-133828684D01*
X123584318Y-133757185D01*
X123461656Y-133543000D01*
X121869000Y-133543000D01*
X121615000Y-133543000D01*
X120022344Y-133543000D01*
X119899682Y-133757185D01*
X113819501Y-133757185D01*
X114501871Y-133074815D01*
X119899682Y-133074815D01*
X120022344Y-133289000D01*
X121615000Y-133289000D01*
X121615000Y-132031000D01*
X121869000Y-132031000D01*
X121869000Y-133289000D01*
X123461656Y-133289000D01*
X123584318Y-133074815D01*
X123570173Y-133003316D01*
X123311145Y-132526460D01*
X122889349Y-132185028D01*
X122369000Y-132031000D01*
X121869000Y-132031000D01*
X121615000Y-132031000D01*
X121115000Y-132031000D01*
X120594651Y-132185028D01*
X120172855Y-132526460D01*
X119913827Y-133003316D01*
X119899682Y-133074815D01*
X114501871Y-133074815D01*
X115572186Y-132004500D01*
X120967500Y-132004500D01*
X121497517Y-131899073D01*
X121946843Y-131598843D01*
X123534343Y-130011343D01*
X123744898Y-129696225D01*
X123834573Y-129562017D01*
X123940000Y-129032000D01*
X123940000Y-126619000D01*
X123834573Y-126088983D01*
X123794606Y-126029168D01*
X124206000Y-126111000D01*
X124206000Y-126111000D01*
G37*
X124206000Y-126111000D02*
X125677394Y-126111000D01*
X125386197Y-126402197D01*
X125358334Y-126444211D01*
X125349000Y-126492000D01*
X125349000Y-133550314D01*
X121866314Y-137033000D01*
X110543686Y-137033000D01*
X113819501Y-133757185D01*
X119899682Y-133757185D01*
X119913827Y-133828684D01*
X120172855Y-134305540D01*
X120594651Y-134646972D01*
X121115000Y-134801000D01*
X121615000Y-134801000D01*
X121615000Y-133543000D01*
X121869000Y-133543000D01*
X121869000Y-134801000D01*
X122369000Y-134801000D01*
X122889349Y-134646972D01*
X123311145Y-134305540D01*
X123570173Y-133828684D01*
X123584318Y-133757185D01*
X123461656Y-133543000D01*
X121869000Y-133543000D01*
X121615000Y-133543000D01*
X120022344Y-133543000D01*
X119899682Y-133757185D01*
X113819501Y-133757185D01*
X114501871Y-133074815D01*
X119899682Y-133074815D01*
X120022344Y-133289000D01*
X121615000Y-133289000D01*
X121615000Y-132031000D01*
X121869000Y-132031000D01*
X121869000Y-133289000D01*
X123461656Y-133289000D01*
X123584318Y-133074815D01*
X123570173Y-133003316D01*
X123311145Y-132526460D01*
X122889349Y-132185028D01*
X122369000Y-132031000D01*
X121869000Y-132031000D01*
X121615000Y-132031000D01*
X121115000Y-132031000D01*
X120594651Y-132185028D01*
X120172855Y-132526460D01*
X119913827Y-133003316D01*
X119899682Y-133074815D01*
X114501871Y-133074815D01*
X115572186Y-132004500D01*
X120967500Y-132004500D01*
X121497517Y-131899073D01*
X121946843Y-131598843D01*
X123534343Y-130011343D01*
X123744898Y-129696225D01*
X123834573Y-129562017D01*
X123940000Y-129032000D01*
X123940000Y-126619000D01*
X123834573Y-126088983D01*
X123794606Y-126029168D01*
X124206000Y-126111000D01*
G36*
X139585000Y-121604686D02*
X139585000Y-124164314D01*
X138266343Y-122845657D01*
X138211482Y-122809000D01*
X137817017Y-122545427D01*
X137287000Y-122440000D01*
X129454686Y-122440000D01*
X130240686Y-121654000D01*
X133985000Y-121654000D01*
X134515017Y-121548573D01*
X134964343Y-121248343D01*
X135264573Y-120799017D01*
X135370000Y-120269000D01*
X135264573Y-119738983D01*
X134964343Y-119289657D01*
X134515017Y-118989427D01*
X133985000Y-118884000D01*
X129667000Y-118884000D01*
X129560502Y-118905184D01*
X130494686Y-117971000D01*
X133731000Y-117971000D01*
X134261017Y-117865573D01*
X134710343Y-117565343D01*
X135010573Y-117116017D01*
X135024801Y-117044487D01*
X139585000Y-121604686D01*
X139585000Y-121604686D01*
G37*
X139585000Y-121604686D02*
X139585000Y-124164314D01*
X138266343Y-122845657D01*
X138211482Y-122809000D01*
X137817017Y-122545427D01*
X137287000Y-122440000D01*
X129454686Y-122440000D01*
X130240686Y-121654000D01*
X133985000Y-121654000D01*
X134515017Y-121548573D01*
X134964343Y-121248343D01*
X135264573Y-120799017D01*
X135370000Y-120269000D01*
X135264573Y-119738983D01*
X134964343Y-119289657D01*
X134515017Y-118989427D01*
X133985000Y-118884000D01*
X129667000Y-118884000D01*
X129560502Y-118905184D01*
X130494686Y-117971000D01*
X133731000Y-117971000D01*
X134261017Y-117865573D01*
X134710343Y-117565343D01*
X135010573Y-117116017D01*
X135024801Y-117044487D01*
X139585000Y-121604686D01*
G36*
X111415657Y-117692343D02*
X111864983Y-117992573D01*
X112395000Y-118098000D01*
X121420120Y-118098000D01*
X121419803Y-118461775D01*
X121592233Y-118879086D01*
X121911235Y-119198645D01*
X122328244Y-119371803D01*
X122779775Y-119372197D01*
X123197086Y-119199767D01*
X123516645Y-118880765D01*
X123689803Y-118463756D01*
X123690122Y-118098000D01*
X124140314Y-118098000D01*
X125131657Y-119089343D01*
X125580983Y-119389573D01*
X126111000Y-119495000D01*
X128397000Y-119495000D01*
X128503498Y-119473816D01*
X126045314Y-121932000D01*
X125795686Y-121932000D01*
X125312343Y-121448657D01*
X125026639Y-121257756D01*
X124863017Y-121148427D01*
X124333000Y-121043000D01*
X121296566Y-121043000D01*
X121400000Y-120523000D01*
X121294573Y-119992983D01*
X120994343Y-119543657D01*
X120545017Y-119243427D01*
X120015000Y-119138000D01*
X111379000Y-119138000D01*
X110859000Y-119241434D01*
X110859000Y-117135686D01*
X111415657Y-117692343D01*
X111415657Y-117692343D01*
G37*
X111415657Y-117692343D02*
X111864983Y-117992573D01*
X112395000Y-118098000D01*
X121420120Y-118098000D01*
X121419803Y-118461775D01*
X121592233Y-118879086D01*
X121911235Y-119198645D01*
X122328244Y-119371803D01*
X122779775Y-119372197D01*
X123197086Y-119199767D01*
X123516645Y-118880765D01*
X123689803Y-118463756D01*
X123690122Y-118098000D01*
X124140314Y-118098000D01*
X125131657Y-119089343D01*
X125580983Y-119389573D01*
X126111000Y-119495000D01*
X128397000Y-119495000D01*
X128503498Y-119473816D01*
X126045314Y-121932000D01*
X125795686Y-121932000D01*
X125312343Y-121448657D01*
X125026639Y-121257756D01*
X124863017Y-121148427D01*
X124333000Y-121043000D01*
X121296566Y-121043000D01*
X121400000Y-120523000D01*
X121294573Y-119992983D01*
X120994343Y-119543657D01*
X120545017Y-119243427D01*
X120015000Y-119138000D01*
X111379000Y-119138000D01*
X110859000Y-119241434D01*
X110859000Y-117135686D01*
X111415657Y-117692343D01*
G36*
X126492000Y-116205000D02*
X128343314Y-116205000D01*
X127823314Y-116725000D01*
X126684686Y-116725000D01*
X126083413Y-116123727D01*
X126492000Y-116205000D01*
X126492000Y-116205000D01*
G37*
X126492000Y-116205000D02*
X128343314Y-116205000D01*
X127823314Y-116725000D01*
X126684686Y-116725000D01*
X126083413Y-116123727D01*
X126492000Y-116205000D01*
G36*
X127516197Y-112930244D02*
X127515803Y-113381775D01*
X127688233Y-113799086D01*
X127807938Y-113919000D01*
X126965446Y-113919000D01*
X126549531Y-113503085D01*
X126501573Y-113261983D01*
X126253690Y-112891000D01*
X127532493Y-112891000D01*
X127516197Y-112930244D01*
X127516197Y-112930244D01*
G37*
X127516197Y-112930244D02*
X127515803Y-113381775D01*
X127688233Y-113799086D01*
X127807938Y-113919000D01*
X126965446Y-113919000D01*
X126549531Y-113503085D01*
X126501573Y-113261983D01*
X126253690Y-112891000D01*
X127532493Y-112891000D01*
X127516197Y-112930244D01*
G36*
X143637000Y-139244606D02*
X143637000Y-144210569D01*
X143624560Y-144272000D01*
X143624560Y-146304000D01*
X143637000Y-146370113D01*
X143637000Y-146750569D01*
X143624560Y-146812000D01*
X143624560Y-148844000D01*
X143637000Y-148910113D01*
X143637000Y-149175000D01*
X110617000Y-149175000D01*
X110617000Y-147544775D01*
X111640803Y-147544775D01*
X111813233Y-147962086D01*
X112132235Y-148281645D01*
X112549244Y-148454803D01*
X113000775Y-148455197D01*
X113418086Y-148282767D01*
X113737645Y-147963765D01*
X113910803Y-147546756D01*
X113911197Y-147095225D01*
X113907504Y-147086285D01*
X114438760Y-147086285D01*
X114649169Y-147595515D01*
X115038436Y-147985461D01*
X115547298Y-148196759D01*
X116098285Y-148197240D01*
X116607515Y-147986831D01*
X116997461Y-147597564D01*
X117059981Y-147447000D01*
X122119245Y-147447000D01*
X122055197Y-147601244D01*
X122054803Y-148052775D01*
X122227233Y-148470086D01*
X122546235Y-148789645D01*
X122963244Y-148962803D01*
X123414775Y-148963197D01*
X123825495Y-148793490D01*
X124233244Y-148962803D01*
X124684775Y-148963197D01*
X125102086Y-148790767D01*
X125421645Y-148471765D01*
X125594803Y-148054756D01*
X125595197Y-147603225D01*
X125530646Y-147447000D01*
X133096000Y-147447000D01*
X133533407Y-147359994D01*
X133904223Y-147112223D01*
X139111223Y-141905223D01*
X139358994Y-141534407D01*
X139446000Y-141097000D01*
X139446000Y-141063972D01*
X139476461Y-141033564D01*
X139687759Y-140524702D01*
X139688240Y-139973715D01*
X139477831Y-139464485D01*
X139088564Y-139074539D01*
X138579702Y-138863241D01*
X138028715Y-138862760D01*
X137519485Y-139073169D01*
X137129539Y-139462436D01*
X136918241Y-139971298D01*
X136917760Y-140522285D01*
X137018196Y-140765358D01*
X132622554Y-145161000D01*
X120450755Y-145161000D01*
X120514803Y-145006756D01*
X120515197Y-144555225D01*
X120342767Y-144137914D01*
X120023765Y-143818355D01*
X119606756Y-143645197D01*
X119155225Y-143644803D01*
X118737914Y-143817233D01*
X118418355Y-144136235D01*
X118245197Y-144553244D01*
X118244803Y-145004775D01*
X118309354Y-145161000D01*
X116332000Y-145161000D01*
X115894593Y-145248006D01*
X115626967Y-145426827D01*
X115549715Y-145426760D01*
X115040485Y-145637169D01*
X114650539Y-146026436D01*
X114439241Y-146535298D01*
X114438760Y-147086285D01*
X113907504Y-147086285D01*
X113738767Y-146677914D01*
X113419765Y-146358355D01*
X113002756Y-146185197D01*
X112551225Y-146184803D01*
X112133914Y-146357233D01*
X111814355Y-146676235D01*
X111641197Y-147093244D01*
X111640803Y-147544775D01*
X110617000Y-147544775D01*
X110617000Y-142875000D01*
X126238000Y-142875000D01*
X126287410Y-142864994D01*
X126327803Y-142837803D01*
X128613803Y-140551803D01*
X128641666Y-140509789D01*
X128651000Y-140462000D01*
X128651000Y-140432775D01*
X131960803Y-140432775D01*
X132133233Y-140850086D01*
X132452235Y-141169645D01*
X132869244Y-141342803D01*
X133320775Y-141343197D01*
X133738086Y-141170767D01*
X134057645Y-140851765D01*
X134230803Y-140434756D01*
X134230804Y-140432775D01*
X134500803Y-140432775D01*
X134673233Y-140850086D01*
X134992235Y-141169645D01*
X135409244Y-141342803D01*
X135860775Y-141343197D01*
X136278086Y-141170767D01*
X136597645Y-140851765D01*
X136770803Y-140434756D01*
X136771197Y-139983225D01*
X136598767Y-139565914D01*
X136279765Y-139246355D01*
X135862756Y-139073197D01*
X135411225Y-139072803D01*
X134993914Y-139245233D01*
X134674355Y-139564235D01*
X134501197Y-139981244D01*
X134500803Y-140432775D01*
X134230804Y-140432775D01*
X134231197Y-139983225D01*
X134058767Y-139565914D01*
X133739765Y-139246355D01*
X133322756Y-139073197D01*
X132871225Y-139072803D01*
X132453914Y-139245233D01*
X132134355Y-139564235D01*
X131961197Y-139981244D01*
X131960803Y-140432775D01*
X128651000Y-140432775D01*
X128651000Y-136779000D01*
X141171394Y-136779000D01*
X143637000Y-139244606D01*
X143637000Y-139244606D01*
G37*
X143637000Y-139244606D02*
X143637000Y-144210569D01*
X143624560Y-144272000D01*
X143624560Y-146304000D01*
X143637000Y-146370113D01*
X143637000Y-146750569D01*
X143624560Y-146812000D01*
X143624560Y-148844000D01*
X143637000Y-148910113D01*
X143637000Y-149175000D01*
X110617000Y-149175000D01*
X110617000Y-147544775D01*
X111640803Y-147544775D01*
X111813233Y-147962086D01*
X112132235Y-148281645D01*
X112549244Y-148454803D01*
X113000775Y-148455197D01*
X113418086Y-148282767D01*
X113737645Y-147963765D01*
X113910803Y-147546756D01*
X113911197Y-147095225D01*
X113907504Y-147086285D01*
X114438760Y-147086285D01*
X114649169Y-147595515D01*
X115038436Y-147985461D01*
X115547298Y-148196759D01*
X116098285Y-148197240D01*
X116607515Y-147986831D01*
X116997461Y-147597564D01*
X117059981Y-147447000D01*
X122119245Y-147447000D01*
X122055197Y-147601244D01*
X122054803Y-148052775D01*
X122227233Y-148470086D01*
X122546235Y-148789645D01*
X122963244Y-148962803D01*
X123414775Y-148963197D01*
X123825495Y-148793490D01*
X124233244Y-148962803D01*
X124684775Y-148963197D01*
X125102086Y-148790767D01*
X125421645Y-148471765D01*
X125594803Y-148054756D01*
X125595197Y-147603225D01*
X125530646Y-147447000D01*
X133096000Y-147447000D01*
X133533407Y-147359994D01*
X133904223Y-147112223D01*
X139111223Y-141905223D01*
X139358994Y-141534407D01*
X139446000Y-141097000D01*
X139446000Y-141063972D01*
X139476461Y-141033564D01*
X139687759Y-140524702D01*
X139688240Y-139973715D01*
X139477831Y-139464485D01*
X139088564Y-139074539D01*
X138579702Y-138863241D01*
X138028715Y-138862760D01*
X137519485Y-139073169D01*
X137129539Y-139462436D01*
X136918241Y-139971298D01*
X136917760Y-140522285D01*
X137018196Y-140765358D01*
X132622554Y-145161000D01*
X120450755Y-145161000D01*
X120514803Y-145006756D01*
X120515197Y-144555225D01*
X120342767Y-144137914D01*
X120023765Y-143818355D01*
X119606756Y-143645197D01*
X119155225Y-143644803D01*
X118737914Y-143817233D01*
X118418355Y-144136235D01*
X118245197Y-144553244D01*
X118244803Y-145004775D01*
X118309354Y-145161000D01*
X116332000Y-145161000D01*
X115894593Y-145248006D01*
X115626967Y-145426827D01*
X115549715Y-145426760D01*
X115040485Y-145637169D01*
X114650539Y-146026436D01*
X114439241Y-146535298D01*
X114438760Y-147086285D01*
X113907504Y-147086285D01*
X113738767Y-146677914D01*
X113419765Y-146358355D01*
X113002756Y-146185197D01*
X112551225Y-146184803D01*
X112133914Y-146357233D01*
X111814355Y-146676235D01*
X111641197Y-147093244D01*
X111640803Y-147544775D01*
X110617000Y-147544775D01*
X110617000Y-142875000D01*
X126238000Y-142875000D01*
X126287410Y-142864994D01*
X126327803Y-142837803D01*
X128613803Y-140551803D01*
X128641666Y-140509789D01*
X128651000Y-140462000D01*
X128651000Y-140432775D01*
X131960803Y-140432775D01*
X132133233Y-140850086D01*
X132452235Y-141169645D01*
X132869244Y-141342803D01*
X133320775Y-141343197D01*
X133738086Y-141170767D01*
X134057645Y-140851765D01*
X134230803Y-140434756D01*
X134230804Y-140432775D01*
X134500803Y-140432775D01*
X134673233Y-140850086D01*
X134992235Y-141169645D01*
X135409244Y-141342803D01*
X135860775Y-141343197D01*
X136278086Y-141170767D01*
X136597645Y-140851765D01*
X136770803Y-140434756D01*
X136771197Y-139983225D01*
X136598767Y-139565914D01*
X136279765Y-139246355D01*
X135862756Y-139073197D01*
X135411225Y-139072803D01*
X134993914Y-139245233D01*
X134674355Y-139564235D01*
X134501197Y-139981244D01*
X134500803Y-140432775D01*
X134230804Y-140432775D01*
X134231197Y-139983225D01*
X134058767Y-139565914D01*
X133739765Y-139246355D01*
X133322756Y-139073197D01*
X132871225Y-139072803D01*
X132453914Y-139245233D01*
X132134355Y-139564235D01*
X131961197Y-139981244D01*
X131960803Y-140432775D01*
X128651000Y-140432775D01*
X128651000Y-136779000D01*
X141171394Y-136779000D01*
X143637000Y-139244606D01*
M02*
