G04 #@! TF.FileFunction,Legend,Top*
%FSLAX46Y46*%
G04 Gerber Fmt 4.6, Leading zero omitted, Abs format (unit mm)*
G04 Created by KiCad (PCBNEW 4.0.0-2.201512091501+6195~38~ubuntu14.04.1-stable) date Wed 16 Dec 2015 17:24:57 GMT*
%MOMM*%
G01*
G04 APERTURE LIST*
%ADD10C,0.100000*%
%ADD11C,0.110000*%
%ADD12C,0.150000*%
%ADD13C,0.300000*%
%ADD14C,0.200000*%
%ADD15C,0.125000*%
%ADD16C,1.000000*%
%ADD17C,0.381000*%
%ADD18C,0.152400*%
G04 APERTURE END LIST*
D10*
X147485143Y-149254000D02*
X147442286Y-149232571D01*
X147378000Y-149232571D01*
X147313715Y-149254000D01*
X147270857Y-149296857D01*
X147249429Y-149339714D01*
X147228000Y-149425429D01*
X147228000Y-149489714D01*
X147249429Y-149575429D01*
X147270857Y-149618286D01*
X147313715Y-149661143D01*
X147378000Y-149682571D01*
X147420857Y-149682571D01*
X147485143Y-149661143D01*
X147506572Y-149639714D01*
X147506572Y-149489714D01*
X147420857Y-149489714D01*
X147699429Y-149682571D02*
X147699429Y-149232571D01*
X147956572Y-149682571D01*
X147956572Y-149232571D01*
X148170858Y-149682571D02*
X148170858Y-149232571D01*
X148278001Y-149232571D01*
X148342286Y-149254000D01*
X148385144Y-149296857D01*
X148406572Y-149339714D01*
X148428001Y-149425429D01*
X148428001Y-149489714D01*
X148406572Y-149575429D01*
X148385144Y-149618286D01*
X148342286Y-149661143D01*
X148278001Y-149682571D01*
X148170858Y-149682571D01*
X143288143Y-149509856D02*
X143288143Y-149166999D01*
X143459571Y-149338428D02*
X143116714Y-149338428D01*
X143459571Y-148716999D02*
X143459571Y-148974142D01*
X143459571Y-148845570D02*
X143009571Y-148845570D01*
X143073857Y-148888427D01*
X143116714Y-148931285D01*
X143138143Y-148974142D01*
X143052429Y-148545571D02*
X143031000Y-148524142D01*
X143009571Y-148481285D01*
X143009571Y-148374142D01*
X143031000Y-148331285D01*
X143052429Y-148309856D01*
X143095286Y-148288428D01*
X143138143Y-148288428D01*
X143202429Y-148309856D01*
X143459571Y-148566999D01*
X143459571Y-148288428D01*
X143009571Y-148159857D02*
X143459571Y-148009857D01*
X143009571Y-147859857D01*
X108236143Y-148727999D02*
X108236143Y-148385142D01*
X108407571Y-148556571D02*
X108064714Y-148556571D01*
X107957571Y-148213713D02*
X107957571Y-147913713D01*
X108407571Y-148106570D01*
X108364714Y-147742285D02*
X108386143Y-147720857D01*
X108407571Y-147742285D01*
X108386143Y-147763714D01*
X108364714Y-147742285D01*
X108407571Y-147742285D01*
X107957571Y-147313713D02*
X107957571Y-147527999D01*
X108171857Y-147549428D01*
X108150429Y-147527999D01*
X108129000Y-147485142D01*
X108129000Y-147377999D01*
X108150429Y-147335142D01*
X108171857Y-147313713D01*
X108214714Y-147292285D01*
X108321857Y-147292285D01*
X108364714Y-147313713D01*
X108386143Y-147335142D01*
X108407571Y-147377999D01*
X108407571Y-147485142D01*
X108386143Y-147527999D01*
X108364714Y-147549428D01*
X107957571Y-147163714D02*
X108407571Y-147013714D01*
X107957571Y-146863714D01*
X107979000Y-145823714D02*
X107957571Y-145866571D01*
X107957571Y-145930857D01*
X107979000Y-145995142D01*
X108021857Y-146038000D01*
X108064714Y-146059428D01*
X108150429Y-146080857D01*
X108214714Y-146080857D01*
X108300429Y-146059428D01*
X108343286Y-146038000D01*
X108386143Y-145995142D01*
X108407571Y-145930857D01*
X108407571Y-145888000D01*
X108386143Y-145823714D01*
X108364714Y-145802285D01*
X108214714Y-145802285D01*
X108214714Y-145888000D01*
X108407571Y-145609428D02*
X107957571Y-145609428D01*
X108407571Y-145352285D01*
X107957571Y-145352285D01*
X108407571Y-145137999D02*
X107957571Y-145137999D01*
X107957571Y-145030856D01*
X107979000Y-144966571D01*
X108021857Y-144923713D01*
X108064714Y-144902285D01*
X108150429Y-144880856D01*
X108214714Y-144880856D01*
X108300429Y-144902285D01*
X108343286Y-144923713D01*
X108386143Y-144966571D01*
X108407571Y-145030856D01*
X108407571Y-145137999D01*
X108279000Y-144709428D02*
X108279000Y-144495142D01*
X108407571Y-144752285D02*
X107957571Y-144602285D01*
X108407571Y-144452285D01*
X108236143Y-143647999D02*
X108236143Y-143305142D01*
X107957571Y-143133713D02*
X107957571Y-142833713D01*
X108407571Y-143026570D01*
X108364714Y-142662285D02*
X108386143Y-142640857D01*
X108407571Y-142662285D01*
X108386143Y-142683714D01*
X108364714Y-142662285D01*
X108407571Y-142662285D01*
X107957571Y-142233713D02*
X107957571Y-142447999D01*
X108171857Y-142469428D01*
X108150429Y-142447999D01*
X108129000Y-142405142D01*
X108129000Y-142297999D01*
X108150429Y-142255142D01*
X108171857Y-142233713D01*
X108214714Y-142212285D01*
X108321857Y-142212285D01*
X108364714Y-142233713D01*
X108386143Y-142255142D01*
X108407571Y-142297999D01*
X108407571Y-142405142D01*
X108386143Y-142447999D01*
X108364714Y-142469428D01*
X107957571Y-142083714D02*
X108407571Y-141933714D01*
X107957571Y-141783714D01*
X106083143Y-137951000D02*
X106040286Y-137929571D01*
X105976000Y-137929571D01*
X105911715Y-137951000D01*
X105868857Y-137993857D01*
X105847429Y-138036714D01*
X105826000Y-138122429D01*
X105826000Y-138186714D01*
X105847429Y-138272429D01*
X105868857Y-138315286D01*
X105911715Y-138358143D01*
X105976000Y-138379571D01*
X106018857Y-138379571D01*
X106083143Y-138358143D01*
X106104572Y-138336714D01*
X106104572Y-138186714D01*
X106018857Y-138186714D01*
X106297429Y-138379571D02*
X106297429Y-137929571D01*
X106554572Y-138379571D01*
X106554572Y-137929571D01*
X106768858Y-138379571D02*
X106768858Y-137929571D01*
X106876001Y-137929571D01*
X106940286Y-137951000D01*
X106983144Y-137993857D01*
X107004572Y-138036714D01*
X107026001Y-138122429D01*
X107026001Y-138186714D01*
X107004572Y-138272429D01*
X106983144Y-138315286D01*
X106940286Y-138358143D01*
X106876001Y-138379571D01*
X106768858Y-138379571D01*
X102828429Y-138208143D02*
X103171286Y-138208143D01*
X102999857Y-138379571D02*
X102999857Y-138036714D01*
X103599858Y-137929571D02*
X103385572Y-137929571D01*
X103364143Y-138143857D01*
X103385572Y-138122429D01*
X103428429Y-138101000D01*
X103535572Y-138101000D01*
X103578429Y-138122429D01*
X103599858Y-138143857D01*
X103621286Y-138186714D01*
X103621286Y-138293857D01*
X103599858Y-138336714D01*
X103578429Y-138358143D01*
X103535572Y-138379571D01*
X103428429Y-138379571D01*
X103385572Y-138358143D01*
X103364143Y-138336714D01*
X103749857Y-137929571D02*
X103899857Y-138379571D01*
X104049857Y-137929571D01*
X104199857Y-138379571D02*
X104199857Y-137929571D01*
X104307000Y-137929571D01*
X104371285Y-137951000D01*
X104414143Y-137993857D01*
X104435571Y-138036714D01*
X104457000Y-138122429D01*
X104457000Y-138186714D01*
X104435571Y-138272429D01*
X104414143Y-138315286D01*
X104371285Y-138358143D01*
X104307000Y-138379571D01*
X104199857Y-138379571D01*
X102140143Y-143540856D02*
X102140143Y-143197999D01*
X102311571Y-142747999D02*
X102311571Y-143005142D01*
X102311571Y-142876570D02*
X101861571Y-142876570D01*
X101925857Y-142919427D01*
X101968714Y-142962285D01*
X101990143Y-143005142D01*
X102311571Y-142533714D02*
X102311571Y-142447999D01*
X102290143Y-142405142D01*
X102268714Y-142383714D01*
X102204429Y-142340856D01*
X102118714Y-142319428D01*
X101947286Y-142319428D01*
X101904429Y-142340856D01*
X101883000Y-142362285D01*
X101861571Y-142405142D01*
X101861571Y-142490856D01*
X101883000Y-142533714D01*
X101904429Y-142555142D01*
X101947286Y-142576571D01*
X102054429Y-142576571D01*
X102097286Y-142555142D01*
X102118714Y-142533714D01*
X102140143Y-142490856D01*
X102140143Y-142405142D01*
X102118714Y-142362285D01*
X102097286Y-142340856D01*
X102054429Y-142319428D01*
X101861571Y-142190857D02*
X102311571Y-142040857D01*
X101861571Y-141890857D01*
X101883000Y-145823714D02*
X101861571Y-145866571D01*
X101861571Y-145930857D01*
X101883000Y-145995142D01*
X101925857Y-146038000D01*
X101968714Y-146059428D01*
X102054429Y-146080857D01*
X102118714Y-146080857D01*
X102204429Y-146059428D01*
X102247286Y-146038000D01*
X102290143Y-145995142D01*
X102311571Y-145930857D01*
X102311571Y-145888000D01*
X102290143Y-145823714D01*
X102268714Y-145802285D01*
X102118714Y-145802285D01*
X102118714Y-145888000D01*
X102311571Y-145609428D02*
X101861571Y-145609428D01*
X102311571Y-145352285D01*
X101861571Y-145352285D01*
X102311571Y-145137999D02*
X101861571Y-145137999D01*
X101861571Y-145030856D01*
X101883000Y-144966571D01*
X101925857Y-144923713D01*
X101968714Y-144902285D01*
X102054429Y-144880856D01*
X102118714Y-144880856D01*
X102204429Y-144902285D01*
X102247286Y-144923713D01*
X102290143Y-144966571D01*
X102311571Y-145030856D01*
X102311571Y-145137999D01*
X102183000Y-144709428D02*
X102183000Y-144495142D01*
X102311571Y-144752285D02*
X101861571Y-144602285D01*
X102311571Y-144452285D01*
X102140143Y-148620856D02*
X102140143Y-148277999D01*
X102311571Y-148449428D02*
X101968714Y-148449428D01*
X102311571Y-147827999D02*
X102311571Y-148085142D01*
X102311571Y-147956570D02*
X101861571Y-147956570D01*
X101925857Y-147999427D01*
X101968714Y-148042285D01*
X101990143Y-148085142D01*
X102311571Y-147613714D02*
X102311571Y-147527999D01*
X102290143Y-147485142D01*
X102268714Y-147463714D01*
X102204429Y-147420856D01*
X102118714Y-147399428D01*
X101947286Y-147399428D01*
X101904429Y-147420856D01*
X101883000Y-147442285D01*
X101861571Y-147485142D01*
X101861571Y-147570856D01*
X101883000Y-147613714D01*
X101904429Y-147635142D01*
X101947286Y-147656571D01*
X102054429Y-147656571D01*
X102097286Y-147635142D01*
X102118714Y-147613714D01*
X102140143Y-147570856D01*
X102140143Y-147485142D01*
X102118714Y-147442285D01*
X102097286Y-147420856D01*
X102054429Y-147399428D01*
X101861571Y-147270857D02*
X102311571Y-147120857D01*
X101861571Y-146970857D01*
X131784858Y-123836000D02*
X132070572Y-123836000D01*
X131727715Y-124007429D02*
X131927715Y-123407429D01*
X132127715Y-124007429D01*
X132642001Y-123436000D02*
X132584858Y-123407429D01*
X132499144Y-123407429D01*
X132413429Y-123436000D01*
X132356287Y-123493143D01*
X132327715Y-123550286D01*
X132299144Y-123664571D01*
X132299144Y-123750286D01*
X132327715Y-123864571D01*
X132356287Y-123921714D01*
X132413429Y-123978857D01*
X132499144Y-124007429D01*
X132556287Y-124007429D01*
X132642001Y-123978857D01*
X132670572Y-123950286D01*
X132670572Y-123750286D01*
X132556287Y-123750286D01*
X132927715Y-124007429D02*
X132927715Y-123407429D01*
X133270572Y-124007429D01*
X133270572Y-123407429D01*
X133556286Y-124007429D02*
X133556286Y-123407429D01*
X133699143Y-123407429D01*
X133784858Y-123436000D01*
X133842000Y-123493143D01*
X133870572Y-123550286D01*
X133899143Y-123664571D01*
X133899143Y-123750286D01*
X133870572Y-123864571D01*
X133842000Y-123921714D01*
X133784858Y-123978857D01*
X133699143Y-124007429D01*
X133556286Y-124007429D01*
X131770572Y-124947429D02*
X131770572Y-124347429D01*
X131913429Y-124347429D01*
X131999144Y-124376000D01*
X132056286Y-124433143D01*
X132084858Y-124490286D01*
X132113429Y-124604571D01*
X132113429Y-124690286D01*
X132084858Y-124804571D01*
X132056286Y-124861714D01*
X131999144Y-124918857D01*
X131913429Y-124947429D01*
X131770572Y-124947429D01*
X132684858Y-124376000D02*
X132627715Y-124347429D01*
X132542001Y-124347429D01*
X132456286Y-124376000D01*
X132399144Y-124433143D01*
X132370572Y-124490286D01*
X132342001Y-124604571D01*
X132342001Y-124690286D01*
X132370572Y-124804571D01*
X132399144Y-124861714D01*
X132456286Y-124918857D01*
X132542001Y-124947429D01*
X132599144Y-124947429D01*
X132684858Y-124918857D01*
X132713429Y-124890286D01*
X132713429Y-124690286D01*
X132599144Y-124690286D01*
X132970572Y-124947429D02*
X132970572Y-124347429D01*
X133313429Y-124947429D01*
X133313429Y-124347429D01*
X133599143Y-124947429D02*
X133599143Y-124347429D01*
X133742000Y-124347429D01*
X133827715Y-124376000D01*
X133884857Y-124433143D01*
X133913429Y-124490286D01*
X133942000Y-124604571D01*
X133942000Y-124690286D01*
X133913429Y-124804571D01*
X133884857Y-124861714D01*
X133827715Y-124918857D01*
X133742000Y-124947429D01*
X133599143Y-124947429D01*
D11*
X101408667Y-148984664D02*
X100708667Y-148984664D01*
X100708667Y-148717998D01*
X100742000Y-148651331D01*
X100775333Y-148617998D01*
X100842000Y-148584664D01*
X100942000Y-148584664D01*
X101008667Y-148617998D01*
X101042000Y-148651331D01*
X101075333Y-148717998D01*
X101075333Y-148984664D01*
X101408667Y-148184664D02*
X101375333Y-148251331D01*
X101342000Y-148284664D01*
X101275333Y-148317998D01*
X101075333Y-148317998D01*
X101008667Y-148284664D01*
X100975333Y-148251331D01*
X100942000Y-148184664D01*
X100942000Y-148084664D01*
X100975333Y-148017998D01*
X101008667Y-147984664D01*
X101075333Y-147951331D01*
X101275333Y-147951331D01*
X101342000Y-147984664D01*
X101375333Y-148017998D01*
X101408667Y-148084664D01*
X101408667Y-148184664D01*
X100942000Y-147717998D02*
X101408667Y-147584665D01*
X101075333Y-147451331D01*
X101408667Y-147317998D01*
X100942000Y-147184665D01*
X101375333Y-146651332D02*
X101408667Y-146717998D01*
X101408667Y-146851332D01*
X101375333Y-146917998D01*
X101308667Y-146951332D01*
X101042000Y-146951332D01*
X100975333Y-146917998D01*
X100942000Y-146851332D01*
X100942000Y-146717998D01*
X100975333Y-146651332D01*
X101042000Y-146617998D01*
X101108667Y-146617998D01*
X101175333Y-146951332D01*
X101408667Y-146317998D02*
X100942000Y-146317998D01*
X101075333Y-146317998D02*
X101008667Y-146284665D01*
X100975333Y-146251332D01*
X100942000Y-146184665D01*
X100942000Y-146117998D01*
X101375333Y-145384666D02*
X101408667Y-145284666D01*
X101408667Y-145117999D01*
X101375333Y-145051332D01*
X101342000Y-145017999D01*
X101275333Y-144984666D01*
X101208667Y-144984666D01*
X101142000Y-145017999D01*
X101108667Y-145051332D01*
X101075333Y-145117999D01*
X101042000Y-145251332D01*
X101008667Y-145317999D01*
X100975333Y-145351332D01*
X100908667Y-145384666D01*
X100842000Y-145384666D01*
X100775333Y-145351332D01*
X100742000Y-145317999D01*
X100708667Y-145251332D01*
X100708667Y-145084666D01*
X100742000Y-144984666D01*
X100942000Y-144384665D02*
X101408667Y-144384665D01*
X100942000Y-144684665D02*
X101308667Y-144684665D01*
X101375333Y-144651332D01*
X101408667Y-144584665D01*
X101408667Y-144484665D01*
X101375333Y-144417999D01*
X101342000Y-144384665D01*
X100942000Y-144051332D02*
X101642000Y-144051332D01*
X100975333Y-144051332D02*
X100942000Y-143984666D01*
X100942000Y-143851332D01*
X100975333Y-143784666D01*
X101008667Y-143751332D01*
X101075333Y-143717999D01*
X101275333Y-143717999D01*
X101342000Y-143751332D01*
X101375333Y-143784666D01*
X101408667Y-143851332D01*
X101408667Y-143984666D01*
X101375333Y-144051332D01*
X100942000Y-143417999D02*
X101642000Y-143417999D01*
X100975333Y-143417999D02*
X100942000Y-143351333D01*
X100942000Y-143217999D01*
X100975333Y-143151333D01*
X101008667Y-143117999D01*
X101075333Y-143084666D01*
X101275333Y-143084666D01*
X101342000Y-143117999D01*
X101375333Y-143151333D01*
X101408667Y-143217999D01*
X101408667Y-143351333D01*
X101375333Y-143417999D01*
X101408667Y-142684666D02*
X101375333Y-142751333D01*
X101308667Y-142784666D01*
X100708667Y-142784666D01*
X100942000Y-142484666D02*
X101408667Y-142317999D01*
X100942000Y-142151333D02*
X101408667Y-142317999D01*
X101575333Y-142384666D01*
X101608667Y-142417999D01*
X101642000Y-142484666D01*
X101408667Y-141351333D02*
X100708667Y-141351333D01*
X100942000Y-141018000D02*
X101408667Y-141018000D01*
X101008667Y-141018000D02*
X100975333Y-140984667D01*
X100942000Y-140918000D01*
X100942000Y-140818000D01*
X100975333Y-140751334D01*
X101042000Y-140718000D01*
X101408667Y-140718000D01*
X100942000Y-140384667D02*
X101642000Y-140384667D01*
X100975333Y-140384667D02*
X100942000Y-140318001D01*
X100942000Y-140184667D01*
X100975333Y-140118001D01*
X101008667Y-140084667D01*
X101075333Y-140051334D01*
X101275333Y-140051334D01*
X101342000Y-140084667D01*
X101375333Y-140118001D01*
X101408667Y-140184667D01*
X101408667Y-140318001D01*
X101375333Y-140384667D01*
X100942000Y-139451334D02*
X101408667Y-139451334D01*
X100942000Y-139751334D02*
X101308667Y-139751334D01*
X101375333Y-139718001D01*
X101408667Y-139651334D01*
X101408667Y-139551334D01*
X101375333Y-139484668D01*
X101342000Y-139451334D01*
X100942000Y-139218001D02*
X100942000Y-138951335D01*
X100708667Y-139118001D02*
X101308667Y-139118001D01*
X101375333Y-139084668D01*
X101408667Y-139018001D01*
X101408667Y-138951335D01*
D12*
X145938953Y-142692381D02*
X145367524Y-142692381D01*
X145653238Y-142692381D02*
X145653238Y-141692381D01*
X145558000Y-141835238D01*
X145462762Y-141930476D01*
X145367524Y-141978095D01*
X146319905Y-141787619D02*
X146367524Y-141740000D01*
X146462762Y-141692381D01*
X146700858Y-141692381D01*
X146796096Y-141740000D01*
X146843715Y-141787619D01*
X146891334Y-141882857D01*
X146891334Y-141978095D01*
X146843715Y-142120952D01*
X146272286Y-142692381D01*
X146891334Y-142692381D01*
X147177048Y-141692381D02*
X147510381Y-142692381D01*
X147843715Y-141692381D01*
D10*
X110159143Y-105425810D02*
X110806762Y-105425810D01*
X110482952Y-105749619D02*
X110482952Y-105102000D01*
X110806762Y-105911524D02*
X110159143Y-105911524D01*
X111616286Y-105061524D02*
X111211524Y-105061524D01*
X111171048Y-105466286D01*
X111211524Y-105425810D01*
X111292476Y-105385333D01*
X111494857Y-105385333D01*
X111575810Y-105425810D01*
X111616286Y-105466286D01*
X111656762Y-105547238D01*
X111656762Y-105749619D01*
X111616286Y-105830571D01*
X111575810Y-105871048D01*
X111494857Y-105911524D01*
X111292476Y-105911524D01*
X111211524Y-105871048D01*
X111171048Y-105830571D01*
X111899619Y-105061524D02*
X112182953Y-105911524D01*
X112466286Y-105061524D01*
X109147238Y-106351524D02*
X109713904Y-106351524D01*
X109147238Y-107201524D01*
X109713904Y-107201524D01*
X110037714Y-106756286D02*
X110685333Y-106756286D01*
X110685333Y-106999143D02*
X110037714Y-106999143D01*
X111494857Y-106351524D02*
X111090095Y-106351524D01*
X111049619Y-106756286D01*
X111090095Y-106715810D01*
X111171047Y-106675333D01*
X111373428Y-106675333D01*
X111454381Y-106715810D01*
X111494857Y-106756286D01*
X111535333Y-106837238D01*
X111535333Y-107039619D01*
X111494857Y-107120571D01*
X111454381Y-107161048D01*
X111373428Y-107201524D01*
X111171047Y-107201524D01*
X111090095Y-107161048D01*
X111049619Y-107120571D01*
X112061524Y-106351524D02*
X112142476Y-106351524D01*
X112223428Y-106392000D01*
X112263905Y-106432476D01*
X112304381Y-106513429D01*
X112344857Y-106675333D01*
X112344857Y-106877714D01*
X112304381Y-107039619D01*
X112263905Y-107120571D01*
X112223428Y-107161048D01*
X112142476Y-107201524D01*
X112061524Y-107201524D01*
X111980571Y-107161048D01*
X111940095Y-107120571D01*
X111899619Y-107039619D01*
X111859143Y-106877714D01*
X111859143Y-106675333D01*
X111899619Y-106513429D01*
X111940095Y-106432476D01*
X111980571Y-106392000D01*
X112061524Y-106351524D01*
X112668667Y-107201524D02*
X112871048Y-107201524D01*
X112871048Y-107039619D01*
X112790095Y-106999143D01*
X112709143Y-106918190D01*
X112668667Y-106796762D01*
X112668667Y-106594381D01*
X112709143Y-106472952D01*
X112790095Y-106392000D01*
X112911524Y-106351524D01*
X113073429Y-106351524D01*
X113194857Y-106392000D01*
X113275810Y-106472952D01*
X113316286Y-106594381D01*
X113316286Y-106796762D01*
X113275810Y-106918190D01*
X113194857Y-106999143D01*
X113113905Y-107039619D01*
X113113905Y-107201524D01*
X113316286Y-107201524D01*
X136215553Y-107481343D02*
X136673489Y-107023407D01*
X136673488Y-107481343D02*
X136215552Y-107023407D01*
X137016940Y-107366859D02*
X136559005Y-107824795D01*
X137617981Y-106765818D02*
X137274529Y-107109270D01*
X137446255Y-106937544D02*
X136845214Y-106336503D01*
X136873835Y-106479607D01*
X136873835Y-106594092D01*
X136845214Y-106679955D01*
X137532118Y-105649599D02*
X137417634Y-105764083D01*
X137389014Y-105849946D01*
X137389013Y-105907188D01*
X137417634Y-106050293D01*
X137503498Y-106193398D01*
X137732465Y-106422366D01*
X137818328Y-106450986D01*
X137875570Y-106450987D01*
X137961433Y-106422366D01*
X138075917Y-106307882D01*
X138104538Y-106222019D01*
X138104538Y-106164777D01*
X138075917Y-106078914D01*
X137932812Y-105935809D01*
X137846949Y-105907188D01*
X137789708Y-105907188D01*
X137703844Y-105935809D01*
X137589360Y-106050292D01*
X137560739Y-106136156D01*
X137560739Y-106193398D01*
X137589360Y-106279261D01*
X138390748Y-105878567D02*
X138447990Y-105878567D01*
X138447990Y-105935809D01*
X138390748Y-105935809D01*
X138390748Y-105878567D01*
X138447990Y-105935809D01*
X138075918Y-105105800D02*
X138447990Y-104733727D01*
X138476611Y-105163042D01*
X138562473Y-105077179D01*
X138648337Y-105048558D01*
X138705579Y-105048558D01*
X138791442Y-105077179D01*
X138934547Y-105220284D01*
X138963168Y-105306147D01*
X138963168Y-105363389D01*
X138934547Y-105449252D01*
X138762821Y-105620978D01*
X138676958Y-105649599D01*
X138619716Y-105649598D01*
X139049032Y-104647864D02*
X138963168Y-104676485D01*
X138905926Y-104676485D01*
X138820063Y-104647864D01*
X138791442Y-104619243D01*
X138762821Y-104533380D01*
X138762821Y-104476138D01*
X138791442Y-104390275D01*
X138905926Y-104275792D01*
X138991789Y-104247170D01*
X139049031Y-104247170D01*
X139134894Y-104275792D01*
X139163515Y-104304413D01*
X139192136Y-104390275D01*
X139192136Y-104447517D01*
X139163515Y-104533381D01*
X139049032Y-104647864D01*
X139020410Y-104733727D01*
X139020410Y-104790969D01*
X139049031Y-104876832D01*
X139163515Y-104991316D01*
X139249378Y-105019937D01*
X139306620Y-105019937D01*
X139392483Y-104991316D01*
X139506967Y-104876832D01*
X139535588Y-104790969D01*
X139535587Y-104733727D01*
X139506967Y-104647864D01*
X139392482Y-104533380D01*
X139306620Y-104504759D01*
X139249378Y-104504759D01*
X139163515Y-104533381D01*
X139735935Y-103846476D02*
X140136629Y-104247170D01*
X139363862Y-103760613D02*
X139650072Y-104333033D01*
X140022144Y-103960960D01*
X139764556Y-103417162D02*
X140565944Y-103817855D01*
X140165250Y-103016468D01*
D13*
X138799143Y-102786571D02*
X138799143Y-101286571D01*
X139156286Y-101286571D01*
X139370571Y-101358000D01*
X139513429Y-101500857D01*
X139584857Y-101643714D01*
X139656286Y-101929429D01*
X139656286Y-102143714D01*
X139584857Y-102429429D01*
X139513429Y-102572286D01*
X139370571Y-102715143D01*
X139156286Y-102786571D01*
X138799143Y-102786571D01*
X127464286Y-102643714D02*
X127392857Y-102715143D01*
X127178571Y-102786571D01*
X127035714Y-102786571D01*
X126821429Y-102715143D01*
X126678571Y-102572286D01*
X126607143Y-102429429D01*
X126535714Y-102143714D01*
X126535714Y-101929429D01*
X126607143Y-101643714D01*
X126678571Y-101500857D01*
X126821429Y-101358000D01*
X127035714Y-101286571D01*
X127178571Y-101286571D01*
X127392857Y-101358000D01*
X127464286Y-101429429D01*
X122535143Y-102000857D02*
X122749429Y-102072286D01*
X122820857Y-102143714D01*
X122892286Y-102286571D01*
X122892286Y-102500857D01*
X122820857Y-102643714D01*
X122749429Y-102715143D01*
X122606571Y-102786571D01*
X122035143Y-102786571D01*
X122035143Y-101286571D01*
X122535143Y-101286571D01*
X122678000Y-101358000D01*
X122749429Y-101429429D01*
X122820857Y-101572286D01*
X122820857Y-101715143D01*
X122749429Y-101858000D01*
X122678000Y-101929429D01*
X122535143Y-102000857D01*
X122035143Y-102000857D01*
X109878857Y-102358000D02*
X110593143Y-102358000D01*
X109736000Y-102786571D02*
X110236000Y-101286571D01*
X110736000Y-102786571D01*
D12*
X115006381Y-131737620D02*
X115006381Y-132213811D01*
X114006381Y-132213811D01*
X115006381Y-131261430D02*
X114958762Y-131356668D01*
X114911143Y-131404287D01*
X114815905Y-131451906D01*
X114530190Y-131451906D01*
X114434952Y-131404287D01*
X114387333Y-131356668D01*
X114339714Y-131261430D01*
X114339714Y-131118572D01*
X114387333Y-131023334D01*
X114434952Y-130975715D01*
X114530190Y-130928096D01*
X114815905Y-130928096D01*
X114911143Y-130975715D01*
X114958762Y-131023334D01*
X115006381Y-131118572D01*
X115006381Y-131261430D01*
X114339714Y-130594763D02*
X115006381Y-130404287D01*
X114530190Y-130213810D01*
X115006381Y-130023334D01*
X114339714Y-129832858D01*
X115006381Y-128690001D02*
X114006381Y-128690001D01*
X115006381Y-128118572D01*
X114006381Y-128118572D01*
X115006381Y-127499525D02*
X114958762Y-127594763D01*
X114911143Y-127642382D01*
X114815905Y-127690001D01*
X114530190Y-127690001D01*
X114434952Y-127642382D01*
X114387333Y-127594763D01*
X114339714Y-127499525D01*
X114339714Y-127356667D01*
X114387333Y-127261429D01*
X114434952Y-127213810D01*
X114530190Y-127166191D01*
X114815905Y-127166191D01*
X114911143Y-127213810D01*
X114958762Y-127261429D01*
X115006381Y-127356667D01*
X115006381Y-127499525D01*
X115006381Y-126737620D02*
X114339714Y-126737620D01*
X114006381Y-126737620D02*
X114054000Y-126785239D01*
X114101619Y-126737620D01*
X114054000Y-126690001D01*
X114006381Y-126737620D01*
X114101619Y-126737620D01*
X114958762Y-126309049D02*
X115006381Y-126213811D01*
X115006381Y-126023335D01*
X114958762Y-125928096D01*
X114863524Y-125880477D01*
X114815905Y-125880477D01*
X114720667Y-125928096D01*
X114673048Y-126023335D01*
X114673048Y-126166192D01*
X114625429Y-126261430D01*
X114530190Y-126309049D01*
X114482571Y-126309049D01*
X114387333Y-126261430D01*
X114339714Y-126166192D01*
X114339714Y-126023335D01*
X114387333Y-125928096D01*
X114958762Y-125070953D02*
X115006381Y-125166191D01*
X115006381Y-125356668D01*
X114958762Y-125451906D01*
X114863524Y-125499525D01*
X114482571Y-125499525D01*
X114387333Y-125451906D01*
X114339714Y-125356668D01*
X114339714Y-125166191D01*
X114387333Y-125070953D01*
X114482571Y-125023334D01*
X114577810Y-125023334D01*
X114673048Y-125499525D01*
X115006381Y-123832858D02*
X114006381Y-123832858D01*
X114006381Y-123451905D01*
X114054000Y-123356667D01*
X114101619Y-123309048D01*
X114196857Y-123261429D01*
X114339714Y-123261429D01*
X114434952Y-123309048D01*
X114482571Y-123356667D01*
X114530190Y-123451905D01*
X114530190Y-123832858D01*
X115006381Y-122690001D02*
X114958762Y-122785239D01*
X114911143Y-122832858D01*
X114815905Y-122880477D01*
X114530190Y-122880477D01*
X114434952Y-122832858D01*
X114387333Y-122785239D01*
X114339714Y-122690001D01*
X114339714Y-122547143D01*
X114387333Y-122451905D01*
X114434952Y-122404286D01*
X114530190Y-122356667D01*
X114815905Y-122356667D01*
X114911143Y-122404286D01*
X114958762Y-122451905D01*
X115006381Y-122547143D01*
X115006381Y-122690001D01*
X114339714Y-122023334D02*
X115006381Y-121832858D01*
X114530190Y-121642381D01*
X115006381Y-121451905D01*
X114339714Y-121261429D01*
X114958762Y-120499524D02*
X115006381Y-120594762D01*
X115006381Y-120785239D01*
X114958762Y-120880477D01*
X114863524Y-120928096D01*
X114482571Y-120928096D01*
X114387333Y-120880477D01*
X114339714Y-120785239D01*
X114339714Y-120594762D01*
X114387333Y-120499524D01*
X114482571Y-120451905D01*
X114577810Y-120451905D01*
X114673048Y-120928096D01*
X115006381Y-120023334D02*
X114339714Y-120023334D01*
X114530190Y-120023334D02*
X114434952Y-119975715D01*
X114387333Y-119928096D01*
X114339714Y-119832858D01*
X114339714Y-119737619D01*
X114958762Y-118690000D02*
X115006381Y-118547143D01*
X115006381Y-118309047D01*
X114958762Y-118213809D01*
X114911143Y-118166190D01*
X114815905Y-118118571D01*
X114720667Y-118118571D01*
X114625429Y-118166190D01*
X114577810Y-118213809D01*
X114530190Y-118309047D01*
X114482571Y-118499524D01*
X114434952Y-118594762D01*
X114387333Y-118642381D01*
X114292095Y-118690000D01*
X114196857Y-118690000D01*
X114101619Y-118642381D01*
X114054000Y-118594762D01*
X114006381Y-118499524D01*
X114006381Y-118261428D01*
X114054000Y-118118571D01*
X114339714Y-117261428D02*
X115006381Y-117261428D01*
X114339714Y-117690000D02*
X114863524Y-117690000D01*
X114958762Y-117642381D01*
X115006381Y-117547143D01*
X115006381Y-117404285D01*
X114958762Y-117309047D01*
X114911143Y-117261428D01*
X114339714Y-116785238D02*
X115339714Y-116785238D01*
X114387333Y-116785238D02*
X114339714Y-116690000D01*
X114339714Y-116499523D01*
X114387333Y-116404285D01*
X114434952Y-116356666D01*
X114530190Y-116309047D01*
X114815905Y-116309047D01*
X114911143Y-116356666D01*
X114958762Y-116404285D01*
X115006381Y-116499523D01*
X115006381Y-116690000D01*
X114958762Y-116785238D01*
X114339714Y-115880476D02*
X115339714Y-115880476D01*
X114387333Y-115880476D02*
X114339714Y-115785238D01*
X114339714Y-115594761D01*
X114387333Y-115499523D01*
X114434952Y-115451904D01*
X114530190Y-115404285D01*
X114815905Y-115404285D01*
X114911143Y-115451904D01*
X114958762Y-115499523D01*
X115006381Y-115594761D01*
X115006381Y-115785238D01*
X114958762Y-115880476D01*
X115006381Y-114832857D02*
X114958762Y-114928095D01*
X114863524Y-114975714D01*
X114006381Y-114975714D01*
X114339714Y-114547142D02*
X115006381Y-114309047D01*
X114339714Y-114070951D02*
X115006381Y-114309047D01*
X115244476Y-114404285D01*
X115292095Y-114451904D01*
X115339714Y-114547142D01*
D14*
X127762000Y-149352000D02*
X127762000Y-138684000D01*
D15*
X127964381Y-135213524D02*
X127964381Y-134363524D01*
X128247714Y-134970667D01*
X128531048Y-134363524D01*
X128531048Y-135213524D01*
X128935810Y-135213524D02*
X128935810Y-134646857D01*
X128935810Y-134363524D02*
X128895334Y-134404000D01*
X128935810Y-134444476D01*
X128976286Y-134404000D01*
X128935810Y-134363524D01*
X128935810Y-134444476D01*
X129704858Y-135173048D02*
X129623905Y-135213524D01*
X129462001Y-135213524D01*
X129381048Y-135173048D01*
X129340572Y-135132571D01*
X129300096Y-135051619D01*
X129300096Y-134808762D01*
X129340572Y-134727810D01*
X129381048Y-134687333D01*
X129462001Y-134646857D01*
X129623905Y-134646857D01*
X129704858Y-134687333D01*
X130069143Y-135213524D02*
X130069143Y-134646857D01*
X130069143Y-134808762D02*
X130109619Y-134727810D01*
X130150095Y-134687333D01*
X130231048Y-134646857D01*
X130312000Y-134646857D01*
X130716762Y-135213524D02*
X130635809Y-135173048D01*
X130595333Y-135132571D01*
X130554857Y-135051619D01*
X130554857Y-134808762D01*
X130595333Y-134727810D01*
X130635809Y-134687333D01*
X130716762Y-134646857D01*
X130838190Y-134646857D01*
X130919142Y-134687333D01*
X130959619Y-134727810D01*
X131000095Y-134808762D01*
X131000095Y-135051619D01*
X130959619Y-135132571D01*
X130919142Y-135173048D01*
X130838190Y-135213524D01*
X130716762Y-135213524D01*
X131647714Y-134768286D02*
X131364381Y-134768286D01*
X131364381Y-135213524D02*
X131364381Y-134363524D01*
X131769143Y-134363524D01*
X132497714Y-135213524D02*
X132092952Y-135213524D01*
X132092952Y-134363524D01*
X132781047Y-135213524D02*
X132781047Y-134363524D01*
X133671523Y-135132571D02*
X133631047Y-135173048D01*
X133509618Y-135213524D01*
X133428666Y-135213524D01*
X133307238Y-135173048D01*
X133226285Y-135092095D01*
X133185809Y-135011143D01*
X133145333Y-134849238D01*
X133145333Y-134727810D01*
X133185809Y-134565905D01*
X133226285Y-134484952D01*
X133307238Y-134404000D01*
X133428666Y-134363524D01*
X133509618Y-134363524D01*
X133631047Y-134404000D01*
X133671523Y-134444476D01*
X134683428Y-135213524D02*
X134683428Y-134363524D01*
X134885809Y-134363524D01*
X135007237Y-134404000D01*
X135088190Y-134484952D01*
X135128666Y-134565905D01*
X135169142Y-134727810D01*
X135169142Y-134849238D01*
X135128666Y-135011143D01*
X135088190Y-135092095D01*
X135007237Y-135173048D01*
X134885809Y-135213524D01*
X134683428Y-135213524D01*
X135492952Y-134970667D02*
X135897714Y-134970667D01*
X135411999Y-135213524D02*
X135695333Y-134363524D01*
X135978666Y-135213524D01*
X136747713Y-135132571D02*
X136707237Y-135173048D01*
X136585808Y-135213524D01*
X136504856Y-135213524D01*
X136383428Y-135173048D01*
X136302475Y-135092095D01*
X136261999Y-135011143D01*
X136221523Y-134849238D01*
X136221523Y-134727810D01*
X136261999Y-134565905D01*
X136302475Y-134484952D01*
X136383428Y-134404000D01*
X136504856Y-134363524D01*
X136585808Y-134363524D01*
X136707237Y-134404000D01*
X136747713Y-134444476D01*
X137233428Y-134727810D02*
X137152475Y-134687333D01*
X137111999Y-134646857D01*
X137071523Y-134565905D01*
X137071523Y-134525429D01*
X137111999Y-134444476D01*
X137152475Y-134404000D01*
X137233428Y-134363524D01*
X137395332Y-134363524D01*
X137476285Y-134404000D01*
X137516761Y-134444476D01*
X137557237Y-134525429D01*
X137557237Y-134565905D01*
X137516761Y-134646857D01*
X137476285Y-134687333D01*
X137395332Y-134727810D01*
X137233428Y-134727810D01*
X137152475Y-134768286D01*
X137111999Y-134808762D01*
X137071523Y-134889714D01*
X137071523Y-135051619D01*
X137111999Y-135132571D01*
X137152475Y-135173048D01*
X137233428Y-135213524D01*
X137395332Y-135213524D01*
X137476285Y-135173048D01*
X137516761Y-135132571D01*
X137557237Y-135051619D01*
X137557237Y-134889714D01*
X137516761Y-134808762D01*
X137476285Y-134768286D01*
X137395332Y-134727810D01*
X137840571Y-134363524D02*
X138407237Y-134363524D01*
X138042952Y-135213524D01*
X138650095Y-134363524D02*
X139176285Y-134363524D01*
X138892952Y-134687333D01*
X139014380Y-134687333D01*
X139095333Y-134727810D01*
X139135809Y-134768286D01*
X139176285Y-134849238D01*
X139176285Y-135051619D01*
X139135809Y-135132571D01*
X139095333Y-135173048D01*
X139014380Y-135213524D01*
X138771523Y-135213524D01*
X138690571Y-135173048D01*
X138650095Y-135132571D01*
X139904857Y-134646857D02*
X139904857Y-135213524D01*
X139702476Y-134323048D02*
X139500095Y-134930190D01*
X140026285Y-134930190D01*
X127923905Y-135759476D02*
X127964381Y-135719000D01*
X128045333Y-135678524D01*
X128247714Y-135678524D01*
X128328667Y-135719000D01*
X128369143Y-135759476D01*
X128409619Y-135840429D01*
X128409619Y-135921381D01*
X128369143Y-136042810D01*
X127883429Y-136528524D01*
X128409619Y-136528524D01*
X128854857Y-135961857D02*
X129340572Y-136447571D01*
X129340572Y-135961857D02*
X128854857Y-136447571D01*
X130473905Y-136042810D02*
X131121524Y-136042810D01*
X130797714Y-136366619D02*
X130797714Y-135719000D01*
X131121524Y-136528524D02*
X130473905Y-136528524D01*
X131971524Y-136528524D02*
X131485810Y-136528524D01*
X131728667Y-136528524D02*
X131728667Y-135678524D01*
X131647715Y-135799952D01*
X131566762Y-135880905D01*
X131485810Y-135921381D01*
X132700096Y-135678524D02*
X132538191Y-135678524D01*
X132457239Y-135719000D01*
X132416762Y-135759476D01*
X132335810Y-135880905D01*
X132295334Y-136042810D01*
X132295334Y-136366619D01*
X132335810Y-136447571D01*
X132376286Y-136488048D01*
X132457239Y-136528524D01*
X132619143Y-136528524D01*
X132700096Y-136488048D01*
X132740572Y-136447571D01*
X132781048Y-136366619D01*
X132781048Y-136164238D01*
X132740572Y-136083286D01*
X132700096Y-136042810D01*
X132619143Y-136002333D01*
X132457239Y-136002333D01*
X132376286Y-136042810D01*
X132335810Y-136083286D01*
X132295334Y-136164238D01*
X133145334Y-136447571D02*
X133185810Y-136488048D01*
X133145334Y-136528524D01*
X133104858Y-136488048D01*
X133145334Y-136447571D01*
X133145334Y-136528524D01*
X133469144Y-135678524D02*
X133995334Y-135678524D01*
X133712001Y-136002333D01*
X133833429Y-136002333D01*
X133914382Y-136042810D01*
X133954858Y-136083286D01*
X133995334Y-136164238D01*
X133995334Y-136366619D01*
X133954858Y-136447571D01*
X133914382Y-136488048D01*
X133833429Y-136528524D01*
X133590572Y-136528524D01*
X133509620Y-136488048D01*
X133469144Y-136447571D01*
X134481049Y-136042810D02*
X134400096Y-136002333D01*
X134359620Y-135961857D01*
X134319144Y-135880905D01*
X134319144Y-135840429D01*
X134359620Y-135759476D01*
X134400096Y-135719000D01*
X134481049Y-135678524D01*
X134642953Y-135678524D01*
X134723906Y-135719000D01*
X134764382Y-135759476D01*
X134804858Y-135840429D01*
X134804858Y-135880905D01*
X134764382Y-135961857D01*
X134723906Y-136002333D01*
X134642953Y-136042810D01*
X134481049Y-136042810D01*
X134400096Y-136083286D01*
X134359620Y-136123762D01*
X134319144Y-136204714D01*
X134319144Y-136366619D01*
X134359620Y-136447571D01*
X134400096Y-136488048D01*
X134481049Y-136528524D01*
X134642953Y-136528524D01*
X134723906Y-136488048D01*
X134764382Y-136447571D01*
X134804858Y-136366619D01*
X134804858Y-136204714D01*
X134764382Y-136123762D01*
X134723906Y-136083286D01*
X134642953Y-136042810D01*
X135533430Y-135961857D02*
X135533430Y-136528524D01*
X135331049Y-135638048D02*
X135128668Y-136245190D01*
X135654858Y-136245190D01*
X135857239Y-135678524D02*
X136140573Y-136528524D01*
X136423906Y-135678524D01*
X138042953Y-136528524D02*
X138002477Y-136528524D01*
X137921525Y-136488048D01*
X137800096Y-136366619D01*
X137597715Y-136123762D01*
X137516763Y-136002333D01*
X137476287Y-135880905D01*
X137476287Y-135799952D01*
X137516763Y-135719000D01*
X137597715Y-135678524D01*
X137638191Y-135678524D01*
X137719144Y-135719000D01*
X137759620Y-135799952D01*
X137759620Y-135840429D01*
X137719144Y-135921381D01*
X137678667Y-135961857D01*
X137435810Y-136123762D01*
X137395334Y-136164238D01*
X137354858Y-136245190D01*
X137354858Y-136366619D01*
X137395334Y-136447571D01*
X137435810Y-136488048D01*
X137516763Y-136528524D01*
X137638191Y-136528524D01*
X137719144Y-136488048D01*
X137759620Y-136447571D01*
X137881048Y-136285667D01*
X137921525Y-136164238D01*
X137921525Y-136083286D01*
X139014382Y-135759476D02*
X139054858Y-135719000D01*
X139135810Y-135678524D01*
X139338191Y-135678524D01*
X139419144Y-135719000D01*
X139459620Y-135759476D01*
X139500096Y-135840429D01*
X139500096Y-135921381D01*
X139459620Y-136042810D01*
X138973906Y-136528524D01*
X139500096Y-136528524D01*
X139945334Y-135961857D02*
X140431049Y-136447571D01*
X140431049Y-135961857D02*
X139945334Y-136447571D01*
X141564382Y-136042810D02*
X142212001Y-136042810D01*
X141888191Y-136366619D02*
X141888191Y-135719000D01*
X142212001Y-136528524D02*
X141564382Y-136528524D01*
X143021525Y-135678524D02*
X142616763Y-135678524D01*
X142576287Y-136083286D01*
X142616763Y-136042810D01*
X142697715Y-136002333D01*
X142900096Y-136002333D01*
X142981049Y-136042810D01*
X143021525Y-136083286D01*
X143062001Y-136164238D01*
X143062001Y-136366619D01*
X143021525Y-136447571D01*
X142981049Y-136488048D01*
X142900096Y-136528524D01*
X142697715Y-136528524D01*
X142616763Y-136488048D01*
X142576287Y-136447571D01*
X143304858Y-135678524D02*
X143588192Y-136528524D01*
X143871525Y-135678524D01*
X144721525Y-135678524D02*
X145288191Y-135678524D01*
X144721525Y-136528524D01*
X145288191Y-136528524D01*
X145612001Y-136083286D02*
X146259620Y-136083286D01*
X146259620Y-136326143D02*
X145612001Y-136326143D01*
X147069144Y-135678524D02*
X146664382Y-135678524D01*
X146623906Y-136083286D01*
X146664382Y-136042810D01*
X146745334Y-136002333D01*
X146947715Y-136002333D01*
X147028668Y-136042810D01*
X147069144Y-136083286D01*
X147109620Y-136164238D01*
X147109620Y-136366619D01*
X147069144Y-136447571D01*
X147028668Y-136488048D01*
X146947715Y-136528524D01*
X146745334Y-136528524D01*
X146664382Y-136488048D01*
X146623906Y-136447571D01*
X147635811Y-135678524D02*
X147716763Y-135678524D01*
X147797715Y-135719000D01*
X147838192Y-135759476D01*
X147878668Y-135840429D01*
X147919144Y-136002333D01*
X147919144Y-136204714D01*
X147878668Y-136366619D01*
X147838192Y-136447571D01*
X147797715Y-136488048D01*
X147716763Y-136528524D01*
X147635811Y-136528524D01*
X147554858Y-136488048D01*
X147514382Y-136447571D01*
X147473906Y-136366619D01*
X147433430Y-136204714D01*
X147433430Y-136002333D01*
X147473906Y-135840429D01*
X147514382Y-135759476D01*
X147554858Y-135719000D01*
X147635811Y-135678524D01*
X148242954Y-136528524D02*
X148445335Y-136528524D01*
X148445335Y-136366619D01*
X148364382Y-136326143D01*
X148283430Y-136245190D01*
X148242954Y-136123762D01*
X148242954Y-135921381D01*
X148283430Y-135799952D01*
X148364382Y-135719000D01*
X148485811Y-135678524D01*
X148647716Y-135678524D01*
X148769144Y-135719000D01*
X148850097Y-135799952D01*
X148890573Y-135921381D01*
X148890573Y-136123762D01*
X148850097Y-136245190D01*
X148769144Y-136326143D01*
X148688192Y-136366619D01*
X148688192Y-136528524D01*
X148890573Y-136528524D01*
X128207238Y-136993524D02*
X128207238Y-137600667D01*
X128166762Y-137722095D01*
X128085810Y-137803048D01*
X127964381Y-137843524D01*
X127883429Y-137843524D01*
X128976286Y-137843524D02*
X128976286Y-137398286D01*
X128935809Y-137317333D01*
X128854857Y-137276857D01*
X128692952Y-137276857D01*
X128612000Y-137317333D01*
X128976286Y-137803048D02*
X128895333Y-137843524D01*
X128692952Y-137843524D01*
X128612000Y-137803048D01*
X128571524Y-137722095D01*
X128571524Y-137641143D01*
X128612000Y-137560190D01*
X128692952Y-137519714D01*
X128895333Y-137519714D01*
X128976286Y-137479238D01*
X129381048Y-137843524D02*
X129381048Y-136993524D01*
X129462000Y-137519714D02*
X129704857Y-137843524D01*
X129704857Y-137276857D02*
X129381048Y-137600667D01*
X130433429Y-137276857D02*
X130433429Y-137843524D01*
X130069143Y-137276857D02*
X130069143Y-137722095D01*
X130109619Y-137803048D01*
X130190572Y-137843524D01*
X130312000Y-137843524D01*
X130392952Y-137803048D01*
X130433429Y-137762571D01*
X130838191Y-137843524D02*
X130838191Y-136993524D01*
X130838191Y-137317333D02*
X130919143Y-137276857D01*
X131081048Y-137276857D01*
X131162000Y-137317333D01*
X131202477Y-137357810D01*
X131242953Y-137438762D01*
X131242953Y-137681619D01*
X131202477Y-137762571D01*
X131162000Y-137803048D01*
X131081048Y-137843524D01*
X130919143Y-137843524D01*
X130838191Y-137803048D01*
X132254858Y-137843524D02*
X132254858Y-136993524D01*
X132740572Y-137843524D01*
X132740572Y-136993524D01*
X133469143Y-137803048D02*
X133388191Y-137843524D01*
X133226286Y-137843524D01*
X133145334Y-137803048D01*
X133104858Y-137722095D01*
X133104858Y-137398286D01*
X133145334Y-137317333D01*
X133226286Y-137276857D01*
X133388191Y-137276857D01*
X133469143Y-137317333D01*
X133509620Y-137398286D01*
X133509620Y-137479238D01*
X133104858Y-137560190D01*
X134238191Y-137843524D02*
X134238191Y-136993524D01*
X134238191Y-137803048D02*
X134157238Y-137843524D01*
X133995334Y-137843524D01*
X133914381Y-137803048D01*
X133873905Y-137762571D01*
X133833429Y-137681619D01*
X133833429Y-137438762D01*
X133873905Y-137357810D01*
X133914381Y-137317333D01*
X133995334Y-137276857D01*
X134157238Y-137276857D01*
X134238191Y-137317333D01*
X134642953Y-137843524D02*
X134642953Y-136993524D01*
X134642953Y-137317333D02*
X134723905Y-137276857D01*
X134885810Y-137276857D01*
X134966762Y-137317333D01*
X135007239Y-137357810D01*
X135047715Y-137438762D01*
X135047715Y-137681619D01*
X135007239Y-137762571D01*
X134966762Y-137803048D01*
X134885810Y-137843524D01*
X134723905Y-137843524D01*
X134642953Y-137803048D01*
X135776287Y-137843524D02*
X135776287Y-137398286D01*
X135735810Y-137317333D01*
X135654858Y-137276857D01*
X135492953Y-137276857D01*
X135412001Y-137317333D01*
X135776287Y-137803048D02*
X135695334Y-137843524D01*
X135492953Y-137843524D01*
X135412001Y-137803048D01*
X135371525Y-137722095D01*
X135371525Y-137641143D01*
X135412001Y-137560190D01*
X135492953Y-137519714D01*
X135695334Y-137519714D01*
X135776287Y-137479238D01*
X136302478Y-137843524D02*
X136221525Y-137803048D01*
X136181049Y-137722095D01*
X136181049Y-136993524D01*
X137233430Y-137074476D02*
X137273906Y-137034000D01*
X137354858Y-136993524D01*
X137557239Y-136993524D01*
X137638192Y-137034000D01*
X137678668Y-137074476D01*
X137719144Y-137155429D01*
X137719144Y-137236381D01*
X137678668Y-137357810D01*
X137192954Y-137843524D01*
X137719144Y-137843524D01*
X138245335Y-136993524D02*
X138326287Y-136993524D01*
X138407239Y-137034000D01*
X138447716Y-137074476D01*
X138488192Y-137155429D01*
X138528668Y-137317333D01*
X138528668Y-137519714D01*
X138488192Y-137681619D01*
X138447716Y-137762571D01*
X138407239Y-137803048D01*
X138326287Y-137843524D01*
X138245335Y-137843524D01*
X138164382Y-137803048D01*
X138123906Y-137762571D01*
X138083430Y-137681619D01*
X138042954Y-137519714D01*
X138042954Y-137317333D01*
X138083430Y-137155429D01*
X138123906Y-137074476D01*
X138164382Y-137034000D01*
X138245335Y-136993524D01*
X139338192Y-137843524D02*
X138852478Y-137843524D01*
X139095335Y-137843524D02*
X139095335Y-136993524D01*
X139014383Y-137114952D01*
X138933430Y-137195905D01*
X138852478Y-137236381D01*
X140107240Y-136993524D02*
X139702478Y-136993524D01*
X139662002Y-137398286D01*
X139702478Y-137357810D01*
X139783430Y-137317333D01*
X139985811Y-137317333D01*
X140066764Y-137357810D01*
X140107240Y-137398286D01*
X140147716Y-137479238D01*
X140147716Y-137681619D01*
X140107240Y-137762571D01*
X140066764Y-137803048D01*
X139985811Y-137843524D01*
X139783430Y-137843524D01*
X139702478Y-137803048D01*
X139662002Y-137762571D01*
D12*
X132532762Y-148756667D02*
X133008953Y-148756667D01*
X132437524Y-149042381D02*
X132770857Y-148042381D01*
X133104191Y-149042381D01*
X133437524Y-149042381D02*
X133437524Y-148375714D01*
X133437524Y-148566190D02*
X133485143Y-148470952D01*
X133532762Y-148423333D01*
X133628000Y-148375714D01*
X133723239Y-148375714D01*
X134485144Y-149042381D02*
X134485144Y-148042381D01*
X134485144Y-148994762D02*
X134389906Y-149042381D01*
X134199429Y-149042381D01*
X134104191Y-148994762D01*
X134056572Y-148947143D01*
X134008953Y-148851905D01*
X134008953Y-148566190D01*
X134056572Y-148470952D01*
X134104191Y-148423333D01*
X134199429Y-148375714D01*
X134389906Y-148375714D01*
X134485144Y-148423333D01*
X135389906Y-148375714D02*
X135389906Y-149042381D01*
X134961334Y-148375714D02*
X134961334Y-148899524D01*
X135008953Y-148994762D01*
X135104191Y-149042381D01*
X135247049Y-149042381D01*
X135342287Y-148994762D01*
X135389906Y-148947143D01*
X135866096Y-149042381D02*
X135866096Y-148375714D01*
X135866096Y-148042381D02*
X135818477Y-148090000D01*
X135866096Y-148137619D01*
X135913715Y-148090000D01*
X135866096Y-148042381D01*
X135866096Y-148137619D01*
X136342286Y-148375714D02*
X136342286Y-149042381D01*
X136342286Y-148470952D02*
X136389905Y-148423333D01*
X136485143Y-148375714D01*
X136628001Y-148375714D01*
X136723239Y-148423333D01*
X136770858Y-148518571D01*
X136770858Y-149042381D01*
X137389905Y-149042381D02*
X137294667Y-148994762D01*
X137247048Y-148947143D01*
X137199429Y-148851905D01*
X137199429Y-148566190D01*
X137247048Y-148470952D01*
X137294667Y-148423333D01*
X137389905Y-148375714D01*
X137532763Y-148375714D01*
X137628001Y-148423333D01*
X137675620Y-148470952D01*
X137723239Y-148566190D01*
X137723239Y-148851905D01*
X137675620Y-148947143D01*
X137628001Y-148994762D01*
X137532763Y-149042381D01*
X137389905Y-149042381D01*
D14*
X108966000Y-137922000D02*
X108966000Y-149352000D01*
X116840000Y-137922000D02*
X116840000Y-132080000D01*
D12*
X110395428Y-139390381D02*
X110395428Y-138390381D01*
X110633523Y-138390381D01*
X110776381Y-138438000D01*
X110871619Y-138533238D01*
X110919238Y-138628476D01*
X110966857Y-138818952D01*
X110966857Y-138961810D01*
X110919238Y-139152286D01*
X110871619Y-139247524D01*
X110776381Y-139342762D01*
X110633523Y-139390381D01*
X110395428Y-139390381D01*
X111395428Y-139390381D02*
X111395428Y-138723714D01*
X111395428Y-138390381D02*
X111347809Y-138438000D01*
X111395428Y-138485619D01*
X111443047Y-138438000D01*
X111395428Y-138390381D01*
X111395428Y-138485619D01*
X112300190Y-138723714D02*
X112300190Y-139533238D01*
X112252571Y-139628476D01*
X112204952Y-139676095D01*
X112109713Y-139723714D01*
X111966856Y-139723714D01*
X111871618Y-139676095D01*
X112300190Y-139342762D02*
X112204952Y-139390381D01*
X112014475Y-139390381D01*
X111919237Y-139342762D01*
X111871618Y-139295143D01*
X111823999Y-139199905D01*
X111823999Y-138914190D01*
X111871618Y-138818952D01*
X111919237Y-138771333D01*
X112014475Y-138723714D01*
X112204952Y-138723714D01*
X112300190Y-138771333D01*
X112776380Y-139390381D02*
X112776380Y-138723714D01*
X112776380Y-138390381D02*
X112728761Y-138438000D01*
X112776380Y-138485619D01*
X112823999Y-138438000D01*
X112776380Y-138390381D01*
X112776380Y-138485619D01*
X113109713Y-138723714D02*
X113490665Y-138723714D01*
X113252570Y-138390381D02*
X113252570Y-139247524D01*
X113300189Y-139342762D01*
X113395427Y-139390381D01*
X113490665Y-139390381D01*
X114252571Y-139390381D02*
X114252571Y-138866571D01*
X114204952Y-138771333D01*
X114109714Y-138723714D01*
X113919237Y-138723714D01*
X113823999Y-138771333D01*
X114252571Y-139342762D02*
X114157333Y-139390381D01*
X113919237Y-139390381D01*
X113823999Y-139342762D01*
X113776380Y-139247524D01*
X113776380Y-139152286D01*
X113823999Y-139057048D01*
X113919237Y-139009429D01*
X114157333Y-139009429D01*
X114252571Y-138961810D01*
X114871618Y-139390381D02*
X114776380Y-139342762D01*
X114728761Y-139247524D01*
X114728761Y-138390381D01*
X116014476Y-139390381D02*
X116014476Y-138390381D01*
X116443047Y-139342762D02*
X116538285Y-139390381D01*
X116728761Y-139390381D01*
X116824000Y-139342762D01*
X116871619Y-139247524D01*
X116871619Y-139199905D01*
X116824000Y-139104667D01*
X116728761Y-139057048D01*
X116585904Y-139057048D01*
X116490666Y-139009429D01*
X116443047Y-138914190D01*
X116443047Y-138866571D01*
X116490666Y-138771333D01*
X116585904Y-138723714D01*
X116728761Y-138723714D01*
X116824000Y-138771333D01*
X117443047Y-139390381D02*
X117347809Y-139342762D01*
X117300190Y-139295143D01*
X117252571Y-139199905D01*
X117252571Y-138914190D01*
X117300190Y-138818952D01*
X117347809Y-138771333D01*
X117443047Y-138723714D01*
X117585905Y-138723714D01*
X117681143Y-138771333D01*
X117728762Y-138818952D01*
X117776381Y-138914190D01*
X117776381Y-139199905D01*
X117728762Y-139295143D01*
X117681143Y-139342762D01*
X117585905Y-139390381D01*
X117443047Y-139390381D01*
X118347809Y-139390381D02*
X118252571Y-139342762D01*
X118204952Y-139247524D01*
X118204952Y-138390381D01*
X119157334Y-139390381D02*
X119157334Y-138866571D01*
X119109715Y-138771333D01*
X119014477Y-138723714D01*
X118824000Y-138723714D01*
X118728762Y-138771333D01*
X119157334Y-139342762D02*
X119062096Y-139390381D01*
X118824000Y-139390381D01*
X118728762Y-139342762D01*
X118681143Y-139247524D01*
X118681143Y-139152286D01*
X118728762Y-139057048D01*
X118824000Y-139009429D01*
X119062096Y-139009429D01*
X119157334Y-138961810D01*
X119490667Y-138723714D02*
X119871619Y-138723714D01*
X119633524Y-138390381D02*
X119633524Y-139247524D01*
X119681143Y-139342762D01*
X119776381Y-139390381D01*
X119871619Y-139390381D01*
X120347810Y-139390381D02*
X120252572Y-139342762D01*
X120204953Y-139295143D01*
X120157334Y-139199905D01*
X120157334Y-138914190D01*
X120204953Y-138818952D01*
X120252572Y-138771333D01*
X120347810Y-138723714D01*
X120490668Y-138723714D01*
X120585906Y-138771333D01*
X120633525Y-138818952D01*
X120681144Y-138914190D01*
X120681144Y-139199905D01*
X120633525Y-139295143D01*
X120585906Y-139342762D01*
X120490668Y-139390381D01*
X120347810Y-139390381D01*
X121109715Y-139390381D02*
X121109715Y-138723714D01*
X121109715Y-138914190D02*
X121157334Y-138818952D01*
X121204953Y-138771333D01*
X121300191Y-138723714D01*
X121395430Y-138723714D01*
D14*
X108966000Y-137922000D02*
X116840000Y-137922000D01*
D13*
X129028000Y-143764000D02*
X129028000Y-145248000D01*
X129028000Y-141732000D02*
X129528000Y-141732000D01*
X129528000Y-141732000D02*
X129528000Y-143764000D01*
X129528000Y-143764000D02*
X129028000Y-143764000D01*
X141228000Y-140248000D02*
X141228000Y-145248000D01*
X141228000Y-145248000D02*
X129028000Y-145248000D01*
X129028000Y-141732000D02*
X129028000Y-140248000D01*
X129028000Y-140248000D02*
X141228000Y-140248000D01*
D12*
X143598000Y-141724000D02*
X143598000Y-140724000D01*
X141898000Y-140724000D02*
X141898000Y-141724000D01*
X137252000Y-130796000D02*
X136052000Y-130796000D01*
X136052000Y-129046000D02*
X137252000Y-129046000D01*
X126125000Y-127981000D02*
X126125000Y-126781000D01*
X127875000Y-126781000D02*
X127875000Y-127981000D01*
X132983000Y-131791000D02*
X132983000Y-130591000D01*
X134733000Y-130591000D02*
X134733000Y-131791000D01*
X137252000Y-132574000D02*
X136052000Y-132574000D01*
X136052000Y-130824000D02*
X137252000Y-130824000D01*
X104302000Y-120283000D02*
X105502000Y-120283000D01*
X105502000Y-122033000D02*
X104302000Y-122033000D01*
X104302000Y-114695000D02*
X105502000Y-114695000D01*
X105502000Y-116445000D02*
X104302000Y-116445000D01*
X112381000Y-123352000D02*
X112381000Y-124552000D01*
X110631000Y-124552000D02*
X110631000Y-123352000D01*
X108620000Y-120283000D02*
X109820000Y-120283000D01*
X109820000Y-122033000D02*
X108620000Y-122033000D01*
X112381000Y-128940000D02*
X112381000Y-130140000D01*
X110631000Y-130140000D02*
X110631000Y-128940000D01*
X108620000Y-125871000D02*
X109820000Y-125871000D01*
X109820000Y-127621000D02*
X108620000Y-127621000D01*
X112381000Y-117764000D02*
X112381000Y-118964000D01*
X110631000Y-118964000D02*
X110631000Y-117764000D01*
X108620000Y-114695000D02*
X109820000Y-114695000D01*
X109820000Y-116445000D02*
X108620000Y-116445000D01*
X104302000Y-109107000D02*
X105502000Y-109107000D01*
X105502000Y-110857000D02*
X104302000Y-110857000D01*
X112381000Y-112176000D02*
X112381000Y-113376000D01*
X110631000Y-113376000D02*
X110631000Y-112176000D01*
X108620000Y-109107000D02*
X109820000Y-109107000D01*
X109820000Y-110857000D02*
X108620000Y-110857000D01*
X112381000Y-134528000D02*
X112381000Y-135728000D01*
X110631000Y-135728000D02*
X110631000Y-134528000D01*
X108620000Y-131459000D02*
X109820000Y-131459000D01*
X109820000Y-133209000D02*
X108620000Y-133209000D01*
X128455000Y-126180000D02*
X128980000Y-126180000D01*
X128455000Y-118930000D02*
X128980000Y-118930000D01*
X135705000Y-118930000D02*
X135180000Y-118930000D01*
X135705000Y-126180000D02*
X135180000Y-126180000D01*
X128455000Y-126180000D02*
X128455000Y-125655000D01*
X135705000Y-126180000D02*
X135705000Y-125655000D01*
X135705000Y-118930000D02*
X135705000Y-119455000D01*
X128455000Y-118930000D02*
X128455000Y-119455000D01*
X128980000Y-126180000D02*
X128980000Y-127555000D01*
X141581000Y-124436000D02*
X141581000Y-124686000D01*
X144931000Y-124436000D02*
X144931000Y-124686000D01*
X144931000Y-127786000D02*
X144931000Y-127536000D01*
X141581000Y-127786000D02*
X141581000Y-127536000D01*
X141581000Y-124436000D02*
X144931000Y-124436000D01*
X141581000Y-127786000D02*
X144931000Y-127786000D01*
X141581000Y-124686000D02*
X140331000Y-124686000D01*
X141581000Y-117578000D02*
X141581000Y-117828000D01*
X144931000Y-117578000D02*
X144931000Y-117828000D01*
X144931000Y-120928000D02*
X144931000Y-120678000D01*
X141581000Y-120928000D02*
X141581000Y-120678000D01*
X141581000Y-117578000D02*
X144931000Y-117578000D01*
X141581000Y-120928000D02*
X144931000Y-120928000D01*
X141581000Y-117828000D02*
X140331000Y-117828000D01*
X123741000Y-130972000D02*
X123741000Y-130827000D01*
X119591000Y-130972000D02*
X119591000Y-130827000D01*
X119591000Y-125822000D02*
X119591000Y-125967000D01*
X123741000Y-125822000D02*
X123741000Y-125967000D01*
X123741000Y-130972000D02*
X119591000Y-130972000D01*
X123741000Y-125822000D02*
X119591000Y-125822000D01*
X123741000Y-130827000D02*
X125141000Y-130827000D01*
X123360000Y-122590000D02*
X123360000Y-122445000D01*
X119210000Y-122590000D02*
X119210000Y-122445000D01*
X119210000Y-117440000D02*
X119210000Y-117585000D01*
X123360000Y-117440000D02*
X123360000Y-117585000D01*
X123360000Y-122590000D02*
X119210000Y-122590000D01*
X123360000Y-117440000D02*
X119210000Y-117440000D01*
X123360000Y-122445000D02*
X124760000Y-122445000D01*
X115592000Y-144988000D02*
G75*
G03X115592000Y-144988000I-100000J0D01*
G01*
X115242000Y-145538000D02*
X115242000Y-145038000D01*
X112342000Y-145538000D02*
X115242000Y-145538000D01*
X112342000Y-145038000D02*
X112342000Y-145538000D01*
X115242000Y-145038000D02*
X112342000Y-145038000D01*
X116337000Y-145839000D02*
X116442000Y-145839000D01*
X116337000Y-141689000D02*
X116442000Y-141689000D01*
X126487000Y-141689000D02*
X126382000Y-141689000D01*
X126487000Y-145839000D02*
X126382000Y-145839000D01*
X116337000Y-145839000D02*
X116337000Y-141689000D01*
X126487000Y-145839000D02*
X126487000Y-141689000D01*
X116442000Y-145839000D02*
X116442000Y-147214000D01*
X129494800Y-116240000D02*
X130194800Y-116240000D01*
X130194800Y-117440000D02*
X129494800Y-117440000D01*
X134716000Y-117440000D02*
X134016000Y-117440000D01*
X134016000Y-116240000D02*
X134716000Y-116240000D01*
X139030000Y-127031000D02*
X139030000Y-127731000D01*
X137830000Y-127731000D02*
X137830000Y-127031000D01*
X137506000Y-127031000D02*
X137506000Y-127731000D01*
X136306000Y-127731000D02*
X136306000Y-127031000D01*
X142590000Y-129251000D02*
X141890000Y-129251000D01*
X141890000Y-128051000D02*
X142590000Y-128051000D01*
X142590000Y-122393000D02*
X141890000Y-122393000D01*
X141890000Y-121193000D02*
X142590000Y-121193000D01*
X120681000Y-124241000D02*
X121381000Y-124241000D01*
X121381000Y-125441000D02*
X120681000Y-125441000D01*
X120935000Y-115732000D02*
X121635000Y-115732000D01*
X121635000Y-116932000D02*
X120935000Y-116932000D01*
X143232000Y-111865000D02*
X143232000Y-115965000D01*
X140232000Y-111865000D02*
X140232000Y-115965000D01*
X120501000Y-111022000D02*
X124601000Y-111022000D01*
X120501000Y-114022000D02*
X124601000Y-114022000D01*
X133700000Y-112360000D02*
X133000000Y-112360000D01*
X133000000Y-111160000D02*
X133700000Y-111160000D01*
X128239000Y-115662000D02*
X127539000Y-115662000D01*
X127539000Y-114462000D02*
X128239000Y-114462000D01*
X102016000Y-123286000D02*
X102016000Y-122586000D01*
X103216000Y-122586000D02*
X103216000Y-123286000D01*
X102016000Y-128874000D02*
X102016000Y-128174000D01*
X103216000Y-128174000D02*
X103216000Y-128874000D01*
X102016000Y-117698000D02*
X102016000Y-116998000D01*
X103216000Y-116998000D02*
X103216000Y-117698000D01*
X109382000Y-124302000D02*
X109382000Y-123602000D01*
X110582000Y-123602000D02*
X110582000Y-124302000D01*
X109382000Y-129890000D02*
X109382000Y-129190000D01*
X110582000Y-129190000D02*
X110582000Y-129890000D01*
X109382000Y-118714000D02*
X109382000Y-118014000D01*
X110582000Y-118014000D02*
X110582000Y-118714000D01*
X102016000Y-112110000D02*
X102016000Y-111410000D01*
X103216000Y-111410000D02*
X103216000Y-112110000D01*
X102016000Y-134462000D02*
X102016000Y-133762000D01*
X103216000Y-133762000D02*
X103216000Y-134462000D01*
X109382000Y-113126000D02*
X109382000Y-112426000D01*
X110582000Y-112426000D02*
X110582000Y-113126000D01*
X109382000Y-135478000D02*
X109382000Y-134778000D01*
X110582000Y-134778000D02*
X110582000Y-135478000D01*
X124872000Y-138084000D02*
X125572000Y-138084000D01*
X125572000Y-139284000D02*
X124872000Y-139284000D01*
X127176231Y-117149122D02*
G75*
G03X125782000Y-117164000I-684231J-1214878D01*
G01*
X125807769Y-119578878D02*
G75*
G03X127202000Y-119564000I684231J1214878D01*
G01*
X124515122Y-123394769D02*
G75*
G03X124530000Y-124789000I1214878J-684231D01*
G01*
X126944878Y-124763231D02*
G75*
G03X126930000Y-123369000I-1214878J684231D01*
G01*
X139898878Y-120826231D02*
G75*
G03X139884000Y-119432000I-1214878J684231D01*
G01*
X137469122Y-119457769D02*
G75*
G03X137484000Y-120852000I1214878J-684231D01*
G01*
X137469122Y-123267769D02*
G75*
G03X137484000Y-124662000I1214878J-684231D01*
G01*
X139898878Y-124636231D02*
G75*
G03X139884000Y-123242000I-1214878J684231D01*
G01*
X126214000Y-110847000D02*
X126214000Y-111097000D01*
X129564000Y-110847000D02*
X129564000Y-111097000D01*
X129564000Y-114197000D02*
X129564000Y-113947000D01*
X126214000Y-114197000D02*
X126214000Y-113947000D01*
X126214000Y-110847000D02*
X129564000Y-110847000D01*
X126214000Y-114197000D02*
X129564000Y-114197000D01*
X126214000Y-111097000D02*
X124964000Y-111097000D01*
X138327000Y-115594000D02*
X138327000Y-115344000D01*
X134977000Y-115594000D02*
X134977000Y-115344000D01*
X134977000Y-112244000D02*
X134977000Y-112494000D01*
X138327000Y-112244000D02*
X138327000Y-112494000D01*
X138327000Y-115594000D02*
X134977000Y-115594000D01*
X138327000Y-112244000D02*
X134977000Y-112244000D01*
X138327000Y-115344000D02*
X139577000Y-115344000D01*
X146558000Y-146558000D02*
X149098000Y-146558000D01*
X143738000Y-146278000D02*
X145288000Y-146278000D01*
X146558000Y-146558000D02*
X146558000Y-149098000D01*
X145288000Y-149378000D02*
X143738000Y-149378000D01*
X143738000Y-149378000D02*
X143738000Y-146278000D01*
X146558000Y-149098000D02*
X149098000Y-149098000D01*
X149098000Y-149098000D02*
X149098000Y-146558000D01*
X102616000Y-141478000D02*
X102616000Y-149098000D01*
X102616000Y-149098000D02*
X107696000Y-149098000D01*
X107696000Y-149098000D02*
X107696000Y-138938000D01*
X107696000Y-138938000D02*
X105156000Y-138938000D01*
X103886000Y-138658000D02*
X102336000Y-138658000D01*
X105156000Y-138938000D02*
X105156000Y-141478000D01*
X105156000Y-141478000D02*
X102616000Y-141478000D01*
X102336000Y-138658000D02*
X102336000Y-140208000D01*
D16*
X118592000Y-133416000D02*
X147092000Y-133416000D01*
X116842000Y-131666000D02*
X116842000Y-111666000D01*
X118592000Y-133416000D02*
G75*
G02X116842000Y-131666000I0J1750000D01*
G01*
X118592000Y-109916000D02*
G75*
G03X116842000Y-111666000I0J-1750000D01*
G01*
X147092000Y-133416000D02*
G75*
G03X148842000Y-131666000I0J1750000D01*
G01*
X147092000Y-109916000D02*
G75*
G02X148842000Y-111666000I0J-1750000D01*
G01*
X118592000Y-109916000D02*
X147092000Y-109916000D01*
X148842000Y-131666000D02*
X148842000Y-111666000D01*
D17*
X146931380Y-92991940D02*
X146931380Y-92047060D01*
X141612620Y-92991940D02*
X141612620Y-92047060D01*
X141612620Y-101498400D02*
X141612620Y-97718880D01*
X146931380Y-101498400D02*
X146931380Y-97718880D01*
X141079220Y-93306900D02*
X144538700Y-92991940D01*
X147464780Y-97088960D02*
X141612620Y-97718880D01*
X141079220Y-97088960D02*
X147464780Y-96459040D01*
X141079220Y-96459040D02*
X147464780Y-95829120D01*
X141079220Y-95829120D02*
X147464780Y-95199200D01*
X141079220Y-95199200D02*
X147464780Y-94566740D01*
X141079220Y-94566740D02*
X147464780Y-93936820D01*
X141079220Y-93936820D02*
X147464780Y-93306900D01*
X141079220Y-93306900D02*
X141612620Y-92991940D01*
X141612620Y-92991940D02*
X146931380Y-92991940D01*
X146931380Y-92991940D02*
X147464780Y-93306900D01*
X147464780Y-93306900D02*
X147464780Y-97403920D01*
X147464780Y-97403920D02*
X146931380Y-97718880D01*
X146931380Y-97718880D02*
X141612620Y-97718880D01*
X141612620Y-97718880D02*
X141079220Y-97403920D01*
X141079220Y-97403920D02*
X141079220Y-93306900D01*
X146931380Y-92047060D02*
X141612620Y-92047060D01*
X141122400Y-101498400D02*
X147421600Y-101498400D01*
X147421600Y-101498400D02*
X147421600Y-107797600D01*
X147421600Y-107797600D02*
X141122400Y-107797600D01*
X141122400Y-107797600D02*
X141122400Y-101498400D01*
X120007380Y-92991940D02*
X120007380Y-92047060D01*
X114688620Y-92991940D02*
X114688620Y-92047060D01*
X114688620Y-101498400D02*
X114688620Y-97718880D01*
X120007380Y-101498400D02*
X120007380Y-97718880D01*
X114155220Y-93306900D02*
X117614700Y-92991940D01*
X120540780Y-97088960D02*
X114688620Y-97718880D01*
X114155220Y-97088960D02*
X120540780Y-96459040D01*
X114155220Y-96459040D02*
X120540780Y-95829120D01*
X114155220Y-95829120D02*
X120540780Y-95199200D01*
X114155220Y-95199200D02*
X120540780Y-94566740D01*
X114155220Y-94566740D02*
X120540780Y-93936820D01*
X114155220Y-93936820D02*
X120540780Y-93306900D01*
X114155220Y-93306900D02*
X114688620Y-92991940D01*
X114688620Y-92991940D02*
X120007380Y-92991940D01*
X120007380Y-92991940D02*
X120540780Y-93306900D01*
X120540780Y-93306900D02*
X120540780Y-97403920D01*
X120540780Y-97403920D02*
X120007380Y-97718880D01*
X120007380Y-97718880D02*
X114688620Y-97718880D01*
X114688620Y-97718880D02*
X114155220Y-97403920D01*
X114155220Y-97403920D02*
X114155220Y-93306900D01*
X120007380Y-92047060D02*
X114688620Y-92047060D01*
X114198400Y-101498400D02*
X120497600Y-101498400D01*
X120497600Y-101498400D02*
X120497600Y-107797600D01*
X120497600Y-107797600D02*
X114198400Y-107797600D01*
X114198400Y-107797600D02*
X114198400Y-101498400D01*
X107815380Y-92991940D02*
X107815380Y-92047060D01*
X102496620Y-92991940D02*
X102496620Y-92047060D01*
X102496620Y-101498400D02*
X102496620Y-97718880D01*
X107815380Y-101498400D02*
X107815380Y-97718880D01*
X101963220Y-93306900D02*
X105422700Y-92991940D01*
X108348780Y-97088960D02*
X102496620Y-97718880D01*
X101963220Y-97088960D02*
X108348780Y-96459040D01*
X101963220Y-96459040D02*
X108348780Y-95829120D01*
X101963220Y-95829120D02*
X108348780Y-95199200D01*
X101963220Y-95199200D02*
X108348780Y-94566740D01*
X101963220Y-94566740D02*
X108348780Y-93936820D01*
X101963220Y-93936820D02*
X108348780Y-93306900D01*
X101963220Y-93306900D02*
X102496620Y-92991940D01*
X102496620Y-92991940D02*
X107815380Y-92991940D01*
X107815380Y-92991940D02*
X108348780Y-93306900D01*
X108348780Y-93306900D02*
X108348780Y-97403920D01*
X108348780Y-97403920D02*
X107815380Y-97718880D01*
X107815380Y-97718880D02*
X102496620Y-97718880D01*
X102496620Y-97718880D02*
X101963220Y-97403920D01*
X101963220Y-97403920D02*
X101963220Y-93306900D01*
X107815380Y-92047060D02*
X102496620Y-92047060D01*
X102006400Y-101498400D02*
X108305600Y-101498400D01*
X108305600Y-101498400D02*
X108305600Y-107797600D01*
X108305600Y-107797600D02*
X102006400Y-107797600D01*
X102006400Y-107797600D02*
X102006400Y-101498400D01*
X134739380Y-92991940D02*
X134739380Y-92047060D01*
X129420620Y-92991940D02*
X129420620Y-92047060D01*
X129420620Y-101498400D02*
X129420620Y-97718880D01*
X134739380Y-101498400D02*
X134739380Y-97718880D01*
X128887220Y-93306900D02*
X132346700Y-92991940D01*
X135272780Y-97088960D02*
X129420620Y-97718880D01*
X128887220Y-97088960D02*
X135272780Y-96459040D01*
X128887220Y-96459040D02*
X135272780Y-95829120D01*
X128887220Y-95829120D02*
X135272780Y-95199200D01*
X128887220Y-95199200D02*
X135272780Y-94566740D01*
X128887220Y-94566740D02*
X135272780Y-93936820D01*
X128887220Y-93936820D02*
X135272780Y-93306900D01*
X128887220Y-93306900D02*
X129420620Y-92991940D01*
X129420620Y-92991940D02*
X134739380Y-92991940D01*
X134739380Y-92991940D02*
X135272780Y-93306900D01*
X135272780Y-93306900D02*
X135272780Y-97403920D01*
X135272780Y-97403920D02*
X134739380Y-97718880D01*
X134739380Y-97718880D02*
X129420620Y-97718880D01*
X129420620Y-97718880D02*
X128887220Y-97403920D01*
X128887220Y-97403920D02*
X128887220Y-93306900D01*
X134739380Y-92047060D02*
X129420620Y-92047060D01*
X128930400Y-101498400D02*
X135229600Y-101498400D01*
X135229600Y-101498400D02*
X135229600Y-107797600D01*
X135229600Y-107797600D02*
X128930400Y-107797600D01*
X128930400Y-107797600D02*
X128930400Y-101498400D01*
D12*
X110652000Y-145638000D02*
X110652000Y-144938000D01*
X111852000Y-144938000D02*
X111852000Y-145638000D01*
X116998000Y-147736000D02*
X117698000Y-147736000D01*
X117698000Y-148936000D02*
X116998000Y-148936000D01*
D18*
X107442000Y-136144000D02*
G75*
G03X107442000Y-136144000I-254000J0D01*
G01*
X107696000Y-133604000D02*
X107696000Y-136652000D01*
X107696000Y-136652000D02*
X104648000Y-136652000D01*
X104648000Y-136652000D02*
X104648000Y-133604000D01*
X104648000Y-133604000D02*
X107696000Y-133604000D01*
X107442000Y-113792000D02*
G75*
G03X107442000Y-113792000I-254000J0D01*
G01*
X107696000Y-111252000D02*
X107696000Y-114300000D01*
X107696000Y-114300000D02*
X104648000Y-114300000D01*
X104648000Y-114300000D02*
X104648000Y-111252000D01*
X104648000Y-111252000D02*
X107696000Y-111252000D01*
X107442000Y-119380000D02*
G75*
G03X107442000Y-119380000I-254000J0D01*
G01*
X107696000Y-116840000D02*
X107696000Y-119888000D01*
X107696000Y-119888000D02*
X104648000Y-119888000D01*
X104648000Y-119888000D02*
X104648000Y-116840000D01*
X104648000Y-116840000D02*
X107696000Y-116840000D01*
X107442000Y-130556000D02*
G75*
G03X107442000Y-130556000I-254000J0D01*
G01*
X107696000Y-128016000D02*
X107696000Y-131064000D01*
X107696000Y-131064000D02*
X104648000Y-131064000D01*
X104648000Y-131064000D02*
X104648000Y-128016000D01*
X104648000Y-128016000D02*
X107696000Y-128016000D01*
X107442000Y-124968000D02*
G75*
G03X107442000Y-124968000I-254000J0D01*
G01*
X107696000Y-122428000D02*
X107696000Y-125476000D01*
X107696000Y-125476000D02*
X104648000Y-125476000D01*
X104648000Y-125476000D02*
X104648000Y-122428000D01*
X104648000Y-122428000D02*
X107696000Y-122428000D01*
D12*
X117616000Y-124806000D02*
X117616000Y-123606000D01*
X119366000Y-123606000D02*
X119366000Y-124806000D01*
X117616000Y-116170000D02*
X117616000Y-114970000D01*
X119366000Y-114970000D02*
X119366000Y-116170000D01*
D11*
X141723334Y-144588667D02*
X141723334Y-143888667D01*
X141990000Y-143888667D01*
X142056667Y-143922000D01*
X142090000Y-143955333D01*
X142123334Y-144022000D01*
X142123334Y-144122000D01*
X142090000Y-144188667D01*
X142056667Y-144222000D01*
X141990000Y-144255333D01*
X141723334Y-144255333D01*
X142790000Y-144588667D02*
X142390000Y-144588667D01*
X142590000Y-144588667D02*
X142590000Y-143888667D01*
X142523334Y-143988667D01*
X142456667Y-144055333D01*
X142390000Y-144088667D01*
X144522000Y-141674000D02*
X144555333Y-141707334D01*
X144588667Y-141807334D01*
X144588667Y-141874000D01*
X144555333Y-141974000D01*
X144488667Y-142040667D01*
X144422000Y-142074000D01*
X144288667Y-142107334D01*
X144188667Y-142107334D01*
X144055333Y-142074000D01*
X143988667Y-142040667D01*
X143922000Y-141974000D01*
X143888667Y-141874000D01*
X143888667Y-141807334D01*
X143922000Y-141707334D01*
X143955333Y-141674000D01*
X143888667Y-141074000D02*
X143888667Y-141207334D01*
X143922000Y-141274000D01*
X143955333Y-141307334D01*
X144055333Y-141374000D01*
X144188667Y-141407334D01*
X144455333Y-141407334D01*
X144522000Y-141374000D01*
X144555333Y-141340667D01*
X144588667Y-141274000D01*
X144588667Y-141140667D01*
X144555333Y-141074000D01*
X144522000Y-141040667D01*
X144455333Y-141007334D01*
X144288667Y-141007334D01*
X144222000Y-141040667D01*
X144188667Y-141074000D01*
X144155333Y-141140667D01*
X144155333Y-141274000D01*
X144188667Y-141340667D01*
X144222000Y-141374000D01*
X144288667Y-141407334D01*
X144122000Y-140407333D02*
X144588667Y-140407333D01*
X143855333Y-140574000D02*
X144355333Y-140740667D01*
X144355333Y-140307333D01*
X138821334Y-130618667D02*
X138588000Y-130285333D01*
X138421334Y-130618667D02*
X138421334Y-129918667D01*
X138688000Y-129918667D01*
X138754667Y-129952000D01*
X138788000Y-129985333D01*
X138821334Y-130052000D01*
X138821334Y-130152000D01*
X138788000Y-130218667D01*
X138754667Y-130252000D01*
X138688000Y-130285333D01*
X138421334Y-130285333D01*
X139488000Y-130618667D02*
X139088000Y-130618667D01*
X139288000Y-130618667D02*
X139288000Y-129918667D01*
X139221334Y-130018667D01*
X139154667Y-130085333D01*
X139088000Y-130118667D01*
X126883334Y-129856667D02*
X126650000Y-129523333D01*
X126483334Y-129856667D02*
X126483334Y-129156667D01*
X126750000Y-129156667D01*
X126816667Y-129190000D01*
X126850000Y-129223333D01*
X126883334Y-129290000D01*
X126883334Y-129390000D01*
X126850000Y-129456667D01*
X126816667Y-129490000D01*
X126750000Y-129523333D01*
X126483334Y-129523333D01*
X127150000Y-129223333D02*
X127183334Y-129190000D01*
X127250000Y-129156667D01*
X127416667Y-129156667D01*
X127483334Y-129190000D01*
X127516667Y-129223333D01*
X127550000Y-129290000D01*
X127550000Y-129356667D01*
X127516667Y-129456667D01*
X127116667Y-129856667D01*
X127550000Y-129856667D01*
X132650667Y-131307666D02*
X132317333Y-131541000D01*
X132650667Y-131707666D02*
X131950667Y-131707666D01*
X131950667Y-131441000D01*
X131984000Y-131374333D01*
X132017333Y-131341000D01*
X132084000Y-131307666D01*
X132184000Y-131307666D01*
X132250667Y-131341000D01*
X132284000Y-131374333D01*
X132317333Y-131441000D01*
X132317333Y-131707666D01*
X131950667Y-131074333D02*
X131950667Y-130641000D01*
X132217333Y-130874333D01*
X132217333Y-130774333D01*
X132250667Y-130707666D01*
X132284000Y-130674333D01*
X132350667Y-130641000D01*
X132517333Y-130641000D01*
X132584000Y-130674333D01*
X132617333Y-130707666D01*
X132650667Y-130774333D01*
X132650667Y-130974333D01*
X132617333Y-131041000D01*
X132584000Y-131074333D01*
X138821334Y-132015667D02*
X138588000Y-131682333D01*
X138421334Y-132015667D02*
X138421334Y-131315667D01*
X138688000Y-131315667D01*
X138754667Y-131349000D01*
X138788000Y-131382333D01*
X138821334Y-131449000D01*
X138821334Y-131549000D01*
X138788000Y-131615667D01*
X138754667Y-131649000D01*
X138688000Y-131682333D01*
X138421334Y-131682333D01*
X139421334Y-131549000D02*
X139421334Y-132015667D01*
X139254667Y-131282333D02*
X139088000Y-131782333D01*
X139521334Y-131782333D01*
X101785000Y-121220667D02*
X101551666Y-120887333D01*
X101385000Y-121220667D02*
X101385000Y-120520667D01*
X101651666Y-120520667D01*
X101718333Y-120554000D01*
X101751666Y-120587333D01*
X101785000Y-120654000D01*
X101785000Y-120754000D01*
X101751666Y-120820667D01*
X101718333Y-120854000D01*
X101651666Y-120887333D01*
X101385000Y-120887333D01*
X102451666Y-121220667D02*
X102051666Y-121220667D01*
X102251666Y-121220667D02*
X102251666Y-120520667D01*
X102185000Y-120620667D01*
X102118333Y-120687333D01*
X102051666Y-120720667D01*
X102885000Y-120520667D02*
X102951667Y-120520667D01*
X103018333Y-120554000D01*
X103051667Y-120587333D01*
X103085000Y-120654000D01*
X103118333Y-120787333D01*
X103118333Y-120954000D01*
X103085000Y-121087333D01*
X103051667Y-121154000D01*
X103018333Y-121187333D01*
X102951667Y-121220667D01*
X102885000Y-121220667D01*
X102818333Y-121187333D01*
X102785000Y-121154000D01*
X102751667Y-121087333D01*
X102718333Y-120954000D01*
X102718333Y-120787333D01*
X102751667Y-120654000D01*
X102785000Y-120587333D01*
X102818333Y-120554000D01*
X102885000Y-120520667D01*
X101912000Y-115632667D02*
X101678666Y-115299333D01*
X101512000Y-115632667D02*
X101512000Y-114932667D01*
X101778666Y-114932667D01*
X101845333Y-114966000D01*
X101878666Y-114999333D01*
X101912000Y-115066000D01*
X101912000Y-115166000D01*
X101878666Y-115232667D01*
X101845333Y-115266000D01*
X101778666Y-115299333D01*
X101512000Y-115299333D01*
X102578666Y-115632667D02*
X102178666Y-115632667D01*
X102378666Y-115632667D02*
X102378666Y-114932667D01*
X102312000Y-115032667D01*
X102245333Y-115099333D01*
X102178666Y-115132667D01*
X103245333Y-115632667D02*
X102845333Y-115632667D01*
X103045333Y-115632667D02*
X103045333Y-114932667D01*
X102978667Y-115032667D01*
X102912000Y-115099333D01*
X102845333Y-115132667D01*
X113346667Y-124402000D02*
X113013333Y-124635334D01*
X113346667Y-124802000D02*
X112646667Y-124802000D01*
X112646667Y-124535334D01*
X112680000Y-124468667D01*
X112713333Y-124435334D01*
X112780000Y-124402000D01*
X112880000Y-124402000D01*
X112946667Y-124435334D01*
X112980000Y-124468667D01*
X113013333Y-124535334D01*
X113013333Y-124802000D01*
X113346667Y-123735334D02*
X113346667Y-124135334D01*
X113346667Y-123935334D02*
X112646667Y-123935334D01*
X112746667Y-124002000D01*
X112813333Y-124068667D01*
X112846667Y-124135334D01*
X112713333Y-123468667D02*
X112680000Y-123435333D01*
X112646667Y-123368667D01*
X112646667Y-123202000D01*
X112680000Y-123135333D01*
X112713333Y-123102000D01*
X112780000Y-123068667D01*
X112846667Y-123068667D01*
X112946667Y-123102000D01*
X113346667Y-123502000D01*
X113346667Y-123068667D01*
X107504667Y-121608000D02*
X107171333Y-121841334D01*
X107504667Y-122008000D02*
X106804667Y-122008000D01*
X106804667Y-121741334D01*
X106838000Y-121674667D01*
X106871333Y-121641334D01*
X106938000Y-121608000D01*
X107038000Y-121608000D01*
X107104667Y-121641334D01*
X107138000Y-121674667D01*
X107171333Y-121741334D01*
X107171333Y-122008000D01*
X107504667Y-120941334D02*
X107504667Y-121341334D01*
X107504667Y-121141334D02*
X106804667Y-121141334D01*
X106904667Y-121208000D01*
X106971333Y-121274667D01*
X107004667Y-121341334D01*
X106804667Y-120708000D02*
X106804667Y-120274667D01*
X107071333Y-120508000D01*
X107071333Y-120408000D01*
X107104667Y-120341333D01*
X107138000Y-120308000D01*
X107204667Y-120274667D01*
X107371333Y-120274667D01*
X107438000Y-120308000D01*
X107471333Y-120341333D01*
X107504667Y-120408000D01*
X107504667Y-120608000D01*
X107471333Y-120674667D01*
X107438000Y-120708000D01*
X113346667Y-129990000D02*
X113013333Y-130223334D01*
X113346667Y-130390000D02*
X112646667Y-130390000D01*
X112646667Y-130123334D01*
X112680000Y-130056667D01*
X112713333Y-130023334D01*
X112780000Y-129990000D01*
X112880000Y-129990000D01*
X112946667Y-130023334D01*
X112980000Y-130056667D01*
X113013333Y-130123334D01*
X113013333Y-130390000D01*
X113346667Y-129323334D02*
X113346667Y-129723334D01*
X113346667Y-129523334D02*
X112646667Y-129523334D01*
X112746667Y-129590000D01*
X112813333Y-129656667D01*
X112846667Y-129723334D01*
X112880000Y-128723333D02*
X113346667Y-128723333D01*
X112613333Y-128890000D02*
X113113333Y-129056667D01*
X113113333Y-128623333D01*
X106103000Y-127062667D02*
X105869666Y-126729333D01*
X105703000Y-127062667D02*
X105703000Y-126362667D01*
X105969666Y-126362667D01*
X106036333Y-126396000D01*
X106069666Y-126429333D01*
X106103000Y-126496000D01*
X106103000Y-126596000D01*
X106069666Y-126662667D01*
X106036333Y-126696000D01*
X105969666Y-126729333D01*
X105703000Y-126729333D01*
X106769666Y-127062667D02*
X106369666Y-127062667D01*
X106569666Y-127062667D02*
X106569666Y-126362667D01*
X106503000Y-126462667D01*
X106436333Y-126529333D01*
X106369666Y-126562667D01*
X107403000Y-126362667D02*
X107069667Y-126362667D01*
X107036333Y-126696000D01*
X107069667Y-126662667D01*
X107136333Y-126629333D01*
X107303000Y-126629333D01*
X107369667Y-126662667D01*
X107403000Y-126696000D01*
X107436333Y-126762667D01*
X107436333Y-126929333D01*
X107403000Y-126996000D01*
X107369667Y-127029333D01*
X107303000Y-127062667D01*
X107136333Y-127062667D01*
X107069667Y-127029333D01*
X107036333Y-126996000D01*
X113346667Y-118814000D02*
X113013333Y-119047334D01*
X113346667Y-119214000D02*
X112646667Y-119214000D01*
X112646667Y-118947334D01*
X112680000Y-118880667D01*
X112713333Y-118847334D01*
X112780000Y-118814000D01*
X112880000Y-118814000D01*
X112946667Y-118847334D01*
X112980000Y-118880667D01*
X113013333Y-118947334D01*
X113013333Y-119214000D01*
X113346667Y-118147334D02*
X113346667Y-118547334D01*
X113346667Y-118347334D02*
X112646667Y-118347334D01*
X112746667Y-118414000D01*
X112813333Y-118480667D01*
X112846667Y-118547334D01*
X112646667Y-117547333D02*
X112646667Y-117680667D01*
X112680000Y-117747333D01*
X112713333Y-117780667D01*
X112813333Y-117847333D01*
X112946667Y-117880667D01*
X113213333Y-117880667D01*
X113280000Y-117847333D01*
X113313333Y-117814000D01*
X113346667Y-117747333D01*
X113346667Y-117614000D01*
X113313333Y-117547333D01*
X113280000Y-117514000D01*
X113213333Y-117480667D01*
X113046667Y-117480667D01*
X112980000Y-117514000D01*
X112946667Y-117547333D01*
X112913333Y-117614000D01*
X112913333Y-117747333D01*
X112946667Y-117814000D01*
X112980000Y-117847333D01*
X113046667Y-117880667D01*
X111310000Y-116267667D02*
X111076666Y-115934333D01*
X110910000Y-116267667D02*
X110910000Y-115567667D01*
X111176666Y-115567667D01*
X111243333Y-115601000D01*
X111276666Y-115634333D01*
X111310000Y-115701000D01*
X111310000Y-115801000D01*
X111276666Y-115867667D01*
X111243333Y-115901000D01*
X111176666Y-115934333D01*
X110910000Y-115934333D01*
X111976666Y-116267667D02*
X111576666Y-116267667D01*
X111776666Y-116267667D02*
X111776666Y-115567667D01*
X111710000Y-115667667D01*
X111643333Y-115734333D01*
X111576666Y-115767667D01*
X112210000Y-115567667D02*
X112676667Y-115567667D01*
X112376667Y-116267667D01*
X101658000Y-109536667D02*
X101424666Y-109203333D01*
X101258000Y-109536667D02*
X101258000Y-108836667D01*
X101524666Y-108836667D01*
X101591333Y-108870000D01*
X101624666Y-108903333D01*
X101658000Y-108970000D01*
X101658000Y-109070000D01*
X101624666Y-109136667D01*
X101591333Y-109170000D01*
X101524666Y-109203333D01*
X101258000Y-109203333D01*
X102324666Y-109536667D02*
X101924666Y-109536667D01*
X102124666Y-109536667D02*
X102124666Y-108836667D01*
X102058000Y-108936667D01*
X101991333Y-109003333D01*
X101924666Y-109036667D01*
X102724667Y-109136667D02*
X102658000Y-109103333D01*
X102624667Y-109070000D01*
X102591333Y-109003333D01*
X102591333Y-108970000D01*
X102624667Y-108903333D01*
X102658000Y-108870000D01*
X102724667Y-108836667D01*
X102858000Y-108836667D01*
X102924667Y-108870000D01*
X102958000Y-108903333D01*
X102991333Y-108970000D01*
X102991333Y-109003333D01*
X102958000Y-109070000D01*
X102924667Y-109103333D01*
X102858000Y-109136667D01*
X102724667Y-109136667D01*
X102658000Y-109170000D01*
X102624667Y-109203333D01*
X102591333Y-109270000D01*
X102591333Y-109403333D01*
X102624667Y-109470000D01*
X102658000Y-109503333D01*
X102724667Y-109536667D01*
X102858000Y-109536667D01*
X102924667Y-109503333D01*
X102958000Y-109470000D01*
X102991333Y-109403333D01*
X102991333Y-109270000D01*
X102958000Y-109203333D01*
X102924667Y-109170000D01*
X102858000Y-109136667D01*
X113346667Y-113226000D02*
X113013333Y-113459334D01*
X113346667Y-113626000D02*
X112646667Y-113626000D01*
X112646667Y-113359334D01*
X112680000Y-113292667D01*
X112713333Y-113259334D01*
X112780000Y-113226000D01*
X112880000Y-113226000D01*
X112946667Y-113259334D01*
X112980000Y-113292667D01*
X113013333Y-113359334D01*
X113013333Y-113626000D01*
X113346667Y-112559334D02*
X113346667Y-112959334D01*
X113346667Y-112759334D02*
X112646667Y-112759334D01*
X112746667Y-112826000D01*
X112813333Y-112892667D01*
X112846667Y-112959334D01*
X113346667Y-112226000D02*
X113346667Y-112092667D01*
X113313333Y-112026000D01*
X113280000Y-111992667D01*
X113180000Y-111926000D01*
X113046667Y-111892667D01*
X112780000Y-111892667D01*
X112713333Y-111926000D01*
X112680000Y-111959333D01*
X112646667Y-112026000D01*
X112646667Y-112159333D01*
X112680000Y-112226000D01*
X112713333Y-112259333D01*
X112780000Y-112292667D01*
X112946667Y-112292667D01*
X113013333Y-112259333D01*
X113046667Y-112226000D01*
X113080000Y-112159333D01*
X113080000Y-112026000D01*
X113046667Y-111959333D01*
X113013333Y-111926000D01*
X112946667Y-111892667D01*
X107504667Y-110432000D02*
X107171333Y-110665334D01*
X107504667Y-110832000D02*
X106804667Y-110832000D01*
X106804667Y-110565334D01*
X106838000Y-110498667D01*
X106871333Y-110465334D01*
X106938000Y-110432000D01*
X107038000Y-110432000D01*
X107104667Y-110465334D01*
X107138000Y-110498667D01*
X107171333Y-110565334D01*
X107171333Y-110832000D01*
X106871333Y-110165334D02*
X106838000Y-110132000D01*
X106804667Y-110065334D01*
X106804667Y-109898667D01*
X106838000Y-109832000D01*
X106871333Y-109798667D01*
X106938000Y-109765334D01*
X107004667Y-109765334D01*
X107104667Y-109798667D01*
X107504667Y-110198667D01*
X107504667Y-109765334D01*
X106804667Y-109332000D02*
X106804667Y-109265333D01*
X106838000Y-109198667D01*
X106871333Y-109165333D01*
X106938000Y-109132000D01*
X107071333Y-109098667D01*
X107238000Y-109098667D01*
X107371333Y-109132000D01*
X107438000Y-109165333D01*
X107471333Y-109198667D01*
X107504667Y-109265333D01*
X107504667Y-109332000D01*
X107471333Y-109398667D01*
X107438000Y-109432000D01*
X107371333Y-109465333D01*
X107238000Y-109498667D01*
X107071333Y-109498667D01*
X106938000Y-109465333D01*
X106871333Y-109432000D01*
X106838000Y-109398667D01*
X106804667Y-109332000D01*
X113346667Y-135578000D02*
X113013333Y-135811334D01*
X113346667Y-135978000D02*
X112646667Y-135978000D01*
X112646667Y-135711334D01*
X112680000Y-135644667D01*
X112713333Y-135611334D01*
X112780000Y-135578000D01*
X112880000Y-135578000D01*
X112946667Y-135611334D01*
X112980000Y-135644667D01*
X113013333Y-135711334D01*
X113013333Y-135978000D01*
X112713333Y-135311334D02*
X112680000Y-135278000D01*
X112646667Y-135211334D01*
X112646667Y-135044667D01*
X112680000Y-134978000D01*
X112713333Y-134944667D01*
X112780000Y-134911334D01*
X112846667Y-134911334D01*
X112946667Y-134944667D01*
X113346667Y-135344667D01*
X113346667Y-134911334D01*
X113346667Y-134244667D02*
X113346667Y-134644667D01*
X113346667Y-134444667D02*
X112646667Y-134444667D01*
X112746667Y-134511333D01*
X112813333Y-134578000D01*
X112846667Y-134644667D01*
X106103000Y-132650667D02*
X105869666Y-132317333D01*
X105703000Y-132650667D02*
X105703000Y-131950667D01*
X105969666Y-131950667D01*
X106036333Y-131984000D01*
X106069666Y-132017333D01*
X106103000Y-132084000D01*
X106103000Y-132184000D01*
X106069666Y-132250667D01*
X106036333Y-132284000D01*
X105969666Y-132317333D01*
X105703000Y-132317333D01*
X106369666Y-132017333D02*
X106403000Y-131984000D01*
X106469666Y-131950667D01*
X106636333Y-131950667D01*
X106703000Y-131984000D01*
X106736333Y-132017333D01*
X106769666Y-132084000D01*
X106769666Y-132150667D01*
X106736333Y-132250667D01*
X106336333Y-132650667D01*
X106769666Y-132650667D01*
X107036333Y-132017333D02*
X107069667Y-131984000D01*
X107136333Y-131950667D01*
X107303000Y-131950667D01*
X107369667Y-131984000D01*
X107403000Y-132017333D01*
X107436333Y-132084000D01*
X107436333Y-132150667D01*
X107403000Y-132250667D01*
X107003000Y-132650667D01*
X107436333Y-132650667D01*
X131292667Y-127886667D02*
X131292667Y-128453333D01*
X131326000Y-128520000D01*
X131359333Y-128553333D01*
X131426000Y-128586667D01*
X131559333Y-128586667D01*
X131626000Y-128553333D01*
X131659333Y-128520000D01*
X131692667Y-128453333D01*
X131692667Y-127886667D01*
X132392666Y-128586667D02*
X131992666Y-128586667D01*
X132192666Y-128586667D02*
X132192666Y-127886667D01*
X132126000Y-127986667D01*
X132059333Y-128053333D01*
X131992666Y-128086667D01*
X143738667Y-123568667D02*
X143738667Y-124135333D01*
X143772000Y-124202000D01*
X143805333Y-124235333D01*
X143872000Y-124268667D01*
X144005333Y-124268667D01*
X144072000Y-124235333D01*
X144105333Y-124202000D01*
X144138667Y-124135333D01*
X144138667Y-123568667D01*
X144438666Y-123635333D02*
X144472000Y-123602000D01*
X144538666Y-123568667D01*
X144705333Y-123568667D01*
X144772000Y-123602000D01*
X144805333Y-123635333D01*
X144838666Y-123702000D01*
X144838666Y-123768667D01*
X144805333Y-123868667D01*
X144405333Y-124268667D01*
X144838666Y-124268667D01*
X142722667Y-116583667D02*
X142722667Y-117150333D01*
X142756000Y-117217000D01*
X142789333Y-117250333D01*
X142856000Y-117283667D01*
X142989333Y-117283667D01*
X143056000Y-117250333D01*
X143089333Y-117217000D01*
X143122667Y-117150333D01*
X143122667Y-116583667D01*
X143389333Y-116583667D02*
X143822666Y-116583667D01*
X143589333Y-116850333D01*
X143689333Y-116850333D01*
X143756000Y-116883667D01*
X143789333Y-116917000D01*
X143822666Y-116983667D01*
X143822666Y-117150333D01*
X143789333Y-117217000D01*
X143756000Y-117250333D01*
X143689333Y-117283667D01*
X143489333Y-117283667D01*
X143422666Y-117250333D01*
X143389333Y-117217000D01*
X121259667Y-131315667D02*
X121259667Y-131882333D01*
X121293000Y-131949000D01*
X121326333Y-131982333D01*
X121393000Y-132015667D01*
X121526333Y-132015667D01*
X121593000Y-131982333D01*
X121626333Y-131949000D01*
X121659667Y-131882333D01*
X121659667Y-131315667D01*
X122293000Y-131549000D02*
X122293000Y-132015667D01*
X122126333Y-131282333D02*
X121959666Y-131782333D01*
X122393000Y-131782333D01*
X122656667Y-123060667D02*
X122656667Y-123627333D01*
X122690000Y-123694000D01*
X122723333Y-123727333D01*
X122790000Y-123760667D01*
X122923333Y-123760667D01*
X122990000Y-123727333D01*
X123023333Y-123694000D01*
X123056667Y-123627333D01*
X123056667Y-123060667D01*
X123723333Y-123060667D02*
X123390000Y-123060667D01*
X123356666Y-123394000D01*
X123390000Y-123360667D01*
X123456666Y-123327333D01*
X123623333Y-123327333D01*
X123690000Y-123360667D01*
X123723333Y-123394000D01*
X123756666Y-123460667D01*
X123756666Y-123627333D01*
X123723333Y-123694000D01*
X123690000Y-123727333D01*
X123623333Y-123760667D01*
X123456666Y-123760667D01*
X123390000Y-123727333D01*
X123356666Y-123694000D01*
X112925334Y-142364667D02*
X112925334Y-142931333D01*
X112958667Y-142998000D01*
X112992000Y-143031333D01*
X113058667Y-143064667D01*
X113192000Y-143064667D01*
X113258667Y-143031333D01*
X113292000Y-142998000D01*
X113325334Y-142931333D01*
X113325334Y-142364667D01*
X114025333Y-143064667D02*
X113625333Y-143064667D01*
X113825333Y-143064667D02*
X113825333Y-142364667D01*
X113758667Y-142464667D01*
X113692000Y-142531333D01*
X113625333Y-142564667D01*
X114625334Y-142598000D02*
X114625334Y-143064667D01*
X114458667Y-142331333D02*
X114292000Y-142831333D01*
X114725334Y-142831333D01*
X114449334Y-140840667D02*
X114449334Y-141407333D01*
X114482667Y-141474000D01*
X114516000Y-141507333D01*
X114582667Y-141540667D01*
X114716000Y-141540667D01*
X114782667Y-141507333D01*
X114816000Y-141474000D01*
X114849334Y-141407333D01*
X114849334Y-140840667D01*
X115549333Y-141540667D02*
X115149333Y-141540667D01*
X115349333Y-141540667D02*
X115349333Y-140840667D01*
X115282667Y-140940667D01*
X115216000Y-141007333D01*
X115149333Y-141040667D01*
X116182667Y-140840667D02*
X115849334Y-140840667D01*
X115816000Y-141174000D01*
X115849334Y-141140667D01*
X115916000Y-141107333D01*
X116082667Y-141107333D01*
X116149334Y-141140667D01*
X116182667Y-141174000D01*
X116216000Y-141240667D01*
X116216000Y-141407333D01*
X116182667Y-141474000D01*
X116149334Y-141507333D01*
X116082667Y-141540667D01*
X115916000Y-141540667D01*
X115849334Y-141507333D01*
X115816000Y-141474000D01*
X129982134Y-115820000D02*
X129948800Y-115853333D01*
X129848800Y-115886667D01*
X129782134Y-115886667D01*
X129682134Y-115853333D01*
X129615467Y-115786667D01*
X129582134Y-115720000D01*
X129548800Y-115586667D01*
X129548800Y-115486667D01*
X129582134Y-115353333D01*
X129615467Y-115286667D01*
X129682134Y-115220000D01*
X129782134Y-115186667D01*
X129848800Y-115186667D01*
X129948800Y-115220000D01*
X129982134Y-115253333D01*
X130615467Y-115186667D02*
X130282134Y-115186667D01*
X130248800Y-115520000D01*
X130282134Y-115486667D01*
X130348800Y-115453333D01*
X130515467Y-115453333D01*
X130582134Y-115486667D01*
X130615467Y-115520000D01*
X130648800Y-115586667D01*
X130648800Y-115753333D01*
X130615467Y-115820000D01*
X130582134Y-115853333D01*
X130515467Y-115886667D01*
X130348800Y-115886667D01*
X130282134Y-115853333D01*
X130248800Y-115820000D01*
X136535334Y-117090000D02*
X136502000Y-117123333D01*
X136402000Y-117156667D01*
X136335334Y-117156667D01*
X136235334Y-117123333D01*
X136168667Y-117056667D01*
X136135334Y-116990000D01*
X136102000Y-116856667D01*
X136102000Y-116756667D01*
X136135334Y-116623333D01*
X136168667Y-116556667D01*
X136235334Y-116490000D01*
X136335334Y-116456667D01*
X136402000Y-116456667D01*
X136502000Y-116490000D01*
X136535334Y-116523333D01*
X137135334Y-116456667D02*
X137002000Y-116456667D01*
X136935334Y-116490000D01*
X136902000Y-116523333D01*
X136835334Y-116623333D01*
X136802000Y-116756667D01*
X136802000Y-117023333D01*
X136835334Y-117090000D01*
X136868667Y-117123333D01*
X136935334Y-117156667D01*
X137068667Y-117156667D01*
X137135334Y-117123333D01*
X137168667Y-117090000D01*
X137202000Y-117023333D01*
X137202000Y-116856667D01*
X137168667Y-116790000D01*
X137135334Y-116756667D01*
X137068667Y-116723333D01*
X136935334Y-116723333D01*
X136868667Y-116756667D01*
X136835334Y-116790000D01*
X136802000Y-116856667D01*
X138742000Y-129536000D02*
X138708666Y-129569333D01*
X138608666Y-129602667D01*
X138542000Y-129602667D01*
X138442000Y-129569333D01*
X138375333Y-129502667D01*
X138342000Y-129436000D01*
X138308666Y-129302667D01*
X138308666Y-129202667D01*
X138342000Y-129069333D01*
X138375333Y-129002667D01*
X138442000Y-128936000D01*
X138542000Y-128902667D01*
X138608666Y-128902667D01*
X138708666Y-128936000D01*
X138742000Y-128969333D01*
X139408666Y-129602667D02*
X139008666Y-129602667D01*
X139208666Y-129602667D02*
X139208666Y-128902667D01*
X139142000Y-129002667D01*
X139075333Y-129069333D01*
X139008666Y-129102667D01*
X140075333Y-129602667D02*
X139675333Y-129602667D01*
X139875333Y-129602667D02*
X139875333Y-128902667D01*
X139808667Y-129002667D01*
X139742000Y-129069333D01*
X139675333Y-129102667D01*
D10*
X135977286Y-127893715D02*
X136005857Y-127922286D01*
X136034429Y-128008000D01*
X136034429Y-128065143D01*
X136005857Y-128150858D01*
X135948714Y-128208000D01*
X135891571Y-128236572D01*
X135777286Y-128265143D01*
X135691571Y-128265143D01*
X135577286Y-128236572D01*
X135520143Y-128208000D01*
X135463000Y-128150858D01*
X135434429Y-128065143D01*
X135434429Y-128008000D01*
X135463000Y-127922286D01*
X135491571Y-127893715D01*
X136034429Y-127322286D02*
X136034429Y-127665143D01*
X136034429Y-127493715D02*
X135434429Y-127493715D01*
X135520143Y-127550858D01*
X135577286Y-127608000D01*
X135605857Y-127665143D01*
X135491571Y-127093714D02*
X135463000Y-127065143D01*
X135434429Y-127008000D01*
X135434429Y-126865143D01*
X135463000Y-126808000D01*
X135491571Y-126779429D01*
X135548714Y-126750857D01*
X135605857Y-126750857D01*
X135691571Y-126779429D01*
X136034429Y-127122286D01*
X136034429Y-126750857D01*
D11*
X141790000Y-130298000D02*
X141756666Y-130331333D01*
X141656666Y-130364667D01*
X141590000Y-130364667D01*
X141490000Y-130331333D01*
X141423333Y-130264667D01*
X141390000Y-130198000D01*
X141356666Y-130064667D01*
X141356666Y-129964667D01*
X141390000Y-129831333D01*
X141423333Y-129764667D01*
X141490000Y-129698000D01*
X141590000Y-129664667D01*
X141656666Y-129664667D01*
X141756666Y-129698000D01*
X141790000Y-129731333D01*
X142456666Y-130364667D02*
X142056666Y-130364667D01*
X142256666Y-130364667D02*
X142256666Y-129664667D01*
X142190000Y-129764667D01*
X142123333Y-129831333D01*
X142056666Y-129864667D01*
X142690000Y-129664667D02*
X143123333Y-129664667D01*
X142890000Y-129931333D01*
X142990000Y-129931333D01*
X143056667Y-129964667D01*
X143090000Y-129998000D01*
X143123333Y-130064667D01*
X143123333Y-130231333D01*
X143090000Y-130298000D01*
X143056667Y-130331333D01*
X142990000Y-130364667D01*
X142790000Y-130364667D01*
X142723333Y-130331333D01*
X142690000Y-130298000D01*
X141790000Y-123186000D02*
X141756666Y-123219333D01*
X141656666Y-123252667D01*
X141590000Y-123252667D01*
X141490000Y-123219333D01*
X141423333Y-123152667D01*
X141390000Y-123086000D01*
X141356666Y-122952667D01*
X141356666Y-122852667D01*
X141390000Y-122719333D01*
X141423333Y-122652667D01*
X141490000Y-122586000D01*
X141590000Y-122552667D01*
X141656666Y-122552667D01*
X141756666Y-122586000D01*
X141790000Y-122619333D01*
X142456666Y-123252667D02*
X142056666Y-123252667D01*
X142256666Y-123252667D02*
X142256666Y-122552667D01*
X142190000Y-122652667D01*
X142123333Y-122719333D01*
X142056666Y-122752667D01*
X142790000Y-123252667D02*
X142923333Y-123252667D01*
X142990000Y-123219333D01*
X143023333Y-123186000D01*
X143090000Y-123086000D01*
X143123333Y-122952667D01*
X143123333Y-122686000D01*
X143090000Y-122619333D01*
X143056667Y-122586000D01*
X142990000Y-122552667D01*
X142856667Y-122552667D01*
X142790000Y-122586000D01*
X142756667Y-122619333D01*
X142723333Y-122686000D01*
X142723333Y-122852667D01*
X142756667Y-122919333D01*
X142790000Y-122952667D01*
X142856667Y-122986000D01*
X142990000Y-122986000D01*
X143056667Y-122952667D01*
X143090000Y-122919333D01*
X143123333Y-122852667D01*
X122994000Y-125345000D02*
X122960666Y-125378333D01*
X122860666Y-125411667D01*
X122794000Y-125411667D01*
X122694000Y-125378333D01*
X122627333Y-125311667D01*
X122594000Y-125245000D01*
X122560666Y-125111667D01*
X122560666Y-125011667D01*
X122594000Y-124878333D01*
X122627333Y-124811667D01*
X122694000Y-124745000D01*
X122794000Y-124711667D01*
X122860666Y-124711667D01*
X122960666Y-124745000D01*
X122994000Y-124778333D01*
X123260666Y-124778333D02*
X123294000Y-124745000D01*
X123360666Y-124711667D01*
X123527333Y-124711667D01*
X123594000Y-124745000D01*
X123627333Y-124778333D01*
X123660666Y-124845000D01*
X123660666Y-124911667D01*
X123627333Y-125011667D01*
X123227333Y-125411667D01*
X123660666Y-125411667D01*
X124060667Y-125011667D02*
X123994000Y-124978333D01*
X123960667Y-124945000D01*
X123927333Y-124878333D01*
X123927333Y-124845000D01*
X123960667Y-124778333D01*
X123994000Y-124745000D01*
X124060667Y-124711667D01*
X124194000Y-124711667D01*
X124260667Y-124745000D01*
X124294000Y-124778333D01*
X124327333Y-124845000D01*
X124327333Y-124878333D01*
X124294000Y-124945000D01*
X124260667Y-124978333D01*
X124194000Y-125011667D01*
X124060667Y-125011667D01*
X123994000Y-125045000D01*
X123960667Y-125078333D01*
X123927333Y-125145000D01*
X123927333Y-125278333D01*
X123960667Y-125345000D01*
X123994000Y-125378333D01*
X124060667Y-125411667D01*
X124194000Y-125411667D01*
X124260667Y-125378333D01*
X124294000Y-125345000D01*
X124327333Y-125278333D01*
X124327333Y-125145000D01*
X124294000Y-125078333D01*
X124260667Y-125045000D01*
X124194000Y-125011667D01*
X123375000Y-116582000D02*
X123341666Y-116615333D01*
X123241666Y-116648667D01*
X123175000Y-116648667D01*
X123075000Y-116615333D01*
X123008333Y-116548667D01*
X122975000Y-116482000D01*
X122941666Y-116348667D01*
X122941666Y-116248667D01*
X122975000Y-116115333D01*
X123008333Y-116048667D01*
X123075000Y-115982000D01*
X123175000Y-115948667D01*
X123241666Y-115948667D01*
X123341666Y-115982000D01*
X123375000Y-116015333D01*
X123608333Y-115948667D02*
X124041666Y-115948667D01*
X123808333Y-116215333D01*
X123908333Y-116215333D01*
X123975000Y-116248667D01*
X124008333Y-116282000D01*
X124041666Y-116348667D01*
X124041666Y-116515333D01*
X124008333Y-116582000D01*
X123975000Y-116615333D01*
X123908333Y-116648667D01*
X123708333Y-116648667D01*
X123641666Y-116615333D01*
X123608333Y-116582000D01*
X124641667Y-116182000D02*
X124641667Y-116648667D01*
X124475000Y-115915333D02*
X124308333Y-116415333D01*
X124741667Y-116415333D01*
X144268000Y-114115000D02*
X144301333Y-114148334D01*
X144334667Y-114248334D01*
X144334667Y-114315000D01*
X144301333Y-114415000D01*
X144234667Y-114481667D01*
X144168000Y-114515000D01*
X144034667Y-114548334D01*
X143934667Y-114548334D01*
X143801333Y-114515000D01*
X143734667Y-114481667D01*
X143668000Y-114415000D01*
X143634667Y-114315000D01*
X143634667Y-114248334D01*
X143668000Y-114148334D01*
X143701333Y-114115000D01*
X143634667Y-113881667D02*
X143634667Y-113448334D01*
X143901333Y-113681667D01*
X143901333Y-113581667D01*
X143934667Y-113515000D01*
X143968000Y-113481667D01*
X144034667Y-113448334D01*
X144201333Y-113448334D01*
X144268000Y-113481667D01*
X144301333Y-113515000D01*
X144334667Y-113581667D01*
X144334667Y-113781667D01*
X144301333Y-113848334D01*
X144268000Y-113881667D01*
X143634667Y-113215000D02*
X143634667Y-112748333D01*
X144334667Y-113048333D01*
X119376000Y-112972000D02*
X119409333Y-113005334D01*
X119442667Y-113105334D01*
X119442667Y-113172000D01*
X119409333Y-113272000D01*
X119342667Y-113338667D01*
X119276000Y-113372000D01*
X119142667Y-113405334D01*
X119042667Y-113405334D01*
X118909333Y-113372000D01*
X118842667Y-113338667D01*
X118776000Y-113272000D01*
X118742667Y-113172000D01*
X118742667Y-113105334D01*
X118776000Y-113005334D01*
X118809333Y-112972000D01*
X118742667Y-112738667D02*
X118742667Y-112305334D01*
X119009333Y-112538667D01*
X119009333Y-112438667D01*
X119042667Y-112372000D01*
X119076000Y-112338667D01*
X119142667Y-112305334D01*
X119309333Y-112305334D01*
X119376000Y-112338667D01*
X119409333Y-112372000D01*
X119442667Y-112438667D01*
X119442667Y-112638667D01*
X119409333Y-112705334D01*
X119376000Y-112738667D01*
X119042667Y-111905333D02*
X119009333Y-111972000D01*
X118976000Y-112005333D01*
X118909333Y-112038667D01*
X118876000Y-112038667D01*
X118809333Y-112005333D01*
X118776000Y-111972000D01*
X118742667Y-111905333D01*
X118742667Y-111772000D01*
X118776000Y-111705333D01*
X118809333Y-111672000D01*
X118876000Y-111638667D01*
X118909333Y-111638667D01*
X118976000Y-111672000D01*
X119009333Y-111705333D01*
X119042667Y-111772000D01*
X119042667Y-111905333D01*
X119076000Y-111972000D01*
X119109333Y-112005333D01*
X119176000Y-112038667D01*
X119309333Y-112038667D01*
X119376000Y-112005333D01*
X119409333Y-111972000D01*
X119442667Y-111905333D01*
X119442667Y-111772000D01*
X119409333Y-111705333D01*
X119376000Y-111672000D01*
X119309333Y-111638667D01*
X119176000Y-111638667D01*
X119109333Y-111672000D01*
X119076000Y-111705333D01*
X119042667Y-111772000D01*
X135440000Y-112010000D02*
X135406666Y-112043333D01*
X135306666Y-112076667D01*
X135240000Y-112076667D01*
X135140000Y-112043333D01*
X135073333Y-111976667D01*
X135040000Y-111910000D01*
X135006666Y-111776667D01*
X135006666Y-111676667D01*
X135040000Y-111543333D01*
X135073333Y-111476667D01*
X135140000Y-111410000D01*
X135240000Y-111376667D01*
X135306666Y-111376667D01*
X135406666Y-111410000D01*
X135440000Y-111443333D01*
X135673333Y-111376667D02*
X136106666Y-111376667D01*
X135873333Y-111643333D01*
X135973333Y-111643333D01*
X136040000Y-111676667D01*
X136073333Y-111710000D01*
X136106666Y-111776667D01*
X136106666Y-111943333D01*
X136073333Y-112010000D01*
X136040000Y-112043333D01*
X135973333Y-112076667D01*
X135773333Y-112076667D01*
X135706666Y-112043333D01*
X135673333Y-112010000D01*
X136440000Y-112076667D02*
X136573333Y-112076667D01*
X136640000Y-112043333D01*
X136673333Y-112010000D01*
X136740000Y-111910000D01*
X136773333Y-111776667D01*
X136773333Y-111510000D01*
X136740000Y-111443333D01*
X136706667Y-111410000D01*
X136640000Y-111376667D01*
X136506667Y-111376667D01*
X136440000Y-111410000D01*
X136406667Y-111443333D01*
X136373333Y-111510000D01*
X136373333Y-111676667D01*
X136406667Y-111743333D01*
X136440000Y-111776667D01*
X136506667Y-111810000D01*
X136640000Y-111810000D01*
X136706667Y-111776667D01*
X136740000Y-111743333D01*
X136773333Y-111676667D01*
X125026000Y-115312000D02*
X124992666Y-115345333D01*
X124892666Y-115378667D01*
X124826000Y-115378667D01*
X124726000Y-115345333D01*
X124659333Y-115278667D01*
X124626000Y-115212000D01*
X124592666Y-115078667D01*
X124592666Y-114978667D01*
X124626000Y-114845333D01*
X124659333Y-114778667D01*
X124726000Y-114712000D01*
X124826000Y-114678667D01*
X124892666Y-114678667D01*
X124992666Y-114712000D01*
X125026000Y-114745333D01*
X125626000Y-114912000D02*
X125626000Y-115378667D01*
X125459333Y-114645333D02*
X125292666Y-115145333D01*
X125726000Y-115145333D01*
X126126000Y-114678667D02*
X126192667Y-114678667D01*
X126259333Y-114712000D01*
X126292667Y-114745333D01*
X126326000Y-114812000D01*
X126359333Y-114945333D01*
X126359333Y-115112000D01*
X126326000Y-115245333D01*
X126292667Y-115312000D01*
X126259333Y-115345333D01*
X126192667Y-115378667D01*
X126126000Y-115378667D01*
X126059333Y-115345333D01*
X126026000Y-115312000D01*
X125992667Y-115245333D01*
X125959333Y-115112000D01*
X125959333Y-114945333D01*
X125992667Y-114812000D01*
X126026000Y-114745333D01*
X126059333Y-114712000D01*
X126126000Y-114678667D01*
X101596000Y-123386000D02*
X101629333Y-123419334D01*
X101662667Y-123519334D01*
X101662667Y-123586000D01*
X101629333Y-123686000D01*
X101562667Y-123752667D01*
X101496000Y-123786000D01*
X101362667Y-123819334D01*
X101262667Y-123819334D01*
X101129333Y-123786000D01*
X101062667Y-123752667D01*
X100996000Y-123686000D01*
X100962667Y-123586000D01*
X100962667Y-123519334D01*
X100996000Y-123419334D01*
X101029333Y-123386000D01*
X101196000Y-122786000D02*
X101662667Y-122786000D01*
X100929333Y-122952667D02*
X101429333Y-123119334D01*
X101429333Y-122686000D01*
X100962667Y-122119333D02*
X100962667Y-122252667D01*
X100996000Y-122319333D01*
X101029333Y-122352667D01*
X101129333Y-122419333D01*
X101262667Y-122452667D01*
X101529333Y-122452667D01*
X101596000Y-122419333D01*
X101629333Y-122386000D01*
X101662667Y-122319333D01*
X101662667Y-122186000D01*
X101629333Y-122119333D01*
X101596000Y-122086000D01*
X101529333Y-122052667D01*
X101362667Y-122052667D01*
X101296000Y-122086000D01*
X101262667Y-122119333D01*
X101229333Y-122186000D01*
X101229333Y-122319333D01*
X101262667Y-122386000D01*
X101296000Y-122419333D01*
X101362667Y-122452667D01*
X101596000Y-128974000D02*
X101629333Y-129007334D01*
X101662667Y-129107334D01*
X101662667Y-129174000D01*
X101629333Y-129274000D01*
X101562667Y-129340667D01*
X101496000Y-129374000D01*
X101362667Y-129407334D01*
X101262667Y-129407334D01*
X101129333Y-129374000D01*
X101062667Y-129340667D01*
X100996000Y-129274000D01*
X100962667Y-129174000D01*
X100962667Y-129107334D01*
X100996000Y-129007334D01*
X101029333Y-128974000D01*
X101196000Y-128374000D02*
X101662667Y-128374000D01*
X100929333Y-128540667D02*
X101429333Y-128707334D01*
X101429333Y-128274000D01*
X100962667Y-128074000D02*
X100962667Y-127607333D01*
X101662667Y-127907333D01*
X101596000Y-117798000D02*
X101629333Y-117831334D01*
X101662667Y-117931334D01*
X101662667Y-117998000D01*
X101629333Y-118098000D01*
X101562667Y-118164667D01*
X101496000Y-118198000D01*
X101362667Y-118231334D01*
X101262667Y-118231334D01*
X101129333Y-118198000D01*
X101062667Y-118164667D01*
X100996000Y-118098000D01*
X100962667Y-117998000D01*
X100962667Y-117931334D01*
X100996000Y-117831334D01*
X101029333Y-117798000D01*
X101196000Y-117198000D02*
X101662667Y-117198000D01*
X100929333Y-117364667D02*
X101429333Y-117531334D01*
X101429333Y-117098000D01*
X101262667Y-116731333D02*
X101229333Y-116798000D01*
X101196000Y-116831333D01*
X101129333Y-116864667D01*
X101096000Y-116864667D01*
X101029333Y-116831333D01*
X100996000Y-116798000D01*
X100962667Y-116731333D01*
X100962667Y-116598000D01*
X100996000Y-116531333D01*
X101029333Y-116498000D01*
X101096000Y-116464667D01*
X101129333Y-116464667D01*
X101196000Y-116498000D01*
X101229333Y-116531333D01*
X101262667Y-116598000D01*
X101262667Y-116731333D01*
X101296000Y-116798000D01*
X101329333Y-116831333D01*
X101396000Y-116864667D01*
X101529333Y-116864667D01*
X101596000Y-116831333D01*
X101629333Y-116798000D01*
X101662667Y-116731333D01*
X101662667Y-116598000D01*
X101629333Y-116531333D01*
X101596000Y-116498000D01*
X101529333Y-116464667D01*
X101396000Y-116464667D01*
X101329333Y-116498000D01*
X101296000Y-116531333D01*
X101262667Y-116598000D01*
X111310000Y-126361000D02*
X111276666Y-126394333D01*
X111176666Y-126427667D01*
X111110000Y-126427667D01*
X111010000Y-126394333D01*
X110943333Y-126327667D01*
X110910000Y-126261000D01*
X110876666Y-126127667D01*
X110876666Y-126027667D01*
X110910000Y-125894333D01*
X110943333Y-125827667D01*
X111010000Y-125761000D01*
X111110000Y-125727667D01*
X111176666Y-125727667D01*
X111276666Y-125761000D01*
X111310000Y-125794333D01*
X111910000Y-125961000D02*
X111910000Y-126427667D01*
X111743333Y-125694333D02*
X111576666Y-126194333D01*
X112010000Y-126194333D01*
X112310000Y-126427667D02*
X112443333Y-126427667D01*
X112510000Y-126394333D01*
X112543333Y-126361000D01*
X112610000Y-126261000D01*
X112643333Y-126127667D01*
X112643333Y-125861000D01*
X112610000Y-125794333D01*
X112576667Y-125761000D01*
X112510000Y-125727667D01*
X112376667Y-125727667D01*
X112310000Y-125761000D01*
X112276667Y-125794333D01*
X112243333Y-125861000D01*
X112243333Y-126027667D01*
X112276667Y-126094333D01*
X112310000Y-126127667D01*
X112376667Y-126161000D01*
X112510000Y-126161000D01*
X112576667Y-126127667D01*
X112610000Y-126094333D01*
X112643333Y-126027667D01*
X111310000Y-131949000D02*
X111276666Y-131982333D01*
X111176666Y-132015667D01*
X111110000Y-132015667D01*
X111010000Y-131982333D01*
X110943333Y-131915667D01*
X110910000Y-131849000D01*
X110876666Y-131715667D01*
X110876666Y-131615667D01*
X110910000Y-131482333D01*
X110943333Y-131415667D01*
X111010000Y-131349000D01*
X111110000Y-131315667D01*
X111176666Y-131315667D01*
X111276666Y-131349000D01*
X111310000Y-131382333D01*
X111943333Y-131315667D02*
X111610000Y-131315667D01*
X111576666Y-131649000D01*
X111610000Y-131615667D01*
X111676666Y-131582333D01*
X111843333Y-131582333D01*
X111910000Y-131615667D01*
X111943333Y-131649000D01*
X111976666Y-131715667D01*
X111976666Y-131882333D01*
X111943333Y-131949000D01*
X111910000Y-131982333D01*
X111843333Y-132015667D01*
X111676666Y-132015667D01*
X111610000Y-131982333D01*
X111576666Y-131949000D01*
X112410000Y-131315667D02*
X112476667Y-131315667D01*
X112543333Y-131349000D01*
X112576667Y-131382333D01*
X112610000Y-131449000D01*
X112643333Y-131582333D01*
X112643333Y-131749000D01*
X112610000Y-131882333D01*
X112576667Y-131949000D01*
X112543333Y-131982333D01*
X112476667Y-132015667D01*
X112410000Y-132015667D01*
X112343333Y-131982333D01*
X112310000Y-131949000D01*
X112276667Y-131882333D01*
X112243333Y-131749000D01*
X112243333Y-131582333D01*
X112276667Y-131449000D01*
X112310000Y-131382333D01*
X112343333Y-131349000D01*
X112410000Y-131315667D01*
X111310000Y-120773000D02*
X111276666Y-120806333D01*
X111176666Y-120839667D01*
X111110000Y-120839667D01*
X111010000Y-120806333D01*
X110943333Y-120739667D01*
X110910000Y-120673000D01*
X110876666Y-120539667D01*
X110876666Y-120439667D01*
X110910000Y-120306333D01*
X110943333Y-120239667D01*
X111010000Y-120173000D01*
X111110000Y-120139667D01*
X111176666Y-120139667D01*
X111276666Y-120173000D01*
X111310000Y-120206333D01*
X111943333Y-120139667D02*
X111610000Y-120139667D01*
X111576666Y-120473000D01*
X111610000Y-120439667D01*
X111676666Y-120406333D01*
X111843333Y-120406333D01*
X111910000Y-120439667D01*
X111943333Y-120473000D01*
X111976666Y-120539667D01*
X111976666Y-120706333D01*
X111943333Y-120773000D01*
X111910000Y-120806333D01*
X111843333Y-120839667D01*
X111676666Y-120839667D01*
X111610000Y-120806333D01*
X111576666Y-120773000D01*
X112643333Y-120839667D02*
X112243333Y-120839667D01*
X112443333Y-120839667D02*
X112443333Y-120139667D01*
X112376667Y-120239667D01*
X112310000Y-120306333D01*
X112243333Y-120339667D01*
X101596000Y-112210000D02*
X101629333Y-112243334D01*
X101662667Y-112343334D01*
X101662667Y-112410000D01*
X101629333Y-112510000D01*
X101562667Y-112576667D01*
X101496000Y-112610000D01*
X101362667Y-112643334D01*
X101262667Y-112643334D01*
X101129333Y-112610000D01*
X101062667Y-112576667D01*
X100996000Y-112510000D01*
X100962667Y-112410000D01*
X100962667Y-112343334D01*
X100996000Y-112243334D01*
X101029333Y-112210000D01*
X100962667Y-111576667D02*
X100962667Y-111910000D01*
X101296000Y-111943334D01*
X101262667Y-111910000D01*
X101229333Y-111843334D01*
X101229333Y-111676667D01*
X101262667Y-111610000D01*
X101296000Y-111576667D01*
X101362667Y-111543334D01*
X101529333Y-111543334D01*
X101596000Y-111576667D01*
X101629333Y-111610000D01*
X101662667Y-111676667D01*
X101662667Y-111843334D01*
X101629333Y-111910000D01*
X101596000Y-111943334D01*
X101262667Y-111143333D02*
X101229333Y-111210000D01*
X101196000Y-111243333D01*
X101129333Y-111276667D01*
X101096000Y-111276667D01*
X101029333Y-111243333D01*
X100996000Y-111210000D01*
X100962667Y-111143333D01*
X100962667Y-111010000D01*
X100996000Y-110943333D01*
X101029333Y-110910000D01*
X101096000Y-110876667D01*
X101129333Y-110876667D01*
X101196000Y-110910000D01*
X101229333Y-110943333D01*
X101262667Y-111010000D01*
X101262667Y-111143333D01*
X101296000Y-111210000D01*
X101329333Y-111243333D01*
X101396000Y-111276667D01*
X101529333Y-111276667D01*
X101596000Y-111243333D01*
X101629333Y-111210000D01*
X101662667Y-111143333D01*
X101662667Y-111010000D01*
X101629333Y-110943333D01*
X101596000Y-110910000D01*
X101529333Y-110876667D01*
X101396000Y-110876667D01*
X101329333Y-110910000D01*
X101296000Y-110943333D01*
X101262667Y-111010000D01*
X101596000Y-134562000D02*
X101629333Y-134595334D01*
X101662667Y-134695334D01*
X101662667Y-134762000D01*
X101629333Y-134862000D01*
X101562667Y-134928667D01*
X101496000Y-134962000D01*
X101362667Y-134995334D01*
X101262667Y-134995334D01*
X101129333Y-134962000D01*
X101062667Y-134928667D01*
X100996000Y-134862000D01*
X100962667Y-134762000D01*
X100962667Y-134695334D01*
X100996000Y-134595334D01*
X101029333Y-134562000D01*
X100962667Y-133928667D02*
X100962667Y-134262000D01*
X101296000Y-134295334D01*
X101262667Y-134262000D01*
X101229333Y-134195334D01*
X101229333Y-134028667D01*
X101262667Y-133962000D01*
X101296000Y-133928667D01*
X101362667Y-133895334D01*
X101529333Y-133895334D01*
X101596000Y-133928667D01*
X101629333Y-133962000D01*
X101662667Y-134028667D01*
X101662667Y-134195334D01*
X101629333Y-134262000D01*
X101596000Y-134295334D01*
X101662667Y-133562000D02*
X101662667Y-133428667D01*
X101629333Y-133362000D01*
X101596000Y-133328667D01*
X101496000Y-133262000D01*
X101362667Y-133228667D01*
X101096000Y-133228667D01*
X101029333Y-133262000D01*
X100996000Y-133295333D01*
X100962667Y-133362000D01*
X100962667Y-133495333D01*
X100996000Y-133562000D01*
X101029333Y-133595333D01*
X101096000Y-133628667D01*
X101262667Y-133628667D01*
X101329333Y-133595333D01*
X101362667Y-133562000D01*
X101396000Y-133495333D01*
X101396000Y-133362000D01*
X101362667Y-133295333D01*
X101329333Y-133262000D01*
X101262667Y-133228667D01*
X111310000Y-115185000D02*
X111276666Y-115218333D01*
X111176666Y-115251667D01*
X111110000Y-115251667D01*
X111010000Y-115218333D01*
X110943333Y-115151667D01*
X110910000Y-115085000D01*
X110876666Y-114951667D01*
X110876666Y-114851667D01*
X110910000Y-114718333D01*
X110943333Y-114651667D01*
X111010000Y-114585000D01*
X111110000Y-114551667D01*
X111176666Y-114551667D01*
X111276666Y-114585000D01*
X111310000Y-114618333D01*
X111910000Y-114551667D02*
X111776666Y-114551667D01*
X111710000Y-114585000D01*
X111676666Y-114618333D01*
X111610000Y-114718333D01*
X111576666Y-114851667D01*
X111576666Y-115118333D01*
X111610000Y-115185000D01*
X111643333Y-115218333D01*
X111710000Y-115251667D01*
X111843333Y-115251667D01*
X111910000Y-115218333D01*
X111943333Y-115185000D01*
X111976666Y-115118333D01*
X111976666Y-114951667D01*
X111943333Y-114885000D01*
X111910000Y-114851667D01*
X111843333Y-114818333D01*
X111710000Y-114818333D01*
X111643333Y-114851667D01*
X111610000Y-114885000D01*
X111576666Y-114951667D01*
X112410000Y-114551667D02*
X112476667Y-114551667D01*
X112543333Y-114585000D01*
X112576667Y-114618333D01*
X112610000Y-114685000D01*
X112643333Y-114818333D01*
X112643333Y-114985000D01*
X112610000Y-115118333D01*
X112576667Y-115185000D01*
X112543333Y-115218333D01*
X112476667Y-115251667D01*
X112410000Y-115251667D01*
X112343333Y-115218333D01*
X112310000Y-115185000D01*
X112276667Y-115118333D01*
X112243333Y-114985000D01*
X112243333Y-114818333D01*
X112276667Y-114685000D01*
X112310000Y-114618333D01*
X112343333Y-114585000D01*
X112410000Y-114551667D01*
X109532000Y-137410000D02*
X109498666Y-137443333D01*
X109398666Y-137476667D01*
X109332000Y-137476667D01*
X109232000Y-137443333D01*
X109165333Y-137376667D01*
X109132000Y-137310000D01*
X109098666Y-137176667D01*
X109098666Y-137076667D01*
X109132000Y-136943333D01*
X109165333Y-136876667D01*
X109232000Y-136810000D01*
X109332000Y-136776667D01*
X109398666Y-136776667D01*
X109498666Y-136810000D01*
X109532000Y-136843333D01*
X110132000Y-136776667D02*
X109998666Y-136776667D01*
X109932000Y-136810000D01*
X109898666Y-136843333D01*
X109832000Y-136943333D01*
X109798666Y-137076667D01*
X109798666Y-137343333D01*
X109832000Y-137410000D01*
X109865333Y-137443333D01*
X109932000Y-137476667D01*
X110065333Y-137476667D01*
X110132000Y-137443333D01*
X110165333Y-137410000D01*
X110198666Y-137343333D01*
X110198666Y-137176667D01*
X110165333Y-137110000D01*
X110132000Y-137076667D01*
X110065333Y-137043333D01*
X109932000Y-137043333D01*
X109865333Y-137076667D01*
X109832000Y-137110000D01*
X109798666Y-137176667D01*
X110865333Y-137476667D02*
X110465333Y-137476667D01*
X110665333Y-137476667D02*
X110665333Y-136776667D01*
X110598667Y-136876667D01*
X110532000Y-136943333D01*
X110465333Y-136976667D01*
X124772000Y-137664000D02*
X124738666Y-137697333D01*
X124638666Y-137730667D01*
X124572000Y-137730667D01*
X124472000Y-137697333D01*
X124405333Y-137630667D01*
X124372000Y-137564000D01*
X124338666Y-137430667D01*
X124338666Y-137330667D01*
X124372000Y-137197333D01*
X124405333Y-137130667D01*
X124472000Y-137064000D01*
X124572000Y-137030667D01*
X124638666Y-137030667D01*
X124738666Y-137064000D01*
X124772000Y-137097333D01*
X125372000Y-137030667D02*
X125238666Y-137030667D01*
X125172000Y-137064000D01*
X125138666Y-137097333D01*
X125072000Y-137197333D01*
X125038666Y-137330667D01*
X125038666Y-137597333D01*
X125072000Y-137664000D01*
X125105333Y-137697333D01*
X125172000Y-137730667D01*
X125305333Y-137730667D01*
X125372000Y-137697333D01*
X125405333Y-137664000D01*
X125438666Y-137597333D01*
X125438666Y-137430667D01*
X125405333Y-137364000D01*
X125372000Y-137330667D01*
X125305333Y-137297333D01*
X125172000Y-137297333D01*
X125105333Y-137330667D01*
X125072000Y-137364000D01*
X125038666Y-137430667D01*
X125672000Y-137030667D02*
X126138667Y-137030667D01*
X125838667Y-137730667D01*
D10*
X125026857Y-120667429D02*
X125341143Y-120267429D01*
X125026857Y-120267429D02*
X125341143Y-120667429D01*
X125541143Y-120124571D02*
X125569714Y-120096000D01*
X125626857Y-120067429D01*
X125769714Y-120067429D01*
X125826857Y-120096000D01*
X125855428Y-120124571D01*
X125884000Y-120181714D01*
X125884000Y-120238857D01*
X125855428Y-120324571D01*
X125512571Y-120667429D01*
X125884000Y-120667429D01*
X125998286Y-120724571D02*
X126455429Y-120724571D01*
X126541143Y-120067429D02*
X126912572Y-120067429D01*
X126712572Y-120296000D01*
X126798286Y-120296000D01*
X126855429Y-120324571D01*
X126884000Y-120353143D01*
X126912572Y-120410286D01*
X126912572Y-120553143D01*
X126884000Y-120610286D01*
X126855429Y-120638857D01*
X126798286Y-120667429D01*
X126626858Y-120667429D01*
X126569715Y-120638857D01*
X126541143Y-120610286D01*
D11*
X125792667Y-127862667D02*
X125326000Y-127496000D01*
X125326000Y-127862667D02*
X125792667Y-127496000D01*
X125159333Y-127262667D02*
X125126000Y-127229333D01*
X125092667Y-127162667D01*
X125092667Y-126996000D01*
X125126000Y-126929333D01*
X125159333Y-126896000D01*
X125226000Y-126862667D01*
X125292667Y-126862667D01*
X125392667Y-126896000D01*
X125792667Y-127296000D01*
X125792667Y-126862667D01*
X125859333Y-126729333D02*
X125859333Y-126196000D01*
X125159333Y-126062667D02*
X125126000Y-126029333D01*
X125092667Y-125962667D01*
X125092667Y-125796000D01*
X125126000Y-125729333D01*
X125159333Y-125696000D01*
X125226000Y-125662667D01*
X125292667Y-125662667D01*
X125392667Y-125696000D01*
X125792667Y-126096000D01*
X125792667Y-125662667D01*
X137567333Y-118680667D02*
X137934000Y-118214000D01*
X137567333Y-118214000D02*
X137934000Y-118680667D01*
X138167333Y-118047333D02*
X138200667Y-118014000D01*
X138267333Y-117980667D01*
X138434000Y-117980667D01*
X138500667Y-118014000D01*
X138534000Y-118047333D01*
X138567333Y-118114000D01*
X138567333Y-118180667D01*
X138534000Y-118280667D01*
X138134000Y-118680667D01*
X138567333Y-118680667D01*
X138700667Y-118747333D02*
X139234000Y-118747333D01*
X139767333Y-118680667D02*
X139367333Y-118680667D01*
X139567333Y-118680667D02*
X139567333Y-117980667D01*
X139500667Y-118080667D01*
X139434000Y-118147333D01*
X139367333Y-118180667D01*
X140361333Y-124141667D02*
X140728000Y-123675000D01*
X140361333Y-123675000D02*
X140728000Y-124141667D01*
X140961333Y-123508333D02*
X140994667Y-123475000D01*
X141061333Y-123441667D01*
X141228000Y-123441667D01*
X141294667Y-123475000D01*
X141328000Y-123508333D01*
X141361333Y-123575000D01*
X141361333Y-123641667D01*
X141328000Y-123741667D01*
X140928000Y-124141667D01*
X141361333Y-124141667D01*
X141494667Y-124208333D02*
X142028000Y-124208333D01*
X142328000Y-123441667D02*
X142394667Y-123441667D01*
X142461333Y-123475000D01*
X142494667Y-123508333D01*
X142528000Y-123575000D01*
X142561333Y-123708333D01*
X142561333Y-123875000D01*
X142528000Y-124008333D01*
X142494667Y-124075000D01*
X142461333Y-124108333D01*
X142394667Y-124141667D01*
X142328000Y-124141667D01*
X142261333Y-124108333D01*
X142228000Y-124075000D01*
X142194667Y-124008333D01*
X142161333Y-123875000D01*
X142161333Y-123708333D01*
X142194667Y-123575000D01*
X142228000Y-123508333D01*
X142261333Y-123475000D01*
X142328000Y-123441667D01*
X131292667Y-112900667D02*
X131292667Y-113467333D01*
X131326000Y-113534000D01*
X131359333Y-113567333D01*
X131426000Y-113600667D01*
X131559333Y-113600667D01*
X131626000Y-113567333D01*
X131659333Y-113534000D01*
X131692667Y-113467333D01*
X131692667Y-112900667D01*
X131959333Y-112900667D02*
X132426000Y-112900667D01*
X132126000Y-113600667D01*
X137896667Y-115948667D02*
X137896667Y-116515333D01*
X137930000Y-116582000D01*
X137963333Y-116615333D01*
X138030000Y-116648667D01*
X138163333Y-116648667D01*
X138230000Y-116615333D01*
X138263333Y-116582000D01*
X138296667Y-116515333D01*
X138296667Y-115948667D01*
X138930000Y-115948667D02*
X138796666Y-115948667D01*
X138730000Y-115982000D01*
X138696666Y-116015333D01*
X138630000Y-116115333D01*
X138596666Y-116248667D01*
X138596666Y-116515333D01*
X138630000Y-116582000D01*
X138663333Y-116615333D01*
X138730000Y-116648667D01*
X138863333Y-116648667D01*
X138930000Y-116615333D01*
X138963333Y-116582000D01*
X138996666Y-116515333D01*
X138996666Y-116348667D01*
X138963333Y-116282000D01*
X138930000Y-116248667D01*
X138863333Y-116215333D01*
X138730000Y-116215333D01*
X138663333Y-116248667D01*
X138630000Y-116282000D01*
X138596666Y-116348667D01*
X142485334Y-147382667D02*
X142485334Y-146682667D01*
X142752000Y-146682667D01*
X142818667Y-146716000D01*
X142852000Y-146749333D01*
X142885334Y-146816000D01*
X142885334Y-146916000D01*
X142852000Y-146982667D01*
X142818667Y-147016000D01*
X142752000Y-147049333D01*
X142485334Y-147049333D01*
X143118667Y-146682667D02*
X143585334Y-146682667D01*
X143285334Y-147382667D01*
X103369334Y-137476667D02*
X103369334Y-136776667D01*
X103636000Y-136776667D01*
X103702667Y-136810000D01*
X103736000Y-136843333D01*
X103769334Y-136910000D01*
X103769334Y-137010000D01*
X103736000Y-137076667D01*
X103702667Y-137110000D01*
X103636000Y-137143333D01*
X103369334Y-137143333D01*
X104036000Y-136843333D02*
X104069334Y-136810000D01*
X104136000Y-136776667D01*
X104302667Y-136776667D01*
X104369334Y-136810000D01*
X104402667Y-136843333D01*
X104436000Y-136910000D01*
X104436000Y-136976667D01*
X104402667Y-137076667D01*
X104002667Y-137476667D01*
X104436000Y-137476667D01*
D12*
X118110095Y-135532762D02*
X118252952Y-135580381D01*
X118491048Y-135580381D01*
X118586286Y-135532762D01*
X118633905Y-135485143D01*
X118681524Y-135389905D01*
X118681524Y-135294667D01*
X118633905Y-135199429D01*
X118586286Y-135151810D01*
X118491048Y-135104190D01*
X118300571Y-135056571D01*
X118205333Y-135008952D01*
X118157714Y-134961333D01*
X118110095Y-134866095D01*
X118110095Y-134770857D01*
X118157714Y-134675619D01*
X118205333Y-134628000D01*
X118300571Y-134580381D01*
X118538667Y-134580381D01*
X118681524Y-134628000D01*
X119633905Y-135580381D02*
X119062476Y-135580381D01*
X119348190Y-135580381D02*
X119348190Y-134580381D01*
X119252952Y-134723238D01*
X119157714Y-134818476D01*
X119062476Y-134866095D01*
D11*
X147819334Y-104964667D02*
X147819334Y-104264667D01*
X148086000Y-104264667D01*
X148152667Y-104298000D01*
X148186000Y-104331333D01*
X148219334Y-104398000D01*
X148219334Y-104498000D01*
X148186000Y-104564667D01*
X148152667Y-104598000D01*
X148086000Y-104631333D01*
X147819334Y-104631333D01*
X148452667Y-104264667D02*
X148886000Y-104264667D01*
X148652667Y-104531333D01*
X148752667Y-104531333D01*
X148819334Y-104564667D01*
X148852667Y-104598000D01*
X148886000Y-104664667D01*
X148886000Y-104831333D01*
X148852667Y-104898000D01*
X148819334Y-104931333D01*
X148752667Y-104964667D01*
X148552667Y-104964667D01*
X148486000Y-104931333D01*
X148452667Y-104898000D01*
X120895334Y-104964667D02*
X120895334Y-104264667D01*
X121162000Y-104264667D01*
X121228667Y-104298000D01*
X121262000Y-104331333D01*
X121295334Y-104398000D01*
X121295334Y-104498000D01*
X121262000Y-104564667D01*
X121228667Y-104598000D01*
X121162000Y-104631333D01*
X120895334Y-104631333D01*
X121895334Y-104264667D02*
X121762000Y-104264667D01*
X121695334Y-104298000D01*
X121662000Y-104331333D01*
X121595334Y-104431333D01*
X121562000Y-104564667D01*
X121562000Y-104831333D01*
X121595334Y-104898000D01*
X121628667Y-104931333D01*
X121695334Y-104964667D01*
X121828667Y-104964667D01*
X121895334Y-104931333D01*
X121928667Y-104898000D01*
X121962000Y-104831333D01*
X121962000Y-104664667D01*
X121928667Y-104598000D01*
X121895334Y-104564667D01*
X121828667Y-104531333D01*
X121695334Y-104531333D01*
X121628667Y-104564667D01*
X121595334Y-104598000D01*
X121562000Y-104664667D01*
X100575334Y-104964667D02*
X100575334Y-104264667D01*
X100842000Y-104264667D01*
X100908667Y-104298000D01*
X100942000Y-104331333D01*
X100975334Y-104398000D01*
X100975334Y-104498000D01*
X100942000Y-104564667D01*
X100908667Y-104598000D01*
X100842000Y-104631333D01*
X100575334Y-104631333D01*
X101608667Y-104264667D02*
X101275334Y-104264667D01*
X101242000Y-104598000D01*
X101275334Y-104564667D01*
X101342000Y-104531333D01*
X101508667Y-104531333D01*
X101575334Y-104564667D01*
X101608667Y-104598000D01*
X101642000Y-104664667D01*
X101642000Y-104831333D01*
X101608667Y-104898000D01*
X101575334Y-104931333D01*
X101508667Y-104964667D01*
X101342000Y-104964667D01*
X101275334Y-104931333D01*
X101242000Y-104898000D01*
X135627334Y-104964667D02*
X135627334Y-104264667D01*
X135894000Y-104264667D01*
X135960667Y-104298000D01*
X135994000Y-104331333D01*
X136027334Y-104398000D01*
X136027334Y-104498000D01*
X135994000Y-104564667D01*
X135960667Y-104598000D01*
X135894000Y-104631333D01*
X135627334Y-104631333D01*
X136627334Y-104498000D02*
X136627334Y-104964667D01*
X136460667Y-104231333D02*
X136294000Y-104731333D01*
X136727334Y-104731333D01*
X110232000Y-145738000D02*
X110265333Y-145771334D01*
X110298667Y-145871334D01*
X110298667Y-145938000D01*
X110265333Y-146038000D01*
X110198667Y-146104667D01*
X110132000Y-146138000D01*
X109998667Y-146171334D01*
X109898667Y-146171334D01*
X109765333Y-146138000D01*
X109698667Y-146104667D01*
X109632000Y-146038000D01*
X109598667Y-145938000D01*
X109598667Y-145871334D01*
X109632000Y-145771334D01*
X109665333Y-145738000D01*
X109598667Y-145138000D02*
X109598667Y-145271334D01*
X109632000Y-145338000D01*
X109665333Y-145371334D01*
X109765333Y-145438000D01*
X109898667Y-145471334D01*
X110165333Y-145471334D01*
X110232000Y-145438000D01*
X110265333Y-145404667D01*
X110298667Y-145338000D01*
X110298667Y-145204667D01*
X110265333Y-145138000D01*
X110232000Y-145104667D01*
X110165333Y-145071334D01*
X109998667Y-145071334D01*
X109932000Y-145104667D01*
X109898667Y-145138000D01*
X109865333Y-145204667D01*
X109865333Y-145338000D01*
X109898667Y-145404667D01*
X109932000Y-145438000D01*
X109998667Y-145471334D01*
X109598667Y-144438000D02*
X109598667Y-144771333D01*
X109932000Y-144804667D01*
X109898667Y-144771333D01*
X109865333Y-144704667D01*
X109865333Y-144538000D01*
X109898667Y-144471333D01*
X109932000Y-144438000D01*
X109998667Y-144404667D01*
X110165333Y-144404667D01*
X110232000Y-144438000D01*
X110265333Y-144471333D01*
X110298667Y-144538000D01*
X110298667Y-144704667D01*
X110265333Y-144771333D01*
X110232000Y-144804667D01*
X114358000Y-148586000D02*
X114324666Y-148619333D01*
X114224666Y-148652667D01*
X114158000Y-148652667D01*
X114058000Y-148619333D01*
X113991333Y-148552667D01*
X113958000Y-148486000D01*
X113924666Y-148352667D01*
X113924666Y-148252667D01*
X113958000Y-148119333D01*
X113991333Y-148052667D01*
X114058000Y-147986000D01*
X114158000Y-147952667D01*
X114224666Y-147952667D01*
X114324666Y-147986000D01*
X114358000Y-148019333D01*
X114958000Y-147952667D02*
X114824666Y-147952667D01*
X114758000Y-147986000D01*
X114724666Y-148019333D01*
X114658000Y-148119333D01*
X114624666Y-148252667D01*
X114624666Y-148519333D01*
X114658000Y-148586000D01*
X114691333Y-148619333D01*
X114758000Y-148652667D01*
X114891333Y-148652667D01*
X114958000Y-148619333D01*
X114991333Y-148586000D01*
X115024666Y-148519333D01*
X115024666Y-148352667D01*
X114991333Y-148286000D01*
X114958000Y-148252667D01*
X114891333Y-148219333D01*
X114758000Y-148219333D01*
X114691333Y-148252667D01*
X114658000Y-148286000D01*
X114624666Y-148352667D01*
X115624667Y-147952667D02*
X115491333Y-147952667D01*
X115424667Y-147986000D01*
X115391333Y-148019333D01*
X115324667Y-148119333D01*
X115291333Y-148252667D01*
X115291333Y-148519333D01*
X115324667Y-148586000D01*
X115358000Y-148619333D01*
X115424667Y-148652667D01*
X115558000Y-148652667D01*
X115624667Y-148619333D01*
X115658000Y-148586000D01*
X115691333Y-148519333D01*
X115691333Y-148352667D01*
X115658000Y-148286000D01*
X115624667Y-148252667D01*
X115558000Y-148219333D01*
X115424667Y-148219333D01*
X115358000Y-148252667D01*
X115324667Y-148286000D01*
X115291333Y-148352667D01*
X120073000Y-123760667D02*
X119839666Y-123427333D01*
X119673000Y-123760667D02*
X119673000Y-123060667D01*
X119939666Y-123060667D01*
X120006333Y-123094000D01*
X120039666Y-123127333D01*
X120073000Y-123194000D01*
X120073000Y-123294000D01*
X120039666Y-123360667D01*
X120006333Y-123394000D01*
X119939666Y-123427333D01*
X119673000Y-123427333D01*
X120339666Y-123127333D02*
X120373000Y-123094000D01*
X120439666Y-123060667D01*
X120606333Y-123060667D01*
X120673000Y-123094000D01*
X120706333Y-123127333D01*
X120739666Y-123194000D01*
X120739666Y-123260667D01*
X120706333Y-123360667D01*
X120306333Y-123760667D01*
X120739666Y-123760667D01*
X120973000Y-123060667D02*
X121406333Y-123060667D01*
X121173000Y-123327333D01*
X121273000Y-123327333D01*
X121339667Y-123360667D01*
X121373000Y-123394000D01*
X121406333Y-123460667D01*
X121406333Y-123627333D01*
X121373000Y-123694000D01*
X121339667Y-123727333D01*
X121273000Y-123760667D01*
X121073000Y-123760667D01*
X121006333Y-123727333D01*
X120973000Y-123694000D01*
X120073000Y-115378667D02*
X119839666Y-115045333D01*
X119673000Y-115378667D02*
X119673000Y-114678667D01*
X119939666Y-114678667D01*
X120006333Y-114712000D01*
X120039666Y-114745333D01*
X120073000Y-114812000D01*
X120073000Y-114912000D01*
X120039666Y-114978667D01*
X120006333Y-115012000D01*
X119939666Y-115045333D01*
X119673000Y-115045333D01*
X120339666Y-114745333D02*
X120373000Y-114712000D01*
X120439666Y-114678667D01*
X120606333Y-114678667D01*
X120673000Y-114712000D01*
X120706333Y-114745333D01*
X120739666Y-114812000D01*
X120739666Y-114878667D01*
X120706333Y-114978667D01*
X120306333Y-115378667D01*
X120739666Y-115378667D01*
X121339667Y-114912000D02*
X121339667Y-115378667D01*
X121173000Y-114645333D02*
X121006333Y-115145333D01*
X121439667Y-115145333D01*
M02*
