G04 #@! TF.FileFunction,Copper,L1,Top,Signal*
%FSLAX46Y46*%
G04 Gerber Fmt 4.6, Leading zero omitted, Abs format (unit mm)*
G04 Created by KiCad (PCBNEW 4.0.0-2.201512091501+6195~38~ubuntu14.04.1-stable) date Wed 16 Dec 2015 17:24:57 GMT*
%MOMM*%
G01*
G04 APERTURE LIST*
%ADD10C,0.100000*%
%ADD11C,0.300000*%
%ADD12R,1.500000X3.500000*%
%ADD13R,1.250000X1.000000*%
%ADD14R,0.700000X1.300000*%
%ADD15R,1.300000X0.700000*%
%ADD16R,0.250000X1.300000*%
%ADD17R,1.300000X0.250000*%
%ADD18R,1.450000X0.450000*%
%ADD19R,1.550000X0.600000*%
%ADD20R,0.650000X1.060000*%
%ADD21R,0.600000X1.500000*%
%ADD22R,0.800000X0.750000*%
%ADD23R,0.750000X0.800000*%
%ADD24R,2.230000X1.800000*%
%ADD25R,1.800000X2.230000*%
%ADD26R,2.032000X2.032000*%
%ADD27O,2.032000X2.032000*%
%ADD28R,1.727200X1.727200*%
%ADD29O,1.727200X1.727200*%
%ADD30O,2.500000X1.500000*%
%ADD31C,1.998980*%
%ADD32R,1.170000X0.406400*%
%ADD33R,1.680000X1.880000*%
%ADD34C,0.300000*%
%ADD35C,1.000000*%
%ADD36C,0.889000*%
%ADD37C,1.500000*%
%ADD38C,0.508000*%
%ADD39C,0.254000*%
%ADD40C,0.381000*%
%ADD41C,1.016000*%
%ADD42C,0.768000*%
%ADD43C,1.500000*%
G04 APERTURE END LIST*
D10*
D11*
X134366000Y-124206000D02*
X134366000Y-124714000D01*
D12*
X130683000Y-140248000D03*
X131953000Y-145248000D03*
X133223000Y-140248000D03*
X134493000Y-145248000D03*
X135763000Y-140248000D03*
X137033000Y-145248000D03*
X138303000Y-140248000D03*
X139573000Y-145248000D03*
D13*
X142748000Y-140224000D03*
X142748000Y-142224000D03*
D14*
X135702000Y-129921000D03*
X137602000Y-129921000D03*
D15*
X127000000Y-126431000D03*
X127000000Y-128331000D03*
X133858000Y-130241000D03*
X133858000Y-132141000D03*
D14*
X135702000Y-131699000D03*
X137602000Y-131699000D03*
X105852000Y-121158000D03*
X103952000Y-121158000D03*
X105852000Y-115570000D03*
X103952000Y-115570000D03*
D15*
X111506000Y-124902000D03*
X111506000Y-123002000D03*
D14*
X110170000Y-121158000D03*
X108270000Y-121158000D03*
D15*
X111506000Y-130490000D03*
X111506000Y-128590000D03*
D14*
X110170000Y-126746000D03*
X108270000Y-126746000D03*
D15*
X111506000Y-119314000D03*
X111506000Y-117414000D03*
D14*
X110170000Y-115570000D03*
X108270000Y-115570000D03*
X105852000Y-109982000D03*
X103952000Y-109982000D03*
D15*
X111506000Y-113726000D03*
X111506000Y-111826000D03*
D14*
X110170000Y-109982000D03*
X108270000Y-109982000D03*
D15*
X111506000Y-136078000D03*
X111506000Y-134178000D03*
D14*
X110170000Y-132334000D03*
X108270000Y-132334000D03*
D16*
X129330000Y-126905000D03*
X129830000Y-126905000D03*
X130330000Y-126905000D03*
X130830000Y-126905000D03*
X131330000Y-126905000D03*
X131830000Y-126905000D03*
X132330000Y-126905000D03*
X132830000Y-126905000D03*
X133330000Y-126905000D03*
X133830000Y-126905000D03*
X134330000Y-126905000D03*
X134830000Y-126905000D03*
D17*
X136430000Y-125305000D03*
X136430000Y-124805000D03*
X136430000Y-124305000D03*
X136430000Y-123805000D03*
X136430000Y-123305000D03*
X136430000Y-122805000D03*
X136430000Y-122305000D03*
X136430000Y-121805000D03*
X136430000Y-121305000D03*
X136430000Y-120805000D03*
X136430000Y-120305000D03*
X136430000Y-119805000D03*
D16*
X134830000Y-118205000D03*
X134330000Y-118205000D03*
X133830000Y-118205000D03*
X133330000Y-118205000D03*
X132830000Y-118205000D03*
X132330000Y-118205000D03*
X131830000Y-118205000D03*
X131330000Y-118205000D03*
X130830000Y-118205000D03*
X130330000Y-118205000D03*
X129830000Y-118205000D03*
X129330000Y-118205000D03*
D17*
X127730000Y-119805000D03*
X127730000Y-120305000D03*
X127730000Y-120805000D03*
X127730000Y-121305000D03*
X127730000Y-121805000D03*
X127730000Y-122305000D03*
X127730000Y-122805000D03*
X127730000Y-123305000D03*
X127730000Y-123805000D03*
X127730000Y-124305000D03*
X127730000Y-124805000D03*
X127730000Y-125305000D03*
D18*
X141056000Y-125136000D03*
X141056000Y-125786000D03*
X141056000Y-126436000D03*
X141056000Y-127086000D03*
X145456000Y-127086000D03*
X145456000Y-126436000D03*
X145456000Y-125786000D03*
X145456000Y-125136000D03*
X141056000Y-118278000D03*
X141056000Y-118928000D03*
X141056000Y-119578000D03*
X141056000Y-120228000D03*
X145456000Y-120228000D03*
X145456000Y-119578000D03*
X145456000Y-118928000D03*
X145456000Y-118278000D03*
D19*
X124366000Y-130302000D03*
X124366000Y-129032000D03*
X124366000Y-127762000D03*
X124366000Y-126492000D03*
X118966000Y-126492000D03*
X118966000Y-127762000D03*
X118966000Y-129032000D03*
X118966000Y-130302000D03*
X123985000Y-121920000D03*
X123985000Y-120650000D03*
X123985000Y-119380000D03*
X123985000Y-118110000D03*
X118585000Y-118110000D03*
X118585000Y-119380000D03*
X118585000Y-120650000D03*
X118585000Y-121920000D03*
D20*
X114742000Y-144188000D03*
X113792000Y-144188000D03*
X112842000Y-144188000D03*
X112842000Y-146388000D03*
X114742000Y-146388000D03*
D21*
X116967000Y-146464000D03*
X118237000Y-146464000D03*
X119507000Y-146464000D03*
X120777000Y-146464000D03*
X122047000Y-146464000D03*
X123317000Y-146464000D03*
X124587000Y-146464000D03*
X125857000Y-146464000D03*
X125857000Y-141064000D03*
X124587000Y-141064000D03*
X123317000Y-141064000D03*
X122047000Y-141064000D03*
X120777000Y-141064000D03*
X119507000Y-141064000D03*
X118237000Y-141064000D03*
X116967000Y-141064000D03*
D22*
X129094800Y-116840000D03*
X130594800Y-116840000D03*
X135116000Y-116840000D03*
X133616000Y-116840000D03*
D23*
X138430000Y-126631000D03*
X138430000Y-128131000D03*
X136906000Y-126631000D03*
X136906000Y-128131000D03*
D22*
X142990000Y-128651000D03*
X141490000Y-128651000D03*
X142990000Y-121793000D03*
X141490000Y-121793000D03*
X120281000Y-124841000D03*
X121781000Y-124841000D03*
X120535000Y-116332000D03*
X122035000Y-116332000D03*
D24*
X141732000Y-112205000D03*
X141732000Y-115125000D03*
D25*
X120841000Y-112522000D03*
X123761000Y-112522000D03*
D22*
X134100000Y-111760000D03*
X132600000Y-111760000D03*
X128639000Y-115062000D03*
X127139000Y-115062000D03*
D23*
X102616000Y-123686000D03*
X102616000Y-122186000D03*
X102616000Y-129274000D03*
X102616000Y-127774000D03*
X102616000Y-118098000D03*
X102616000Y-116598000D03*
X109982000Y-124702000D03*
X109982000Y-123202000D03*
X109982000Y-130290000D03*
X109982000Y-128790000D03*
X109982000Y-119114000D03*
X109982000Y-117614000D03*
X102616000Y-112510000D03*
X102616000Y-111010000D03*
X102616000Y-134862000D03*
X102616000Y-133362000D03*
X109982000Y-113526000D03*
X109982000Y-112026000D03*
X109982000Y-135878000D03*
X109982000Y-134378000D03*
D22*
X124472000Y-138684000D03*
X125972000Y-138684000D03*
D10*
G36*
X126742000Y-117264000D02*
X127642000Y-117864000D01*
X127642000Y-118864000D01*
X126742000Y-119464000D01*
X126742000Y-117264000D01*
X126742000Y-117264000D01*
G37*
G36*
X126242000Y-119464000D02*
X125342000Y-118864000D01*
X125342000Y-117864000D01*
X126242000Y-117264000D01*
X126242000Y-119464000D01*
X126242000Y-119464000D01*
G37*
G36*
X124630000Y-123829000D02*
X125230000Y-122929000D01*
X126230000Y-122929000D01*
X126830000Y-123829000D01*
X124630000Y-123829000D01*
X124630000Y-123829000D01*
G37*
G36*
X126830000Y-124329000D02*
X126230000Y-125229000D01*
X125230000Y-125229000D01*
X124630000Y-124329000D01*
X126830000Y-124329000D01*
X126830000Y-124329000D01*
G37*
G36*
X139784000Y-120392000D02*
X139184000Y-121292000D01*
X138184000Y-121292000D01*
X137584000Y-120392000D01*
X139784000Y-120392000D01*
X139784000Y-120392000D01*
G37*
G36*
X137584000Y-119892000D02*
X138184000Y-118992000D01*
X139184000Y-118992000D01*
X139784000Y-119892000D01*
X137584000Y-119892000D01*
X137584000Y-119892000D01*
G37*
G36*
X137584000Y-123702000D02*
X138184000Y-122802000D01*
X139184000Y-122802000D01*
X139784000Y-123702000D01*
X137584000Y-123702000D01*
X137584000Y-123702000D01*
G37*
G36*
X139784000Y-124202000D02*
X139184000Y-125102000D01*
X138184000Y-125102000D01*
X137584000Y-124202000D01*
X139784000Y-124202000D01*
X139784000Y-124202000D01*
G37*
D18*
X125689000Y-111547000D03*
X125689000Y-112197000D03*
X125689000Y-112847000D03*
X125689000Y-113497000D03*
X130089000Y-113497000D03*
X130089000Y-112847000D03*
X130089000Y-112197000D03*
X130089000Y-111547000D03*
X138852000Y-114894000D03*
X138852000Y-114244000D03*
X138852000Y-113594000D03*
X138852000Y-112944000D03*
X134452000Y-112944000D03*
X134452000Y-113594000D03*
X134452000Y-114244000D03*
X134452000Y-114894000D03*
D26*
X145288000Y-147828000D03*
D27*
X147828000Y-147828000D03*
D26*
X145288000Y-145288000D03*
D27*
X147828000Y-145288000D03*
D28*
X103886000Y-140208000D03*
D29*
X106426000Y-140208000D03*
X103886000Y-142748000D03*
X106426000Y-142748000D03*
X103886000Y-145288000D03*
X106426000Y-145288000D03*
X103886000Y-147828000D03*
X106426000Y-147828000D03*
D30*
X121742000Y-133416000D03*
X143942000Y-109916000D03*
D31*
X144272000Y-104648000D03*
X146972020Y-101947980D03*
X141571980Y-101947980D03*
X141571980Y-107348020D03*
X146972020Y-107348020D03*
X117348000Y-104648000D03*
X120048020Y-101947980D03*
X114647980Y-101947980D03*
X114647980Y-107348020D03*
X120048020Y-107348020D03*
X105156000Y-104648000D03*
X107856020Y-101947980D03*
X102455980Y-101947980D03*
X102455980Y-107348020D03*
X107856020Y-107348020D03*
X132080000Y-104648000D03*
X134780020Y-101947980D03*
X129379980Y-101947980D03*
X129379980Y-107348020D03*
X134780020Y-107348020D03*
D30*
X143942000Y-133416000D03*
X121742000Y-109916000D03*
D23*
X111252000Y-146038000D03*
X111252000Y-144538000D03*
D22*
X116598000Y-148336000D03*
X118098000Y-148336000D03*
D32*
X108344500Y-136105900D03*
X108344500Y-135458200D03*
X108344500Y-134797800D03*
X108344500Y-134150100D03*
X103999500Y-134150100D03*
X103999500Y-134797800D03*
X103999500Y-135458200D03*
X103999500Y-136105900D03*
D33*
X106172000Y-135128000D03*
D32*
X108344500Y-113753900D03*
X108344500Y-113106200D03*
X108344500Y-112445800D03*
X108344500Y-111798100D03*
X103999500Y-111798100D03*
X103999500Y-112445800D03*
X103999500Y-113106200D03*
X103999500Y-113753900D03*
D33*
X106172000Y-112776000D03*
D32*
X108344500Y-119341900D03*
X108344500Y-118694200D03*
X108344500Y-118033800D03*
X108344500Y-117386100D03*
X103999500Y-117386100D03*
X103999500Y-118033800D03*
X103999500Y-118694200D03*
X103999500Y-119341900D03*
D33*
X106172000Y-118364000D03*
D32*
X108344500Y-130517900D03*
X108344500Y-129870200D03*
X108344500Y-129209800D03*
X108344500Y-128562100D03*
X103999500Y-128562100D03*
X103999500Y-129209800D03*
X103999500Y-129870200D03*
X103999500Y-130517900D03*
D33*
X106172000Y-129540000D03*
D32*
X108344500Y-124929900D03*
X108344500Y-124282200D03*
X108344500Y-123621800D03*
X108344500Y-122974100D03*
X103999500Y-122974100D03*
X103999500Y-123621800D03*
X103999500Y-124282200D03*
X103999500Y-124929900D03*
D33*
X106172000Y-123952000D03*
D15*
X118491000Y-123256000D03*
X118491000Y-125156000D03*
X118491000Y-114620000D03*
X118491000Y-116520000D03*
D34*
X134366000Y-124714000D03*
X134366000Y-124206000D03*
D35*
X130175000Y-120269000D03*
D36*
X146812000Y-118745000D03*
X146812000Y-125603000D03*
X109474000Y-124968000D03*
D35*
X133985000Y-120269000D03*
X138176000Y-122047000D03*
X102616000Y-122186000D03*
D36*
X102616000Y-116598000D03*
D35*
X108204000Y-109220000D03*
X102616000Y-110236000D03*
X127508000Y-116586000D03*
X111760000Y-104140000D03*
X125857000Y-121666000D03*
X127127000Y-113792000D03*
X137414000Y-112903000D03*
X144145000Y-122936000D03*
X134366000Y-122174000D03*
X146812000Y-128270000D03*
X130048000Y-122174000D03*
X144526000Y-130556000D03*
X140970000Y-121031000D03*
X140970000Y-127889000D03*
X109474000Y-113792000D03*
X130479800Y-116586000D03*
X133731000Y-116586000D03*
X135255000Y-125603000D03*
X124460000Y-138684000D03*
X116713000Y-140208000D03*
X144018000Y-126619000D03*
D36*
X142494000Y-125349000D03*
D35*
X144006000Y-119761000D03*
D36*
X142494000Y-118491000D03*
D35*
X119888000Y-129032000D03*
X109474000Y-130556000D03*
X120015000Y-120523000D03*
X109474000Y-136144000D03*
X122555000Y-126619000D03*
X122555000Y-118237000D03*
X109474000Y-119380000D03*
X142240000Y-115062000D03*
X123698000Y-112268000D03*
X132842000Y-113538000D03*
X128651000Y-113157000D03*
X102870000Y-124968000D03*
X102870000Y-113792000D03*
D37*
X115824000Y-146812000D03*
X138303000Y-140248000D03*
D35*
X111252000Y-148590000D03*
X118872000Y-148082000D03*
D37*
X139192000Y-147828000D03*
X126492000Y-147828000D03*
X130683000Y-140248000D03*
D35*
X112268000Y-143764000D03*
X135890000Y-129921000D03*
X128016000Y-126365000D03*
X133096000Y-140208000D03*
X119380000Y-144780000D03*
X123190000Y-147828000D03*
X135636000Y-140208000D03*
X132334000Y-125603000D03*
D36*
X103886000Y-122682000D03*
X104267000Y-116840000D03*
D35*
X103886000Y-111506000D03*
X112776000Y-147320000D03*
X124460000Y-147828000D03*
X102870000Y-119380000D03*
X102870000Y-130556000D03*
X102870000Y-136144000D03*
X111506000Y-138176000D03*
X137668000Y-128131000D03*
X125984000Y-141478000D03*
X126492000Y-139700000D03*
X127000000Y-128331000D03*
D38*
X129830000Y-119217000D02*
X129830000Y-119924000D01*
X129830000Y-119924000D02*
X130175000Y-120269000D01*
D39*
X129830000Y-118205000D02*
X129830000Y-119217000D01*
X129830000Y-119217000D02*
X129794000Y-119253000D01*
D38*
X146558000Y-118999000D02*
X146812000Y-118745000D01*
D39*
X146487000Y-118928000D02*
X146558000Y-118999000D01*
X145456000Y-118928000D02*
X146487000Y-118928000D01*
D40*
X145456000Y-118928000D02*
X144455000Y-118928000D01*
D38*
X142990000Y-119265000D02*
X143510000Y-118745000D01*
X143510000Y-118745000D02*
X144272000Y-118745000D01*
X142990000Y-119265000D02*
X142990000Y-121793000D01*
D40*
X144455000Y-118928000D02*
X144272000Y-118745000D01*
D38*
X142990000Y-126123000D02*
X142990000Y-128651000D01*
X144018000Y-125603000D02*
X143510000Y-125603000D01*
X143510000Y-125603000D02*
X142990000Y-126123000D01*
X144272000Y-125603000D02*
X144018000Y-125603000D01*
D40*
X144455000Y-125786000D02*
X144272000Y-125603000D01*
X145456000Y-125786000D02*
X144455000Y-125786000D01*
D39*
X145456000Y-125786000D02*
X146487000Y-125786000D01*
D38*
X146558000Y-125857000D02*
X146812000Y-125603000D01*
D39*
X146487000Y-125786000D02*
X146558000Y-125857000D01*
D38*
X109716000Y-124968000D02*
X109982000Y-124702000D01*
D40*
X109052000Y-124927000D02*
X108277000Y-124927000D01*
X109052000Y-124927000D02*
X109093000Y-124968000D01*
D38*
X109716000Y-124968000D02*
X109093000Y-124968000D01*
X111306000Y-124702000D02*
X109982000Y-124702000D01*
X111506000Y-124902000D02*
X111306000Y-124702000D01*
X109716000Y-124968000D02*
X109982000Y-124702000D01*
X109474000Y-124968000D02*
X109716000Y-124968000D01*
D39*
X134874000Y-116840000D02*
X135116000Y-116840000D01*
X134330000Y-117384000D02*
X134874000Y-116840000D01*
X134330000Y-118205000D02*
X134330000Y-117384000D01*
D38*
X134330000Y-119598000D02*
X133985000Y-119943000D01*
X133985000Y-119943000D02*
X133985000Y-120269000D01*
D39*
X134330000Y-118205000D02*
X134330000Y-119598000D01*
X129336800Y-116713000D02*
X129094800Y-116713000D01*
X129273300Y-116840000D02*
X129094800Y-116840000D01*
X129286000Y-116840000D02*
X129094800Y-116840000D01*
X129830000Y-117384000D02*
X129286000Y-116840000D01*
X129830000Y-118205000D02*
X129830000Y-117384000D01*
X134366000Y-124206000D02*
X134366000Y-122174000D01*
D38*
X136080500Y-114871500D02*
X136080500Y-115824000D01*
X136080500Y-115824000D02*
X136144000Y-115824000D01*
X136525000Y-113792000D02*
X136525000Y-115824000D01*
X136525000Y-115824000D02*
X136652000Y-115824000D01*
X136525000Y-112522000D02*
X136906000Y-112903000D01*
X136906000Y-112903000D02*
X136906000Y-115570000D01*
X136906000Y-115570000D02*
X136652000Y-115824000D01*
X134366000Y-115824000D02*
X134112000Y-115570000D01*
X136144000Y-115824000D02*
X134366000Y-115824000D01*
X136652000Y-115824000D02*
X136144000Y-115824000D01*
D39*
X128778000Y-122551000D02*
X128778000Y-122551000D01*
X128524000Y-121805000D02*
X128708500Y-121989500D01*
X128708500Y-121989500D02*
X128778000Y-122059000D01*
X128778000Y-122551000D02*
X128524000Y-122805000D01*
X128778000Y-122059000D02*
X128778000Y-122551000D01*
X127730000Y-122805000D02*
X128524000Y-122805000D01*
X128524000Y-121805000D02*
X127730000Y-121805000D01*
X126746000Y-122428000D02*
X126492000Y-122174000D01*
X126492000Y-122174000D02*
X126492000Y-121920000D01*
X126746000Y-122682000D02*
X125857000Y-121793000D01*
X125857000Y-121793000D02*
X125857000Y-121666000D01*
D41*
X137344500Y-111321500D02*
X136906000Y-111760000D01*
X136906000Y-112522000D02*
X136525000Y-112522000D01*
X136525000Y-112522000D02*
X136525000Y-112522000D01*
X136906000Y-111760000D02*
X136906000Y-112522000D01*
X135636000Y-110490000D02*
X136525000Y-111379000D01*
X136525000Y-111379000D02*
X136525000Y-112522000D01*
X136525000Y-112522000D02*
X136525000Y-113792000D01*
D38*
X136017000Y-114300000D02*
X136017000Y-111633000D01*
X136017000Y-111633000D02*
X134874000Y-110490000D01*
D41*
X132600000Y-111240000D02*
X133350000Y-110490000D01*
X133350000Y-110490000D02*
X134874000Y-110490000D01*
X132600000Y-111760000D02*
X132600000Y-111240000D01*
X136513000Y-110490000D02*
X137344500Y-111321500D01*
X137344500Y-111321500D02*
X137402000Y-111379000D01*
X134874000Y-110490000D02*
X135636000Y-110490000D01*
X135636000Y-110490000D02*
X136513000Y-110490000D01*
D38*
X135699500Y-115379500D02*
X135890000Y-115570000D01*
X136017000Y-114808000D02*
X136080500Y-114871500D01*
X136080500Y-114871500D02*
X136144000Y-114935000D01*
D39*
X137795000Y-122047000D02*
X138176000Y-122047000D01*
X137668000Y-122174000D02*
X137795000Y-122047000D01*
D40*
X105752000Y-134658000D02*
X105752000Y-134454000D01*
X105752000Y-134454000D02*
X104660000Y-133362000D01*
X104660000Y-133362000D02*
X102616000Y-133362000D01*
X108277000Y-134153000D02*
X107097000Y-134153000D01*
X107097000Y-134153000D02*
X106592000Y-134658000D01*
X102616000Y-127774000D02*
X104914000Y-127774000D01*
X104914000Y-127774000D02*
X105752000Y-128612000D01*
X105752000Y-128612000D02*
X105752000Y-129070000D01*
X108277000Y-128565000D02*
X107097000Y-128565000D01*
X107097000Y-128565000D02*
X106592000Y-129070000D01*
D39*
X108270000Y-109286000D02*
X108270000Y-109982000D01*
X108270000Y-109286000D02*
X108204000Y-109220000D01*
X102616000Y-110236000D02*
X102616000Y-111010000D01*
X126492000Y-121920000D02*
X126607000Y-121805000D01*
X126607000Y-121805000D02*
X126861000Y-121805000D01*
X126492000Y-121920000D02*
X126746000Y-122174000D01*
X126746000Y-122174000D02*
X126746000Y-122301000D01*
D38*
X126492000Y-121920000D02*
X126111000Y-121920000D01*
X126111000Y-121920000D02*
X125857000Y-121666000D01*
D39*
X126492000Y-121920000D02*
X126746000Y-121920000D01*
X127730000Y-122805000D02*
X126869000Y-122805000D01*
X126746000Y-122682000D02*
X126746000Y-122428000D01*
X126746000Y-122428000D02*
X126746000Y-122301000D01*
X126869000Y-122805000D02*
X126746000Y-122682000D01*
X126746000Y-121920000D02*
X126861000Y-121805000D01*
X126746000Y-122301000D02*
X126746000Y-121920000D01*
D41*
X134780020Y-107348020D02*
X134780020Y-101947980D01*
X134780020Y-101947980D02*
X129379980Y-101947980D01*
X129379980Y-101947980D02*
X129379980Y-107348020D01*
X129379980Y-107348020D02*
X134780020Y-107348020D01*
D39*
X137299000Y-121805000D02*
X136430000Y-121805000D01*
X137668000Y-122174000D02*
X137299000Y-121805000D01*
X137668000Y-122428000D02*
X137668000Y-122174000D01*
X136430000Y-122805000D02*
X137291000Y-122805000D01*
X137291000Y-122805000D02*
X137668000Y-122428000D01*
D38*
X108270000Y-132334000D02*
X108270000Y-133924000D01*
X108270000Y-133924000D02*
X108277000Y-133931000D01*
D40*
X108277000Y-134153000D02*
X108277000Y-133931000D01*
D38*
X108270000Y-126746000D02*
X108270000Y-128336000D01*
D40*
X108277000Y-128565000D02*
X108277000Y-128343000D01*
D38*
X108270000Y-128336000D02*
X108277000Y-128343000D01*
X108277000Y-117094000D02*
X107392000Y-117094000D01*
X107392000Y-117094000D02*
X106592000Y-117894000D01*
D40*
X108277000Y-117389000D02*
X108277000Y-117094000D01*
D38*
X127127000Y-114554000D02*
X127127000Y-114554000D01*
X127127000Y-113792000D02*
X127127000Y-114554000D01*
X127127000Y-114554000D02*
X127127000Y-115050000D01*
X127127000Y-115050000D02*
X127139000Y-115062000D01*
X137668000Y-112141000D02*
X138430000Y-112903000D01*
X138430000Y-112903000D02*
X137414000Y-112903000D01*
X138684000Y-112649000D02*
X138430000Y-112903000D01*
X141732000Y-112205000D02*
X141160000Y-111633000D01*
X141160000Y-111633000D02*
X138176000Y-111633000D01*
X140462000Y-111887000D02*
X137910000Y-111887000D01*
X138176000Y-111887000D02*
X138176000Y-111633000D01*
X137910000Y-111887000D02*
X138176000Y-111887000D01*
X140462000Y-112395000D02*
X138418000Y-112395000D01*
X138684000Y-112395000D02*
X138684000Y-112649000D01*
X138418000Y-112395000D02*
X138684000Y-112395000D01*
X137789000Y-111766000D02*
X137922000Y-111633000D01*
X137922000Y-111633000D02*
X138176000Y-111633000D01*
X140462000Y-111887000D02*
X140462000Y-112649000D01*
X140462000Y-112649000D02*
X140462000Y-112395000D01*
X140462000Y-112395000D02*
X140462000Y-112649000D01*
X141732000Y-112205000D02*
X140906000Y-111379000D01*
X139192000Y-112649000D02*
X138684000Y-112649000D01*
D39*
X139147000Y-112649000D02*
X139192000Y-112649000D01*
D38*
X138684000Y-112649000D02*
X138672000Y-112649000D01*
X138672000Y-112649000D02*
X137789000Y-111766000D01*
X139147000Y-112649000D02*
X140462000Y-112649000D01*
X140462000Y-112649000D02*
X141288000Y-112649000D01*
X141288000Y-112649000D02*
X141732000Y-112205000D01*
D39*
X138852000Y-112944000D02*
X139147000Y-112649000D01*
D40*
X108270000Y-111794000D02*
X108270000Y-111506000D01*
X108277000Y-111801000D02*
X108270000Y-111794000D01*
D38*
X107392000Y-111506000D02*
X108270000Y-111506000D01*
X106592000Y-112306000D02*
X107392000Y-111506000D01*
D40*
X108277000Y-122682000D02*
X108277000Y-122977000D01*
D38*
X107392000Y-122682000D02*
X108277000Y-122682000D01*
X106592000Y-123482000D02*
X107392000Y-122682000D01*
X108270000Y-109982000D02*
X108270000Y-111506000D01*
X108277000Y-115577000D02*
X108270000Y-115570000D01*
X108277000Y-117094000D02*
X108277000Y-115577000D01*
X108270000Y-122682000D02*
X108277000Y-122682000D01*
X108270000Y-121158000D02*
X108270000Y-122682000D01*
X137402000Y-112141000D02*
X137668000Y-112141000D01*
X137402000Y-112891000D02*
X137402000Y-112141000D01*
X137414000Y-112903000D02*
X137402000Y-112891000D01*
X137402000Y-112141000D02*
X137402000Y-111379000D01*
X140906000Y-111379000D02*
X137402000Y-111379000D01*
X137789000Y-111766000D02*
X137402000Y-111379000D01*
X136906000Y-113411000D02*
X137414000Y-112903000D01*
X136017000Y-115062000D02*
X136017000Y-114808000D01*
X136017000Y-114808000D02*
X136017000Y-114300000D01*
X136017000Y-114300000D02*
X136525000Y-113792000D01*
X134112000Y-115570000D02*
X135509000Y-115570000D01*
X135699500Y-115379500D02*
X135509000Y-115570000D01*
X136017000Y-115062000D02*
X135699500Y-115379500D01*
X136525000Y-113792000D02*
X136906000Y-113411000D01*
D39*
X132830000Y-116217000D02*
X133350000Y-115697000D01*
X132830000Y-118205000D02*
X132830000Y-116217000D01*
D38*
X133477000Y-115570000D02*
X134112000Y-115570000D01*
X133350000Y-115697000D02*
X133477000Y-115570000D01*
D39*
X133830000Y-118205000D02*
X133830000Y-119027000D01*
D40*
X135394000Y-122694000D02*
X135505000Y-122805000D01*
D39*
X135505000Y-122805000D02*
X136430000Y-122805000D01*
D40*
X135382000Y-122682000D02*
X135394000Y-122694000D01*
X135394000Y-121920000D02*
X135394000Y-122694000D01*
X135394000Y-121805000D02*
X135394000Y-121920000D01*
X135501498Y-121812502D02*
X135394000Y-121920000D01*
D39*
X135509000Y-121805000D02*
X135501498Y-121812502D01*
X136430000Y-121805000D02*
X135509000Y-121805000D01*
D38*
X130683000Y-115570000D02*
X130048000Y-115570000D01*
X130048000Y-115570000D02*
X129667000Y-115951000D01*
X129667000Y-115951000D02*
X128028000Y-115951000D01*
X128028000Y-115951000D02*
X127139000Y-115062000D01*
D39*
X131330000Y-118205000D02*
X131330000Y-116217000D01*
X131330000Y-116217000D02*
X130810000Y-115697000D01*
D38*
X130810000Y-115697000D02*
X130683000Y-115570000D01*
D40*
X125984000Y-113792000D02*
X127127000Y-113792000D01*
X125689000Y-113497000D02*
X125984000Y-113792000D01*
D41*
X120841000Y-112967000D02*
X120841000Y-112522000D01*
X126492000Y-114427000D02*
X122301000Y-114427000D01*
X127127000Y-113792000D02*
X126492000Y-114427000D01*
X122301000Y-114427000D02*
X120841000Y-112967000D01*
D38*
X130048000Y-123698000D02*
X130048000Y-122174000D01*
D39*
X128941000Y-124805000D02*
X129540000Y-124206000D01*
D38*
X129540000Y-124206000D02*
X130048000Y-123698000D01*
D39*
X127730000Y-124805000D02*
X128941000Y-124805000D01*
D41*
X133985000Y-122555000D02*
X134366000Y-122174000D01*
D39*
X134330000Y-122210000D02*
X134366000Y-122174000D01*
D38*
X132969000Y-119888000D02*
X132969000Y-121285000D01*
X133858000Y-122174000D02*
X134366000Y-122174000D01*
X132969000Y-121285000D02*
X133858000Y-122174000D01*
X133477000Y-119380000D02*
X132969000Y-119888000D01*
D39*
X133830000Y-119027000D02*
X133477000Y-119380000D01*
X134330000Y-122210000D02*
X134366000Y-122174000D01*
D38*
X140970000Y-121031000D02*
X141490000Y-121551000D01*
X141490000Y-121551000D02*
X141490000Y-121793000D01*
X140970000Y-121031000D02*
X140970000Y-121273000D01*
X140970000Y-121273000D02*
X141490000Y-121793000D01*
X140970000Y-120523000D02*
X140970000Y-121031000D01*
D39*
X140970000Y-120523000D02*
X141056000Y-120437000D01*
X141056000Y-120228000D02*
X141056000Y-120437000D01*
D40*
X141056000Y-127086000D02*
X141056000Y-127201000D01*
D38*
X141224000Y-127635000D02*
X141056000Y-127467000D01*
D40*
X141056000Y-127467000D02*
X141056000Y-127086000D01*
D38*
X141490000Y-127901000D02*
X141224000Y-127635000D01*
X141490000Y-128651000D02*
X141490000Y-127901000D01*
X140970000Y-127889000D02*
X141224000Y-127635000D01*
X109716000Y-113792000D02*
X109982000Y-113526000D01*
D40*
X108925000Y-113751000D02*
X108966000Y-113792000D01*
X108925000Y-113751000D02*
X108277000Y-113751000D01*
D38*
X109716000Y-113792000D02*
X108966000Y-113792000D01*
X109716000Y-113792000D02*
X109982000Y-113526000D01*
X109474000Y-113792000D02*
X109716000Y-113792000D01*
X111306000Y-113526000D02*
X111506000Y-113726000D01*
X109982000Y-113526000D02*
X111306000Y-113526000D01*
D39*
X133330000Y-118205000D02*
X133330000Y-117368000D01*
X133330000Y-117368000D02*
X133616000Y-117082000D01*
X133616000Y-117082000D02*
X133616000Y-116840000D01*
X130467800Y-116955000D02*
X130467800Y-116713000D01*
X130830000Y-117241000D02*
X130467800Y-116955000D01*
X130830000Y-118205000D02*
X130830000Y-117241000D01*
X130467800Y-116598000D02*
X130467800Y-116840000D01*
X130479800Y-116586000D02*
X130467800Y-116598000D01*
X135636000Y-125476000D02*
X136144000Y-125984000D01*
X136144000Y-125984000D02*
X136144000Y-125869000D01*
X135890000Y-125476000D02*
X135890000Y-125615000D01*
X135890000Y-125615000D02*
X136144000Y-125869000D01*
X136144000Y-125869000D02*
X136430000Y-126155000D01*
X135636000Y-125476000D02*
X135890000Y-125476000D01*
X135890000Y-125476000D02*
X136259000Y-125476000D01*
X136259000Y-125476000D02*
X136144000Y-125591000D01*
X135382000Y-125476000D02*
X135636000Y-125476000D01*
X136144000Y-125591000D02*
X136430000Y-125305000D01*
X136398000Y-126631000D02*
X136398000Y-126492000D01*
X136398000Y-126492000D02*
X135382000Y-125476000D01*
X135382000Y-125476000D02*
X135211000Y-125305000D01*
X136398000Y-126631000D02*
X136906000Y-126631000D01*
X136283000Y-126631000D02*
X136398000Y-126631000D01*
X135255000Y-125603000D02*
X136283000Y-126631000D01*
X135211000Y-125305000D02*
X136430000Y-125305000D01*
D38*
X138430000Y-126111000D02*
X138176000Y-126111000D01*
X138176000Y-126111000D02*
X138132000Y-126155000D01*
X138132000Y-126155000D02*
X136430000Y-126155000D01*
X136430000Y-125857000D02*
X136525000Y-125857000D01*
X136525000Y-125857000D02*
X137668000Y-125857000D01*
X137668000Y-125857000D02*
X138176000Y-125857000D01*
X136474000Y-125349000D02*
X136430000Y-125305000D01*
X136906000Y-126631000D02*
X138430000Y-126631000D01*
X138176000Y-125857000D02*
X138430000Y-126111000D01*
X138430000Y-126111000D02*
X138430000Y-126631000D01*
D39*
X136430000Y-124805000D02*
X136430000Y-125095000D01*
X136430000Y-125095000D02*
X136430000Y-125305000D01*
D38*
X136430000Y-125305000D02*
X136430000Y-125857000D01*
X136430000Y-125857000D02*
X136430000Y-126155000D01*
X136430000Y-126155000D02*
X136906000Y-126631000D01*
D39*
X116840000Y-140937000D02*
X116967000Y-141064000D01*
D38*
X124587000Y-138799000D02*
X124587000Y-141064000D01*
D39*
X124472000Y-138684000D02*
X124587000Y-138799000D01*
X116713000Y-140810000D02*
X116967000Y-141064000D01*
X116713000Y-140208000D02*
X116713000Y-140810000D01*
X146375000Y-126436000D02*
X146558000Y-126619000D01*
X145456000Y-126436000D02*
X146375000Y-126436000D01*
D38*
X147320000Y-126619000D02*
X148082000Y-125857000D01*
X146558000Y-126619000D02*
X147320000Y-126619000D01*
D40*
X144343000Y-126436000D02*
X144160000Y-126619000D01*
X144160000Y-126619000D02*
X144018000Y-126619000D01*
X145456000Y-126436000D02*
X144343000Y-126436000D01*
D41*
X144272000Y-107442000D02*
X148082000Y-111252000D01*
X148082000Y-111252000D02*
X148082000Y-125857000D01*
X144272000Y-104648000D02*
X144272000Y-107442000D01*
D40*
X142057000Y-125786000D02*
X142494000Y-125349000D01*
X141056000Y-125786000D02*
X142057000Y-125786000D01*
X145456000Y-119578000D02*
X144189000Y-119578000D01*
D39*
X144189000Y-119578000D02*
X144006000Y-119761000D01*
D38*
X144006000Y-119761000D02*
X144018000Y-119761000D01*
D40*
X141056000Y-118928000D02*
X142057000Y-118928000D01*
X142057000Y-118928000D02*
X142494000Y-118491000D01*
D41*
X118966000Y-129032000D02*
X119888000Y-129032000D01*
X111506000Y-130490000D02*
X114620000Y-130490000D01*
X116078000Y-129032000D02*
X118966000Y-129032000D01*
X114620000Y-130490000D02*
X116078000Y-129032000D01*
X110182000Y-130490000D02*
X109982000Y-130290000D01*
D38*
X111506000Y-130490000D02*
X111306000Y-130290000D01*
X111306000Y-130290000D02*
X109982000Y-130290000D01*
X109220000Y-130556000D02*
X109474000Y-130556000D01*
D40*
X108277000Y-130515000D02*
X109179000Y-130515000D01*
X109179000Y-130515000D02*
X109220000Y-130556000D01*
D38*
X109474000Y-130556000D02*
X109716000Y-130556000D01*
X109716000Y-130556000D02*
X109982000Y-130290000D01*
D41*
X119888000Y-120650000D02*
X120015000Y-120523000D01*
X118585000Y-120650000D02*
X119888000Y-120650000D01*
X120015000Y-120523000D02*
X119888000Y-120650000D01*
D42*
X121781000Y-124841000D02*
X122555000Y-125615000D01*
X124366000Y-126492000D02*
X122715000Y-124841000D01*
X122715000Y-124841000D02*
X121781000Y-124841000D01*
D41*
X122555000Y-125615000D02*
X123432000Y-126492000D01*
X123432000Y-126492000D02*
X123432000Y-126377000D01*
X123432000Y-126377000D02*
X123444000Y-126365000D01*
X123444000Y-126365000D02*
X123444000Y-126492000D01*
X122555000Y-126619000D02*
X122555000Y-125615000D01*
D38*
X109982000Y-135878000D02*
X111306000Y-135878000D01*
X111306000Y-135878000D02*
X111506000Y-136078000D01*
X109474000Y-136144000D02*
X109740000Y-135878000D01*
X109740000Y-135878000D02*
X109982000Y-135878000D01*
D40*
X108318000Y-136144000D02*
X108966000Y-136144000D01*
D38*
X109474000Y-136144000D02*
X108966000Y-136144000D01*
D40*
X108277000Y-136103000D02*
X108318000Y-136144000D01*
D41*
X124366000Y-126492000D02*
X123444000Y-126492000D01*
X123444000Y-126492000D02*
X122682000Y-126492000D01*
X122682000Y-126492000D02*
X122555000Y-126619000D01*
X122682000Y-118110000D02*
X122555000Y-118237000D01*
X123985000Y-118110000D02*
X122682000Y-118110000D01*
D38*
X122334000Y-116459000D02*
X122035000Y-116459000D01*
D41*
X122555000Y-116680000D02*
X122334000Y-116459000D01*
X123985000Y-118110000D02*
X122555000Y-116680000D01*
X122555000Y-117221000D02*
X122555000Y-116680000D01*
X122555000Y-116680000D02*
X122555000Y-117221000D01*
X122555000Y-118237000D02*
X122555000Y-116680000D01*
D38*
X140906000Y-115125000D02*
X140208000Y-114427000D01*
X140025000Y-114244000D02*
X140208000Y-114427000D01*
D40*
X140025000Y-114244000D02*
X138852000Y-114244000D01*
D41*
X142177000Y-115125000D02*
X141732000Y-115125000D01*
D38*
X111506000Y-119314000D02*
X111306000Y-119114000D01*
X111306000Y-119114000D02*
X109982000Y-119114000D01*
X109474000Y-119380000D02*
X109740000Y-119114000D01*
X109740000Y-119114000D02*
X109982000Y-119114000D01*
X108966000Y-119380000D02*
X109474000Y-119380000D01*
D40*
X108925000Y-119339000D02*
X108966000Y-119380000D01*
X108277000Y-119339000D02*
X108925000Y-119339000D01*
D38*
X140906000Y-115125000D02*
X141732000Y-115125000D01*
D41*
X142240000Y-115062000D02*
X142177000Y-115125000D01*
D39*
X124086000Y-112197000D02*
X123761000Y-112522000D01*
D40*
X125689000Y-112197000D02*
X124086000Y-112197000D01*
D38*
X123761000Y-112331000D02*
X123761000Y-112522000D01*
X123698000Y-112268000D02*
X123761000Y-112331000D01*
X134100000Y-111760000D02*
X134620000Y-112280000D01*
D39*
X134620000Y-112649000D02*
X134620000Y-112776000D01*
D38*
X134620000Y-112280000D02*
X134620000Y-112649000D01*
D39*
X134452000Y-112944000D02*
X134620000Y-112776000D01*
D38*
X130089000Y-113612000D02*
X128639000Y-115062000D01*
D39*
X130089000Y-113497000D02*
X130089000Y-113612000D01*
D38*
X133350000Y-113594000D02*
X133294000Y-113538000D01*
X133294000Y-113538000D02*
X132842000Y-113538000D01*
D40*
X133350000Y-113594000D02*
X134452000Y-113594000D01*
D39*
X133279000Y-113594000D02*
X133350000Y-113594000D01*
X132330000Y-118205000D02*
X132330000Y-115955000D01*
X132330000Y-115955000D02*
X132588000Y-115443000D01*
D38*
X132588000Y-114356000D02*
X132588000Y-115443000D01*
X133350000Y-113594000D02*
X132588000Y-114356000D01*
D40*
X128961000Y-112847000D02*
X128651000Y-113157000D01*
X130089000Y-112847000D02*
X128961000Y-112847000D01*
D38*
X131572000Y-113284000D02*
X131318000Y-113030000D01*
D40*
X131135000Y-112847000D02*
X130089000Y-112847000D01*
X131135000Y-112847000D02*
X131318000Y-113030000D01*
D39*
X131832000Y-115953000D02*
X131572000Y-115443000D01*
X131830000Y-118205000D02*
X131832000Y-115953000D01*
D38*
X131572000Y-115443000D02*
X131572000Y-113284000D01*
D39*
X104902000Y-122108000D02*
X105852000Y-121158000D01*
X104902000Y-124714000D02*
X104902000Y-122108000D01*
X104689000Y-124927000D02*
X104902000Y-124714000D01*
X104067000Y-124927000D02*
X104689000Y-124927000D01*
D40*
X103165000Y-124927000D02*
X104067000Y-124927000D01*
D38*
X102870000Y-124968000D02*
X103124000Y-124968000D01*
D40*
X103165000Y-124927000D02*
X103124000Y-124968000D01*
D38*
X102929000Y-123627000D02*
X102870000Y-123686000D01*
D40*
X103449000Y-123627000D02*
X103813000Y-123627000D01*
D38*
X102929000Y-123627000D02*
X103449000Y-123627000D01*
D40*
X104067000Y-129215000D02*
X103449000Y-129215000D01*
D38*
X102675000Y-129215000D02*
X102616000Y-129274000D01*
X103449000Y-129215000D02*
X102675000Y-129215000D01*
X103136000Y-118098000D02*
X102616000Y-118098000D01*
D40*
X104067000Y-118039000D02*
X103195000Y-118039000D01*
D38*
X103195000Y-118039000D02*
X103136000Y-118098000D01*
X111306000Y-123202000D02*
X111506000Y-123002000D01*
X110756000Y-123202000D02*
X111306000Y-123202000D01*
X109982000Y-123202000D02*
X110756000Y-123202000D01*
X109982000Y-121346000D02*
X110170000Y-121158000D01*
X109982000Y-121920000D02*
X109982000Y-121346000D01*
X109982000Y-122682000D02*
X109982000Y-121920000D01*
X109982000Y-123202000D02*
X109982000Y-122682000D01*
X111506000Y-122494000D02*
X110170000Y-121158000D01*
X111506000Y-123002000D02*
X111506000Y-122494000D01*
X110424000Y-121920000D02*
X111506000Y-123002000D01*
X109982000Y-121920000D02*
X110424000Y-121920000D01*
X109982000Y-121920000D02*
X109982000Y-121920000D01*
X111306000Y-123202000D02*
X111506000Y-123002000D01*
X110024000Y-121920000D02*
X111306000Y-123202000D01*
X109982000Y-121920000D02*
X110024000Y-121920000D01*
X110236000Y-122682000D02*
X110756000Y-123202000D01*
X109982000Y-122682000D02*
X110236000Y-122682000D01*
X109982000Y-123317000D02*
X109982000Y-123202000D01*
D39*
X109016800Y-124282200D02*
X108344500Y-124282200D01*
X109016800Y-124282200D02*
X109474000Y-123825000D01*
D38*
X109982000Y-123317000D02*
X109474000Y-123825000D01*
X109982000Y-128270000D02*
X110236000Y-128270000D01*
X110236000Y-128270000D02*
X110756000Y-128790000D01*
X109982000Y-127508000D02*
X110024000Y-127508000D01*
X110024000Y-127508000D02*
X111306000Y-128790000D01*
X111306000Y-128790000D02*
X111506000Y-128590000D01*
X109982000Y-127508000D02*
X109982000Y-127508000D01*
X109982000Y-127508000D02*
X110424000Y-127508000D01*
X110424000Y-127508000D02*
X111506000Y-128590000D01*
X109982000Y-128790000D02*
X109982000Y-128270000D01*
X109982000Y-128270000D02*
X109982000Y-127508000D01*
X109982000Y-127508000D02*
X109982000Y-126934000D01*
X109982000Y-126934000D02*
X110170000Y-126746000D01*
X109982000Y-128790000D02*
X110756000Y-128790000D01*
X110756000Y-128790000D02*
X111306000Y-128790000D01*
X111306000Y-128790000D02*
X111506000Y-128590000D01*
X111506000Y-128590000D02*
X111506000Y-128082000D01*
X111506000Y-128082000D02*
X110170000Y-126746000D01*
X109982000Y-128905000D02*
X109982000Y-128790000D01*
D39*
X109016800Y-129870200D02*
X108344500Y-129870200D01*
X109016800Y-129870200D02*
X109474000Y-129413000D01*
D38*
X109982000Y-128905000D02*
X109474000Y-129413000D01*
D40*
X109970000Y-117614000D02*
X109982000Y-117614000D01*
D38*
X111506000Y-117414000D02*
X111306000Y-117614000D01*
X111306000Y-117614000D02*
X110744000Y-117614000D01*
X110744000Y-117614000D02*
X109982000Y-117614000D01*
X109982000Y-116840000D02*
X109982000Y-117614000D01*
X109982000Y-116332000D02*
X109982000Y-116840000D01*
X109982000Y-115758000D02*
X109982000Y-116332000D01*
X110170000Y-115570000D02*
X109982000Y-115758000D01*
X111506000Y-116906000D02*
X110170000Y-115570000D01*
X111506000Y-117414000D02*
X111506000Y-116906000D01*
X110424000Y-116332000D02*
X111506000Y-117414000D01*
X109982000Y-116332000D02*
X110424000Y-116332000D01*
X109982000Y-116332000D02*
X109982000Y-116332000D01*
X110744000Y-117094000D02*
X110744000Y-117614000D01*
X109982000Y-116332000D02*
X110744000Y-117094000D01*
X110744000Y-117602000D02*
X110744000Y-117614000D01*
X109982000Y-116840000D02*
X110744000Y-117602000D01*
X109982000Y-117729000D02*
X109982000Y-117614000D01*
D39*
X109016800Y-118694200D02*
X108344500Y-118694200D01*
X109016800Y-118694200D02*
X109474000Y-118237000D01*
D38*
X109982000Y-117729000D02*
X109474000Y-118237000D01*
D39*
X104902000Y-113538000D02*
X104902000Y-111506000D01*
X105852000Y-110556000D02*
X104902000Y-111506000D01*
X105852000Y-109982000D02*
X105852000Y-110556000D01*
X104689000Y-113751000D02*
X104902000Y-113538000D01*
X104067000Y-113751000D02*
X104689000Y-113751000D01*
D41*
X101346000Y-140716000D02*
X101346000Y-115316000D01*
X101346000Y-115316000D02*
X102870000Y-113792000D01*
D40*
X103419000Y-113751000D02*
X104067000Y-113751000D01*
X103419000Y-113751000D02*
X103378000Y-113792000D01*
D38*
X102870000Y-113792000D02*
X103378000Y-113792000D01*
D41*
X103378000Y-142748000D02*
X101346000Y-140716000D01*
X103886000Y-142748000D02*
X103378000Y-142748000D01*
D40*
X102675000Y-112451000D02*
X102616000Y-112510000D01*
X104067000Y-112451000D02*
X102675000Y-112451000D01*
D38*
X103449000Y-134803000D02*
X102675000Y-134803000D01*
X102675000Y-134803000D02*
X102616000Y-134862000D01*
D40*
X104067000Y-134803000D02*
X103449000Y-134803000D01*
X108277000Y-113101000D02*
X108895000Y-113101000D01*
D38*
X110502000Y-112026000D02*
X109982000Y-112026000D01*
X111306000Y-112026000D02*
X110502000Y-112026000D01*
X111506000Y-111826000D02*
X111306000Y-112026000D01*
X111506000Y-111318000D02*
X110170000Y-109982000D01*
X111506000Y-111826000D02*
X111506000Y-111318000D01*
X109982000Y-110170000D02*
X110170000Y-109982000D01*
X109982000Y-110744000D02*
X109982000Y-110170000D01*
X109982000Y-111252000D02*
X109982000Y-110744000D01*
X109982000Y-112026000D02*
X109982000Y-111252000D01*
X110424000Y-110744000D02*
X111506000Y-111826000D01*
X109982000Y-110744000D02*
X110424000Y-110744000D01*
X111010000Y-112026000D02*
X111506000Y-111826000D01*
X110236000Y-111252000D02*
X111010000Y-112026000D01*
X109982000Y-111252000D02*
X110236000Y-111252000D01*
X109982000Y-111252000D02*
X109982000Y-111252000D01*
X109982000Y-111506000D02*
X110502000Y-112026000D01*
X109982000Y-111252000D02*
X109982000Y-111506000D01*
X110424000Y-110810000D02*
X109982000Y-111252000D01*
X110424000Y-110744000D02*
X110424000Y-110810000D01*
X109982000Y-112141000D02*
X109982000Y-112026000D01*
D39*
X109016800Y-113106200D02*
X108344500Y-113106200D01*
X109016800Y-113106200D02*
X109474000Y-112649000D01*
D38*
X109982000Y-112141000D02*
X109474000Y-112649000D01*
X109982000Y-133858000D02*
X110236000Y-133858000D01*
X110236000Y-133858000D02*
X110756000Y-134378000D01*
X109982000Y-133096000D02*
X110024000Y-133096000D01*
X110024000Y-133096000D02*
X111306000Y-134378000D01*
X111306000Y-134378000D02*
X111506000Y-134178000D01*
X109982000Y-133096000D02*
X109982000Y-133096000D01*
X109982000Y-133096000D02*
X110424000Y-133096000D01*
X110424000Y-133096000D02*
X111506000Y-134178000D01*
X110170000Y-132334000D02*
X109982000Y-132522000D01*
X109982000Y-132522000D02*
X109982000Y-133096000D01*
X109982000Y-133096000D02*
X109982000Y-133858000D01*
X109982000Y-133858000D02*
X109982000Y-134378000D01*
X111506000Y-134178000D02*
X111506000Y-133670000D01*
X111506000Y-133670000D02*
X110170000Y-132334000D01*
X109982000Y-134378000D02*
X110756000Y-134378000D01*
X110756000Y-134378000D02*
X111306000Y-134378000D01*
X111306000Y-134378000D02*
X111506000Y-134178000D01*
X109982000Y-134493000D02*
X109982000Y-134378000D01*
D39*
X109016800Y-135458200D02*
X108344500Y-135458200D01*
X109016800Y-135458200D02*
X109474000Y-135001000D01*
D38*
X109982000Y-134493000D02*
X109474000Y-135001000D01*
X116967000Y-147320000D02*
X116459000Y-146812000D01*
X116459000Y-146812000D02*
X115824000Y-146812000D01*
X115824000Y-146812000D02*
X116598000Y-147586000D01*
X116598000Y-147586000D02*
X116598000Y-148336000D01*
X116598000Y-148336000D02*
X116967000Y-147967000D01*
X116967000Y-147967000D02*
X116967000Y-147320000D01*
X116967000Y-147320000D02*
X116967000Y-146464000D01*
X114742000Y-146388000D02*
X114384000Y-146388000D01*
X112002000Y-145288000D02*
X111252000Y-146038000D01*
X113284000Y-145288000D02*
X112002000Y-145288000D01*
X114384000Y-146388000D02*
X113284000Y-145288000D01*
X115824000Y-146812000D02*
X115166000Y-146812000D01*
X115166000Y-146812000D02*
X114742000Y-146388000D01*
X115824000Y-146812000D02*
X116619000Y-146812000D01*
X116619000Y-146812000D02*
X116967000Y-146464000D01*
X114742000Y-146388000D02*
X116891000Y-146388000D01*
X116891000Y-146388000D02*
X116967000Y-146464000D01*
D41*
X138327000Y-140224000D02*
X138303000Y-140248000D01*
X142748000Y-140224000D02*
X138327000Y-140224000D01*
X118098000Y-148336000D02*
X118618000Y-148336000D01*
X118618000Y-148336000D02*
X118872000Y-148082000D01*
X125857000Y-146464000D02*
X125857000Y-148463000D01*
X118860000Y-149098000D02*
X118098000Y-148336000D01*
X125222000Y-149098000D02*
X118860000Y-149098000D01*
X125857000Y-148463000D02*
X125222000Y-149098000D01*
D38*
X111252000Y-144538000D02*
X111602000Y-144188000D01*
X111602000Y-144188000D02*
X112842000Y-144188000D01*
X139573000Y-143891000D02*
X139573000Y-145248000D01*
X138430000Y-142748000D02*
X139573000Y-143891000D01*
X132080000Y-142748000D02*
X138430000Y-142748000D01*
X130683000Y-141351000D02*
X132080000Y-142748000D01*
X130683000Y-140248000D02*
X130683000Y-141351000D01*
X125857000Y-147193000D02*
X125857000Y-146464000D01*
D43*
X139573000Y-147447000D02*
X139192000Y-147828000D01*
X139573000Y-147447000D02*
X139573000Y-145248000D01*
D38*
X125857000Y-147193000D02*
X126492000Y-147828000D01*
X111602000Y-144188000D02*
X111252000Y-144538000D01*
X112026000Y-143764000D02*
X111602000Y-144188000D01*
X112268000Y-143764000D02*
X112026000Y-143764000D01*
X112418000Y-143764000D02*
X112842000Y-144188000D01*
X112268000Y-143764000D02*
X112418000Y-143764000D01*
D41*
X139724000Y-145248000D02*
X142748000Y-142224000D01*
X139573000Y-145248000D02*
X139724000Y-145248000D01*
D39*
X134366000Y-128905000D02*
X135382000Y-128905000D01*
X135702000Y-129225000D02*
X135702000Y-129921000D01*
X135382000Y-128905000D02*
X135702000Y-129225000D01*
X133830000Y-126905000D02*
X133830000Y-128369000D01*
X133830000Y-128369000D02*
X134366000Y-128905000D01*
X135890000Y-129921000D02*
X135702000Y-129921000D01*
X127730000Y-125701000D02*
X127000000Y-126431000D01*
X127730000Y-125305000D02*
X127730000Y-125701000D01*
X127730000Y-126079000D02*
X128016000Y-126365000D01*
X127730000Y-125857000D02*
X127730000Y-126079000D01*
X127730000Y-125305000D02*
X127730000Y-125857000D01*
X127156000Y-126431000D02*
X127000000Y-126431000D01*
X127730000Y-125857000D02*
X127156000Y-126431000D01*
D40*
X138684000Y-124652000D02*
X139446000Y-125414000D01*
X139898000Y-126436000D02*
X141056000Y-126436000D01*
X139898000Y-126436000D02*
X139446000Y-125984000D01*
X139446000Y-125414000D02*
X139446000Y-125984000D01*
X137414000Y-124333000D02*
X137733000Y-124652000D01*
X137733000Y-124652000D02*
X138684000Y-124652000D01*
D39*
X137386000Y-124305000D02*
X137414000Y-124333000D01*
X137386000Y-124305000D02*
X136430000Y-124305000D01*
X136430000Y-124305000D02*
X135608000Y-124305000D01*
X135608000Y-124305000D02*
X135382000Y-124079000D01*
X135382000Y-124079000D02*
X135382000Y-123571000D01*
X135382000Y-123571000D02*
X135648000Y-123305000D01*
X135648000Y-123305000D02*
X136430000Y-123305000D01*
X137307000Y-123805000D02*
X137860000Y-123252000D01*
X136430000Y-123805000D02*
X137307000Y-123805000D01*
X137860000Y-123252000D02*
X138684000Y-123252000D01*
D38*
X138820000Y-119578000D02*
X139883000Y-119578000D01*
D40*
X139883000Y-119578000D02*
X141056000Y-119578000D01*
D38*
X138820000Y-119578000D02*
X138684000Y-119442000D01*
D39*
X137860000Y-119696000D02*
X138303000Y-119696000D01*
X136430000Y-120305000D02*
X135600000Y-120305000D01*
X135656000Y-121305000D02*
X136430000Y-121305000D01*
X135382000Y-121031000D02*
X135656000Y-121305000D01*
X135382000Y-120523000D02*
X135382000Y-121031000D01*
X135600000Y-120305000D02*
X135382000Y-120523000D01*
X138050500Y-119442000D02*
X138684000Y-119442000D01*
X137187500Y-120305000D02*
X138050500Y-119442000D01*
X136430000Y-120305000D02*
X137187500Y-120305000D01*
D38*
X138622000Y-120904000D02*
X137541000Y-120904000D01*
D39*
X137442000Y-120805000D02*
X137541000Y-120904000D01*
X137442000Y-120805000D02*
X136430000Y-120805000D01*
D38*
X138622000Y-120904000D02*
X138684000Y-120842000D01*
D39*
X127730000Y-123805000D02*
X126218000Y-123805000D01*
X127730000Y-120805000D02*
X128496000Y-120805000D01*
X128496000Y-120805000D02*
X128778000Y-120523000D01*
X128778000Y-120523000D02*
X128778000Y-119507000D01*
X128778000Y-119507000D02*
X128524000Y-119253000D01*
X128524000Y-119253000D02*
X128081000Y-119253000D01*
X128081000Y-119253000D02*
X127192000Y-118364000D01*
D38*
X113792000Y-144188000D02*
X113792000Y-144780000D01*
X117602000Y-144780000D02*
X118237000Y-145415000D01*
X116332000Y-144780000D02*
X117602000Y-144780000D01*
X115824000Y-145288000D02*
X116332000Y-144780000D01*
X114300000Y-145288000D02*
X115824000Y-145288000D01*
X113792000Y-144780000D02*
X114300000Y-145288000D01*
X118237000Y-146464000D02*
X118237000Y-145415000D01*
X118237000Y-144399000D02*
X119126000Y-143510000D01*
X119126000Y-143510000D02*
X130215000Y-143510000D01*
X130215000Y-143510000D02*
X131953000Y-145248000D01*
X118237000Y-145415000D02*
X118237000Y-144399000D01*
X119507000Y-146464000D02*
X119507000Y-144653000D01*
X133096000Y-140208000D02*
X133136000Y-140248000D01*
X119507000Y-144653000D02*
X119380000Y-144780000D01*
X133136000Y-140248000D02*
X133223000Y-140248000D01*
X134493000Y-147447000D02*
X134493000Y-145248000D01*
X134112000Y-147828000D02*
X134493000Y-147447000D01*
X130556000Y-147828000D02*
X134112000Y-147828000D01*
X120777000Y-146464000D02*
X120777000Y-145415000D01*
X121920000Y-144272000D02*
X127000000Y-144272000D01*
X120777000Y-145415000D02*
X121920000Y-144272000D01*
X130556000Y-147828000D02*
X127000000Y-144272000D01*
X123317000Y-146464000D02*
X123317000Y-147701000D01*
X123317000Y-147701000D02*
X123190000Y-147828000D01*
X123317000Y-146464000D02*
X123317000Y-145923000D01*
X135636000Y-140208000D02*
X135676000Y-140248000D01*
X135676000Y-140248000D02*
X135763000Y-140248000D01*
X122047000Y-146464000D02*
X122047000Y-145669000D01*
X126238000Y-145034000D02*
X130048000Y-148844000D01*
X122682000Y-145034000D02*
X126238000Y-145034000D01*
X122047000Y-145669000D02*
X122682000Y-145034000D01*
X137033000Y-145248000D02*
X137033000Y-147320000D01*
X135636000Y-148844000D02*
X130048000Y-148844000D01*
X137033000Y-147447000D02*
X135636000Y-148844000D01*
X137033000Y-147320000D02*
X137033000Y-147447000D01*
D39*
X132830000Y-126905000D02*
X132830000Y-128893000D01*
X132830000Y-128893000D02*
X133858000Y-129921000D01*
X133858000Y-129921000D02*
X133858000Y-130241000D01*
X134907000Y-130208000D02*
X134907000Y-129638002D01*
X134620000Y-129351002D02*
X134050002Y-129351002D01*
X134907000Y-129638002D02*
X134620000Y-129351002D01*
X134907000Y-130904000D02*
X134907000Y-130208000D01*
X134050002Y-129351002D02*
X133330000Y-128631000D01*
X133330000Y-126905000D02*
X133330000Y-128631000D01*
X134907000Y-130904000D02*
X135702000Y-131699000D01*
X132330000Y-125607000D02*
X132334000Y-125603000D01*
X132330000Y-125607000D02*
X132330000Y-126905000D01*
X103886000Y-122682000D02*
X104067000Y-122863000D01*
X104067000Y-122863000D02*
X104067000Y-122977000D01*
D38*
X103886000Y-121224000D02*
X103886000Y-122682000D01*
X103952000Y-121158000D02*
X103886000Y-121224000D01*
D39*
X104267000Y-116840000D02*
X104099000Y-117389000D01*
X104099000Y-117389000D02*
X104067000Y-117389000D01*
D38*
X103952000Y-115570000D02*
X103952000Y-116906000D01*
D40*
X103952000Y-117274000D02*
X104067000Y-117389000D01*
X103952000Y-116906000D02*
X103952000Y-117274000D01*
D39*
X103886000Y-111506000D02*
X104067000Y-111687000D01*
X104067000Y-111687000D02*
X104067000Y-111801000D01*
D38*
X103952000Y-111440000D02*
X103886000Y-111506000D01*
X103952000Y-109982000D02*
X103952000Y-111440000D01*
D39*
X129830000Y-127726000D02*
X129540000Y-128016000D01*
D40*
X118237000Y-139319000D02*
X129540000Y-128016000D01*
X118237000Y-139319000D02*
X118237000Y-141064000D01*
D39*
X129830000Y-126905000D02*
X129830000Y-127726000D01*
X130330000Y-128242000D02*
X130048000Y-128524000D01*
D40*
X119507000Y-139065000D02*
X119507000Y-141064000D01*
X119507000Y-139065000D02*
X130048000Y-128524000D01*
D39*
X130330000Y-126905000D02*
X130330000Y-128242000D01*
X130830000Y-128758000D02*
X130556000Y-129032000D01*
D40*
X120777000Y-138811000D02*
X120777000Y-141064000D01*
X120777000Y-138811000D02*
X130556000Y-129032000D01*
D39*
X130830000Y-126905000D02*
X130830000Y-128758000D01*
X131330000Y-129274000D02*
X131318000Y-129286000D01*
D40*
X123317000Y-142113000D02*
X123317000Y-141064000D01*
X121412000Y-139192000D02*
X131318000Y-129286000D01*
X121412000Y-139954000D02*
X121412000Y-139192000D01*
D39*
X121412000Y-141986000D02*
X121412000Y-139954000D01*
X121666000Y-142240000D02*
X121412000Y-141986000D01*
D40*
X123190000Y-142240000D02*
X121666000Y-142240000D01*
X123317000Y-142113000D02*
X123190000Y-142240000D01*
D39*
X131330000Y-126905000D02*
X131330000Y-129274000D01*
D40*
X131830000Y-129790000D02*
X122047000Y-139573000D01*
X122047000Y-139573000D02*
X122047000Y-141064000D01*
D39*
X131830000Y-126905000D02*
X131830000Y-129790000D01*
D41*
X118491000Y-123256000D02*
X116906000Y-123256000D01*
X116906000Y-123256000D02*
X114427000Y-120777000D01*
X108712000Y-104648000D02*
X105156000Y-104648000D01*
X114427000Y-110363000D02*
X108712000Y-104648000D01*
X114427000Y-120777000D02*
X114427000Y-110363000D01*
D38*
X124366000Y-127762000D02*
X125222000Y-127762000D01*
X125730000Y-127254000D02*
X125730000Y-124779000D01*
X125222000Y-127762000D02*
X125730000Y-127254000D01*
D39*
X126266000Y-124305000D02*
X125730000Y-124841000D01*
X127730000Y-124305000D02*
X126266000Y-124305000D01*
X127730000Y-123305000D02*
X128512000Y-123305000D01*
X128552000Y-124305000D02*
X127730000Y-124305000D01*
X128778000Y-124079000D02*
X128552000Y-124305000D01*
X128778000Y-123571000D02*
X128778000Y-124079000D01*
X128512000Y-123305000D02*
X128778000Y-123571000D01*
D41*
X118491000Y-114620000D02*
X117348000Y-113477000D01*
X117348000Y-113477000D02*
X117348000Y-104648000D01*
D39*
X124968000Y-119380000D02*
X126047500Y-120459500D01*
X125984000Y-120396000D02*
X126047500Y-120396000D01*
X126047500Y-120459500D02*
X125984000Y-120396000D01*
X125984000Y-120650000D02*
X124714000Y-119380000D01*
X124714000Y-119380000D02*
X123985000Y-119380000D01*
X125984000Y-120015000D02*
X126138500Y-120015000D01*
X126138500Y-120015000D02*
X126428500Y-120305000D01*
X125792000Y-119380000D02*
X125792000Y-119442000D01*
X125792000Y-119442000D02*
X126746000Y-120396000D01*
X127000000Y-120305000D02*
X126909000Y-120305000D01*
X126909000Y-120305000D02*
X125792000Y-119188000D01*
X126274000Y-120305000D02*
X126274000Y-120813000D01*
X126274000Y-120813000D02*
X126238000Y-120777000D01*
X126428500Y-120967500D02*
X126428500Y-120305000D01*
X126492000Y-120396000D02*
X126492000Y-120305000D01*
X126428500Y-120305000D02*
X126492000Y-120368500D01*
X126492000Y-120368500D02*
X126492000Y-120396000D01*
X126047500Y-120078500D02*
X126047500Y-120396000D01*
X126047500Y-120396000D02*
X126047500Y-120586500D01*
X126047500Y-120586500D02*
X126428500Y-120967500D01*
X126428500Y-120967500D02*
X126555500Y-121094500D01*
X126555500Y-121094500D02*
X126555500Y-120586500D01*
X126555500Y-120586500D02*
X126746000Y-120396000D01*
X126746000Y-120396000D02*
X126837000Y-120305000D01*
X127730000Y-120305000D02*
X127000000Y-120305000D01*
X127000000Y-120305000D02*
X126837000Y-120305000D01*
X126837000Y-120305000D02*
X126492000Y-120305000D01*
X126492000Y-120305000D02*
X126274000Y-120305000D01*
X126274000Y-120305000D02*
X126047500Y-120078500D01*
X126047500Y-120078500D02*
X125984000Y-120015000D01*
X126238000Y-120777000D02*
X126111000Y-120777000D01*
X125984000Y-120650000D02*
X125984000Y-120015000D01*
X126111000Y-120777000D02*
X125984000Y-120650000D01*
X126492000Y-121031000D02*
X126238000Y-120777000D01*
X126555500Y-121094500D02*
X126492000Y-121031000D01*
X126893000Y-121305000D02*
X126766000Y-121305000D01*
X127730000Y-121305000D02*
X126893000Y-121305000D01*
X126766000Y-121305000D02*
X126555500Y-121094500D01*
D38*
X125792000Y-118364000D02*
X125792000Y-119380000D01*
X125792000Y-119380000D02*
X125792000Y-119188000D01*
X125792000Y-119188000D02*
X125792000Y-118937000D01*
X125792000Y-118937000D02*
X125349000Y-119380000D01*
X125792000Y-118364000D02*
X125792000Y-119823000D01*
X125792000Y-119823000D02*
X125984000Y-120015000D01*
X125349000Y-119380000D02*
X125984000Y-120015000D01*
X125222000Y-119380000D02*
X124968000Y-119380000D01*
X124968000Y-119380000D02*
X123985000Y-119380000D01*
X125222000Y-119380000D02*
X125349000Y-119380000D01*
X124587000Y-146464000D02*
X124587000Y-147701000D01*
X112842000Y-147254000D02*
X112842000Y-146388000D01*
X112776000Y-147320000D02*
X112842000Y-147254000D01*
X124587000Y-147701000D02*
X124460000Y-147828000D01*
D41*
X145288000Y-145288000D02*
X145288000Y-147828000D01*
X147828000Y-145288000D02*
X147828000Y-147828000D01*
D38*
X118966000Y-126492000D02*
X120281000Y-125177000D01*
X120281000Y-125177000D02*
X120281000Y-124841000D01*
D39*
X119126000Y-126332000D02*
X118966000Y-126492000D01*
D38*
X118585000Y-118110000D02*
X118757000Y-118110000D01*
X118757000Y-118110000D02*
X120535000Y-116332000D01*
D39*
X104902000Y-117348000D02*
X105852000Y-116398000D01*
X104689000Y-119339000D02*
X104902000Y-119126000D01*
X104902000Y-119126000D02*
X104902000Y-117348000D01*
X105852000Y-116398000D02*
X105852000Y-115570000D01*
D40*
X103419000Y-119339000D02*
X104067000Y-119339000D01*
D39*
X104067000Y-119339000D02*
X104689000Y-119339000D01*
X104067000Y-130515000D02*
X104689000Y-130515000D01*
X104689000Y-128565000D02*
X104067000Y-128565000D01*
X104902000Y-128778000D02*
X104689000Y-128565000D01*
X104902000Y-130302000D02*
X104902000Y-128778000D01*
X104689000Y-130515000D02*
X104902000Y-130302000D01*
X103419000Y-119339000D02*
X103378000Y-119380000D01*
D38*
X102870000Y-119380000D02*
X103378000Y-119380000D01*
D40*
X102911000Y-130515000D02*
X102870000Y-130556000D01*
X104067000Y-130515000D02*
X102911000Y-130515000D01*
D39*
X104067000Y-136103000D02*
X104689000Y-136103000D01*
X104689000Y-134153000D02*
X104067000Y-134153000D01*
X104902000Y-134366000D02*
X104689000Y-134153000D01*
X104902000Y-135890000D02*
X104902000Y-134366000D01*
X104689000Y-136103000D02*
X104902000Y-135890000D01*
D40*
X102911000Y-136103000D02*
X102870000Y-136144000D01*
X102911000Y-136103000D02*
X104067000Y-136103000D01*
X103999500Y-136105900D02*
X103999500Y-136511500D01*
D41*
X104521000Y-136525000D02*
X104902000Y-136906000D01*
X104902000Y-136906000D02*
X105664000Y-136906000D01*
X105664000Y-136906000D02*
X108204000Y-139446000D01*
X108204000Y-139446000D02*
X108204000Y-140970000D01*
X108204000Y-140970000D02*
X106426000Y-142748000D01*
D40*
X103999500Y-136511500D02*
X104013000Y-136525000D01*
D41*
X104013000Y-136525000D02*
X104521000Y-136525000D01*
X103251000Y-136525000D02*
X102870000Y-136144000D01*
X104013000Y-136525000D02*
X103251000Y-136525000D01*
X117411500Y-127190500D02*
X117411500Y-125793500D01*
X117729000Y-125476000D02*
X118491000Y-125476000D01*
X117411500Y-125793500D02*
X117729000Y-125476000D01*
X118491000Y-125476000D02*
X118491000Y-125156000D01*
D39*
X121031000Y-124333000D02*
X121031000Y-125349000D01*
X121031000Y-125349000D02*
X120142000Y-126238000D01*
X120777000Y-124079000D02*
X121031000Y-124333000D01*
X119761000Y-124079000D02*
X120777000Y-124079000D01*
X119507000Y-124333000D02*
X119761000Y-124079000D01*
X119507000Y-125095000D02*
X119507000Y-124333000D01*
X118745000Y-125857000D02*
X119507000Y-125095000D01*
X117983000Y-125857000D02*
X118745000Y-125857000D01*
X117856000Y-125984000D02*
X117983000Y-125857000D01*
X117856000Y-127000000D02*
X117856000Y-125984000D01*
D41*
X117729000Y-127508000D02*
X117411500Y-127190500D01*
X117411500Y-127190500D02*
X116840000Y-126619000D01*
D39*
X118966000Y-127254000D02*
X117475000Y-127254000D01*
X117729000Y-127254000D02*
X117729000Y-127508000D01*
X117475000Y-127254000D02*
X117729000Y-127254000D01*
X118966000Y-127762000D02*
X118966000Y-127254000D01*
X118966000Y-127254000D02*
X118966000Y-127127000D01*
X118966000Y-127127000D02*
X118999000Y-127127000D01*
X120142000Y-126238000D02*
X120142000Y-126873000D01*
X120142000Y-126873000D02*
X119888000Y-127127000D01*
X119888000Y-127127000D02*
X118999000Y-127127000D01*
X117983000Y-127127000D02*
X117856000Y-127000000D01*
X118331000Y-127127000D02*
X117983000Y-127127000D01*
X118966000Y-127762000D02*
X118331000Y-127127000D01*
X118999000Y-127127000D02*
X118331000Y-127127000D01*
D41*
X118966000Y-127762000D02*
X117983000Y-127762000D01*
X117983000Y-127762000D02*
X117729000Y-127508000D01*
D38*
X124366000Y-129032000D02*
X122047000Y-129032000D01*
X120777000Y-127762000D02*
X118966000Y-127762000D01*
X122047000Y-129032000D02*
X120777000Y-127762000D01*
D41*
X118491000Y-116967000D02*
X118491000Y-116520000D01*
X117348000Y-116967000D02*
X118491000Y-116967000D01*
X116840000Y-118618000D02*
X116840000Y-117475000D01*
X118585000Y-119380000D02*
X117602000Y-119380000D01*
X117602000Y-119380000D02*
X116840000Y-118618000D01*
X116840000Y-117475000D02*
X117348000Y-116967000D01*
D39*
X119761000Y-116205000D02*
X118491000Y-117475000D01*
X119761000Y-115824000D02*
X119761000Y-116205000D01*
X120015000Y-115570000D02*
X119761000Y-115824000D01*
X118491000Y-117475000D02*
X117475000Y-117475000D01*
X121031000Y-115570000D02*
X121285000Y-115824000D01*
X121285000Y-115824000D02*
X121285000Y-116967000D01*
X121031000Y-117221000D02*
X121285000Y-116967000D01*
X117475000Y-117475000D02*
X117221000Y-117729000D01*
X117221000Y-117729000D02*
X117221000Y-118491000D01*
X117221000Y-118491000D02*
X117475000Y-118745000D01*
X117475000Y-118745000D02*
X118237000Y-118745000D01*
X120015000Y-115570000D02*
X121031000Y-115570000D01*
X118237000Y-118745000D02*
X118491000Y-118745000D01*
X118585000Y-118905000D02*
X118425000Y-118745000D01*
X118425000Y-118745000D02*
X118491000Y-118745000D01*
X118585000Y-118905000D02*
X118745000Y-118745000D01*
X120523000Y-117221000D02*
X121031000Y-117221000D01*
X119761000Y-117983000D02*
X120523000Y-117221000D01*
X119761000Y-118491000D02*
X119761000Y-117983000D01*
X119507000Y-118745000D02*
X119761000Y-118491000D01*
X119507000Y-118745000D02*
X118745000Y-118745000D01*
X118585000Y-119380000D02*
X118585000Y-118905000D01*
D38*
X120396000Y-119380000D02*
X121666000Y-120650000D01*
X121666000Y-120650000D02*
X123985000Y-120650000D01*
X118585000Y-119380000D02*
X120396000Y-119380000D01*
D39*
X134366000Y-124714000D02*
X134330000Y-124750000D01*
X134330000Y-124750000D02*
X134330000Y-126905000D01*
X134366000Y-127889000D02*
X134608000Y-128131000D01*
X134330000Y-127853000D02*
X134366000Y-127889000D01*
X134330000Y-126905000D02*
X134330000Y-127853000D01*
D38*
X134608000Y-128131000D02*
X137668000Y-128131000D01*
D39*
X125857000Y-141351000D02*
X125857000Y-141064000D01*
D38*
X134813000Y-133096000D02*
X137414000Y-133096000D01*
X137414000Y-133096000D02*
X137602000Y-132908000D01*
X137602000Y-132908000D02*
X137602000Y-131699000D01*
X133858000Y-132141000D02*
X134813000Y-133096000D01*
X137602000Y-131699000D02*
X137602000Y-129921000D01*
X137602000Y-128197000D02*
X137668000Y-128131000D01*
X137602000Y-129921000D02*
X137602000Y-128197000D01*
X136906000Y-128131000D02*
X137668000Y-128131000D01*
D39*
X125984000Y-141478000D02*
X125857000Y-141351000D01*
D38*
X125857000Y-139700000D02*
X125857000Y-141064000D01*
X125857000Y-138799000D02*
X125857000Y-139700000D01*
X125972000Y-138684000D02*
X125857000Y-138799000D01*
X126492000Y-139700000D02*
X125857000Y-139700000D01*
X138430000Y-128131000D02*
X137668000Y-128131000D01*
D39*
G36*
X102489000Y-143475446D02*
X102489000Y-144526000D01*
X102499006Y-144575410D01*
X102527447Y-144617035D01*
X102553342Y-144633698D01*
X102431042Y-144928974D01*
X102552183Y-145161000D01*
X103759000Y-145161000D01*
X103759000Y-145141000D01*
X104013000Y-145141000D01*
X104013000Y-145161000D01*
X106299000Y-145161000D01*
X106299000Y-145141000D01*
X106553000Y-145141000D01*
X106553000Y-145161000D01*
X107759817Y-145161000D01*
X107880958Y-144928974D01*
X107766653Y-144653000D01*
X108204000Y-144653000D01*
X108253410Y-144642994D01*
X108295035Y-144614553D01*
X108322315Y-144572159D01*
X108331000Y-144526000D01*
X108331000Y-142875000D01*
X109855000Y-142875000D01*
X109855000Y-149175000D01*
X107085010Y-149175000D01*
X107515029Y-148887670D01*
X107839885Y-148401489D01*
X107953959Y-147828000D01*
X107839885Y-147254511D01*
X107515029Y-146768330D01*
X107191772Y-146552336D01*
X107314490Y-146494821D01*
X107708688Y-146062947D01*
X107880958Y-145647026D01*
X107759817Y-145415000D01*
X106553000Y-145415000D01*
X106553000Y-145435000D01*
X106299000Y-145435000D01*
X106299000Y-145415000D01*
X104013000Y-145415000D01*
X104013000Y-145435000D01*
X103759000Y-145435000D01*
X103759000Y-145415000D01*
X102552183Y-145415000D01*
X102431042Y-145647026D01*
X102603312Y-146062947D01*
X102997510Y-146494821D01*
X103120228Y-146552336D01*
X102796971Y-146768330D01*
X102472115Y-147254511D01*
X102358041Y-147828000D01*
X102472115Y-148401489D01*
X102796971Y-148887670D01*
X103226990Y-149175000D01*
X100761000Y-149175000D01*
X100761000Y-141747446D01*
X102489000Y-143475446D01*
X102489000Y-143475446D01*
G37*
X102489000Y-143475446D02*
X102489000Y-144526000D01*
X102499006Y-144575410D01*
X102527447Y-144617035D01*
X102553342Y-144633698D01*
X102431042Y-144928974D01*
X102552183Y-145161000D01*
X103759000Y-145161000D01*
X103759000Y-145141000D01*
X104013000Y-145141000D01*
X104013000Y-145161000D01*
X106299000Y-145161000D01*
X106299000Y-145141000D01*
X106553000Y-145141000D01*
X106553000Y-145161000D01*
X107759817Y-145161000D01*
X107880958Y-144928974D01*
X107766653Y-144653000D01*
X108204000Y-144653000D01*
X108253410Y-144642994D01*
X108295035Y-144614553D01*
X108322315Y-144572159D01*
X108331000Y-144526000D01*
X108331000Y-142875000D01*
X109855000Y-142875000D01*
X109855000Y-149175000D01*
X107085010Y-149175000D01*
X107515029Y-148887670D01*
X107839885Y-148401489D01*
X107953959Y-147828000D01*
X107839885Y-147254511D01*
X107515029Y-146768330D01*
X107191772Y-146552336D01*
X107314490Y-146494821D01*
X107708688Y-146062947D01*
X107880958Y-145647026D01*
X107759817Y-145415000D01*
X106553000Y-145415000D01*
X106553000Y-145435000D01*
X106299000Y-145435000D01*
X106299000Y-145415000D01*
X104013000Y-145415000D01*
X104013000Y-145435000D01*
X103759000Y-145435000D01*
X103759000Y-145415000D01*
X102552183Y-145415000D01*
X102431042Y-145647026D01*
X102603312Y-146062947D01*
X102997510Y-146494821D01*
X103120228Y-146552336D01*
X102796971Y-146768330D01*
X102472115Y-147254511D01*
X102358041Y-147828000D01*
X102472115Y-148401489D01*
X102796971Y-148887670D01*
X103226990Y-149175000D01*
X100761000Y-149175000D01*
X100761000Y-141747446D01*
X102489000Y-143475446D01*
G36*
X149175000Y-143637000D02*
X146365431Y-143637000D01*
X146304000Y-143624560D01*
X144399000Y-143624560D01*
X144399000Y-138938000D01*
X144388994Y-138888590D01*
X144361803Y-138848197D01*
X139573000Y-134059394D01*
X139573000Y-133757185D01*
X142099682Y-133757185D01*
X142113827Y-133828684D01*
X142372855Y-134305540D01*
X142794651Y-134646972D01*
X143315000Y-134801000D01*
X143815000Y-134801000D01*
X143815000Y-133543000D01*
X144069000Y-133543000D01*
X144069000Y-134801000D01*
X144569000Y-134801000D01*
X145089349Y-134646972D01*
X145511145Y-134305540D01*
X145770173Y-133828684D01*
X145784318Y-133757185D01*
X145661656Y-133543000D01*
X144069000Y-133543000D01*
X143815000Y-133543000D01*
X142222344Y-133543000D01*
X142099682Y-133757185D01*
X139573000Y-133757185D01*
X139573000Y-133074815D01*
X142099682Y-133074815D01*
X142222344Y-133289000D01*
X143815000Y-133289000D01*
X143815000Y-132031000D01*
X144069000Y-132031000D01*
X144069000Y-133289000D01*
X145661656Y-133289000D01*
X145784318Y-133074815D01*
X145770173Y-133003316D01*
X145511145Y-132526460D01*
X145089349Y-132185028D01*
X144569000Y-132031000D01*
X144069000Y-132031000D01*
X143815000Y-132031000D01*
X143315000Y-132031000D01*
X142794651Y-132185028D01*
X142372855Y-132526460D01*
X142113827Y-133003316D01*
X142099682Y-133074815D01*
X139573000Y-133074815D01*
X139573000Y-127192586D01*
X139582095Y-127198663D01*
X139683560Y-127218846D01*
X139683560Y-127311000D01*
X139727838Y-127546317D01*
X139835153Y-127713089D01*
X139834803Y-128113775D01*
X140007233Y-128531086D01*
X140326235Y-128850645D01*
X140442560Y-128898948D01*
X140442560Y-129026000D01*
X140486838Y-129261317D01*
X140625910Y-129477441D01*
X140838110Y-129622431D01*
X141090000Y-129673440D01*
X141890000Y-129673440D01*
X142125317Y-129629162D01*
X142239978Y-129555380D01*
X142338110Y-129622431D01*
X142590000Y-129673440D01*
X143390000Y-129673440D01*
X143625317Y-129629162D01*
X143841441Y-129490090D01*
X143986431Y-129277890D01*
X144037440Y-129026000D01*
X144037440Y-128276000D01*
X143993162Y-128040683D01*
X143879000Y-127863270D01*
X143879000Y-127753880D01*
X144242775Y-127754197D01*
X144257650Y-127748051D01*
X144266910Y-127762441D01*
X144479110Y-127907431D01*
X144731000Y-127958440D01*
X146181000Y-127958440D01*
X146416317Y-127914162D01*
X146632441Y-127775090D01*
X146777431Y-127562890D01*
X146788547Y-127508000D01*
X147320000Y-127508000D01*
X147660206Y-127440329D01*
X147948618Y-127247618D01*
X148224601Y-126971635D01*
X148519407Y-126912994D01*
X148890223Y-126665223D01*
X149137994Y-126294407D01*
X149175000Y-126108366D01*
X149175000Y-143637000D01*
X149175000Y-143637000D01*
G37*
X149175000Y-143637000D02*
X146365431Y-143637000D01*
X146304000Y-143624560D01*
X144399000Y-143624560D01*
X144399000Y-138938000D01*
X144388994Y-138888590D01*
X144361803Y-138848197D01*
X139573000Y-134059394D01*
X139573000Y-133757185D01*
X142099682Y-133757185D01*
X142113827Y-133828684D01*
X142372855Y-134305540D01*
X142794651Y-134646972D01*
X143315000Y-134801000D01*
X143815000Y-134801000D01*
X143815000Y-133543000D01*
X144069000Y-133543000D01*
X144069000Y-134801000D01*
X144569000Y-134801000D01*
X145089349Y-134646972D01*
X145511145Y-134305540D01*
X145770173Y-133828684D01*
X145784318Y-133757185D01*
X145661656Y-133543000D01*
X144069000Y-133543000D01*
X143815000Y-133543000D01*
X142222344Y-133543000D01*
X142099682Y-133757185D01*
X139573000Y-133757185D01*
X139573000Y-133074815D01*
X142099682Y-133074815D01*
X142222344Y-133289000D01*
X143815000Y-133289000D01*
X143815000Y-132031000D01*
X144069000Y-132031000D01*
X144069000Y-133289000D01*
X145661656Y-133289000D01*
X145784318Y-133074815D01*
X145770173Y-133003316D01*
X145511145Y-132526460D01*
X145089349Y-132185028D01*
X144569000Y-132031000D01*
X144069000Y-132031000D01*
X143815000Y-132031000D01*
X143315000Y-132031000D01*
X142794651Y-132185028D01*
X142372855Y-132526460D01*
X142113827Y-133003316D01*
X142099682Y-133074815D01*
X139573000Y-133074815D01*
X139573000Y-127192586D01*
X139582095Y-127198663D01*
X139683560Y-127218846D01*
X139683560Y-127311000D01*
X139727838Y-127546317D01*
X139835153Y-127713089D01*
X139834803Y-128113775D01*
X140007233Y-128531086D01*
X140326235Y-128850645D01*
X140442560Y-128898948D01*
X140442560Y-129026000D01*
X140486838Y-129261317D01*
X140625910Y-129477441D01*
X140838110Y-129622431D01*
X141090000Y-129673440D01*
X141890000Y-129673440D01*
X142125317Y-129629162D01*
X142239978Y-129555380D01*
X142338110Y-129622431D01*
X142590000Y-129673440D01*
X143390000Y-129673440D01*
X143625317Y-129629162D01*
X143841441Y-129490090D01*
X143986431Y-129277890D01*
X144037440Y-129026000D01*
X144037440Y-128276000D01*
X143993162Y-128040683D01*
X143879000Y-127863270D01*
X143879000Y-127753880D01*
X144242775Y-127754197D01*
X144257650Y-127748051D01*
X144266910Y-127762441D01*
X144479110Y-127907431D01*
X144731000Y-127958440D01*
X146181000Y-127958440D01*
X146416317Y-127914162D01*
X146632441Y-127775090D01*
X146777431Y-127562890D01*
X146788547Y-127508000D01*
X147320000Y-127508000D01*
X147660206Y-127440329D01*
X147948618Y-127247618D01*
X148224601Y-126971635D01*
X148519407Y-126912994D01*
X148890223Y-126665223D01*
X149137994Y-126294407D01*
X149175000Y-126108366D01*
X149175000Y-143637000D01*
G36*
X121418382Y-129660618D02*
X121706794Y-129853329D01*
X122047000Y-129921000D01*
X122959963Y-129921000D01*
X122943560Y-130002000D01*
X122943560Y-130602000D01*
X122987838Y-130837317D01*
X123126910Y-131053441D01*
X123339110Y-131198431D01*
X123591000Y-131249440D01*
X125139126Y-131249440D01*
X123505081Y-132883485D01*
X123311145Y-132526460D01*
X122889349Y-132185028D01*
X122369000Y-132031000D01*
X121869000Y-132031000D01*
X121869000Y-133289000D01*
X121889000Y-133289000D01*
X121889000Y-133543000D01*
X121869000Y-133543000D01*
X121869000Y-133563000D01*
X121615000Y-133563000D01*
X121615000Y-133543000D01*
X120022344Y-133543000D01*
X119899682Y-133757185D01*
X119913827Y-133828684D01*
X120172855Y-134305540D01*
X120594651Y-134646972D01*
X121115000Y-134801000D01*
X121587566Y-134801000D01*
X119355566Y-137033000D01*
X112381549Y-137033000D01*
X112391317Y-137031162D01*
X112607441Y-136892090D01*
X112752431Y-136679890D01*
X112803440Y-136428000D01*
X112803440Y-135728000D01*
X112759162Y-135492683D01*
X112620090Y-135276559D01*
X112407890Y-135131569D01*
X112394803Y-135128919D01*
X112607441Y-134992090D01*
X112752431Y-134779890D01*
X112803440Y-134528000D01*
X112803440Y-133828000D01*
X112759162Y-133592683D01*
X112620090Y-133376559D01*
X112407890Y-133231569D01*
X112238820Y-133197332D01*
X112156958Y-133074815D01*
X119899682Y-133074815D01*
X120022344Y-133289000D01*
X121615000Y-133289000D01*
X121615000Y-132031000D01*
X121115000Y-132031000D01*
X120594651Y-132185028D01*
X120172855Y-132526460D01*
X119913827Y-133003316D01*
X119899682Y-133074815D01*
X112156958Y-133074815D01*
X112134618Y-133041382D01*
X111167440Y-132074204D01*
X111167440Y-131684000D01*
X111144306Y-131561054D01*
X111506000Y-131633000D01*
X114620000Y-131633000D01*
X115057407Y-131545994D01*
X115428223Y-131298223D01*
X116551446Y-130175000D01*
X117543560Y-130175000D01*
X117543560Y-130602000D01*
X117587838Y-130837317D01*
X117726910Y-131053441D01*
X117939110Y-131198431D01*
X118191000Y-131249440D01*
X119741000Y-131249440D01*
X119976317Y-131205162D01*
X120192441Y-131066090D01*
X120337431Y-130853890D01*
X120388440Y-130602000D01*
X120388440Y-130053294D01*
X120530086Y-129994767D01*
X120661978Y-129863104D01*
X120696223Y-129840223D01*
X120718905Y-129806277D01*
X120849645Y-129675765D01*
X120921114Y-129503650D01*
X120943994Y-129469407D01*
X120951958Y-129429369D01*
X121020960Y-129263196D01*
X121418382Y-129660618D01*
X121418382Y-129660618D01*
G37*
X121418382Y-129660618D02*
X121706794Y-129853329D01*
X122047000Y-129921000D01*
X122959963Y-129921000D01*
X122943560Y-130002000D01*
X122943560Y-130602000D01*
X122987838Y-130837317D01*
X123126910Y-131053441D01*
X123339110Y-131198431D01*
X123591000Y-131249440D01*
X125139126Y-131249440D01*
X123505081Y-132883485D01*
X123311145Y-132526460D01*
X122889349Y-132185028D01*
X122369000Y-132031000D01*
X121869000Y-132031000D01*
X121869000Y-133289000D01*
X121889000Y-133289000D01*
X121889000Y-133543000D01*
X121869000Y-133543000D01*
X121869000Y-133563000D01*
X121615000Y-133563000D01*
X121615000Y-133543000D01*
X120022344Y-133543000D01*
X119899682Y-133757185D01*
X119913827Y-133828684D01*
X120172855Y-134305540D01*
X120594651Y-134646972D01*
X121115000Y-134801000D01*
X121587566Y-134801000D01*
X119355566Y-137033000D01*
X112381549Y-137033000D01*
X112391317Y-137031162D01*
X112607441Y-136892090D01*
X112752431Y-136679890D01*
X112803440Y-136428000D01*
X112803440Y-135728000D01*
X112759162Y-135492683D01*
X112620090Y-135276559D01*
X112407890Y-135131569D01*
X112394803Y-135128919D01*
X112607441Y-134992090D01*
X112752431Y-134779890D01*
X112803440Y-134528000D01*
X112803440Y-133828000D01*
X112759162Y-133592683D01*
X112620090Y-133376559D01*
X112407890Y-133231569D01*
X112238820Y-133197332D01*
X112156958Y-133074815D01*
X119899682Y-133074815D01*
X120022344Y-133289000D01*
X121615000Y-133289000D01*
X121615000Y-132031000D01*
X121115000Y-132031000D01*
X120594651Y-132185028D01*
X120172855Y-132526460D01*
X119913827Y-133003316D01*
X119899682Y-133074815D01*
X112156958Y-133074815D01*
X112134618Y-133041382D01*
X111167440Y-132074204D01*
X111167440Y-131684000D01*
X111144306Y-131561054D01*
X111506000Y-131633000D01*
X114620000Y-131633000D01*
X115057407Y-131545994D01*
X115428223Y-131298223D01*
X116551446Y-130175000D01*
X117543560Y-130175000D01*
X117543560Y-130602000D01*
X117587838Y-130837317D01*
X117726910Y-131053441D01*
X117939110Y-131198431D01*
X118191000Y-131249440D01*
X119741000Y-131249440D01*
X119976317Y-131205162D01*
X120192441Y-131066090D01*
X120337431Y-130853890D01*
X120388440Y-130602000D01*
X120388440Y-130053294D01*
X120530086Y-129994767D01*
X120661978Y-129863104D01*
X120696223Y-129840223D01*
X120718905Y-129806277D01*
X120849645Y-129675765D01*
X120921114Y-129503650D01*
X120943994Y-129469407D01*
X120951958Y-129429369D01*
X121020960Y-129263196D01*
X121418382Y-129660618D01*
G36*
X106299000Y-123825000D02*
X106319000Y-123825000D01*
X106319000Y-124079000D01*
X106299000Y-124079000D01*
X106299000Y-125368250D01*
X106457750Y-125527000D01*
X107138310Y-125527000D01*
X107233114Y-125487731D01*
X107295410Y-125584541D01*
X107436815Y-125681159D01*
X107381673Y-125736301D01*
X107285000Y-125969690D01*
X107285000Y-126460250D01*
X107443750Y-126619000D01*
X108143000Y-126619000D01*
X108143000Y-126599000D01*
X108397000Y-126599000D01*
X108397000Y-126619000D01*
X108417000Y-126619000D01*
X108417000Y-126873000D01*
X108397000Y-126873000D01*
X108397000Y-127872250D01*
X108471500Y-127946750D01*
X108471500Y-128359160D01*
X108217500Y-128359160D01*
X108217500Y-127882650D01*
X108143000Y-127808150D01*
X108143000Y-126873000D01*
X107443750Y-126873000D01*
X107285000Y-127031750D01*
X107285000Y-127522310D01*
X107381673Y-127755699D01*
X107432856Y-127806881D01*
X107399801Y-127820573D01*
X107221173Y-127999202D01*
X107221130Y-127999305D01*
X107138310Y-127965000D01*
X106457750Y-127965000D01*
X106299000Y-128123750D01*
X106299000Y-129413000D01*
X106319000Y-129413000D01*
X106319000Y-129667000D01*
X106299000Y-129667000D01*
X106299000Y-130956250D01*
X106457750Y-131115000D01*
X107138310Y-131115000D01*
X107233114Y-131075731D01*
X107295410Y-131172541D01*
X107436815Y-131269159D01*
X107381673Y-131324301D01*
X107285000Y-131557690D01*
X107285000Y-132048250D01*
X107443750Y-132207000D01*
X108143000Y-132207000D01*
X108143000Y-132187000D01*
X108397000Y-132187000D01*
X108397000Y-132207000D01*
X108417000Y-132207000D01*
X108417000Y-132461000D01*
X108397000Y-132461000D01*
X108397000Y-133460250D01*
X108471500Y-133534750D01*
X108471500Y-133947160D01*
X108217500Y-133947160D01*
X108217500Y-133470650D01*
X108143000Y-133396150D01*
X108143000Y-132461000D01*
X107443750Y-132461000D01*
X107285000Y-132619750D01*
X107285000Y-133110310D01*
X107381673Y-133343699D01*
X107432856Y-133394881D01*
X107399801Y-133408573D01*
X107221173Y-133587202D01*
X107221130Y-133587305D01*
X107138310Y-133553000D01*
X106457750Y-133553000D01*
X106299000Y-133711750D01*
X106299000Y-135001000D01*
X106319000Y-135001000D01*
X106319000Y-135255000D01*
X106299000Y-135255000D01*
X106299000Y-135275000D01*
X106045000Y-135275000D01*
X106045000Y-135255000D01*
X106025000Y-135255000D01*
X106025000Y-135001000D01*
X106045000Y-135001000D01*
X106045000Y-133711750D01*
X105886250Y-133553000D01*
X105205690Y-133553000D01*
X105162821Y-133570757D01*
X104980605Y-133449004D01*
X104980599Y-133449003D01*
X104836390Y-133350469D01*
X104584500Y-133299460D01*
X103626000Y-133299460D01*
X103626000Y-133234998D01*
X103467252Y-133234998D01*
X103626000Y-133076250D01*
X103626000Y-132835691D01*
X103529327Y-132602302D01*
X103350699Y-132423673D01*
X103117310Y-132327000D01*
X102901750Y-132327000D01*
X102743000Y-132485750D01*
X102743000Y-133235000D01*
X102763000Y-133235000D01*
X102763000Y-133489000D01*
X102743000Y-133489000D01*
X102743000Y-133509000D01*
X102489000Y-133509000D01*
X102489000Y-131626755D01*
X102643244Y-131690803D01*
X103094775Y-131691197D01*
X103512086Y-131518767D01*
X103662575Y-131368540D01*
X104584500Y-131368540D01*
X104819817Y-131324262D01*
X105035941Y-131185190D01*
X105039925Y-131179360D01*
X105162821Y-131097243D01*
X105205690Y-131115000D01*
X105886250Y-131115000D01*
X106045000Y-130956250D01*
X106045000Y-129667000D01*
X106025000Y-129667000D01*
X106025000Y-129413000D01*
X106045000Y-129413000D01*
X106045000Y-128123750D01*
X105886250Y-127965000D01*
X105205690Y-127965000D01*
X105162821Y-127982757D01*
X105152717Y-127976006D01*
X104980605Y-127861004D01*
X104980599Y-127861003D01*
X104836390Y-127762469D01*
X104584500Y-127711460D01*
X103626000Y-127711460D01*
X103626000Y-127646998D01*
X103467252Y-127646998D01*
X103626000Y-127488250D01*
X103626000Y-127247691D01*
X103529327Y-127014302D01*
X103350699Y-126835673D01*
X103117310Y-126739000D01*
X102901750Y-126739000D01*
X102743000Y-126897750D01*
X102743000Y-127647000D01*
X102763000Y-127647000D01*
X102763000Y-127901000D01*
X102743000Y-127901000D01*
X102743000Y-127921000D01*
X102489000Y-127921000D01*
X102489000Y-126038755D01*
X102643244Y-126102803D01*
X103094775Y-126103197D01*
X103512086Y-125930767D01*
X103662575Y-125780540D01*
X104584500Y-125780540D01*
X104819817Y-125736262D01*
X105035941Y-125597190D01*
X105039925Y-125591360D01*
X105162821Y-125509243D01*
X105205690Y-125527000D01*
X105886250Y-125527000D01*
X106045000Y-125368250D01*
X106045000Y-124079000D01*
X106025000Y-124079000D01*
X106025000Y-123825000D01*
X106045000Y-123825000D01*
X106045000Y-123805000D01*
X106299000Y-123805000D01*
X106299000Y-123825000D01*
X106299000Y-123825000D01*
G37*
X106299000Y-123825000D02*
X106319000Y-123825000D01*
X106319000Y-124079000D01*
X106299000Y-124079000D01*
X106299000Y-125368250D01*
X106457750Y-125527000D01*
X107138310Y-125527000D01*
X107233114Y-125487731D01*
X107295410Y-125584541D01*
X107436815Y-125681159D01*
X107381673Y-125736301D01*
X107285000Y-125969690D01*
X107285000Y-126460250D01*
X107443750Y-126619000D01*
X108143000Y-126619000D01*
X108143000Y-126599000D01*
X108397000Y-126599000D01*
X108397000Y-126619000D01*
X108417000Y-126619000D01*
X108417000Y-126873000D01*
X108397000Y-126873000D01*
X108397000Y-127872250D01*
X108471500Y-127946750D01*
X108471500Y-128359160D01*
X108217500Y-128359160D01*
X108217500Y-127882650D01*
X108143000Y-127808150D01*
X108143000Y-126873000D01*
X107443750Y-126873000D01*
X107285000Y-127031750D01*
X107285000Y-127522310D01*
X107381673Y-127755699D01*
X107432856Y-127806881D01*
X107399801Y-127820573D01*
X107221173Y-127999202D01*
X107221130Y-127999305D01*
X107138310Y-127965000D01*
X106457750Y-127965000D01*
X106299000Y-128123750D01*
X106299000Y-129413000D01*
X106319000Y-129413000D01*
X106319000Y-129667000D01*
X106299000Y-129667000D01*
X106299000Y-130956250D01*
X106457750Y-131115000D01*
X107138310Y-131115000D01*
X107233114Y-131075731D01*
X107295410Y-131172541D01*
X107436815Y-131269159D01*
X107381673Y-131324301D01*
X107285000Y-131557690D01*
X107285000Y-132048250D01*
X107443750Y-132207000D01*
X108143000Y-132207000D01*
X108143000Y-132187000D01*
X108397000Y-132187000D01*
X108397000Y-132207000D01*
X108417000Y-132207000D01*
X108417000Y-132461000D01*
X108397000Y-132461000D01*
X108397000Y-133460250D01*
X108471500Y-133534750D01*
X108471500Y-133947160D01*
X108217500Y-133947160D01*
X108217500Y-133470650D01*
X108143000Y-133396150D01*
X108143000Y-132461000D01*
X107443750Y-132461000D01*
X107285000Y-132619750D01*
X107285000Y-133110310D01*
X107381673Y-133343699D01*
X107432856Y-133394881D01*
X107399801Y-133408573D01*
X107221173Y-133587202D01*
X107221130Y-133587305D01*
X107138310Y-133553000D01*
X106457750Y-133553000D01*
X106299000Y-133711750D01*
X106299000Y-135001000D01*
X106319000Y-135001000D01*
X106319000Y-135255000D01*
X106299000Y-135255000D01*
X106299000Y-135275000D01*
X106045000Y-135275000D01*
X106045000Y-135255000D01*
X106025000Y-135255000D01*
X106025000Y-135001000D01*
X106045000Y-135001000D01*
X106045000Y-133711750D01*
X105886250Y-133553000D01*
X105205690Y-133553000D01*
X105162821Y-133570757D01*
X104980605Y-133449004D01*
X104980599Y-133449003D01*
X104836390Y-133350469D01*
X104584500Y-133299460D01*
X103626000Y-133299460D01*
X103626000Y-133234998D01*
X103467252Y-133234998D01*
X103626000Y-133076250D01*
X103626000Y-132835691D01*
X103529327Y-132602302D01*
X103350699Y-132423673D01*
X103117310Y-132327000D01*
X102901750Y-132327000D01*
X102743000Y-132485750D01*
X102743000Y-133235000D01*
X102763000Y-133235000D01*
X102763000Y-133489000D01*
X102743000Y-133489000D01*
X102743000Y-133509000D01*
X102489000Y-133509000D01*
X102489000Y-131626755D01*
X102643244Y-131690803D01*
X103094775Y-131691197D01*
X103512086Y-131518767D01*
X103662575Y-131368540D01*
X104584500Y-131368540D01*
X104819817Y-131324262D01*
X105035941Y-131185190D01*
X105039925Y-131179360D01*
X105162821Y-131097243D01*
X105205690Y-131115000D01*
X105886250Y-131115000D01*
X106045000Y-130956250D01*
X106045000Y-129667000D01*
X106025000Y-129667000D01*
X106025000Y-129413000D01*
X106045000Y-129413000D01*
X106045000Y-128123750D01*
X105886250Y-127965000D01*
X105205690Y-127965000D01*
X105162821Y-127982757D01*
X105152717Y-127976006D01*
X104980605Y-127861004D01*
X104980599Y-127861003D01*
X104836390Y-127762469D01*
X104584500Y-127711460D01*
X103626000Y-127711460D01*
X103626000Y-127646998D01*
X103467252Y-127646998D01*
X103626000Y-127488250D01*
X103626000Y-127247691D01*
X103529327Y-127014302D01*
X103350699Y-126835673D01*
X103117310Y-126739000D01*
X102901750Y-126739000D01*
X102743000Y-126897750D01*
X102743000Y-127647000D01*
X102763000Y-127647000D01*
X102763000Y-127901000D01*
X102743000Y-127901000D01*
X102743000Y-127921000D01*
X102489000Y-127921000D01*
X102489000Y-126038755D01*
X102643244Y-126102803D01*
X103094775Y-126103197D01*
X103512086Y-125930767D01*
X103662575Y-125780540D01*
X104584500Y-125780540D01*
X104819817Y-125736262D01*
X105035941Y-125597190D01*
X105039925Y-125591360D01*
X105162821Y-125509243D01*
X105205690Y-125527000D01*
X105886250Y-125527000D01*
X106045000Y-125368250D01*
X106045000Y-124079000D01*
X106025000Y-124079000D01*
X106025000Y-123825000D01*
X106045000Y-123825000D01*
X106045000Y-123805000D01*
X106299000Y-123805000D01*
X106299000Y-123825000D01*
G36*
X101483423Y-100795817D02*
X102455980Y-101768375D01*
X103428537Y-100795817D01*
X103415670Y-100761000D01*
X106896330Y-100761000D01*
X106883463Y-100795817D01*
X107856020Y-101768375D01*
X108828577Y-100795817D01*
X108815710Y-100761000D01*
X113688290Y-100761000D01*
X113675423Y-100795817D01*
X114647980Y-101768375D01*
X115620537Y-100795817D01*
X115607670Y-100761000D01*
X119088330Y-100761000D01*
X119075463Y-100795817D01*
X120048020Y-101768375D01*
X121020577Y-100795817D01*
X121007710Y-100761000D01*
X128420290Y-100761000D01*
X128407423Y-100795817D01*
X129379980Y-101768375D01*
X130352537Y-100795817D01*
X130339670Y-100761000D01*
X133820330Y-100761000D01*
X133807463Y-100795817D01*
X134780020Y-101768375D01*
X135752577Y-100795817D01*
X135739710Y-100761000D01*
X140612290Y-100761000D01*
X140599423Y-100795817D01*
X141571980Y-101768375D01*
X142544537Y-100795817D01*
X142531670Y-100761000D01*
X146012330Y-100761000D01*
X145999463Y-100795817D01*
X146972020Y-101768375D01*
X147944577Y-100795817D01*
X147931710Y-100761000D01*
X149175000Y-100761000D01*
X149175000Y-111000634D01*
X149137994Y-110814593D01*
X148890223Y-110443777D01*
X147398699Y-108952253D01*
X147845978Y-108766985D01*
X147944577Y-108500183D01*
X146972020Y-107527625D01*
X146957878Y-107541768D01*
X146778272Y-107362162D01*
X146792415Y-107348020D01*
X147151625Y-107348020D01*
X148124183Y-108320577D01*
X148390985Y-108221978D01*
X148617421Y-107612438D01*
X148593361Y-106962643D01*
X148390985Y-106474062D01*
X148124183Y-106375463D01*
X147151625Y-107348020D01*
X146792415Y-107348020D01*
X145819857Y-106375463D01*
X145553055Y-106474062D01*
X145415000Y-106845690D01*
X145415000Y-106195857D01*
X145999463Y-106195857D01*
X146972020Y-107168415D01*
X147944577Y-106195857D01*
X147845978Y-105929055D01*
X147236438Y-105702619D01*
X146586643Y-105726679D01*
X146098062Y-105929055D01*
X145999463Y-106195857D01*
X145415000Y-106195857D01*
X145415000Y-105816498D01*
X145656846Y-105575073D01*
X145906206Y-104974547D01*
X145906774Y-104324306D01*
X145658462Y-103723345D01*
X145199073Y-103263154D01*
X144806499Y-103100143D01*
X145999463Y-103100143D01*
X146098062Y-103366945D01*
X146707602Y-103593381D01*
X147357397Y-103569321D01*
X147845978Y-103366945D01*
X147944577Y-103100143D01*
X146972020Y-102127585D01*
X145999463Y-103100143D01*
X144806499Y-103100143D01*
X144598547Y-103013794D01*
X143948306Y-103013226D01*
X143347345Y-103261538D01*
X142887154Y-103720927D01*
X142637794Y-104321453D01*
X142637226Y-104971694D01*
X142885538Y-105572655D01*
X143129000Y-105816542D01*
X143129000Y-106807358D01*
X142990945Y-106474062D01*
X142724143Y-106375463D01*
X141751585Y-107348020D01*
X142724143Y-108320577D01*
X142990945Y-108221978D01*
X143181900Y-107707948D01*
X143216006Y-107879407D01*
X143463777Y-108250223D01*
X143744554Y-108531000D01*
X143315000Y-108531000D01*
X142794651Y-108685028D01*
X142372855Y-109026460D01*
X142113827Y-109503316D01*
X142099682Y-109574815D01*
X142222344Y-109789000D01*
X143815000Y-109789000D01*
X143815000Y-109769000D01*
X144069000Y-109769000D01*
X144069000Y-109789000D01*
X144089000Y-109789000D01*
X144089000Y-110043000D01*
X144069000Y-110043000D01*
X144069000Y-111301000D01*
X144569000Y-111301000D01*
X145089349Y-111146972D01*
X145511145Y-110805540D01*
X145689941Y-110476387D01*
X146939000Y-111725446D01*
X146939000Y-117665610D01*
X146686164Y-117665390D01*
X146645090Y-117601559D01*
X146432890Y-117456569D01*
X146181000Y-117405560D01*
X144731000Y-117405560D01*
X144495683Y-117449838D01*
X144279559Y-117588910D01*
X144134569Y-117801110D01*
X144123453Y-117856000D01*
X143510000Y-117856000D01*
X143406059Y-117876675D01*
X143106286Y-117576378D01*
X142709668Y-117411687D01*
X142280216Y-117411313D01*
X142084818Y-117492050D01*
X142032890Y-117456569D01*
X141781000Y-117405560D01*
X140331000Y-117405560D01*
X140095683Y-117449838D01*
X139879559Y-117588910D01*
X139734569Y-117801110D01*
X139683560Y-118053000D01*
X139683560Y-118503000D01*
X139703067Y-118606671D01*
X139701342Y-118615192D01*
X139435890Y-118395569D01*
X139184000Y-118344560D01*
X138184000Y-118344560D01*
X137827463Y-118451574D01*
X137645297Y-118632865D01*
X137371883Y-119042986D01*
X137331400Y-119083470D01*
X137080000Y-119032560D01*
X135780000Y-119032560D01*
X135558025Y-119074328D01*
X135602440Y-118855000D01*
X135602440Y-117846175D01*
X135751317Y-117818162D01*
X135967441Y-117679090D01*
X136112431Y-117466890D01*
X136163440Y-117215000D01*
X136163440Y-116465000D01*
X136119162Y-116229683D01*
X135980090Y-116013559D01*
X135767890Y-115868569D01*
X135516000Y-115817560D01*
X134716000Y-115817560D01*
X134591095Y-115841063D01*
X134516602Y-115766440D01*
X135177000Y-115766440D01*
X135412317Y-115722162D01*
X135628441Y-115583090D01*
X135773431Y-115370890D01*
X135824440Y-115119000D01*
X135824440Y-114669000D01*
X135804933Y-114565329D01*
X135824440Y-114469000D01*
X135824440Y-114019000D01*
X135804933Y-113915329D01*
X135824440Y-113819000D01*
X135824440Y-113369000D01*
X137479560Y-113369000D01*
X137479560Y-113819000D01*
X137499067Y-113922671D01*
X137479560Y-114019000D01*
X137479560Y-114469000D01*
X137499067Y-114572671D01*
X137479560Y-114669000D01*
X137479560Y-115119000D01*
X137523838Y-115354317D01*
X137662910Y-115570441D01*
X137875110Y-115715431D01*
X138127000Y-115766440D01*
X139577000Y-115766440D01*
X139812317Y-115722162D01*
X139969560Y-115620979D01*
X139969560Y-116025000D01*
X140013838Y-116260317D01*
X140152910Y-116476441D01*
X140365110Y-116621431D01*
X140617000Y-116672440D01*
X142847000Y-116672440D01*
X143082317Y-116628162D01*
X143298441Y-116489090D01*
X143443431Y-116276890D01*
X143494440Y-116025000D01*
X143494440Y-114225000D01*
X143450162Y-113989683D01*
X143311090Y-113773559D01*
X143153027Y-113665559D01*
X143206699Y-113643327D01*
X143385327Y-113464698D01*
X143482000Y-113231309D01*
X143482000Y-112490750D01*
X143323250Y-112332000D01*
X141859000Y-112332000D01*
X141859000Y-112352000D01*
X141605000Y-112352000D01*
X141605000Y-112332000D01*
X140140750Y-112332000D01*
X140114388Y-112358362D01*
X139936698Y-112180673D01*
X139703309Y-112084000D01*
X139137750Y-112084000D01*
X138979000Y-112242750D01*
X138979000Y-112721560D01*
X138725000Y-112721560D01*
X138725000Y-112242750D01*
X138566250Y-112084000D01*
X138000691Y-112084000D01*
X137767302Y-112180673D01*
X137588673Y-112359301D01*
X137492000Y-112592690D01*
X137492000Y-112672750D01*
X137650750Y-112831500D01*
X137789641Y-112831500D01*
X137675559Y-112904910D01*
X137530569Y-113117110D01*
X137515442Y-113191808D01*
X137492000Y-113215250D01*
X137492000Y-113295310D01*
X137493667Y-113299335D01*
X137479560Y-113369000D01*
X135824440Y-113369000D01*
X135804933Y-113265329D01*
X135824440Y-113169000D01*
X135824440Y-112719000D01*
X135780162Y-112483683D01*
X135641090Y-112267559D01*
X135485360Y-112161153D01*
X135441329Y-111939794D01*
X135248618Y-111651382D01*
X135147440Y-111550204D01*
X135147440Y-111385000D01*
X135108621Y-111178691D01*
X139982000Y-111178691D01*
X139982000Y-111919250D01*
X140140750Y-112078000D01*
X141605000Y-112078000D01*
X141605000Y-110828750D01*
X141859000Y-110828750D01*
X141859000Y-112078000D01*
X143323250Y-112078000D01*
X143482000Y-111919250D01*
X143482000Y-111301000D01*
X143815000Y-111301000D01*
X143815000Y-110043000D01*
X142222344Y-110043000D01*
X142099682Y-110257185D01*
X142113827Y-110328684D01*
X142299230Y-110670000D01*
X142017750Y-110670000D01*
X141859000Y-110828750D01*
X141605000Y-110828750D01*
X141446250Y-110670000D01*
X140490690Y-110670000D01*
X140257301Y-110766673D01*
X140078673Y-110945302D01*
X139982000Y-111178691D01*
X135108621Y-111178691D01*
X135103162Y-111149683D01*
X134964090Y-110933559D01*
X134751890Y-110788569D01*
X134500000Y-110737560D01*
X133700000Y-110737560D01*
X133464683Y-110781838D01*
X133361354Y-110848329D01*
X133359698Y-110846673D01*
X133126309Y-110750000D01*
X132885750Y-110750000D01*
X132727000Y-110908750D01*
X132727000Y-111633000D01*
X132747000Y-111633000D01*
X132747000Y-111887000D01*
X132727000Y-111887000D01*
X132727000Y-111907000D01*
X132473000Y-111907000D01*
X132473000Y-111887000D01*
X131723750Y-111887000D01*
X131565000Y-112045750D01*
X131565000Y-112160572D01*
X131461440Y-112091376D01*
X131461440Y-111972000D01*
X131441933Y-111868329D01*
X131461440Y-111772000D01*
X131461440Y-111322000D01*
X131449528Y-111258690D01*
X131565000Y-111258690D01*
X131565000Y-111474250D01*
X131723750Y-111633000D01*
X132473000Y-111633000D01*
X132473000Y-110908750D01*
X132314250Y-110750000D01*
X132073691Y-110750000D01*
X131840302Y-110846673D01*
X131661673Y-111025301D01*
X131565000Y-111258690D01*
X131449528Y-111258690D01*
X131417162Y-111086683D01*
X131278090Y-110870559D01*
X131065890Y-110725569D01*
X130814000Y-110674560D01*
X129364000Y-110674560D01*
X129128683Y-110718838D01*
X128912559Y-110857910D01*
X128767569Y-111070110D01*
X128716560Y-111322000D01*
X128716560Y-111772000D01*
X128736067Y-111875671D01*
X128716560Y-111972000D01*
X128716560Y-112022056D01*
X128426225Y-112021803D01*
X128008914Y-112194233D01*
X127689355Y-112513235D01*
X127516197Y-112930244D01*
X127515803Y-113381775D01*
X127688233Y-113799086D01*
X127984689Y-114096060D01*
X127900354Y-114150329D01*
X127898698Y-114148673D01*
X127665309Y-114052000D01*
X127424750Y-114052000D01*
X127266000Y-114210750D01*
X127266000Y-114935000D01*
X127286000Y-114935000D01*
X127286000Y-115189000D01*
X127266000Y-115189000D01*
X127266000Y-115913250D01*
X127424750Y-116072000D01*
X127665309Y-116072000D01*
X127898698Y-115975327D01*
X127900068Y-115973957D01*
X127987110Y-116033431D01*
X128192693Y-116075063D01*
X128098369Y-116213110D01*
X128047360Y-116465000D01*
X128047360Y-117215000D01*
X128083730Y-117408291D01*
X128001135Y-117325297D01*
X127101135Y-116725297D01*
X126759887Y-116616807D01*
X126506683Y-116660838D01*
X126482305Y-116676525D01*
X126377732Y-116630948D01*
X126120745Y-116628016D01*
X125882865Y-116725297D01*
X125080321Y-117260326D01*
X125011890Y-117213569D01*
X124760000Y-117162560D01*
X124654006Y-117162560D01*
X123142223Y-115650777D01*
X122771407Y-115403006D01*
X122739796Y-115396718D01*
X122686890Y-115360569D01*
X122623588Y-115347750D01*
X126104000Y-115347750D01*
X126104000Y-115563310D01*
X126200673Y-115796699D01*
X126379302Y-115975327D01*
X126612691Y-116072000D01*
X126853250Y-116072000D01*
X127012000Y-115913250D01*
X127012000Y-115189000D01*
X126262750Y-115189000D01*
X126104000Y-115347750D01*
X122623588Y-115347750D01*
X122435000Y-115309560D01*
X121840103Y-115309560D01*
X121823815Y-115285184D01*
X121569815Y-115031185D01*
X121478245Y-114970000D01*
X121322605Y-114866004D01*
X121031000Y-114808000D01*
X120015000Y-114808000D01*
X119788440Y-114853066D01*
X119788440Y-114270000D01*
X119786629Y-114260376D01*
X119814691Y-114272000D01*
X120555250Y-114272000D01*
X120714000Y-114113250D01*
X120714000Y-112649000D01*
X119464750Y-112649000D01*
X119306000Y-112807750D01*
X119306000Y-113655973D01*
X119141000Y-113622560D01*
X119110006Y-113622560D01*
X118491000Y-113003554D01*
X118491000Y-111280690D01*
X119306000Y-111280690D01*
X119306000Y-112236250D01*
X119464750Y-112395000D01*
X120714000Y-112395000D01*
X120714000Y-112375000D01*
X120968000Y-112375000D01*
X120968000Y-112395000D01*
X120988000Y-112395000D01*
X120988000Y-112649000D01*
X120968000Y-112649000D01*
X120968000Y-114113250D01*
X121126750Y-114272000D01*
X121867309Y-114272000D01*
X122100698Y-114175327D01*
X122279327Y-113996699D01*
X122302256Y-113941344D01*
X122396910Y-114088441D01*
X122609110Y-114233431D01*
X122861000Y-114284440D01*
X124661000Y-114284440D01*
X124662042Y-114284244D01*
X124837691Y-114357000D01*
X125403250Y-114357000D01*
X125562000Y-114198250D01*
X125562000Y-113719440D01*
X125816000Y-113719440D01*
X125816000Y-114198250D01*
X125974750Y-114357000D01*
X126188371Y-114357000D01*
X126104000Y-114560690D01*
X126104000Y-114776250D01*
X126262750Y-114935000D01*
X127012000Y-114935000D01*
X127012000Y-114210750D01*
X126917638Y-114116388D01*
X126952327Y-114081699D01*
X127049000Y-113848310D01*
X127049000Y-113768250D01*
X126890250Y-113609500D01*
X126751359Y-113609500D01*
X126865441Y-113536090D01*
X127010431Y-113323890D01*
X127025558Y-113249192D01*
X127049000Y-113225750D01*
X127049000Y-113145690D01*
X127047333Y-113141665D01*
X127061440Y-113072000D01*
X127061440Y-112622000D01*
X127041933Y-112518329D01*
X127061440Y-112422000D01*
X127061440Y-111972000D01*
X127041933Y-111868329D01*
X127061440Y-111772000D01*
X127061440Y-111322000D01*
X127017162Y-111086683D01*
X126878090Y-110870559D01*
X126665890Y-110725569D01*
X126414000Y-110674560D01*
X124964000Y-110674560D01*
X124728683Y-110718838D01*
X124664346Y-110760238D01*
X124661000Y-110759560D01*
X123336121Y-110759560D01*
X123570173Y-110328684D01*
X123584318Y-110257185D01*
X123461656Y-110043000D01*
X121869000Y-110043000D01*
X121869000Y-110063000D01*
X121615000Y-110063000D01*
X121615000Y-110043000D01*
X120022344Y-110043000D01*
X119899682Y-110257185D01*
X119913827Y-110328684D01*
X120154636Y-110772000D01*
X119814691Y-110772000D01*
X119581302Y-110868673D01*
X119402673Y-111047301D01*
X119306000Y-111280690D01*
X118491000Y-111280690D01*
X118491000Y-108500183D01*
X119075463Y-108500183D01*
X119174062Y-108766985D01*
X119783602Y-108993421D01*
X120234286Y-108976734D01*
X120172855Y-109026460D01*
X119913827Y-109503316D01*
X119899682Y-109574815D01*
X120022344Y-109789000D01*
X121615000Y-109789000D01*
X121615000Y-108531000D01*
X121869000Y-108531000D01*
X121869000Y-109789000D01*
X123461656Y-109789000D01*
X123584318Y-109574815D01*
X123570173Y-109503316D01*
X123311145Y-109026460D01*
X122889349Y-108685028D01*
X122369000Y-108531000D01*
X121869000Y-108531000D01*
X121615000Y-108531000D01*
X121115000Y-108531000D01*
X120996192Y-108566168D01*
X121020577Y-108500183D01*
X128407423Y-108500183D01*
X128506022Y-108766985D01*
X129115562Y-108993421D01*
X129765357Y-108969361D01*
X130253938Y-108766985D01*
X130352537Y-108500183D01*
X133807463Y-108500183D01*
X133906062Y-108766985D01*
X134515602Y-108993421D01*
X135165397Y-108969361D01*
X135653978Y-108766985D01*
X135752577Y-108500183D01*
X140599423Y-108500183D01*
X140698022Y-108766985D01*
X141307562Y-108993421D01*
X141957357Y-108969361D01*
X142445938Y-108766985D01*
X142544537Y-108500183D01*
X141571980Y-107527625D01*
X140599423Y-108500183D01*
X135752577Y-108500183D01*
X134780020Y-107527625D01*
X133807463Y-108500183D01*
X130352537Y-108500183D01*
X129379980Y-107527625D01*
X128407423Y-108500183D01*
X121020577Y-108500183D01*
X120048020Y-107527625D01*
X119075463Y-108500183D01*
X118491000Y-108500183D01*
X118491000Y-107888682D01*
X118629055Y-108221978D01*
X118895857Y-108320577D01*
X119868415Y-107348020D01*
X120227625Y-107348020D01*
X121200183Y-108320577D01*
X121466985Y-108221978D01*
X121693421Y-107612438D01*
X121673840Y-107083602D01*
X127734579Y-107083602D01*
X127758639Y-107733397D01*
X127961015Y-108221978D01*
X128227817Y-108320577D01*
X129200375Y-107348020D01*
X129559585Y-107348020D01*
X130532143Y-108320577D01*
X130798945Y-108221978D01*
X131025381Y-107612438D01*
X131005800Y-107083602D01*
X133134619Y-107083602D01*
X133158679Y-107733397D01*
X133361055Y-108221978D01*
X133627857Y-108320577D01*
X134600415Y-107348020D01*
X134959625Y-107348020D01*
X135932183Y-108320577D01*
X136198985Y-108221978D01*
X136425421Y-107612438D01*
X136405840Y-107083602D01*
X139926579Y-107083602D01*
X139950639Y-107733397D01*
X140153015Y-108221978D01*
X140419817Y-108320577D01*
X141392375Y-107348020D01*
X140419817Y-106375463D01*
X140153015Y-106474062D01*
X139926579Y-107083602D01*
X136405840Y-107083602D01*
X136401361Y-106962643D01*
X136198985Y-106474062D01*
X135932183Y-106375463D01*
X134959625Y-107348020D01*
X134600415Y-107348020D01*
X133627857Y-106375463D01*
X133361055Y-106474062D01*
X133134619Y-107083602D01*
X131005800Y-107083602D01*
X131001321Y-106962643D01*
X130798945Y-106474062D01*
X130532143Y-106375463D01*
X129559585Y-107348020D01*
X129200375Y-107348020D01*
X128227817Y-106375463D01*
X127961015Y-106474062D01*
X127734579Y-107083602D01*
X121673840Y-107083602D01*
X121669361Y-106962643D01*
X121466985Y-106474062D01*
X121200183Y-106375463D01*
X120227625Y-107348020D01*
X119868415Y-107348020D01*
X118895857Y-106375463D01*
X118629055Y-106474062D01*
X118491000Y-106845690D01*
X118491000Y-106195857D01*
X119075463Y-106195857D01*
X120048020Y-107168415D01*
X121020577Y-106195857D01*
X128407423Y-106195857D01*
X129379980Y-107168415D01*
X130352537Y-106195857D01*
X130253938Y-105929055D01*
X129644398Y-105702619D01*
X128994603Y-105726679D01*
X128506022Y-105929055D01*
X128407423Y-106195857D01*
X121020577Y-106195857D01*
X120921978Y-105929055D01*
X120312438Y-105702619D01*
X119662643Y-105726679D01*
X119174062Y-105929055D01*
X119075463Y-106195857D01*
X118491000Y-106195857D01*
X118491000Y-105816498D01*
X118732846Y-105575073D01*
X118982206Y-104974547D01*
X118982208Y-104971694D01*
X130445226Y-104971694D01*
X130693538Y-105572655D01*
X131152927Y-106032846D01*
X131753453Y-106282206D01*
X132403694Y-106282774D01*
X132614049Y-106195857D01*
X133807463Y-106195857D01*
X134780020Y-107168415D01*
X135752577Y-106195857D01*
X140599423Y-106195857D01*
X141571980Y-107168415D01*
X142544537Y-106195857D01*
X142445938Y-105929055D01*
X141836398Y-105702619D01*
X141186603Y-105726679D01*
X140698022Y-105929055D01*
X140599423Y-106195857D01*
X135752577Y-106195857D01*
X135653978Y-105929055D01*
X135044438Y-105702619D01*
X134394643Y-105726679D01*
X133906062Y-105929055D01*
X133807463Y-106195857D01*
X132614049Y-106195857D01*
X133004655Y-106034462D01*
X133464846Y-105575073D01*
X133714206Y-104974547D01*
X133714774Y-104324306D01*
X133466462Y-103723345D01*
X133007073Y-103263154D01*
X132614499Y-103100143D01*
X133807463Y-103100143D01*
X133906062Y-103366945D01*
X134515602Y-103593381D01*
X135165397Y-103569321D01*
X135653978Y-103366945D01*
X135752577Y-103100143D01*
X140599423Y-103100143D01*
X140698022Y-103366945D01*
X141307562Y-103593381D01*
X141957357Y-103569321D01*
X142445938Y-103366945D01*
X142544537Y-103100143D01*
X141571980Y-102127585D01*
X140599423Y-103100143D01*
X135752577Y-103100143D01*
X134780020Y-102127585D01*
X133807463Y-103100143D01*
X132614499Y-103100143D01*
X132406547Y-103013794D01*
X131756306Y-103013226D01*
X131155345Y-103261538D01*
X130695154Y-103720927D01*
X130445794Y-104321453D01*
X130445226Y-104971694D01*
X118982208Y-104971694D01*
X118982774Y-104324306D01*
X118734462Y-103723345D01*
X118275073Y-103263154D01*
X117882499Y-103100143D01*
X119075463Y-103100143D01*
X119174062Y-103366945D01*
X119783602Y-103593381D01*
X120433397Y-103569321D01*
X120921978Y-103366945D01*
X121020577Y-103100143D01*
X128407423Y-103100143D01*
X128506022Y-103366945D01*
X129115562Y-103593381D01*
X129765357Y-103569321D01*
X130253938Y-103366945D01*
X130352537Y-103100143D01*
X129379980Y-102127585D01*
X128407423Y-103100143D01*
X121020577Y-103100143D01*
X120048020Y-102127585D01*
X119075463Y-103100143D01*
X117882499Y-103100143D01*
X117674547Y-103013794D01*
X117024306Y-103013226D01*
X116423345Y-103261538D01*
X115963154Y-103720927D01*
X115713794Y-104321453D01*
X115713226Y-104971694D01*
X115961538Y-105572655D01*
X116205000Y-105816542D01*
X116205000Y-106807358D01*
X116066945Y-106474062D01*
X115800143Y-106375463D01*
X114827585Y-107348020D01*
X115800143Y-108320577D01*
X116066945Y-108221978D01*
X116205000Y-107850350D01*
X116205000Y-113477000D01*
X116292006Y-113914407D01*
X116539777Y-114285223D01*
X117193560Y-114939006D01*
X117193560Y-114970000D01*
X117237838Y-115205317D01*
X117376910Y-115421441D01*
X117589110Y-115566431D01*
X117602197Y-115569081D01*
X117389559Y-115705910D01*
X117302717Y-115833007D01*
X116910593Y-115911006D01*
X116539777Y-116158777D01*
X116031777Y-116666777D01*
X115784006Y-117037593D01*
X115697000Y-117475000D01*
X115697000Y-118618000D01*
X115784006Y-119055407D01*
X116031777Y-119426223D01*
X116793777Y-120188223D01*
X117162560Y-120434636D01*
X117162560Y-120950000D01*
X117206838Y-121185317D01*
X117270678Y-121284528D01*
X117213569Y-121368110D01*
X117162560Y-121620000D01*
X117162560Y-121896114D01*
X115570000Y-120303554D01*
X115570000Y-110363000D01*
X115482994Y-109925593D01*
X115235223Y-109554777D01*
X114663502Y-108983056D01*
X115033357Y-108969361D01*
X115521938Y-108766985D01*
X115620537Y-108500183D01*
X114647980Y-107527625D01*
X114633838Y-107541768D01*
X114454232Y-107362162D01*
X114468375Y-107348020D01*
X113495817Y-106375463D01*
X113229015Y-106474062D01*
X113002579Y-107083602D01*
X113011751Y-107331305D01*
X111876303Y-106195857D01*
X113675423Y-106195857D01*
X114647980Y-107168415D01*
X115620537Y-106195857D01*
X115521938Y-105929055D01*
X114912398Y-105702619D01*
X114262603Y-105726679D01*
X113774022Y-105929055D01*
X113675423Y-106195857D01*
X111876303Y-106195857D01*
X109520223Y-103839777D01*
X109149407Y-103592006D01*
X108712000Y-103505000D01*
X108396682Y-103505000D01*
X108729978Y-103366945D01*
X108828577Y-103100143D01*
X113675423Y-103100143D01*
X113774022Y-103366945D01*
X114383562Y-103593381D01*
X115033357Y-103569321D01*
X115521938Y-103366945D01*
X115620537Y-103100143D01*
X114647980Y-102127585D01*
X113675423Y-103100143D01*
X108828577Y-103100143D01*
X107856020Y-102127585D01*
X106883463Y-103100143D01*
X106982062Y-103366945D01*
X107353690Y-103505000D01*
X106324498Y-103505000D01*
X106083073Y-103263154D01*
X105482547Y-103013794D01*
X104832306Y-103013226D01*
X104231345Y-103261538D01*
X103771154Y-103720927D01*
X103521794Y-104321453D01*
X103521226Y-104971694D01*
X103769538Y-105572655D01*
X104228927Y-106032846D01*
X104829453Y-106282206D01*
X105479694Y-106282774D01*
X106080655Y-106034462D01*
X106324542Y-105791000D01*
X107315358Y-105791000D01*
X106982062Y-105929055D01*
X106883463Y-106195857D01*
X107856020Y-107168415D01*
X107870162Y-107154272D01*
X108049768Y-107333878D01*
X108035625Y-107348020D01*
X109008183Y-108320577D01*
X109274985Y-108221978D01*
X109501421Y-107612438D01*
X109479944Y-107032390D01*
X113284000Y-110836446D01*
X113284000Y-120777000D01*
X113371006Y-121214407D01*
X113618777Y-121585223D01*
X116097777Y-124064223D01*
X116468593Y-124311994D01*
X116906000Y-124399000D01*
X117350551Y-124399000D01*
X117343214Y-124409738D01*
X117291593Y-124420006D01*
X116920777Y-124667777D01*
X116603277Y-124985277D01*
X116355506Y-125356093D01*
X116300822Y-125631007D01*
X116031777Y-125810777D01*
X115784006Y-126181593D01*
X115697000Y-126619000D01*
X115784006Y-127056407D01*
X116031777Y-127427223D01*
X116493554Y-127889000D01*
X116078000Y-127889000D01*
X115640593Y-127976006D01*
X115269777Y-128223777D01*
X114146554Y-129347000D01*
X112646449Y-129347000D01*
X112752431Y-129191890D01*
X112803440Y-128940000D01*
X112803440Y-128240000D01*
X112759162Y-128004683D01*
X112620090Y-127788559D01*
X112407890Y-127643569D01*
X112238820Y-127609332D01*
X112134618Y-127453382D01*
X111167440Y-126486204D01*
X111167440Y-126096000D01*
X111130455Y-125899440D01*
X112156000Y-125899440D01*
X112391317Y-125855162D01*
X112607441Y-125716090D01*
X112752431Y-125503890D01*
X112803440Y-125252000D01*
X112803440Y-124552000D01*
X112759162Y-124316683D01*
X112620090Y-124100559D01*
X112407890Y-123955569D01*
X112394803Y-123952919D01*
X112607441Y-123816090D01*
X112752431Y-123603890D01*
X112803440Y-123352000D01*
X112803440Y-122652000D01*
X112759162Y-122416683D01*
X112620090Y-122200559D01*
X112407890Y-122055569D01*
X112238820Y-122021332D01*
X112134618Y-121865382D01*
X111167440Y-120898204D01*
X111167440Y-120508000D01*
X111130455Y-120311440D01*
X112156000Y-120311440D01*
X112391317Y-120267162D01*
X112607441Y-120128090D01*
X112752431Y-119915890D01*
X112803440Y-119664000D01*
X112803440Y-118964000D01*
X112759162Y-118728683D01*
X112620090Y-118512559D01*
X112407890Y-118367569D01*
X112394803Y-118364919D01*
X112607441Y-118228090D01*
X112752431Y-118015890D01*
X112803440Y-117764000D01*
X112803440Y-117064000D01*
X112759162Y-116828683D01*
X112620090Y-116612559D01*
X112407890Y-116467569D01*
X112238820Y-116433332D01*
X112134618Y-116277382D01*
X111167440Y-115310204D01*
X111167440Y-114920000D01*
X111130455Y-114723440D01*
X112156000Y-114723440D01*
X112391317Y-114679162D01*
X112607441Y-114540090D01*
X112752431Y-114327890D01*
X112803440Y-114076000D01*
X112803440Y-113376000D01*
X112759162Y-113140683D01*
X112620090Y-112924559D01*
X112407890Y-112779569D01*
X112394803Y-112776919D01*
X112607441Y-112640090D01*
X112752431Y-112427890D01*
X112803440Y-112176000D01*
X112803440Y-111476000D01*
X112759162Y-111240683D01*
X112620090Y-111024559D01*
X112407890Y-110879569D01*
X112238820Y-110845332D01*
X112134618Y-110689382D01*
X111167440Y-109722204D01*
X111167440Y-109332000D01*
X111123162Y-109096683D01*
X110984090Y-108880559D01*
X110771890Y-108735569D01*
X110520000Y-108684560D01*
X109820000Y-108684560D01*
X109584683Y-108728838D01*
X109368559Y-108867910D01*
X109223569Y-109080110D01*
X109216809Y-109113490D01*
X109158327Y-108972301D01*
X108979698Y-108793673D01*
X108754576Y-108700424D01*
X108828577Y-108500183D01*
X107856020Y-107527625D01*
X106883463Y-108500183D01*
X106982062Y-108766985D01*
X107423136Y-108930838D01*
X107381673Y-108972301D01*
X107285000Y-109205690D01*
X107285000Y-109696250D01*
X107443750Y-109855000D01*
X108143000Y-109855000D01*
X108143000Y-109835000D01*
X108397000Y-109835000D01*
X108397000Y-109855000D01*
X108417000Y-109855000D01*
X108417000Y-110109000D01*
X108397000Y-110109000D01*
X108397000Y-111108250D01*
X108471500Y-111182750D01*
X108471500Y-111595160D01*
X108217500Y-111595160D01*
X108217500Y-111118650D01*
X108143000Y-111044150D01*
X108143000Y-110109000D01*
X107443750Y-110109000D01*
X107285000Y-110267750D01*
X107285000Y-110758310D01*
X107381673Y-110991699D01*
X107432856Y-111042881D01*
X107399801Y-111056573D01*
X107221173Y-111235202D01*
X107221130Y-111235305D01*
X107138310Y-111201000D01*
X106490406Y-111201000D01*
X106653441Y-111096090D01*
X106798431Y-110883890D01*
X106849440Y-110632000D01*
X106849440Y-109332000D01*
X106805162Y-109096683D01*
X106666090Y-108880559D01*
X106453890Y-108735569D01*
X106202000Y-108684560D01*
X105502000Y-108684560D01*
X105266683Y-108728838D01*
X105050559Y-108867910D01*
X104905569Y-109080110D01*
X104902919Y-109093197D01*
X104766090Y-108880559D01*
X104553890Y-108735569D01*
X104302000Y-108684560D01*
X103602000Y-108684560D01*
X103366683Y-108728838D01*
X103336970Y-108747958D01*
X103428537Y-108500183D01*
X102455980Y-107527625D01*
X101483423Y-108500183D01*
X101582022Y-108766985D01*
X102191562Y-108993421D01*
X102841357Y-108969361D01*
X103266684Y-108793185D01*
X103150559Y-108867910D01*
X103005569Y-109080110D01*
X102954560Y-109332000D01*
X102954560Y-109975000D01*
X102901750Y-109975000D01*
X102743000Y-110133750D01*
X102743000Y-110883000D01*
X102763000Y-110883000D01*
X102763000Y-111137000D01*
X102743000Y-111137000D01*
X102743000Y-111157000D01*
X102489000Y-111157000D01*
X102489000Y-111137000D01*
X101764750Y-111137000D01*
X101606000Y-111295750D01*
X101606000Y-111536309D01*
X101702673Y-111769698D01*
X101704043Y-111771068D01*
X101644569Y-111858110D01*
X101593560Y-112110000D01*
X101593560Y-112910000D01*
X101637838Y-113145317D01*
X101740577Y-113304977D01*
X100761000Y-114284554D01*
X100761000Y-110483691D01*
X101606000Y-110483691D01*
X101606000Y-110724250D01*
X101764750Y-110883000D01*
X102489000Y-110883000D01*
X102489000Y-110133750D01*
X102330250Y-109975000D01*
X102114690Y-109975000D01*
X101881301Y-110071673D01*
X101702673Y-110250302D01*
X101606000Y-110483691D01*
X100761000Y-110483691D01*
X100761000Y-107083602D01*
X100810579Y-107083602D01*
X100834639Y-107733397D01*
X101037015Y-108221978D01*
X101303817Y-108320577D01*
X102276375Y-107348020D01*
X102635585Y-107348020D01*
X103608143Y-108320577D01*
X103874945Y-108221978D01*
X104101381Y-107612438D01*
X104081800Y-107083602D01*
X106210619Y-107083602D01*
X106234679Y-107733397D01*
X106437055Y-108221978D01*
X106703857Y-108320577D01*
X107676415Y-107348020D01*
X106703857Y-106375463D01*
X106437055Y-106474062D01*
X106210619Y-107083602D01*
X104081800Y-107083602D01*
X104077321Y-106962643D01*
X103874945Y-106474062D01*
X103608143Y-106375463D01*
X102635585Y-107348020D01*
X102276375Y-107348020D01*
X101303817Y-106375463D01*
X101037015Y-106474062D01*
X100810579Y-107083602D01*
X100761000Y-107083602D01*
X100761000Y-106195857D01*
X101483423Y-106195857D01*
X102455980Y-107168415D01*
X103428537Y-106195857D01*
X103329938Y-105929055D01*
X102720398Y-105702619D01*
X102070603Y-105726679D01*
X101582022Y-105929055D01*
X101483423Y-106195857D01*
X100761000Y-106195857D01*
X100761000Y-103100143D01*
X101483423Y-103100143D01*
X101582022Y-103366945D01*
X102191562Y-103593381D01*
X102841357Y-103569321D01*
X103329938Y-103366945D01*
X103428537Y-103100143D01*
X102455980Y-102127585D01*
X101483423Y-103100143D01*
X100761000Y-103100143D01*
X100761000Y-101683562D01*
X100810579Y-101683562D01*
X100834639Y-102333357D01*
X101037015Y-102821938D01*
X101303817Y-102920537D01*
X102276375Y-101947980D01*
X102635585Y-101947980D01*
X103608143Y-102920537D01*
X103874945Y-102821938D01*
X104101381Y-102212398D01*
X104081800Y-101683562D01*
X106210619Y-101683562D01*
X106234679Y-102333357D01*
X106437055Y-102821938D01*
X106703857Y-102920537D01*
X107676415Y-101947980D01*
X108035625Y-101947980D01*
X109008183Y-102920537D01*
X109274985Y-102821938D01*
X109501421Y-102212398D01*
X109481840Y-101683562D01*
X113002579Y-101683562D01*
X113026639Y-102333357D01*
X113229015Y-102821938D01*
X113495817Y-102920537D01*
X114468375Y-101947980D01*
X114827585Y-101947980D01*
X115800143Y-102920537D01*
X116066945Y-102821938D01*
X116293381Y-102212398D01*
X116273800Y-101683562D01*
X118402619Y-101683562D01*
X118426679Y-102333357D01*
X118629055Y-102821938D01*
X118895857Y-102920537D01*
X119868415Y-101947980D01*
X120227625Y-101947980D01*
X121200183Y-102920537D01*
X121466985Y-102821938D01*
X121693421Y-102212398D01*
X121673840Y-101683562D01*
X127734579Y-101683562D01*
X127758639Y-102333357D01*
X127961015Y-102821938D01*
X128227817Y-102920537D01*
X129200375Y-101947980D01*
X129559585Y-101947980D01*
X130532143Y-102920537D01*
X130798945Y-102821938D01*
X131025381Y-102212398D01*
X131005800Y-101683562D01*
X133134619Y-101683562D01*
X133158679Y-102333357D01*
X133361055Y-102821938D01*
X133627857Y-102920537D01*
X134600415Y-101947980D01*
X134959625Y-101947980D01*
X135932183Y-102920537D01*
X136198985Y-102821938D01*
X136425421Y-102212398D01*
X136405840Y-101683562D01*
X139926579Y-101683562D01*
X139950639Y-102333357D01*
X140153015Y-102821938D01*
X140419817Y-102920537D01*
X141392375Y-101947980D01*
X141751585Y-101947980D01*
X142724143Y-102920537D01*
X142990945Y-102821938D01*
X143217381Y-102212398D01*
X143197800Y-101683562D01*
X145326619Y-101683562D01*
X145350679Y-102333357D01*
X145553055Y-102821938D01*
X145819857Y-102920537D01*
X146792415Y-101947980D01*
X147151625Y-101947980D01*
X148124183Y-102920537D01*
X148390985Y-102821938D01*
X148617421Y-102212398D01*
X148593361Y-101562603D01*
X148390985Y-101074022D01*
X148124183Y-100975423D01*
X147151625Y-101947980D01*
X146792415Y-101947980D01*
X145819857Y-100975423D01*
X145553055Y-101074022D01*
X145326619Y-101683562D01*
X143197800Y-101683562D01*
X143193321Y-101562603D01*
X142990945Y-101074022D01*
X142724143Y-100975423D01*
X141751585Y-101947980D01*
X141392375Y-101947980D01*
X140419817Y-100975423D01*
X140153015Y-101074022D01*
X139926579Y-101683562D01*
X136405840Y-101683562D01*
X136401361Y-101562603D01*
X136198985Y-101074022D01*
X135932183Y-100975423D01*
X134959625Y-101947980D01*
X134600415Y-101947980D01*
X133627857Y-100975423D01*
X133361055Y-101074022D01*
X133134619Y-101683562D01*
X131005800Y-101683562D01*
X131001321Y-101562603D01*
X130798945Y-101074022D01*
X130532143Y-100975423D01*
X129559585Y-101947980D01*
X129200375Y-101947980D01*
X128227817Y-100975423D01*
X127961015Y-101074022D01*
X127734579Y-101683562D01*
X121673840Y-101683562D01*
X121669361Y-101562603D01*
X121466985Y-101074022D01*
X121200183Y-100975423D01*
X120227625Y-101947980D01*
X119868415Y-101947980D01*
X118895857Y-100975423D01*
X118629055Y-101074022D01*
X118402619Y-101683562D01*
X116273800Y-101683562D01*
X116269321Y-101562603D01*
X116066945Y-101074022D01*
X115800143Y-100975423D01*
X114827585Y-101947980D01*
X114468375Y-101947980D01*
X113495817Y-100975423D01*
X113229015Y-101074022D01*
X113002579Y-101683562D01*
X109481840Y-101683562D01*
X109477361Y-101562603D01*
X109274985Y-101074022D01*
X109008183Y-100975423D01*
X108035625Y-101947980D01*
X107676415Y-101947980D01*
X106703857Y-100975423D01*
X106437055Y-101074022D01*
X106210619Y-101683562D01*
X104081800Y-101683562D01*
X104077321Y-101562603D01*
X103874945Y-101074022D01*
X103608143Y-100975423D01*
X102635585Y-101947980D01*
X102276375Y-101947980D01*
X101303817Y-100975423D01*
X101037015Y-101074022D01*
X100810579Y-101683562D01*
X100761000Y-101683562D01*
X100761000Y-100761000D01*
X101496290Y-100761000D01*
X101483423Y-100795817D01*
X101483423Y-100795817D01*
G37*
X101483423Y-100795817D02*
X102455980Y-101768375D01*
X103428537Y-100795817D01*
X103415670Y-100761000D01*
X106896330Y-100761000D01*
X106883463Y-100795817D01*
X107856020Y-101768375D01*
X108828577Y-100795817D01*
X108815710Y-100761000D01*
X113688290Y-100761000D01*
X113675423Y-100795817D01*
X114647980Y-101768375D01*
X115620537Y-100795817D01*
X115607670Y-100761000D01*
X119088330Y-100761000D01*
X119075463Y-100795817D01*
X120048020Y-101768375D01*
X121020577Y-100795817D01*
X121007710Y-100761000D01*
X128420290Y-100761000D01*
X128407423Y-100795817D01*
X129379980Y-101768375D01*
X130352537Y-100795817D01*
X130339670Y-100761000D01*
X133820330Y-100761000D01*
X133807463Y-100795817D01*
X134780020Y-101768375D01*
X135752577Y-100795817D01*
X135739710Y-100761000D01*
X140612290Y-100761000D01*
X140599423Y-100795817D01*
X141571980Y-101768375D01*
X142544537Y-100795817D01*
X142531670Y-100761000D01*
X146012330Y-100761000D01*
X145999463Y-100795817D01*
X146972020Y-101768375D01*
X147944577Y-100795817D01*
X147931710Y-100761000D01*
X149175000Y-100761000D01*
X149175000Y-111000634D01*
X149137994Y-110814593D01*
X148890223Y-110443777D01*
X147398699Y-108952253D01*
X147845978Y-108766985D01*
X147944577Y-108500183D01*
X146972020Y-107527625D01*
X146957878Y-107541768D01*
X146778272Y-107362162D01*
X146792415Y-107348020D01*
X147151625Y-107348020D01*
X148124183Y-108320577D01*
X148390985Y-108221978D01*
X148617421Y-107612438D01*
X148593361Y-106962643D01*
X148390985Y-106474062D01*
X148124183Y-106375463D01*
X147151625Y-107348020D01*
X146792415Y-107348020D01*
X145819857Y-106375463D01*
X145553055Y-106474062D01*
X145415000Y-106845690D01*
X145415000Y-106195857D01*
X145999463Y-106195857D01*
X146972020Y-107168415D01*
X147944577Y-106195857D01*
X147845978Y-105929055D01*
X147236438Y-105702619D01*
X146586643Y-105726679D01*
X146098062Y-105929055D01*
X145999463Y-106195857D01*
X145415000Y-106195857D01*
X145415000Y-105816498D01*
X145656846Y-105575073D01*
X145906206Y-104974547D01*
X145906774Y-104324306D01*
X145658462Y-103723345D01*
X145199073Y-103263154D01*
X144806499Y-103100143D01*
X145999463Y-103100143D01*
X146098062Y-103366945D01*
X146707602Y-103593381D01*
X147357397Y-103569321D01*
X147845978Y-103366945D01*
X147944577Y-103100143D01*
X146972020Y-102127585D01*
X145999463Y-103100143D01*
X144806499Y-103100143D01*
X144598547Y-103013794D01*
X143948306Y-103013226D01*
X143347345Y-103261538D01*
X142887154Y-103720927D01*
X142637794Y-104321453D01*
X142637226Y-104971694D01*
X142885538Y-105572655D01*
X143129000Y-105816542D01*
X143129000Y-106807358D01*
X142990945Y-106474062D01*
X142724143Y-106375463D01*
X141751585Y-107348020D01*
X142724143Y-108320577D01*
X142990945Y-108221978D01*
X143181900Y-107707948D01*
X143216006Y-107879407D01*
X143463777Y-108250223D01*
X143744554Y-108531000D01*
X143315000Y-108531000D01*
X142794651Y-108685028D01*
X142372855Y-109026460D01*
X142113827Y-109503316D01*
X142099682Y-109574815D01*
X142222344Y-109789000D01*
X143815000Y-109789000D01*
X143815000Y-109769000D01*
X144069000Y-109769000D01*
X144069000Y-109789000D01*
X144089000Y-109789000D01*
X144089000Y-110043000D01*
X144069000Y-110043000D01*
X144069000Y-111301000D01*
X144569000Y-111301000D01*
X145089349Y-111146972D01*
X145511145Y-110805540D01*
X145689941Y-110476387D01*
X146939000Y-111725446D01*
X146939000Y-117665610D01*
X146686164Y-117665390D01*
X146645090Y-117601559D01*
X146432890Y-117456569D01*
X146181000Y-117405560D01*
X144731000Y-117405560D01*
X144495683Y-117449838D01*
X144279559Y-117588910D01*
X144134569Y-117801110D01*
X144123453Y-117856000D01*
X143510000Y-117856000D01*
X143406059Y-117876675D01*
X143106286Y-117576378D01*
X142709668Y-117411687D01*
X142280216Y-117411313D01*
X142084818Y-117492050D01*
X142032890Y-117456569D01*
X141781000Y-117405560D01*
X140331000Y-117405560D01*
X140095683Y-117449838D01*
X139879559Y-117588910D01*
X139734569Y-117801110D01*
X139683560Y-118053000D01*
X139683560Y-118503000D01*
X139703067Y-118606671D01*
X139701342Y-118615192D01*
X139435890Y-118395569D01*
X139184000Y-118344560D01*
X138184000Y-118344560D01*
X137827463Y-118451574D01*
X137645297Y-118632865D01*
X137371883Y-119042986D01*
X137331400Y-119083470D01*
X137080000Y-119032560D01*
X135780000Y-119032560D01*
X135558025Y-119074328D01*
X135602440Y-118855000D01*
X135602440Y-117846175D01*
X135751317Y-117818162D01*
X135967441Y-117679090D01*
X136112431Y-117466890D01*
X136163440Y-117215000D01*
X136163440Y-116465000D01*
X136119162Y-116229683D01*
X135980090Y-116013559D01*
X135767890Y-115868569D01*
X135516000Y-115817560D01*
X134716000Y-115817560D01*
X134591095Y-115841063D01*
X134516602Y-115766440D01*
X135177000Y-115766440D01*
X135412317Y-115722162D01*
X135628441Y-115583090D01*
X135773431Y-115370890D01*
X135824440Y-115119000D01*
X135824440Y-114669000D01*
X135804933Y-114565329D01*
X135824440Y-114469000D01*
X135824440Y-114019000D01*
X135804933Y-113915329D01*
X135824440Y-113819000D01*
X135824440Y-113369000D01*
X137479560Y-113369000D01*
X137479560Y-113819000D01*
X137499067Y-113922671D01*
X137479560Y-114019000D01*
X137479560Y-114469000D01*
X137499067Y-114572671D01*
X137479560Y-114669000D01*
X137479560Y-115119000D01*
X137523838Y-115354317D01*
X137662910Y-115570441D01*
X137875110Y-115715431D01*
X138127000Y-115766440D01*
X139577000Y-115766440D01*
X139812317Y-115722162D01*
X139969560Y-115620979D01*
X139969560Y-116025000D01*
X140013838Y-116260317D01*
X140152910Y-116476441D01*
X140365110Y-116621431D01*
X140617000Y-116672440D01*
X142847000Y-116672440D01*
X143082317Y-116628162D01*
X143298441Y-116489090D01*
X143443431Y-116276890D01*
X143494440Y-116025000D01*
X143494440Y-114225000D01*
X143450162Y-113989683D01*
X143311090Y-113773559D01*
X143153027Y-113665559D01*
X143206699Y-113643327D01*
X143385327Y-113464698D01*
X143482000Y-113231309D01*
X143482000Y-112490750D01*
X143323250Y-112332000D01*
X141859000Y-112332000D01*
X141859000Y-112352000D01*
X141605000Y-112352000D01*
X141605000Y-112332000D01*
X140140750Y-112332000D01*
X140114388Y-112358362D01*
X139936698Y-112180673D01*
X139703309Y-112084000D01*
X139137750Y-112084000D01*
X138979000Y-112242750D01*
X138979000Y-112721560D01*
X138725000Y-112721560D01*
X138725000Y-112242750D01*
X138566250Y-112084000D01*
X138000691Y-112084000D01*
X137767302Y-112180673D01*
X137588673Y-112359301D01*
X137492000Y-112592690D01*
X137492000Y-112672750D01*
X137650750Y-112831500D01*
X137789641Y-112831500D01*
X137675559Y-112904910D01*
X137530569Y-113117110D01*
X137515442Y-113191808D01*
X137492000Y-113215250D01*
X137492000Y-113295310D01*
X137493667Y-113299335D01*
X137479560Y-113369000D01*
X135824440Y-113369000D01*
X135804933Y-113265329D01*
X135824440Y-113169000D01*
X135824440Y-112719000D01*
X135780162Y-112483683D01*
X135641090Y-112267559D01*
X135485360Y-112161153D01*
X135441329Y-111939794D01*
X135248618Y-111651382D01*
X135147440Y-111550204D01*
X135147440Y-111385000D01*
X135108621Y-111178691D01*
X139982000Y-111178691D01*
X139982000Y-111919250D01*
X140140750Y-112078000D01*
X141605000Y-112078000D01*
X141605000Y-110828750D01*
X141859000Y-110828750D01*
X141859000Y-112078000D01*
X143323250Y-112078000D01*
X143482000Y-111919250D01*
X143482000Y-111301000D01*
X143815000Y-111301000D01*
X143815000Y-110043000D01*
X142222344Y-110043000D01*
X142099682Y-110257185D01*
X142113827Y-110328684D01*
X142299230Y-110670000D01*
X142017750Y-110670000D01*
X141859000Y-110828750D01*
X141605000Y-110828750D01*
X141446250Y-110670000D01*
X140490690Y-110670000D01*
X140257301Y-110766673D01*
X140078673Y-110945302D01*
X139982000Y-111178691D01*
X135108621Y-111178691D01*
X135103162Y-111149683D01*
X134964090Y-110933559D01*
X134751890Y-110788569D01*
X134500000Y-110737560D01*
X133700000Y-110737560D01*
X133464683Y-110781838D01*
X133361354Y-110848329D01*
X133359698Y-110846673D01*
X133126309Y-110750000D01*
X132885750Y-110750000D01*
X132727000Y-110908750D01*
X132727000Y-111633000D01*
X132747000Y-111633000D01*
X132747000Y-111887000D01*
X132727000Y-111887000D01*
X132727000Y-111907000D01*
X132473000Y-111907000D01*
X132473000Y-111887000D01*
X131723750Y-111887000D01*
X131565000Y-112045750D01*
X131565000Y-112160572D01*
X131461440Y-112091376D01*
X131461440Y-111972000D01*
X131441933Y-111868329D01*
X131461440Y-111772000D01*
X131461440Y-111322000D01*
X131449528Y-111258690D01*
X131565000Y-111258690D01*
X131565000Y-111474250D01*
X131723750Y-111633000D01*
X132473000Y-111633000D01*
X132473000Y-110908750D01*
X132314250Y-110750000D01*
X132073691Y-110750000D01*
X131840302Y-110846673D01*
X131661673Y-111025301D01*
X131565000Y-111258690D01*
X131449528Y-111258690D01*
X131417162Y-111086683D01*
X131278090Y-110870559D01*
X131065890Y-110725569D01*
X130814000Y-110674560D01*
X129364000Y-110674560D01*
X129128683Y-110718838D01*
X128912559Y-110857910D01*
X128767569Y-111070110D01*
X128716560Y-111322000D01*
X128716560Y-111772000D01*
X128736067Y-111875671D01*
X128716560Y-111972000D01*
X128716560Y-112022056D01*
X128426225Y-112021803D01*
X128008914Y-112194233D01*
X127689355Y-112513235D01*
X127516197Y-112930244D01*
X127515803Y-113381775D01*
X127688233Y-113799086D01*
X127984689Y-114096060D01*
X127900354Y-114150329D01*
X127898698Y-114148673D01*
X127665309Y-114052000D01*
X127424750Y-114052000D01*
X127266000Y-114210750D01*
X127266000Y-114935000D01*
X127286000Y-114935000D01*
X127286000Y-115189000D01*
X127266000Y-115189000D01*
X127266000Y-115913250D01*
X127424750Y-116072000D01*
X127665309Y-116072000D01*
X127898698Y-115975327D01*
X127900068Y-115973957D01*
X127987110Y-116033431D01*
X128192693Y-116075063D01*
X128098369Y-116213110D01*
X128047360Y-116465000D01*
X128047360Y-117215000D01*
X128083730Y-117408291D01*
X128001135Y-117325297D01*
X127101135Y-116725297D01*
X126759887Y-116616807D01*
X126506683Y-116660838D01*
X126482305Y-116676525D01*
X126377732Y-116630948D01*
X126120745Y-116628016D01*
X125882865Y-116725297D01*
X125080321Y-117260326D01*
X125011890Y-117213569D01*
X124760000Y-117162560D01*
X124654006Y-117162560D01*
X123142223Y-115650777D01*
X122771407Y-115403006D01*
X122739796Y-115396718D01*
X122686890Y-115360569D01*
X122623588Y-115347750D01*
X126104000Y-115347750D01*
X126104000Y-115563310D01*
X126200673Y-115796699D01*
X126379302Y-115975327D01*
X126612691Y-116072000D01*
X126853250Y-116072000D01*
X127012000Y-115913250D01*
X127012000Y-115189000D01*
X126262750Y-115189000D01*
X126104000Y-115347750D01*
X122623588Y-115347750D01*
X122435000Y-115309560D01*
X121840103Y-115309560D01*
X121823815Y-115285184D01*
X121569815Y-115031185D01*
X121478245Y-114970000D01*
X121322605Y-114866004D01*
X121031000Y-114808000D01*
X120015000Y-114808000D01*
X119788440Y-114853066D01*
X119788440Y-114270000D01*
X119786629Y-114260376D01*
X119814691Y-114272000D01*
X120555250Y-114272000D01*
X120714000Y-114113250D01*
X120714000Y-112649000D01*
X119464750Y-112649000D01*
X119306000Y-112807750D01*
X119306000Y-113655973D01*
X119141000Y-113622560D01*
X119110006Y-113622560D01*
X118491000Y-113003554D01*
X118491000Y-111280690D01*
X119306000Y-111280690D01*
X119306000Y-112236250D01*
X119464750Y-112395000D01*
X120714000Y-112395000D01*
X120714000Y-112375000D01*
X120968000Y-112375000D01*
X120968000Y-112395000D01*
X120988000Y-112395000D01*
X120988000Y-112649000D01*
X120968000Y-112649000D01*
X120968000Y-114113250D01*
X121126750Y-114272000D01*
X121867309Y-114272000D01*
X122100698Y-114175327D01*
X122279327Y-113996699D01*
X122302256Y-113941344D01*
X122396910Y-114088441D01*
X122609110Y-114233431D01*
X122861000Y-114284440D01*
X124661000Y-114284440D01*
X124662042Y-114284244D01*
X124837691Y-114357000D01*
X125403250Y-114357000D01*
X125562000Y-114198250D01*
X125562000Y-113719440D01*
X125816000Y-113719440D01*
X125816000Y-114198250D01*
X125974750Y-114357000D01*
X126188371Y-114357000D01*
X126104000Y-114560690D01*
X126104000Y-114776250D01*
X126262750Y-114935000D01*
X127012000Y-114935000D01*
X127012000Y-114210750D01*
X126917638Y-114116388D01*
X126952327Y-114081699D01*
X127049000Y-113848310D01*
X127049000Y-113768250D01*
X126890250Y-113609500D01*
X126751359Y-113609500D01*
X126865441Y-113536090D01*
X127010431Y-113323890D01*
X127025558Y-113249192D01*
X127049000Y-113225750D01*
X127049000Y-113145690D01*
X127047333Y-113141665D01*
X127061440Y-113072000D01*
X127061440Y-112622000D01*
X127041933Y-112518329D01*
X127061440Y-112422000D01*
X127061440Y-111972000D01*
X127041933Y-111868329D01*
X127061440Y-111772000D01*
X127061440Y-111322000D01*
X127017162Y-111086683D01*
X126878090Y-110870559D01*
X126665890Y-110725569D01*
X126414000Y-110674560D01*
X124964000Y-110674560D01*
X124728683Y-110718838D01*
X124664346Y-110760238D01*
X124661000Y-110759560D01*
X123336121Y-110759560D01*
X123570173Y-110328684D01*
X123584318Y-110257185D01*
X123461656Y-110043000D01*
X121869000Y-110043000D01*
X121869000Y-110063000D01*
X121615000Y-110063000D01*
X121615000Y-110043000D01*
X120022344Y-110043000D01*
X119899682Y-110257185D01*
X119913827Y-110328684D01*
X120154636Y-110772000D01*
X119814691Y-110772000D01*
X119581302Y-110868673D01*
X119402673Y-111047301D01*
X119306000Y-111280690D01*
X118491000Y-111280690D01*
X118491000Y-108500183D01*
X119075463Y-108500183D01*
X119174062Y-108766985D01*
X119783602Y-108993421D01*
X120234286Y-108976734D01*
X120172855Y-109026460D01*
X119913827Y-109503316D01*
X119899682Y-109574815D01*
X120022344Y-109789000D01*
X121615000Y-109789000D01*
X121615000Y-108531000D01*
X121869000Y-108531000D01*
X121869000Y-109789000D01*
X123461656Y-109789000D01*
X123584318Y-109574815D01*
X123570173Y-109503316D01*
X123311145Y-109026460D01*
X122889349Y-108685028D01*
X122369000Y-108531000D01*
X121869000Y-108531000D01*
X121615000Y-108531000D01*
X121115000Y-108531000D01*
X120996192Y-108566168D01*
X121020577Y-108500183D01*
X128407423Y-108500183D01*
X128506022Y-108766985D01*
X129115562Y-108993421D01*
X129765357Y-108969361D01*
X130253938Y-108766985D01*
X130352537Y-108500183D01*
X133807463Y-108500183D01*
X133906062Y-108766985D01*
X134515602Y-108993421D01*
X135165397Y-108969361D01*
X135653978Y-108766985D01*
X135752577Y-108500183D01*
X140599423Y-108500183D01*
X140698022Y-108766985D01*
X141307562Y-108993421D01*
X141957357Y-108969361D01*
X142445938Y-108766985D01*
X142544537Y-108500183D01*
X141571980Y-107527625D01*
X140599423Y-108500183D01*
X135752577Y-108500183D01*
X134780020Y-107527625D01*
X133807463Y-108500183D01*
X130352537Y-108500183D01*
X129379980Y-107527625D01*
X128407423Y-108500183D01*
X121020577Y-108500183D01*
X120048020Y-107527625D01*
X119075463Y-108500183D01*
X118491000Y-108500183D01*
X118491000Y-107888682D01*
X118629055Y-108221978D01*
X118895857Y-108320577D01*
X119868415Y-107348020D01*
X120227625Y-107348020D01*
X121200183Y-108320577D01*
X121466985Y-108221978D01*
X121693421Y-107612438D01*
X121673840Y-107083602D01*
X127734579Y-107083602D01*
X127758639Y-107733397D01*
X127961015Y-108221978D01*
X128227817Y-108320577D01*
X129200375Y-107348020D01*
X129559585Y-107348020D01*
X130532143Y-108320577D01*
X130798945Y-108221978D01*
X131025381Y-107612438D01*
X131005800Y-107083602D01*
X133134619Y-107083602D01*
X133158679Y-107733397D01*
X133361055Y-108221978D01*
X133627857Y-108320577D01*
X134600415Y-107348020D01*
X134959625Y-107348020D01*
X135932183Y-108320577D01*
X136198985Y-108221978D01*
X136425421Y-107612438D01*
X136405840Y-107083602D01*
X139926579Y-107083602D01*
X139950639Y-107733397D01*
X140153015Y-108221978D01*
X140419817Y-108320577D01*
X141392375Y-107348020D01*
X140419817Y-106375463D01*
X140153015Y-106474062D01*
X139926579Y-107083602D01*
X136405840Y-107083602D01*
X136401361Y-106962643D01*
X136198985Y-106474062D01*
X135932183Y-106375463D01*
X134959625Y-107348020D01*
X134600415Y-107348020D01*
X133627857Y-106375463D01*
X133361055Y-106474062D01*
X133134619Y-107083602D01*
X131005800Y-107083602D01*
X131001321Y-106962643D01*
X130798945Y-106474062D01*
X130532143Y-106375463D01*
X129559585Y-107348020D01*
X129200375Y-107348020D01*
X128227817Y-106375463D01*
X127961015Y-106474062D01*
X127734579Y-107083602D01*
X121673840Y-107083602D01*
X121669361Y-106962643D01*
X121466985Y-106474062D01*
X121200183Y-106375463D01*
X120227625Y-107348020D01*
X119868415Y-107348020D01*
X118895857Y-106375463D01*
X118629055Y-106474062D01*
X118491000Y-106845690D01*
X118491000Y-106195857D01*
X119075463Y-106195857D01*
X120048020Y-107168415D01*
X121020577Y-106195857D01*
X128407423Y-106195857D01*
X129379980Y-107168415D01*
X130352537Y-106195857D01*
X130253938Y-105929055D01*
X129644398Y-105702619D01*
X128994603Y-105726679D01*
X128506022Y-105929055D01*
X128407423Y-106195857D01*
X121020577Y-106195857D01*
X120921978Y-105929055D01*
X120312438Y-105702619D01*
X119662643Y-105726679D01*
X119174062Y-105929055D01*
X119075463Y-106195857D01*
X118491000Y-106195857D01*
X118491000Y-105816498D01*
X118732846Y-105575073D01*
X118982206Y-104974547D01*
X118982208Y-104971694D01*
X130445226Y-104971694D01*
X130693538Y-105572655D01*
X131152927Y-106032846D01*
X131753453Y-106282206D01*
X132403694Y-106282774D01*
X132614049Y-106195857D01*
X133807463Y-106195857D01*
X134780020Y-107168415D01*
X135752577Y-106195857D01*
X140599423Y-106195857D01*
X141571980Y-107168415D01*
X142544537Y-106195857D01*
X142445938Y-105929055D01*
X141836398Y-105702619D01*
X141186603Y-105726679D01*
X140698022Y-105929055D01*
X140599423Y-106195857D01*
X135752577Y-106195857D01*
X135653978Y-105929055D01*
X135044438Y-105702619D01*
X134394643Y-105726679D01*
X133906062Y-105929055D01*
X133807463Y-106195857D01*
X132614049Y-106195857D01*
X133004655Y-106034462D01*
X133464846Y-105575073D01*
X133714206Y-104974547D01*
X133714774Y-104324306D01*
X133466462Y-103723345D01*
X133007073Y-103263154D01*
X132614499Y-103100143D01*
X133807463Y-103100143D01*
X133906062Y-103366945D01*
X134515602Y-103593381D01*
X135165397Y-103569321D01*
X135653978Y-103366945D01*
X135752577Y-103100143D01*
X140599423Y-103100143D01*
X140698022Y-103366945D01*
X141307562Y-103593381D01*
X141957357Y-103569321D01*
X142445938Y-103366945D01*
X142544537Y-103100143D01*
X141571980Y-102127585D01*
X140599423Y-103100143D01*
X135752577Y-103100143D01*
X134780020Y-102127585D01*
X133807463Y-103100143D01*
X132614499Y-103100143D01*
X132406547Y-103013794D01*
X131756306Y-103013226D01*
X131155345Y-103261538D01*
X130695154Y-103720927D01*
X130445794Y-104321453D01*
X130445226Y-104971694D01*
X118982208Y-104971694D01*
X118982774Y-104324306D01*
X118734462Y-103723345D01*
X118275073Y-103263154D01*
X117882499Y-103100143D01*
X119075463Y-103100143D01*
X119174062Y-103366945D01*
X119783602Y-103593381D01*
X120433397Y-103569321D01*
X120921978Y-103366945D01*
X121020577Y-103100143D01*
X128407423Y-103100143D01*
X128506022Y-103366945D01*
X129115562Y-103593381D01*
X129765357Y-103569321D01*
X130253938Y-103366945D01*
X130352537Y-103100143D01*
X129379980Y-102127585D01*
X128407423Y-103100143D01*
X121020577Y-103100143D01*
X120048020Y-102127585D01*
X119075463Y-103100143D01*
X117882499Y-103100143D01*
X117674547Y-103013794D01*
X117024306Y-103013226D01*
X116423345Y-103261538D01*
X115963154Y-103720927D01*
X115713794Y-104321453D01*
X115713226Y-104971694D01*
X115961538Y-105572655D01*
X116205000Y-105816542D01*
X116205000Y-106807358D01*
X116066945Y-106474062D01*
X115800143Y-106375463D01*
X114827585Y-107348020D01*
X115800143Y-108320577D01*
X116066945Y-108221978D01*
X116205000Y-107850350D01*
X116205000Y-113477000D01*
X116292006Y-113914407D01*
X116539777Y-114285223D01*
X117193560Y-114939006D01*
X117193560Y-114970000D01*
X117237838Y-115205317D01*
X117376910Y-115421441D01*
X117589110Y-115566431D01*
X117602197Y-115569081D01*
X117389559Y-115705910D01*
X117302717Y-115833007D01*
X116910593Y-115911006D01*
X116539777Y-116158777D01*
X116031777Y-116666777D01*
X115784006Y-117037593D01*
X115697000Y-117475000D01*
X115697000Y-118618000D01*
X115784006Y-119055407D01*
X116031777Y-119426223D01*
X116793777Y-120188223D01*
X117162560Y-120434636D01*
X117162560Y-120950000D01*
X117206838Y-121185317D01*
X117270678Y-121284528D01*
X117213569Y-121368110D01*
X117162560Y-121620000D01*
X117162560Y-121896114D01*
X115570000Y-120303554D01*
X115570000Y-110363000D01*
X115482994Y-109925593D01*
X115235223Y-109554777D01*
X114663502Y-108983056D01*
X115033357Y-108969361D01*
X115521938Y-108766985D01*
X115620537Y-108500183D01*
X114647980Y-107527625D01*
X114633838Y-107541768D01*
X114454232Y-107362162D01*
X114468375Y-107348020D01*
X113495817Y-106375463D01*
X113229015Y-106474062D01*
X113002579Y-107083602D01*
X113011751Y-107331305D01*
X111876303Y-106195857D01*
X113675423Y-106195857D01*
X114647980Y-107168415D01*
X115620537Y-106195857D01*
X115521938Y-105929055D01*
X114912398Y-105702619D01*
X114262603Y-105726679D01*
X113774022Y-105929055D01*
X113675423Y-106195857D01*
X111876303Y-106195857D01*
X109520223Y-103839777D01*
X109149407Y-103592006D01*
X108712000Y-103505000D01*
X108396682Y-103505000D01*
X108729978Y-103366945D01*
X108828577Y-103100143D01*
X113675423Y-103100143D01*
X113774022Y-103366945D01*
X114383562Y-103593381D01*
X115033357Y-103569321D01*
X115521938Y-103366945D01*
X115620537Y-103100143D01*
X114647980Y-102127585D01*
X113675423Y-103100143D01*
X108828577Y-103100143D01*
X107856020Y-102127585D01*
X106883463Y-103100143D01*
X106982062Y-103366945D01*
X107353690Y-103505000D01*
X106324498Y-103505000D01*
X106083073Y-103263154D01*
X105482547Y-103013794D01*
X104832306Y-103013226D01*
X104231345Y-103261538D01*
X103771154Y-103720927D01*
X103521794Y-104321453D01*
X103521226Y-104971694D01*
X103769538Y-105572655D01*
X104228927Y-106032846D01*
X104829453Y-106282206D01*
X105479694Y-106282774D01*
X106080655Y-106034462D01*
X106324542Y-105791000D01*
X107315358Y-105791000D01*
X106982062Y-105929055D01*
X106883463Y-106195857D01*
X107856020Y-107168415D01*
X107870162Y-107154272D01*
X108049768Y-107333878D01*
X108035625Y-107348020D01*
X109008183Y-108320577D01*
X109274985Y-108221978D01*
X109501421Y-107612438D01*
X109479944Y-107032390D01*
X113284000Y-110836446D01*
X113284000Y-120777000D01*
X113371006Y-121214407D01*
X113618777Y-121585223D01*
X116097777Y-124064223D01*
X116468593Y-124311994D01*
X116906000Y-124399000D01*
X117350551Y-124399000D01*
X117343214Y-124409738D01*
X117291593Y-124420006D01*
X116920777Y-124667777D01*
X116603277Y-124985277D01*
X116355506Y-125356093D01*
X116300822Y-125631007D01*
X116031777Y-125810777D01*
X115784006Y-126181593D01*
X115697000Y-126619000D01*
X115784006Y-127056407D01*
X116031777Y-127427223D01*
X116493554Y-127889000D01*
X116078000Y-127889000D01*
X115640593Y-127976006D01*
X115269777Y-128223777D01*
X114146554Y-129347000D01*
X112646449Y-129347000D01*
X112752431Y-129191890D01*
X112803440Y-128940000D01*
X112803440Y-128240000D01*
X112759162Y-128004683D01*
X112620090Y-127788559D01*
X112407890Y-127643569D01*
X112238820Y-127609332D01*
X112134618Y-127453382D01*
X111167440Y-126486204D01*
X111167440Y-126096000D01*
X111130455Y-125899440D01*
X112156000Y-125899440D01*
X112391317Y-125855162D01*
X112607441Y-125716090D01*
X112752431Y-125503890D01*
X112803440Y-125252000D01*
X112803440Y-124552000D01*
X112759162Y-124316683D01*
X112620090Y-124100559D01*
X112407890Y-123955569D01*
X112394803Y-123952919D01*
X112607441Y-123816090D01*
X112752431Y-123603890D01*
X112803440Y-123352000D01*
X112803440Y-122652000D01*
X112759162Y-122416683D01*
X112620090Y-122200559D01*
X112407890Y-122055569D01*
X112238820Y-122021332D01*
X112134618Y-121865382D01*
X111167440Y-120898204D01*
X111167440Y-120508000D01*
X111130455Y-120311440D01*
X112156000Y-120311440D01*
X112391317Y-120267162D01*
X112607441Y-120128090D01*
X112752431Y-119915890D01*
X112803440Y-119664000D01*
X112803440Y-118964000D01*
X112759162Y-118728683D01*
X112620090Y-118512559D01*
X112407890Y-118367569D01*
X112394803Y-118364919D01*
X112607441Y-118228090D01*
X112752431Y-118015890D01*
X112803440Y-117764000D01*
X112803440Y-117064000D01*
X112759162Y-116828683D01*
X112620090Y-116612559D01*
X112407890Y-116467569D01*
X112238820Y-116433332D01*
X112134618Y-116277382D01*
X111167440Y-115310204D01*
X111167440Y-114920000D01*
X111130455Y-114723440D01*
X112156000Y-114723440D01*
X112391317Y-114679162D01*
X112607441Y-114540090D01*
X112752431Y-114327890D01*
X112803440Y-114076000D01*
X112803440Y-113376000D01*
X112759162Y-113140683D01*
X112620090Y-112924559D01*
X112407890Y-112779569D01*
X112394803Y-112776919D01*
X112607441Y-112640090D01*
X112752431Y-112427890D01*
X112803440Y-112176000D01*
X112803440Y-111476000D01*
X112759162Y-111240683D01*
X112620090Y-111024559D01*
X112407890Y-110879569D01*
X112238820Y-110845332D01*
X112134618Y-110689382D01*
X111167440Y-109722204D01*
X111167440Y-109332000D01*
X111123162Y-109096683D01*
X110984090Y-108880559D01*
X110771890Y-108735569D01*
X110520000Y-108684560D01*
X109820000Y-108684560D01*
X109584683Y-108728838D01*
X109368559Y-108867910D01*
X109223569Y-109080110D01*
X109216809Y-109113490D01*
X109158327Y-108972301D01*
X108979698Y-108793673D01*
X108754576Y-108700424D01*
X108828577Y-108500183D01*
X107856020Y-107527625D01*
X106883463Y-108500183D01*
X106982062Y-108766985D01*
X107423136Y-108930838D01*
X107381673Y-108972301D01*
X107285000Y-109205690D01*
X107285000Y-109696250D01*
X107443750Y-109855000D01*
X108143000Y-109855000D01*
X108143000Y-109835000D01*
X108397000Y-109835000D01*
X108397000Y-109855000D01*
X108417000Y-109855000D01*
X108417000Y-110109000D01*
X108397000Y-110109000D01*
X108397000Y-111108250D01*
X108471500Y-111182750D01*
X108471500Y-111595160D01*
X108217500Y-111595160D01*
X108217500Y-111118650D01*
X108143000Y-111044150D01*
X108143000Y-110109000D01*
X107443750Y-110109000D01*
X107285000Y-110267750D01*
X107285000Y-110758310D01*
X107381673Y-110991699D01*
X107432856Y-111042881D01*
X107399801Y-111056573D01*
X107221173Y-111235202D01*
X107221130Y-111235305D01*
X107138310Y-111201000D01*
X106490406Y-111201000D01*
X106653441Y-111096090D01*
X106798431Y-110883890D01*
X106849440Y-110632000D01*
X106849440Y-109332000D01*
X106805162Y-109096683D01*
X106666090Y-108880559D01*
X106453890Y-108735569D01*
X106202000Y-108684560D01*
X105502000Y-108684560D01*
X105266683Y-108728838D01*
X105050559Y-108867910D01*
X104905569Y-109080110D01*
X104902919Y-109093197D01*
X104766090Y-108880559D01*
X104553890Y-108735569D01*
X104302000Y-108684560D01*
X103602000Y-108684560D01*
X103366683Y-108728838D01*
X103336970Y-108747958D01*
X103428537Y-108500183D01*
X102455980Y-107527625D01*
X101483423Y-108500183D01*
X101582022Y-108766985D01*
X102191562Y-108993421D01*
X102841357Y-108969361D01*
X103266684Y-108793185D01*
X103150559Y-108867910D01*
X103005569Y-109080110D01*
X102954560Y-109332000D01*
X102954560Y-109975000D01*
X102901750Y-109975000D01*
X102743000Y-110133750D01*
X102743000Y-110883000D01*
X102763000Y-110883000D01*
X102763000Y-111137000D01*
X102743000Y-111137000D01*
X102743000Y-111157000D01*
X102489000Y-111157000D01*
X102489000Y-111137000D01*
X101764750Y-111137000D01*
X101606000Y-111295750D01*
X101606000Y-111536309D01*
X101702673Y-111769698D01*
X101704043Y-111771068D01*
X101644569Y-111858110D01*
X101593560Y-112110000D01*
X101593560Y-112910000D01*
X101637838Y-113145317D01*
X101740577Y-113304977D01*
X100761000Y-114284554D01*
X100761000Y-110483691D01*
X101606000Y-110483691D01*
X101606000Y-110724250D01*
X101764750Y-110883000D01*
X102489000Y-110883000D01*
X102489000Y-110133750D01*
X102330250Y-109975000D01*
X102114690Y-109975000D01*
X101881301Y-110071673D01*
X101702673Y-110250302D01*
X101606000Y-110483691D01*
X100761000Y-110483691D01*
X100761000Y-107083602D01*
X100810579Y-107083602D01*
X100834639Y-107733397D01*
X101037015Y-108221978D01*
X101303817Y-108320577D01*
X102276375Y-107348020D01*
X102635585Y-107348020D01*
X103608143Y-108320577D01*
X103874945Y-108221978D01*
X104101381Y-107612438D01*
X104081800Y-107083602D01*
X106210619Y-107083602D01*
X106234679Y-107733397D01*
X106437055Y-108221978D01*
X106703857Y-108320577D01*
X107676415Y-107348020D01*
X106703857Y-106375463D01*
X106437055Y-106474062D01*
X106210619Y-107083602D01*
X104081800Y-107083602D01*
X104077321Y-106962643D01*
X103874945Y-106474062D01*
X103608143Y-106375463D01*
X102635585Y-107348020D01*
X102276375Y-107348020D01*
X101303817Y-106375463D01*
X101037015Y-106474062D01*
X100810579Y-107083602D01*
X100761000Y-107083602D01*
X100761000Y-106195857D01*
X101483423Y-106195857D01*
X102455980Y-107168415D01*
X103428537Y-106195857D01*
X103329938Y-105929055D01*
X102720398Y-105702619D01*
X102070603Y-105726679D01*
X101582022Y-105929055D01*
X101483423Y-106195857D01*
X100761000Y-106195857D01*
X100761000Y-103100143D01*
X101483423Y-103100143D01*
X101582022Y-103366945D01*
X102191562Y-103593381D01*
X102841357Y-103569321D01*
X103329938Y-103366945D01*
X103428537Y-103100143D01*
X102455980Y-102127585D01*
X101483423Y-103100143D01*
X100761000Y-103100143D01*
X100761000Y-101683562D01*
X100810579Y-101683562D01*
X100834639Y-102333357D01*
X101037015Y-102821938D01*
X101303817Y-102920537D01*
X102276375Y-101947980D01*
X102635585Y-101947980D01*
X103608143Y-102920537D01*
X103874945Y-102821938D01*
X104101381Y-102212398D01*
X104081800Y-101683562D01*
X106210619Y-101683562D01*
X106234679Y-102333357D01*
X106437055Y-102821938D01*
X106703857Y-102920537D01*
X107676415Y-101947980D01*
X108035625Y-101947980D01*
X109008183Y-102920537D01*
X109274985Y-102821938D01*
X109501421Y-102212398D01*
X109481840Y-101683562D01*
X113002579Y-101683562D01*
X113026639Y-102333357D01*
X113229015Y-102821938D01*
X113495817Y-102920537D01*
X114468375Y-101947980D01*
X114827585Y-101947980D01*
X115800143Y-102920537D01*
X116066945Y-102821938D01*
X116293381Y-102212398D01*
X116273800Y-101683562D01*
X118402619Y-101683562D01*
X118426679Y-102333357D01*
X118629055Y-102821938D01*
X118895857Y-102920537D01*
X119868415Y-101947980D01*
X120227625Y-101947980D01*
X121200183Y-102920537D01*
X121466985Y-102821938D01*
X121693421Y-102212398D01*
X121673840Y-101683562D01*
X127734579Y-101683562D01*
X127758639Y-102333357D01*
X127961015Y-102821938D01*
X128227817Y-102920537D01*
X129200375Y-101947980D01*
X129559585Y-101947980D01*
X130532143Y-102920537D01*
X130798945Y-102821938D01*
X131025381Y-102212398D01*
X131005800Y-101683562D01*
X133134619Y-101683562D01*
X133158679Y-102333357D01*
X133361055Y-102821938D01*
X133627857Y-102920537D01*
X134600415Y-101947980D01*
X134959625Y-101947980D01*
X135932183Y-102920537D01*
X136198985Y-102821938D01*
X136425421Y-102212398D01*
X136405840Y-101683562D01*
X139926579Y-101683562D01*
X139950639Y-102333357D01*
X140153015Y-102821938D01*
X140419817Y-102920537D01*
X141392375Y-101947980D01*
X141751585Y-101947980D01*
X142724143Y-102920537D01*
X142990945Y-102821938D01*
X143217381Y-102212398D01*
X143197800Y-101683562D01*
X145326619Y-101683562D01*
X145350679Y-102333357D01*
X145553055Y-102821938D01*
X145819857Y-102920537D01*
X146792415Y-101947980D01*
X147151625Y-101947980D01*
X148124183Y-102920537D01*
X148390985Y-102821938D01*
X148617421Y-102212398D01*
X148593361Y-101562603D01*
X148390985Y-101074022D01*
X148124183Y-100975423D01*
X147151625Y-101947980D01*
X146792415Y-101947980D01*
X145819857Y-100975423D01*
X145553055Y-101074022D01*
X145326619Y-101683562D01*
X143197800Y-101683562D01*
X143193321Y-101562603D01*
X142990945Y-101074022D01*
X142724143Y-100975423D01*
X141751585Y-101947980D01*
X141392375Y-101947980D01*
X140419817Y-100975423D01*
X140153015Y-101074022D01*
X139926579Y-101683562D01*
X136405840Y-101683562D01*
X136401361Y-101562603D01*
X136198985Y-101074022D01*
X135932183Y-100975423D01*
X134959625Y-101947980D01*
X134600415Y-101947980D01*
X133627857Y-100975423D01*
X133361055Y-101074022D01*
X133134619Y-101683562D01*
X131005800Y-101683562D01*
X131001321Y-101562603D01*
X130798945Y-101074022D01*
X130532143Y-100975423D01*
X129559585Y-101947980D01*
X129200375Y-101947980D01*
X128227817Y-100975423D01*
X127961015Y-101074022D01*
X127734579Y-101683562D01*
X121673840Y-101683562D01*
X121669361Y-101562603D01*
X121466985Y-101074022D01*
X121200183Y-100975423D01*
X120227625Y-101947980D01*
X119868415Y-101947980D01*
X118895857Y-100975423D01*
X118629055Y-101074022D01*
X118402619Y-101683562D01*
X116273800Y-101683562D01*
X116269321Y-101562603D01*
X116066945Y-101074022D01*
X115800143Y-100975423D01*
X114827585Y-101947980D01*
X114468375Y-101947980D01*
X113495817Y-100975423D01*
X113229015Y-101074022D01*
X113002579Y-101683562D01*
X109481840Y-101683562D01*
X109477361Y-101562603D01*
X109274985Y-101074022D01*
X109008183Y-100975423D01*
X108035625Y-101947980D01*
X107676415Y-101947980D01*
X106703857Y-100975423D01*
X106437055Y-101074022D01*
X106210619Y-101683562D01*
X104081800Y-101683562D01*
X104077321Y-101562603D01*
X103874945Y-101074022D01*
X103608143Y-100975423D01*
X102635585Y-101947980D01*
X102276375Y-101947980D01*
X101303817Y-100975423D01*
X101037015Y-101074022D01*
X100810579Y-101683562D01*
X100761000Y-101683562D01*
X100761000Y-100761000D01*
X101496290Y-100761000D01*
X101483423Y-100795817D01*
G36*
X146939000Y-119824611D02*
X146939000Y-124523610D01*
X146686164Y-124523390D01*
X146645090Y-124459559D01*
X146432890Y-124314569D01*
X146181000Y-124263560D01*
X144731000Y-124263560D01*
X144495683Y-124307838D01*
X144279559Y-124446910D01*
X144134569Y-124659110D01*
X144123453Y-124714000D01*
X143510000Y-124714000D01*
X143406059Y-124734675D01*
X143106286Y-124434378D01*
X142709668Y-124269687D01*
X142280216Y-124269313D01*
X142084818Y-124350050D01*
X142032890Y-124314569D01*
X141781000Y-124263560D01*
X140417308Y-124263560D01*
X140431193Y-124219887D01*
X140387162Y-123966683D01*
X140371475Y-123942305D01*
X140417052Y-123837732D01*
X140419984Y-123580745D01*
X140322703Y-123342865D01*
X139722703Y-122442865D01*
X139435890Y-122205569D01*
X139184000Y-122154560D01*
X138184000Y-122154560D01*
X137827463Y-122261574D01*
X137727440Y-122361117D01*
X137727440Y-122180000D01*
X137707550Y-122074295D01*
X137715000Y-122056310D01*
X137715000Y-122026250D01*
X137694688Y-122005938D01*
X137683162Y-121944683D01*
X137592810Y-121804273D01*
X137600513Y-121793000D01*
X137816765Y-121793000D01*
X137932110Y-121888431D01*
X138184000Y-121939440D01*
X139184000Y-121939440D01*
X139540537Y-121832426D01*
X139722703Y-121651135D01*
X139892762Y-121396046D01*
X140007233Y-121673086D01*
X140326235Y-121992645D01*
X140442560Y-122040948D01*
X140442560Y-122168000D01*
X140486838Y-122403317D01*
X140625910Y-122619441D01*
X140838110Y-122764431D01*
X141090000Y-122815440D01*
X141890000Y-122815440D01*
X142125317Y-122771162D01*
X142239978Y-122697380D01*
X142338110Y-122764431D01*
X142590000Y-122815440D01*
X143390000Y-122815440D01*
X143625317Y-122771162D01*
X143841441Y-122632090D01*
X143986431Y-122419890D01*
X144037440Y-122168000D01*
X144037440Y-121418000D01*
X143993162Y-121182683D01*
X143879000Y-121005270D01*
X143879000Y-120895890D01*
X144230775Y-120896197D01*
X144255130Y-120886134D01*
X144266910Y-120904441D01*
X144479110Y-121049431D01*
X144731000Y-121100440D01*
X146181000Y-121100440D01*
X146416317Y-121056162D01*
X146632441Y-120917090D01*
X146777431Y-120704890D01*
X146828440Y-120453000D01*
X146828440Y-120003000D01*
X146808933Y-119899329D01*
X146821855Y-119835516D01*
X146876947Y-119824557D01*
X146939000Y-119824611D01*
X146939000Y-119824611D01*
G37*
X146939000Y-119824611D02*
X146939000Y-124523610D01*
X146686164Y-124523390D01*
X146645090Y-124459559D01*
X146432890Y-124314569D01*
X146181000Y-124263560D01*
X144731000Y-124263560D01*
X144495683Y-124307838D01*
X144279559Y-124446910D01*
X144134569Y-124659110D01*
X144123453Y-124714000D01*
X143510000Y-124714000D01*
X143406059Y-124734675D01*
X143106286Y-124434378D01*
X142709668Y-124269687D01*
X142280216Y-124269313D01*
X142084818Y-124350050D01*
X142032890Y-124314569D01*
X141781000Y-124263560D01*
X140417308Y-124263560D01*
X140431193Y-124219887D01*
X140387162Y-123966683D01*
X140371475Y-123942305D01*
X140417052Y-123837732D01*
X140419984Y-123580745D01*
X140322703Y-123342865D01*
X139722703Y-122442865D01*
X139435890Y-122205569D01*
X139184000Y-122154560D01*
X138184000Y-122154560D01*
X137827463Y-122261574D01*
X137727440Y-122361117D01*
X137727440Y-122180000D01*
X137707550Y-122074295D01*
X137715000Y-122056310D01*
X137715000Y-122026250D01*
X137694688Y-122005938D01*
X137683162Y-121944683D01*
X137592810Y-121804273D01*
X137600513Y-121793000D01*
X137816765Y-121793000D01*
X137932110Y-121888431D01*
X138184000Y-121939440D01*
X139184000Y-121939440D01*
X139540537Y-121832426D01*
X139722703Y-121651135D01*
X139892762Y-121396046D01*
X140007233Y-121673086D01*
X140326235Y-121992645D01*
X140442560Y-122040948D01*
X140442560Y-122168000D01*
X140486838Y-122403317D01*
X140625910Y-122619441D01*
X140838110Y-122764431D01*
X141090000Y-122815440D01*
X141890000Y-122815440D01*
X142125317Y-122771162D01*
X142239978Y-122697380D01*
X142338110Y-122764431D01*
X142590000Y-122815440D01*
X143390000Y-122815440D01*
X143625317Y-122771162D01*
X143841441Y-122632090D01*
X143986431Y-122419890D01*
X144037440Y-122168000D01*
X144037440Y-121418000D01*
X143993162Y-121182683D01*
X143879000Y-121005270D01*
X143879000Y-120895890D01*
X144230775Y-120896197D01*
X144255130Y-120886134D01*
X144266910Y-120904441D01*
X144479110Y-121049431D01*
X144731000Y-121100440D01*
X146181000Y-121100440D01*
X146416317Y-121056162D01*
X146632441Y-120917090D01*
X146777431Y-120704890D01*
X146828440Y-120453000D01*
X146828440Y-120003000D01*
X146808933Y-119899329D01*
X146821855Y-119835516D01*
X146876947Y-119824557D01*
X146939000Y-119824611D01*
G36*
X132953110Y-119451431D02*
X133027808Y-119466558D01*
X133051250Y-119490000D01*
X133081310Y-119490000D01*
X133101753Y-119481532D01*
X133156253Y-119492569D01*
X133023355Y-119625235D01*
X132850197Y-120042244D01*
X132849803Y-120493775D01*
X133022233Y-120911086D01*
X133341235Y-121230645D01*
X133758244Y-121403803D01*
X134209775Y-121404197D01*
X134627086Y-121231767D01*
X134654493Y-121204408D01*
X134678004Y-121322605D01*
X134777379Y-121471329D01*
X134843185Y-121569815D01*
X135117185Y-121843816D01*
X135145000Y-121862401D01*
X135145000Y-121932002D01*
X135182781Y-121932002D01*
X135168442Y-122002808D01*
X135145000Y-122026250D01*
X135145000Y-122056310D01*
X135153468Y-122076753D01*
X135132560Y-122180000D01*
X135132560Y-122430000D01*
X135152450Y-122535705D01*
X135145000Y-122553690D01*
X135145000Y-122583750D01*
X135165312Y-122604062D01*
X135176838Y-122665317D01*
X135184998Y-122677998D01*
X135145000Y-122677998D01*
X135145000Y-122742253D01*
X135109185Y-122766184D01*
X134843185Y-123032185D01*
X134678004Y-123279395D01*
X134640041Y-123470245D01*
X134479095Y-123413651D01*
X134167267Y-123430686D01*
X133958296Y-123517245D01*
X133960157Y-123551205D01*
X133810921Y-123650921D01*
X133711205Y-123800157D01*
X133677245Y-123798296D01*
X133578540Y-124079000D01*
X129540000Y-124079000D01*
X129540000Y-123571000D01*
X129481996Y-123279395D01*
X129377241Y-123122618D01*
X129316816Y-123032185D01*
X129050815Y-122766185D01*
X129015000Y-122742254D01*
X129015000Y-122677998D01*
X128977219Y-122677998D01*
X128991558Y-122607192D01*
X129015000Y-122583750D01*
X129015000Y-122553690D01*
X129006532Y-122533247D01*
X129027440Y-122430000D01*
X129027440Y-122180000D01*
X129007550Y-122074295D01*
X129015000Y-122056310D01*
X129015000Y-122026250D01*
X128994688Y-122005938D01*
X128983162Y-121944683D01*
X128892810Y-121804273D01*
X128976431Y-121681890D01*
X128991558Y-121607192D01*
X129015000Y-121583750D01*
X129015000Y-121553690D01*
X129006532Y-121533247D01*
X129027440Y-121430000D01*
X129027440Y-121348743D01*
X129034815Y-121343815D01*
X129316815Y-121061816D01*
X129335213Y-121034281D01*
X129531235Y-121230645D01*
X129948244Y-121403803D01*
X130399775Y-121404197D01*
X130817086Y-121231767D01*
X131136645Y-120912765D01*
X131309803Y-120495756D01*
X131310197Y-120044225D01*
X131137767Y-119626914D01*
X131004258Y-119493172D01*
X131060705Y-119482550D01*
X131078690Y-119490000D01*
X131108750Y-119490000D01*
X131129062Y-119469688D01*
X131190317Y-119458162D01*
X131330727Y-119367810D01*
X131453110Y-119451431D01*
X131527808Y-119466558D01*
X131551250Y-119490000D01*
X131581310Y-119490000D01*
X131601753Y-119481532D01*
X131705000Y-119502440D01*
X131955000Y-119502440D01*
X132084589Y-119478056D01*
X132205000Y-119502440D01*
X132455000Y-119502440D01*
X132560705Y-119482550D01*
X132578690Y-119490000D01*
X132608750Y-119490000D01*
X132629062Y-119469688D01*
X132690317Y-119458162D01*
X132830727Y-119367810D01*
X132953110Y-119451431D01*
X132953110Y-119451431D01*
G37*
X132953110Y-119451431D02*
X133027808Y-119466558D01*
X133051250Y-119490000D01*
X133081310Y-119490000D01*
X133101753Y-119481532D01*
X133156253Y-119492569D01*
X133023355Y-119625235D01*
X132850197Y-120042244D01*
X132849803Y-120493775D01*
X133022233Y-120911086D01*
X133341235Y-121230645D01*
X133758244Y-121403803D01*
X134209775Y-121404197D01*
X134627086Y-121231767D01*
X134654493Y-121204408D01*
X134678004Y-121322605D01*
X134777379Y-121471329D01*
X134843185Y-121569815D01*
X135117185Y-121843816D01*
X135145000Y-121862401D01*
X135145000Y-121932002D01*
X135182781Y-121932002D01*
X135168442Y-122002808D01*
X135145000Y-122026250D01*
X135145000Y-122056310D01*
X135153468Y-122076753D01*
X135132560Y-122180000D01*
X135132560Y-122430000D01*
X135152450Y-122535705D01*
X135145000Y-122553690D01*
X135145000Y-122583750D01*
X135165312Y-122604062D01*
X135176838Y-122665317D01*
X135184998Y-122677998D01*
X135145000Y-122677998D01*
X135145000Y-122742253D01*
X135109185Y-122766184D01*
X134843185Y-123032185D01*
X134678004Y-123279395D01*
X134640041Y-123470245D01*
X134479095Y-123413651D01*
X134167267Y-123430686D01*
X133958296Y-123517245D01*
X133960157Y-123551205D01*
X133810921Y-123650921D01*
X133711205Y-123800157D01*
X133677245Y-123798296D01*
X133578540Y-124079000D01*
X129540000Y-124079000D01*
X129540000Y-123571000D01*
X129481996Y-123279395D01*
X129377241Y-123122618D01*
X129316816Y-123032185D01*
X129050815Y-122766185D01*
X129015000Y-122742254D01*
X129015000Y-122677998D01*
X128977219Y-122677998D01*
X128991558Y-122607192D01*
X129015000Y-122583750D01*
X129015000Y-122553690D01*
X129006532Y-122533247D01*
X129027440Y-122430000D01*
X129027440Y-122180000D01*
X129007550Y-122074295D01*
X129015000Y-122056310D01*
X129015000Y-122026250D01*
X128994688Y-122005938D01*
X128983162Y-121944683D01*
X128892810Y-121804273D01*
X128976431Y-121681890D01*
X128991558Y-121607192D01*
X129015000Y-121583750D01*
X129015000Y-121553690D01*
X129006532Y-121533247D01*
X129027440Y-121430000D01*
X129027440Y-121348743D01*
X129034815Y-121343815D01*
X129316815Y-121061816D01*
X129335213Y-121034281D01*
X129531235Y-121230645D01*
X129948244Y-121403803D01*
X130399775Y-121404197D01*
X130817086Y-121231767D01*
X131136645Y-120912765D01*
X131309803Y-120495756D01*
X131310197Y-120044225D01*
X131137767Y-119626914D01*
X131004258Y-119493172D01*
X131060705Y-119482550D01*
X131078690Y-119490000D01*
X131108750Y-119490000D01*
X131129062Y-119469688D01*
X131190317Y-119458162D01*
X131330727Y-119367810D01*
X131453110Y-119451431D01*
X131527808Y-119466558D01*
X131551250Y-119490000D01*
X131581310Y-119490000D01*
X131601753Y-119481532D01*
X131705000Y-119502440D01*
X131955000Y-119502440D01*
X132084589Y-119478056D01*
X132205000Y-119502440D01*
X132455000Y-119502440D01*
X132560705Y-119482550D01*
X132578690Y-119490000D01*
X132608750Y-119490000D01*
X132629062Y-119469688D01*
X132690317Y-119458162D01*
X132830727Y-119367810D01*
X132953110Y-119451431D01*
G36*
X107295410Y-119996541D02*
X107436815Y-120093159D01*
X107381673Y-120148301D01*
X107285000Y-120381690D01*
X107285000Y-120872250D01*
X107443750Y-121031000D01*
X108143000Y-121031000D01*
X108143000Y-121011000D01*
X108397000Y-121011000D01*
X108397000Y-121031000D01*
X108417000Y-121031000D01*
X108417000Y-121285000D01*
X108397000Y-121285000D01*
X108397000Y-122284250D01*
X108471500Y-122358750D01*
X108471500Y-122771160D01*
X108217500Y-122771160D01*
X108217500Y-122294650D01*
X108143000Y-122220150D01*
X108143000Y-121285000D01*
X107443750Y-121285000D01*
X107285000Y-121443750D01*
X107285000Y-121934310D01*
X107381673Y-122167699D01*
X107432856Y-122218881D01*
X107399801Y-122232573D01*
X107221173Y-122411202D01*
X107221130Y-122411305D01*
X107138310Y-122377000D01*
X106490406Y-122377000D01*
X106653441Y-122272090D01*
X106798431Y-122059890D01*
X106849440Y-121808000D01*
X106849440Y-120508000D01*
X106805162Y-120272683D01*
X106666090Y-120056559D01*
X106494037Y-119939000D01*
X107138310Y-119939000D01*
X107233114Y-119899731D01*
X107295410Y-119996541D01*
X107295410Y-119996541D01*
G37*
X107295410Y-119996541D02*
X107436815Y-120093159D01*
X107381673Y-120148301D01*
X107285000Y-120381690D01*
X107285000Y-120872250D01*
X107443750Y-121031000D01*
X108143000Y-121031000D01*
X108143000Y-121011000D01*
X108397000Y-121011000D01*
X108397000Y-121031000D01*
X108417000Y-121031000D01*
X108417000Y-121285000D01*
X108397000Y-121285000D01*
X108397000Y-122284250D01*
X108471500Y-122358750D01*
X108471500Y-122771160D01*
X108217500Y-122771160D01*
X108217500Y-122294650D01*
X108143000Y-122220150D01*
X108143000Y-121285000D01*
X107443750Y-121285000D01*
X107285000Y-121443750D01*
X107285000Y-121934310D01*
X107381673Y-122167699D01*
X107432856Y-122218881D01*
X107399801Y-122232573D01*
X107221173Y-122411202D01*
X107221130Y-122411305D01*
X107138310Y-122377000D01*
X106490406Y-122377000D01*
X106653441Y-122272090D01*
X106798431Y-122059890D01*
X106849440Y-121808000D01*
X106849440Y-120508000D01*
X106805162Y-120272683D01*
X106666090Y-120056559D01*
X106494037Y-119939000D01*
X107138310Y-119939000D01*
X107233114Y-119899731D01*
X107295410Y-119996541D01*
G36*
X102643244Y-120514803D02*
X102954560Y-120515075D01*
X102954560Y-121151000D01*
X102901750Y-121151000D01*
X102743000Y-121309750D01*
X102743000Y-122059000D01*
X102763000Y-122059000D01*
X102763000Y-122313000D01*
X102743000Y-122313000D01*
X102743000Y-122333000D01*
X102489000Y-122333000D01*
X102489000Y-120450755D01*
X102643244Y-120514803D01*
X102643244Y-120514803D01*
G37*
X102643244Y-120514803D02*
X102954560Y-120515075D01*
X102954560Y-121151000D01*
X102901750Y-121151000D01*
X102743000Y-121309750D01*
X102743000Y-122059000D01*
X102763000Y-122059000D01*
X102763000Y-122313000D01*
X102743000Y-122313000D01*
X102743000Y-122333000D01*
X102489000Y-122333000D01*
X102489000Y-120450755D01*
X102643244Y-120514803D01*
G36*
X125445184Y-121188815D02*
X125445187Y-121188817D01*
X125572185Y-121315815D01*
X125819395Y-121480996D01*
X125875532Y-121492162D01*
X125953184Y-121569815D01*
X125953187Y-121569817D01*
X126016685Y-121633316D01*
X126016688Y-121633318D01*
X126227185Y-121843815D01*
X126467117Y-122004133D01*
X126445000Y-122026250D01*
X126445000Y-122056310D01*
X126453468Y-122076753D01*
X126432560Y-122180000D01*
X126432560Y-122322579D01*
X126230000Y-122281560D01*
X125394974Y-122281560D01*
X125407440Y-122220000D01*
X125407440Y-121620000D01*
X125363162Y-121384683D01*
X125299322Y-121285472D01*
X125356431Y-121201890D01*
X125373579Y-121117210D01*
X125445184Y-121188815D01*
X125445184Y-121188815D01*
G37*
X125445184Y-121188815D02*
X125445187Y-121188817D01*
X125572185Y-121315815D01*
X125819395Y-121480996D01*
X125875532Y-121492162D01*
X125953184Y-121569815D01*
X125953187Y-121569817D01*
X126016685Y-121633316D01*
X126016688Y-121633318D01*
X126227185Y-121843815D01*
X126467117Y-122004133D01*
X126445000Y-122026250D01*
X126445000Y-122056310D01*
X126453468Y-122076753D01*
X126432560Y-122180000D01*
X126432560Y-122322579D01*
X126230000Y-122281560D01*
X125394974Y-122281560D01*
X125407440Y-122220000D01*
X125407440Y-121620000D01*
X125363162Y-121384683D01*
X125299322Y-121285472D01*
X125356431Y-121201890D01*
X125373579Y-121117210D01*
X125445184Y-121188815D01*
G36*
X106299000Y-118237000D02*
X106319000Y-118237000D01*
X106319000Y-118491000D01*
X106299000Y-118491000D01*
X106299000Y-118511000D01*
X106045000Y-118511000D01*
X106045000Y-118491000D01*
X106025000Y-118491000D01*
X106025000Y-118237000D01*
X106045000Y-118237000D01*
X106045000Y-118217000D01*
X106299000Y-118217000D01*
X106299000Y-118237000D01*
X106299000Y-118237000D01*
G37*
X106299000Y-118237000D02*
X106319000Y-118237000D01*
X106319000Y-118491000D01*
X106299000Y-118491000D01*
X106299000Y-118511000D01*
X106045000Y-118511000D01*
X106045000Y-118491000D01*
X106025000Y-118491000D01*
X106025000Y-118237000D01*
X106045000Y-118237000D01*
X106045000Y-118217000D01*
X106299000Y-118217000D01*
X106299000Y-118237000D01*
G36*
X107295410Y-114408541D02*
X107436815Y-114505159D01*
X107381673Y-114560301D01*
X107285000Y-114793690D01*
X107285000Y-115284250D01*
X107443750Y-115443000D01*
X108143000Y-115443000D01*
X108143000Y-115423000D01*
X108397000Y-115423000D01*
X108397000Y-115443000D01*
X108417000Y-115443000D01*
X108417000Y-115697000D01*
X108397000Y-115697000D01*
X108397000Y-116696250D01*
X108471500Y-116770750D01*
X108471500Y-117183160D01*
X108217500Y-117183160D01*
X108217500Y-116706650D01*
X108143000Y-116632150D01*
X108143000Y-115697000D01*
X107443750Y-115697000D01*
X107285000Y-115855750D01*
X107285000Y-116346310D01*
X107381673Y-116579699D01*
X107432856Y-116630881D01*
X107399801Y-116644573D01*
X107221173Y-116823202D01*
X107221130Y-116823305D01*
X107138310Y-116789000D01*
X106490406Y-116789000D01*
X106653441Y-116684090D01*
X106798431Y-116471890D01*
X106849440Y-116220000D01*
X106849440Y-114920000D01*
X106805162Y-114684683D01*
X106666090Y-114468559D01*
X106494037Y-114351000D01*
X107138310Y-114351000D01*
X107233114Y-114311731D01*
X107295410Y-114408541D01*
X107295410Y-114408541D01*
G37*
X107295410Y-114408541D02*
X107436815Y-114505159D01*
X107381673Y-114560301D01*
X107285000Y-114793690D01*
X107285000Y-115284250D01*
X107443750Y-115443000D01*
X108143000Y-115443000D01*
X108143000Y-115423000D01*
X108397000Y-115423000D01*
X108397000Y-115443000D01*
X108417000Y-115443000D01*
X108417000Y-115697000D01*
X108397000Y-115697000D01*
X108397000Y-116696250D01*
X108471500Y-116770750D01*
X108471500Y-117183160D01*
X108217500Y-117183160D01*
X108217500Y-116706650D01*
X108143000Y-116632150D01*
X108143000Y-115697000D01*
X107443750Y-115697000D01*
X107285000Y-115855750D01*
X107285000Y-116346310D01*
X107381673Y-116579699D01*
X107432856Y-116630881D01*
X107399801Y-116644573D01*
X107221173Y-116823202D01*
X107221130Y-116823305D01*
X107138310Y-116789000D01*
X106490406Y-116789000D01*
X106653441Y-116684090D01*
X106798431Y-116471890D01*
X106849440Y-116220000D01*
X106849440Y-114920000D01*
X106805162Y-114684683D01*
X106666090Y-114468559D01*
X106494037Y-114351000D01*
X107138310Y-114351000D01*
X107233114Y-114311731D01*
X107295410Y-114408541D01*
G36*
X102743000Y-116471000D02*
X102763000Y-116471000D01*
X102763000Y-116725000D01*
X102743000Y-116725000D01*
X102743000Y-116745000D01*
X102489000Y-116745000D01*
X102489000Y-116451000D01*
X102743000Y-116451000D01*
X102743000Y-116471000D01*
X102743000Y-116471000D01*
G37*
X102743000Y-116471000D02*
X102763000Y-116471000D01*
X102763000Y-116725000D01*
X102743000Y-116725000D01*
X102743000Y-116745000D01*
X102489000Y-116745000D01*
X102489000Y-116451000D01*
X102743000Y-116451000D01*
X102743000Y-116471000D01*
G36*
X106299000Y-112649000D02*
X106319000Y-112649000D01*
X106319000Y-112903000D01*
X106299000Y-112903000D01*
X106299000Y-112923000D01*
X106045000Y-112923000D01*
X106045000Y-112903000D01*
X106025000Y-112903000D01*
X106025000Y-112649000D01*
X106045000Y-112649000D01*
X106045000Y-112629000D01*
X106299000Y-112629000D01*
X106299000Y-112649000D01*
X106299000Y-112649000D01*
G37*
X106299000Y-112649000D02*
X106319000Y-112649000D01*
X106319000Y-112903000D01*
X106299000Y-112903000D01*
X106299000Y-112923000D01*
X106045000Y-112923000D01*
X106045000Y-112903000D01*
X106025000Y-112903000D01*
X106025000Y-112649000D01*
X106045000Y-112649000D01*
X106045000Y-112629000D01*
X106299000Y-112629000D01*
X106299000Y-112649000D01*
G36*
X117653283Y-138735283D02*
X117474337Y-139003094D01*
X117460393Y-139073197D01*
X117414455Y-139304145D01*
X117356765Y-139246355D01*
X116939756Y-139073197D01*
X116488225Y-139072803D01*
X116070914Y-139245233D01*
X115751355Y-139564235D01*
X115578197Y-139981244D01*
X115577803Y-140432775D01*
X115750233Y-140850086D01*
X116019560Y-141119883D01*
X116019560Y-141814000D01*
X116063838Y-142049317D01*
X116104817Y-142113000D01*
X108677446Y-142113000D01*
X109012223Y-141778223D01*
X109259994Y-141407407D01*
X109347000Y-140970000D01*
X109347000Y-139446000D01*
X109259994Y-139008593D01*
X109012223Y-138637777D01*
X108169446Y-137795000D01*
X118593566Y-137795000D01*
X117653283Y-138735283D01*
X117653283Y-138735283D01*
G37*
X117653283Y-138735283D02*
X117474337Y-139003094D01*
X117460393Y-139073197D01*
X117414455Y-139304145D01*
X117356765Y-139246355D01*
X116939756Y-139073197D01*
X116488225Y-139072803D01*
X116070914Y-139245233D01*
X115751355Y-139564235D01*
X115578197Y-139981244D01*
X115577803Y-140432775D01*
X115750233Y-140850086D01*
X116019560Y-141119883D01*
X116019560Y-141814000D01*
X116063838Y-142049317D01*
X116104817Y-142113000D01*
X108677446Y-142113000D01*
X109012223Y-141778223D01*
X109259994Y-141407407D01*
X109347000Y-140970000D01*
X109347000Y-139446000D01*
X109259994Y-139008593D01*
X109012223Y-138637777D01*
X108169446Y-137795000D01*
X118593566Y-137795000D01*
X117653283Y-138735283D01*
G36*
X138715750Y-129166000D02*
X138811000Y-129166000D01*
X138811000Y-134366000D01*
X138821006Y-134415410D01*
X138848197Y-134455803D01*
X140409394Y-136017000D01*
X128016000Y-136017000D01*
X127966590Y-136027006D01*
X127924965Y-136055447D01*
X127897685Y-136097841D01*
X127889000Y-136144000D01*
X127889000Y-140155394D01*
X126743322Y-141301072D01*
X126633250Y-141191000D01*
X125984000Y-141191000D01*
X125984000Y-141211000D01*
X125730000Y-141211000D01*
X125730000Y-141191000D01*
X125710000Y-141191000D01*
X125710000Y-140937000D01*
X125730000Y-140937000D01*
X125730000Y-139837750D01*
X125984000Y-139837750D01*
X125984000Y-140937000D01*
X126633250Y-140937000D01*
X126792000Y-140778250D01*
X126792000Y-140187691D01*
X126695327Y-139954302D01*
X126516699Y-139775673D01*
X126319523Y-139694000D01*
X126498309Y-139694000D01*
X126731698Y-139597327D01*
X126910327Y-139418699D01*
X127007000Y-139185310D01*
X127007000Y-138969750D01*
X126848250Y-138811000D01*
X126099000Y-138811000D01*
X126099000Y-139535250D01*
X126242750Y-139679000D01*
X126142750Y-139679000D01*
X125984000Y-139837750D01*
X125730000Y-139837750D01*
X125586250Y-139694000D01*
X125686250Y-139694000D01*
X125845000Y-139535250D01*
X125845000Y-138811000D01*
X125825000Y-138811000D01*
X125825000Y-138557000D01*
X125845000Y-138557000D01*
X125845000Y-138537000D01*
X126099000Y-138537000D01*
X126099000Y-138557000D01*
X126848250Y-138557000D01*
X127007000Y-138398250D01*
X127007000Y-138182690D01*
X126910327Y-137949301D01*
X126731698Y-137770673D01*
X126498309Y-137674000D01*
X126257750Y-137674000D01*
X126099002Y-137832748D01*
X126099002Y-137719308D01*
X126102315Y-137714159D01*
X126111000Y-137668000D01*
X126111000Y-136676434D01*
X130360683Y-132426750D01*
X132573000Y-132426750D01*
X132573000Y-132617309D01*
X132669673Y-132850698D01*
X132848301Y-133029327D01*
X133081690Y-133126000D01*
X133572250Y-133126000D01*
X133731000Y-132967250D01*
X133731000Y-132268000D01*
X132731750Y-132268000D01*
X132573000Y-132426750D01*
X130360683Y-132426750D01*
X132413716Y-130373717D01*
X132560560Y-130153951D01*
X132560560Y-130591000D01*
X132604838Y-130826317D01*
X132743910Y-131042441D01*
X132956110Y-131187431D01*
X132989490Y-131194191D01*
X132848301Y-131252673D01*
X132669673Y-131431302D01*
X132573000Y-131664691D01*
X132573000Y-131855250D01*
X132731750Y-132014000D01*
X133731000Y-132014000D01*
X133731000Y-131994000D01*
X133985000Y-131994000D01*
X133985000Y-132014000D01*
X134005000Y-132014000D01*
X134005000Y-132268000D01*
X133985000Y-132268000D01*
X133985000Y-132967250D01*
X134143750Y-133126000D01*
X134634310Y-133126000D01*
X134867699Y-133029327D01*
X135011879Y-132885146D01*
X135100110Y-132945431D01*
X135352000Y-132996440D01*
X136052000Y-132996440D01*
X136287317Y-132952162D01*
X136503441Y-132813090D01*
X136648431Y-132600890D01*
X136655191Y-132567510D01*
X136713673Y-132708699D01*
X136892302Y-132887327D01*
X137125691Y-132984000D01*
X137316250Y-132984000D01*
X137475000Y-132825250D01*
X137475000Y-131826000D01*
X137729000Y-131826000D01*
X137729000Y-132825250D01*
X137887750Y-132984000D01*
X138078309Y-132984000D01*
X138311698Y-132887327D01*
X138490327Y-132708699D01*
X138587000Y-132475310D01*
X138587000Y-131984750D01*
X138428250Y-131826000D01*
X137729000Y-131826000D01*
X137475000Y-131826000D01*
X137455000Y-131826000D01*
X137455000Y-131572000D01*
X137475000Y-131572000D01*
X137475000Y-130048000D01*
X137729000Y-130048000D01*
X137729000Y-131572000D01*
X138428250Y-131572000D01*
X138587000Y-131413250D01*
X138587000Y-130922690D01*
X138540322Y-130810000D01*
X138587000Y-130697310D01*
X138587000Y-130206750D01*
X138428250Y-130048000D01*
X137729000Y-130048000D01*
X137475000Y-130048000D01*
X137455000Y-130048000D01*
X137455000Y-129794000D01*
X137475000Y-129794000D01*
X137475000Y-129774000D01*
X137729000Y-129774000D01*
X137729000Y-129794000D01*
X138428250Y-129794000D01*
X138587000Y-129635250D01*
X138587000Y-129144690D01*
X138557002Y-129072269D01*
X138557002Y-129007252D01*
X138715750Y-129166000D01*
X138715750Y-129166000D01*
G37*
X138715750Y-129166000D02*
X138811000Y-129166000D01*
X138811000Y-134366000D01*
X138821006Y-134415410D01*
X138848197Y-134455803D01*
X140409394Y-136017000D01*
X128016000Y-136017000D01*
X127966590Y-136027006D01*
X127924965Y-136055447D01*
X127897685Y-136097841D01*
X127889000Y-136144000D01*
X127889000Y-140155394D01*
X126743322Y-141301072D01*
X126633250Y-141191000D01*
X125984000Y-141191000D01*
X125984000Y-141211000D01*
X125730000Y-141211000D01*
X125730000Y-141191000D01*
X125710000Y-141191000D01*
X125710000Y-140937000D01*
X125730000Y-140937000D01*
X125730000Y-139837750D01*
X125984000Y-139837750D01*
X125984000Y-140937000D01*
X126633250Y-140937000D01*
X126792000Y-140778250D01*
X126792000Y-140187691D01*
X126695327Y-139954302D01*
X126516699Y-139775673D01*
X126319523Y-139694000D01*
X126498309Y-139694000D01*
X126731698Y-139597327D01*
X126910327Y-139418699D01*
X127007000Y-139185310D01*
X127007000Y-138969750D01*
X126848250Y-138811000D01*
X126099000Y-138811000D01*
X126099000Y-139535250D01*
X126242750Y-139679000D01*
X126142750Y-139679000D01*
X125984000Y-139837750D01*
X125730000Y-139837750D01*
X125586250Y-139694000D01*
X125686250Y-139694000D01*
X125845000Y-139535250D01*
X125845000Y-138811000D01*
X125825000Y-138811000D01*
X125825000Y-138557000D01*
X125845000Y-138557000D01*
X125845000Y-138537000D01*
X126099000Y-138537000D01*
X126099000Y-138557000D01*
X126848250Y-138557000D01*
X127007000Y-138398250D01*
X127007000Y-138182690D01*
X126910327Y-137949301D01*
X126731698Y-137770673D01*
X126498309Y-137674000D01*
X126257750Y-137674000D01*
X126099002Y-137832748D01*
X126099002Y-137719308D01*
X126102315Y-137714159D01*
X126111000Y-137668000D01*
X126111000Y-136676434D01*
X130360683Y-132426750D01*
X132573000Y-132426750D01*
X132573000Y-132617309D01*
X132669673Y-132850698D01*
X132848301Y-133029327D01*
X133081690Y-133126000D01*
X133572250Y-133126000D01*
X133731000Y-132967250D01*
X133731000Y-132268000D01*
X132731750Y-132268000D01*
X132573000Y-132426750D01*
X130360683Y-132426750D01*
X132413716Y-130373717D01*
X132560560Y-130153951D01*
X132560560Y-130591000D01*
X132604838Y-130826317D01*
X132743910Y-131042441D01*
X132956110Y-131187431D01*
X132989490Y-131194191D01*
X132848301Y-131252673D01*
X132669673Y-131431302D01*
X132573000Y-131664691D01*
X132573000Y-131855250D01*
X132731750Y-132014000D01*
X133731000Y-132014000D01*
X133731000Y-131994000D01*
X133985000Y-131994000D01*
X133985000Y-132014000D01*
X134005000Y-132014000D01*
X134005000Y-132268000D01*
X133985000Y-132268000D01*
X133985000Y-132967250D01*
X134143750Y-133126000D01*
X134634310Y-133126000D01*
X134867699Y-133029327D01*
X135011879Y-132885146D01*
X135100110Y-132945431D01*
X135352000Y-132996440D01*
X136052000Y-132996440D01*
X136287317Y-132952162D01*
X136503441Y-132813090D01*
X136648431Y-132600890D01*
X136655191Y-132567510D01*
X136713673Y-132708699D01*
X136892302Y-132887327D01*
X137125691Y-132984000D01*
X137316250Y-132984000D01*
X137475000Y-132825250D01*
X137475000Y-131826000D01*
X137729000Y-131826000D01*
X137729000Y-132825250D01*
X137887750Y-132984000D01*
X138078309Y-132984000D01*
X138311698Y-132887327D01*
X138490327Y-132708699D01*
X138587000Y-132475310D01*
X138587000Y-131984750D01*
X138428250Y-131826000D01*
X137729000Y-131826000D01*
X137475000Y-131826000D01*
X137455000Y-131826000D01*
X137455000Y-131572000D01*
X137475000Y-131572000D01*
X137475000Y-130048000D01*
X137729000Y-130048000D01*
X137729000Y-131572000D01*
X138428250Y-131572000D01*
X138587000Y-131413250D01*
X138587000Y-130922690D01*
X138540322Y-130810000D01*
X138587000Y-130697310D01*
X138587000Y-130206750D01*
X138428250Y-130048000D01*
X137729000Y-130048000D01*
X137475000Y-130048000D01*
X137455000Y-130048000D01*
X137455000Y-129794000D01*
X137475000Y-129794000D01*
X137475000Y-129774000D01*
X137729000Y-129774000D01*
X137729000Y-129794000D01*
X138428250Y-129794000D01*
X138587000Y-129635250D01*
X138587000Y-129144690D01*
X138557002Y-129072269D01*
X138557002Y-129007252D01*
X138715750Y-129166000D01*
G36*
X127127000Y-128204000D02*
X127147000Y-128204000D01*
X127147000Y-128458000D01*
X127127000Y-128458000D01*
X127127000Y-129157250D01*
X127179158Y-129209408D01*
X126111000Y-130277566D01*
X126111000Y-129269322D01*
X126223690Y-129316000D01*
X126714250Y-129316000D01*
X126873000Y-129157250D01*
X126873000Y-128458000D01*
X126853000Y-128458000D01*
X126853000Y-128204000D01*
X126873000Y-128204000D01*
X126873000Y-128184000D01*
X127127000Y-128184000D01*
X127127000Y-128204000D01*
X127127000Y-128204000D01*
G37*
X127127000Y-128204000D02*
X127147000Y-128204000D01*
X127147000Y-128458000D01*
X127127000Y-128458000D01*
X127127000Y-129157250D01*
X127179158Y-129209408D01*
X126111000Y-130277566D01*
X126111000Y-129269322D01*
X126223690Y-129316000D01*
X126714250Y-129316000D01*
X126873000Y-129157250D01*
X126873000Y-128458000D01*
X126853000Y-128458000D01*
X126853000Y-128204000D01*
X126873000Y-128204000D01*
X126873000Y-128184000D01*
X127127000Y-128184000D01*
X127127000Y-128204000D01*
G36*
X135744185Y-127169816D02*
X135957427Y-127312300D01*
X135994329Y-127369646D01*
X135992673Y-127371302D01*
X135896000Y-127604691D01*
X135896000Y-127845250D01*
X136054750Y-128004000D01*
X136779000Y-128004000D01*
X136779000Y-127984000D01*
X137033000Y-127984000D01*
X137033000Y-128004000D01*
X138303000Y-128004000D01*
X138303000Y-127984000D01*
X138557000Y-127984000D01*
X138557000Y-128004000D01*
X138577000Y-128004000D01*
X138577000Y-128258000D01*
X138557000Y-128258000D01*
X138557000Y-128278000D01*
X138303000Y-128278000D01*
X138303000Y-128258000D01*
X137033000Y-128258000D01*
X137033000Y-128278000D01*
X136779000Y-128278000D01*
X136779000Y-128258000D01*
X136054750Y-128258000D01*
X135933690Y-128379060D01*
X135920815Y-128366185D01*
X135886116Y-128343000D01*
X135673605Y-128201004D01*
X135382000Y-128143000D01*
X135213879Y-128143000D01*
X135406441Y-128019090D01*
X135551431Y-127806890D01*
X135602440Y-127555000D01*
X135602440Y-127028071D01*
X135744185Y-127169816D01*
X135744185Y-127169816D01*
G37*
X135744185Y-127169816D02*
X135957427Y-127312300D01*
X135994329Y-127369646D01*
X135992673Y-127371302D01*
X135896000Y-127604691D01*
X135896000Y-127845250D01*
X136054750Y-128004000D01*
X136779000Y-128004000D01*
X136779000Y-127984000D01*
X137033000Y-127984000D01*
X137033000Y-128004000D01*
X138303000Y-128004000D01*
X138303000Y-127984000D01*
X138557000Y-127984000D01*
X138557000Y-128004000D01*
X138577000Y-128004000D01*
X138577000Y-128258000D01*
X138557000Y-128258000D01*
X138557000Y-128278000D01*
X138303000Y-128278000D01*
X138303000Y-128258000D01*
X137033000Y-128258000D01*
X137033000Y-128278000D01*
X136779000Y-128278000D01*
X136779000Y-128258000D01*
X136054750Y-128258000D01*
X135933690Y-128379060D01*
X135920815Y-128366185D01*
X135886116Y-128343000D01*
X135673605Y-128201004D01*
X135382000Y-128143000D01*
X135213879Y-128143000D01*
X135406441Y-128019090D01*
X135551431Y-127806890D01*
X135602440Y-127555000D01*
X135602440Y-127028071D01*
X135744185Y-127169816D01*
G36*
X125984000Y-146337000D02*
X126004000Y-146337000D01*
X126004000Y-146591000D01*
X125984000Y-146591000D01*
X125984000Y-147690250D01*
X126142750Y-147849000D01*
X126283310Y-147849000D01*
X126516699Y-147752327D01*
X126695327Y-147573698D01*
X126792000Y-147340309D01*
X126792000Y-146845236D01*
X129121764Y-149175000D01*
X118932025Y-149175000D01*
X119036327Y-149070699D01*
X119133000Y-148837310D01*
X119133000Y-148621750D01*
X118974250Y-148463000D01*
X118225000Y-148463000D01*
X118225000Y-148483000D01*
X117971000Y-148483000D01*
X117971000Y-148463000D01*
X117951000Y-148463000D01*
X117951000Y-148209000D01*
X117971000Y-148209000D01*
X117971000Y-148189000D01*
X118225000Y-148189000D01*
X118225000Y-148209000D01*
X118974250Y-148209000D01*
X119133000Y-148050250D01*
X119133000Y-147846455D01*
X119207000Y-147861440D01*
X119807000Y-147861440D01*
X120042317Y-147817162D01*
X120141528Y-147753322D01*
X120225110Y-147810431D01*
X120477000Y-147861440D01*
X121077000Y-147861440D01*
X121312317Y-147817162D01*
X121411528Y-147753322D01*
X121495110Y-147810431D01*
X121747000Y-147861440D01*
X122054970Y-147861440D01*
X122054803Y-148052775D01*
X122227233Y-148470086D01*
X122546235Y-148789645D01*
X122963244Y-148962803D01*
X123414775Y-148963197D01*
X123825495Y-148793490D01*
X124233244Y-148962803D01*
X124684775Y-148963197D01*
X125102086Y-148790767D01*
X125421645Y-148471765D01*
X125594803Y-148054756D01*
X125595003Y-147825247D01*
X125730000Y-147690250D01*
X125730000Y-146591000D01*
X125710000Y-146591000D01*
X125710000Y-146337000D01*
X125730000Y-146337000D01*
X125730000Y-146317000D01*
X125984000Y-146317000D01*
X125984000Y-146337000D01*
X125984000Y-146337000D01*
G37*
X125984000Y-146337000D02*
X126004000Y-146337000D01*
X126004000Y-146591000D01*
X125984000Y-146591000D01*
X125984000Y-147690250D01*
X126142750Y-147849000D01*
X126283310Y-147849000D01*
X126516699Y-147752327D01*
X126695327Y-147573698D01*
X126792000Y-147340309D01*
X126792000Y-146845236D01*
X129121764Y-149175000D01*
X118932025Y-149175000D01*
X119036327Y-149070699D01*
X119133000Y-148837310D01*
X119133000Y-148621750D01*
X118974250Y-148463000D01*
X118225000Y-148463000D01*
X118225000Y-148483000D01*
X117971000Y-148483000D01*
X117971000Y-148463000D01*
X117951000Y-148463000D01*
X117951000Y-148209000D01*
X117971000Y-148209000D01*
X117971000Y-148189000D01*
X118225000Y-148189000D01*
X118225000Y-148209000D01*
X118974250Y-148209000D01*
X119133000Y-148050250D01*
X119133000Y-147846455D01*
X119207000Y-147861440D01*
X119807000Y-147861440D01*
X120042317Y-147817162D01*
X120141528Y-147753322D01*
X120225110Y-147810431D01*
X120477000Y-147861440D01*
X121077000Y-147861440D01*
X121312317Y-147817162D01*
X121411528Y-147753322D01*
X121495110Y-147810431D01*
X121747000Y-147861440D01*
X122054970Y-147861440D01*
X122054803Y-148052775D01*
X122227233Y-148470086D01*
X122546235Y-148789645D01*
X122963244Y-148962803D01*
X123414775Y-148963197D01*
X123825495Y-148793490D01*
X124233244Y-148962803D01*
X124684775Y-148963197D01*
X125102086Y-148790767D01*
X125421645Y-148471765D01*
X125594803Y-148054756D01*
X125595003Y-147825247D01*
X125730000Y-147690250D01*
X125730000Y-146591000D01*
X125710000Y-146591000D01*
X125710000Y-146337000D01*
X125730000Y-146337000D01*
X125730000Y-146317000D01*
X125984000Y-146317000D01*
X125984000Y-146337000D01*
G36*
X143493319Y-139100925D02*
X143373000Y-139076560D01*
X142123000Y-139076560D01*
X142099403Y-139081000D01*
X139700440Y-139081000D01*
X139700440Y-138498000D01*
X139656162Y-138262683D01*
X139517090Y-138046559D01*
X139304890Y-137901569D01*
X139053000Y-137850560D01*
X137553000Y-137850560D01*
X137317683Y-137894838D01*
X137101559Y-138033910D01*
X137033266Y-138133860D01*
X136977090Y-138046559D01*
X136764890Y-137901569D01*
X136513000Y-137850560D01*
X135013000Y-137850560D01*
X134777683Y-137894838D01*
X134561559Y-138033910D01*
X134493266Y-138133860D01*
X134437090Y-138046559D01*
X134224890Y-137901569D01*
X133973000Y-137850560D01*
X132473000Y-137850560D01*
X132237683Y-137894838D01*
X132021559Y-138033910D01*
X131958795Y-138125769D01*
X131792698Y-137959673D01*
X131559309Y-137863000D01*
X130968750Y-137863000D01*
X130810000Y-138021750D01*
X130810000Y-140121000D01*
X130830000Y-140121000D01*
X130830000Y-140375000D01*
X130810000Y-140375000D01*
X130810000Y-142474250D01*
X130968750Y-142633000D01*
X131559309Y-142633000D01*
X131792698Y-142536327D01*
X131958275Y-142370751D01*
X132008910Y-142449441D01*
X132221110Y-142594431D01*
X132473000Y-142645440D01*
X133973000Y-142645440D01*
X134208317Y-142601162D01*
X134424441Y-142462090D01*
X134492734Y-142362140D01*
X134548910Y-142449441D01*
X134761110Y-142594431D01*
X135013000Y-142645440D01*
X136513000Y-142645440D01*
X136748317Y-142601162D01*
X136964441Y-142462090D01*
X137032734Y-142362140D01*
X137088910Y-142449441D01*
X137301110Y-142594431D01*
X137553000Y-142645440D01*
X139053000Y-142645440D01*
X139288317Y-142601162D01*
X139430375Y-142509750D01*
X141488000Y-142509750D01*
X141488000Y-142850309D01*
X141584673Y-143083698D01*
X141763301Y-143262327D01*
X141996690Y-143359000D01*
X142462250Y-143359000D01*
X142621000Y-143200250D01*
X142621000Y-142351000D01*
X141646750Y-142351000D01*
X141488000Y-142509750D01*
X139430375Y-142509750D01*
X139504441Y-142462090D01*
X139649431Y-142249890D01*
X139700440Y-141998000D01*
X139700440Y-141367000D01*
X141583555Y-141367000D01*
X141488000Y-141597691D01*
X141488000Y-141938250D01*
X141646750Y-142097000D01*
X142621000Y-142097000D01*
X142621000Y-142077000D01*
X142875000Y-142077000D01*
X142875000Y-142097000D01*
X142895000Y-142097000D01*
X142895000Y-142351000D01*
X142875000Y-142351000D01*
X142875000Y-143200250D01*
X143033750Y-143359000D01*
X143499310Y-143359000D01*
X143637000Y-143301967D01*
X143637000Y-144210569D01*
X143624560Y-144272000D01*
X143624560Y-146304000D01*
X143637000Y-146370113D01*
X143637000Y-146750569D01*
X143624560Y-146812000D01*
X143624560Y-148844000D01*
X143637000Y-148910113D01*
X143637000Y-149175000D01*
X136562236Y-149175000D01*
X137661618Y-148075618D01*
X137854329Y-147787206D01*
X137886398Y-147625984D01*
X138018317Y-147601162D01*
X138234441Y-147462090D01*
X138297205Y-147370231D01*
X138463302Y-147536327D01*
X138696691Y-147633000D01*
X139287250Y-147633000D01*
X139446000Y-147474250D01*
X139446000Y-145375000D01*
X139700000Y-145375000D01*
X139700000Y-147474250D01*
X139858750Y-147633000D01*
X140449309Y-147633000D01*
X140682698Y-147536327D01*
X140861327Y-147357699D01*
X140958000Y-147124310D01*
X140958000Y-145533750D01*
X140799250Y-145375000D01*
X139700000Y-145375000D01*
X139446000Y-145375000D01*
X139426000Y-145375000D01*
X139426000Y-145121000D01*
X139446000Y-145121000D01*
X139446000Y-143021750D01*
X139700000Y-143021750D01*
X139700000Y-145121000D01*
X140799250Y-145121000D01*
X140958000Y-144962250D01*
X140958000Y-143371690D01*
X140861327Y-143138301D01*
X140682698Y-142959673D01*
X140449309Y-142863000D01*
X139858750Y-142863000D01*
X139700000Y-143021750D01*
X139446000Y-143021750D01*
X139287250Y-142863000D01*
X138696691Y-142863000D01*
X138463302Y-142959673D01*
X138297725Y-143125249D01*
X138247090Y-143046559D01*
X138034890Y-142901569D01*
X137783000Y-142850560D01*
X136283000Y-142850560D01*
X136047683Y-142894838D01*
X135831559Y-143033910D01*
X135763266Y-143133860D01*
X135707090Y-143046559D01*
X135494890Y-142901569D01*
X135243000Y-142850560D01*
X133743000Y-142850560D01*
X133507683Y-142894838D01*
X133291559Y-143033910D01*
X133223266Y-143133860D01*
X133167090Y-143046559D01*
X132954890Y-142901569D01*
X132703000Y-142850560D01*
X131203000Y-142850560D01*
X130967683Y-142894838D01*
X130900381Y-142938145D01*
X130843618Y-142881382D01*
X130757316Y-142823717D01*
X130555206Y-142688671D01*
X130275328Y-142633000D01*
X130397250Y-142633000D01*
X130556000Y-142474250D01*
X130556000Y-140375000D01*
X129456750Y-140375000D01*
X129298000Y-140533750D01*
X129298000Y-142124310D01*
X129394673Y-142357699D01*
X129573302Y-142536327D01*
X129777720Y-142621000D01*
X126544606Y-142621000D01*
X128613803Y-140551803D01*
X128641666Y-140509789D01*
X128651000Y-140462000D01*
X128651000Y-138371690D01*
X129298000Y-138371690D01*
X129298000Y-139962250D01*
X129456750Y-140121000D01*
X130556000Y-140121000D01*
X130556000Y-138021750D01*
X130397250Y-137863000D01*
X129806691Y-137863000D01*
X129573302Y-137959673D01*
X129394673Y-138138301D01*
X129298000Y-138371690D01*
X128651000Y-138371690D01*
X128651000Y-136779000D01*
X141171394Y-136779000D01*
X143493319Y-139100925D01*
X143493319Y-139100925D01*
G37*
X143493319Y-139100925D02*
X143373000Y-139076560D01*
X142123000Y-139076560D01*
X142099403Y-139081000D01*
X139700440Y-139081000D01*
X139700440Y-138498000D01*
X139656162Y-138262683D01*
X139517090Y-138046559D01*
X139304890Y-137901569D01*
X139053000Y-137850560D01*
X137553000Y-137850560D01*
X137317683Y-137894838D01*
X137101559Y-138033910D01*
X137033266Y-138133860D01*
X136977090Y-138046559D01*
X136764890Y-137901569D01*
X136513000Y-137850560D01*
X135013000Y-137850560D01*
X134777683Y-137894838D01*
X134561559Y-138033910D01*
X134493266Y-138133860D01*
X134437090Y-138046559D01*
X134224890Y-137901569D01*
X133973000Y-137850560D01*
X132473000Y-137850560D01*
X132237683Y-137894838D01*
X132021559Y-138033910D01*
X131958795Y-138125769D01*
X131792698Y-137959673D01*
X131559309Y-137863000D01*
X130968750Y-137863000D01*
X130810000Y-138021750D01*
X130810000Y-140121000D01*
X130830000Y-140121000D01*
X130830000Y-140375000D01*
X130810000Y-140375000D01*
X130810000Y-142474250D01*
X130968750Y-142633000D01*
X131559309Y-142633000D01*
X131792698Y-142536327D01*
X131958275Y-142370751D01*
X132008910Y-142449441D01*
X132221110Y-142594431D01*
X132473000Y-142645440D01*
X133973000Y-142645440D01*
X134208317Y-142601162D01*
X134424441Y-142462090D01*
X134492734Y-142362140D01*
X134548910Y-142449441D01*
X134761110Y-142594431D01*
X135013000Y-142645440D01*
X136513000Y-142645440D01*
X136748317Y-142601162D01*
X136964441Y-142462090D01*
X137032734Y-142362140D01*
X137088910Y-142449441D01*
X137301110Y-142594431D01*
X137553000Y-142645440D01*
X139053000Y-142645440D01*
X139288317Y-142601162D01*
X139430375Y-142509750D01*
X141488000Y-142509750D01*
X141488000Y-142850309D01*
X141584673Y-143083698D01*
X141763301Y-143262327D01*
X141996690Y-143359000D01*
X142462250Y-143359000D01*
X142621000Y-143200250D01*
X142621000Y-142351000D01*
X141646750Y-142351000D01*
X141488000Y-142509750D01*
X139430375Y-142509750D01*
X139504441Y-142462090D01*
X139649431Y-142249890D01*
X139700440Y-141998000D01*
X139700440Y-141367000D01*
X141583555Y-141367000D01*
X141488000Y-141597691D01*
X141488000Y-141938250D01*
X141646750Y-142097000D01*
X142621000Y-142097000D01*
X142621000Y-142077000D01*
X142875000Y-142077000D01*
X142875000Y-142097000D01*
X142895000Y-142097000D01*
X142895000Y-142351000D01*
X142875000Y-142351000D01*
X142875000Y-143200250D01*
X143033750Y-143359000D01*
X143499310Y-143359000D01*
X143637000Y-143301967D01*
X143637000Y-144210569D01*
X143624560Y-144272000D01*
X143624560Y-146304000D01*
X143637000Y-146370113D01*
X143637000Y-146750569D01*
X143624560Y-146812000D01*
X143624560Y-148844000D01*
X143637000Y-148910113D01*
X143637000Y-149175000D01*
X136562236Y-149175000D01*
X137661618Y-148075618D01*
X137854329Y-147787206D01*
X137886398Y-147625984D01*
X138018317Y-147601162D01*
X138234441Y-147462090D01*
X138297205Y-147370231D01*
X138463302Y-147536327D01*
X138696691Y-147633000D01*
X139287250Y-147633000D01*
X139446000Y-147474250D01*
X139446000Y-145375000D01*
X139700000Y-145375000D01*
X139700000Y-147474250D01*
X139858750Y-147633000D01*
X140449309Y-147633000D01*
X140682698Y-147536327D01*
X140861327Y-147357699D01*
X140958000Y-147124310D01*
X140958000Y-145533750D01*
X140799250Y-145375000D01*
X139700000Y-145375000D01*
X139446000Y-145375000D01*
X139426000Y-145375000D01*
X139426000Y-145121000D01*
X139446000Y-145121000D01*
X139446000Y-143021750D01*
X139700000Y-143021750D01*
X139700000Y-145121000D01*
X140799250Y-145121000D01*
X140958000Y-144962250D01*
X140958000Y-143371690D01*
X140861327Y-143138301D01*
X140682698Y-142959673D01*
X140449309Y-142863000D01*
X139858750Y-142863000D01*
X139700000Y-143021750D01*
X139446000Y-143021750D01*
X139287250Y-142863000D01*
X138696691Y-142863000D01*
X138463302Y-142959673D01*
X138297725Y-143125249D01*
X138247090Y-143046559D01*
X138034890Y-142901569D01*
X137783000Y-142850560D01*
X136283000Y-142850560D01*
X136047683Y-142894838D01*
X135831559Y-143033910D01*
X135763266Y-143133860D01*
X135707090Y-143046559D01*
X135494890Y-142901569D01*
X135243000Y-142850560D01*
X133743000Y-142850560D01*
X133507683Y-142894838D01*
X133291559Y-143033910D01*
X133223266Y-143133860D01*
X133167090Y-143046559D01*
X132954890Y-142901569D01*
X132703000Y-142850560D01*
X131203000Y-142850560D01*
X130967683Y-142894838D01*
X130900381Y-142938145D01*
X130843618Y-142881382D01*
X130757316Y-142823717D01*
X130555206Y-142688671D01*
X130275328Y-142633000D01*
X130397250Y-142633000D01*
X130556000Y-142474250D01*
X130556000Y-140375000D01*
X129456750Y-140375000D01*
X129298000Y-140533750D01*
X129298000Y-142124310D01*
X129394673Y-142357699D01*
X129573302Y-142536327D01*
X129777720Y-142621000D01*
X126544606Y-142621000D01*
X128613803Y-140551803D01*
X128641666Y-140509789D01*
X128651000Y-140462000D01*
X128651000Y-138371690D01*
X129298000Y-138371690D01*
X129298000Y-139962250D01*
X129456750Y-140121000D01*
X130556000Y-140121000D01*
X130556000Y-138021750D01*
X130397250Y-137863000D01*
X129806691Y-137863000D01*
X129573302Y-137959673D01*
X129394673Y-138138301D01*
X129298000Y-138371690D01*
X128651000Y-138371690D01*
X128651000Y-136779000D01*
X141171394Y-136779000D01*
X143493319Y-139100925D01*
G36*
X110625110Y-147034431D02*
X110877000Y-147085440D01*
X111627000Y-147085440D01*
X111645915Y-147081881D01*
X111641197Y-147093244D01*
X111640803Y-147544775D01*
X111813233Y-147962086D01*
X112132235Y-148281645D01*
X112549244Y-148454803D01*
X113000775Y-148455197D01*
X113418086Y-148282767D01*
X113737645Y-147963765D01*
X113910803Y-147546756D01*
X113911015Y-147304334D01*
X113952910Y-147369441D01*
X114165110Y-147514431D01*
X114417000Y-147565440D01*
X114636742Y-147565440D01*
X114649169Y-147595515D01*
X115038436Y-147985461D01*
X115547298Y-148196759D01*
X115550560Y-148196762D01*
X115550560Y-148711000D01*
X115594838Y-148946317D01*
X115733910Y-149162441D01*
X115752291Y-149175000D01*
X110617000Y-149175000D01*
X110617000Y-147028890D01*
X110625110Y-147034431D01*
X110625110Y-147034431D01*
G37*
X110625110Y-147034431D02*
X110877000Y-147085440D01*
X111627000Y-147085440D01*
X111645915Y-147081881D01*
X111641197Y-147093244D01*
X111640803Y-147544775D01*
X111813233Y-147962086D01*
X112132235Y-148281645D01*
X112549244Y-148454803D01*
X113000775Y-148455197D01*
X113418086Y-148282767D01*
X113737645Y-147963765D01*
X113910803Y-147546756D01*
X113911015Y-147304334D01*
X113952910Y-147369441D01*
X114165110Y-147514431D01*
X114417000Y-147565440D01*
X114636742Y-147565440D01*
X114649169Y-147595515D01*
X115038436Y-147985461D01*
X115547298Y-148196759D01*
X115550560Y-148196762D01*
X115550560Y-148711000D01*
X115594838Y-148946317D01*
X115733910Y-149162441D01*
X115752291Y-149175000D01*
X110617000Y-149175000D01*
X110617000Y-147028890D01*
X110625110Y-147034431D01*
G36*
X118497382Y-142881382D02*
X117608382Y-143770382D01*
X117527788Y-143891000D01*
X116332000Y-143891000D01*
X115991794Y-143958671D01*
X115714440Y-144143993D01*
X115714440Y-143658000D01*
X115670162Y-143422683D01*
X115531090Y-143206559D01*
X115318890Y-143061569D01*
X115067000Y-143010560D01*
X114417000Y-143010560D01*
X114261493Y-143039821D01*
X114117000Y-143010560D01*
X113467000Y-143010560D01*
X113326914Y-143036919D01*
X113293310Y-143023000D01*
X113127750Y-143023000D01*
X112969000Y-143181750D01*
X112969000Y-143262051D01*
X112870569Y-143406110D01*
X112819560Y-143658000D01*
X112819560Y-144335000D01*
X112715000Y-144335000D01*
X112715000Y-144315000D01*
X112695000Y-144315000D01*
X112695000Y-144061000D01*
X112715000Y-144061000D01*
X112715000Y-143181750D01*
X112556250Y-143023000D01*
X112390690Y-143023000D01*
X112157301Y-143119673D01*
X111978673Y-143298302D01*
X111882000Y-143531691D01*
X111882000Y-143556305D01*
X111753310Y-143503000D01*
X111537750Y-143503000D01*
X111379000Y-143661750D01*
X111379000Y-144411000D01*
X111399000Y-144411000D01*
X111399000Y-144642265D01*
X111373382Y-144659382D01*
X111347764Y-144685000D01*
X111125000Y-144685000D01*
X111125000Y-144665000D01*
X111105000Y-144665000D01*
X111105000Y-144411000D01*
X111125000Y-144411000D01*
X111125000Y-143661750D01*
X110966250Y-143503000D01*
X110750690Y-143503000D01*
X110617000Y-143558376D01*
X110617000Y-142875000D01*
X118506933Y-142875000D01*
X118497382Y-142881382D01*
X118497382Y-142881382D01*
G37*
X118497382Y-142881382D02*
X117608382Y-143770382D01*
X117527788Y-143891000D01*
X116332000Y-143891000D01*
X115991794Y-143958671D01*
X115714440Y-144143993D01*
X115714440Y-143658000D01*
X115670162Y-143422683D01*
X115531090Y-143206559D01*
X115318890Y-143061569D01*
X115067000Y-143010560D01*
X114417000Y-143010560D01*
X114261493Y-143039821D01*
X114117000Y-143010560D01*
X113467000Y-143010560D01*
X113326914Y-143036919D01*
X113293310Y-143023000D01*
X113127750Y-143023000D01*
X112969000Y-143181750D01*
X112969000Y-143262051D01*
X112870569Y-143406110D01*
X112819560Y-143658000D01*
X112819560Y-144335000D01*
X112715000Y-144335000D01*
X112715000Y-144315000D01*
X112695000Y-144315000D01*
X112695000Y-144061000D01*
X112715000Y-144061000D01*
X112715000Y-143181750D01*
X112556250Y-143023000D01*
X112390690Y-143023000D01*
X112157301Y-143119673D01*
X111978673Y-143298302D01*
X111882000Y-143531691D01*
X111882000Y-143556305D01*
X111753310Y-143503000D01*
X111537750Y-143503000D01*
X111379000Y-143661750D01*
X111379000Y-144411000D01*
X111399000Y-144411000D01*
X111399000Y-144642265D01*
X111373382Y-144659382D01*
X111347764Y-144685000D01*
X111125000Y-144685000D01*
X111125000Y-144665000D01*
X111105000Y-144665000D01*
X111105000Y-144411000D01*
X111125000Y-144411000D01*
X111125000Y-143661750D01*
X110966250Y-143503000D01*
X110750690Y-143503000D01*
X110617000Y-143558376D01*
X110617000Y-142875000D01*
X118506933Y-142875000D01*
X118497382Y-142881382D01*
M02*
