G04 #@! TF.FileFunction,Copper,L1,Top,Signal*
%FSLAX46Y46*%
G04 Gerber Fmt 4.6, Leading zero omitted, Abs format (unit mm)*
G04 Created by KiCad (PCBNEW 4.0.2-4+6225~38~ubuntu14.04.1-stable) date Wed 23 Mar 2016 15:36:34 GMT*
%MOMM*%
G01*
G04 APERTURE LIST*
%ADD10C,0.100000*%
%ADD11C,2.800000*%
%ADD12R,0.406400X1.170000*%
%ADD13R,1.880000X1.680000*%
%ADD14R,0.800000X0.750000*%
%ADD15R,0.700000X1.300000*%
%ADD16R,0.750000X0.800000*%
%ADD17R,1.727200X1.727200*%
%ADD18O,1.727200X1.727200*%
%ADD19R,0.450000X1.450000*%
%ADD20R,1.300000X0.700000*%
%ADD21R,0.600000X1.550000*%
%ADD22R,1.450000X0.450000*%
%ADD23R,1.500000X3.500000*%
%ADD24R,1.060000X0.650000*%
%ADD25R,0.250000X1.300000*%
%ADD26R,1.300000X0.250000*%
%ADD27R,0.650000X1.060000*%
%ADD28R,0.600000X1.500000*%
%ADD29R,1.000000X2.500000*%
%ADD30R,2.032000X2.032000*%
%ADD31O,2.032000X2.032000*%
%ADD32R,0.500000X0.800000*%
%ADD33R,0.400000X0.800000*%
%ADD34R,0.800100X0.800100*%
%ADD35O,2.500000X1.500000*%
%ADD36O,1.500000X2.500000*%
%ADD37R,0.500000X0.900000*%
%ADD38R,0.900000X0.500000*%
%ADD39R,1.000000X1.250000*%
%ADD40C,1.000000*%
%ADD41C,1.500000*%
%ADD42C,0.889000*%
%ADD43C,1.016000*%
%ADD44C,0.381000*%
%ADD45C,0.768000*%
%ADD46C,0.508000*%
%ADD47C,0.254000*%
%ADD48C,2.000000*%
%ADD49C,1.500000*%
G04 APERTURE END LIST*
D10*
D11*
X144272000Y-104648000D03*
X146972000Y-101948000D03*
X141572000Y-101948000D03*
X141572000Y-107348000D03*
X146972000Y-107348000D03*
D12*
X148551900Y-136511500D03*
X147904200Y-136511500D03*
X147243800Y-136511500D03*
X146596100Y-136511500D03*
X146596100Y-140856500D03*
X147243800Y-140856500D03*
X147904200Y-140856500D03*
X148551900Y-140856500D03*
D13*
X147574000Y-138684000D03*
D14*
X147181000Y-131191000D03*
X145681000Y-131191000D03*
D15*
X109032000Y-155448000D03*
X110932000Y-155448000D03*
D16*
X110236000Y-146546000D03*
X110236000Y-145046000D03*
D14*
X109232000Y-153924000D03*
X110732000Y-153924000D03*
D12*
X109004100Y-152286500D03*
X109651800Y-152286500D03*
X110312200Y-152286500D03*
X110959900Y-152286500D03*
X110959900Y-147941500D03*
X110312200Y-147941500D03*
X109651800Y-147941500D03*
X109004100Y-147941500D03*
D13*
X109982000Y-150114000D03*
D12*
X148551900Y-125335500D03*
X147904200Y-125335500D03*
X147243800Y-125335500D03*
X146596100Y-125335500D03*
X146596100Y-129680500D03*
X147243800Y-129680500D03*
X147904200Y-129680500D03*
X148551900Y-129680500D03*
D13*
X147574000Y-127508000D03*
D14*
X148324000Y-123698000D03*
X146824000Y-123698000D03*
D15*
X148524000Y-122428000D03*
X146624000Y-122428000D03*
D14*
X148324000Y-134874000D03*
X146824000Y-134874000D03*
X147308000Y-142240000D03*
X145808000Y-142240000D03*
D15*
X148524000Y-133350000D03*
X146624000Y-133350000D03*
D10*
G36*
X130306000Y-145372000D02*
X129406000Y-144772000D01*
X129406000Y-143772000D01*
X130306000Y-143172000D01*
X130306000Y-145372000D01*
X130306000Y-145372000D01*
G37*
G36*
X130806000Y-143172000D02*
X131706000Y-143772000D01*
X131706000Y-144772000D01*
X130806000Y-145372000D01*
X130806000Y-143172000D01*
X130806000Y-143172000D01*
G37*
D17*
X103886000Y-140208000D03*
D18*
X106426000Y-140208000D03*
X103886000Y-142748000D03*
X106426000Y-142748000D03*
X103886000Y-145288000D03*
X106426000Y-145288000D03*
X103886000Y-147828000D03*
X106426000Y-147828000D03*
D12*
X105117900Y-128383500D03*
X104470200Y-128383500D03*
X103809800Y-128383500D03*
X103162100Y-128383500D03*
X103162100Y-132728500D03*
X103809800Y-132728500D03*
X104470200Y-132728500D03*
X105117900Y-132728500D03*
D13*
X104140000Y-130556000D03*
D14*
X147054000Y-116840000D03*
X145554000Y-116840000D03*
X147054000Y-118364000D03*
X145554000Y-118364000D03*
X140728000Y-109982000D03*
X142228000Y-109982000D03*
D19*
X142027000Y-117770000D03*
X142677000Y-117770000D03*
X143327000Y-117770000D03*
X143977000Y-117770000D03*
X143977000Y-113370000D03*
X143327000Y-113370000D03*
X142677000Y-113370000D03*
X142027000Y-113370000D03*
D15*
X142682000Y-119888000D03*
X140782000Y-119888000D03*
D14*
X140728000Y-111506000D03*
X142228000Y-111506000D03*
X128536000Y-111506000D03*
X130036000Y-111506000D03*
D20*
X105156000Y-109794000D03*
X105156000Y-111694000D03*
D14*
X108446000Y-120396000D03*
X106946000Y-120396000D03*
X108446000Y-118872000D03*
X106946000Y-118872000D03*
D16*
X107188000Y-115582000D03*
X107188000Y-117082000D03*
D14*
X101358000Y-110236000D03*
X102858000Y-110236000D03*
D21*
X101727000Y-119032000D03*
X102997000Y-119032000D03*
X104267000Y-119032000D03*
X105537000Y-119032000D03*
X105537000Y-113632000D03*
X104267000Y-113632000D03*
X102997000Y-113632000D03*
X101727000Y-113632000D03*
D14*
X101358000Y-111760000D03*
X102858000Y-111760000D03*
X113550000Y-111760000D03*
X115050000Y-111760000D03*
D22*
X120736000Y-123739000D03*
X120736000Y-124389000D03*
X120736000Y-125039000D03*
X120736000Y-125689000D03*
X125136000Y-125689000D03*
X125136000Y-125039000D03*
X125136000Y-124389000D03*
X125136000Y-123739000D03*
D23*
X134493000Y-153456000D03*
X135763000Y-158456000D03*
X137033000Y-153456000D03*
X138303000Y-158456000D03*
X139573000Y-153456000D03*
X140843000Y-158456000D03*
X142113000Y-153456000D03*
X143383000Y-158456000D03*
D24*
X113114000Y-160462000D03*
X113114000Y-159512000D03*
X113114000Y-158562000D03*
X110914000Y-158562000D03*
X110914000Y-160462000D03*
X110914000Y-159512000D03*
D15*
X130622000Y-119888000D03*
X132522000Y-119888000D03*
X110678000Y-125222000D03*
X108778000Y-125222000D03*
X105090000Y-125222000D03*
X103190000Y-125222000D03*
D25*
X125266000Y-141383000D03*
X125766000Y-141383000D03*
X126266000Y-141383000D03*
X126766000Y-141383000D03*
X127266000Y-141383000D03*
X127766000Y-141383000D03*
X128266000Y-141383000D03*
X128766000Y-141383000D03*
X129266000Y-141383000D03*
X129766000Y-141383000D03*
X130266000Y-141383000D03*
X130766000Y-141383000D03*
D26*
X132366000Y-139783000D03*
X132366000Y-139283000D03*
X132366000Y-138783000D03*
X132366000Y-138283000D03*
X132366000Y-137783000D03*
X132366000Y-137283000D03*
X132366000Y-136783000D03*
X132366000Y-136283000D03*
X132366000Y-135783000D03*
X132366000Y-135283000D03*
X132366000Y-134783000D03*
X132366000Y-134283000D03*
D25*
X130766000Y-132683000D03*
X130266000Y-132683000D03*
X129766000Y-132683000D03*
X129266000Y-132683000D03*
X128766000Y-132683000D03*
X128266000Y-132683000D03*
X127766000Y-132683000D03*
X127266000Y-132683000D03*
X126766000Y-132683000D03*
X126266000Y-132683000D03*
X125766000Y-132683000D03*
X125266000Y-132683000D03*
D26*
X123666000Y-134283000D03*
X123666000Y-134783000D03*
X123666000Y-135283000D03*
X123666000Y-135783000D03*
X123666000Y-136283000D03*
X123666000Y-136783000D03*
X123666000Y-137283000D03*
X123666000Y-137783000D03*
X123666000Y-138283000D03*
X123666000Y-138783000D03*
X123666000Y-139283000D03*
X123666000Y-139783000D03*
D19*
X129835000Y-117770000D03*
X130485000Y-117770000D03*
X131135000Y-117770000D03*
X131785000Y-117770000D03*
X131785000Y-113370000D03*
X131135000Y-113370000D03*
X130485000Y-113370000D03*
X129835000Y-113370000D03*
D21*
X113919000Y-119032000D03*
X115189000Y-119032000D03*
X116459000Y-119032000D03*
X117729000Y-119032000D03*
X117729000Y-113632000D03*
X116459000Y-113632000D03*
X115189000Y-113632000D03*
X113919000Y-113632000D03*
D27*
X118552000Y-157396000D03*
X117602000Y-157396000D03*
X116652000Y-157396000D03*
X116652000Y-159596000D03*
X118552000Y-159596000D03*
D28*
X120777000Y-159672000D03*
X122047000Y-159672000D03*
X123317000Y-159672000D03*
X124587000Y-159672000D03*
X125857000Y-159672000D03*
X127127000Y-159672000D03*
X128397000Y-159672000D03*
X129667000Y-159672000D03*
X129667000Y-154272000D03*
X128397000Y-154272000D03*
X127127000Y-154272000D03*
X125857000Y-154272000D03*
X124587000Y-154272000D03*
X123317000Y-154272000D03*
X122047000Y-154272000D03*
X120777000Y-154272000D03*
D16*
X123190000Y-131560000D03*
X123190000Y-130060000D03*
X132842000Y-131560000D03*
X132842000Y-130060000D03*
D14*
X124980000Y-131318000D03*
X126480000Y-131318000D03*
X131052000Y-131318000D03*
X129552000Y-131318000D03*
X125972000Y-130048000D03*
X124472000Y-130048000D03*
X130060000Y-130048000D03*
X131560000Y-130048000D03*
D16*
X131826000Y-140982000D03*
X131826000Y-142482000D03*
D14*
X128536000Y-109982000D03*
X130036000Y-109982000D03*
X134862000Y-118364000D03*
X133362000Y-118364000D03*
X113550000Y-110236000D03*
X115050000Y-110236000D03*
D16*
X119380000Y-115582000D03*
X119380000Y-117082000D03*
D14*
X120638000Y-118872000D03*
X119138000Y-118872000D03*
X120638000Y-120396000D03*
X119138000Y-120396000D03*
X130568000Y-124206000D03*
X132068000Y-124206000D03*
X125210000Y-127254000D03*
X123710000Y-127254000D03*
X109335000Y-133985000D03*
X107835000Y-133985000D03*
X110478000Y-126746000D03*
X108978000Y-126746000D03*
D16*
X114300000Y-158000000D03*
X114300000Y-159500000D03*
D14*
X103874000Y-134112000D03*
X102374000Y-134112000D03*
X104890000Y-126746000D03*
X103390000Y-126746000D03*
D10*
G36*
X122512000Y-135378000D02*
X121912000Y-136278000D01*
X120912000Y-136278000D01*
X120312000Y-135378000D01*
X122512000Y-135378000D01*
X122512000Y-135378000D01*
G37*
G36*
X120312000Y-134878000D02*
X120912000Y-133978000D01*
X121912000Y-133978000D01*
X122512000Y-134878000D01*
X120312000Y-134878000D01*
X120312000Y-134878000D01*
G37*
G36*
X120312000Y-138180000D02*
X120912000Y-137280000D01*
X121912000Y-137280000D01*
X122512000Y-138180000D01*
X120312000Y-138180000D01*
X120312000Y-138180000D01*
G37*
G36*
X122512000Y-138680000D02*
X121912000Y-139580000D01*
X120912000Y-139580000D01*
X120312000Y-138680000D01*
X122512000Y-138680000D01*
X122512000Y-138680000D01*
G37*
G36*
X135720000Y-135378000D02*
X135120000Y-136278000D01*
X134120000Y-136278000D01*
X133520000Y-135378000D01*
X135720000Y-135378000D01*
X135720000Y-135378000D01*
G37*
G36*
X133520000Y-134878000D02*
X134120000Y-133978000D01*
X135120000Y-133978000D01*
X135720000Y-134878000D01*
X133520000Y-134878000D01*
X133520000Y-134878000D01*
G37*
G36*
X133520000Y-138180000D02*
X134120000Y-137280000D01*
X135120000Y-137280000D01*
X135720000Y-138180000D01*
X133520000Y-138180000D01*
X133520000Y-138180000D01*
G37*
G36*
X135720000Y-138680000D02*
X135120000Y-139580000D01*
X134120000Y-139580000D01*
X133520000Y-138680000D01*
X135720000Y-138680000D01*
X135720000Y-138680000D01*
G37*
G36*
X123186000Y-143172000D02*
X124086000Y-143772000D01*
X124086000Y-144772000D01*
X123186000Y-145372000D01*
X123186000Y-143172000D01*
X123186000Y-143172000D01*
G37*
G36*
X122686000Y-145372000D02*
X121786000Y-144772000D01*
X121786000Y-143772000D01*
X122686000Y-143172000D01*
X122686000Y-145372000D01*
X122686000Y-145372000D01*
G37*
D22*
X135042000Y-127721000D03*
X135042000Y-127071000D03*
X135042000Y-126421000D03*
X135042000Y-125771000D03*
X130642000Y-125771000D03*
X130642000Y-126421000D03*
X130642000Y-127071000D03*
X130642000Y-127721000D03*
D12*
X110705900Y-128383500D03*
X110058200Y-128383500D03*
X109397800Y-128383500D03*
X108750100Y-128383500D03*
X108750100Y-132728500D03*
X109397800Y-132728500D03*
X110058200Y-132728500D03*
X110705900Y-132728500D03*
D13*
X109728000Y-130556000D03*
D20*
X117348000Y-109794000D03*
X117348000Y-111694000D03*
D11*
X132080000Y-104648000D03*
X134780000Y-101948000D03*
X129380000Y-101948000D03*
X129380000Y-107348000D03*
X134780000Y-107348000D03*
D29*
X134390000Y-142494000D03*
X137390000Y-142494000D03*
D30*
X145288000Y-147828000D03*
D31*
X147828000Y-147828000D03*
D30*
X145288000Y-145288000D03*
D31*
X147828000Y-145288000D03*
D11*
X105156000Y-104648000D03*
X107856000Y-101948000D03*
X102456000Y-101948000D03*
X102456000Y-107348000D03*
X107856000Y-107348000D03*
X117348000Y-104648000D03*
X120048000Y-101948000D03*
X114648000Y-101948000D03*
X114648000Y-107348000D03*
X120048000Y-107348000D03*
D32*
X122498000Y-152030000D03*
D33*
X124098000Y-152030000D03*
X123298000Y-152030000D03*
D32*
X124898000Y-152030000D03*
D33*
X123298000Y-150230000D03*
D32*
X122498000Y-150230000D03*
D33*
X124098000Y-150230000D03*
D32*
X124898000Y-150230000D03*
D14*
X134862000Y-116840000D03*
X133362000Y-116840000D03*
D20*
X126492000Y-150688000D03*
X126492000Y-152588000D03*
D16*
X103886000Y-160032000D03*
X103886000Y-161532000D03*
X106426000Y-160032000D03*
X106426000Y-161532000D03*
D34*
X106106000Y-157495240D03*
X104206000Y-157495240D03*
X105156000Y-159494220D03*
D35*
X120954000Y-122174000D03*
X133554000Y-147574000D03*
D36*
X139954000Y-141174000D03*
X114554000Y-128574000D03*
D37*
X109462000Y-161290000D03*
X107962000Y-161290000D03*
X109462000Y-157734000D03*
X107962000Y-157734000D03*
D38*
X144780000Y-123964000D03*
X144780000Y-125464000D03*
X106934000Y-126758000D03*
X106934000Y-128258000D03*
X112776000Y-153912000D03*
X112776000Y-152412000D03*
D37*
X109462000Y-159512000D03*
X107962000Y-159512000D03*
D38*
X144780000Y-135140000D03*
X144780000Y-136640000D03*
X101346000Y-126758000D03*
X101346000Y-128258000D03*
D39*
X120158000Y-161544000D03*
X122158000Y-161544000D03*
D37*
X123432000Y-141986000D03*
X121932000Y-141986000D03*
D40*
X145542000Y-113804000D03*
X130036000Y-109982000D03*
X133350000Y-113804000D03*
X142228000Y-109982000D03*
X142228000Y-111506000D03*
X130036000Y-111506000D03*
X124206000Y-132588000D03*
X130810000Y-134112000D03*
X131826000Y-132588000D03*
X125222000Y-134112000D03*
X148524000Y-123498000D03*
X148524000Y-122174000D03*
X147054000Y-116840000D03*
X147054000Y-118364000D03*
X148336000Y-110236000D03*
X102362000Y-166878000D03*
X148082000Y-150876000D03*
X112395000Y-163195000D03*
D41*
X137287000Y-119888000D03*
X138430000Y-116840000D03*
X137922000Y-117856000D03*
X138430000Y-119888000D03*
D40*
X140716000Y-118110000D03*
X128524000Y-118618000D03*
X134862000Y-118364000D03*
X134862000Y-116840000D03*
X128536000Y-109982000D03*
X113538000Y-117348000D03*
D41*
X137160000Y-116840000D03*
X110490000Y-118618000D03*
X111252000Y-119634000D03*
X111760000Y-118618000D03*
D40*
X140728000Y-109982000D03*
X140728000Y-111506000D03*
X101358000Y-111760000D03*
X113550000Y-111760000D03*
X128536000Y-111506000D03*
X101358000Y-110236000D03*
X108446000Y-120396000D03*
X108446000Y-118872000D03*
X120638000Y-120396000D03*
X120638000Y-118872000D03*
X113550000Y-110236000D03*
X132842000Y-130060000D03*
X127508000Y-134874000D03*
X128524000Y-134874000D03*
X125857000Y-128651000D03*
X130175000Y-128651000D03*
X133108000Y-126238000D03*
D41*
X122682000Y-125222000D03*
D40*
X122670000Y-126214000D03*
D41*
X133108000Y-125246000D03*
D40*
X130429000Y-136779000D03*
X125603000Y-136779000D03*
X131560000Y-130048000D03*
X123190000Y-129794000D03*
X124460000Y-129794000D03*
X145554000Y-116840000D03*
X145554000Y-118364000D03*
X145542000Y-115304000D03*
X133350000Y-115304000D03*
X133362000Y-118364000D03*
X133362000Y-116840000D03*
X125972000Y-130048000D03*
X130060000Y-130048000D03*
X126415800Y-131064000D03*
X129667000Y-131064000D03*
X148524000Y-134674000D03*
X148524000Y-133350000D03*
X131826000Y-144526000D03*
X132334000Y-140970000D03*
X120904000Y-144780000D03*
X121920000Y-144780000D03*
X120650000Y-154686000D03*
X143256000Y-114808000D03*
X142748000Y-116332000D03*
X131064000Y-114808000D03*
X130556000Y-116332000D03*
X102858000Y-110236000D03*
X115050000Y-110236000D03*
X110678000Y-125222000D03*
X110678000Y-126546000D03*
X102870000Y-114808000D03*
X115050000Y-111760000D03*
X102858000Y-111760000D03*
X115062000Y-114808000D03*
X105090000Y-125222000D03*
X105090000Y-126546000D03*
X105410000Y-117856000D03*
X106946000Y-118872000D03*
X106946000Y-120396000D03*
X119138000Y-120396000D03*
X119138000Y-118872000D03*
X117602000Y-117856000D03*
X119126000Y-124206000D03*
X119126000Y-125222000D03*
X108204000Y-153924000D03*
X109232000Y-153924000D03*
X136906000Y-128016000D03*
X136398000Y-127127000D03*
X129794000Y-146050000D03*
X128016000Y-139954000D03*
D41*
X115824000Y-143764000D03*
X115824000Y-145034000D03*
D40*
X129286000Y-139954000D03*
X120904000Y-143002000D03*
X129540000Y-154686000D03*
X131826000Y-142494000D03*
X128778000Y-126492000D03*
X127254000Y-126492000D03*
X148336000Y-131064000D03*
X108966000Y-146812000D03*
X110744000Y-133858000D03*
X148590000Y-141986000D03*
X105156000Y-133858000D03*
X141986000Y-154940000D03*
X119634000Y-160020000D03*
X116586000Y-156972000D03*
X122682000Y-161290000D03*
D41*
X143002000Y-161036000D03*
X130302000Y-161036000D03*
X134493000Y-153456000D03*
D40*
X136906000Y-153416000D03*
X123190000Y-157988000D03*
X127000000Y-161036000D03*
X139446000Y-153416000D03*
D42*
X110998000Y-160782000D03*
D40*
X142494000Y-138176000D03*
X146050000Y-140970000D03*
D42*
X109662000Y-159512000D03*
D40*
X116586000Y-160528000D03*
X128270000Y-161036000D03*
D43*
X130036000Y-111506000D02*
X130036000Y-109982000D01*
X142228000Y-111506000D02*
X142228000Y-109982000D01*
D44*
X142677000Y-113370000D02*
X142677000Y-112451000D01*
D45*
X142240000Y-112014000D02*
X142228000Y-112002000D01*
X142228000Y-112002000D02*
X142228000Y-111506000D01*
D46*
X142494000Y-112268000D02*
X142240000Y-112014000D01*
D44*
X142677000Y-112451000D02*
X142494000Y-112268000D01*
D45*
X130048000Y-112014000D02*
X130036000Y-112002000D01*
X130036000Y-112002000D02*
X130036000Y-111506000D01*
D46*
X130302000Y-112268000D02*
X130048000Y-112014000D01*
D44*
X130485000Y-112451000D02*
X130302000Y-112268000D01*
X130485000Y-113370000D02*
X130485000Y-112451000D01*
D47*
X130266000Y-133568000D02*
X130810000Y-134112000D01*
X130266000Y-132683000D02*
X130266000Y-133568000D01*
D45*
X123190000Y-131560000D02*
X123190000Y-131572000D01*
X123190000Y-131572000D02*
X124206000Y-132588000D01*
X124980000Y-131318000D02*
X123432000Y-131318000D01*
X123432000Y-131318000D02*
X123190000Y-131560000D01*
X124206000Y-132588000D02*
X124206000Y-132092000D01*
X124206000Y-132092000D02*
X124980000Y-131318000D01*
D47*
X125766000Y-132683000D02*
X125766000Y-133568000D01*
X125766000Y-133568000D02*
X125222000Y-134112000D01*
D45*
X132842000Y-131560000D02*
X131826000Y-132576000D01*
X131826000Y-132092000D02*
X131826000Y-132588000D01*
X131826000Y-132092000D02*
X131052000Y-131318000D01*
X131826000Y-132576000D02*
X131826000Y-132588000D01*
X131052000Y-131318000D02*
X132600000Y-131318000D01*
X132600000Y-131318000D02*
X132842000Y-131560000D01*
D47*
X130810000Y-131318000D02*
X131052000Y-131318000D01*
X130266000Y-131862000D02*
X130810000Y-131318000D01*
X130266000Y-132683000D02*
X130266000Y-131862000D01*
X125272800Y-131191000D02*
X125030800Y-131191000D01*
X125209300Y-131318000D02*
X125030800Y-131318000D01*
X125222000Y-131318000D02*
X125030800Y-131318000D01*
X125766000Y-131862000D02*
X125222000Y-131318000D01*
X125766000Y-132683000D02*
X125766000Y-131862000D01*
D46*
X148336000Y-123710000D02*
X148324000Y-123698000D01*
D44*
X148551900Y-124421900D02*
X148551900Y-125335500D01*
X148551900Y-124421900D02*
X148336000Y-124206000D01*
X148336000Y-123710000D02*
X148336000Y-124206000D01*
X148551900Y-123925900D02*
X148324000Y-123698000D01*
X148551900Y-124421900D02*
X148551900Y-123925900D01*
D43*
X148324000Y-123698000D02*
X148524000Y-123498000D01*
D46*
X137287000Y-119888000D02*
X138430000Y-119888000D01*
D48*
X137287000Y-118491000D02*
X137922000Y-117856000D01*
X137287000Y-119888000D02*
X137287000Y-118491000D01*
X138430000Y-119888000D02*
X138430000Y-118364000D01*
X138430000Y-118364000D02*
X137922000Y-117856000D01*
D43*
X133096000Y-119888000D02*
X135128000Y-119888000D01*
D49*
X135890000Y-119888000D02*
X135128000Y-119888000D01*
D48*
X137287000Y-119888000D02*
X135890000Y-119888000D01*
D46*
X132522000Y-119888000D02*
X133096000Y-119888000D01*
D48*
X140782000Y-119888000D02*
X138430000Y-119888000D01*
X147574000Y-138684000D02*
X145288000Y-138684000D01*
X102870000Y-145288000D02*
X103886000Y-145288000D01*
X101600000Y-146558000D02*
X102870000Y-145288000D01*
X101600000Y-163322000D02*
X101600000Y-146558000D01*
X105410000Y-167132000D02*
X101600000Y-163322000D01*
X144780000Y-167132000D02*
X105410000Y-167132000D01*
X147320000Y-164592000D02*
X144780000Y-167132000D01*
X147320000Y-153670000D02*
X147320000Y-164592000D01*
X143002000Y-149352000D02*
X147320000Y-153670000D01*
X143002000Y-140970000D02*
X143002000Y-149352000D01*
X145288000Y-138684000D02*
X143002000Y-140970000D01*
D43*
X144780000Y-141986000D02*
X144780000Y-139446000D01*
X145808000Y-142240000D02*
X145034000Y-142240000D01*
X144780000Y-139446000D02*
X146050000Y-138176000D01*
X145034000Y-142240000D02*
X144780000Y-141986000D01*
X106426000Y-161532000D02*
X106426000Y-162560000D01*
X114808000Y-160008000D02*
X114300000Y-159500000D01*
X114808000Y-160782000D02*
X114808000Y-160008000D01*
X112077998Y-163512002D02*
X112395000Y-163195000D01*
X112395000Y-163195000D02*
X114808000Y-160782000D01*
X107378002Y-163512002D02*
X112077998Y-163512002D01*
X106426000Y-162560000D02*
X107378002Y-163512002D01*
X105664000Y-155956000D02*
X105664000Y-152654000D01*
X105664000Y-152654000D02*
X108204000Y-150114000D01*
X108204000Y-150114000D02*
X109982000Y-150114000D01*
D46*
X105156000Y-159494220D02*
X105156000Y-156464000D01*
X105156000Y-156464000D02*
X105664000Y-155956000D01*
D43*
X128536000Y-109982000D02*
X128536000Y-111506000D01*
D44*
X147104000Y-139104000D02*
X146900000Y-139104000D01*
X146599000Y-137759000D02*
X147104000Y-138264000D01*
X146599000Y-136579000D02*
X146599000Y-137759000D01*
D46*
X113114000Y-159512000D02*
X114288000Y-159512000D01*
X114288000Y-159512000D02*
X114300000Y-159500000D01*
D43*
X106426000Y-161532000D02*
X106160000Y-161532000D01*
X106160000Y-161532000D02*
X105156000Y-160528000D01*
X103886000Y-161532000D02*
X104152000Y-161532000D01*
X104152000Y-161532000D02*
X105156000Y-160528000D01*
X105156000Y-159494220D02*
X105156000Y-160528000D01*
D44*
X106426000Y-145288000D02*
X109994000Y-145288000D01*
X109994000Y-145288000D02*
X110236000Y-145046000D01*
D43*
X112776000Y-152212000D02*
X112776000Y-151892000D01*
X112776000Y-151892000D02*
X110998000Y-150114000D01*
X109982000Y-150114000D02*
X110998000Y-150114000D01*
D44*
X110959900Y-152286500D02*
X110959900Y-151091900D01*
X110959900Y-151091900D02*
X109982000Y-150114000D01*
D43*
X145542000Y-130798000D02*
X145681000Y-130937000D01*
X146558000Y-127508000D02*
X145542000Y-128524000D01*
X145542000Y-128524000D02*
X145542000Y-130798000D01*
X147574000Y-127508000D02*
X146558000Y-127508000D01*
D44*
X146596100Y-126530100D02*
X147574000Y-127508000D01*
X146596100Y-125335500D02*
X146596100Y-126530100D01*
D43*
X144780000Y-125730000D02*
X146558000Y-127508000D01*
X144780000Y-125410000D02*
X144780000Y-125730000D01*
X146685000Y-138557000D02*
X147574000Y-138684000D01*
X146558000Y-138684000D02*
X146685000Y-138557000D01*
X144780000Y-136906000D02*
X146050000Y-138176000D01*
X146050000Y-138176000D02*
X146558000Y-138684000D01*
X144780000Y-136586000D02*
X144780000Y-136906000D01*
D47*
X123666000Y-139283000D02*
X124877000Y-139283000D01*
X125603000Y-138557000D02*
X125603000Y-136779000D01*
X124877000Y-139283000D02*
X125603000Y-138557000D01*
D43*
X106934000Y-128458000D02*
X106934000Y-128778000D01*
X101346000Y-128458000D02*
X101346000Y-128778000D01*
X101346000Y-128778000D02*
X103124000Y-130556000D01*
X106934000Y-128778000D02*
X108712000Y-130556000D01*
D44*
X108750100Y-128383500D02*
X108750100Y-129578100D01*
X108750100Y-129578100D02*
X109728000Y-130556000D01*
D43*
X109728000Y-130556000D02*
X108712000Y-130556000D01*
X107696000Y-131572000D02*
X107696000Y-133846000D01*
X108712000Y-130556000D02*
X107696000Y-131572000D01*
X107696000Y-133846000D02*
X107835000Y-133985000D01*
X102374000Y-134112000D02*
X102108000Y-133846000D01*
X102108000Y-133846000D02*
X102108000Y-131572000D01*
X102108000Y-131572000D02*
X103124000Y-130556000D01*
X103124000Y-130556000D02*
X103251000Y-130429000D01*
X103251000Y-130429000D02*
X104140000Y-130556000D01*
D44*
X103165000Y-128451000D02*
X103165000Y-129631000D01*
X103165000Y-129631000D02*
X103670000Y-130136000D01*
D43*
X140728000Y-109982000D02*
X140728000Y-111506000D01*
X132842000Y-130060000D02*
X132830000Y-130048000D01*
X124714000Y-128651000D02*
X125857000Y-128651000D01*
X123710000Y-127647000D02*
X124714000Y-128651000D01*
X130175000Y-128651000D02*
X131699000Y-128651000D01*
X132068000Y-128282000D02*
X131699000Y-128651000D01*
X122682000Y-125222000D02*
X121690000Y-126214000D01*
X132582000Y-124720000D02*
X132582000Y-127768000D01*
X133108000Y-126238000D02*
X133223000Y-126238000D01*
X133223000Y-126238000D02*
X134215000Y-125246000D01*
X132068000Y-124206000D02*
X132068000Y-128282000D01*
X122670000Y-126214000D02*
X122670000Y-126607000D01*
X122670000Y-126607000D02*
X123710000Y-127647000D01*
X123710000Y-127254000D02*
X123710000Y-127647000D01*
X132068000Y-128282000D02*
X132582000Y-127768000D01*
X132582000Y-127768000D02*
X133108000Y-127242000D01*
X133108000Y-127242000D02*
X133108000Y-126238000D01*
X122682000Y-125222000D02*
X122670000Y-125234000D01*
X122670000Y-125234000D02*
X122670000Y-126214000D01*
D46*
X129794000Y-128778000D02*
X129032000Y-129540000D01*
X129032000Y-130302000D02*
X129032000Y-129540000D01*
D47*
X128766000Y-130695000D02*
X129032000Y-130429000D01*
X128766000Y-132683000D02*
X128766000Y-130695000D01*
X129032000Y-130429000D02*
X129032000Y-130302000D01*
D44*
X120736000Y-125689000D02*
X120736000Y-126214000D01*
D43*
X120736000Y-126214000D02*
X121690000Y-126214000D01*
X121690000Y-126214000D02*
X122670000Y-126214000D01*
X122670000Y-126214000D02*
X123710000Y-127254000D01*
D44*
X135042000Y-125771000D02*
X135042000Y-125246000D01*
D43*
X135042000Y-125246000D02*
X134215000Y-125246000D01*
X134215000Y-125246000D02*
X133108000Y-125246000D01*
X133108000Y-125246000D02*
X132582000Y-124720000D01*
X132582000Y-124720000D02*
X132068000Y-124206000D01*
D46*
X126365000Y-128905000D02*
X126111000Y-128905000D01*
D47*
X127000000Y-130429000D02*
X127000000Y-130302000D01*
X127266000Y-132683000D02*
X127266000Y-130695000D01*
X127266000Y-130695000D02*
X127000000Y-130429000D01*
D46*
X127000000Y-130302000D02*
X127000000Y-129540000D01*
X126365000Y-128905000D02*
X127000000Y-129540000D01*
X126111000Y-128905000D02*
X125984000Y-128778000D01*
D43*
X128524000Y-134874000D02*
X130429000Y-136779000D01*
D47*
X131191000Y-136779000D02*
X131318000Y-136779000D01*
D46*
X130937000Y-136779000D02*
X131191000Y-136779000D01*
D43*
X130429000Y-136779000D02*
X130937000Y-136779000D01*
X125603000Y-136779000D02*
X127508000Y-134874000D01*
X127508000Y-134874000D02*
X128524000Y-134874000D01*
X125095000Y-136779000D02*
X125603000Y-136779000D01*
D46*
X125095000Y-136779000D02*
X124841000Y-136779000D01*
D47*
X124841000Y-136779000D02*
X124714000Y-136779000D01*
D43*
X128524000Y-134874000D02*
X129286000Y-134112000D01*
D46*
X129286000Y-134112000D02*
X129540000Y-133858000D01*
D47*
X129766000Y-133632000D02*
X129540000Y-133858000D01*
X129766000Y-132683000D02*
X129766000Y-133632000D01*
X132366000Y-137283000D02*
X131568000Y-137283000D01*
X131318000Y-137033000D02*
X131318000Y-136779000D01*
X131568000Y-137283000D02*
X131318000Y-137033000D01*
X131318000Y-136525000D02*
X131318000Y-136779000D01*
X131560000Y-136283000D02*
X131318000Y-136525000D01*
X132366000Y-136283000D02*
X131560000Y-136283000D01*
X123666000Y-136283000D02*
X122924000Y-136283000D01*
X122932000Y-137283000D02*
X123666000Y-137283000D01*
X122682000Y-137033000D02*
X122932000Y-137283000D01*
X122682000Y-136525000D02*
X122682000Y-137033000D01*
X122924000Y-136283000D02*
X122682000Y-136525000D01*
X132366000Y-137283000D02*
X133100000Y-137283000D01*
X133100000Y-137283000D02*
X133350000Y-137033000D01*
X133350000Y-137033000D02*
X133350000Y-136525000D01*
X133108000Y-136283000D02*
X132366000Y-136283000D01*
X133108000Y-136283000D02*
X133350000Y-136525000D01*
D43*
X124460000Y-129794000D02*
X123202000Y-129782000D01*
X123202000Y-129782000D02*
X123190000Y-129794000D01*
D47*
X124714000Y-137029000D02*
X124714000Y-137029000D01*
X124460000Y-136283000D02*
X124644500Y-136467500D01*
X124644500Y-136467500D02*
X124714000Y-136537000D01*
X124714000Y-137029000D02*
X124460000Y-137283000D01*
X123666000Y-137283000D02*
X124460000Y-137283000D01*
X124714000Y-136537000D02*
X124714000Y-136779000D01*
X124714000Y-136779000D02*
X124714000Y-137029000D01*
X124460000Y-136283000D02*
X123666000Y-136283000D01*
D44*
X103670000Y-130976000D02*
X103466000Y-130976000D01*
D47*
X144294500Y-118087500D02*
X144317000Y-118110000D01*
X143977000Y-117770000D02*
X144294500Y-118087500D01*
X143977000Y-117770000D02*
X144272000Y-117475000D01*
D46*
X144272000Y-117475000D02*
X144526000Y-117221000D01*
X144294500Y-118087500D02*
X144526000Y-118319000D01*
D43*
X144526000Y-118319000D02*
X144526000Y-117221000D01*
X144907000Y-116840000D02*
X145554000Y-116840000D01*
X144526000Y-117221000D02*
X144907000Y-116840000D01*
X144571000Y-118364000D02*
X144526000Y-118319000D01*
X144571000Y-118364000D02*
X145554000Y-118364000D01*
X132379000Y-118364000D02*
X133362000Y-118364000D01*
X132379000Y-118364000D02*
X132334000Y-118319000D01*
X132334000Y-117221000D02*
X132715000Y-116840000D01*
X132715000Y-116840000D02*
X133362000Y-116840000D01*
X132334000Y-118319000D02*
X132334000Y-117221000D01*
D46*
X132102500Y-118087500D02*
X132334000Y-118319000D01*
X132080000Y-117475000D02*
X132334000Y-117221000D01*
D47*
X131785000Y-117770000D02*
X132080000Y-117475000D01*
X131785000Y-117770000D02*
X132102500Y-118087500D01*
X132102500Y-118087500D02*
X132125000Y-118110000D01*
D45*
X125972000Y-130048000D02*
X125972000Y-130620200D01*
X125972000Y-130620200D02*
X126415800Y-131064000D01*
X129667000Y-131064000D02*
X129552000Y-131318000D01*
X126415800Y-131064000D02*
X126480000Y-131318000D01*
D47*
X129266000Y-132683000D02*
X129266000Y-131846000D01*
X129266000Y-131846000D02*
X129552000Y-131560000D01*
X129552000Y-131560000D02*
X129552000Y-131318000D01*
X126403800Y-131433000D02*
X126403800Y-131191000D01*
X126766000Y-131719000D02*
X126403800Y-131433000D01*
X126766000Y-132683000D02*
X126766000Y-131719000D01*
X126403800Y-131076000D02*
X126403800Y-131318000D01*
X126415800Y-131064000D02*
X126403800Y-131076000D01*
D46*
X148336000Y-134886000D02*
X148324000Y-134874000D01*
D44*
X148551900Y-135597900D02*
X148551900Y-136511500D01*
X148551900Y-135597900D02*
X148336000Y-135382000D01*
X148336000Y-134886000D02*
X148336000Y-135382000D01*
X148551900Y-135101900D02*
X148324000Y-134874000D01*
X148551900Y-135597900D02*
X148551900Y-135101900D01*
D43*
X148324000Y-134874000D02*
X148524000Y-134674000D01*
X122236000Y-144272000D02*
X119634000Y-144272000D01*
X119634000Y-144272000D02*
X119634000Y-144780000D01*
X120777000Y-146685000D02*
X121920000Y-145542000D01*
X120777000Y-154272000D02*
X120777000Y-146685000D01*
X121920000Y-145542000D02*
X121920000Y-144780000D01*
X121920000Y-144780000D02*
X122236000Y-144272000D01*
X132334000Y-140970000D02*
X132866000Y-140970000D01*
X132866000Y-140970000D02*
X134390000Y-142494000D01*
X131826000Y-144526000D02*
X131572000Y-144272000D01*
X132334000Y-140982000D02*
X132334000Y-140970000D01*
D45*
X122236000Y-144272000D02*
X122236000Y-144464000D01*
X122236000Y-144464000D02*
X121920000Y-144780000D01*
X121920000Y-144780000D02*
X122236000Y-144272000D01*
D48*
X120904000Y-144780000D02*
X119634000Y-144780000D01*
X119634000Y-144780000D02*
X120142000Y-144780000D01*
X120142000Y-144780000D02*
X113284000Y-137922000D01*
X113284000Y-137922000D02*
X104648000Y-137922000D01*
X104648000Y-137922000D02*
X103886000Y-138684000D01*
X103886000Y-138684000D02*
X103886000Y-140208000D01*
D43*
X120777000Y-154272000D02*
X119958000Y-154272000D01*
X119958000Y-154272000D02*
X119102000Y-153416000D01*
X120880000Y-144804000D02*
X120904000Y-144780000D01*
X119102000Y-144804000D02*
X119102000Y-153416000D01*
X120650000Y-154686000D02*
X120777000Y-154559000D01*
X120777000Y-154559000D02*
X120777000Y-154272000D01*
X131256000Y-144272000D02*
X131572000Y-144272000D01*
D47*
X120777000Y-154272000D02*
X120777000Y-155067000D01*
X128397000Y-155067000D02*
X128016000Y-155448000D01*
X128397000Y-155067000D02*
X128397000Y-154272000D01*
X121158000Y-155448000D02*
X128016000Y-155448000D01*
X120777000Y-155067000D02*
X121158000Y-155448000D01*
D43*
X131826000Y-140982000D02*
X132334000Y-140982000D01*
D46*
X132366000Y-139783000D02*
X132366000Y-140462000D01*
X132366000Y-140462000D02*
X132366000Y-140518000D01*
X132366000Y-140518000D02*
X132830000Y-140982000D01*
D47*
X132366000Y-139283000D02*
X132366000Y-139573000D01*
X132366000Y-139573000D02*
X132366000Y-139783000D01*
X120650000Y-154145000D02*
X120777000Y-154272000D01*
X120523000Y-154018000D02*
X120777000Y-154272000D01*
D48*
X144272000Y-104648000D02*
X144272000Y-111252000D01*
D46*
X143637000Y-112141000D02*
X143637000Y-111887000D01*
X143637000Y-112141000D02*
X143510000Y-112268000D01*
D43*
X144272000Y-111252000D02*
X143637000Y-111887000D01*
D44*
X143327000Y-112451000D02*
X143510000Y-112268000D01*
D47*
X143327000Y-114737000D02*
X143256000Y-114808000D01*
X143327000Y-113370000D02*
X143327000Y-114737000D01*
D44*
X143327000Y-112451000D02*
X143327000Y-113370000D01*
X142677000Y-117770000D02*
X142677000Y-118933000D01*
D46*
X142682000Y-118938000D02*
X142682000Y-119888000D01*
D44*
X142677000Y-118933000D02*
X142682000Y-118938000D01*
X142677000Y-116403000D02*
X142748000Y-116332000D01*
X142677000Y-117770000D02*
X142677000Y-116403000D01*
D48*
X132080000Y-104648000D02*
X132080000Y-111252000D01*
D43*
X132080000Y-111252000D02*
X131445000Y-111887000D01*
D46*
X131445000Y-112141000D02*
X131318000Y-112268000D01*
D44*
X131135000Y-112451000D02*
X131318000Y-112268000D01*
D46*
X131445000Y-112141000D02*
X131445000Y-111887000D01*
D44*
X131135000Y-112451000D02*
X131135000Y-113370000D01*
D47*
X131135000Y-113370000D02*
X131135000Y-114737000D01*
X131135000Y-114737000D02*
X131064000Y-114808000D01*
D46*
X130485000Y-119751000D02*
X130485000Y-118801000D01*
D44*
X130485000Y-118801000D02*
X130485000Y-117770000D01*
D46*
X130485000Y-119751000D02*
X130622000Y-119888000D01*
X130556000Y-119822000D02*
X130622000Y-119888000D01*
D44*
X130485000Y-117770000D02*
X130485000Y-116403000D01*
X130485000Y-116403000D02*
X130556000Y-116332000D01*
D43*
X110478000Y-126746000D02*
X110678000Y-126546000D01*
D44*
X110705900Y-127469900D02*
X110705900Y-126973900D01*
X110705900Y-126973900D02*
X110478000Y-126746000D01*
X110490000Y-126758000D02*
X110490000Y-127254000D01*
X110705900Y-127469900D02*
X110490000Y-127254000D01*
X110705900Y-127469900D02*
X110705900Y-128383500D01*
D46*
X110490000Y-126758000D02*
X110478000Y-126746000D01*
D43*
X102997000Y-112268000D02*
X102997000Y-110375000D01*
X102997000Y-110375000D02*
X102858000Y-110236000D01*
X102858000Y-111760000D02*
X102858000Y-110236000D01*
X115050000Y-110236000D02*
X115189000Y-110375000D01*
X115189000Y-110375000D02*
X115189000Y-111899000D01*
X115189000Y-111899000D02*
X115050000Y-111760000D01*
X115050000Y-111760000D02*
X115050000Y-110236000D01*
X102997000Y-114681000D02*
X102870000Y-114808000D01*
X102997000Y-113632000D02*
X102997000Y-114681000D01*
X102997000Y-111899000D02*
X102997000Y-112268000D01*
X102997000Y-112268000D02*
X102997000Y-113632000D01*
X102858000Y-111760000D02*
X102997000Y-111899000D01*
X102858000Y-114796000D02*
X102870000Y-114808000D01*
X102858000Y-111760000D02*
X102858000Y-114796000D01*
X115050000Y-111760000D02*
X115050000Y-114796000D01*
X115050000Y-114796000D02*
X115062000Y-114808000D01*
X115050000Y-111760000D02*
X115189000Y-111899000D01*
X115189000Y-111899000D02*
X115189000Y-113632000D01*
X115189000Y-113632000D02*
X115189000Y-114681000D01*
X115189000Y-114681000D02*
X115062000Y-114808000D01*
X105090000Y-126546000D02*
X105090000Y-125222000D01*
X104890000Y-126746000D02*
X105090000Y-126546000D01*
D44*
X105117900Y-127469900D02*
X105117900Y-126973900D01*
X105117900Y-126973900D02*
X104890000Y-126746000D01*
X104902000Y-126758000D02*
X104902000Y-127254000D01*
X105117900Y-127469900D02*
X104902000Y-127254000D01*
X105117900Y-127469900D02*
X105117900Y-128383500D01*
D46*
X104902000Y-126758000D02*
X104890000Y-126746000D01*
D45*
X105537000Y-118733000D02*
X105537000Y-119032000D01*
X107188000Y-117082000D02*
X105537000Y-118733000D01*
X105537000Y-119032000D02*
X105537000Y-117983000D01*
X105537000Y-117983000D02*
X105410000Y-117856000D01*
D43*
X106901000Y-120396000D02*
X105537000Y-119032000D01*
X106946000Y-118872000D02*
X106426000Y-118872000D01*
X105410000Y-117856000D02*
X106426000Y-118872000D01*
X106946000Y-120396000D02*
X106946000Y-118872000D01*
X106946000Y-120396000D02*
X106901000Y-120396000D01*
X119138000Y-120396000D02*
X119093000Y-120396000D01*
X119138000Y-120396000D02*
X119138000Y-118872000D01*
X117602000Y-117856000D02*
X118618000Y-118872000D01*
X119138000Y-118872000D02*
X118618000Y-118872000D01*
D45*
X117729000Y-117983000D02*
X117602000Y-117856000D01*
X117729000Y-119032000D02*
X117729000Y-117983000D01*
D43*
X119093000Y-120396000D02*
X117729000Y-119032000D01*
D45*
X119380000Y-117082000D02*
X117729000Y-118733000D01*
X117729000Y-118733000D02*
X117729000Y-119032000D01*
D43*
X119126000Y-125222000D02*
X119126000Y-124206000D01*
X119309000Y-124389000D02*
X119126000Y-124206000D01*
X119436000Y-124389000D02*
X119309000Y-124389000D01*
D46*
X119563000Y-124389000D02*
X119436000Y-124389000D01*
D44*
X119563000Y-124389000D02*
X120736000Y-124389000D01*
D43*
X108204000Y-153924000D02*
X108204000Y-154620000D01*
X108204000Y-154620000D02*
X109032000Y-155448000D01*
X109032000Y-155448000D02*
X109232000Y-155248000D01*
X109232000Y-155248000D02*
X109232000Y-153924000D01*
D44*
X109004100Y-153200100D02*
X109004100Y-153696100D01*
X109004100Y-153696100D02*
X109232000Y-153924000D01*
X109220000Y-153912000D02*
X109220000Y-153416000D01*
X109004100Y-153200100D02*
X109220000Y-153416000D01*
X109004100Y-153200100D02*
X109004100Y-152286500D01*
D46*
X109220000Y-153912000D02*
X109232000Y-153924000D01*
D43*
X136398000Y-127127000D02*
X136906000Y-127635000D01*
X136906000Y-127635000D02*
X136906000Y-128016000D01*
D44*
X136342000Y-127071000D02*
X136398000Y-127127000D01*
X136342000Y-127071000D02*
X135042000Y-127071000D01*
D46*
X129856000Y-144272000D02*
X129794000Y-144334000D01*
X129794000Y-144334000D02*
X129794000Y-146050000D01*
D47*
X129766000Y-142240000D02*
X129794000Y-144526000D01*
D46*
X129856000Y-144272000D02*
X129856000Y-142810000D01*
D47*
X129766000Y-142268000D02*
X129766000Y-142240000D01*
X129766000Y-142240000D02*
X129766000Y-141383000D01*
D46*
X123666000Y-141952000D02*
X123666000Y-140176000D01*
D47*
X123666000Y-140176000D02*
X123666000Y-139783000D01*
D46*
X123666000Y-141952000D02*
X123636000Y-141982000D01*
X123636000Y-141982000D02*
X123636000Y-144272000D01*
D43*
X135382000Y-139700000D02*
X135190000Y-139700000D01*
D48*
X141732000Y-123698000D02*
X141732000Y-134366000D01*
X141732000Y-134366000D02*
X136398000Y-139700000D01*
X136398000Y-139700000D02*
X135382000Y-139700000D01*
X143764000Y-121666000D02*
X141732000Y-123698000D01*
D43*
X135190000Y-139700000D02*
X134620000Y-139130000D01*
D47*
X131544000Y-138783000D02*
X131318000Y-138557000D01*
X131318000Y-138557000D02*
X131318000Y-138049000D01*
X131318000Y-138049000D02*
X131584000Y-137783000D01*
D44*
X143327000Y-118689000D02*
X143327000Y-117770000D01*
D47*
X133413500Y-139001500D02*
X134491500Y-139001500D01*
X134491500Y-139001500D02*
X134620000Y-139130000D01*
X132366000Y-138783000D02*
X133195000Y-138783000D01*
X133542000Y-139130000D02*
X134620000Y-139130000D01*
X133413500Y-139001500D02*
X133542000Y-139130000D01*
X133195000Y-138783000D02*
X133413500Y-139001500D01*
X132366000Y-138783000D02*
X134273000Y-138783000D01*
X134273000Y-138783000D02*
X134620000Y-139130000D01*
X132366000Y-138783000D02*
X131544000Y-138783000D01*
X131584000Y-137783000D02*
X132366000Y-137783000D01*
D44*
X143327000Y-118689000D02*
X143510000Y-118872000D01*
D43*
X143764000Y-120142000D02*
X143764000Y-121666000D01*
D48*
X143764000Y-121666000D02*
X144571000Y-120859000D01*
D43*
X143764000Y-120142000D02*
X143843998Y-120062002D01*
X143843998Y-120062002D02*
X144571000Y-120062002D01*
X144018000Y-119888000D02*
X143764000Y-120142000D01*
D48*
X144571000Y-120062002D02*
X144571000Y-120441000D01*
D49*
X144571000Y-120441000D02*
X144018000Y-119888000D01*
D48*
X144571000Y-120859000D02*
X144571000Y-120062002D01*
D45*
X144018000Y-119380000D02*
X143764000Y-119126000D01*
D46*
X143764000Y-119126000D02*
X143510000Y-118872000D01*
D45*
X144018000Y-119888000D02*
X144018000Y-119380000D01*
D47*
X132366000Y-138283000D02*
X133243000Y-138283000D01*
X133796000Y-137730000D02*
X134620000Y-137730000D01*
X133243000Y-138283000D02*
X133796000Y-137730000D01*
D48*
X138684000Y-126238000D02*
X138684000Y-130302000D01*
X138684000Y-130302000D02*
X135128000Y-133858000D01*
D43*
X135128000Y-133858000D02*
X135128000Y-133920000D01*
D48*
X134366000Y-121920000D02*
X138684000Y-126238000D01*
D49*
X132080000Y-121920000D02*
X131572000Y-121412000D01*
D46*
X131318000Y-118872000D02*
X131572000Y-119126000D01*
D44*
X131135000Y-117770000D02*
X131135000Y-118689000D01*
X131318000Y-118872000D02*
X131135000Y-118689000D01*
D46*
X131572000Y-119126000D02*
X131572000Y-119380000D01*
D45*
X131572000Y-121412000D02*
X131572000Y-119380000D01*
D48*
X132080000Y-121920000D02*
X134366000Y-121920000D01*
D43*
X135128000Y-133920000D02*
X134620000Y-134428000D01*
D47*
X133413500Y-134556500D02*
X134491500Y-134556500D01*
X134491500Y-134556500D02*
X134620000Y-134428000D01*
X134620000Y-134428000D02*
X133542000Y-134428000D01*
X133542000Y-134428000D02*
X133413500Y-134556500D01*
X133413500Y-134556500D02*
X133187000Y-134783000D01*
X132366000Y-134783000D02*
X133187000Y-134783000D01*
X133187000Y-134783000D02*
X134265000Y-134783000D01*
X134265000Y-134783000D02*
X134620000Y-134428000D01*
X132366000Y-134783000D02*
X131536000Y-134783000D01*
X131592000Y-135783000D02*
X132366000Y-135783000D01*
X131318000Y-135509000D02*
X131592000Y-135783000D01*
X131318000Y-135001000D02*
X131318000Y-135509000D01*
X131536000Y-134783000D02*
X131318000Y-135001000D01*
X132366000Y-135283000D02*
X133251000Y-135283000D01*
X133796000Y-135828000D02*
X134620000Y-135828000D01*
X133251000Y-135283000D02*
X133796000Y-135828000D01*
X123666000Y-138283000D02*
X122789000Y-138283000D01*
X122236000Y-137730000D02*
X121412000Y-137730000D01*
X122789000Y-138283000D02*
X122236000Y-137730000D01*
X123666000Y-135283000D02*
X122781000Y-135283000D01*
X122236000Y-135828000D02*
X121412000Y-135828000D01*
X122781000Y-135283000D02*
X122236000Y-135828000D01*
X128266000Y-141383000D02*
X128266000Y-140204000D01*
X128266000Y-140204000D02*
X128016000Y-139954000D01*
D48*
X105156000Y-109794000D02*
X105156000Y-104648000D01*
D43*
X121220000Y-139130000D02*
X120650000Y-139700000D01*
D48*
X105918000Y-122682000D02*
X111506000Y-122682000D01*
X111506000Y-122682000D02*
X112522000Y-123698000D01*
X112522000Y-123698000D02*
X112522000Y-132588000D01*
X112522000Y-132588000D02*
X119634000Y-139700000D01*
X119634000Y-139700000D02*
X120650000Y-139700000D01*
X104267000Y-120904000D02*
X104267000Y-121031000D01*
D43*
X104267000Y-119032000D02*
X104267000Y-120523000D01*
D48*
X104267000Y-120523000D02*
X104267000Y-120777000D01*
X104267000Y-120777000D02*
X104267000Y-120904000D01*
X104267000Y-121031000D02*
X105918000Y-122682000D01*
D43*
X121412000Y-139130000D02*
X121220000Y-139130000D01*
D47*
X122618500Y-139001500D02*
X121540500Y-139001500D01*
X121540500Y-139001500D02*
X121412000Y-139130000D01*
X121412000Y-139130000D02*
X122490000Y-139130000D01*
X122490000Y-139130000D02*
X122618500Y-139001500D01*
X122618500Y-139001500D02*
X122837000Y-138783000D01*
X123666000Y-138783000D02*
X122837000Y-138783000D01*
X122837000Y-138783000D02*
X121759000Y-138783000D01*
X121759000Y-138783000D02*
X121412000Y-139130000D01*
X123666000Y-137783000D02*
X124448000Y-137783000D01*
X124488000Y-138783000D02*
X123666000Y-138783000D01*
X124714000Y-138557000D02*
X124488000Y-138783000D01*
X124714000Y-138049000D02*
X124714000Y-138557000D01*
X124448000Y-137783000D02*
X124714000Y-138049000D01*
D48*
X117348000Y-109794000D02*
X117348000Y-104648000D01*
X121412000Y-133858000D02*
X116840000Y-129286000D01*
D43*
X121412000Y-134428000D02*
X121412000Y-133858000D01*
D48*
X116459000Y-120777000D02*
X116459000Y-126746000D01*
X116459000Y-120523000D02*
X116459000Y-120777000D01*
D43*
X116459000Y-120523000D02*
X116459000Y-119032000D01*
D48*
X116840000Y-127127000D02*
X116459000Y-126746000D01*
X116840000Y-129286000D02*
X116840000Y-127127000D01*
D47*
X122682000Y-134620000D02*
X121604000Y-134620000D01*
X121604000Y-134620000D02*
X121412000Y-134428000D01*
X121412000Y-134428000D02*
X122490000Y-134428000D01*
X122490000Y-134428000D02*
X122682000Y-134620000D01*
X122682000Y-134620000D02*
X122845000Y-134783000D01*
X123666000Y-134783000D02*
X122845000Y-134783000D01*
X122845000Y-134783000D02*
X121767000Y-134783000D01*
X121767000Y-134783000D02*
X121412000Y-134428000D01*
X123666000Y-135783000D02*
X124567000Y-135783000D01*
X124496000Y-134783000D02*
X124714000Y-135001000D01*
X124496000Y-134783000D02*
X123666000Y-134783000D01*
X124714000Y-135636000D02*
X124714000Y-135001000D01*
X124567000Y-135783000D02*
X124714000Y-135636000D01*
D43*
X145288000Y-145288000D02*
X145288000Y-147828000D01*
X147828000Y-145288000D02*
X147828000Y-147828000D01*
D46*
X105537000Y-113931000D02*
X107315000Y-115709000D01*
X105537000Y-113759000D02*
X105537000Y-113931000D01*
X117729000Y-113759000D02*
X117729000Y-113931000D01*
X117729000Y-113931000D02*
X119507000Y-115709000D01*
D43*
X102997000Y-119032000D02*
X102997000Y-116967000D01*
X102997000Y-116967000D02*
X104267000Y-115697000D01*
D47*
X106426000Y-115824000D02*
X106426000Y-116078000D01*
X106426000Y-116078000D02*
X106680000Y-116332000D01*
X106680000Y-116332000D02*
X107696000Y-116332000D01*
X107696000Y-116332000D02*
X107950000Y-116078000D01*
X107950000Y-116078000D02*
X107950000Y-115062000D01*
X107950000Y-115062000D02*
X107696000Y-114808000D01*
X107696000Y-114808000D02*
X107442000Y-114808000D01*
X106172000Y-113538000D02*
X106172000Y-113284000D01*
X107442000Y-114808000D02*
X106172000Y-113538000D01*
X106172000Y-113284000D02*
X106426000Y-113538000D01*
X106426000Y-113538000D02*
X107696000Y-114808000D01*
X106172000Y-112522000D02*
X106172000Y-113284000D01*
X106045000Y-112395000D02*
X106172000Y-112522000D01*
X105664000Y-112014000D02*
X105791000Y-112141000D01*
X104267000Y-112014000D02*
X104267000Y-112014000D01*
X104775000Y-112522000D02*
X104267000Y-112014000D01*
X105156000Y-112395000D02*
X104902000Y-112649000D01*
X106045000Y-112395000D02*
X105156000Y-112395000D01*
D43*
X104267000Y-112014000D02*
X104587000Y-111694000D01*
D47*
X104267000Y-113759000D02*
X104742000Y-113759000D01*
X104902000Y-113599000D02*
X104902000Y-113665000D01*
X104742000Y-113759000D02*
X104902000Y-113599000D01*
X104742000Y-113759000D02*
X104902000Y-113919000D01*
X105156000Y-114808000D02*
X105410000Y-114808000D01*
X105410000Y-114808000D02*
X106426000Y-115824000D01*
X104902000Y-113919000D02*
X104902000Y-114554000D01*
X104902000Y-114554000D02*
X105156000Y-114808000D01*
D43*
X104267000Y-113632000D02*
X104267000Y-115697000D01*
X104267000Y-112776000D02*
X104267000Y-112014000D01*
X104267000Y-113632000D02*
X104267000Y-112776000D01*
D47*
X105791000Y-112141000D02*
X106045000Y-112395000D01*
X104902000Y-113665000D02*
X104902000Y-113919000D01*
X104775000Y-112458500D02*
X104775000Y-112522000D01*
X104775000Y-115189000D02*
X104775000Y-112458500D01*
X104267000Y-115697000D02*
X104775000Y-115189000D01*
X104902000Y-112649000D02*
X104902000Y-113411000D01*
X104902000Y-113411000D02*
X104902000Y-113665000D01*
X104267000Y-112141000D02*
X104267000Y-112014000D01*
X105410000Y-112141000D02*
X104267000Y-112141000D01*
X105791000Y-112141000D02*
X105410000Y-112141000D01*
X104965500Y-112268000D02*
X105410000Y-112268000D01*
X105410000Y-112268000D02*
X105410000Y-112141000D01*
X104775000Y-112458500D02*
X104965500Y-112268000D01*
D43*
X104587000Y-111694000D02*
X105156000Y-111694000D01*
X104267000Y-112583000D02*
X104267000Y-113632000D01*
X105156000Y-111694000D02*
X104267000Y-112583000D01*
X117348000Y-111694000D02*
X116459000Y-112583000D01*
X116459000Y-112583000D02*
X116459000Y-113632000D01*
X116779000Y-111694000D02*
X117348000Y-111694000D01*
D47*
X116967000Y-112458500D02*
X117157500Y-112268000D01*
X117602000Y-112268000D02*
X117602000Y-112141000D01*
X117157500Y-112268000D02*
X117602000Y-112268000D01*
X117983000Y-112141000D02*
X117602000Y-112141000D01*
X117602000Y-112141000D02*
X116459000Y-112141000D01*
X116459000Y-112141000D02*
X116459000Y-112014000D01*
X117094000Y-113411000D02*
X117094000Y-113665000D01*
X117094000Y-112649000D02*
X117094000Y-113411000D01*
X116459000Y-115697000D02*
X116967000Y-115189000D01*
X116967000Y-115189000D02*
X116967000Y-112458500D01*
X116967000Y-112458500D02*
X116967000Y-112522000D01*
X117094000Y-113665000D02*
X117094000Y-113919000D01*
X117983000Y-112141000D02*
X118237000Y-112395000D01*
D43*
X116459000Y-113632000D02*
X116459000Y-112776000D01*
X116459000Y-112776000D02*
X116459000Y-112014000D01*
X116459000Y-113632000D02*
X116459000Y-115697000D01*
X116459000Y-115697000D02*
X115189000Y-116967000D01*
D47*
X117094000Y-114554000D02*
X117348000Y-114808000D01*
X117094000Y-113919000D02*
X117094000Y-114554000D01*
X117602000Y-114808000D02*
X118618000Y-115824000D01*
X117348000Y-114808000D02*
X117602000Y-114808000D01*
X116934000Y-113759000D02*
X117094000Y-113919000D01*
X116934000Y-113759000D02*
X117094000Y-113599000D01*
X117094000Y-113599000D02*
X117094000Y-113665000D01*
X116459000Y-113759000D02*
X116934000Y-113759000D01*
D43*
X116459000Y-112014000D02*
X116779000Y-111694000D01*
D47*
X118237000Y-112395000D02*
X117348000Y-112395000D01*
X117348000Y-112395000D02*
X117094000Y-112649000D01*
X116967000Y-112522000D02*
X116459000Y-112014000D01*
X116459000Y-112014000D02*
X116459000Y-112014000D01*
X117856000Y-112014000D02*
X117983000Y-112141000D01*
X118237000Y-112395000D02*
X118364000Y-112522000D01*
X118364000Y-112522000D02*
X118364000Y-113284000D01*
D43*
X115189000Y-116967000D02*
X115189000Y-119032000D01*
D47*
X118618000Y-113538000D02*
X119888000Y-114808000D01*
X118364000Y-113284000D02*
X118618000Y-113538000D01*
X119634000Y-114808000D02*
X118364000Y-113538000D01*
X118364000Y-113538000D02*
X118364000Y-113284000D01*
X119888000Y-114808000D02*
X119634000Y-114808000D01*
X120142000Y-115062000D02*
X119888000Y-114808000D01*
X120142000Y-116078000D02*
X120142000Y-115062000D01*
X119888000Y-116332000D02*
X120142000Y-116078000D01*
X118872000Y-116332000D02*
X119888000Y-116332000D01*
X118618000Y-116078000D02*
X118872000Y-116332000D01*
X118618000Y-115824000D02*
X118618000Y-116078000D01*
D43*
X134554000Y-145796000D02*
X135636000Y-146878000D01*
X134874000Y-149098000D02*
X131572000Y-149098000D01*
X135636000Y-148336000D02*
X134874000Y-149098000D01*
X135636000Y-146878000D02*
X135636000Y-148336000D01*
D48*
X113284000Y-143256000D02*
X115062000Y-145034000D01*
X110236000Y-140208000D02*
X113284000Y-143256000D01*
X115062000Y-145034000D02*
X115824000Y-145034000D01*
D43*
X129667000Y-154272000D02*
X129667000Y-151003000D01*
X129667000Y-151003000D02*
X131572000Y-149098000D01*
X134554000Y-146116000D02*
X134554000Y-145796000D01*
X133604000Y-144526000D02*
X134554000Y-145476000D01*
X134554000Y-145476000D02*
X134554000Y-145796000D01*
X137390000Y-142494000D02*
X137390000Y-142518000D01*
X137390000Y-142518000D02*
X135382000Y-144526000D01*
X135382000Y-144526000D02*
X133604000Y-144526000D01*
D48*
X115824000Y-143764000D02*
X112268000Y-140208000D01*
X112268000Y-140208000D02*
X110236000Y-140208000D01*
X115824000Y-143764000D02*
X115824000Y-145034000D01*
D43*
X129540000Y-154686000D02*
X129667000Y-154559000D01*
X129667000Y-154559000D02*
X129667000Y-154272000D01*
X121732000Y-142174000D02*
X120904000Y-143002000D01*
X121732000Y-142174000D02*
X121732000Y-141986000D01*
D48*
X106426000Y-140208000D02*
X110236000Y-140208000D01*
D43*
X131826000Y-142494000D02*
X131826000Y-142482000D01*
X131826000Y-142482000D02*
X131826000Y-142748000D01*
X131826000Y-142748000D02*
X133604000Y-144526000D01*
D46*
X131814000Y-142494000D02*
X130556000Y-142494000D01*
D47*
X130266000Y-142204000D02*
X130556000Y-142494000D01*
X130266000Y-142204000D02*
X130266000Y-141383000D01*
D46*
X131814000Y-142494000D02*
X131826000Y-142482000D01*
D47*
X129667000Y-154559000D02*
X129667000Y-154272000D01*
D43*
X130568000Y-124206000D02*
X130568000Y-125402000D01*
X130568000Y-125402000D02*
X130642000Y-125476000D01*
D46*
X130642000Y-125476000D02*
X130642000Y-125308000D01*
D44*
X130642000Y-125771000D02*
X130642000Y-125476000D01*
X130642000Y-125476000D02*
X130642000Y-125562000D01*
D43*
X125222000Y-127242000D02*
X125222000Y-125984000D01*
D44*
X125222000Y-125984000D02*
X125136000Y-125898000D01*
D43*
X125222000Y-127242000D02*
X125210000Y-127254000D01*
D44*
X125136000Y-125689000D02*
X125136000Y-125898000D01*
X130642000Y-126421000D02*
X129611000Y-126421000D01*
X129611000Y-126421000D02*
X128778000Y-127254000D01*
X130642000Y-126421000D02*
X128849000Y-126421000D01*
X128849000Y-126421000D02*
X128778000Y-126492000D01*
D46*
X128524000Y-129032000D02*
X128778000Y-128778000D01*
D43*
X128778000Y-127254000D02*
X128778000Y-128270000D01*
D46*
X128778000Y-128778000D02*
X128778000Y-128270000D01*
D44*
X128333500Y-130365500D02*
X128333500Y-129222500D01*
D47*
X128270000Y-130429000D02*
X128270000Y-132679000D01*
X128270000Y-130429000D02*
X128333500Y-130365500D01*
D44*
X128333500Y-129222500D02*
X128524000Y-129032000D01*
D43*
X128778000Y-126492000D02*
X128778000Y-127254000D01*
D47*
X128266000Y-132683000D02*
X128270000Y-132679000D01*
D44*
X126492000Y-125476000D02*
X126492000Y-125730000D01*
X126492000Y-125730000D02*
X126746000Y-125984000D01*
X127000000Y-125730000D02*
X127000000Y-126238000D01*
X127000000Y-126238000D02*
X127254000Y-126492000D01*
X126746000Y-125730000D02*
X126746000Y-125984000D01*
X126746000Y-125984000D02*
X127254000Y-126492000D01*
X126746000Y-125039000D02*
X126746000Y-125222000D01*
X126746000Y-125222000D02*
X127000000Y-125476000D01*
X127071000Y-125039000D02*
X127254000Y-125222000D01*
X127071000Y-125039000D02*
X126746000Y-125039000D01*
X126746000Y-125039000D02*
X126492000Y-125039000D01*
X127254000Y-125222000D02*
X127254000Y-125730000D01*
X127254000Y-125730000D02*
X127254000Y-126492000D01*
X126746000Y-125730000D02*
X127000000Y-125730000D01*
X127000000Y-125730000D02*
X127254000Y-125730000D01*
X126492000Y-125039000D02*
X126492000Y-125476000D01*
X126055000Y-125039000D02*
X126492000Y-125039000D01*
X126055000Y-125039000D02*
X126492000Y-125476000D01*
X126492000Y-125476000D02*
X126746000Y-125730000D01*
X125136000Y-125039000D02*
X126055000Y-125039000D01*
D46*
X127254000Y-128270000D02*
X127254000Y-128778000D01*
D44*
X127698500Y-130359500D02*
X127698500Y-129222500D01*
D47*
X127768000Y-130429000D02*
X127768000Y-132681000D01*
X127768000Y-130429000D02*
X127698500Y-130359500D01*
D44*
X127698500Y-129222500D02*
X127508000Y-129032000D01*
D46*
X127508000Y-129032000D02*
X127254000Y-128778000D01*
D43*
X127254000Y-126492000D02*
X127254000Y-128270000D01*
D47*
X127766000Y-132683000D02*
X127768000Y-132681000D01*
D44*
X148551900Y-129680500D02*
X148551900Y-130848100D01*
X148551900Y-130848100D02*
X148336000Y-131064000D01*
D45*
X104206000Y-157495240D02*
X103886000Y-157815240D01*
D43*
X103886000Y-160032000D02*
X103886000Y-156972000D01*
X103886000Y-156972000D02*
X103886000Y-151384000D01*
X103886000Y-151384000D02*
X106426000Y-148844000D01*
X103886000Y-160032000D02*
X103886000Y-157815240D01*
X106426000Y-147828000D02*
X106426000Y-148844000D01*
D44*
X109004100Y-147941500D02*
X109004100Y-146850100D01*
X109004100Y-146850100D02*
X108966000Y-146812000D01*
D47*
X108750100Y-132728500D02*
X108750100Y-132041900D01*
X110705900Y-132041900D02*
X110426500Y-131762500D01*
X110705900Y-132041900D02*
X110705900Y-132728500D01*
X109029500Y-131762500D02*
X110426500Y-131762500D01*
X108750100Y-132041900D02*
X109029500Y-131762500D01*
D44*
X110705900Y-132728500D02*
X110705900Y-133819900D01*
X110705900Y-133819900D02*
X110744000Y-133858000D01*
D46*
X147122000Y-130878000D02*
X147181000Y-130937000D01*
D44*
X147243800Y-130874200D02*
X147181000Y-130937000D01*
X147243800Y-129680500D02*
X147243800Y-130874200D01*
X109397800Y-132728500D02*
X109397800Y-133922200D01*
X109397800Y-133922200D02*
X109335000Y-133985000D01*
D46*
X109276000Y-133926000D02*
X109335000Y-133985000D01*
D44*
X110312200Y-147941500D02*
X110312200Y-146622200D01*
X110312200Y-146622200D02*
X110236000Y-146546000D01*
D45*
X145675000Y-123069000D02*
X145972000Y-123366000D01*
X145972000Y-123366000D02*
X146492000Y-123366000D01*
X146492000Y-123366000D02*
X146824000Y-123698000D01*
X144780000Y-123964000D02*
X145675000Y-123069000D01*
X145675000Y-123069000D02*
X146492000Y-122252000D01*
X146492000Y-122252000D02*
X146492000Y-122174000D01*
X146492000Y-122174000D02*
X146624000Y-122428000D01*
X144780000Y-123964000D02*
X146558000Y-123964000D01*
X146558000Y-123964000D02*
X146824000Y-123698000D01*
D46*
X146812000Y-123571000D02*
X146697000Y-123571000D01*
D43*
X146492000Y-123366000D02*
X146824000Y-123698000D01*
X146492000Y-122174000D02*
X146492000Y-123366000D01*
D46*
X146939000Y-123698000D02*
X146824000Y-123698000D01*
D44*
X147904200Y-124663200D02*
X147904200Y-125335500D01*
X147904200Y-124663200D02*
X147447000Y-124206000D01*
D46*
X146939000Y-123698000D02*
X147447000Y-124206000D01*
X109093000Y-126746000D02*
X109601000Y-127254000D01*
D44*
X110058200Y-127711200D02*
X109601000Y-127254000D01*
X110058200Y-127711200D02*
X110058200Y-128383500D01*
D46*
X109093000Y-126746000D02*
X108978000Y-126746000D01*
D43*
X108978000Y-126746000D02*
X107122000Y-126746000D01*
X107122000Y-126746000D02*
X108646000Y-125222000D01*
X108646000Y-125222000D02*
X108646000Y-126414000D01*
X108646000Y-126414000D02*
X108978000Y-126746000D01*
D46*
X108966000Y-126619000D02*
X108851000Y-126619000D01*
X110617000Y-153924000D02*
X110109000Y-153416000D01*
D44*
X109651800Y-152958800D02*
X110109000Y-153416000D01*
X109651800Y-152958800D02*
X109651800Y-152286500D01*
D46*
X110617000Y-153924000D02*
X110732000Y-153924000D01*
D43*
X110732000Y-153924000D02*
X112588000Y-153924000D01*
X112588000Y-153924000D02*
X111064000Y-155448000D01*
X111064000Y-155448000D02*
X111064000Y-154256000D01*
X111064000Y-154256000D02*
X110732000Y-153924000D01*
D46*
X110744000Y-154051000D02*
X110859000Y-154051000D01*
D44*
X148549000Y-141945000D02*
X148549000Y-140789000D01*
X148549000Y-141945000D02*
X148590000Y-141986000D01*
D47*
X104902000Y-131826000D02*
X103378000Y-131826000D01*
X105115000Y-132039000D02*
X104902000Y-131826000D01*
X105115000Y-132661000D02*
X105115000Y-132039000D01*
X103165000Y-132039000D02*
X103165000Y-132661000D01*
X103378000Y-131826000D02*
X103165000Y-132039000D01*
D44*
X105115000Y-133817000D02*
X105156000Y-133858000D01*
X105115000Y-133817000D02*
X105115000Y-132661000D01*
X147243800Y-140856500D02*
X147243800Y-142175800D01*
X147243800Y-142175800D02*
X147320000Y-142252000D01*
D46*
X147249000Y-142181000D02*
X147308000Y-142240000D01*
X103815000Y-133279000D02*
X103815000Y-134053000D01*
X103815000Y-134053000D02*
X103874000Y-134112000D01*
D44*
X103815000Y-132661000D02*
X103815000Y-133279000D01*
D45*
X145548000Y-134372000D02*
X145796000Y-134620000D01*
X145796000Y-134620000D02*
X146570000Y-134620000D01*
X146570000Y-134620000D02*
X146824000Y-134874000D01*
X144780000Y-135140000D02*
X145548000Y-134372000D01*
X145548000Y-134372000D02*
X146570000Y-133350000D01*
X146570000Y-133350000D02*
X146624000Y-133350000D01*
X144780000Y-135140000D02*
X146558000Y-135140000D01*
X146558000Y-135140000D02*
X146824000Y-134874000D01*
D46*
X146939000Y-134874000D02*
X146824000Y-134874000D01*
X146824000Y-133550000D02*
X146624000Y-133350000D01*
D43*
X146492000Y-134542000D02*
X146824000Y-134874000D01*
X146492000Y-133350000D02*
X146492000Y-134542000D01*
D46*
X146939000Y-134874000D02*
X146824000Y-134874000D01*
D44*
X147904200Y-135839200D02*
X147904200Y-136511500D01*
X147904200Y-135839200D02*
X147447000Y-135382000D01*
D46*
X146939000Y-134874000D02*
X147447000Y-135382000D01*
X103505000Y-126746000D02*
X104013000Y-127254000D01*
D44*
X104470200Y-127711200D02*
X104013000Y-127254000D01*
X104470200Y-127711200D02*
X104470200Y-128383500D01*
D46*
X103505000Y-126746000D02*
X103390000Y-126746000D01*
D43*
X103390000Y-126746000D02*
X101534000Y-126746000D01*
X101534000Y-126746000D02*
X103058000Y-125222000D01*
X103058000Y-125222000D02*
X103058000Y-126414000D01*
X103058000Y-126414000D02*
X103390000Y-126746000D01*
D46*
X103390000Y-125422000D02*
X103190000Y-125222000D01*
X103505000Y-126746000D02*
X103390000Y-126746000D01*
D43*
X142113000Y-153456000D02*
X141986000Y-153583000D01*
X141986000Y-153583000D02*
X141986000Y-155003998D01*
X141986000Y-155003998D02*
X142113000Y-153456000D01*
X141986000Y-154940000D02*
X141986000Y-153583000D01*
X118552000Y-159596000D02*
X119210000Y-159596000D01*
X119210000Y-159596000D02*
X119634000Y-160020000D01*
X120777000Y-159672000D02*
X120701000Y-159596000D01*
X120701000Y-159596000D02*
X119210000Y-159596000D01*
X119210000Y-159596000D02*
X120408000Y-160794000D01*
X120408000Y-161544000D02*
X120408000Y-160794000D01*
X120408000Y-160794000D02*
X120408000Y-160041000D01*
X120408000Y-160041000D02*
X120777000Y-159672000D01*
D46*
X116652000Y-157396000D02*
X116652000Y-157038000D01*
X116652000Y-157038000D02*
X116586000Y-156972000D01*
X116586000Y-156972000D02*
X116652000Y-157396000D01*
D43*
X121908000Y-161544000D02*
X122428000Y-161544000D01*
X122428000Y-161544000D02*
X122682000Y-161290000D01*
X129667000Y-159672000D02*
X129667000Y-161671000D01*
X122670000Y-162306000D02*
X121908000Y-161544000D01*
X129032000Y-162306000D02*
X122670000Y-162306000D01*
X129667000Y-161671000D02*
X129032000Y-162306000D01*
D46*
X143383000Y-157099000D02*
X143383000Y-158456000D01*
X142240000Y-155956000D02*
X143383000Y-157099000D01*
X135890000Y-155956000D02*
X142240000Y-155956000D01*
X134493000Y-154559000D02*
X135890000Y-155956000D01*
X134493000Y-153456000D02*
X134493000Y-154559000D01*
X129667000Y-160401000D02*
X129667000Y-159672000D01*
D49*
X143383000Y-160655000D02*
X143002000Y-161036000D01*
X143383000Y-160655000D02*
X143383000Y-158456000D01*
D46*
X129667000Y-160401000D02*
X130302000Y-161036000D01*
D43*
X143383000Y-158456000D02*
X143534000Y-158456000D01*
D46*
X117602000Y-157396000D02*
X117602000Y-157988000D01*
X121412000Y-157988000D02*
X122047000Y-158623000D01*
X120142000Y-157988000D02*
X121412000Y-157988000D01*
X119634000Y-158496000D02*
X120142000Y-157988000D01*
X118110000Y-158496000D02*
X119634000Y-158496000D01*
X117602000Y-157988000D02*
X118110000Y-158496000D01*
X122047000Y-159672000D02*
X122047000Y-158623000D01*
X122047000Y-157607000D02*
X122936000Y-156718000D01*
X122936000Y-156718000D02*
X134025000Y-156718000D01*
X134025000Y-156718000D02*
X135763000Y-158456000D01*
X122047000Y-158623000D02*
X122047000Y-157607000D01*
X123317000Y-159672000D02*
X123317000Y-157861000D01*
X136906000Y-153416000D02*
X136946000Y-153456000D01*
X123317000Y-157861000D02*
X123190000Y-157988000D01*
X136946000Y-153456000D02*
X137033000Y-153456000D01*
X138303000Y-160655000D02*
X138303000Y-158456000D01*
X137922000Y-161036000D02*
X138303000Y-160655000D01*
X134366000Y-161036000D02*
X137922000Y-161036000D01*
X124587000Y-159672000D02*
X124587000Y-158623000D01*
X125730000Y-157480000D02*
X130810000Y-157480000D01*
X124587000Y-158623000D02*
X125730000Y-157480000D01*
X134366000Y-161036000D02*
X130810000Y-157480000D01*
X127127000Y-159672000D02*
X127127000Y-160909000D01*
X127127000Y-160909000D02*
X127000000Y-161036000D01*
X127127000Y-159672000D02*
X127127000Y-159131000D01*
X139446000Y-153416000D02*
X139486000Y-153456000D01*
X139486000Y-153456000D02*
X139573000Y-153456000D01*
X125857000Y-159672000D02*
X125857000Y-158877000D01*
X130048000Y-158242000D02*
X133858000Y-162052000D01*
X126492000Y-158242000D02*
X130048000Y-158242000D01*
X125857000Y-158877000D02*
X126492000Y-158242000D01*
X140843000Y-158456000D02*
X140843000Y-160528000D01*
X139446000Y-162052000D02*
X133858000Y-162052000D01*
X140843000Y-160655000D02*
X139446000Y-162052000D01*
X140843000Y-160528000D02*
X140843000Y-160655000D01*
D47*
X142494000Y-138176000D02*
X142748000Y-137922000D01*
X142748000Y-137922000D02*
X142748000Y-135509000D01*
X148717000Y-132080000D02*
X149225000Y-131572000D01*
X146939000Y-128714500D02*
X146596100Y-129057400D01*
X148907500Y-128714500D02*
X146939000Y-128714500D01*
X146596100Y-129680500D02*
X146596100Y-129057400D01*
X146177000Y-132080000D02*
X142748000Y-135509000D01*
X148717000Y-132080000D02*
X146177000Y-132080000D01*
X149225000Y-131572000D02*
X149225000Y-129032000D01*
X149225000Y-129032000D02*
X148907500Y-128714500D01*
D46*
X110998000Y-160782000D02*
X110914000Y-160698000D01*
X110914000Y-160462000D02*
X110914000Y-160698000D01*
X110914000Y-160462000D02*
X110086000Y-161290000D01*
X109662000Y-161290000D02*
X110086000Y-161290000D01*
D44*
X112776000Y-155702000D02*
X112268000Y-155702000D01*
X114046000Y-154432000D02*
X112776000Y-155702000D01*
X114046000Y-151384000D02*
X114046000Y-154432000D01*
X110959900Y-148297900D02*
X114046000Y-151384000D01*
X110914000Y-157056000D02*
X110914000Y-158562000D01*
X112268000Y-155702000D02*
X110914000Y-157056000D01*
X110959900Y-147941500D02*
X110959900Y-148297900D01*
D46*
X110086000Y-157734000D02*
X110914000Y-158562000D01*
X109662000Y-157734000D02*
X110086000Y-157734000D01*
D47*
X146050000Y-140970000D02*
X146482600Y-140970000D01*
X146482600Y-140970000D02*
X146596100Y-140856500D01*
D46*
X110914000Y-159512000D02*
X109662000Y-159512000D01*
X122498000Y-150230000D02*
X122498000Y-147758000D01*
X122498000Y-147758000D02*
X124714000Y-145542000D01*
X124714000Y-143256000D02*
X125222000Y-142748000D01*
D47*
X125766000Y-142204000D02*
X125766000Y-141383000D01*
X125766000Y-142204000D02*
X125476000Y-142494000D01*
D46*
X125222000Y-142748000D02*
X125476000Y-142494000D01*
X124714000Y-145542000D02*
X124714000Y-143256000D01*
X123298000Y-150230000D02*
X123298000Y-148482000D01*
X123298000Y-148482000D02*
X125730000Y-146050000D01*
X125730000Y-143256000D02*
X125730000Y-146050000D01*
D47*
X126266000Y-141383000D02*
X126266000Y-142720000D01*
X126266000Y-142720000D02*
X125984000Y-143002000D01*
D46*
X125730000Y-143256000D02*
X125984000Y-143002000D01*
X124098000Y-150230000D02*
X124098000Y-149206000D01*
D47*
X126766000Y-142982000D02*
X126766000Y-141383000D01*
D44*
X126746000Y-143256000D02*
X126746000Y-143002000D01*
D47*
X126766000Y-142982000D02*
X126746000Y-143002000D01*
D46*
X126746000Y-146558000D02*
X126746000Y-143256000D01*
X124098000Y-149206000D02*
X126746000Y-146558000D01*
X124898000Y-150230000D02*
X124898000Y-149930000D01*
X124898000Y-149930000D02*
X127762000Y-147066000D01*
X127762000Y-147066000D02*
X127762000Y-143256000D01*
X127762000Y-143256000D02*
X127508000Y-143002000D01*
D47*
X127266000Y-142760000D02*
X127508000Y-143002000D01*
X127266000Y-141383000D02*
X127266000Y-142760000D01*
D46*
X126492000Y-150688000D02*
X126492000Y-149860000D01*
X126492000Y-149860000D02*
X128778000Y-147574000D01*
X128778000Y-143256000D02*
X128778000Y-147574000D01*
D47*
X127766000Y-141383000D02*
X127766000Y-142244000D01*
D46*
X128778000Y-143256000D02*
X128270000Y-142748000D01*
D47*
X127766000Y-142244000D02*
X128016000Y-142494000D01*
D44*
X128270000Y-142748000D02*
X128016000Y-142494000D01*
D46*
X125857000Y-154272000D02*
X125857000Y-153223000D01*
X125857000Y-153223000D02*
X126492000Y-152588000D01*
X125914000Y-154215000D02*
X125857000Y-154272000D01*
X122498000Y-152030000D02*
X122498000Y-152838000D01*
X122047000Y-153289000D02*
X122047000Y-154272000D01*
X122498000Y-152838000D02*
X122047000Y-153289000D01*
X124098000Y-152030000D02*
X124098000Y-152800000D01*
X124587000Y-153289000D02*
X124587000Y-154272000D01*
X124098000Y-152800000D02*
X124587000Y-153289000D01*
X123298000Y-152030000D02*
X123298000Y-154253000D01*
X123298000Y-154253000D02*
X123317000Y-154272000D01*
X127127000Y-154272000D02*
X127127000Y-153797000D01*
X127127000Y-153797000D02*
X127762000Y-153162000D01*
X127762000Y-153162000D02*
X127762000Y-152146000D01*
X127762000Y-152146000D02*
X127254000Y-151638000D01*
X127254000Y-151638000D02*
X125290000Y-151638000D01*
X125290000Y-151638000D02*
X124898000Y-152030000D01*
X107762000Y-161290000D02*
X107762000Y-161610000D01*
X107762000Y-161610000D02*
X108712000Y-162560000D01*
X108712000Y-162560000D02*
X111016000Y-162560000D01*
X107762000Y-161290000D02*
X107762000Y-159512000D01*
X107762000Y-159512000D02*
X107762000Y-157734000D01*
X107523240Y-157495240D02*
X107762000Y-157734000D01*
X111016000Y-162560000D02*
X113114000Y-160462000D01*
X106106000Y-157495240D02*
X107523240Y-157495240D01*
X107762000Y-161290000D02*
X106504000Y-160032000D01*
X106504000Y-160032000D02*
X106504000Y-157893240D01*
X106504000Y-157893240D02*
X106106000Y-157495240D01*
X113114000Y-158562000D02*
X113738000Y-158562000D01*
X113738000Y-158562000D02*
X114300000Y-158000000D01*
X128397000Y-159672000D02*
X128397000Y-160909000D01*
X116652000Y-160462000D02*
X116652000Y-159596000D01*
X116586000Y-160528000D02*
X116652000Y-160462000D01*
X128397000Y-160909000D02*
X128270000Y-161036000D01*
D47*
G36*
X144145000Y-154992606D02*
X144145000Y-156071000D01*
X143668750Y-156071000D01*
X143510000Y-156229750D01*
X143510000Y-158329000D01*
X143530000Y-158329000D01*
X143530000Y-158583000D01*
X143510000Y-158583000D01*
X143510000Y-160682250D01*
X143668750Y-160841000D01*
X144145000Y-160841000D01*
X144145000Y-162761394D01*
X143203394Y-163703000D01*
X115951000Y-163703000D01*
X115951000Y-161493285D01*
X116359244Y-161662803D01*
X116810775Y-161663197D01*
X117228086Y-161490767D01*
X117547645Y-161171765D01*
X117720803Y-160754756D01*
X117721015Y-160512334D01*
X117762910Y-160577441D01*
X117975110Y-160722431D01*
X118227000Y-160773440D01*
X118770994Y-160773440D01*
X119010560Y-161013006D01*
X119010560Y-162169000D01*
X119054838Y-162404317D01*
X119193910Y-162620441D01*
X119406110Y-162765431D01*
X119658000Y-162816440D01*
X120658000Y-162816440D01*
X120893317Y-162772162D01*
X121109441Y-162633090D01*
X121155969Y-162564994D01*
X121298302Y-162707327D01*
X121531691Y-162804000D01*
X121872250Y-162804000D01*
X122031000Y-162645250D01*
X122031000Y-161671000D01*
X122285000Y-161671000D01*
X122285000Y-162645250D01*
X122443750Y-162804000D01*
X122784309Y-162804000D01*
X123017698Y-162707327D01*
X123196327Y-162528699D01*
X123293000Y-162295310D01*
X123293000Y-161829750D01*
X123134250Y-161671000D01*
X122285000Y-161671000D01*
X122031000Y-161671000D01*
X122011000Y-161671000D01*
X122011000Y-161417000D01*
X122031000Y-161417000D01*
X122031000Y-161397000D01*
X122285000Y-161397000D01*
X122285000Y-161417000D01*
X123134250Y-161417000D01*
X123293000Y-161258250D01*
X123293000Y-161069440D01*
X123617000Y-161069440D01*
X123852317Y-161025162D01*
X123951528Y-160961322D01*
X124035110Y-161018431D01*
X124287000Y-161069440D01*
X124887000Y-161069440D01*
X125122317Y-161025162D01*
X125221528Y-160961322D01*
X125305110Y-161018431D01*
X125557000Y-161069440D01*
X125864970Y-161069440D01*
X125864803Y-161260775D01*
X126037233Y-161678086D01*
X126356235Y-161997645D01*
X126773244Y-162170803D01*
X127224775Y-162171197D01*
X127635495Y-162001490D01*
X128043244Y-162170803D01*
X128494775Y-162171197D01*
X128912086Y-161998767D01*
X129231645Y-161679765D01*
X129404803Y-161262756D01*
X129405003Y-161033247D01*
X129540000Y-160898250D01*
X129540000Y-159799000D01*
X129520000Y-159799000D01*
X129520000Y-159545000D01*
X129540000Y-159545000D01*
X129540000Y-159525000D01*
X129794000Y-159525000D01*
X129794000Y-159545000D01*
X129814000Y-159545000D01*
X129814000Y-159799000D01*
X129794000Y-159799000D01*
X129794000Y-160898250D01*
X129952750Y-161057000D01*
X130093310Y-161057000D01*
X130326699Y-160960327D01*
X130505327Y-160781698D01*
X130602000Y-160548309D01*
X130602000Y-160053236D01*
X133229382Y-162680618D01*
X133517795Y-162873330D01*
X133858000Y-162941000D01*
X139446000Y-162941000D01*
X139786206Y-162873329D01*
X140074618Y-162680618D01*
X141471618Y-161283618D01*
X141664329Y-160995206D01*
X141696398Y-160833984D01*
X141828317Y-160809162D01*
X142044441Y-160670090D01*
X142107205Y-160578231D01*
X142273302Y-160744327D01*
X142506691Y-160841000D01*
X143097250Y-160841000D01*
X143256000Y-160682250D01*
X143256000Y-158583000D01*
X143236000Y-158583000D01*
X143236000Y-158329000D01*
X143256000Y-158329000D01*
X143256000Y-156229750D01*
X143097250Y-156071000D01*
X142506691Y-156071000D01*
X142273302Y-156167673D01*
X142107725Y-156333249D01*
X142057090Y-156254559D01*
X141893848Y-156143021D01*
X141939571Y-156137763D01*
X141986000Y-156146998D01*
X142159679Y-156112451D01*
X142335597Y-156092221D01*
X142376976Y-156069228D01*
X142423407Y-156059992D01*
X142570646Y-155961610D01*
X142725431Y-155875600D01*
X142743020Y-155853440D01*
X142863000Y-155853440D01*
X143098317Y-155809162D01*
X143314441Y-155670090D01*
X143459431Y-155457890D01*
X143510440Y-155206000D01*
X143510440Y-154358046D01*
X144145000Y-154992606D01*
X144145000Y-154992606D01*
G37*
X144145000Y-154992606D02*
X144145000Y-156071000D01*
X143668750Y-156071000D01*
X143510000Y-156229750D01*
X143510000Y-158329000D01*
X143530000Y-158329000D01*
X143530000Y-158583000D01*
X143510000Y-158583000D01*
X143510000Y-160682250D01*
X143668750Y-160841000D01*
X144145000Y-160841000D01*
X144145000Y-162761394D01*
X143203394Y-163703000D01*
X115951000Y-163703000D01*
X115951000Y-161493285D01*
X116359244Y-161662803D01*
X116810775Y-161663197D01*
X117228086Y-161490767D01*
X117547645Y-161171765D01*
X117720803Y-160754756D01*
X117721015Y-160512334D01*
X117762910Y-160577441D01*
X117975110Y-160722431D01*
X118227000Y-160773440D01*
X118770994Y-160773440D01*
X119010560Y-161013006D01*
X119010560Y-162169000D01*
X119054838Y-162404317D01*
X119193910Y-162620441D01*
X119406110Y-162765431D01*
X119658000Y-162816440D01*
X120658000Y-162816440D01*
X120893317Y-162772162D01*
X121109441Y-162633090D01*
X121155969Y-162564994D01*
X121298302Y-162707327D01*
X121531691Y-162804000D01*
X121872250Y-162804000D01*
X122031000Y-162645250D01*
X122031000Y-161671000D01*
X122285000Y-161671000D01*
X122285000Y-162645250D01*
X122443750Y-162804000D01*
X122784309Y-162804000D01*
X123017698Y-162707327D01*
X123196327Y-162528699D01*
X123293000Y-162295310D01*
X123293000Y-161829750D01*
X123134250Y-161671000D01*
X122285000Y-161671000D01*
X122031000Y-161671000D01*
X122011000Y-161671000D01*
X122011000Y-161417000D01*
X122031000Y-161417000D01*
X122031000Y-161397000D01*
X122285000Y-161397000D01*
X122285000Y-161417000D01*
X123134250Y-161417000D01*
X123293000Y-161258250D01*
X123293000Y-161069440D01*
X123617000Y-161069440D01*
X123852317Y-161025162D01*
X123951528Y-160961322D01*
X124035110Y-161018431D01*
X124287000Y-161069440D01*
X124887000Y-161069440D01*
X125122317Y-161025162D01*
X125221528Y-160961322D01*
X125305110Y-161018431D01*
X125557000Y-161069440D01*
X125864970Y-161069440D01*
X125864803Y-161260775D01*
X126037233Y-161678086D01*
X126356235Y-161997645D01*
X126773244Y-162170803D01*
X127224775Y-162171197D01*
X127635495Y-162001490D01*
X128043244Y-162170803D01*
X128494775Y-162171197D01*
X128912086Y-161998767D01*
X129231645Y-161679765D01*
X129404803Y-161262756D01*
X129405003Y-161033247D01*
X129540000Y-160898250D01*
X129540000Y-159799000D01*
X129520000Y-159799000D01*
X129520000Y-159545000D01*
X129540000Y-159545000D01*
X129540000Y-159525000D01*
X129794000Y-159525000D01*
X129794000Y-159545000D01*
X129814000Y-159545000D01*
X129814000Y-159799000D01*
X129794000Y-159799000D01*
X129794000Y-160898250D01*
X129952750Y-161057000D01*
X130093310Y-161057000D01*
X130326699Y-160960327D01*
X130505327Y-160781698D01*
X130602000Y-160548309D01*
X130602000Y-160053236D01*
X133229382Y-162680618D01*
X133517795Y-162873330D01*
X133858000Y-162941000D01*
X139446000Y-162941000D01*
X139786206Y-162873329D01*
X140074618Y-162680618D01*
X141471618Y-161283618D01*
X141664329Y-160995206D01*
X141696398Y-160833984D01*
X141828317Y-160809162D01*
X142044441Y-160670090D01*
X142107205Y-160578231D01*
X142273302Y-160744327D01*
X142506691Y-160841000D01*
X143097250Y-160841000D01*
X143256000Y-160682250D01*
X143256000Y-158583000D01*
X143236000Y-158583000D01*
X143236000Y-158329000D01*
X143256000Y-158329000D01*
X143256000Y-156229750D01*
X143097250Y-156071000D01*
X142506691Y-156071000D01*
X142273302Y-156167673D01*
X142107725Y-156333249D01*
X142057090Y-156254559D01*
X141893848Y-156143021D01*
X141939571Y-156137763D01*
X141986000Y-156146998D01*
X142159679Y-156112451D01*
X142335597Y-156092221D01*
X142376976Y-156069228D01*
X142423407Y-156059992D01*
X142570646Y-155961610D01*
X142725431Y-155875600D01*
X142743020Y-155853440D01*
X142863000Y-155853440D01*
X143098317Y-155809162D01*
X143314441Y-155670090D01*
X143459431Y-155457890D01*
X143510440Y-155206000D01*
X143510440Y-154358046D01*
X144145000Y-154992606D01*
G36*
X120853187Y-156143171D02*
X120866395Y-156151996D01*
X121158000Y-156210000D01*
X122186764Y-156210000D01*
X121418382Y-156978382D01*
X121337788Y-157099000D01*
X120142000Y-157099000D01*
X119801794Y-157166671D01*
X119524440Y-157351993D01*
X119524440Y-156866000D01*
X119480162Y-156630683D01*
X119341090Y-156414559D01*
X119128890Y-156269569D01*
X118877000Y-156218560D01*
X118227000Y-156218560D01*
X118071493Y-156247821D01*
X117927000Y-156218560D01*
X117277000Y-156218560D01*
X117136914Y-156244919D01*
X117103310Y-156231000D01*
X116937750Y-156231000D01*
X116779000Y-156389750D01*
X116779000Y-156470051D01*
X116680569Y-156614110D01*
X116629560Y-156866000D01*
X116629560Y-157543000D01*
X116525000Y-157543000D01*
X116525000Y-157523000D01*
X116505000Y-157523000D01*
X116505000Y-157269000D01*
X116525000Y-157269000D01*
X116525000Y-156389750D01*
X116366250Y-156231000D01*
X116200690Y-156231000D01*
X115967301Y-156327673D01*
X115951000Y-156343974D01*
X115951000Y-156083000D01*
X120763135Y-156083000D01*
X120853187Y-156143171D01*
X120853187Y-156143171D01*
G37*
X120853187Y-156143171D02*
X120866395Y-156151996D01*
X121158000Y-156210000D01*
X122186764Y-156210000D01*
X121418382Y-156978382D01*
X121337788Y-157099000D01*
X120142000Y-157099000D01*
X119801794Y-157166671D01*
X119524440Y-157351993D01*
X119524440Y-156866000D01*
X119480162Y-156630683D01*
X119341090Y-156414559D01*
X119128890Y-156269569D01*
X118877000Y-156218560D01*
X118227000Y-156218560D01*
X118071493Y-156247821D01*
X117927000Y-156218560D01*
X117277000Y-156218560D01*
X117136914Y-156244919D01*
X117103310Y-156231000D01*
X116937750Y-156231000D01*
X116779000Y-156389750D01*
X116779000Y-156470051D01*
X116680569Y-156614110D01*
X116629560Y-156866000D01*
X116629560Y-157543000D01*
X116525000Y-157543000D01*
X116525000Y-157523000D01*
X116505000Y-157523000D01*
X116505000Y-157269000D01*
X116525000Y-157269000D01*
X116525000Y-156389750D01*
X116366250Y-156231000D01*
X116200690Y-156231000D01*
X115967301Y-156327673D01*
X115951000Y-156343974D01*
X115951000Y-156083000D01*
X120763135Y-156083000D01*
X120853187Y-156143171D01*
G36*
X140210954Y-151058560D02*
X138823000Y-151058560D01*
X138587683Y-151102838D01*
X138371559Y-151241910D01*
X138303266Y-151341860D01*
X138247090Y-151254559D01*
X138034890Y-151109569D01*
X137783000Y-151058560D01*
X136283000Y-151058560D01*
X136047683Y-151102838D01*
X135831559Y-151241910D01*
X135768795Y-151333769D01*
X135602698Y-151167673D01*
X135369309Y-151071000D01*
X134778750Y-151071000D01*
X134620000Y-151229750D01*
X134620000Y-153329000D01*
X134640000Y-153329000D01*
X134640000Y-153583000D01*
X134620000Y-153583000D01*
X134620000Y-155682250D01*
X134778750Y-155841000D01*
X135369309Y-155841000D01*
X135602698Y-155744327D01*
X135768275Y-155578751D01*
X135818910Y-155657441D01*
X136031110Y-155802431D01*
X136283000Y-155853440D01*
X137783000Y-155853440D01*
X138018317Y-155809162D01*
X138234441Y-155670090D01*
X138302734Y-155570140D01*
X138358910Y-155657441D01*
X138571110Y-155802431D01*
X138823000Y-155853440D01*
X140323000Y-155853440D01*
X140558317Y-155809162D01*
X140774441Y-155670090D01*
X140842734Y-155570140D01*
X140898910Y-155657441D01*
X141111110Y-155802431D01*
X141185745Y-155817545D01*
X141325011Y-155910600D01*
X141463712Y-156020691D01*
X141509233Y-156033692D01*
X141546450Y-156058560D01*
X140093000Y-156058560D01*
X139857683Y-156102838D01*
X139641559Y-156241910D01*
X139573266Y-156341860D01*
X139517090Y-156254559D01*
X139304890Y-156109569D01*
X139053000Y-156058560D01*
X137553000Y-156058560D01*
X137317683Y-156102838D01*
X137101559Y-156241910D01*
X137033266Y-156341860D01*
X136977090Y-156254559D01*
X136764890Y-156109569D01*
X136513000Y-156058560D01*
X135013000Y-156058560D01*
X134777683Y-156102838D01*
X134710381Y-156146145D01*
X134653618Y-156089382D01*
X134607490Y-156058560D01*
X134365206Y-155896671D01*
X134085328Y-155841000D01*
X134207250Y-155841000D01*
X134366000Y-155682250D01*
X134366000Y-153583000D01*
X133266750Y-153583000D01*
X133108000Y-153741750D01*
X133108000Y-155332310D01*
X133204673Y-155565699D01*
X133383302Y-155744327D01*
X133587720Y-155829000D01*
X130354606Y-155829000D01*
X132423803Y-153759803D01*
X132451666Y-153717789D01*
X132461000Y-153670000D01*
X132461000Y-151579690D01*
X133108000Y-151579690D01*
X133108000Y-153170250D01*
X133266750Y-153329000D01*
X134366000Y-153329000D01*
X134366000Y-151229750D01*
X134207250Y-151071000D01*
X133616691Y-151071000D01*
X133383302Y-151167673D01*
X133204673Y-151346301D01*
X133108000Y-151579690D01*
X132461000Y-151579690D01*
X132461000Y-150241000D01*
X134874000Y-150241000D01*
X135311407Y-150153994D01*
X135561332Y-149987000D01*
X139139394Y-149987000D01*
X140210954Y-151058560D01*
X140210954Y-151058560D01*
G37*
X140210954Y-151058560D02*
X138823000Y-151058560D01*
X138587683Y-151102838D01*
X138371559Y-151241910D01*
X138303266Y-151341860D01*
X138247090Y-151254559D01*
X138034890Y-151109569D01*
X137783000Y-151058560D01*
X136283000Y-151058560D01*
X136047683Y-151102838D01*
X135831559Y-151241910D01*
X135768795Y-151333769D01*
X135602698Y-151167673D01*
X135369309Y-151071000D01*
X134778750Y-151071000D01*
X134620000Y-151229750D01*
X134620000Y-153329000D01*
X134640000Y-153329000D01*
X134640000Y-153583000D01*
X134620000Y-153583000D01*
X134620000Y-155682250D01*
X134778750Y-155841000D01*
X135369309Y-155841000D01*
X135602698Y-155744327D01*
X135768275Y-155578751D01*
X135818910Y-155657441D01*
X136031110Y-155802431D01*
X136283000Y-155853440D01*
X137783000Y-155853440D01*
X138018317Y-155809162D01*
X138234441Y-155670090D01*
X138302734Y-155570140D01*
X138358910Y-155657441D01*
X138571110Y-155802431D01*
X138823000Y-155853440D01*
X140323000Y-155853440D01*
X140558317Y-155809162D01*
X140774441Y-155670090D01*
X140842734Y-155570140D01*
X140898910Y-155657441D01*
X141111110Y-155802431D01*
X141185745Y-155817545D01*
X141325011Y-155910600D01*
X141463712Y-156020691D01*
X141509233Y-156033692D01*
X141546450Y-156058560D01*
X140093000Y-156058560D01*
X139857683Y-156102838D01*
X139641559Y-156241910D01*
X139573266Y-156341860D01*
X139517090Y-156254559D01*
X139304890Y-156109569D01*
X139053000Y-156058560D01*
X137553000Y-156058560D01*
X137317683Y-156102838D01*
X137101559Y-156241910D01*
X137033266Y-156341860D01*
X136977090Y-156254559D01*
X136764890Y-156109569D01*
X136513000Y-156058560D01*
X135013000Y-156058560D01*
X134777683Y-156102838D01*
X134710381Y-156146145D01*
X134653618Y-156089382D01*
X134607490Y-156058560D01*
X134365206Y-155896671D01*
X134085328Y-155841000D01*
X134207250Y-155841000D01*
X134366000Y-155682250D01*
X134366000Y-153583000D01*
X133266750Y-153583000D01*
X133108000Y-153741750D01*
X133108000Y-155332310D01*
X133204673Y-155565699D01*
X133383302Y-155744327D01*
X133587720Y-155829000D01*
X130354606Y-155829000D01*
X132423803Y-153759803D01*
X132451666Y-153717789D01*
X132461000Y-153670000D01*
X132461000Y-151579690D01*
X133108000Y-151579690D01*
X133108000Y-153170250D01*
X133266750Y-153329000D01*
X134366000Y-153329000D01*
X134366000Y-151229750D01*
X134207250Y-151071000D01*
X133616691Y-151071000D01*
X133383302Y-151167673D01*
X133204673Y-151346301D01*
X133108000Y-151579690D01*
X132461000Y-151579690D01*
X132461000Y-150241000D01*
X134874000Y-150241000D01*
X135311407Y-150153994D01*
X135561332Y-149987000D01*
X139139394Y-149987000D01*
X140210954Y-151058560D01*
G36*
X105241860Y-158346731D02*
X105454060Y-158491721D01*
X105615000Y-158524312D01*
X105615000Y-159157974D01*
X105599559Y-159167910D01*
X105454569Y-159380110D01*
X105403560Y-159632000D01*
X105403560Y-160432000D01*
X105447838Y-160667317D01*
X105586910Y-160883441D01*
X105799110Y-161028431D01*
X106051000Y-161079440D01*
X106294204Y-161079440D01*
X106884977Y-161670213D01*
X106940671Y-161950206D01*
X107101859Y-162191441D01*
X107133382Y-162238618D01*
X108083382Y-163188618D01*
X108371794Y-163381329D01*
X108712000Y-163449000D01*
X111016000Y-163449000D01*
X111356206Y-163381329D01*
X111644618Y-163188618D01*
X113398796Y-161434440D01*
X113644000Y-161434440D01*
X113879317Y-161390162D01*
X114095441Y-161251090D01*
X114240431Y-161038890D01*
X114291440Y-160787000D01*
X114291440Y-160137000D01*
X114247162Y-159901683D01*
X114108090Y-159685559D01*
X113895890Y-159540569D01*
X113758880Y-159512824D01*
X113879317Y-159490162D01*
X114030635Y-159392791D01*
X114078206Y-159383329D01*
X114366618Y-159190618D01*
X114509796Y-159047440D01*
X114675000Y-159047440D01*
X114681000Y-159046311D01*
X114681000Y-164211000D01*
X105457718Y-164211000D01*
X103505000Y-162502372D01*
X103505000Y-161099214D01*
X103886000Y-161175000D01*
X104323407Y-161087994D01*
X104365691Y-161059741D01*
X104496317Y-161035162D01*
X104712441Y-160896090D01*
X104857431Y-160683890D01*
X104882979Y-160557729D01*
X104941994Y-160469407D01*
X105029000Y-160032000D01*
X105029000Y-158377713D01*
X105057491Y-158359380D01*
X105156632Y-158214283D01*
X105241860Y-158346731D01*
X105241860Y-158346731D01*
G37*
X105241860Y-158346731D02*
X105454060Y-158491721D01*
X105615000Y-158524312D01*
X105615000Y-159157974D01*
X105599559Y-159167910D01*
X105454569Y-159380110D01*
X105403560Y-159632000D01*
X105403560Y-160432000D01*
X105447838Y-160667317D01*
X105586910Y-160883441D01*
X105799110Y-161028431D01*
X106051000Y-161079440D01*
X106294204Y-161079440D01*
X106884977Y-161670213D01*
X106940671Y-161950206D01*
X107101859Y-162191441D01*
X107133382Y-162238618D01*
X108083382Y-163188618D01*
X108371794Y-163381329D01*
X108712000Y-163449000D01*
X111016000Y-163449000D01*
X111356206Y-163381329D01*
X111644618Y-163188618D01*
X113398796Y-161434440D01*
X113644000Y-161434440D01*
X113879317Y-161390162D01*
X114095441Y-161251090D01*
X114240431Y-161038890D01*
X114291440Y-160787000D01*
X114291440Y-160137000D01*
X114247162Y-159901683D01*
X114108090Y-159685559D01*
X113895890Y-159540569D01*
X113758880Y-159512824D01*
X113879317Y-159490162D01*
X114030635Y-159392791D01*
X114078206Y-159383329D01*
X114366618Y-159190618D01*
X114509796Y-159047440D01*
X114675000Y-159047440D01*
X114681000Y-159046311D01*
X114681000Y-164211000D01*
X105457718Y-164211000D01*
X103505000Y-162502372D01*
X103505000Y-161099214D01*
X103886000Y-161175000D01*
X104323407Y-161087994D01*
X104365691Y-161059741D01*
X104496317Y-161035162D01*
X104712441Y-160896090D01*
X104857431Y-160683890D01*
X104882979Y-160557729D01*
X104941994Y-160469407D01*
X105029000Y-160032000D01*
X105029000Y-158377713D01*
X105057491Y-158359380D01*
X105156632Y-158214283D01*
X105241860Y-158346731D01*
G36*
X112127880Y-144412120D02*
X113665000Y-145949239D01*
X113665000Y-146558000D01*
X113675006Y-146607410D01*
X113702197Y-146647803D01*
X117221000Y-150166606D01*
X117221000Y-154813000D01*
X114808000Y-154813000D01*
X114758590Y-154823006D01*
X114758392Y-154823141D01*
X114766628Y-154810815D01*
X114808663Y-154747906D01*
X114871500Y-154432000D01*
X114871500Y-151384000D01*
X114808663Y-151068095D01*
X114629717Y-150800283D01*
X114629714Y-150800281D01*
X111810540Y-147981106D01*
X111810540Y-147356500D01*
X111766262Y-147121183D01*
X111627190Y-146905059D01*
X111414990Y-146760069D01*
X111258440Y-146728367D01*
X111258440Y-146146000D01*
X111214162Y-145910683D01*
X111075090Y-145694559D01*
X110862890Y-145549569D01*
X110611000Y-145498560D01*
X109861000Y-145498560D01*
X109625683Y-145542838D01*
X109409559Y-145681910D01*
X109364151Y-145748367D01*
X109192756Y-145677197D01*
X108741225Y-145676803D01*
X108323914Y-145849233D01*
X108004355Y-146168235D01*
X107831197Y-146585244D01*
X107830803Y-147036775D01*
X108003233Y-147454086D01*
X108153460Y-147604575D01*
X108153460Y-148526500D01*
X108197738Y-148761817D01*
X108336810Y-148977941D01*
X108549010Y-149122931D01*
X108800900Y-149173940D01*
X109207300Y-149173940D01*
X109332379Y-149150405D01*
X109448600Y-149173940D01*
X109855000Y-149173940D01*
X109986662Y-149149166D01*
X110109000Y-149173940D01*
X110515400Y-149173940D01*
X110640479Y-149150405D01*
X110646111Y-149151545D01*
X113220500Y-151725933D01*
X113220500Y-152998363D01*
X113025407Y-152868006D01*
X112588000Y-152781000D01*
X111162840Y-152781000D01*
X111162840Y-151701500D01*
X111118562Y-151466183D01*
X110979490Y-151250059D01*
X110767290Y-151105069D01*
X110515400Y-151054060D01*
X110109000Y-151054060D01*
X109977338Y-151078834D01*
X109855000Y-151054060D01*
X109448600Y-151054060D01*
X109323521Y-151077595D01*
X109207300Y-151054060D01*
X108800900Y-151054060D01*
X108565583Y-151098338D01*
X108349459Y-151237410D01*
X108204469Y-151449610D01*
X108153460Y-151701500D01*
X108153460Y-152788955D01*
X107979225Y-152788803D01*
X107806984Y-152859972D01*
X107766593Y-152868006D01*
X107732650Y-152890686D01*
X107561914Y-152961233D01*
X107430022Y-153092896D01*
X107395777Y-153115777D01*
X107373095Y-153149723D01*
X107242355Y-153280235D01*
X107170886Y-153452350D01*
X107148006Y-153486593D01*
X107140042Y-153526631D01*
X107069197Y-153697244D01*
X107069034Y-153883609D01*
X107061000Y-153924000D01*
X107061000Y-154620000D01*
X107148006Y-155057407D01*
X107395777Y-155428223D01*
X108034560Y-156067006D01*
X108034560Y-156098000D01*
X108078838Y-156333317D01*
X108217910Y-156549441D01*
X108401608Y-156674957D01*
X108212000Y-156636560D01*
X107712000Y-156636560D01*
X107693330Y-156640073D01*
X107523240Y-156606240D01*
X106915244Y-156606240D01*
X106757940Y-156498759D01*
X106506050Y-156447750D01*
X105705950Y-156447750D01*
X105470633Y-156492028D01*
X105254509Y-156631100D01*
X105155368Y-156776197D01*
X105070140Y-156643749D01*
X105029000Y-156615639D01*
X105029000Y-151857446D01*
X107234223Y-149652223D01*
X107481994Y-149281407D01*
X107569000Y-148844000D01*
X107569000Y-148806897D01*
X107839885Y-148401489D01*
X107953959Y-147828000D01*
X107839885Y-147254511D01*
X107515029Y-146768330D01*
X107028848Y-146443474D01*
X106455359Y-146329400D01*
X106396641Y-146329400D01*
X105823152Y-146443474D01*
X105537000Y-146634675D01*
X105537000Y-144399000D01*
X107696000Y-144399000D01*
X107745410Y-144388994D01*
X107787035Y-144360553D01*
X107814315Y-144318159D01*
X107823000Y-144272000D01*
X107823000Y-143346759D01*
X107839885Y-143321489D01*
X107953959Y-142748000D01*
X107839885Y-142174511D01*
X107823000Y-142149241D01*
X107823000Y-141843000D01*
X109558760Y-141843000D01*
X112127880Y-144412120D01*
X112127880Y-144412120D01*
G37*
X112127880Y-144412120D02*
X113665000Y-145949239D01*
X113665000Y-146558000D01*
X113675006Y-146607410D01*
X113702197Y-146647803D01*
X117221000Y-150166606D01*
X117221000Y-154813000D01*
X114808000Y-154813000D01*
X114758590Y-154823006D01*
X114758392Y-154823141D01*
X114766628Y-154810815D01*
X114808663Y-154747906D01*
X114871500Y-154432000D01*
X114871500Y-151384000D01*
X114808663Y-151068095D01*
X114629717Y-150800283D01*
X114629714Y-150800281D01*
X111810540Y-147981106D01*
X111810540Y-147356500D01*
X111766262Y-147121183D01*
X111627190Y-146905059D01*
X111414990Y-146760069D01*
X111258440Y-146728367D01*
X111258440Y-146146000D01*
X111214162Y-145910683D01*
X111075090Y-145694559D01*
X110862890Y-145549569D01*
X110611000Y-145498560D01*
X109861000Y-145498560D01*
X109625683Y-145542838D01*
X109409559Y-145681910D01*
X109364151Y-145748367D01*
X109192756Y-145677197D01*
X108741225Y-145676803D01*
X108323914Y-145849233D01*
X108004355Y-146168235D01*
X107831197Y-146585244D01*
X107830803Y-147036775D01*
X108003233Y-147454086D01*
X108153460Y-147604575D01*
X108153460Y-148526500D01*
X108197738Y-148761817D01*
X108336810Y-148977941D01*
X108549010Y-149122931D01*
X108800900Y-149173940D01*
X109207300Y-149173940D01*
X109332379Y-149150405D01*
X109448600Y-149173940D01*
X109855000Y-149173940D01*
X109986662Y-149149166D01*
X110109000Y-149173940D01*
X110515400Y-149173940D01*
X110640479Y-149150405D01*
X110646111Y-149151545D01*
X113220500Y-151725933D01*
X113220500Y-152998363D01*
X113025407Y-152868006D01*
X112588000Y-152781000D01*
X111162840Y-152781000D01*
X111162840Y-151701500D01*
X111118562Y-151466183D01*
X110979490Y-151250059D01*
X110767290Y-151105069D01*
X110515400Y-151054060D01*
X110109000Y-151054060D01*
X109977338Y-151078834D01*
X109855000Y-151054060D01*
X109448600Y-151054060D01*
X109323521Y-151077595D01*
X109207300Y-151054060D01*
X108800900Y-151054060D01*
X108565583Y-151098338D01*
X108349459Y-151237410D01*
X108204469Y-151449610D01*
X108153460Y-151701500D01*
X108153460Y-152788955D01*
X107979225Y-152788803D01*
X107806984Y-152859972D01*
X107766593Y-152868006D01*
X107732650Y-152890686D01*
X107561914Y-152961233D01*
X107430022Y-153092896D01*
X107395777Y-153115777D01*
X107373095Y-153149723D01*
X107242355Y-153280235D01*
X107170886Y-153452350D01*
X107148006Y-153486593D01*
X107140042Y-153526631D01*
X107069197Y-153697244D01*
X107069034Y-153883609D01*
X107061000Y-153924000D01*
X107061000Y-154620000D01*
X107148006Y-155057407D01*
X107395777Y-155428223D01*
X108034560Y-156067006D01*
X108034560Y-156098000D01*
X108078838Y-156333317D01*
X108217910Y-156549441D01*
X108401608Y-156674957D01*
X108212000Y-156636560D01*
X107712000Y-156636560D01*
X107693330Y-156640073D01*
X107523240Y-156606240D01*
X106915244Y-156606240D01*
X106757940Y-156498759D01*
X106506050Y-156447750D01*
X105705950Y-156447750D01*
X105470633Y-156492028D01*
X105254509Y-156631100D01*
X105155368Y-156776197D01*
X105070140Y-156643749D01*
X105029000Y-156615639D01*
X105029000Y-151857446D01*
X107234223Y-149652223D01*
X107481994Y-149281407D01*
X107569000Y-148844000D01*
X107569000Y-148806897D01*
X107839885Y-148401489D01*
X107953959Y-147828000D01*
X107839885Y-147254511D01*
X107515029Y-146768330D01*
X107028848Y-146443474D01*
X106455359Y-146329400D01*
X106396641Y-146329400D01*
X105823152Y-146443474D01*
X105537000Y-146634675D01*
X105537000Y-144399000D01*
X107696000Y-144399000D01*
X107745410Y-144388994D01*
X107787035Y-144360553D01*
X107814315Y-144318159D01*
X107823000Y-144272000D01*
X107823000Y-143346759D01*
X107839885Y-143321489D01*
X107953959Y-142748000D01*
X107839885Y-142174511D01*
X107823000Y-142149241D01*
X107823000Y-141843000D01*
X109558760Y-141843000D01*
X112127880Y-144412120D01*
G36*
X106019910Y-127459441D02*
X106232110Y-127604431D01*
X106457109Y-127649995D01*
X106684593Y-127801994D01*
X107122000Y-127889000D01*
X108547160Y-127889000D01*
X108547160Y-128968500D01*
X108591438Y-129203817D01*
X108730510Y-129419941D01*
X108942710Y-129564931D01*
X109194600Y-129615940D01*
X109601000Y-129615940D01*
X109732662Y-129591166D01*
X109855000Y-129615940D01*
X110261400Y-129615940D01*
X110386479Y-129592405D01*
X110502700Y-129615940D01*
X110887000Y-129615940D01*
X110887000Y-131171356D01*
X110718105Y-131058504D01*
X110426500Y-131000500D01*
X109029500Y-131000500D01*
X108737895Y-131058504D01*
X108490684Y-131223685D01*
X108211286Y-131503084D01*
X108211285Y-131503085D01*
X108046104Y-131750295D01*
X108045726Y-131752197D01*
X107950469Y-131891610D01*
X107899460Y-132143500D01*
X107899460Y-133313500D01*
X107943738Y-133548817D01*
X108082810Y-133764941D01*
X108287560Y-133904841D01*
X108287560Y-134360000D01*
X108331838Y-134595317D01*
X108470910Y-134811441D01*
X108683110Y-134956431D01*
X108935000Y-135007440D01*
X109735000Y-135007440D01*
X109970317Y-134963162D01*
X110156829Y-134843145D01*
X110517244Y-134992803D01*
X110968775Y-134993197D01*
X111386086Y-134820767D01*
X111705645Y-134501765D01*
X111828253Y-134206493D01*
X114281964Y-136660204D01*
X113909688Y-136411457D01*
X113284000Y-136286999D01*
X113283995Y-136287000D01*
X104648005Y-136287000D01*
X104648000Y-136286999D01*
X104049194Y-136406110D01*
X104022313Y-136411457D01*
X103852383Y-136525000D01*
X100761000Y-136525000D01*
X100761000Y-132143500D01*
X102311460Y-132143500D01*
X102311460Y-133313500D01*
X102355738Y-133548817D01*
X102494810Y-133764941D01*
X102707010Y-133909931D01*
X102826560Y-133934140D01*
X102826560Y-134487000D01*
X102870838Y-134722317D01*
X103009910Y-134938441D01*
X103222110Y-135083431D01*
X103474000Y-135134440D01*
X104274000Y-135134440D01*
X104509317Y-135090162D01*
X104725441Y-134951090D01*
X104748282Y-134917661D01*
X104929244Y-134992803D01*
X105380775Y-134993197D01*
X105798086Y-134820767D01*
X106117645Y-134501765D01*
X106290803Y-134084756D01*
X106291197Y-133633225D01*
X106118767Y-133215914D01*
X105968540Y-133065425D01*
X105968540Y-132143500D01*
X105924262Y-131908183D01*
X105785190Y-131692059D01*
X105779360Y-131688075D01*
X105773570Y-131679410D01*
X105653815Y-131500184D01*
X105440815Y-131287185D01*
X105425572Y-131277000D01*
X105193605Y-131122004D01*
X104902000Y-131064000D01*
X103378000Y-131064000D01*
X103086395Y-131122004D01*
X102839184Y-131287185D01*
X102626186Y-131500184D01*
X102626185Y-131500185D01*
X102461004Y-131747395D01*
X102461003Y-131747401D01*
X102362469Y-131891610D01*
X102311460Y-132143500D01*
X100761000Y-132143500D01*
X100761000Y-127628102D01*
X100869109Y-127649995D01*
X101096593Y-127801994D01*
X101534000Y-127889000D01*
X102959160Y-127889000D01*
X102959160Y-128968500D01*
X103003438Y-129203817D01*
X103142510Y-129419941D01*
X103354710Y-129564931D01*
X103606600Y-129615940D01*
X104013000Y-129615940D01*
X104144662Y-129591166D01*
X104267000Y-129615940D01*
X104673400Y-129615940D01*
X104798479Y-129592405D01*
X104914700Y-129615940D01*
X105321100Y-129615940D01*
X105556417Y-129571662D01*
X105772541Y-129432590D01*
X105917531Y-129220390D01*
X105968540Y-128968500D01*
X105968540Y-127798500D01*
X105943400Y-127664893D01*
X105943400Y-127469905D01*
X105943401Y-127469900D01*
X105943400Y-127469895D01*
X105943400Y-127340541D01*
X106019910Y-127459441D01*
X106019910Y-127459441D01*
G37*
X106019910Y-127459441D02*
X106232110Y-127604431D01*
X106457109Y-127649995D01*
X106684593Y-127801994D01*
X107122000Y-127889000D01*
X108547160Y-127889000D01*
X108547160Y-128968500D01*
X108591438Y-129203817D01*
X108730510Y-129419941D01*
X108942710Y-129564931D01*
X109194600Y-129615940D01*
X109601000Y-129615940D01*
X109732662Y-129591166D01*
X109855000Y-129615940D01*
X110261400Y-129615940D01*
X110386479Y-129592405D01*
X110502700Y-129615940D01*
X110887000Y-129615940D01*
X110887000Y-131171356D01*
X110718105Y-131058504D01*
X110426500Y-131000500D01*
X109029500Y-131000500D01*
X108737895Y-131058504D01*
X108490684Y-131223685D01*
X108211286Y-131503084D01*
X108211285Y-131503085D01*
X108046104Y-131750295D01*
X108045726Y-131752197D01*
X107950469Y-131891610D01*
X107899460Y-132143500D01*
X107899460Y-133313500D01*
X107943738Y-133548817D01*
X108082810Y-133764941D01*
X108287560Y-133904841D01*
X108287560Y-134360000D01*
X108331838Y-134595317D01*
X108470910Y-134811441D01*
X108683110Y-134956431D01*
X108935000Y-135007440D01*
X109735000Y-135007440D01*
X109970317Y-134963162D01*
X110156829Y-134843145D01*
X110517244Y-134992803D01*
X110968775Y-134993197D01*
X111386086Y-134820767D01*
X111705645Y-134501765D01*
X111828253Y-134206493D01*
X114281964Y-136660204D01*
X113909688Y-136411457D01*
X113284000Y-136286999D01*
X113283995Y-136287000D01*
X104648005Y-136287000D01*
X104648000Y-136286999D01*
X104049194Y-136406110D01*
X104022313Y-136411457D01*
X103852383Y-136525000D01*
X100761000Y-136525000D01*
X100761000Y-132143500D01*
X102311460Y-132143500D01*
X102311460Y-133313500D01*
X102355738Y-133548817D01*
X102494810Y-133764941D01*
X102707010Y-133909931D01*
X102826560Y-133934140D01*
X102826560Y-134487000D01*
X102870838Y-134722317D01*
X103009910Y-134938441D01*
X103222110Y-135083431D01*
X103474000Y-135134440D01*
X104274000Y-135134440D01*
X104509317Y-135090162D01*
X104725441Y-134951090D01*
X104748282Y-134917661D01*
X104929244Y-134992803D01*
X105380775Y-134993197D01*
X105798086Y-134820767D01*
X106117645Y-134501765D01*
X106290803Y-134084756D01*
X106291197Y-133633225D01*
X106118767Y-133215914D01*
X105968540Y-133065425D01*
X105968540Y-132143500D01*
X105924262Y-131908183D01*
X105785190Y-131692059D01*
X105779360Y-131688075D01*
X105773570Y-131679410D01*
X105653815Y-131500184D01*
X105440815Y-131287185D01*
X105425572Y-131277000D01*
X105193605Y-131122004D01*
X104902000Y-131064000D01*
X103378000Y-131064000D01*
X103086395Y-131122004D01*
X102839184Y-131287185D01*
X102626186Y-131500184D01*
X102626185Y-131500185D01*
X102461004Y-131747395D01*
X102461003Y-131747401D01*
X102362469Y-131891610D01*
X102311460Y-132143500D01*
X100761000Y-132143500D01*
X100761000Y-127628102D01*
X100869109Y-127649995D01*
X101096593Y-127801994D01*
X101534000Y-127889000D01*
X102959160Y-127889000D01*
X102959160Y-128968500D01*
X103003438Y-129203817D01*
X103142510Y-129419941D01*
X103354710Y-129564931D01*
X103606600Y-129615940D01*
X104013000Y-129615940D01*
X104144662Y-129591166D01*
X104267000Y-129615940D01*
X104673400Y-129615940D01*
X104798479Y-129592405D01*
X104914700Y-129615940D01*
X105321100Y-129615940D01*
X105556417Y-129571662D01*
X105772541Y-129432590D01*
X105917531Y-129220390D01*
X105968540Y-128968500D01*
X105968540Y-127798500D01*
X105943400Y-127664893D01*
X105943400Y-127469905D01*
X105943401Y-127469900D01*
X105943400Y-127469895D01*
X105943400Y-127340541D01*
X106019910Y-127459441D01*
G36*
X102006559Y-109396910D02*
X101861569Y-109609110D01*
X101835126Y-109739691D01*
X101824886Y-109764350D01*
X101802006Y-109798593D01*
X101794042Y-109838631D01*
X101723197Y-110009244D01*
X101723034Y-110195609D01*
X101715000Y-110236000D01*
X101715000Y-112209560D01*
X101427000Y-112209560D01*
X101191683Y-112253838D01*
X100975559Y-112392910D01*
X100830569Y-112605110D01*
X100779560Y-112857000D01*
X100779560Y-114407000D01*
X100823838Y-114642317D01*
X100962910Y-114858441D01*
X101175110Y-115003431D01*
X101427000Y-115054440D01*
X101743755Y-115054440D01*
X101787435Y-115160154D01*
X101802006Y-115233407D01*
X101843139Y-115294967D01*
X101907233Y-115450086D01*
X102026853Y-115569915D01*
X102049777Y-115604223D01*
X102061777Y-115616223D01*
X102095723Y-115638905D01*
X102226235Y-115769645D01*
X102398350Y-115841114D01*
X102432593Y-115863994D01*
X102472631Y-115871958D01*
X102474726Y-115872828D01*
X102188777Y-116158777D01*
X101941006Y-116529593D01*
X101854000Y-116967000D01*
X101854000Y-117609560D01*
X101427000Y-117609560D01*
X101191683Y-117653838D01*
X100975559Y-117792910D01*
X100830569Y-118005110D01*
X100779560Y-118257000D01*
X100779560Y-119807000D01*
X100823838Y-120042317D01*
X100962910Y-120258441D01*
X101175110Y-120403431D01*
X101427000Y-120454440D01*
X102027000Y-120454440D01*
X102262317Y-120410162D01*
X102361528Y-120346322D01*
X102445110Y-120403431D01*
X102647626Y-120444442D01*
X102632000Y-120523000D01*
X102632000Y-121030995D01*
X102631999Y-121031000D01*
X102756457Y-121656688D01*
X103110880Y-122187120D01*
X104761878Y-123838117D01*
X104761880Y-123838120D01*
X104891247Y-123924560D01*
X104740000Y-123924560D01*
X104504683Y-123968838D01*
X104288559Y-124107910D01*
X104143569Y-124320110D01*
X104140919Y-124333197D01*
X104004090Y-124120559D01*
X103791890Y-123975569D01*
X103540000Y-123924560D01*
X102840000Y-123924560D01*
X102604683Y-123968838D01*
X102388559Y-124107910D01*
X102243569Y-124320110D01*
X102218208Y-124445346D01*
X100781438Y-125882116D01*
X100761000Y-125885962D01*
X100761000Y-109347000D01*
X102084121Y-109347000D01*
X102006559Y-109396910D01*
X102006559Y-109396910D01*
G37*
X102006559Y-109396910D02*
X101861569Y-109609110D01*
X101835126Y-109739691D01*
X101824886Y-109764350D01*
X101802006Y-109798593D01*
X101794042Y-109838631D01*
X101723197Y-110009244D01*
X101723034Y-110195609D01*
X101715000Y-110236000D01*
X101715000Y-112209560D01*
X101427000Y-112209560D01*
X101191683Y-112253838D01*
X100975559Y-112392910D01*
X100830569Y-112605110D01*
X100779560Y-112857000D01*
X100779560Y-114407000D01*
X100823838Y-114642317D01*
X100962910Y-114858441D01*
X101175110Y-115003431D01*
X101427000Y-115054440D01*
X101743755Y-115054440D01*
X101787435Y-115160154D01*
X101802006Y-115233407D01*
X101843139Y-115294967D01*
X101907233Y-115450086D01*
X102026853Y-115569915D01*
X102049777Y-115604223D01*
X102061777Y-115616223D01*
X102095723Y-115638905D01*
X102226235Y-115769645D01*
X102398350Y-115841114D01*
X102432593Y-115863994D01*
X102472631Y-115871958D01*
X102474726Y-115872828D01*
X102188777Y-116158777D01*
X101941006Y-116529593D01*
X101854000Y-116967000D01*
X101854000Y-117609560D01*
X101427000Y-117609560D01*
X101191683Y-117653838D01*
X100975559Y-117792910D01*
X100830569Y-118005110D01*
X100779560Y-118257000D01*
X100779560Y-119807000D01*
X100823838Y-120042317D01*
X100962910Y-120258441D01*
X101175110Y-120403431D01*
X101427000Y-120454440D01*
X102027000Y-120454440D01*
X102262317Y-120410162D01*
X102361528Y-120346322D01*
X102445110Y-120403431D01*
X102647626Y-120444442D01*
X102632000Y-120523000D01*
X102632000Y-121030995D01*
X102631999Y-121031000D01*
X102756457Y-121656688D01*
X103110880Y-122187120D01*
X104761878Y-123838117D01*
X104761880Y-123838120D01*
X104891247Y-123924560D01*
X104740000Y-123924560D01*
X104504683Y-123968838D01*
X104288559Y-124107910D01*
X104143569Y-124320110D01*
X104140919Y-124333197D01*
X104004090Y-124120559D01*
X103791890Y-123975569D01*
X103540000Y-123924560D01*
X102840000Y-123924560D01*
X102604683Y-123968838D01*
X102388559Y-124107910D01*
X102243569Y-124320110D01*
X102218208Y-124445346D01*
X100781438Y-125882116D01*
X100761000Y-125885962D01*
X100761000Y-109347000D01*
X102084121Y-109347000D01*
X102006559Y-109396910D01*
G36*
X124333000Y-121285000D02*
X122466452Y-121285000D01*
X121736447Y-120798330D01*
X121666000Y-120777000D01*
X120208755Y-120777000D01*
X120272803Y-120622756D01*
X120272966Y-120436391D01*
X120281000Y-120396000D01*
X120281000Y-118872000D01*
X120273036Y-118831961D01*
X120273197Y-118647225D01*
X120202028Y-118474984D01*
X120193994Y-118434593D01*
X120171314Y-118400650D01*
X120163963Y-118382859D01*
X120141162Y-118261683D01*
X120016664Y-118068208D01*
X120206441Y-117946090D01*
X120351431Y-117733890D01*
X120402440Y-117482000D01*
X120402440Y-116887102D01*
X120426815Y-116870815D01*
X120680815Y-116616816D01*
X120845996Y-116369605D01*
X120853476Y-116332000D01*
X120904000Y-116078000D01*
X120904000Y-115062000D01*
X120845996Y-114770395D01*
X120786264Y-114681000D01*
X120680815Y-114523184D01*
X120426817Y-114269187D01*
X120426815Y-114269184D01*
X119156817Y-112999187D01*
X119156815Y-112999184D01*
X119126000Y-112968369D01*
X119126000Y-112522000D01*
X119067996Y-112230395D01*
X118902815Y-111983185D01*
X118775817Y-111856187D01*
X118775815Y-111856184D01*
X118645440Y-111725810D01*
X118645440Y-111344000D01*
X118601162Y-111108683D01*
X118500630Y-110952452D01*
X118504120Y-110950120D01*
X118858543Y-110419687D01*
X118983000Y-109794000D01*
X118983000Y-109347000D01*
X122174000Y-109347000D01*
X122223410Y-109336994D01*
X122265035Y-109308553D01*
X122292315Y-109266159D01*
X122301000Y-109220000D01*
X122301000Y-100965000D01*
X124333000Y-100965000D01*
X124333000Y-121285000D01*
X124333000Y-121285000D01*
G37*
X124333000Y-121285000D02*
X122466452Y-121285000D01*
X121736447Y-120798330D01*
X121666000Y-120777000D01*
X120208755Y-120777000D01*
X120272803Y-120622756D01*
X120272966Y-120436391D01*
X120281000Y-120396000D01*
X120281000Y-118872000D01*
X120273036Y-118831961D01*
X120273197Y-118647225D01*
X120202028Y-118474984D01*
X120193994Y-118434593D01*
X120171314Y-118400650D01*
X120163963Y-118382859D01*
X120141162Y-118261683D01*
X120016664Y-118068208D01*
X120206441Y-117946090D01*
X120351431Y-117733890D01*
X120402440Y-117482000D01*
X120402440Y-116887102D01*
X120426815Y-116870815D01*
X120680815Y-116616816D01*
X120845996Y-116369605D01*
X120853476Y-116332000D01*
X120904000Y-116078000D01*
X120904000Y-115062000D01*
X120845996Y-114770395D01*
X120786264Y-114681000D01*
X120680815Y-114523184D01*
X120426817Y-114269187D01*
X120426815Y-114269184D01*
X119156817Y-112999187D01*
X119156815Y-112999184D01*
X119126000Y-112968369D01*
X119126000Y-112522000D01*
X119067996Y-112230395D01*
X118902815Y-111983185D01*
X118775817Y-111856187D01*
X118775815Y-111856184D01*
X118645440Y-111725810D01*
X118645440Y-111344000D01*
X118601162Y-111108683D01*
X118500630Y-110952452D01*
X118504120Y-110950120D01*
X118858543Y-110419687D01*
X118983000Y-109794000D01*
X118983000Y-109347000D01*
X122174000Y-109347000D01*
X122223410Y-109336994D01*
X122265035Y-109308553D01*
X122292315Y-109266159D01*
X122301000Y-109220000D01*
X122301000Y-100965000D01*
X124333000Y-100965000D01*
X124333000Y-121285000D01*
G36*
X112649000Y-108712000D02*
X112659006Y-108761410D01*
X112686197Y-108801803D01*
X113194197Y-109309803D01*
X113236211Y-109337666D01*
X113284000Y-109347000D01*
X114276121Y-109347000D01*
X114198559Y-109396910D01*
X114053569Y-109609110D01*
X114027126Y-109739691D01*
X114016886Y-109764350D01*
X113994006Y-109798593D01*
X113986042Y-109838631D01*
X113915197Y-110009244D01*
X113915034Y-110195609D01*
X113907000Y-110236000D01*
X113907000Y-112209560D01*
X113619000Y-112209560D01*
X113383683Y-112253838D01*
X113167559Y-112392910D01*
X113022569Y-112605110D01*
X112971560Y-112857000D01*
X112971560Y-114407000D01*
X113015838Y-114642317D01*
X113154910Y-114858441D01*
X113367110Y-115003431D01*
X113619000Y-115054440D01*
X113935755Y-115054440D01*
X113979435Y-115160154D01*
X113994006Y-115233407D01*
X114035139Y-115294967D01*
X114099233Y-115450086D01*
X114218853Y-115569915D01*
X114241777Y-115604223D01*
X114253777Y-115616223D01*
X114287723Y-115638905D01*
X114418235Y-115769645D01*
X114590350Y-115841114D01*
X114624593Y-115863994D01*
X114664631Y-115871958D01*
X114666726Y-115872828D01*
X114380777Y-116158777D01*
X114133006Y-116529593D01*
X114046000Y-116967000D01*
X114046000Y-117609560D01*
X113619000Y-117609560D01*
X113411000Y-117648698D01*
X113411000Y-117094000D01*
X113400994Y-117044590D01*
X113372553Y-117002965D01*
X113330159Y-116975685D01*
X113284000Y-116967000D01*
X108966000Y-116967000D01*
X108916590Y-116977006D01*
X108874965Y-117005447D01*
X108847685Y-117047841D01*
X108839000Y-117094000D01*
X108839000Y-121047000D01*
X107925957Y-121047000D01*
X107942431Y-121022890D01*
X107968874Y-120892309D01*
X107979114Y-120867650D01*
X108001994Y-120833407D01*
X108009958Y-120793369D01*
X108080803Y-120622756D01*
X108080966Y-120436391D01*
X108089000Y-120396000D01*
X108089000Y-118872000D01*
X108081036Y-118831961D01*
X108081197Y-118647225D01*
X108010028Y-118474984D01*
X108001994Y-118434593D01*
X107979314Y-118400650D01*
X107971963Y-118382859D01*
X107949162Y-118261683D01*
X107824664Y-118068208D01*
X108014441Y-117946090D01*
X108159431Y-117733890D01*
X108210440Y-117482000D01*
X108210440Y-116887102D01*
X108234815Y-116870815D01*
X108488815Y-116616816D01*
X108653996Y-116369605D01*
X108661476Y-116332000D01*
X108712000Y-116078000D01*
X108712000Y-115062000D01*
X108653996Y-114770395D01*
X108594264Y-114681000D01*
X108488815Y-114523184D01*
X108234817Y-114269187D01*
X108234815Y-114269184D01*
X106964817Y-112999187D01*
X106964815Y-112999184D01*
X106934000Y-112968369D01*
X106934000Y-112522000D01*
X106875996Y-112230395D01*
X106710815Y-111983185D01*
X106583817Y-111856187D01*
X106583815Y-111856184D01*
X106453440Y-111725810D01*
X106453440Y-111344000D01*
X106409162Y-111108683D01*
X106308630Y-110952452D01*
X106312120Y-110950120D01*
X106666543Y-110419687D01*
X106791000Y-109794000D01*
X106791000Y-109347000D01*
X109220000Y-109347000D01*
X109269410Y-109336994D01*
X109309803Y-109309803D01*
X109817803Y-108801803D01*
X109845666Y-108759789D01*
X109855000Y-108712000D01*
X109855000Y-100761000D01*
X112649000Y-100761000D01*
X112649000Y-108712000D01*
X112649000Y-108712000D01*
G37*
X112649000Y-108712000D02*
X112659006Y-108761410D01*
X112686197Y-108801803D01*
X113194197Y-109309803D01*
X113236211Y-109337666D01*
X113284000Y-109347000D01*
X114276121Y-109347000D01*
X114198559Y-109396910D01*
X114053569Y-109609110D01*
X114027126Y-109739691D01*
X114016886Y-109764350D01*
X113994006Y-109798593D01*
X113986042Y-109838631D01*
X113915197Y-110009244D01*
X113915034Y-110195609D01*
X113907000Y-110236000D01*
X113907000Y-112209560D01*
X113619000Y-112209560D01*
X113383683Y-112253838D01*
X113167559Y-112392910D01*
X113022569Y-112605110D01*
X112971560Y-112857000D01*
X112971560Y-114407000D01*
X113015838Y-114642317D01*
X113154910Y-114858441D01*
X113367110Y-115003431D01*
X113619000Y-115054440D01*
X113935755Y-115054440D01*
X113979435Y-115160154D01*
X113994006Y-115233407D01*
X114035139Y-115294967D01*
X114099233Y-115450086D01*
X114218853Y-115569915D01*
X114241777Y-115604223D01*
X114253777Y-115616223D01*
X114287723Y-115638905D01*
X114418235Y-115769645D01*
X114590350Y-115841114D01*
X114624593Y-115863994D01*
X114664631Y-115871958D01*
X114666726Y-115872828D01*
X114380777Y-116158777D01*
X114133006Y-116529593D01*
X114046000Y-116967000D01*
X114046000Y-117609560D01*
X113619000Y-117609560D01*
X113411000Y-117648698D01*
X113411000Y-117094000D01*
X113400994Y-117044590D01*
X113372553Y-117002965D01*
X113330159Y-116975685D01*
X113284000Y-116967000D01*
X108966000Y-116967000D01*
X108916590Y-116977006D01*
X108874965Y-117005447D01*
X108847685Y-117047841D01*
X108839000Y-117094000D01*
X108839000Y-121047000D01*
X107925957Y-121047000D01*
X107942431Y-121022890D01*
X107968874Y-120892309D01*
X107979114Y-120867650D01*
X108001994Y-120833407D01*
X108009958Y-120793369D01*
X108080803Y-120622756D01*
X108080966Y-120436391D01*
X108089000Y-120396000D01*
X108089000Y-118872000D01*
X108081036Y-118831961D01*
X108081197Y-118647225D01*
X108010028Y-118474984D01*
X108001994Y-118434593D01*
X107979314Y-118400650D01*
X107971963Y-118382859D01*
X107949162Y-118261683D01*
X107824664Y-118068208D01*
X108014441Y-117946090D01*
X108159431Y-117733890D01*
X108210440Y-117482000D01*
X108210440Y-116887102D01*
X108234815Y-116870815D01*
X108488815Y-116616816D01*
X108653996Y-116369605D01*
X108661476Y-116332000D01*
X108712000Y-116078000D01*
X108712000Y-115062000D01*
X108653996Y-114770395D01*
X108594264Y-114681000D01*
X108488815Y-114523184D01*
X108234817Y-114269187D01*
X108234815Y-114269184D01*
X106964817Y-112999187D01*
X106964815Y-112999184D01*
X106934000Y-112968369D01*
X106934000Y-112522000D01*
X106875996Y-112230395D01*
X106710815Y-111983185D01*
X106583817Y-111856187D01*
X106583815Y-111856184D01*
X106453440Y-111725810D01*
X106453440Y-111344000D01*
X106409162Y-111108683D01*
X106308630Y-110952452D01*
X106312120Y-110950120D01*
X106666543Y-110419687D01*
X106791000Y-109794000D01*
X106791000Y-109347000D01*
X109220000Y-109347000D01*
X109269410Y-109336994D01*
X109309803Y-109309803D01*
X109817803Y-108801803D01*
X109845666Y-108759789D01*
X109855000Y-108712000D01*
X109855000Y-100761000D01*
X112649000Y-100761000D01*
X112649000Y-108712000D01*
G36*
X120260235Y-143963645D02*
X120432350Y-144035114D01*
X120466593Y-144057994D01*
X120506631Y-144065958D01*
X120677244Y-144136803D01*
X120777000Y-144136890D01*
X120777000Y-146050000D01*
X120787006Y-146099410D01*
X120814197Y-146139803D01*
X121285000Y-146610606D01*
X121285000Y-152860002D01*
X121225671Y-152948794D01*
X121166352Y-153247010D01*
X121150569Y-153270110D01*
X121099560Y-153522000D01*
X121099560Y-155022000D01*
X121108027Y-155067000D01*
X118745000Y-155067000D01*
X118745000Y-143891000D01*
X120187717Y-143891000D01*
X120260235Y-143963645D01*
X120260235Y-143963645D01*
G37*
X120260235Y-143963645D02*
X120432350Y-144035114D01*
X120466593Y-144057994D01*
X120506631Y-144065958D01*
X120677244Y-144136803D01*
X120777000Y-144136890D01*
X120777000Y-146050000D01*
X120787006Y-146099410D01*
X120814197Y-146139803D01*
X121285000Y-146610606D01*
X121285000Y-152860002D01*
X121225671Y-152948794D01*
X121166352Y-153247010D01*
X121150569Y-153270110D01*
X121099560Y-153522000D01*
X121099560Y-155022000D01*
X121108027Y-155067000D01*
X118745000Y-155067000D01*
X118745000Y-143891000D01*
X120187717Y-143891000D01*
X120260235Y-143963645D01*
G36*
X143726838Y-135625317D02*
X143865910Y-135841441D01*
X144078110Y-135986431D01*
X144321685Y-136035756D01*
X144390045Y-136081433D01*
X144780000Y-136159000D01*
X146393160Y-136159000D01*
X146393160Y-137096500D01*
X146437438Y-137331817D01*
X146576510Y-137547941D01*
X146788710Y-137692931D01*
X147040600Y-137743940D01*
X147447000Y-137743940D01*
X147578662Y-137719166D01*
X147701000Y-137743940D01*
X148107400Y-137743940D01*
X148232479Y-137720405D01*
X148348700Y-137743940D01*
X148755100Y-137743940D01*
X148990417Y-137699662D01*
X149175000Y-137580886D01*
X149175000Y-139789865D01*
X149006990Y-139675069D01*
X148755100Y-139624060D01*
X148348700Y-139624060D01*
X148223621Y-139647595D01*
X148107400Y-139624060D01*
X147701000Y-139624060D01*
X147569338Y-139648834D01*
X147447000Y-139624060D01*
X147040600Y-139624060D01*
X146915521Y-139647595D01*
X146799300Y-139624060D01*
X146392900Y-139624060D01*
X146157583Y-139668338D01*
X145941459Y-139807410D01*
X145922684Y-139834888D01*
X145825225Y-139834803D01*
X145407914Y-140007233D01*
X145088355Y-140326235D01*
X144915197Y-140743244D01*
X144914803Y-141194775D01*
X145087233Y-141612086D01*
X145406235Y-141931645D01*
X145823244Y-142104803D01*
X146260560Y-142105185D01*
X146260560Y-142615000D01*
X146304838Y-142850317D01*
X146443910Y-143066441D01*
X146656110Y-143211431D01*
X146908000Y-143262440D01*
X147708000Y-143262440D01*
X147943317Y-143218162D01*
X148159441Y-143079090D01*
X148182282Y-143045661D01*
X148363244Y-143120803D01*
X148814775Y-143121197D01*
X149175000Y-142972355D01*
X149175000Y-143383000D01*
X143510000Y-143383000D01*
X143460590Y-143393006D01*
X143418965Y-143421447D01*
X143391685Y-143463841D01*
X143383000Y-143510000D01*
X143383000Y-149606000D01*
X143393006Y-149655410D01*
X143421447Y-149697035D01*
X143463841Y-149724315D01*
X143510000Y-149733000D01*
X149175000Y-149733000D01*
X149175000Y-168479000D01*
X100761000Y-168479000D01*
X100761000Y-141859000D01*
X102682933Y-141859000D01*
X102472115Y-142174511D01*
X102358041Y-142748000D01*
X102472115Y-143321489D01*
X102796971Y-143807670D01*
X103283152Y-144132526D01*
X103856641Y-144246600D01*
X103915359Y-144246600D01*
X104488848Y-144132526D01*
X104775000Y-143941325D01*
X104775000Y-146634675D01*
X104488848Y-146443474D01*
X103915359Y-146329400D01*
X103856641Y-146329400D01*
X103283152Y-146443474D01*
X102796971Y-146768330D01*
X102472115Y-147254511D01*
X102358041Y-147828000D01*
X102472115Y-148401489D01*
X102796971Y-148887670D01*
X103283152Y-149212526D01*
X103752507Y-149305887D01*
X102780197Y-150278197D01*
X102752334Y-150320211D01*
X102743000Y-150368000D01*
X102743000Y-162814000D01*
X102753006Y-162863410D01*
X102780197Y-162903803D01*
X104812197Y-164935803D01*
X104854211Y-164963666D01*
X104902000Y-164973000D01*
X144018000Y-164973000D01*
X144067410Y-164962994D01*
X144107803Y-164935803D01*
X145377803Y-163665803D01*
X145405666Y-163623789D01*
X145415000Y-163576000D01*
X145415000Y-154686000D01*
X145404994Y-154636590D01*
X145377803Y-154596197D01*
X143510440Y-152728834D01*
X143510440Y-151706000D01*
X143466162Y-151470683D01*
X143327090Y-151254559D01*
X143114890Y-151109569D01*
X142863000Y-151058560D01*
X141840166Y-151058560D01*
X140081000Y-149299394D01*
X140081000Y-143070667D01*
X140484017Y-142990502D01*
X140933343Y-142690272D01*
X141233573Y-142240946D01*
X141339000Y-141710929D01*
X141339000Y-140637071D01*
X141233573Y-140107054D01*
X140933343Y-139657728D01*
X140484017Y-139357498D01*
X139954000Y-139252071D01*
X139423983Y-139357498D01*
X138974657Y-139657728D01*
X138674427Y-140107054D01*
X138629086Y-140335000D01*
X138075240Y-140335000D01*
X141986000Y-136424239D01*
X141986000Y-137157830D01*
X141851914Y-137213233D01*
X141532355Y-137532235D01*
X141359197Y-137949244D01*
X141358803Y-138400775D01*
X141531233Y-138818086D01*
X141850235Y-139137645D01*
X142267244Y-139310803D01*
X142718775Y-139311197D01*
X143136086Y-139138767D01*
X143455645Y-138819765D01*
X143628803Y-138402756D01*
X143629197Y-137951225D01*
X143510000Y-137662747D01*
X143510000Y-135824630D01*
X143724063Y-135610567D01*
X143726838Y-135625317D01*
X143726838Y-135625317D01*
G37*
X143726838Y-135625317D02*
X143865910Y-135841441D01*
X144078110Y-135986431D01*
X144321685Y-136035756D01*
X144390045Y-136081433D01*
X144780000Y-136159000D01*
X146393160Y-136159000D01*
X146393160Y-137096500D01*
X146437438Y-137331817D01*
X146576510Y-137547941D01*
X146788710Y-137692931D01*
X147040600Y-137743940D01*
X147447000Y-137743940D01*
X147578662Y-137719166D01*
X147701000Y-137743940D01*
X148107400Y-137743940D01*
X148232479Y-137720405D01*
X148348700Y-137743940D01*
X148755100Y-137743940D01*
X148990417Y-137699662D01*
X149175000Y-137580886D01*
X149175000Y-139789865D01*
X149006990Y-139675069D01*
X148755100Y-139624060D01*
X148348700Y-139624060D01*
X148223621Y-139647595D01*
X148107400Y-139624060D01*
X147701000Y-139624060D01*
X147569338Y-139648834D01*
X147447000Y-139624060D01*
X147040600Y-139624060D01*
X146915521Y-139647595D01*
X146799300Y-139624060D01*
X146392900Y-139624060D01*
X146157583Y-139668338D01*
X145941459Y-139807410D01*
X145922684Y-139834888D01*
X145825225Y-139834803D01*
X145407914Y-140007233D01*
X145088355Y-140326235D01*
X144915197Y-140743244D01*
X144914803Y-141194775D01*
X145087233Y-141612086D01*
X145406235Y-141931645D01*
X145823244Y-142104803D01*
X146260560Y-142105185D01*
X146260560Y-142615000D01*
X146304838Y-142850317D01*
X146443910Y-143066441D01*
X146656110Y-143211431D01*
X146908000Y-143262440D01*
X147708000Y-143262440D01*
X147943317Y-143218162D01*
X148159441Y-143079090D01*
X148182282Y-143045661D01*
X148363244Y-143120803D01*
X148814775Y-143121197D01*
X149175000Y-142972355D01*
X149175000Y-143383000D01*
X143510000Y-143383000D01*
X143460590Y-143393006D01*
X143418965Y-143421447D01*
X143391685Y-143463841D01*
X143383000Y-143510000D01*
X143383000Y-149606000D01*
X143393006Y-149655410D01*
X143421447Y-149697035D01*
X143463841Y-149724315D01*
X143510000Y-149733000D01*
X149175000Y-149733000D01*
X149175000Y-168479000D01*
X100761000Y-168479000D01*
X100761000Y-141859000D01*
X102682933Y-141859000D01*
X102472115Y-142174511D01*
X102358041Y-142748000D01*
X102472115Y-143321489D01*
X102796971Y-143807670D01*
X103283152Y-144132526D01*
X103856641Y-144246600D01*
X103915359Y-144246600D01*
X104488848Y-144132526D01*
X104775000Y-143941325D01*
X104775000Y-146634675D01*
X104488848Y-146443474D01*
X103915359Y-146329400D01*
X103856641Y-146329400D01*
X103283152Y-146443474D01*
X102796971Y-146768330D01*
X102472115Y-147254511D01*
X102358041Y-147828000D01*
X102472115Y-148401489D01*
X102796971Y-148887670D01*
X103283152Y-149212526D01*
X103752507Y-149305887D01*
X102780197Y-150278197D01*
X102752334Y-150320211D01*
X102743000Y-150368000D01*
X102743000Y-162814000D01*
X102753006Y-162863410D01*
X102780197Y-162903803D01*
X104812197Y-164935803D01*
X104854211Y-164963666D01*
X104902000Y-164973000D01*
X144018000Y-164973000D01*
X144067410Y-164962994D01*
X144107803Y-164935803D01*
X145377803Y-163665803D01*
X145405666Y-163623789D01*
X145415000Y-163576000D01*
X145415000Y-154686000D01*
X145404994Y-154636590D01*
X145377803Y-154596197D01*
X143510440Y-152728834D01*
X143510440Y-151706000D01*
X143466162Y-151470683D01*
X143327090Y-151254559D01*
X143114890Y-151109569D01*
X142863000Y-151058560D01*
X141840166Y-151058560D01*
X140081000Y-149299394D01*
X140081000Y-143070667D01*
X140484017Y-142990502D01*
X140933343Y-142690272D01*
X141233573Y-142240946D01*
X141339000Y-141710929D01*
X141339000Y-140637071D01*
X141233573Y-140107054D01*
X140933343Y-139657728D01*
X140484017Y-139357498D01*
X139954000Y-139252071D01*
X139423983Y-139357498D01*
X138974657Y-139657728D01*
X138674427Y-140107054D01*
X138629086Y-140335000D01*
X138075240Y-140335000D01*
X141986000Y-136424239D01*
X141986000Y-137157830D01*
X141851914Y-137213233D01*
X141532355Y-137532235D01*
X141359197Y-137949244D01*
X141358803Y-138400775D01*
X141531233Y-138818086D01*
X141850235Y-139137645D01*
X142267244Y-139310803D01*
X142718775Y-139311197D01*
X143136086Y-139138767D01*
X143455645Y-138819765D01*
X143628803Y-138402756D01*
X143629197Y-137951225D01*
X143510000Y-137662747D01*
X143510000Y-135824630D01*
X143724063Y-135610567D01*
X143726838Y-135625317D01*
G36*
X128889110Y-133929431D02*
X129141000Y-133980440D01*
X129391000Y-133980440D01*
X129614628Y-133938362D01*
X129675072Y-134028822D01*
X129674803Y-134336775D01*
X129847233Y-134754086D01*
X130166235Y-135073645D01*
X130556000Y-135235490D01*
X130556000Y-135509000D01*
X130614004Y-135800605D01*
X130738547Y-135986996D01*
X130779185Y-136047815D01*
X131053185Y-136321816D01*
X131138304Y-136378691D01*
X131119569Y-136406110D01*
X131068560Y-136658000D01*
X131068560Y-136908000D01*
X131112838Y-137143317D01*
X131137886Y-137182243D01*
X131045185Y-137244184D01*
X130779185Y-137510185D01*
X130614004Y-137757395D01*
X130556000Y-138049000D01*
X130556000Y-138557000D01*
X130606524Y-138811000D01*
X125425476Y-138811000D01*
X125425476Y-138810999D01*
X125476000Y-138557000D01*
X125476000Y-138049000D01*
X125417996Y-137757395D01*
X125283054Y-137555440D01*
X125252816Y-137510185D01*
X124986815Y-137244185D01*
X124896203Y-137183640D01*
X124912431Y-137159890D01*
X124963440Y-136908000D01*
X124963440Y-136658000D01*
X124923148Y-136443869D01*
X125105815Y-136321815D01*
X125252815Y-136174816D01*
X125417996Y-135927605D01*
X125428153Y-135876543D01*
X125476000Y-135636000D01*
X125476000Y-135235121D01*
X125864086Y-135074767D01*
X126183645Y-134755765D01*
X126356803Y-134338756D01*
X126357074Y-134028605D01*
X126389256Y-133980440D01*
X126391000Y-133980440D01*
X126520589Y-133956056D01*
X126641000Y-133980440D01*
X126891000Y-133980440D01*
X127126317Y-133936162D01*
X127266727Y-133845810D01*
X127389110Y-133929431D01*
X127641000Y-133980440D01*
X127891000Y-133980440D01*
X128020589Y-133956056D01*
X128141000Y-133980440D01*
X128391000Y-133980440D01*
X128626317Y-133936162D01*
X128766727Y-133845810D01*
X128889110Y-133929431D01*
X128889110Y-133929431D01*
G37*
X128889110Y-133929431D02*
X129141000Y-133980440D01*
X129391000Y-133980440D01*
X129614628Y-133938362D01*
X129675072Y-134028822D01*
X129674803Y-134336775D01*
X129847233Y-134754086D01*
X130166235Y-135073645D01*
X130556000Y-135235490D01*
X130556000Y-135509000D01*
X130614004Y-135800605D01*
X130738547Y-135986996D01*
X130779185Y-136047815D01*
X131053185Y-136321816D01*
X131138304Y-136378691D01*
X131119569Y-136406110D01*
X131068560Y-136658000D01*
X131068560Y-136908000D01*
X131112838Y-137143317D01*
X131137886Y-137182243D01*
X131045185Y-137244184D01*
X130779185Y-137510185D01*
X130614004Y-137757395D01*
X130556000Y-138049000D01*
X130556000Y-138557000D01*
X130606524Y-138811000D01*
X125425476Y-138811000D01*
X125425476Y-138810999D01*
X125476000Y-138557000D01*
X125476000Y-138049000D01*
X125417996Y-137757395D01*
X125283054Y-137555440D01*
X125252816Y-137510185D01*
X124986815Y-137244185D01*
X124896203Y-137183640D01*
X124912431Y-137159890D01*
X124963440Y-136908000D01*
X124963440Y-136658000D01*
X124923148Y-136443869D01*
X125105815Y-136321815D01*
X125252815Y-136174816D01*
X125417996Y-135927605D01*
X125428153Y-135876543D01*
X125476000Y-135636000D01*
X125476000Y-135235121D01*
X125864086Y-135074767D01*
X126183645Y-134755765D01*
X126356803Y-134338756D01*
X126357074Y-134028605D01*
X126389256Y-133980440D01*
X126391000Y-133980440D01*
X126520589Y-133956056D01*
X126641000Y-133980440D01*
X126891000Y-133980440D01*
X127126317Y-133936162D01*
X127266727Y-133845810D01*
X127389110Y-133929431D01*
X127641000Y-133980440D01*
X127891000Y-133980440D01*
X128020589Y-133956056D01*
X128141000Y-133980440D01*
X128391000Y-133980440D01*
X128626317Y-133936162D01*
X128766727Y-133845810D01*
X128889110Y-133929431D01*
G36*
X143682560Y-124214000D02*
X143726838Y-124449317D01*
X143865910Y-124665441D01*
X144078110Y-124810431D01*
X144321685Y-124859756D01*
X144390045Y-124905433D01*
X144780000Y-124983000D01*
X146393160Y-124983000D01*
X146393160Y-125920500D01*
X146437438Y-126155817D01*
X146576510Y-126371941D01*
X146788710Y-126516931D01*
X147040600Y-126567940D01*
X147447000Y-126567940D01*
X147578662Y-126543166D01*
X147701000Y-126567940D01*
X148107400Y-126567940D01*
X148232479Y-126544405D01*
X148348700Y-126567940D01*
X148755100Y-126567940D01*
X148990417Y-126523662D01*
X149175000Y-126404886D01*
X149175000Y-128005709D01*
X148907500Y-127952500D01*
X146939000Y-127952500D01*
X146647395Y-128010504D01*
X146439550Y-128149382D01*
X146400185Y-128175685D01*
X146057285Y-128518585D01*
X146012399Y-128585761D01*
X145941459Y-128631410D01*
X145796469Y-128843610D01*
X145745460Y-129095500D01*
X145745460Y-130265500D01*
X145789738Y-130500817D01*
X145928810Y-130716941D01*
X146133560Y-130856841D01*
X146133560Y-131326641D01*
X145885395Y-131376004D01*
X145638184Y-131541185D01*
X143367000Y-133812370D01*
X143367000Y-124375240D01*
X143682560Y-124059680D01*
X143682560Y-124214000D01*
X143682560Y-124214000D01*
G37*
X143682560Y-124214000D02*
X143726838Y-124449317D01*
X143865910Y-124665441D01*
X144078110Y-124810431D01*
X144321685Y-124859756D01*
X144390045Y-124905433D01*
X144780000Y-124983000D01*
X146393160Y-124983000D01*
X146393160Y-125920500D01*
X146437438Y-126155817D01*
X146576510Y-126371941D01*
X146788710Y-126516931D01*
X147040600Y-126567940D01*
X147447000Y-126567940D01*
X147578662Y-126543166D01*
X147701000Y-126567940D01*
X148107400Y-126567940D01*
X148232479Y-126544405D01*
X148348700Y-126567940D01*
X148755100Y-126567940D01*
X148990417Y-126523662D01*
X149175000Y-126404886D01*
X149175000Y-128005709D01*
X148907500Y-127952500D01*
X146939000Y-127952500D01*
X146647395Y-128010504D01*
X146439550Y-128149382D01*
X146400185Y-128175685D01*
X146057285Y-128518585D01*
X146012399Y-128585761D01*
X145941459Y-128631410D01*
X145796469Y-128843610D01*
X145745460Y-129095500D01*
X145745460Y-130265500D01*
X145789738Y-130500817D01*
X145928810Y-130716941D01*
X146133560Y-130856841D01*
X146133560Y-131326641D01*
X145885395Y-131376004D01*
X145638184Y-131541185D01*
X143367000Y-133812370D01*
X143367000Y-124375240D01*
X143682560Y-124059680D01*
X143682560Y-124214000D01*
G36*
X134493000Y-130608606D02*
X134493000Y-132180760D01*
X133971880Y-132701880D01*
X133617457Y-133232312D01*
X133530745Y-133668239D01*
X133448074Y-133684683D01*
X133267890Y-133561569D01*
X133016000Y-133510560D01*
X132508363Y-133510560D01*
X132787645Y-133231765D01*
X132912854Y-132930230D01*
X133239965Y-132603119D01*
X133452317Y-132563162D01*
X133668441Y-132424090D01*
X133813431Y-132211890D01*
X133864440Y-131960000D01*
X133864440Y-131160000D01*
X133820162Y-130924683D01*
X133681090Y-130708559D01*
X133468890Y-130563569D01*
X133217000Y-130512560D01*
X133193483Y-130512560D01*
X132989955Y-130376567D01*
X132600000Y-130299000D01*
X131468987Y-130299000D01*
X131452000Y-130295560D01*
X131186164Y-130295560D01*
X131194803Y-130274756D01*
X131195197Y-129823225D01*
X131130646Y-129667000D01*
X133551394Y-129667000D01*
X134493000Y-130608606D01*
X134493000Y-130608606D01*
G37*
X134493000Y-130608606D02*
X134493000Y-132180760D01*
X133971880Y-132701880D01*
X133617457Y-133232312D01*
X133530745Y-133668239D01*
X133448074Y-133684683D01*
X133267890Y-133561569D01*
X133016000Y-133510560D01*
X132508363Y-133510560D01*
X132787645Y-133231765D01*
X132912854Y-132930230D01*
X133239965Y-132603119D01*
X133452317Y-132563162D01*
X133668441Y-132424090D01*
X133813431Y-132211890D01*
X133864440Y-131960000D01*
X133864440Y-131160000D01*
X133820162Y-130924683D01*
X133681090Y-130708559D01*
X133468890Y-130563569D01*
X133217000Y-130512560D01*
X133193483Y-130512560D01*
X132989955Y-130376567D01*
X132600000Y-130299000D01*
X131468987Y-130299000D01*
X131452000Y-130295560D01*
X131186164Y-130295560D01*
X131194803Y-130274756D01*
X131195197Y-129823225D01*
X131130646Y-129667000D01*
X133551394Y-129667000D01*
X134493000Y-130608606D01*
G36*
X124837197Y-129821244D02*
X124836803Y-130272775D01*
X124846218Y-130295560D01*
X124580000Y-130295560D01*
X124561718Y-130299000D01*
X123432000Y-130299000D01*
X123042046Y-130376567D01*
X122838517Y-130512560D01*
X122815000Y-130512560D01*
X122579683Y-130556838D01*
X122363559Y-130695910D01*
X122218569Y-130908110D01*
X122167560Y-131160000D01*
X122167560Y-131960000D01*
X122211838Y-132195317D01*
X122350910Y-132411441D01*
X122563110Y-132556431D01*
X122776575Y-132599659D01*
X123127917Y-132951001D01*
X123243233Y-133230086D01*
X123523218Y-133510560D01*
X123016000Y-133510560D01*
X122979264Y-133517472D01*
X122922542Y-133232312D01*
X122568119Y-132701880D01*
X122047000Y-132180761D01*
X122047000Y-129667000D01*
X124901245Y-129667000D01*
X124837197Y-129821244D01*
X124837197Y-129821244D01*
G37*
X124837197Y-129821244D02*
X124836803Y-130272775D01*
X124846218Y-130295560D01*
X124580000Y-130295560D01*
X124561718Y-130299000D01*
X123432000Y-130299000D01*
X123042046Y-130376567D01*
X122838517Y-130512560D01*
X122815000Y-130512560D01*
X122579683Y-130556838D01*
X122363559Y-130695910D01*
X122218569Y-130908110D01*
X122167560Y-131160000D01*
X122167560Y-131960000D01*
X122211838Y-132195317D01*
X122350910Y-132411441D01*
X122563110Y-132556431D01*
X122776575Y-132599659D01*
X123127917Y-132951001D01*
X123243233Y-133230086D01*
X123523218Y-133510560D01*
X123016000Y-133510560D01*
X122979264Y-133517472D01*
X122922542Y-133232312D01*
X122568119Y-132701880D01*
X122047000Y-132180761D01*
X122047000Y-129667000D01*
X124901245Y-129667000D01*
X124837197Y-129821244D01*
G36*
X149175000Y-121215124D02*
X149125890Y-121181569D01*
X149062910Y-121168815D01*
X148750756Y-121039197D01*
X148299225Y-121038803D01*
X147996180Y-121164019D01*
X147938683Y-121174838D01*
X147882500Y-121210991D01*
X147881914Y-121211233D01*
X147881534Y-121211612D01*
X147722559Y-121313910D01*
X147601344Y-121491314D01*
X147566494Y-121526104D01*
X147438090Y-121326559D01*
X147225890Y-121181569D01*
X146974000Y-121130560D01*
X146948195Y-121130560D01*
X146929407Y-121118006D01*
X146492000Y-121031000D01*
X146158595Y-121097319D01*
X146206000Y-120859000D01*
X146206000Y-120062002D01*
X146081543Y-119436315D01*
X146048964Y-119387557D01*
X146133333Y-119352696D01*
X146189317Y-119342162D01*
X146405441Y-119203090D01*
X146550431Y-118990890D01*
X146576874Y-118860309D01*
X146587114Y-118835650D01*
X146609994Y-118801407D01*
X146617958Y-118761369D01*
X146688803Y-118590756D01*
X146688966Y-118404391D01*
X146697000Y-118364000D01*
X146689036Y-118323961D01*
X146689197Y-118139225D01*
X146618028Y-117966984D01*
X146609994Y-117926593D01*
X146587314Y-117892650D01*
X146579963Y-117874859D01*
X146557162Y-117753683D01*
X146458857Y-117600913D01*
X146550431Y-117466890D01*
X146576874Y-117336309D01*
X146587114Y-117311650D01*
X146609994Y-117277407D01*
X146617958Y-117237369D01*
X146688803Y-117066756D01*
X146688966Y-116880391D01*
X146697000Y-116840000D01*
X146689036Y-116799961D01*
X146689197Y-116615225D01*
X146618028Y-116442984D01*
X146609994Y-116402593D01*
X146587314Y-116368650D01*
X146579963Y-116350859D01*
X146557162Y-116229683D01*
X146425774Y-116025500D01*
X146503645Y-115947765D01*
X146676803Y-115530756D01*
X146677197Y-115079225D01*
X146504767Y-114661914D01*
X146397133Y-114554092D01*
X146503645Y-114447765D01*
X146676803Y-114030756D01*
X146677197Y-113579225D01*
X146504767Y-113161914D01*
X146185765Y-112842355D01*
X145768756Y-112669197D01*
X145317225Y-112668803D01*
X144899914Y-112841233D01*
X144849440Y-112891619D01*
X144849440Y-112772140D01*
X144897687Y-112762543D01*
X145428120Y-112408120D01*
X145782543Y-111877687D01*
X145907000Y-111252000D01*
X145907000Y-109347000D01*
X149175000Y-109347000D01*
X149175000Y-121215124D01*
X149175000Y-121215124D01*
G37*
X149175000Y-121215124D02*
X149125890Y-121181569D01*
X149062910Y-121168815D01*
X148750756Y-121039197D01*
X148299225Y-121038803D01*
X147996180Y-121164019D01*
X147938683Y-121174838D01*
X147882500Y-121210991D01*
X147881914Y-121211233D01*
X147881534Y-121211612D01*
X147722559Y-121313910D01*
X147601344Y-121491314D01*
X147566494Y-121526104D01*
X147438090Y-121326559D01*
X147225890Y-121181569D01*
X146974000Y-121130560D01*
X146948195Y-121130560D01*
X146929407Y-121118006D01*
X146492000Y-121031000D01*
X146158595Y-121097319D01*
X146206000Y-120859000D01*
X146206000Y-120062002D01*
X146081543Y-119436315D01*
X146048964Y-119387557D01*
X146133333Y-119352696D01*
X146189317Y-119342162D01*
X146405441Y-119203090D01*
X146550431Y-118990890D01*
X146576874Y-118860309D01*
X146587114Y-118835650D01*
X146609994Y-118801407D01*
X146617958Y-118761369D01*
X146688803Y-118590756D01*
X146688966Y-118404391D01*
X146697000Y-118364000D01*
X146689036Y-118323961D01*
X146689197Y-118139225D01*
X146618028Y-117966984D01*
X146609994Y-117926593D01*
X146587314Y-117892650D01*
X146579963Y-117874859D01*
X146557162Y-117753683D01*
X146458857Y-117600913D01*
X146550431Y-117466890D01*
X146576874Y-117336309D01*
X146587114Y-117311650D01*
X146609994Y-117277407D01*
X146617958Y-117237369D01*
X146688803Y-117066756D01*
X146688966Y-116880391D01*
X146697000Y-116840000D01*
X146689036Y-116799961D01*
X146689197Y-116615225D01*
X146618028Y-116442984D01*
X146609994Y-116402593D01*
X146587314Y-116368650D01*
X146579963Y-116350859D01*
X146557162Y-116229683D01*
X146425774Y-116025500D01*
X146503645Y-115947765D01*
X146676803Y-115530756D01*
X146677197Y-115079225D01*
X146504767Y-114661914D01*
X146397133Y-114554092D01*
X146503645Y-114447765D01*
X146676803Y-114030756D01*
X146677197Y-113579225D01*
X146504767Y-113161914D01*
X146185765Y-112842355D01*
X145768756Y-112669197D01*
X145317225Y-112668803D01*
X144899914Y-112841233D01*
X144849440Y-112891619D01*
X144849440Y-112772140D01*
X144897687Y-112762543D01*
X145428120Y-112408120D01*
X145782543Y-111877687D01*
X145907000Y-111252000D01*
X145907000Y-109347000D01*
X149175000Y-109347000D01*
X149175000Y-121215124D01*
G36*
X127127000Y-109220000D02*
X127137006Y-109269410D01*
X127165447Y-109311035D01*
X127207841Y-109338315D01*
X127254000Y-109347000D01*
X129045110Y-109347000D01*
X129039569Y-109355110D01*
X129013126Y-109485691D01*
X129002886Y-109510350D01*
X128980006Y-109544593D01*
X128972042Y-109584631D01*
X128901197Y-109755244D01*
X128901034Y-109941609D01*
X128893000Y-109982000D01*
X128893000Y-111506000D01*
X128900964Y-111546039D01*
X128900803Y-111730775D01*
X128971972Y-111903016D01*
X128980006Y-111943407D01*
X129002686Y-111977350D01*
X129010037Y-111995141D01*
X129032838Y-112116317D01*
X129042827Y-112131840D01*
X129076482Y-112301034D01*
X129013569Y-112393110D01*
X128962560Y-112645000D01*
X128962560Y-114095000D01*
X129006838Y-114330317D01*
X129145910Y-114546441D01*
X129358110Y-114691431D01*
X129610000Y-114742440D01*
X129929056Y-114742440D01*
X129928803Y-115032775D01*
X130045380Y-115314912D01*
X129913914Y-115369233D01*
X129594355Y-115688235D01*
X129421197Y-116105244D01*
X129420911Y-116433140D01*
X129374683Y-116441838D01*
X129158559Y-116580910D01*
X129013569Y-116793110D01*
X128962560Y-117045000D01*
X128962560Y-118495000D01*
X129006838Y-118730317D01*
X129145910Y-118946441D01*
X129358110Y-119091431D01*
X129596000Y-119139605D01*
X129596000Y-119751000D01*
X129624560Y-119894581D01*
X129624560Y-120538000D01*
X129668838Y-120773317D01*
X129807910Y-120989441D01*
X130020110Y-121134431D01*
X130233612Y-121177666D01*
X130212262Y-121285000D01*
X125349000Y-121285000D01*
X125349000Y-100965000D01*
X127127000Y-100965000D01*
X127127000Y-109220000D01*
X127127000Y-109220000D01*
G37*
X127127000Y-109220000D02*
X127137006Y-109269410D01*
X127165447Y-109311035D01*
X127207841Y-109338315D01*
X127254000Y-109347000D01*
X129045110Y-109347000D01*
X129039569Y-109355110D01*
X129013126Y-109485691D01*
X129002886Y-109510350D01*
X128980006Y-109544593D01*
X128972042Y-109584631D01*
X128901197Y-109755244D01*
X128901034Y-109941609D01*
X128893000Y-109982000D01*
X128893000Y-111506000D01*
X128900964Y-111546039D01*
X128900803Y-111730775D01*
X128971972Y-111903016D01*
X128980006Y-111943407D01*
X129002686Y-111977350D01*
X129010037Y-111995141D01*
X129032838Y-112116317D01*
X129042827Y-112131840D01*
X129076482Y-112301034D01*
X129013569Y-112393110D01*
X128962560Y-112645000D01*
X128962560Y-114095000D01*
X129006838Y-114330317D01*
X129145910Y-114546441D01*
X129358110Y-114691431D01*
X129610000Y-114742440D01*
X129929056Y-114742440D01*
X129928803Y-115032775D01*
X130045380Y-115314912D01*
X129913914Y-115369233D01*
X129594355Y-115688235D01*
X129421197Y-116105244D01*
X129420911Y-116433140D01*
X129374683Y-116441838D01*
X129158559Y-116580910D01*
X129013569Y-116793110D01*
X128962560Y-117045000D01*
X128962560Y-118495000D01*
X129006838Y-118730317D01*
X129145910Y-118946441D01*
X129358110Y-119091431D01*
X129596000Y-119139605D01*
X129596000Y-119751000D01*
X129624560Y-119894581D01*
X129624560Y-120538000D01*
X129668838Y-120773317D01*
X129807910Y-120989441D01*
X130020110Y-121134431D01*
X130233612Y-121177666D01*
X130212262Y-121285000D01*
X125349000Y-121285000D01*
X125349000Y-100965000D01*
X127127000Y-100965000D01*
X127127000Y-109220000D01*
G36*
X139319000Y-109220000D02*
X139329006Y-109269410D01*
X139357447Y-109311035D01*
X139399841Y-109338315D01*
X139446000Y-109347000D01*
X141237110Y-109347000D01*
X141231569Y-109355110D01*
X141205126Y-109485691D01*
X141194886Y-109510350D01*
X141172006Y-109544593D01*
X141164042Y-109584631D01*
X141093197Y-109755244D01*
X141093034Y-109941609D01*
X141085000Y-109982000D01*
X141085000Y-111506000D01*
X141092964Y-111546039D01*
X141092803Y-111730775D01*
X141163972Y-111903016D01*
X141172006Y-111943407D01*
X141194686Y-111977350D01*
X141202037Y-111995141D01*
X141224838Y-112116317D01*
X141234827Y-112131840D01*
X141268482Y-112301034D01*
X141205569Y-112393110D01*
X141154560Y-112645000D01*
X141154560Y-114095000D01*
X141198838Y-114330317D01*
X141337910Y-114546441D01*
X141550110Y-114691431D01*
X141802000Y-114742440D01*
X142121056Y-114742440D01*
X142120803Y-115032775D01*
X142237380Y-115314912D01*
X142105914Y-115369233D01*
X141786355Y-115688235D01*
X141613197Y-116105244D01*
X141612911Y-116433140D01*
X141566683Y-116441838D01*
X141350559Y-116580910D01*
X141205569Y-116793110D01*
X141154560Y-117045000D01*
X141154560Y-118237000D01*
X140335000Y-118237000D01*
X140335000Y-115316000D01*
X140324994Y-115266590D01*
X140296553Y-115224965D01*
X140254159Y-115197685D01*
X140208000Y-115189000D01*
X135382000Y-115189000D01*
X135332590Y-115199006D01*
X135290965Y-115227447D01*
X135263685Y-115269841D01*
X135255000Y-115316000D01*
X135255000Y-117803394D01*
X134496829Y-118561565D01*
X134496966Y-118404391D01*
X134505000Y-118364000D01*
X134497036Y-118323961D01*
X134497197Y-118139225D01*
X134426028Y-117966984D01*
X134417994Y-117926593D01*
X134395314Y-117892650D01*
X134387963Y-117874859D01*
X134365162Y-117753683D01*
X134266857Y-117600913D01*
X134358431Y-117466890D01*
X134384874Y-117336309D01*
X134395114Y-117311650D01*
X134417994Y-117277407D01*
X134425958Y-117237369D01*
X134496803Y-117066756D01*
X134496966Y-116880391D01*
X134505000Y-116840000D01*
X134497036Y-116799961D01*
X134497197Y-116615225D01*
X134426028Y-116442984D01*
X134417994Y-116402593D01*
X134395314Y-116368650D01*
X134387963Y-116350859D01*
X134365162Y-116229683D01*
X134233774Y-116025500D01*
X134311645Y-115947765D01*
X134484803Y-115530756D01*
X134485197Y-115079225D01*
X134312767Y-114661914D01*
X134205133Y-114554092D01*
X134311645Y-114447765D01*
X134484803Y-114030756D01*
X134485197Y-113579225D01*
X134312767Y-113161914D01*
X133993765Y-112842355D01*
X133576756Y-112669197D01*
X133125225Y-112668803D01*
X132707914Y-112841233D01*
X132657440Y-112891619D01*
X132657440Y-112772140D01*
X132705687Y-112762543D01*
X133236120Y-112408120D01*
X133590543Y-111877687D01*
X133715000Y-111252000D01*
X133715000Y-109347000D01*
X136906000Y-109347000D01*
X136955410Y-109336994D01*
X136997035Y-109308553D01*
X137024315Y-109266159D01*
X137033000Y-109220000D01*
X137033000Y-100965000D01*
X139319000Y-100965000D01*
X139319000Y-109220000D01*
X139319000Y-109220000D01*
G37*
X139319000Y-109220000D02*
X139329006Y-109269410D01*
X139357447Y-109311035D01*
X139399841Y-109338315D01*
X139446000Y-109347000D01*
X141237110Y-109347000D01*
X141231569Y-109355110D01*
X141205126Y-109485691D01*
X141194886Y-109510350D01*
X141172006Y-109544593D01*
X141164042Y-109584631D01*
X141093197Y-109755244D01*
X141093034Y-109941609D01*
X141085000Y-109982000D01*
X141085000Y-111506000D01*
X141092964Y-111546039D01*
X141092803Y-111730775D01*
X141163972Y-111903016D01*
X141172006Y-111943407D01*
X141194686Y-111977350D01*
X141202037Y-111995141D01*
X141224838Y-112116317D01*
X141234827Y-112131840D01*
X141268482Y-112301034D01*
X141205569Y-112393110D01*
X141154560Y-112645000D01*
X141154560Y-114095000D01*
X141198838Y-114330317D01*
X141337910Y-114546441D01*
X141550110Y-114691431D01*
X141802000Y-114742440D01*
X142121056Y-114742440D01*
X142120803Y-115032775D01*
X142237380Y-115314912D01*
X142105914Y-115369233D01*
X141786355Y-115688235D01*
X141613197Y-116105244D01*
X141612911Y-116433140D01*
X141566683Y-116441838D01*
X141350559Y-116580910D01*
X141205569Y-116793110D01*
X141154560Y-117045000D01*
X141154560Y-118237000D01*
X140335000Y-118237000D01*
X140335000Y-115316000D01*
X140324994Y-115266590D01*
X140296553Y-115224965D01*
X140254159Y-115197685D01*
X140208000Y-115189000D01*
X135382000Y-115189000D01*
X135332590Y-115199006D01*
X135290965Y-115227447D01*
X135263685Y-115269841D01*
X135255000Y-115316000D01*
X135255000Y-117803394D01*
X134496829Y-118561565D01*
X134496966Y-118404391D01*
X134505000Y-118364000D01*
X134497036Y-118323961D01*
X134497197Y-118139225D01*
X134426028Y-117966984D01*
X134417994Y-117926593D01*
X134395314Y-117892650D01*
X134387963Y-117874859D01*
X134365162Y-117753683D01*
X134266857Y-117600913D01*
X134358431Y-117466890D01*
X134384874Y-117336309D01*
X134395114Y-117311650D01*
X134417994Y-117277407D01*
X134425958Y-117237369D01*
X134496803Y-117066756D01*
X134496966Y-116880391D01*
X134505000Y-116840000D01*
X134497036Y-116799961D01*
X134497197Y-116615225D01*
X134426028Y-116442984D01*
X134417994Y-116402593D01*
X134395314Y-116368650D01*
X134387963Y-116350859D01*
X134365162Y-116229683D01*
X134233774Y-116025500D01*
X134311645Y-115947765D01*
X134484803Y-115530756D01*
X134485197Y-115079225D01*
X134312767Y-114661914D01*
X134205133Y-114554092D01*
X134311645Y-114447765D01*
X134484803Y-114030756D01*
X134485197Y-113579225D01*
X134312767Y-113161914D01*
X133993765Y-112842355D01*
X133576756Y-112669197D01*
X133125225Y-112668803D01*
X132707914Y-112841233D01*
X132657440Y-112891619D01*
X132657440Y-112772140D01*
X132705687Y-112762543D01*
X133236120Y-112408120D01*
X133590543Y-111877687D01*
X133715000Y-111252000D01*
X133715000Y-109347000D01*
X136906000Y-109347000D01*
X136955410Y-109336994D01*
X136997035Y-109308553D01*
X137024315Y-109266159D01*
X137033000Y-109220000D01*
X137033000Y-100965000D01*
X139319000Y-100965000D01*
X139319000Y-109220000D01*
G36*
X130569457Y-122545687D02*
X130923880Y-123076120D01*
X131135414Y-123217462D01*
X131093729Y-123209021D01*
X131005407Y-123150006D01*
X130568000Y-123063000D01*
X130130593Y-123150006D01*
X130046028Y-123206511D01*
X129932683Y-123227838D01*
X129716559Y-123366910D01*
X129571569Y-123579110D01*
X129542413Y-123723085D01*
X129512006Y-123768593D01*
X129425000Y-124206000D01*
X129425000Y-125141270D01*
X129320569Y-125294110D01*
X129284288Y-125473269D01*
X129249650Y-125458886D01*
X129215407Y-125436006D01*
X129175369Y-125428042D01*
X129004756Y-125357197D01*
X128818391Y-125357034D01*
X128778000Y-125349000D01*
X128737961Y-125356964D01*
X128553225Y-125356803D01*
X128380984Y-125427972D01*
X128340593Y-125436006D01*
X128306650Y-125458686D01*
X128135914Y-125529233D01*
X128079500Y-125585549D01*
X128079500Y-125222000D01*
X128028299Y-124964593D01*
X128016663Y-124906094D01*
X127837717Y-124638283D01*
X127654717Y-124455283D01*
X127386906Y-124276337D01*
X127071000Y-124213500D01*
X126508440Y-124213500D01*
X126508440Y-124164000D01*
X126488933Y-124060329D01*
X126508440Y-123964000D01*
X126508440Y-123514000D01*
X126464162Y-123278683D01*
X126325090Y-123062559D01*
X126112890Y-122917569D01*
X125861000Y-122866560D01*
X124411000Y-122866560D01*
X124175683Y-122910838D01*
X123959559Y-123049910D01*
X123814569Y-123262110D01*
X123763560Y-123514000D01*
X123763560Y-123964000D01*
X123783067Y-124067671D01*
X123763560Y-124164000D01*
X123763560Y-124614000D01*
X123783067Y-124717671D01*
X123763560Y-124814000D01*
X123763560Y-125264000D01*
X123783067Y-125367671D01*
X123763560Y-125464000D01*
X123763560Y-125914000D01*
X123807838Y-126149317D01*
X123946910Y-126365441D01*
X124079000Y-126455694D01*
X124079000Y-127193672D01*
X124067000Y-127254000D01*
X124154006Y-127691407D01*
X124182259Y-127733691D01*
X124206838Y-127864317D01*
X124345910Y-128080441D01*
X124558110Y-128225431D01*
X124684271Y-128250979D01*
X124772593Y-128309994D01*
X125210000Y-128397000D01*
X125647407Y-128309994D01*
X125731972Y-128253489D01*
X125845317Y-128232162D01*
X126061441Y-128093090D01*
X126111000Y-128020558D01*
X126111000Y-128270000D01*
X126198006Y-128707407D01*
X126388023Y-128991788D01*
X126198756Y-128913197D01*
X125747225Y-128912803D01*
X125392667Y-129059304D01*
X125336683Y-129069838D01*
X125198121Y-129159000D01*
X125020606Y-129159000D01*
X124041803Y-128180197D01*
X123999789Y-128152334D01*
X123952000Y-128143000D01*
X118491000Y-128143000D01*
X118491000Y-126238000D01*
X118480994Y-126188590D01*
X118468203Y-126169588D01*
X118482235Y-126183645D01*
X118654350Y-126255114D01*
X118688593Y-126277994D01*
X118728631Y-126285958D01*
X118899244Y-126356803D01*
X119085609Y-126356966D01*
X119126000Y-126365000D01*
X119166039Y-126357036D01*
X119350775Y-126357197D01*
X119523016Y-126286028D01*
X119563407Y-126277994D01*
X119597350Y-126255314D01*
X119768086Y-126184767D01*
X119899978Y-126053104D01*
X119934223Y-126030223D01*
X119956905Y-125996277D01*
X120041890Y-125911440D01*
X121461000Y-125911440D01*
X121696317Y-125867162D01*
X121912441Y-125728090D01*
X122057431Y-125515890D01*
X122108440Y-125264000D01*
X122108440Y-124814000D01*
X122088933Y-124710329D01*
X122108440Y-124614000D01*
X122108440Y-124164000D01*
X122088933Y-124060329D01*
X122108440Y-123964000D01*
X122108440Y-123514000D01*
X122095955Y-123447651D01*
X123242606Y-122301000D01*
X130520785Y-122301000D01*
X130569457Y-122545687D01*
X130569457Y-122545687D01*
G37*
X130569457Y-122545687D02*
X130923880Y-123076120D01*
X131135414Y-123217462D01*
X131093729Y-123209021D01*
X131005407Y-123150006D01*
X130568000Y-123063000D01*
X130130593Y-123150006D01*
X130046028Y-123206511D01*
X129932683Y-123227838D01*
X129716559Y-123366910D01*
X129571569Y-123579110D01*
X129542413Y-123723085D01*
X129512006Y-123768593D01*
X129425000Y-124206000D01*
X129425000Y-125141270D01*
X129320569Y-125294110D01*
X129284288Y-125473269D01*
X129249650Y-125458886D01*
X129215407Y-125436006D01*
X129175369Y-125428042D01*
X129004756Y-125357197D01*
X128818391Y-125357034D01*
X128778000Y-125349000D01*
X128737961Y-125356964D01*
X128553225Y-125356803D01*
X128380984Y-125427972D01*
X128340593Y-125436006D01*
X128306650Y-125458686D01*
X128135914Y-125529233D01*
X128079500Y-125585549D01*
X128079500Y-125222000D01*
X128028299Y-124964593D01*
X128016663Y-124906094D01*
X127837717Y-124638283D01*
X127654717Y-124455283D01*
X127386906Y-124276337D01*
X127071000Y-124213500D01*
X126508440Y-124213500D01*
X126508440Y-124164000D01*
X126488933Y-124060329D01*
X126508440Y-123964000D01*
X126508440Y-123514000D01*
X126464162Y-123278683D01*
X126325090Y-123062559D01*
X126112890Y-122917569D01*
X125861000Y-122866560D01*
X124411000Y-122866560D01*
X124175683Y-122910838D01*
X123959559Y-123049910D01*
X123814569Y-123262110D01*
X123763560Y-123514000D01*
X123763560Y-123964000D01*
X123783067Y-124067671D01*
X123763560Y-124164000D01*
X123763560Y-124614000D01*
X123783067Y-124717671D01*
X123763560Y-124814000D01*
X123763560Y-125264000D01*
X123783067Y-125367671D01*
X123763560Y-125464000D01*
X123763560Y-125914000D01*
X123807838Y-126149317D01*
X123946910Y-126365441D01*
X124079000Y-126455694D01*
X124079000Y-127193672D01*
X124067000Y-127254000D01*
X124154006Y-127691407D01*
X124182259Y-127733691D01*
X124206838Y-127864317D01*
X124345910Y-128080441D01*
X124558110Y-128225431D01*
X124684271Y-128250979D01*
X124772593Y-128309994D01*
X125210000Y-128397000D01*
X125647407Y-128309994D01*
X125731972Y-128253489D01*
X125845317Y-128232162D01*
X126061441Y-128093090D01*
X126111000Y-128020558D01*
X126111000Y-128270000D01*
X126198006Y-128707407D01*
X126388023Y-128991788D01*
X126198756Y-128913197D01*
X125747225Y-128912803D01*
X125392667Y-129059304D01*
X125336683Y-129069838D01*
X125198121Y-129159000D01*
X125020606Y-129159000D01*
X124041803Y-128180197D01*
X123999789Y-128152334D01*
X123952000Y-128143000D01*
X118491000Y-128143000D01*
X118491000Y-126238000D01*
X118480994Y-126188590D01*
X118468203Y-126169588D01*
X118482235Y-126183645D01*
X118654350Y-126255114D01*
X118688593Y-126277994D01*
X118728631Y-126285958D01*
X118899244Y-126356803D01*
X119085609Y-126356966D01*
X119126000Y-126365000D01*
X119166039Y-126357036D01*
X119350775Y-126357197D01*
X119523016Y-126286028D01*
X119563407Y-126277994D01*
X119597350Y-126255314D01*
X119768086Y-126184767D01*
X119899978Y-126053104D01*
X119934223Y-126030223D01*
X119956905Y-125996277D01*
X120041890Y-125911440D01*
X121461000Y-125911440D01*
X121696317Y-125867162D01*
X121912441Y-125728090D01*
X122057431Y-125515890D01*
X122108440Y-125264000D01*
X122108440Y-124814000D01*
X122088933Y-124710329D01*
X122108440Y-124614000D01*
X122108440Y-124164000D01*
X122088933Y-124060329D01*
X122108440Y-123964000D01*
X122108440Y-123514000D01*
X122095955Y-123447651D01*
X123242606Y-122301000D01*
X130520785Y-122301000D01*
X130569457Y-122545687D01*
G36*
X132080000Y-123555000D02*
X133688760Y-123555000D01*
X135682321Y-125548560D01*
X134317000Y-125548560D01*
X134081683Y-125592838D01*
X133865559Y-125731910D01*
X133720569Y-125944110D01*
X133669560Y-126196000D01*
X133669560Y-126646000D01*
X133689067Y-126749671D01*
X133669560Y-126846000D01*
X133669560Y-127296000D01*
X133689067Y-127399671D01*
X133669560Y-127496000D01*
X133669560Y-127946000D01*
X133713838Y-128181317D01*
X133852910Y-128397441D01*
X134065110Y-128542431D01*
X134317000Y-128593440D01*
X135767000Y-128593440D01*
X135905735Y-128567335D01*
X135940305Y-128651000D01*
X131318000Y-128651000D01*
X131268590Y-128661006D01*
X131228197Y-128688197D01*
X130787894Y-129128500D01*
X130711890Y-129076569D01*
X130650029Y-129064042D01*
X130286756Y-128913197D01*
X129835225Y-128912803D01*
X129643942Y-128991840D01*
X129833994Y-128707407D01*
X129859000Y-128581695D01*
X129917000Y-128593440D01*
X131367000Y-128593440D01*
X131602317Y-128549162D01*
X131818441Y-128410090D01*
X131963431Y-128197890D01*
X132014440Y-127946000D01*
X132014440Y-127496000D01*
X131994933Y-127392329D01*
X132014440Y-127296000D01*
X132014440Y-126846000D01*
X131994933Y-126742329D01*
X132014440Y-126646000D01*
X132014440Y-126196000D01*
X131994933Y-126092329D01*
X132014440Y-125996000D01*
X132014440Y-125546000D01*
X131970162Y-125310683D01*
X131831090Y-125094559D01*
X131711000Y-125012505D01*
X131711000Y-124206000D01*
X131623994Y-123768593D01*
X131595741Y-123726309D01*
X131571162Y-123595683D01*
X131466451Y-123432957D01*
X132080000Y-123555000D01*
X132080000Y-123555000D01*
G37*
X132080000Y-123555000D02*
X133688760Y-123555000D01*
X135682321Y-125548560D01*
X134317000Y-125548560D01*
X134081683Y-125592838D01*
X133865559Y-125731910D01*
X133720569Y-125944110D01*
X133669560Y-126196000D01*
X133669560Y-126646000D01*
X133689067Y-126749671D01*
X133669560Y-126846000D01*
X133669560Y-127296000D01*
X133689067Y-127399671D01*
X133669560Y-127496000D01*
X133669560Y-127946000D01*
X133713838Y-128181317D01*
X133852910Y-128397441D01*
X134065110Y-128542431D01*
X134317000Y-128593440D01*
X135767000Y-128593440D01*
X135905735Y-128567335D01*
X135940305Y-128651000D01*
X131318000Y-128651000D01*
X131268590Y-128661006D01*
X131228197Y-128688197D01*
X130787894Y-129128500D01*
X130711890Y-129076569D01*
X130650029Y-129064042D01*
X130286756Y-128913197D01*
X129835225Y-128912803D01*
X129643942Y-128991840D01*
X129833994Y-128707407D01*
X129859000Y-128581695D01*
X129917000Y-128593440D01*
X131367000Y-128593440D01*
X131602317Y-128549162D01*
X131818441Y-128410090D01*
X131963431Y-128197890D01*
X132014440Y-127946000D01*
X132014440Y-127496000D01*
X131994933Y-127392329D01*
X132014440Y-127296000D01*
X132014440Y-126846000D01*
X131994933Y-126742329D01*
X132014440Y-126646000D01*
X132014440Y-126196000D01*
X131994933Y-126092329D01*
X132014440Y-125996000D01*
X132014440Y-125546000D01*
X131970162Y-125310683D01*
X131831090Y-125094559D01*
X131711000Y-125012505D01*
X131711000Y-124206000D01*
X131623994Y-123768593D01*
X131595741Y-123726309D01*
X131571162Y-123595683D01*
X131466451Y-123432957D01*
X132080000Y-123555000D01*
G36*
X136255000Y-142208250D02*
X136413750Y-142367000D01*
X137263000Y-142367000D01*
X137263000Y-142347000D01*
X137517000Y-142347000D01*
X137517000Y-142367000D01*
X137537000Y-142367000D01*
X137537000Y-142621000D01*
X137517000Y-142621000D01*
X137517000Y-144220250D01*
X137675750Y-144379000D01*
X138016309Y-144379000D01*
X138249698Y-144282327D01*
X138428327Y-144103699D01*
X138525000Y-143870310D01*
X138525000Y-142779750D01*
X138366252Y-142621002D01*
X138377396Y-142621002D01*
X138811000Y-143054606D01*
X138811000Y-149225000D01*
X131826000Y-149225000D01*
X131776590Y-149235006D01*
X131734965Y-149263447D01*
X131707685Y-149305841D01*
X131699000Y-149352000D01*
X131699000Y-153363394D01*
X130553322Y-154509072D01*
X130443250Y-154399000D01*
X129794000Y-154399000D01*
X129794000Y-154419000D01*
X129540000Y-154419000D01*
X129540000Y-154399000D01*
X129520000Y-154399000D01*
X129520000Y-154145000D01*
X129540000Y-154145000D01*
X129540000Y-153045750D01*
X129794000Y-153045750D01*
X129794000Y-154145000D01*
X130443250Y-154145000D01*
X130602000Y-153986250D01*
X130602000Y-153395691D01*
X130505327Y-153162302D01*
X130326699Y-152983673D01*
X130093310Y-152887000D01*
X129952750Y-152887000D01*
X129794000Y-153045750D01*
X129540000Y-153045750D01*
X129381250Y-152887000D01*
X129240690Y-152887000D01*
X129023878Y-152976806D01*
X128948890Y-152925569D01*
X128697000Y-152874560D01*
X128651000Y-152874560D01*
X128651000Y-152146000D01*
X128583329Y-151805794D01*
X128390618Y-151517382D01*
X127882618Y-151009382D01*
X127842476Y-150982560D01*
X127789440Y-150947122D01*
X127789440Y-150338000D01*
X127745162Y-150102683D01*
X127651738Y-149957498D01*
X129406618Y-148202618D01*
X129472501Y-148104017D01*
X129599329Y-147914206D01*
X129667000Y-147574000D01*
X131632071Y-147574000D01*
X131737498Y-148104017D01*
X132037728Y-148553343D01*
X132487054Y-148853573D01*
X133017071Y-148959000D01*
X134090929Y-148959000D01*
X134620946Y-148853573D01*
X135070272Y-148553343D01*
X135370502Y-148104017D01*
X135475929Y-147574000D01*
X135370502Y-147043983D01*
X135070272Y-146594657D01*
X134620946Y-146294427D01*
X134090929Y-146189000D01*
X133017071Y-146189000D01*
X132487054Y-146294427D01*
X132037728Y-146594657D01*
X131737498Y-147043983D01*
X131632071Y-147574000D01*
X129667000Y-147574000D01*
X129667000Y-147184890D01*
X130018775Y-147185197D01*
X130436086Y-147012767D01*
X130755645Y-146693765D01*
X130928803Y-146276756D01*
X130929038Y-146007255D01*
X131165135Y-145910703D01*
X131562729Y-145645640D01*
X131599244Y-145660803D01*
X131785609Y-145660966D01*
X131826000Y-145669000D01*
X131866039Y-145661036D01*
X132050775Y-145661197D01*
X132223016Y-145590028D01*
X132263407Y-145581994D01*
X132297350Y-145559314D01*
X132468086Y-145488767D01*
X132599978Y-145357104D01*
X132634223Y-145334223D01*
X132656905Y-145300277D01*
X132787645Y-145169765D01*
X132859114Y-144997650D01*
X132881994Y-144963407D01*
X132889958Y-144923369D01*
X132960803Y-144752756D01*
X132960966Y-144566391D01*
X132969000Y-144526000D01*
X132961036Y-144485961D01*
X132961197Y-144301225D01*
X132890028Y-144128984D01*
X132881994Y-144088593D01*
X132859314Y-144054650D01*
X132788767Y-143883914D01*
X132657104Y-143752022D01*
X132634223Y-143717777D01*
X132402359Y-143485913D01*
X132560699Y-143420327D01*
X132739327Y-143241698D01*
X132836000Y-143008309D01*
X132836000Y-142767750D01*
X132677252Y-142609002D01*
X132836000Y-142609002D01*
X132836000Y-142556446D01*
X133242560Y-142963006D01*
X133242560Y-143744000D01*
X133286838Y-143979317D01*
X133425910Y-144195441D01*
X133638110Y-144340431D01*
X133890000Y-144391440D01*
X134890000Y-144391440D01*
X135125317Y-144347162D01*
X135341441Y-144208090D01*
X135486431Y-143995890D01*
X135537440Y-143744000D01*
X135537440Y-142779750D01*
X136255000Y-142779750D01*
X136255000Y-143870310D01*
X136351673Y-144103699D01*
X136530302Y-144282327D01*
X136763691Y-144379000D01*
X137104250Y-144379000D01*
X137263000Y-144220250D01*
X137263000Y-142621000D01*
X136413750Y-142621000D01*
X136255000Y-142779750D01*
X135537440Y-142779750D01*
X135537440Y-141351000D01*
X136255000Y-141351000D01*
X136255000Y-142208250D01*
X136255000Y-142208250D01*
G37*
X136255000Y-142208250D02*
X136413750Y-142367000D01*
X137263000Y-142367000D01*
X137263000Y-142347000D01*
X137517000Y-142347000D01*
X137517000Y-142367000D01*
X137537000Y-142367000D01*
X137537000Y-142621000D01*
X137517000Y-142621000D01*
X137517000Y-144220250D01*
X137675750Y-144379000D01*
X138016309Y-144379000D01*
X138249698Y-144282327D01*
X138428327Y-144103699D01*
X138525000Y-143870310D01*
X138525000Y-142779750D01*
X138366252Y-142621002D01*
X138377396Y-142621002D01*
X138811000Y-143054606D01*
X138811000Y-149225000D01*
X131826000Y-149225000D01*
X131776590Y-149235006D01*
X131734965Y-149263447D01*
X131707685Y-149305841D01*
X131699000Y-149352000D01*
X131699000Y-153363394D01*
X130553322Y-154509072D01*
X130443250Y-154399000D01*
X129794000Y-154399000D01*
X129794000Y-154419000D01*
X129540000Y-154419000D01*
X129540000Y-154399000D01*
X129520000Y-154399000D01*
X129520000Y-154145000D01*
X129540000Y-154145000D01*
X129540000Y-153045750D01*
X129794000Y-153045750D01*
X129794000Y-154145000D01*
X130443250Y-154145000D01*
X130602000Y-153986250D01*
X130602000Y-153395691D01*
X130505327Y-153162302D01*
X130326699Y-152983673D01*
X130093310Y-152887000D01*
X129952750Y-152887000D01*
X129794000Y-153045750D01*
X129540000Y-153045750D01*
X129381250Y-152887000D01*
X129240690Y-152887000D01*
X129023878Y-152976806D01*
X128948890Y-152925569D01*
X128697000Y-152874560D01*
X128651000Y-152874560D01*
X128651000Y-152146000D01*
X128583329Y-151805794D01*
X128390618Y-151517382D01*
X127882618Y-151009382D01*
X127842476Y-150982560D01*
X127789440Y-150947122D01*
X127789440Y-150338000D01*
X127745162Y-150102683D01*
X127651738Y-149957498D01*
X129406618Y-148202618D01*
X129472501Y-148104017D01*
X129599329Y-147914206D01*
X129667000Y-147574000D01*
X131632071Y-147574000D01*
X131737498Y-148104017D01*
X132037728Y-148553343D01*
X132487054Y-148853573D01*
X133017071Y-148959000D01*
X134090929Y-148959000D01*
X134620946Y-148853573D01*
X135070272Y-148553343D01*
X135370502Y-148104017D01*
X135475929Y-147574000D01*
X135370502Y-147043983D01*
X135070272Y-146594657D01*
X134620946Y-146294427D01*
X134090929Y-146189000D01*
X133017071Y-146189000D01*
X132487054Y-146294427D01*
X132037728Y-146594657D01*
X131737498Y-147043983D01*
X131632071Y-147574000D01*
X129667000Y-147574000D01*
X129667000Y-147184890D01*
X130018775Y-147185197D01*
X130436086Y-147012767D01*
X130755645Y-146693765D01*
X130928803Y-146276756D01*
X130929038Y-146007255D01*
X131165135Y-145910703D01*
X131562729Y-145645640D01*
X131599244Y-145660803D01*
X131785609Y-145660966D01*
X131826000Y-145669000D01*
X131866039Y-145661036D01*
X132050775Y-145661197D01*
X132223016Y-145590028D01*
X132263407Y-145581994D01*
X132297350Y-145559314D01*
X132468086Y-145488767D01*
X132599978Y-145357104D01*
X132634223Y-145334223D01*
X132656905Y-145300277D01*
X132787645Y-145169765D01*
X132859114Y-144997650D01*
X132881994Y-144963407D01*
X132889958Y-144923369D01*
X132960803Y-144752756D01*
X132960966Y-144566391D01*
X132969000Y-144526000D01*
X132961036Y-144485961D01*
X132961197Y-144301225D01*
X132890028Y-144128984D01*
X132881994Y-144088593D01*
X132859314Y-144054650D01*
X132788767Y-143883914D01*
X132657104Y-143752022D01*
X132634223Y-143717777D01*
X132402359Y-143485913D01*
X132560699Y-143420327D01*
X132739327Y-143241698D01*
X132836000Y-143008309D01*
X132836000Y-142767750D01*
X132677252Y-142609002D01*
X132836000Y-142609002D01*
X132836000Y-142556446D01*
X133242560Y-142963006D01*
X133242560Y-143744000D01*
X133286838Y-143979317D01*
X133425910Y-144195441D01*
X133638110Y-144340431D01*
X133890000Y-144391440D01*
X134890000Y-144391440D01*
X135125317Y-144347162D01*
X135341441Y-144208090D01*
X135486431Y-143995890D01*
X135537440Y-143744000D01*
X135537440Y-142779750D01*
X136255000Y-142779750D01*
X136255000Y-143870310D01*
X136351673Y-144103699D01*
X136530302Y-144282327D01*
X136763691Y-144379000D01*
X137104250Y-144379000D01*
X137263000Y-144220250D01*
X137263000Y-142621000D01*
X136413750Y-142621000D01*
X136255000Y-142779750D01*
X135537440Y-142779750D01*
X135537440Y-141351000D01*
X136255000Y-141351000D01*
X136255000Y-142208250D01*
G36*
X131953000Y-142355000D02*
X131973000Y-142355000D01*
X131973000Y-142609000D01*
X131953000Y-142609000D01*
X131953000Y-142629000D01*
X131699000Y-142629000D01*
X131699000Y-142609000D01*
X131679000Y-142609000D01*
X131679000Y-142355000D01*
X131699000Y-142355000D01*
X131699000Y-142335000D01*
X131953000Y-142335000D01*
X131953000Y-142355000D01*
X131953000Y-142355000D01*
G37*
X131953000Y-142355000D02*
X131973000Y-142355000D01*
X131973000Y-142609000D01*
X131953000Y-142609000D01*
X131953000Y-142629000D01*
X131699000Y-142629000D01*
X131699000Y-142609000D01*
X131679000Y-142609000D01*
X131679000Y-142355000D01*
X131699000Y-142355000D01*
X131699000Y-142335000D01*
X131953000Y-142335000D01*
X131953000Y-142355000D01*
G36*
X122057000Y-141859000D02*
X122079000Y-141859000D01*
X122079000Y-142113000D01*
X122057000Y-142113000D01*
X122057000Y-142133000D01*
X121807000Y-142133000D01*
X121807000Y-142113000D01*
X121785000Y-142113000D01*
X121785000Y-141859000D01*
X121807000Y-141859000D01*
X121807000Y-141839000D01*
X122057000Y-141839000D01*
X122057000Y-141859000D01*
X122057000Y-141859000D01*
G37*
X122057000Y-141859000D02*
X122079000Y-141859000D01*
X122079000Y-142113000D01*
X122057000Y-142113000D01*
X122057000Y-142133000D01*
X121807000Y-142133000D01*
X121807000Y-142113000D01*
X121785000Y-142113000D01*
X121785000Y-141859000D01*
X121807000Y-141859000D01*
X121807000Y-141839000D01*
X122057000Y-141839000D01*
X122057000Y-141859000D01*
G36*
X131068560Y-139658000D02*
X131068560Y-139908000D01*
X131096339Y-140055634D01*
X131011812Y-140110025D01*
X130891000Y-140085560D01*
X130641000Y-140085560D01*
X130535295Y-140105450D01*
X130517310Y-140098000D01*
X130487250Y-140098000D01*
X130466938Y-140118312D01*
X130405683Y-140129838D01*
X130265273Y-140220190D01*
X130142890Y-140136569D01*
X130068192Y-140121442D01*
X130044750Y-140098000D01*
X130014690Y-140098000D01*
X129994247Y-140106468D01*
X129891000Y-140085560D01*
X129641000Y-140085560D01*
X129511411Y-140109944D01*
X129391000Y-140085560D01*
X129150886Y-140085560D01*
X129151197Y-139729225D01*
X129086646Y-139573000D01*
X131085773Y-139573000D01*
X131068560Y-139658000D01*
X131068560Y-139658000D01*
G37*
X131068560Y-139658000D02*
X131068560Y-139908000D01*
X131096339Y-140055634D01*
X131011812Y-140110025D01*
X130891000Y-140085560D01*
X130641000Y-140085560D01*
X130535295Y-140105450D01*
X130517310Y-140098000D01*
X130487250Y-140098000D01*
X130466938Y-140118312D01*
X130405683Y-140129838D01*
X130265273Y-140220190D01*
X130142890Y-140136569D01*
X130068192Y-140121442D01*
X130044750Y-140098000D01*
X130014690Y-140098000D01*
X129994247Y-140106468D01*
X129891000Y-140085560D01*
X129641000Y-140085560D01*
X129511411Y-140109944D01*
X129391000Y-140085560D01*
X129150886Y-140085560D01*
X129151197Y-139729225D01*
X129086646Y-139573000D01*
X131085773Y-139573000D01*
X131068560Y-139658000D01*
M02*
