G04 #@! TF.FileFunction,Soldermask,Bot*
%FSLAX46Y46*%
G04 Gerber Fmt 4.6, Leading zero omitted, Abs format (unit mm)*
G04 Created by KiCad (PCBNEW 4.0.2-4+6225~38~ubuntu14.04.1-stable) date Thu 10 Mar 2016 19:01:21 GMT*
%MOMM*%
G01*
G04 APERTURE LIST*
%ADD10C,0.100000*%
%ADD11R,1.060000X0.650000*%
%ADD12R,1.000000X1.250000*%
%ADD13R,0.700000X1.300000*%
%ADD14R,1.300000X0.700000*%
%ADD15R,2.230000X1.800000*%
%ADD16R,0.800000X0.750000*%
%ADD17R,1.800000X2.230000*%
%ADD18R,0.750000X0.800000*%
%ADD19R,1.727200X1.727200*%
%ADD20O,1.727200X1.727200*%
%ADD21O,2.500000X1.500000*%
%ADD22R,1.680000X1.880000*%
%ADD23C,2.800000*%
%ADD24R,1.000000X2.500000*%
%ADD25R,2.032000X2.032000*%
%ADD26O,2.032000X2.032000*%
%ADD27R,2.500000X1.000000*%
G04 APERTURE END LIST*
D10*
D11*
X106764000Y-114874000D03*
X106764000Y-115824000D03*
X106764000Y-116774000D03*
X104564000Y-116774000D03*
X104564000Y-114874000D03*
X104564000Y-115824000D03*
D12*
X102886000Y-123952000D03*
X104886000Y-123952000D03*
X102886000Y-129540000D03*
X104886000Y-129540000D03*
X102886000Y-118364000D03*
X104886000Y-118364000D03*
X102886000Y-112776000D03*
X104886000Y-112776000D03*
X102886000Y-135128000D03*
X104886000Y-135128000D03*
D13*
X132654000Y-126365000D03*
X134554000Y-126365000D03*
D14*
X140716000Y-124907000D03*
X140716000Y-126807000D03*
D13*
X144206000Y-125222000D03*
X142306000Y-125222000D03*
D14*
X140716000Y-118049000D03*
X140716000Y-119949000D03*
D13*
X144206000Y-117856000D03*
X142306000Y-117856000D03*
X105852000Y-121158000D03*
X103952000Y-121158000D03*
D15*
X129032000Y-122999000D03*
X129032000Y-120079000D03*
D16*
X129528000Y-118491000D03*
X128028000Y-118491000D03*
D15*
X135128000Y-122999000D03*
X135128000Y-120079000D03*
D16*
X134632000Y-118491000D03*
X136132000Y-118491000D03*
D17*
X133160000Y-116459000D03*
X136080000Y-116459000D03*
D18*
X131318000Y-119519000D03*
X131318000Y-121019000D03*
D17*
X131000000Y-116459000D03*
X128080000Y-116459000D03*
D18*
X132842000Y-119519000D03*
X132842000Y-121019000D03*
D16*
X144006000Y-127000000D03*
X142506000Y-127000000D03*
D18*
X146050000Y-127369000D03*
X146050000Y-125869000D03*
X147574000Y-127369000D03*
X147574000Y-125869000D03*
D16*
X143498000Y-128524000D03*
X141998000Y-128524000D03*
X143498000Y-130048000D03*
X141998000Y-130048000D03*
D18*
X147320000Y-119876000D03*
X147320000Y-118376000D03*
X145796000Y-119876000D03*
X145796000Y-118376000D03*
D16*
X143498000Y-122555000D03*
X141998000Y-122555000D03*
D18*
X121285000Y-128639000D03*
X121285000Y-127139000D03*
X121031000Y-131687000D03*
X121031000Y-130187000D03*
X119761000Y-131687000D03*
X119761000Y-130187000D03*
X122555000Y-128893000D03*
X122555000Y-127393000D03*
X123825000Y-128893000D03*
X123825000Y-127393000D03*
X121285000Y-120257000D03*
X121285000Y-118757000D03*
X120904000Y-123305000D03*
X120904000Y-121805000D03*
X119634000Y-123305000D03*
X119634000Y-121805000D03*
X122555000Y-120511000D03*
X122555000Y-119011000D03*
X123825000Y-120511000D03*
X123825000Y-119011000D03*
X108204000Y-116828000D03*
X108204000Y-115328000D03*
D16*
X118122000Y-140208000D03*
X119622000Y-140208000D03*
D10*
G36*
X128136000Y-125865000D02*
X129036000Y-125265000D01*
X129036000Y-127465000D01*
X128136000Y-126865000D01*
X128136000Y-125865000D01*
X128136000Y-125865000D01*
G37*
G36*
X130436000Y-126865000D02*
X129536000Y-127465000D01*
X129536000Y-125265000D01*
X130436000Y-125865000D01*
X130436000Y-126865000D01*
X130436000Y-126865000D01*
G37*
G36*
X133358000Y-129674000D02*
X132758000Y-128774000D01*
X134958000Y-128774000D01*
X134358000Y-129674000D01*
X133358000Y-129674000D01*
X133358000Y-129674000D01*
G37*
G36*
X134358000Y-127374000D02*
X134958000Y-128274000D01*
X132758000Y-128274000D01*
X133358000Y-127374000D01*
X134358000Y-127374000D01*
X134358000Y-127374000D01*
G37*
D19*
X103886000Y-140208000D03*
D20*
X106426000Y-140208000D03*
X103886000Y-142748000D03*
X106426000Y-142748000D03*
X103886000Y-145288000D03*
X106426000Y-145288000D03*
X103886000Y-147828000D03*
X106426000Y-147828000D03*
D21*
X121742000Y-133416000D03*
X143942000Y-109916000D03*
X143942000Y-133416000D03*
X121742000Y-109916000D03*
D22*
X106172000Y-135128000D03*
X106172000Y-112776000D03*
X106172000Y-118364000D03*
X106172000Y-129540000D03*
X106172000Y-123952000D03*
D23*
X132080000Y-104648000D03*
X134780000Y-101948000D03*
X129380000Y-101948000D03*
X129380000Y-107348000D03*
X134780000Y-107348000D03*
X144272000Y-104648000D03*
X146972000Y-101948000D03*
X141572000Y-101948000D03*
X141572000Y-107348000D03*
X146972000Y-107348000D03*
D24*
X134644000Y-113538000D03*
X137644000Y-113538000D03*
X129008000Y-113030000D03*
X126008000Y-113030000D03*
X109958000Y-123952000D03*
X106958000Y-123952000D03*
X109958000Y-129540000D03*
X106958000Y-129540000D03*
X109958000Y-118618000D03*
X106958000Y-118618000D03*
X109958000Y-112522000D03*
X106958000Y-112522000D03*
X109958000Y-135128000D03*
X106958000Y-135128000D03*
D25*
X145288000Y-147828000D03*
D26*
X147828000Y-147828000D03*
D25*
X145288000Y-145288000D03*
D26*
X147828000Y-145288000D03*
D23*
X105156000Y-104648000D03*
X107856000Y-101948000D03*
X102456000Y-101948000D03*
X102456000Y-107348000D03*
X107856000Y-107348000D03*
X117348000Y-104648000D03*
X120048000Y-101948000D03*
X114648000Y-101948000D03*
X114648000Y-107348000D03*
X120048000Y-107348000D03*
D14*
X132842000Y-113980000D03*
X132842000Y-112080000D03*
X130810000Y-113980000D03*
X130810000Y-112080000D03*
D16*
X143498000Y-121158000D03*
X141998000Y-121158000D03*
D27*
X146304000Y-128802000D03*
X146304000Y-131802000D03*
D16*
X144006000Y-119634000D03*
X142506000Y-119634000D03*
D27*
X146558000Y-113816000D03*
X146558000Y-116816000D03*
X146558000Y-121436000D03*
X146558000Y-124436000D03*
X119253000Y-125754000D03*
X119253000Y-128754000D03*
X123063000Y-122960000D03*
X123063000Y-125960000D03*
X119253000Y-116610000D03*
X119253000Y-119610000D03*
X122555000Y-114578000D03*
X122555000Y-117578000D03*
M02*
