G04 #@! TF.FileFunction,Legend,Top*
%FSLAX46Y46*%
G04 Gerber Fmt 4.6, Leading zero omitted, Abs format (unit mm)*
G04 Created by KiCad (PCBNEW 4.0.2-4+6225~38~ubuntu14.04.1-stable) date Wed 23 Mar 2016 10:18:06 GMT*
%MOMM*%
G01*
G04 APERTURE LIST*
%ADD10C,0.100000*%
%ADD11C,0.110000*%
%ADD12C,0.150000*%
%ADD13C,0.300000*%
%ADD14C,0.125000*%
%ADD15C,0.381000*%
%ADD16C,0.152400*%
%ADD17C,1.000000*%
G04 APERTURE END LIST*
D10*
D11*
X148023000Y-141859000D02*
G75*
G03X148023000Y-141859000I-68000J0D01*
G01*
X110177000Y-133604000D02*
G75*
G03X110177000Y-133604000I-68000J0D01*
G01*
X147896000Y-130556000D02*
G75*
G03X147896000Y-130556000I-68000J0D01*
G01*
X104589000Y-133604000D02*
G75*
G03X104589000Y-133604000I-68000J0D01*
G01*
X109669000Y-147066000D02*
G75*
G03X109669000Y-147066000I-68000J0D01*
G01*
X106680000Y-156718000D02*
X103886000Y-156718000D01*
X131318000Y-131826000D02*
X132588000Y-132500000D01*
X101920667Y-150418667D02*
X102154000Y-151118667D01*
X102387333Y-150418667D01*
X102620667Y-151118667D02*
X102620667Y-150652000D01*
X102620667Y-150785333D02*
X102654000Y-150718667D01*
X102687333Y-150685333D01*
X102754000Y-150652000D01*
X102820667Y-150652000D01*
X103320666Y-151085333D02*
X103254000Y-151118667D01*
X103120666Y-151118667D01*
X103054000Y-151085333D01*
X103020666Y-151018667D01*
X103020666Y-150752000D01*
X103054000Y-150685333D01*
X103120666Y-150652000D01*
X103254000Y-150652000D01*
X103320666Y-150685333D01*
X103354000Y-150752000D01*
X103354000Y-150818667D01*
X103020666Y-150885333D01*
X103554000Y-150652000D02*
X103820666Y-150652000D01*
X103654000Y-151118667D02*
X103654000Y-150518667D01*
X103687333Y-150452000D01*
X103754000Y-150418667D01*
X103820666Y-150418667D01*
X102020667Y-152208667D02*
X102020667Y-151508667D01*
X102287333Y-151508667D01*
X102354000Y-151542000D01*
X102387333Y-151575333D01*
X102420667Y-151642000D01*
X102420667Y-151742000D01*
X102387333Y-151808667D01*
X102354000Y-151842000D01*
X102287333Y-151875333D01*
X102020667Y-151875333D01*
X102820667Y-152208667D02*
X102754000Y-152175333D01*
X102720667Y-152142000D01*
X102687333Y-152075333D01*
X102687333Y-151875333D01*
X102720667Y-151808667D01*
X102754000Y-151775333D01*
X102820667Y-151742000D01*
X102920667Y-151742000D01*
X102987333Y-151775333D01*
X103020667Y-151808667D01*
X103054000Y-151875333D01*
X103054000Y-152075333D01*
X103020667Y-152142000D01*
X102987333Y-152175333D01*
X102920667Y-152208667D01*
X102820667Y-152208667D01*
X103287333Y-151742000D02*
X103420666Y-152208667D01*
X103554000Y-151875333D01*
X103687333Y-152208667D01*
X103820666Y-151742000D01*
X104353999Y-152175333D02*
X104287333Y-152208667D01*
X104153999Y-152208667D01*
X104087333Y-152175333D01*
X104053999Y-152108667D01*
X104053999Y-151842000D01*
X104087333Y-151775333D01*
X104153999Y-151742000D01*
X104287333Y-151742000D01*
X104353999Y-151775333D01*
X104387333Y-151842000D01*
X104387333Y-151908667D01*
X104053999Y-151975333D01*
X104687333Y-152208667D02*
X104687333Y-151742000D01*
X104687333Y-151875333D02*
X104720666Y-151808667D01*
X104753999Y-151775333D01*
X104820666Y-151742000D01*
X104887333Y-151742000D01*
X101987333Y-153265333D02*
X102087333Y-153298667D01*
X102254000Y-153298667D01*
X102320667Y-153265333D01*
X102354000Y-153232000D01*
X102387333Y-153165333D01*
X102387333Y-153098667D01*
X102354000Y-153032000D01*
X102320667Y-152998667D01*
X102254000Y-152965333D01*
X102120667Y-152932000D01*
X102054000Y-152898667D01*
X102020667Y-152865333D01*
X101987333Y-152798667D01*
X101987333Y-152732000D01*
X102020667Y-152665333D01*
X102054000Y-152632000D01*
X102120667Y-152598667D01*
X102287333Y-152598667D01*
X102387333Y-152632000D01*
X102987334Y-152832000D02*
X102987334Y-153298667D01*
X102687334Y-152832000D02*
X102687334Y-153198667D01*
X102720667Y-153265333D01*
X102787334Y-153298667D01*
X102887334Y-153298667D01*
X102954000Y-153265333D01*
X102987334Y-153232000D01*
X103320667Y-152832000D02*
X103320667Y-153532000D01*
X103320667Y-152865333D02*
X103387333Y-152832000D01*
X103520667Y-152832000D01*
X103587333Y-152865333D01*
X103620667Y-152898667D01*
X103654000Y-152965333D01*
X103654000Y-153165333D01*
X103620667Y-153232000D01*
X103587333Y-153265333D01*
X103520667Y-153298667D01*
X103387333Y-153298667D01*
X103320667Y-153265333D01*
X103954000Y-152832000D02*
X103954000Y-153532000D01*
X103954000Y-152865333D02*
X104020666Y-152832000D01*
X104154000Y-152832000D01*
X104220666Y-152865333D01*
X104254000Y-152898667D01*
X104287333Y-152965333D01*
X104287333Y-153165333D01*
X104254000Y-153232000D01*
X104220666Y-153265333D01*
X104154000Y-153298667D01*
X104020666Y-153298667D01*
X103954000Y-153265333D01*
X104687333Y-153298667D02*
X104620666Y-153265333D01*
X104587333Y-153198667D01*
X104587333Y-152598667D01*
X104887333Y-152832000D02*
X105054000Y-153298667D01*
X105220666Y-152832000D02*
X105054000Y-153298667D01*
X104987333Y-153465333D01*
X104954000Y-153498667D01*
X104887333Y-153532000D01*
X105664000Y-155448000D02*
X100584000Y-155448000D01*
X106172000Y-155956000D02*
X105664000Y-155448000D01*
X107950000Y-155956000D02*
X106172000Y-155956000D01*
X115570000Y-155956000D02*
X111760000Y-155956000D01*
X141394667Y-135343999D02*
X141394667Y-134810666D01*
X141661333Y-135077333D02*
X141128000Y-135077333D01*
X141794667Y-134810666D02*
X141794667Y-135343999D01*
X141794667Y-134110666D02*
X141794667Y-134510666D01*
X141794667Y-134310666D02*
X141094667Y-134310666D01*
X141194667Y-134377332D01*
X141261333Y-134443999D01*
X141294667Y-134510666D01*
X141094667Y-133877332D02*
X141094667Y-133410665D01*
X141794667Y-133710665D01*
X141728000Y-133143998D02*
X141761333Y-133110665D01*
X141794667Y-133143998D01*
X141761333Y-133177332D01*
X141728000Y-133143998D01*
X141794667Y-133143998D01*
X141094667Y-132477332D02*
X141094667Y-132810665D01*
X141428000Y-132843999D01*
X141394667Y-132810665D01*
X141361333Y-132743999D01*
X141361333Y-132577332D01*
X141394667Y-132510665D01*
X141428000Y-132477332D01*
X141494667Y-132443999D01*
X141661333Y-132443999D01*
X141728000Y-132477332D01*
X141761333Y-132510665D01*
X141794667Y-132577332D01*
X141794667Y-132743999D01*
X141761333Y-132810665D01*
X141728000Y-132843999D01*
X141094667Y-132243998D02*
X141794667Y-132010665D01*
X141094667Y-131777332D01*
X141794667Y-131010665D02*
X141094667Y-131010665D01*
X141094667Y-130743999D01*
X141128000Y-130677332D01*
X141161333Y-130643999D01*
X141228000Y-130610665D01*
X141328000Y-130610665D01*
X141394667Y-130643999D01*
X141428000Y-130677332D01*
X141461333Y-130743999D01*
X141461333Y-131010665D01*
X141794667Y-130210665D02*
X141761333Y-130277332D01*
X141728000Y-130310665D01*
X141661333Y-130343999D01*
X141461333Y-130343999D01*
X141394667Y-130310665D01*
X141361333Y-130277332D01*
X141328000Y-130210665D01*
X141328000Y-130110665D01*
X141361333Y-130043999D01*
X141394667Y-130010665D01*
X141461333Y-129977332D01*
X141661333Y-129977332D01*
X141728000Y-130010665D01*
X141761333Y-130043999D01*
X141794667Y-130110665D01*
X141794667Y-130210665D01*
X141328000Y-129743999D02*
X141794667Y-129610666D01*
X141461333Y-129477332D01*
X141794667Y-129343999D01*
X141328000Y-129210666D01*
X141761333Y-128677333D02*
X141794667Y-128743999D01*
X141794667Y-128877333D01*
X141761333Y-128943999D01*
X141694667Y-128977333D01*
X141428000Y-128977333D01*
X141361333Y-128943999D01*
X141328000Y-128877333D01*
X141328000Y-128743999D01*
X141361333Y-128677333D01*
X141428000Y-128643999D01*
X141494667Y-128643999D01*
X141561333Y-128977333D01*
X141794667Y-128343999D02*
X141328000Y-128343999D01*
X141461333Y-128343999D02*
X141394667Y-128310666D01*
X141361333Y-128277333D01*
X141328000Y-128210666D01*
X141328000Y-128143999D01*
X141761333Y-127410667D02*
X141794667Y-127310667D01*
X141794667Y-127144000D01*
X141761333Y-127077333D01*
X141728000Y-127044000D01*
X141661333Y-127010667D01*
X141594667Y-127010667D01*
X141528000Y-127044000D01*
X141494667Y-127077333D01*
X141461333Y-127144000D01*
X141428000Y-127277333D01*
X141394667Y-127344000D01*
X141361333Y-127377333D01*
X141294667Y-127410667D01*
X141228000Y-127410667D01*
X141161333Y-127377333D01*
X141128000Y-127344000D01*
X141094667Y-127277333D01*
X141094667Y-127110667D01*
X141128000Y-127010667D01*
X141328000Y-126410666D02*
X141794667Y-126410666D01*
X141328000Y-126710666D02*
X141694667Y-126710666D01*
X141761333Y-126677333D01*
X141794667Y-126610666D01*
X141794667Y-126510666D01*
X141761333Y-126444000D01*
X141728000Y-126410666D01*
X141328000Y-126077333D02*
X142028000Y-126077333D01*
X141361333Y-126077333D02*
X141328000Y-126010667D01*
X141328000Y-125877333D01*
X141361333Y-125810667D01*
X141394667Y-125777333D01*
X141461333Y-125744000D01*
X141661333Y-125744000D01*
X141728000Y-125777333D01*
X141761333Y-125810667D01*
X141794667Y-125877333D01*
X141794667Y-126010667D01*
X141761333Y-126077333D01*
X141328000Y-125444000D02*
X142028000Y-125444000D01*
X141361333Y-125444000D02*
X141328000Y-125377334D01*
X141328000Y-125244000D01*
X141361333Y-125177334D01*
X141394667Y-125144000D01*
X141461333Y-125110667D01*
X141661333Y-125110667D01*
X141728000Y-125144000D01*
X141761333Y-125177334D01*
X141794667Y-125244000D01*
X141794667Y-125377334D01*
X141761333Y-125444000D01*
X141794667Y-124710667D02*
X141761333Y-124777334D01*
X141694667Y-124810667D01*
X141094667Y-124810667D01*
X141328000Y-124510667D02*
X141794667Y-124344000D01*
X141328000Y-124177334D02*
X141794667Y-124344000D01*
X141961333Y-124410667D01*
X141994667Y-124444000D01*
X142028000Y-124510667D01*
X145288000Y-143510000D02*
X140716000Y-143510000D01*
X149352000Y-143510000D02*
X147828000Y-143510000D01*
X138430000Y-121666000D02*
X145796000Y-121666000D01*
X132777335Y-110261667D02*
X132777335Y-109561667D01*
X132777335Y-109895000D02*
X133177335Y-109895000D01*
X133177335Y-110261667D02*
X133177335Y-109561667D01*
X133510668Y-110261667D02*
X133510668Y-109795000D01*
X133510668Y-109561667D02*
X133477334Y-109595000D01*
X133510668Y-109628333D01*
X133544001Y-109595000D01*
X133510668Y-109561667D01*
X133510668Y-109628333D01*
X134144001Y-109795000D02*
X134144001Y-110361667D01*
X134110667Y-110428333D01*
X134077334Y-110461667D01*
X134010667Y-110495000D01*
X133910667Y-110495000D01*
X133844001Y-110461667D01*
X134144001Y-110228333D02*
X134077334Y-110261667D01*
X133944001Y-110261667D01*
X133877334Y-110228333D01*
X133844001Y-110195000D01*
X133810667Y-110128333D01*
X133810667Y-109928333D01*
X133844001Y-109861667D01*
X133877334Y-109828333D01*
X133944001Y-109795000D01*
X134077334Y-109795000D01*
X134144001Y-109828333D01*
X134477334Y-110261667D02*
X134477334Y-109561667D01*
X134777334Y-110261667D02*
X134777334Y-109895000D01*
X134744000Y-109828333D01*
X134677334Y-109795000D01*
X134577334Y-109795000D01*
X134510667Y-109828333D01*
X134477334Y-109861667D01*
X135110667Y-109995000D02*
X135644000Y-109995000D01*
X135877334Y-109561667D02*
X136110667Y-110261667D01*
X136344000Y-109561667D01*
X136677334Y-110261667D02*
X136610667Y-110228333D01*
X136577334Y-110195000D01*
X136544000Y-110128333D01*
X136544000Y-109928333D01*
X136577334Y-109861667D01*
X136610667Y-109828333D01*
X136677334Y-109795000D01*
X136777334Y-109795000D01*
X136844000Y-109828333D01*
X136877334Y-109861667D01*
X136910667Y-109928333D01*
X136910667Y-110128333D01*
X136877334Y-110195000D01*
X136844000Y-110228333D01*
X136777334Y-110261667D01*
X136677334Y-110261667D01*
X137310667Y-110261667D02*
X137244000Y-110228333D01*
X137210667Y-110161667D01*
X137210667Y-109561667D01*
X137477334Y-109795000D02*
X137744000Y-109795000D01*
X137577334Y-109561667D02*
X137577334Y-110161667D01*
X137610667Y-110228333D01*
X137677334Y-110261667D01*
X137744000Y-110261667D01*
X138277334Y-110261667D02*
X138277334Y-109895000D01*
X138244000Y-109828333D01*
X138177334Y-109795000D01*
X138044000Y-109795000D01*
X137977334Y-109828333D01*
X138277334Y-110228333D02*
X138210667Y-110261667D01*
X138044000Y-110261667D01*
X137977334Y-110228333D01*
X137944000Y-110161667D01*
X137944000Y-110095000D01*
X137977334Y-110028333D01*
X138044000Y-109995000D01*
X138210667Y-109995000D01*
X138277334Y-109961667D01*
X138910667Y-109795000D02*
X138910667Y-110361667D01*
X138877333Y-110428333D01*
X138844000Y-110461667D01*
X138777333Y-110495000D01*
X138677333Y-110495000D01*
X138610667Y-110461667D01*
X138910667Y-110228333D02*
X138844000Y-110261667D01*
X138710667Y-110261667D01*
X138644000Y-110228333D01*
X138610667Y-110195000D01*
X138577333Y-110128333D01*
X138577333Y-109928333D01*
X138610667Y-109861667D01*
X138644000Y-109828333D01*
X138710667Y-109795000D01*
X138844000Y-109795000D01*
X138910667Y-109828333D01*
X139510666Y-110228333D02*
X139444000Y-110261667D01*
X139310666Y-110261667D01*
X139244000Y-110228333D01*
X139210666Y-110161667D01*
X139210666Y-109895000D01*
X139244000Y-109828333D01*
X139310666Y-109795000D01*
X139444000Y-109795000D01*
X139510666Y-109828333D01*
X139544000Y-109895000D01*
X139544000Y-109961667D01*
X139210666Y-110028333D01*
X133960667Y-111151667D02*
X134294001Y-111151667D01*
X133894001Y-111351667D02*
X134127334Y-110651667D01*
X134360667Y-111351667D01*
X134594001Y-111351667D02*
X134594001Y-110885000D01*
X134594001Y-110951667D02*
X134627334Y-110918333D01*
X134694001Y-110885000D01*
X134794001Y-110885000D01*
X134860667Y-110918333D01*
X134894001Y-110985000D01*
X134894001Y-111351667D01*
X134894001Y-110985000D02*
X134927334Y-110918333D01*
X134994001Y-110885000D01*
X135094001Y-110885000D01*
X135160667Y-110918333D01*
X135194001Y-110985000D01*
X135194001Y-111351667D01*
X135527334Y-110885000D02*
X135527334Y-111585000D01*
X135527334Y-110918333D02*
X135594000Y-110885000D01*
X135727334Y-110885000D01*
X135794000Y-110918333D01*
X135827334Y-110951667D01*
X135860667Y-111018333D01*
X135860667Y-111218333D01*
X135827334Y-111285000D01*
X135794000Y-111318333D01*
X135727334Y-111351667D01*
X135594000Y-111351667D01*
X135527334Y-111318333D01*
X136260667Y-111351667D02*
X136194000Y-111318333D01*
X136160667Y-111251667D01*
X136160667Y-110651667D01*
X136527334Y-111351667D02*
X136527334Y-110885000D01*
X136527334Y-110651667D02*
X136494000Y-110685000D01*
X136527334Y-110718333D01*
X136560667Y-110685000D01*
X136527334Y-110651667D01*
X136527334Y-110718333D01*
X136760667Y-110885000D02*
X137027333Y-110885000D01*
X136860667Y-111351667D02*
X136860667Y-110751667D01*
X136894000Y-110685000D01*
X136960667Y-110651667D01*
X137027333Y-110651667D01*
X137260667Y-111351667D02*
X137260667Y-110885000D01*
X137260667Y-110651667D02*
X137227333Y-110685000D01*
X137260667Y-110718333D01*
X137294000Y-110685000D01*
X137260667Y-110651667D01*
X137260667Y-110718333D01*
X137860666Y-111318333D02*
X137794000Y-111351667D01*
X137660666Y-111351667D01*
X137594000Y-111318333D01*
X137560666Y-111251667D01*
X137560666Y-110985000D01*
X137594000Y-110918333D01*
X137660666Y-110885000D01*
X137794000Y-110885000D01*
X137860666Y-110918333D01*
X137894000Y-110985000D01*
X137894000Y-111051667D01*
X137560666Y-111118333D01*
X138194000Y-111351667D02*
X138194000Y-110885000D01*
X138194000Y-111018333D02*
X138227333Y-110951667D01*
X138260666Y-110918333D01*
X138327333Y-110885000D01*
X138394000Y-110885000D01*
X101000669Y-122236667D02*
X101000669Y-121536667D01*
X101000669Y-121870000D02*
X101400669Y-121870000D01*
X101400669Y-122236667D02*
X101400669Y-121536667D01*
X101734002Y-122236667D02*
X101734002Y-121770000D01*
X101734002Y-121536667D02*
X101700668Y-121570000D01*
X101734002Y-121603333D01*
X101767335Y-121570000D01*
X101734002Y-121536667D01*
X101734002Y-121603333D01*
X102367335Y-121770000D02*
X102367335Y-122336667D01*
X102334001Y-122403333D01*
X102300668Y-122436667D01*
X102234001Y-122470000D01*
X102134001Y-122470000D01*
X102067335Y-122436667D01*
X102367335Y-122203333D02*
X102300668Y-122236667D01*
X102167335Y-122236667D01*
X102100668Y-122203333D01*
X102067335Y-122170000D01*
X102034001Y-122103333D01*
X102034001Y-121903333D01*
X102067335Y-121836667D01*
X102100668Y-121803333D01*
X102167335Y-121770000D01*
X102300668Y-121770000D01*
X102367335Y-121803333D01*
X102700668Y-122236667D02*
X102700668Y-121536667D01*
X103000668Y-122236667D02*
X103000668Y-121870000D01*
X102967334Y-121803333D01*
X102900668Y-121770000D01*
X102800668Y-121770000D01*
X102734001Y-121803333D01*
X102700668Y-121836667D01*
X103334001Y-121970000D02*
X103867334Y-121970000D01*
X104600668Y-122170000D02*
X104567334Y-122203333D01*
X104467334Y-122236667D01*
X104400668Y-122236667D01*
X104300668Y-122203333D01*
X104234001Y-122136667D01*
X104200668Y-122070000D01*
X104167334Y-121936667D01*
X104167334Y-121836667D01*
X104200668Y-121703333D01*
X104234001Y-121636667D01*
X104300668Y-121570000D01*
X104400668Y-121536667D01*
X104467334Y-121536667D01*
X104567334Y-121570000D01*
X104600668Y-121603333D01*
X105200668Y-121770000D02*
X105200668Y-122236667D01*
X104900668Y-121770000D02*
X104900668Y-122136667D01*
X104934001Y-122203333D01*
X105000668Y-122236667D01*
X105100668Y-122236667D01*
X105167334Y-122203333D01*
X105200668Y-122170000D01*
X105534001Y-122236667D02*
X105534001Y-121770000D01*
X105534001Y-121903333D02*
X105567334Y-121836667D01*
X105600667Y-121803333D01*
X105667334Y-121770000D01*
X105734001Y-121770000D01*
X105967334Y-122236667D02*
X105967334Y-121770000D01*
X105967334Y-121903333D02*
X106000667Y-121836667D01*
X106034000Y-121803333D01*
X106100667Y-121770000D01*
X106167334Y-121770000D01*
X106667333Y-122203333D02*
X106600667Y-122236667D01*
X106467333Y-122236667D01*
X106400667Y-122203333D01*
X106367333Y-122136667D01*
X106367333Y-121870000D01*
X106400667Y-121803333D01*
X106467333Y-121770000D01*
X106600667Y-121770000D01*
X106667333Y-121803333D01*
X106700667Y-121870000D01*
X106700667Y-121936667D01*
X106367333Y-122003333D01*
X107000667Y-121770000D02*
X107000667Y-122236667D01*
X107000667Y-121836667D02*
X107034000Y-121803333D01*
X107100667Y-121770000D01*
X107200667Y-121770000D01*
X107267333Y-121803333D01*
X107300667Y-121870000D01*
X107300667Y-122236667D01*
X107534000Y-121770000D02*
X107800666Y-121770000D01*
X107634000Y-121536667D02*
X107634000Y-122136667D01*
X107667333Y-122203333D01*
X107734000Y-122236667D01*
X107800666Y-122236667D01*
X108533999Y-122036667D02*
X108867333Y-122036667D01*
X108467333Y-122236667D02*
X108700666Y-121536667D01*
X108933999Y-122236667D01*
X109167333Y-122236667D02*
X109167333Y-121770000D01*
X109167333Y-121836667D02*
X109200666Y-121803333D01*
X109267333Y-121770000D01*
X109367333Y-121770000D01*
X109433999Y-121803333D01*
X109467333Y-121870000D01*
X109467333Y-122236667D01*
X109467333Y-121870000D02*
X109500666Y-121803333D01*
X109567333Y-121770000D01*
X109667333Y-121770000D01*
X109733999Y-121803333D01*
X109767333Y-121870000D01*
X109767333Y-122236667D01*
X110100666Y-121770000D02*
X110100666Y-122470000D01*
X110100666Y-121803333D02*
X110167332Y-121770000D01*
X110300666Y-121770000D01*
X110367332Y-121803333D01*
X110400666Y-121836667D01*
X110433999Y-121903333D01*
X110433999Y-122103333D01*
X110400666Y-122170000D01*
X110367332Y-122203333D01*
X110300666Y-122236667D01*
X110167332Y-122236667D01*
X110100666Y-122203333D01*
X110833999Y-122236667D02*
X110767332Y-122203333D01*
X110733999Y-122136667D01*
X110733999Y-121536667D01*
X111100666Y-122236667D02*
X111100666Y-121770000D01*
X111100666Y-121536667D02*
X111067332Y-121570000D01*
X111100666Y-121603333D01*
X111133999Y-121570000D01*
X111100666Y-121536667D01*
X111100666Y-121603333D01*
X111333999Y-121770000D02*
X111600665Y-121770000D01*
X111433999Y-122236667D02*
X111433999Y-121636667D01*
X111467332Y-121570000D01*
X111533999Y-121536667D01*
X111600665Y-121536667D01*
X111833999Y-122236667D02*
X111833999Y-121770000D01*
X111833999Y-121536667D02*
X111800665Y-121570000D01*
X111833999Y-121603333D01*
X111867332Y-121570000D01*
X111833999Y-121536667D01*
X111833999Y-121603333D01*
X112433998Y-122203333D02*
X112367332Y-122236667D01*
X112233998Y-122236667D01*
X112167332Y-122203333D01*
X112133998Y-122136667D01*
X112133998Y-121870000D01*
X112167332Y-121803333D01*
X112233998Y-121770000D01*
X112367332Y-121770000D01*
X112433998Y-121803333D01*
X112467332Y-121870000D01*
X112467332Y-121936667D01*
X112133998Y-122003333D01*
X112767332Y-122236667D02*
X112767332Y-121770000D01*
X112767332Y-121903333D02*
X112800665Y-121836667D01*
X112833998Y-121803333D01*
X112900665Y-121770000D01*
X112967332Y-121770000D01*
X101963335Y-136314667D02*
X102496668Y-136314667D01*
X102230001Y-136581333D02*
X102230001Y-136048000D01*
X102496668Y-136714667D02*
X101963335Y-136714667D01*
X103130002Y-136014667D02*
X102996668Y-136014667D01*
X102930002Y-136048000D01*
X102896668Y-136081333D01*
X102830002Y-136181333D01*
X102796668Y-136314667D01*
X102796668Y-136581333D01*
X102830002Y-136648000D01*
X102863335Y-136681333D01*
X102930002Y-136714667D01*
X103063335Y-136714667D01*
X103130002Y-136681333D01*
X103163335Y-136648000D01*
X103196668Y-136581333D01*
X103196668Y-136414667D01*
X103163335Y-136348000D01*
X103130002Y-136314667D01*
X103063335Y-136281333D01*
X102930002Y-136281333D01*
X102863335Y-136314667D01*
X102830002Y-136348000D01*
X102796668Y-136414667D01*
X103396669Y-136014667D02*
X103630002Y-136714667D01*
X103863335Y-136014667D01*
X104630002Y-136714667D02*
X104630002Y-136014667D01*
X104896668Y-136014667D01*
X104963335Y-136048000D01*
X104996668Y-136081333D01*
X105030002Y-136148000D01*
X105030002Y-136248000D01*
X104996668Y-136314667D01*
X104963335Y-136348000D01*
X104896668Y-136381333D01*
X104630002Y-136381333D01*
X105430002Y-136714667D02*
X105363335Y-136681333D01*
X105330002Y-136648000D01*
X105296668Y-136581333D01*
X105296668Y-136381333D01*
X105330002Y-136314667D01*
X105363335Y-136281333D01*
X105430002Y-136248000D01*
X105530002Y-136248000D01*
X105596668Y-136281333D01*
X105630002Y-136314667D01*
X105663335Y-136381333D01*
X105663335Y-136581333D01*
X105630002Y-136648000D01*
X105596668Y-136681333D01*
X105530002Y-136714667D01*
X105430002Y-136714667D01*
X105896668Y-136248000D02*
X106030001Y-136714667D01*
X106163335Y-136381333D01*
X106296668Y-136714667D01*
X106430001Y-136248000D01*
X106963334Y-136681333D02*
X106896668Y-136714667D01*
X106763334Y-136714667D01*
X106696668Y-136681333D01*
X106663334Y-136614667D01*
X106663334Y-136348000D01*
X106696668Y-136281333D01*
X106763334Y-136248000D01*
X106896668Y-136248000D01*
X106963334Y-136281333D01*
X106996668Y-136348000D01*
X106996668Y-136414667D01*
X106663334Y-136481333D01*
X107296668Y-136714667D02*
X107296668Y-136248000D01*
X107296668Y-136381333D02*
X107330001Y-136314667D01*
X107363334Y-136281333D01*
X107430001Y-136248000D01*
X107496668Y-136248000D01*
X108230000Y-136681333D02*
X108330000Y-136714667D01*
X108496667Y-136714667D01*
X108563334Y-136681333D01*
X108596667Y-136648000D01*
X108630000Y-136581333D01*
X108630000Y-136514667D01*
X108596667Y-136448000D01*
X108563334Y-136414667D01*
X108496667Y-136381333D01*
X108363334Y-136348000D01*
X108296667Y-136314667D01*
X108263334Y-136281333D01*
X108230000Y-136214667D01*
X108230000Y-136148000D01*
X108263334Y-136081333D01*
X108296667Y-136048000D01*
X108363334Y-136014667D01*
X108530000Y-136014667D01*
X108630000Y-136048000D01*
X109230001Y-136248000D02*
X109230001Y-136714667D01*
X108930001Y-136248000D02*
X108930001Y-136614667D01*
X108963334Y-136681333D01*
X109030001Y-136714667D01*
X109130001Y-136714667D01*
X109196667Y-136681333D01*
X109230001Y-136648000D01*
X109563334Y-136248000D02*
X109563334Y-136948000D01*
X109563334Y-136281333D02*
X109630000Y-136248000D01*
X109763334Y-136248000D01*
X109830000Y-136281333D01*
X109863334Y-136314667D01*
X109896667Y-136381333D01*
X109896667Y-136581333D01*
X109863334Y-136648000D01*
X109830000Y-136681333D01*
X109763334Y-136714667D01*
X109630000Y-136714667D01*
X109563334Y-136681333D01*
X110196667Y-136248000D02*
X110196667Y-136948000D01*
X110196667Y-136281333D02*
X110263333Y-136248000D01*
X110396667Y-136248000D01*
X110463333Y-136281333D01*
X110496667Y-136314667D01*
X110530000Y-136381333D01*
X110530000Y-136581333D01*
X110496667Y-136648000D01*
X110463333Y-136681333D01*
X110396667Y-136714667D01*
X110263333Y-136714667D01*
X110196667Y-136681333D01*
X110930000Y-136714667D02*
X110863333Y-136681333D01*
X110830000Y-136614667D01*
X110830000Y-136014667D01*
X111130000Y-136248000D02*
X111296667Y-136714667D01*
X111463333Y-136248000D02*
X111296667Y-136714667D01*
X111230000Y-136881333D01*
X111196667Y-136914667D01*
X111130000Y-136948000D01*
X100838000Y-122682000D02*
X113792000Y-122682000D01*
X108712000Y-142494000D02*
X113284000Y-142494000D01*
X103600002Y-164146667D02*
X103600002Y-163446667D01*
X103866668Y-163446667D01*
X103933335Y-163480000D01*
X103966668Y-163513333D01*
X104000002Y-163580000D01*
X104000002Y-163680000D01*
X103966668Y-163746667D01*
X103933335Y-163780000D01*
X103866668Y-163813333D01*
X103600002Y-163813333D01*
X104400002Y-164146667D02*
X104333335Y-164113333D01*
X104300002Y-164080000D01*
X104266668Y-164013333D01*
X104266668Y-163813333D01*
X104300002Y-163746667D01*
X104333335Y-163713333D01*
X104400002Y-163680000D01*
X104500002Y-163680000D01*
X104566668Y-163713333D01*
X104600002Y-163746667D01*
X104633335Y-163813333D01*
X104633335Y-164013333D01*
X104600002Y-164080000D01*
X104566668Y-164113333D01*
X104500002Y-164146667D01*
X104400002Y-164146667D01*
X104866668Y-163680000D02*
X105000001Y-164146667D01*
X105133335Y-163813333D01*
X105266668Y-164146667D01*
X105400001Y-163680000D01*
X105933334Y-164113333D02*
X105866668Y-164146667D01*
X105733334Y-164146667D01*
X105666668Y-164113333D01*
X105633334Y-164046667D01*
X105633334Y-163780000D01*
X105666668Y-163713333D01*
X105733334Y-163680000D01*
X105866668Y-163680000D01*
X105933334Y-163713333D01*
X105966668Y-163780000D01*
X105966668Y-163846667D01*
X105633334Y-163913333D01*
X106266668Y-164146667D02*
X106266668Y-163680000D01*
X106266668Y-163813333D02*
X106300001Y-163746667D01*
X106333334Y-163713333D01*
X106400001Y-163680000D01*
X106466668Y-163680000D01*
X107200000Y-164113333D02*
X107300000Y-164146667D01*
X107466667Y-164146667D01*
X107533334Y-164113333D01*
X107566667Y-164080000D01*
X107600000Y-164013333D01*
X107600000Y-163946667D01*
X107566667Y-163880000D01*
X107533334Y-163846667D01*
X107466667Y-163813333D01*
X107333334Y-163780000D01*
X107266667Y-163746667D01*
X107233334Y-163713333D01*
X107200000Y-163646667D01*
X107200000Y-163580000D01*
X107233334Y-163513333D01*
X107266667Y-163480000D01*
X107333334Y-163446667D01*
X107500000Y-163446667D01*
X107600000Y-163480000D01*
X108166667Y-164113333D02*
X108100001Y-164146667D01*
X107966667Y-164146667D01*
X107900001Y-164113333D01*
X107866667Y-164046667D01*
X107866667Y-163780000D01*
X107900001Y-163713333D01*
X107966667Y-163680000D01*
X108100001Y-163680000D01*
X108166667Y-163713333D01*
X108200001Y-163780000D01*
X108200001Y-163846667D01*
X107866667Y-163913333D01*
X108800001Y-163680000D02*
X108800001Y-164380000D01*
X108800001Y-164113333D02*
X108733334Y-164146667D01*
X108600001Y-164146667D01*
X108533334Y-164113333D01*
X108500001Y-164080000D01*
X108466667Y-164013333D01*
X108466667Y-163813333D01*
X108500001Y-163746667D01*
X108533334Y-163713333D01*
X108600001Y-163680000D01*
X108733334Y-163680000D01*
X108800001Y-163713333D01*
X109433334Y-163680000D02*
X109433334Y-164146667D01*
X109133334Y-163680000D02*
X109133334Y-164046667D01*
X109166667Y-164113333D01*
X109233334Y-164146667D01*
X109333334Y-164146667D01*
X109400000Y-164113333D01*
X109433334Y-164080000D01*
X110033333Y-164113333D02*
X109966667Y-164146667D01*
X109833333Y-164146667D01*
X109766667Y-164113333D01*
X109733333Y-164046667D01*
X109733333Y-163780000D01*
X109766667Y-163713333D01*
X109833333Y-163680000D01*
X109966667Y-163680000D01*
X110033333Y-163713333D01*
X110066667Y-163780000D01*
X110066667Y-163846667D01*
X109733333Y-163913333D01*
X110366667Y-163680000D02*
X110366667Y-164146667D01*
X110366667Y-163746667D02*
X110400000Y-163713333D01*
X110466667Y-163680000D01*
X110566667Y-163680000D01*
X110633333Y-163713333D01*
X110666667Y-163780000D01*
X110666667Y-164146667D01*
X111300000Y-164113333D02*
X111233333Y-164146667D01*
X111100000Y-164146667D01*
X111033333Y-164113333D01*
X111000000Y-164080000D01*
X110966666Y-164013333D01*
X110966666Y-163813333D01*
X111000000Y-163746667D01*
X111033333Y-163713333D01*
X111100000Y-163680000D01*
X111233333Y-163680000D01*
X111300000Y-163713333D01*
X111866666Y-164113333D02*
X111800000Y-164146667D01*
X111666666Y-164146667D01*
X111600000Y-164113333D01*
X111566666Y-164046667D01*
X111566666Y-163780000D01*
X111600000Y-163713333D01*
X111666666Y-163680000D01*
X111800000Y-163680000D01*
X111866666Y-163713333D01*
X111900000Y-163780000D01*
X111900000Y-163846667D01*
X111566666Y-163913333D01*
X112200000Y-164146667D02*
X112200000Y-163680000D01*
X112200000Y-163813333D02*
X112233333Y-163746667D01*
X112266666Y-163713333D01*
X112333333Y-163680000D01*
X112400000Y-163680000D01*
X115570000Y-154940000D02*
X115570000Y-163068000D01*
X118364000Y-154940000D02*
X115570000Y-154940000D01*
X118364000Y-148844000D02*
X118364000Y-154940000D01*
X132080000Y-148844000D02*
X118364000Y-148844000D01*
X132080000Y-163068000D02*
X132080000Y-148844000D01*
X106934000Y-159004000D02*
X107442000Y-159512000D01*
X106934000Y-156972000D02*
X106934000Y-159004000D01*
X106680000Y-156718000D02*
X106934000Y-156972000D01*
X145796000Y-134112000D02*
X146304000Y-134620000D01*
X143510000Y-134112000D02*
X145796000Y-134112000D01*
X145796000Y-122936000D02*
X146304000Y-123444000D01*
X143764000Y-122936000D02*
X145796000Y-122936000D01*
X104140000Y-112522000D02*
X103632000Y-112014000D01*
X108204000Y-112522000D02*
X104140000Y-112522000D01*
X103886000Y-108966000D02*
X103378000Y-109474000D01*
X105664000Y-108966000D02*
X103886000Y-108966000D01*
D10*
X147485143Y-149635000D02*
X147442286Y-149613571D01*
X147378000Y-149613571D01*
X147313715Y-149635000D01*
X147270857Y-149677857D01*
X147249429Y-149720714D01*
X147228000Y-149806429D01*
X147228000Y-149870714D01*
X147249429Y-149956429D01*
X147270857Y-149999286D01*
X147313715Y-150042143D01*
X147378000Y-150063571D01*
X147420857Y-150063571D01*
X147485143Y-150042143D01*
X147506572Y-150020714D01*
X147506572Y-149870714D01*
X147420857Y-149870714D01*
X147699429Y-150063571D02*
X147699429Y-149613571D01*
X147956572Y-150063571D01*
X147956572Y-149613571D01*
X148170858Y-150063571D02*
X148170858Y-149613571D01*
X148278001Y-149613571D01*
X148342286Y-149635000D01*
X148385144Y-149677857D01*
X148406572Y-149720714D01*
X148428001Y-149806429D01*
X148428001Y-149870714D01*
X148406572Y-149956429D01*
X148385144Y-149999286D01*
X148342286Y-150042143D01*
X148278001Y-150063571D01*
X148170858Y-150063571D01*
X144495144Y-149892143D02*
X144838001Y-149892143D01*
X144666572Y-150063571D02*
X144666572Y-149720714D01*
X145288001Y-150063571D02*
X145030858Y-150063571D01*
X145159430Y-150063571D02*
X145159430Y-149613571D01*
X145116573Y-149677857D01*
X145073715Y-149720714D01*
X145030858Y-149742143D01*
X145459429Y-149656429D02*
X145480858Y-149635000D01*
X145523715Y-149613571D01*
X145630858Y-149613571D01*
X145673715Y-149635000D01*
X145695144Y-149656429D01*
X145716572Y-149699286D01*
X145716572Y-149742143D01*
X145695144Y-149806429D01*
X145438001Y-150063571D01*
X145716572Y-150063571D01*
X145845143Y-149613571D02*
X145995143Y-150063571D01*
X146145143Y-149613571D01*
X108236143Y-148727999D02*
X108236143Y-148385142D01*
X108407571Y-148556571D02*
X108064714Y-148556571D01*
X107957571Y-148213713D02*
X107957571Y-147913713D01*
X108407571Y-148106570D01*
X108364714Y-147742285D02*
X108386143Y-147720857D01*
X108407571Y-147742285D01*
X108386143Y-147763714D01*
X108364714Y-147742285D01*
X108407571Y-147742285D01*
X107957571Y-147313713D02*
X107957571Y-147527999D01*
X108171857Y-147549428D01*
X108150429Y-147527999D01*
X108129000Y-147485142D01*
X108129000Y-147377999D01*
X108150429Y-147335142D01*
X108171857Y-147313713D01*
X108214714Y-147292285D01*
X108321857Y-147292285D01*
X108364714Y-147313713D01*
X108386143Y-147335142D01*
X108407571Y-147377999D01*
X108407571Y-147485142D01*
X108386143Y-147527999D01*
X108364714Y-147549428D01*
X107957571Y-147163714D02*
X108407571Y-147013714D01*
X107957571Y-146863714D01*
X107979000Y-145823714D02*
X107957571Y-145866571D01*
X107957571Y-145930857D01*
X107979000Y-145995142D01*
X108021857Y-146038000D01*
X108064714Y-146059428D01*
X108150429Y-146080857D01*
X108214714Y-146080857D01*
X108300429Y-146059428D01*
X108343286Y-146038000D01*
X108386143Y-145995142D01*
X108407571Y-145930857D01*
X108407571Y-145888000D01*
X108386143Y-145823714D01*
X108364714Y-145802285D01*
X108214714Y-145802285D01*
X108214714Y-145888000D01*
X108407571Y-145609428D02*
X107957571Y-145609428D01*
X108407571Y-145352285D01*
X107957571Y-145352285D01*
X108407571Y-145137999D02*
X107957571Y-145137999D01*
X107957571Y-145030856D01*
X107979000Y-144966571D01*
X108021857Y-144923713D01*
X108064714Y-144902285D01*
X108150429Y-144880856D01*
X108214714Y-144880856D01*
X108300429Y-144902285D01*
X108343286Y-144923713D01*
X108386143Y-144966571D01*
X108407571Y-145030856D01*
X108407571Y-145137999D01*
X108279000Y-144709428D02*
X108279000Y-144495142D01*
X108407571Y-144752285D02*
X107957571Y-144602285D01*
X108407571Y-144452285D01*
X108236143Y-143647999D02*
X108236143Y-143305142D01*
X107957571Y-143133713D02*
X107957571Y-142833713D01*
X108407571Y-143026570D01*
X108364714Y-142662285D02*
X108386143Y-142640857D01*
X108407571Y-142662285D01*
X108386143Y-142683714D01*
X108364714Y-142662285D01*
X108407571Y-142662285D01*
X107957571Y-142233713D02*
X107957571Y-142447999D01*
X108171857Y-142469428D01*
X108150429Y-142447999D01*
X108129000Y-142405142D01*
X108129000Y-142297999D01*
X108150429Y-142255142D01*
X108171857Y-142233713D01*
X108214714Y-142212285D01*
X108321857Y-142212285D01*
X108364714Y-142233713D01*
X108386143Y-142255142D01*
X108407571Y-142297999D01*
X108407571Y-142405142D01*
X108386143Y-142447999D01*
X108364714Y-142469428D01*
X107957571Y-142083714D02*
X108407571Y-141933714D01*
X107957571Y-141783714D01*
X106083143Y-137951000D02*
X106040286Y-137929571D01*
X105976000Y-137929571D01*
X105911715Y-137951000D01*
X105868857Y-137993857D01*
X105847429Y-138036714D01*
X105826000Y-138122429D01*
X105826000Y-138186714D01*
X105847429Y-138272429D01*
X105868857Y-138315286D01*
X105911715Y-138358143D01*
X105976000Y-138379571D01*
X106018857Y-138379571D01*
X106083143Y-138358143D01*
X106104572Y-138336714D01*
X106104572Y-138186714D01*
X106018857Y-138186714D01*
X106297429Y-138379571D02*
X106297429Y-137929571D01*
X106554572Y-138379571D01*
X106554572Y-137929571D01*
X106768858Y-138379571D02*
X106768858Y-137929571D01*
X106876001Y-137929571D01*
X106940286Y-137951000D01*
X106983144Y-137993857D01*
X107004572Y-138036714D01*
X107026001Y-138122429D01*
X107026001Y-138186714D01*
X107004572Y-138272429D01*
X106983144Y-138315286D01*
X106940286Y-138358143D01*
X106876001Y-138379571D01*
X106768858Y-138379571D01*
X102828429Y-138208143D02*
X103171286Y-138208143D01*
X102999857Y-138379571D02*
X102999857Y-138036714D01*
X103599858Y-137929571D02*
X103385572Y-137929571D01*
X103364143Y-138143857D01*
X103385572Y-138122429D01*
X103428429Y-138101000D01*
X103535572Y-138101000D01*
X103578429Y-138122429D01*
X103599858Y-138143857D01*
X103621286Y-138186714D01*
X103621286Y-138293857D01*
X103599858Y-138336714D01*
X103578429Y-138358143D01*
X103535572Y-138379571D01*
X103428429Y-138379571D01*
X103385572Y-138358143D01*
X103364143Y-138336714D01*
X103749857Y-137929571D02*
X103899857Y-138379571D01*
X104049857Y-137929571D01*
X104199857Y-138379571D02*
X104199857Y-137929571D01*
X104307000Y-137929571D01*
X104371285Y-137951000D01*
X104414143Y-137993857D01*
X104435571Y-138036714D01*
X104457000Y-138122429D01*
X104457000Y-138186714D01*
X104435571Y-138272429D01*
X104414143Y-138315286D01*
X104371285Y-138358143D01*
X104307000Y-138379571D01*
X104199857Y-138379571D01*
X102140143Y-143540856D02*
X102140143Y-143197999D01*
X102311571Y-142747999D02*
X102311571Y-143005142D01*
X102311571Y-142876570D02*
X101861571Y-142876570D01*
X101925857Y-142919427D01*
X101968714Y-142962285D01*
X101990143Y-143005142D01*
X102311571Y-142533714D02*
X102311571Y-142447999D01*
X102290143Y-142405142D01*
X102268714Y-142383714D01*
X102204429Y-142340856D01*
X102118714Y-142319428D01*
X101947286Y-142319428D01*
X101904429Y-142340856D01*
X101883000Y-142362285D01*
X101861571Y-142405142D01*
X101861571Y-142490856D01*
X101883000Y-142533714D01*
X101904429Y-142555142D01*
X101947286Y-142576571D01*
X102054429Y-142576571D01*
X102097286Y-142555142D01*
X102118714Y-142533714D01*
X102140143Y-142490856D01*
X102140143Y-142405142D01*
X102118714Y-142362285D01*
X102097286Y-142340856D01*
X102054429Y-142319428D01*
X101861571Y-142190857D02*
X102311571Y-142040857D01*
X101861571Y-141890857D01*
X101883000Y-145823714D02*
X101861571Y-145866571D01*
X101861571Y-145930857D01*
X101883000Y-145995142D01*
X101925857Y-146038000D01*
X101968714Y-146059428D01*
X102054429Y-146080857D01*
X102118714Y-146080857D01*
X102204429Y-146059428D01*
X102247286Y-146038000D01*
X102290143Y-145995142D01*
X102311571Y-145930857D01*
X102311571Y-145888000D01*
X102290143Y-145823714D01*
X102268714Y-145802285D01*
X102118714Y-145802285D01*
X102118714Y-145888000D01*
X102311571Y-145609428D02*
X101861571Y-145609428D01*
X102311571Y-145352285D01*
X101861571Y-145352285D01*
X102311571Y-145137999D02*
X101861571Y-145137999D01*
X101861571Y-145030856D01*
X101883000Y-144966571D01*
X101925857Y-144923713D01*
X101968714Y-144902285D01*
X102054429Y-144880856D01*
X102118714Y-144880856D01*
X102204429Y-144902285D01*
X102247286Y-144923713D01*
X102290143Y-144966571D01*
X102311571Y-145030856D01*
X102311571Y-145137999D01*
X102183000Y-144709428D02*
X102183000Y-144495142D01*
X102311571Y-144752285D02*
X101861571Y-144602285D01*
X102311571Y-144452285D01*
X102140143Y-148620856D02*
X102140143Y-148277999D01*
X102311571Y-148449428D02*
X101968714Y-148449428D01*
X102311571Y-147827999D02*
X102311571Y-148085142D01*
X102311571Y-147956570D02*
X101861571Y-147956570D01*
X101925857Y-147999427D01*
X101968714Y-148042285D01*
X101990143Y-148085142D01*
X102311571Y-147613714D02*
X102311571Y-147527999D01*
X102290143Y-147485142D01*
X102268714Y-147463714D01*
X102204429Y-147420856D01*
X102118714Y-147399428D01*
X101947286Y-147399428D01*
X101904429Y-147420856D01*
X101883000Y-147442285D01*
X101861571Y-147485142D01*
X101861571Y-147570856D01*
X101883000Y-147613714D01*
X101904429Y-147635142D01*
X101947286Y-147656571D01*
X102054429Y-147656571D01*
X102097286Y-147635142D01*
X102118714Y-147613714D01*
X102140143Y-147570856D01*
X102140143Y-147485142D01*
X102118714Y-147442285D01*
X102097286Y-147420856D01*
X102054429Y-147399428D01*
X101861571Y-147270857D02*
X102311571Y-147120857D01*
X101861571Y-146970857D01*
D11*
X101408667Y-148984664D02*
X100708667Y-148984664D01*
X100708667Y-148717998D01*
X100742000Y-148651331D01*
X100775333Y-148617998D01*
X100842000Y-148584664D01*
X100942000Y-148584664D01*
X101008667Y-148617998D01*
X101042000Y-148651331D01*
X101075333Y-148717998D01*
X101075333Y-148984664D01*
X101408667Y-148184664D02*
X101375333Y-148251331D01*
X101342000Y-148284664D01*
X101275333Y-148317998D01*
X101075333Y-148317998D01*
X101008667Y-148284664D01*
X100975333Y-148251331D01*
X100942000Y-148184664D01*
X100942000Y-148084664D01*
X100975333Y-148017998D01*
X101008667Y-147984664D01*
X101075333Y-147951331D01*
X101275333Y-147951331D01*
X101342000Y-147984664D01*
X101375333Y-148017998D01*
X101408667Y-148084664D01*
X101408667Y-148184664D01*
X100942000Y-147717998D02*
X101408667Y-147584665D01*
X101075333Y-147451331D01*
X101408667Y-147317998D01*
X100942000Y-147184665D01*
X101375333Y-146651332D02*
X101408667Y-146717998D01*
X101408667Y-146851332D01*
X101375333Y-146917998D01*
X101308667Y-146951332D01*
X101042000Y-146951332D01*
X100975333Y-146917998D01*
X100942000Y-146851332D01*
X100942000Y-146717998D01*
X100975333Y-146651332D01*
X101042000Y-146617998D01*
X101108667Y-146617998D01*
X101175333Y-146951332D01*
X101408667Y-146317998D02*
X100942000Y-146317998D01*
X101075333Y-146317998D02*
X101008667Y-146284665D01*
X100975333Y-146251332D01*
X100942000Y-146184665D01*
X100942000Y-146117998D01*
X101375333Y-145384666D02*
X101408667Y-145284666D01*
X101408667Y-145117999D01*
X101375333Y-145051332D01*
X101342000Y-145017999D01*
X101275333Y-144984666D01*
X101208667Y-144984666D01*
X101142000Y-145017999D01*
X101108667Y-145051332D01*
X101075333Y-145117999D01*
X101042000Y-145251332D01*
X101008667Y-145317999D01*
X100975333Y-145351332D01*
X100908667Y-145384666D01*
X100842000Y-145384666D01*
X100775333Y-145351332D01*
X100742000Y-145317999D01*
X100708667Y-145251332D01*
X100708667Y-145084666D01*
X100742000Y-144984666D01*
X100942000Y-144384665D02*
X101408667Y-144384665D01*
X100942000Y-144684665D02*
X101308667Y-144684665D01*
X101375333Y-144651332D01*
X101408667Y-144584665D01*
X101408667Y-144484665D01*
X101375333Y-144417999D01*
X101342000Y-144384665D01*
X100942000Y-144051332D02*
X101642000Y-144051332D01*
X100975333Y-144051332D02*
X100942000Y-143984666D01*
X100942000Y-143851332D01*
X100975333Y-143784666D01*
X101008667Y-143751332D01*
X101075333Y-143717999D01*
X101275333Y-143717999D01*
X101342000Y-143751332D01*
X101375333Y-143784666D01*
X101408667Y-143851332D01*
X101408667Y-143984666D01*
X101375333Y-144051332D01*
X100942000Y-143417999D02*
X101642000Y-143417999D01*
X100975333Y-143417999D02*
X100942000Y-143351333D01*
X100942000Y-143217999D01*
X100975333Y-143151333D01*
X101008667Y-143117999D01*
X101075333Y-143084666D01*
X101275333Y-143084666D01*
X101342000Y-143117999D01*
X101375333Y-143151333D01*
X101408667Y-143217999D01*
X101408667Y-143351333D01*
X101375333Y-143417999D01*
X101408667Y-142684666D02*
X101375333Y-142751333D01*
X101308667Y-142784666D01*
X100708667Y-142784666D01*
X100942000Y-142484666D02*
X101408667Y-142317999D01*
X100942000Y-142151333D02*
X101408667Y-142317999D01*
X101575333Y-142384666D01*
X101608667Y-142417999D01*
X101642000Y-142484666D01*
X101408667Y-141351333D02*
X100708667Y-141351333D01*
X100942000Y-141018000D02*
X101408667Y-141018000D01*
X101008667Y-141018000D02*
X100975333Y-140984667D01*
X100942000Y-140918000D01*
X100942000Y-140818000D01*
X100975333Y-140751334D01*
X101042000Y-140718000D01*
X101408667Y-140718000D01*
X100942000Y-140384667D02*
X101642000Y-140384667D01*
X100975333Y-140384667D02*
X100942000Y-140318001D01*
X100942000Y-140184667D01*
X100975333Y-140118001D01*
X101008667Y-140084667D01*
X101075333Y-140051334D01*
X101275333Y-140051334D01*
X101342000Y-140084667D01*
X101375333Y-140118001D01*
X101408667Y-140184667D01*
X101408667Y-140318001D01*
X101375333Y-140384667D01*
X100942000Y-139451334D02*
X101408667Y-139451334D01*
X100942000Y-139751334D02*
X101308667Y-139751334D01*
X101375333Y-139718001D01*
X101408667Y-139651334D01*
X101408667Y-139551334D01*
X101375333Y-139484668D01*
X101342000Y-139451334D01*
X100942000Y-139218001D02*
X100942000Y-138951335D01*
X100708667Y-139118001D02*
X101308667Y-139118001D01*
X101375333Y-139084668D01*
X101408667Y-139018001D01*
X101408667Y-138951335D01*
D12*
X142692381Y-147177047D02*
X142692381Y-147748476D01*
X142692381Y-147462762D02*
X141692381Y-147462762D01*
X141835238Y-147558000D01*
X141930476Y-147653238D01*
X141978095Y-147748476D01*
X141787619Y-146796095D02*
X141740000Y-146748476D01*
X141692381Y-146653238D01*
X141692381Y-146415142D01*
X141740000Y-146319904D01*
X141787619Y-146272285D01*
X141882857Y-146224666D01*
X141978095Y-146224666D01*
X142120952Y-146272285D01*
X142692381Y-146843714D01*
X142692381Y-146224666D01*
X141692381Y-145938952D02*
X142692381Y-145605619D01*
X141692381Y-145272285D01*
D10*
X110159143Y-104409810D02*
X110806762Y-104409810D01*
X110482952Y-104733619D02*
X110482952Y-104086000D01*
X110806762Y-104895524D02*
X110159143Y-104895524D01*
X111616286Y-104045524D02*
X111211524Y-104045524D01*
X111171048Y-104450286D01*
X111211524Y-104409810D01*
X111292476Y-104369333D01*
X111494857Y-104369333D01*
X111575810Y-104409810D01*
X111616286Y-104450286D01*
X111656762Y-104531238D01*
X111656762Y-104733619D01*
X111616286Y-104814571D01*
X111575810Y-104855048D01*
X111494857Y-104895524D01*
X111292476Y-104895524D01*
X111211524Y-104855048D01*
X111171048Y-104814571D01*
X111899619Y-104045524D02*
X112182953Y-104895524D01*
X112466286Y-104045524D01*
X109147238Y-105335524D02*
X109713904Y-105335524D01*
X109147238Y-106185524D01*
X109713904Y-106185524D01*
X110037714Y-105740286D02*
X110685333Y-105740286D01*
X110685333Y-105983143D02*
X110037714Y-105983143D01*
X111494857Y-105335524D02*
X111090095Y-105335524D01*
X111049619Y-105740286D01*
X111090095Y-105699810D01*
X111171047Y-105659333D01*
X111373428Y-105659333D01*
X111454381Y-105699810D01*
X111494857Y-105740286D01*
X111535333Y-105821238D01*
X111535333Y-106023619D01*
X111494857Y-106104571D01*
X111454381Y-106145048D01*
X111373428Y-106185524D01*
X111171047Y-106185524D01*
X111090095Y-106145048D01*
X111049619Y-106104571D01*
X112061524Y-105335524D02*
X112142476Y-105335524D01*
X112223428Y-105376000D01*
X112263905Y-105416476D01*
X112304381Y-105497429D01*
X112344857Y-105659333D01*
X112344857Y-105861714D01*
X112304381Y-106023619D01*
X112263905Y-106104571D01*
X112223428Y-106145048D01*
X112142476Y-106185524D01*
X112061524Y-106185524D01*
X111980571Y-106145048D01*
X111940095Y-106104571D01*
X111899619Y-106023619D01*
X111859143Y-105861714D01*
X111859143Y-105659333D01*
X111899619Y-105497429D01*
X111940095Y-105416476D01*
X111980571Y-105376000D01*
X112061524Y-105335524D01*
X112668667Y-106185524D02*
X112871048Y-106185524D01*
X112871048Y-106023619D01*
X112790095Y-105983143D01*
X112709143Y-105902190D01*
X112668667Y-105780762D01*
X112668667Y-105578381D01*
X112709143Y-105456952D01*
X112790095Y-105376000D01*
X112911524Y-105335524D01*
X113073429Y-105335524D01*
X113194857Y-105376000D01*
X113275810Y-105456952D01*
X113316286Y-105578381D01*
X113316286Y-105780762D01*
X113275810Y-105902190D01*
X113194857Y-105983143D01*
X113113905Y-106023619D01*
X113113905Y-106185524D01*
X113316286Y-106185524D01*
X136465343Y-107239970D02*
X136896342Y-106808971D01*
X136896342Y-107239970D02*
X136465343Y-106808971D01*
X137219591Y-107132220D02*
X136788592Y-107563219D01*
X137785276Y-106566535D02*
X137462027Y-106889784D01*
X137623652Y-106728159D02*
X137057966Y-106162474D01*
X137084903Y-106297160D01*
X137084903Y-106404911D01*
X137057966Y-106485722D01*
X137704464Y-105515976D02*
X137596714Y-105623726D01*
X137569777Y-105704538D01*
X137569777Y-105758412D01*
X137596714Y-105893100D01*
X137677527Y-106027786D01*
X137893026Y-106243286D01*
X137973838Y-106270223D01*
X138027713Y-106270224D01*
X138108525Y-106243286D01*
X138216275Y-106135536D01*
X138243212Y-106054724D01*
X138243212Y-106000848D01*
X138216275Y-105920037D01*
X138081588Y-105785350D01*
X138000776Y-105758412D01*
X137946900Y-105758413D01*
X137866089Y-105785350D01*
X137758339Y-105893100D01*
X137731401Y-105973912D01*
X137731401Y-106027786D01*
X137758339Y-106108599D01*
X138512586Y-105731475D02*
X138566461Y-105731475D01*
X138566461Y-105785350D01*
X138512587Y-105785350D01*
X138512586Y-105731475D01*
X138566461Y-105785350D01*
X138216275Y-105004165D02*
X138566461Y-104653979D01*
X138593398Y-105058040D01*
X138674211Y-104977228D01*
X138755022Y-104950291D01*
X138808898Y-104950290D01*
X138889710Y-104977228D01*
X139024397Y-105111915D01*
X139051334Y-105192727D01*
X139051334Y-105246602D01*
X139024397Y-105327414D01*
X138862772Y-105489039D01*
X138781960Y-105515976D01*
X138728085Y-105515975D01*
X139132146Y-104573167D02*
X139051334Y-104600105D01*
X138997459Y-104600104D01*
X138916647Y-104573167D01*
X138889710Y-104546229D01*
X138862772Y-104465417D01*
X138862772Y-104411543D01*
X138889710Y-104330730D01*
X138997460Y-104222981D01*
X139078271Y-104196043D01*
X139132146Y-104196043D01*
X139212959Y-104222981D01*
X139239896Y-104249918D01*
X139266833Y-104330729D01*
X139266833Y-104384605D01*
X139239896Y-104465417D01*
X139132146Y-104573167D01*
X139105209Y-104653979D01*
X139105209Y-104707854D01*
X139132146Y-104788666D01*
X139239896Y-104896416D01*
X139320708Y-104923353D01*
X139374583Y-104923354D01*
X139455395Y-104896416D01*
X139563145Y-104788666D01*
X139590082Y-104707854D01*
X139590082Y-104653978D01*
X139563145Y-104573167D01*
X139455395Y-104465417D01*
X139374583Y-104438479D01*
X139320708Y-104438480D01*
X139239896Y-104465417D01*
X139778644Y-103818919D02*
X140155768Y-104196043D01*
X139428458Y-103738108D02*
X139697832Y-104276855D01*
X140048018Y-103926669D01*
X139805582Y-103414859D02*
X140559829Y-103791982D01*
X140182706Y-103037735D01*
D13*
X138799143Y-102786571D02*
X138799143Y-101286571D01*
X139156286Y-101286571D01*
X139370571Y-101358000D01*
X139513429Y-101500857D01*
X139584857Y-101643714D01*
X139656286Y-101929429D01*
X139656286Y-102143714D01*
X139584857Y-102429429D01*
X139513429Y-102572286D01*
X139370571Y-102715143D01*
X139156286Y-102786571D01*
X138799143Y-102786571D01*
X127464286Y-102643714D02*
X127392857Y-102715143D01*
X127178571Y-102786571D01*
X127035714Y-102786571D01*
X126821429Y-102715143D01*
X126678571Y-102572286D01*
X126607143Y-102429429D01*
X126535714Y-102143714D01*
X126535714Y-101929429D01*
X126607143Y-101643714D01*
X126678571Y-101500857D01*
X126821429Y-101358000D01*
X127035714Y-101286571D01*
X127178571Y-101286571D01*
X127392857Y-101358000D01*
X127464286Y-101429429D01*
X122535143Y-102000857D02*
X122749429Y-102072286D01*
X122820857Y-102143714D01*
X122892286Y-102286571D01*
X122892286Y-102500857D01*
X122820857Y-102643714D01*
X122749429Y-102715143D01*
X122606571Y-102786571D01*
X122035143Y-102786571D01*
X122035143Y-101286571D01*
X122535143Y-101286571D01*
X122678000Y-101358000D01*
X122749429Y-101429429D01*
X122820857Y-101572286D01*
X122820857Y-101715143D01*
X122749429Y-101858000D01*
X122678000Y-101929429D01*
X122535143Y-102000857D01*
X122035143Y-102000857D01*
X109878857Y-102358000D02*
X110593143Y-102358000D01*
X109736000Y-102786571D02*
X110236000Y-101286571D01*
X110736000Y-102786571D01*
D14*
X117318000Y-165693524D02*
X117318000Y-164843524D01*
X117601333Y-165450667D01*
X117884667Y-164843524D01*
X117884667Y-165693524D01*
X118289429Y-165693524D02*
X118289429Y-165126857D01*
X118289429Y-164843524D02*
X118248953Y-164884000D01*
X118289429Y-164924476D01*
X118329905Y-164884000D01*
X118289429Y-164843524D01*
X118289429Y-164924476D01*
X119058477Y-165653048D02*
X118977524Y-165693524D01*
X118815620Y-165693524D01*
X118734667Y-165653048D01*
X118694191Y-165612571D01*
X118653715Y-165531619D01*
X118653715Y-165288762D01*
X118694191Y-165207810D01*
X118734667Y-165167333D01*
X118815620Y-165126857D01*
X118977524Y-165126857D01*
X119058477Y-165167333D01*
X119422762Y-165693524D02*
X119422762Y-165126857D01*
X119422762Y-165288762D02*
X119463238Y-165207810D01*
X119503714Y-165167333D01*
X119584667Y-165126857D01*
X119665619Y-165126857D01*
X120070381Y-165693524D02*
X119989428Y-165653048D01*
X119948952Y-165612571D01*
X119908476Y-165531619D01*
X119908476Y-165288762D01*
X119948952Y-165207810D01*
X119989428Y-165167333D01*
X120070381Y-165126857D01*
X120191809Y-165126857D01*
X120272761Y-165167333D01*
X120313238Y-165207810D01*
X120353714Y-165288762D01*
X120353714Y-165531619D01*
X120313238Y-165612571D01*
X120272761Y-165653048D01*
X120191809Y-165693524D01*
X120070381Y-165693524D01*
X121001333Y-165248286D02*
X120718000Y-165248286D01*
X120718000Y-165693524D02*
X120718000Y-164843524D01*
X121122762Y-164843524D01*
X121851333Y-165693524D02*
X121446571Y-165693524D01*
X121446571Y-164843524D01*
X122134666Y-165693524D02*
X122134666Y-164843524D01*
X123025142Y-165612571D02*
X122984666Y-165653048D01*
X122863237Y-165693524D01*
X122782285Y-165693524D01*
X122660857Y-165653048D01*
X122579904Y-165572095D01*
X122539428Y-165491143D01*
X122498952Y-165329238D01*
X122498952Y-165207810D01*
X122539428Y-165045905D01*
X122579904Y-164964952D01*
X122660857Y-164884000D01*
X122782285Y-164843524D01*
X122863237Y-164843524D01*
X122984666Y-164884000D01*
X123025142Y-164924476D01*
X124037047Y-165693524D02*
X124037047Y-164843524D01*
X124239428Y-164843524D01*
X124360856Y-164884000D01*
X124441809Y-164964952D01*
X124482285Y-165045905D01*
X124522761Y-165207810D01*
X124522761Y-165329238D01*
X124482285Y-165491143D01*
X124441809Y-165572095D01*
X124360856Y-165653048D01*
X124239428Y-165693524D01*
X124037047Y-165693524D01*
X124846571Y-165450667D02*
X125251333Y-165450667D01*
X124765618Y-165693524D02*
X125048952Y-164843524D01*
X125332285Y-165693524D01*
X126101332Y-165612571D02*
X126060856Y-165653048D01*
X125939427Y-165693524D01*
X125858475Y-165693524D01*
X125737047Y-165653048D01*
X125656094Y-165572095D01*
X125615618Y-165491143D01*
X125575142Y-165329238D01*
X125575142Y-165207810D01*
X125615618Y-165045905D01*
X125656094Y-164964952D01*
X125737047Y-164884000D01*
X125858475Y-164843524D01*
X125939427Y-164843524D01*
X126060856Y-164884000D01*
X126101332Y-164924476D01*
X126587047Y-165207810D02*
X126506094Y-165167333D01*
X126465618Y-165126857D01*
X126425142Y-165045905D01*
X126425142Y-165005429D01*
X126465618Y-164924476D01*
X126506094Y-164884000D01*
X126587047Y-164843524D01*
X126748951Y-164843524D01*
X126829904Y-164884000D01*
X126870380Y-164924476D01*
X126910856Y-165005429D01*
X126910856Y-165045905D01*
X126870380Y-165126857D01*
X126829904Y-165167333D01*
X126748951Y-165207810D01*
X126587047Y-165207810D01*
X126506094Y-165248286D01*
X126465618Y-165288762D01*
X126425142Y-165369714D01*
X126425142Y-165531619D01*
X126465618Y-165612571D01*
X126506094Y-165653048D01*
X126587047Y-165693524D01*
X126748951Y-165693524D01*
X126829904Y-165653048D01*
X126870380Y-165612571D01*
X126910856Y-165531619D01*
X126910856Y-165369714D01*
X126870380Y-165288762D01*
X126829904Y-165248286D01*
X126748951Y-165207810D01*
X127194190Y-164843524D02*
X127760856Y-164843524D01*
X127396571Y-165693524D01*
X128003714Y-164843524D02*
X128529904Y-164843524D01*
X128246571Y-165167333D01*
X128367999Y-165167333D01*
X128448952Y-165207810D01*
X128489428Y-165248286D01*
X128529904Y-165329238D01*
X128529904Y-165531619D01*
X128489428Y-165612571D01*
X128448952Y-165653048D01*
X128367999Y-165693524D01*
X128125142Y-165693524D01*
X128044190Y-165653048D01*
X128003714Y-165612571D01*
X129258476Y-165126857D02*
X129258476Y-165693524D01*
X129056095Y-164803048D02*
X128853714Y-165410190D01*
X129379904Y-165410190D01*
X130270381Y-165126857D02*
X130472762Y-165693524D01*
X130675142Y-165126857D01*
X130958476Y-164924476D02*
X130998952Y-164884000D01*
X131079904Y-164843524D01*
X131282285Y-164843524D01*
X131363238Y-164884000D01*
X131403714Y-164924476D01*
X131444190Y-165005429D01*
X131444190Y-165086381D01*
X131403714Y-165207810D01*
X130918000Y-165693524D01*
X131444190Y-165693524D01*
X131808476Y-165612571D02*
X131848952Y-165653048D01*
X131808476Y-165693524D01*
X131768000Y-165653048D01*
X131808476Y-165612571D01*
X131808476Y-165693524D01*
X132375143Y-164843524D02*
X132456095Y-164843524D01*
X132537047Y-164884000D01*
X132577524Y-164924476D01*
X132618000Y-165005429D01*
X132658476Y-165167333D01*
X132658476Y-165369714D01*
X132618000Y-165531619D01*
X132577524Y-165612571D01*
X132537047Y-165653048D01*
X132456095Y-165693524D01*
X132375143Y-165693524D01*
X132294190Y-165653048D01*
X132253714Y-165612571D01*
X132213238Y-165531619D01*
X132172762Y-165369714D01*
X132172762Y-165167333D01*
X132213238Y-165005429D01*
X132253714Y-164924476D01*
X132294190Y-164884000D01*
X132375143Y-164843524D01*
X114484666Y-166239476D02*
X114525142Y-166199000D01*
X114606094Y-166158524D01*
X114808475Y-166158524D01*
X114889428Y-166199000D01*
X114929904Y-166239476D01*
X114970380Y-166320429D01*
X114970380Y-166401381D01*
X114929904Y-166522810D01*
X114444190Y-167008524D01*
X114970380Y-167008524D01*
X115415618Y-166441857D02*
X115901333Y-166927571D01*
X115901333Y-166441857D02*
X115415618Y-166927571D01*
X117034666Y-166522810D02*
X117682285Y-166522810D01*
X117358475Y-166846619D02*
X117358475Y-166199000D01*
X117682285Y-167008524D02*
X117034666Y-167008524D01*
X118532285Y-167008524D02*
X118046571Y-167008524D01*
X118289428Y-167008524D02*
X118289428Y-166158524D01*
X118208476Y-166279952D01*
X118127523Y-166360905D01*
X118046571Y-166401381D01*
X119260857Y-166158524D02*
X119098952Y-166158524D01*
X119018000Y-166199000D01*
X118977523Y-166239476D01*
X118896571Y-166360905D01*
X118856095Y-166522810D01*
X118856095Y-166846619D01*
X118896571Y-166927571D01*
X118937047Y-166968048D01*
X119018000Y-167008524D01*
X119179904Y-167008524D01*
X119260857Y-166968048D01*
X119301333Y-166927571D01*
X119341809Y-166846619D01*
X119341809Y-166644238D01*
X119301333Y-166563286D01*
X119260857Y-166522810D01*
X119179904Y-166482333D01*
X119018000Y-166482333D01*
X118937047Y-166522810D01*
X118896571Y-166563286D01*
X118856095Y-166644238D01*
X119706095Y-166927571D02*
X119746571Y-166968048D01*
X119706095Y-167008524D01*
X119665619Y-166968048D01*
X119706095Y-166927571D01*
X119706095Y-167008524D01*
X120029905Y-166158524D02*
X120556095Y-166158524D01*
X120272762Y-166482333D01*
X120394190Y-166482333D01*
X120475143Y-166522810D01*
X120515619Y-166563286D01*
X120556095Y-166644238D01*
X120556095Y-166846619D01*
X120515619Y-166927571D01*
X120475143Y-166968048D01*
X120394190Y-167008524D01*
X120151333Y-167008524D01*
X120070381Y-166968048D01*
X120029905Y-166927571D01*
X121041810Y-166522810D02*
X120960857Y-166482333D01*
X120920381Y-166441857D01*
X120879905Y-166360905D01*
X120879905Y-166320429D01*
X120920381Y-166239476D01*
X120960857Y-166199000D01*
X121041810Y-166158524D01*
X121203714Y-166158524D01*
X121284667Y-166199000D01*
X121325143Y-166239476D01*
X121365619Y-166320429D01*
X121365619Y-166360905D01*
X121325143Y-166441857D01*
X121284667Y-166482333D01*
X121203714Y-166522810D01*
X121041810Y-166522810D01*
X120960857Y-166563286D01*
X120920381Y-166603762D01*
X120879905Y-166684714D01*
X120879905Y-166846619D01*
X120920381Y-166927571D01*
X120960857Y-166968048D01*
X121041810Y-167008524D01*
X121203714Y-167008524D01*
X121284667Y-166968048D01*
X121325143Y-166927571D01*
X121365619Y-166846619D01*
X121365619Y-166684714D01*
X121325143Y-166603762D01*
X121284667Y-166563286D01*
X121203714Y-166522810D01*
X122094191Y-166441857D02*
X122094191Y-167008524D01*
X121891810Y-166118048D02*
X121689429Y-166725190D01*
X122215619Y-166725190D01*
X122418000Y-166158524D02*
X122701334Y-167008524D01*
X122984667Y-166158524D01*
X124603714Y-167008524D02*
X124563238Y-167008524D01*
X124482286Y-166968048D01*
X124360857Y-166846619D01*
X124158476Y-166603762D01*
X124077524Y-166482333D01*
X124037048Y-166360905D01*
X124037048Y-166279952D01*
X124077524Y-166199000D01*
X124158476Y-166158524D01*
X124198952Y-166158524D01*
X124279905Y-166199000D01*
X124320381Y-166279952D01*
X124320381Y-166320429D01*
X124279905Y-166401381D01*
X124239428Y-166441857D01*
X123996571Y-166603762D01*
X123956095Y-166644238D01*
X123915619Y-166725190D01*
X123915619Y-166846619D01*
X123956095Y-166927571D01*
X123996571Y-166968048D01*
X124077524Y-167008524D01*
X124198952Y-167008524D01*
X124279905Y-166968048D01*
X124320381Y-166927571D01*
X124441809Y-166765667D01*
X124482286Y-166644238D01*
X124482286Y-166563286D01*
X125575143Y-166239476D02*
X125615619Y-166199000D01*
X125696571Y-166158524D01*
X125898952Y-166158524D01*
X125979905Y-166199000D01*
X126020381Y-166239476D01*
X126060857Y-166320429D01*
X126060857Y-166401381D01*
X126020381Y-166522810D01*
X125534667Y-167008524D01*
X126060857Y-167008524D01*
X126506095Y-166441857D02*
X126991810Y-166927571D01*
X126991810Y-166441857D02*
X126506095Y-166927571D01*
X128125143Y-166522810D02*
X128772762Y-166522810D01*
X128448952Y-166846619D02*
X128448952Y-166199000D01*
X128772762Y-167008524D02*
X128125143Y-167008524D01*
X129582286Y-166158524D02*
X129177524Y-166158524D01*
X129137048Y-166563286D01*
X129177524Y-166522810D01*
X129258476Y-166482333D01*
X129460857Y-166482333D01*
X129541810Y-166522810D01*
X129582286Y-166563286D01*
X129622762Y-166644238D01*
X129622762Y-166846619D01*
X129582286Y-166927571D01*
X129541810Y-166968048D01*
X129460857Y-167008524D01*
X129258476Y-167008524D01*
X129177524Y-166968048D01*
X129137048Y-166927571D01*
X129865619Y-166158524D02*
X130148953Y-167008524D01*
X130432286Y-166158524D01*
X131282286Y-166158524D02*
X131848952Y-166158524D01*
X131282286Y-167008524D01*
X131848952Y-167008524D01*
X132172762Y-166563286D02*
X132820381Y-166563286D01*
X132820381Y-166806143D02*
X132172762Y-166806143D01*
X133629905Y-166158524D02*
X133225143Y-166158524D01*
X133184667Y-166563286D01*
X133225143Y-166522810D01*
X133306095Y-166482333D01*
X133508476Y-166482333D01*
X133589429Y-166522810D01*
X133629905Y-166563286D01*
X133670381Y-166644238D01*
X133670381Y-166846619D01*
X133629905Y-166927571D01*
X133589429Y-166968048D01*
X133508476Y-167008524D01*
X133306095Y-167008524D01*
X133225143Y-166968048D01*
X133184667Y-166927571D01*
X134196572Y-166158524D02*
X134277524Y-166158524D01*
X134358476Y-166199000D01*
X134398953Y-166239476D01*
X134439429Y-166320429D01*
X134479905Y-166482333D01*
X134479905Y-166684714D01*
X134439429Y-166846619D01*
X134398953Y-166927571D01*
X134358476Y-166968048D01*
X134277524Y-167008524D01*
X134196572Y-167008524D01*
X134115619Y-166968048D01*
X134075143Y-166927571D01*
X134034667Y-166846619D01*
X133994191Y-166684714D01*
X133994191Y-166482333D01*
X134034667Y-166320429D01*
X134075143Y-166239476D01*
X134115619Y-166199000D01*
X134196572Y-166158524D01*
X134803715Y-167008524D02*
X135006096Y-167008524D01*
X135006096Y-166846619D01*
X134925143Y-166806143D01*
X134844191Y-166725190D01*
X134803715Y-166603762D01*
X134803715Y-166401381D01*
X134844191Y-166279952D01*
X134925143Y-166199000D01*
X135046572Y-166158524D01*
X135208477Y-166158524D01*
X135329905Y-166199000D01*
X135410858Y-166279952D01*
X135451334Y-166401381D01*
X135451334Y-166603762D01*
X135410858Y-166725190D01*
X135329905Y-166806143D01*
X135248953Y-166846619D01*
X135248953Y-167008524D01*
X135451334Y-167008524D01*
X119139428Y-167473524D02*
X119139428Y-168080667D01*
X119098952Y-168202095D01*
X119018000Y-168283048D01*
X118896571Y-168323524D01*
X118815619Y-168323524D01*
X119908476Y-168323524D02*
X119908476Y-167878286D01*
X119867999Y-167797333D01*
X119787047Y-167756857D01*
X119625142Y-167756857D01*
X119544190Y-167797333D01*
X119908476Y-168283048D02*
X119827523Y-168323524D01*
X119625142Y-168323524D01*
X119544190Y-168283048D01*
X119503714Y-168202095D01*
X119503714Y-168121143D01*
X119544190Y-168040190D01*
X119625142Y-167999714D01*
X119827523Y-167999714D01*
X119908476Y-167959238D01*
X120313238Y-168323524D02*
X120313238Y-167473524D01*
X120394190Y-167999714D02*
X120637047Y-168323524D01*
X120637047Y-167756857D02*
X120313238Y-168080667D01*
X121365619Y-167756857D02*
X121365619Y-168323524D01*
X121001333Y-167756857D02*
X121001333Y-168202095D01*
X121041809Y-168283048D01*
X121122762Y-168323524D01*
X121244190Y-168323524D01*
X121325142Y-168283048D01*
X121365619Y-168242571D01*
X121770381Y-168323524D02*
X121770381Y-167473524D01*
X121770381Y-167797333D02*
X121851333Y-167756857D01*
X122013238Y-167756857D01*
X122094190Y-167797333D01*
X122134667Y-167837810D01*
X122175143Y-167918762D01*
X122175143Y-168161619D01*
X122134667Y-168242571D01*
X122094190Y-168283048D01*
X122013238Y-168323524D01*
X121851333Y-168323524D01*
X121770381Y-168283048D01*
X123187048Y-168323524D02*
X123187048Y-167473524D01*
X123672762Y-168323524D01*
X123672762Y-167473524D01*
X124401333Y-168283048D02*
X124320381Y-168323524D01*
X124158476Y-168323524D01*
X124077524Y-168283048D01*
X124037048Y-168202095D01*
X124037048Y-167878286D01*
X124077524Y-167797333D01*
X124158476Y-167756857D01*
X124320381Y-167756857D01*
X124401333Y-167797333D01*
X124441810Y-167878286D01*
X124441810Y-167959238D01*
X124037048Y-168040190D01*
X125170381Y-168323524D02*
X125170381Y-167473524D01*
X125170381Y-168283048D02*
X125089428Y-168323524D01*
X124927524Y-168323524D01*
X124846571Y-168283048D01*
X124806095Y-168242571D01*
X124765619Y-168161619D01*
X124765619Y-167918762D01*
X124806095Y-167837810D01*
X124846571Y-167797333D01*
X124927524Y-167756857D01*
X125089428Y-167756857D01*
X125170381Y-167797333D01*
X125575143Y-168323524D02*
X125575143Y-167473524D01*
X125575143Y-167797333D02*
X125656095Y-167756857D01*
X125818000Y-167756857D01*
X125898952Y-167797333D01*
X125939429Y-167837810D01*
X125979905Y-167918762D01*
X125979905Y-168161619D01*
X125939429Y-168242571D01*
X125898952Y-168283048D01*
X125818000Y-168323524D01*
X125656095Y-168323524D01*
X125575143Y-168283048D01*
X126708477Y-168323524D02*
X126708477Y-167878286D01*
X126668000Y-167797333D01*
X126587048Y-167756857D01*
X126425143Y-167756857D01*
X126344191Y-167797333D01*
X126708477Y-168283048D02*
X126627524Y-168323524D01*
X126425143Y-168323524D01*
X126344191Y-168283048D01*
X126303715Y-168202095D01*
X126303715Y-168121143D01*
X126344191Y-168040190D01*
X126425143Y-167999714D01*
X126627524Y-167999714D01*
X126708477Y-167959238D01*
X127234668Y-168323524D02*
X127153715Y-168283048D01*
X127113239Y-168202095D01*
X127113239Y-167473524D01*
X128165620Y-167554476D02*
X128206096Y-167514000D01*
X128287048Y-167473524D01*
X128489429Y-167473524D01*
X128570382Y-167514000D01*
X128610858Y-167554476D01*
X128651334Y-167635429D01*
X128651334Y-167716381D01*
X128610858Y-167837810D01*
X128125144Y-168323524D01*
X128651334Y-168323524D01*
X129177525Y-167473524D02*
X129258477Y-167473524D01*
X129339429Y-167514000D01*
X129379906Y-167554476D01*
X129420382Y-167635429D01*
X129460858Y-167797333D01*
X129460858Y-167999714D01*
X129420382Y-168161619D01*
X129379906Y-168242571D01*
X129339429Y-168283048D01*
X129258477Y-168323524D01*
X129177525Y-168323524D01*
X129096572Y-168283048D01*
X129056096Y-168242571D01*
X129015620Y-168161619D01*
X128975144Y-167999714D01*
X128975144Y-167797333D01*
X129015620Y-167635429D01*
X129056096Y-167554476D01*
X129096572Y-167514000D01*
X129177525Y-167473524D01*
X130270382Y-168323524D02*
X129784668Y-168323524D01*
X130027525Y-168323524D02*
X130027525Y-167473524D01*
X129946573Y-167594952D01*
X129865620Y-167675905D01*
X129784668Y-167716381D01*
X130998954Y-167473524D02*
X130837049Y-167473524D01*
X130756097Y-167514000D01*
X130715620Y-167554476D01*
X130634668Y-167675905D01*
X130594192Y-167837810D01*
X130594192Y-168161619D01*
X130634668Y-168242571D01*
X130675144Y-168283048D01*
X130756097Y-168323524D01*
X130918001Y-168323524D01*
X130998954Y-168283048D01*
X131039430Y-168242571D01*
X131079906Y-168161619D01*
X131079906Y-167959238D01*
X131039430Y-167878286D01*
X130998954Y-167837810D01*
X130918001Y-167797333D01*
X130756097Y-167797333D01*
X130675144Y-167837810D01*
X130634668Y-167878286D01*
X130594192Y-167959238D01*
D12*
X136342762Y-161964667D02*
X136818953Y-161964667D01*
X136247524Y-162250381D02*
X136580857Y-161250381D01*
X136914191Y-162250381D01*
X137247524Y-162250381D02*
X137247524Y-161583714D01*
X137247524Y-161774190D02*
X137295143Y-161678952D01*
X137342762Y-161631333D01*
X137438000Y-161583714D01*
X137533239Y-161583714D01*
X138295144Y-162250381D02*
X138295144Y-161250381D01*
X138295144Y-162202762D02*
X138199906Y-162250381D01*
X138009429Y-162250381D01*
X137914191Y-162202762D01*
X137866572Y-162155143D01*
X137818953Y-162059905D01*
X137818953Y-161774190D01*
X137866572Y-161678952D01*
X137914191Y-161631333D01*
X138009429Y-161583714D01*
X138199906Y-161583714D01*
X138295144Y-161631333D01*
X139199906Y-161583714D02*
X139199906Y-162250381D01*
X138771334Y-161583714D02*
X138771334Y-162107524D01*
X138818953Y-162202762D01*
X138914191Y-162250381D01*
X139057049Y-162250381D01*
X139152287Y-162202762D01*
X139199906Y-162155143D01*
X139676096Y-162250381D02*
X139676096Y-161583714D01*
X139676096Y-161250381D02*
X139628477Y-161298000D01*
X139676096Y-161345619D01*
X139723715Y-161298000D01*
X139676096Y-161250381D01*
X139676096Y-161345619D01*
X140152286Y-161583714D02*
X140152286Y-162250381D01*
X140152286Y-161678952D02*
X140199905Y-161631333D01*
X140295143Y-161583714D01*
X140438001Y-161583714D01*
X140533239Y-161631333D01*
X140580858Y-161726571D01*
X140580858Y-162250381D01*
X141199905Y-162250381D02*
X141104667Y-162202762D01*
X141057048Y-162155143D01*
X141009429Y-162059905D01*
X141009429Y-161774190D01*
X141057048Y-161678952D01*
X141104667Y-161631333D01*
X141199905Y-161583714D01*
X141342763Y-161583714D01*
X141438001Y-161631333D01*
X141485620Y-161678952D01*
X141533239Y-161774190D01*
X141533239Y-162059905D01*
X141485620Y-162155143D01*
X141438001Y-162202762D01*
X141342763Y-162250381D01*
X141199905Y-162250381D01*
D11*
X120406002Y-163130667D02*
X120406002Y-162430667D01*
X120572668Y-162430667D01*
X120672668Y-162464000D01*
X120739335Y-162530667D01*
X120772668Y-162597333D01*
X120806002Y-162730667D01*
X120806002Y-162830667D01*
X120772668Y-162964000D01*
X120739335Y-163030667D01*
X120672668Y-163097333D01*
X120572668Y-163130667D01*
X120406002Y-163130667D01*
X121106002Y-163130667D02*
X121106002Y-162664000D01*
X121106002Y-162430667D02*
X121072668Y-162464000D01*
X121106002Y-162497333D01*
X121139335Y-162464000D01*
X121106002Y-162430667D01*
X121106002Y-162497333D01*
X121739335Y-162664000D02*
X121739335Y-163230667D01*
X121706001Y-163297333D01*
X121672668Y-163330667D01*
X121606001Y-163364000D01*
X121506001Y-163364000D01*
X121439335Y-163330667D01*
X121739335Y-163097333D02*
X121672668Y-163130667D01*
X121539335Y-163130667D01*
X121472668Y-163097333D01*
X121439335Y-163064000D01*
X121406001Y-162997333D01*
X121406001Y-162797333D01*
X121439335Y-162730667D01*
X121472668Y-162697333D01*
X121539335Y-162664000D01*
X121672668Y-162664000D01*
X121739335Y-162697333D01*
X122072668Y-163130667D02*
X122072668Y-162664000D01*
X122072668Y-162430667D02*
X122039334Y-162464000D01*
X122072668Y-162497333D01*
X122106001Y-162464000D01*
X122072668Y-162430667D01*
X122072668Y-162497333D01*
X122306001Y-162664000D02*
X122572667Y-162664000D01*
X122406001Y-162430667D02*
X122406001Y-163030667D01*
X122439334Y-163097333D01*
X122506001Y-163130667D01*
X122572667Y-163130667D01*
X123106001Y-163130667D02*
X123106001Y-162764000D01*
X123072667Y-162697333D01*
X123006001Y-162664000D01*
X122872667Y-162664000D01*
X122806001Y-162697333D01*
X123106001Y-163097333D02*
X123039334Y-163130667D01*
X122872667Y-163130667D01*
X122806001Y-163097333D01*
X122772667Y-163030667D01*
X122772667Y-162964000D01*
X122806001Y-162897333D01*
X122872667Y-162864000D01*
X123039334Y-162864000D01*
X123106001Y-162830667D01*
X123539334Y-163130667D02*
X123472667Y-163097333D01*
X123439334Y-163030667D01*
X123439334Y-162430667D01*
X124339334Y-163130667D02*
X124339334Y-162430667D01*
X124639333Y-163097333D02*
X124706000Y-163130667D01*
X124839333Y-163130667D01*
X124906000Y-163097333D01*
X124939333Y-163030667D01*
X124939333Y-162997333D01*
X124906000Y-162930667D01*
X124839333Y-162897333D01*
X124739333Y-162897333D01*
X124672667Y-162864000D01*
X124639333Y-162797333D01*
X124639333Y-162764000D01*
X124672667Y-162697333D01*
X124739333Y-162664000D01*
X124839333Y-162664000D01*
X124906000Y-162697333D01*
X125339334Y-163130667D02*
X125272667Y-163097333D01*
X125239334Y-163064000D01*
X125206000Y-162997333D01*
X125206000Y-162797333D01*
X125239334Y-162730667D01*
X125272667Y-162697333D01*
X125339334Y-162664000D01*
X125439334Y-162664000D01*
X125506000Y-162697333D01*
X125539334Y-162730667D01*
X125572667Y-162797333D01*
X125572667Y-162997333D01*
X125539334Y-163064000D01*
X125506000Y-163097333D01*
X125439334Y-163130667D01*
X125339334Y-163130667D01*
X125972667Y-163130667D02*
X125906000Y-163097333D01*
X125872667Y-163030667D01*
X125872667Y-162430667D01*
X126539334Y-163130667D02*
X126539334Y-162764000D01*
X126506000Y-162697333D01*
X126439334Y-162664000D01*
X126306000Y-162664000D01*
X126239334Y-162697333D01*
X126539334Y-163097333D02*
X126472667Y-163130667D01*
X126306000Y-163130667D01*
X126239334Y-163097333D01*
X126206000Y-163030667D01*
X126206000Y-162964000D01*
X126239334Y-162897333D01*
X126306000Y-162864000D01*
X126472667Y-162864000D01*
X126539334Y-162830667D01*
X126772667Y-162664000D02*
X127039333Y-162664000D01*
X126872667Y-162430667D02*
X126872667Y-163030667D01*
X126906000Y-163097333D01*
X126972667Y-163130667D01*
X127039333Y-163130667D01*
X127372667Y-163130667D02*
X127306000Y-163097333D01*
X127272667Y-163064000D01*
X127239333Y-162997333D01*
X127239333Y-162797333D01*
X127272667Y-162730667D01*
X127306000Y-162697333D01*
X127372667Y-162664000D01*
X127472667Y-162664000D01*
X127539333Y-162697333D01*
X127572667Y-162730667D01*
X127606000Y-162797333D01*
X127606000Y-162997333D01*
X127572667Y-163064000D01*
X127539333Y-163097333D01*
X127472667Y-163130667D01*
X127372667Y-163130667D01*
X127906000Y-163130667D02*
X127906000Y-162664000D01*
X127906000Y-162797333D02*
X127939333Y-162730667D01*
X127972666Y-162697333D01*
X128039333Y-162664000D01*
X128106000Y-162664000D01*
D15*
X146931380Y-92991940D02*
X146931380Y-92047060D01*
X141612620Y-92991940D02*
X141612620Y-92047060D01*
X141612620Y-101498400D02*
X141612620Y-97718880D01*
X146931380Y-101498400D02*
X146931380Y-97718880D01*
X141079220Y-93306900D02*
X144538700Y-92991940D01*
X147464780Y-97088960D02*
X141612620Y-97718880D01*
X141079220Y-97088960D02*
X147464780Y-96459040D01*
X141079220Y-96459040D02*
X147464780Y-95829120D01*
X141079220Y-95829120D02*
X147464780Y-95199200D01*
X141079220Y-95199200D02*
X147464780Y-94566740D01*
X141079220Y-94566740D02*
X147464780Y-93936820D01*
X141079220Y-93936820D02*
X147464780Y-93306900D01*
X141079220Y-93306900D02*
X141612620Y-92991940D01*
X141612620Y-92991940D02*
X146931380Y-92991940D01*
X146931380Y-92991940D02*
X147464780Y-93306900D01*
X147464780Y-93306900D02*
X147464780Y-97403920D01*
X147464780Y-97403920D02*
X146931380Y-97718880D01*
X146931380Y-97718880D02*
X141612620Y-97718880D01*
X141612620Y-97718880D02*
X141079220Y-97403920D01*
X141079220Y-97403920D02*
X141079220Y-93306900D01*
X146931380Y-92047060D02*
X141612620Y-92047060D01*
X141122400Y-101498400D02*
X147421600Y-101498400D01*
X147421600Y-101498400D02*
X147421600Y-107797600D01*
X147421600Y-107797600D02*
X141122400Y-107797600D01*
X141122400Y-107797600D02*
X141122400Y-101498400D01*
D16*
X148844000Y-137668000D02*
G75*
G03X148844000Y-137668000I-254000J0D01*
G01*
X146050000Y-137160000D02*
X149098000Y-137160000D01*
X149098000Y-137160000D02*
X149098000Y-140208000D01*
X149098000Y-140208000D02*
X146050000Y-140208000D01*
X146050000Y-140208000D02*
X146050000Y-137160000D01*
D12*
X146781000Y-131791000D02*
X146081000Y-131791000D01*
X146081000Y-130591000D02*
X146781000Y-130591000D01*
X110582000Y-156323000D02*
X109382000Y-156323000D01*
X109382000Y-154573000D02*
X110582000Y-154573000D01*
X113651000Y-152562000D02*
X113651000Y-153762000D01*
X111901000Y-153762000D02*
X111901000Y-152562000D01*
X109636000Y-146146000D02*
X109636000Y-145446000D01*
X110836000Y-145446000D02*
X110836000Y-146146000D01*
X109632000Y-153324000D02*
X110332000Y-153324000D01*
X110332000Y-154524000D02*
X109632000Y-154524000D01*
D16*
X109220000Y-151130000D02*
G75*
G03X109220000Y-151130000I-254000J0D01*
G01*
X111506000Y-151638000D02*
X108458000Y-151638000D01*
X108458000Y-151638000D02*
X108458000Y-148590000D01*
X108458000Y-148590000D02*
X111506000Y-148590000D01*
X111506000Y-148590000D02*
X111506000Y-151638000D01*
X148844000Y-126492000D02*
G75*
G03X148844000Y-126492000I-254000J0D01*
G01*
X146050000Y-125984000D02*
X149098000Y-125984000D01*
X149098000Y-125984000D02*
X149098000Y-129032000D01*
X149098000Y-129032000D02*
X146050000Y-129032000D01*
X146050000Y-129032000D02*
X146050000Y-125984000D01*
D12*
X147924000Y-124298000D02*
X147224000Y-124298000D01*
X147224000Y-123098000D02*
X147924000Y-123098000D01*
X143905000Y-125314000D02*
X143905000Y-124114000D01*
X145655000Y-124114000D02*
X145655000Y-125314000D01*
X146974000Y-121553000D02*
X148174000Y-121553000D01*
X148174000Y-123303000D02*
X146974000Y-123303000D01*
X143905000Y-136490000D02*
X143905000Y-135290000D01*
X145655000Y-135290000D02*
X145655000Y-136490000D01*
X147924000Y-135474000D02*
X147224000Y-135474000D01*
X147224000Y-134274000D02*
X147924000Y-134274000D01*
X146908000Y-142840000D02*
X146208000Y-142840000D01*
X146208000Y-141640000D02*
X146908000Y-141640000D01*
X146974000Y-132475000D02*
X148174000Y-132475000D01*
X148174000Y-134225000D02*
X146974000Y-134225000D01*
X122082000Y-141111000D02*
X123282000Y-141111000D01*
X123282000Y-142861000D02*
X122082000Y-142861000D01*
X129871769Y-145486878D02*
G75*
G03X131266000Y-145472000I684231J1214878D01*
G01*
X131240231Y-143057122D02*
G75*
G03X129846000Y-143072000I-684231J-1214878D01*
G01*
X102616000Y-141478000D02*
X102616000Y-149098000D01*
X102616000Y-149098000D02*
X107696000Y-149098000D01*
X107696000Y-149098000D02*
X107696000Y-138938000D01*
X107696000Y-138938000D02*
X105156000Y-138938000D01*
X103886000Y-138658000D02*
X102336000Y-138658000D01*
X105156000Y-138938000D02*
X105156000Y-141478000D01*
X105156000Y-141478000D02*
X102616000Y-141478000D01*
X102336000Y-138658000D02*
X102336000Y-140208000D01*
D16*
X105410000Y-129540000D02*
G75*
G03X105410000Y-129540000I-254000J0D01*
G01*
X102616000Y-129032000D02*
X105664000Y-129032000D01*
X105664000Y-129032000D02*
X105664000Y-132080000D01*
X105664000Y-132080000D02*
X102616000Y-132080000D01*
X102616000Y-132080000D02*
X102616000Y-129032000D01*
D12*
X146654000Y-117440000D02*
X145954000Y-117440000D01*
X145954000Y-116240000D02*
X146654000Y-116240000D01*
X146654000Y-118964000D02*
X145954000Y-118964000D01*
X145954000Y-117764000D02*
X146654000Y-117764000D01*
X141128000Y-109382000D02*
X141828000Y-109382000D01*
X141828000Y-110582000D02*
X141128000Y-110582000D01*
X141327000Y-117245000D02*
X141577000Y-117245000D01*
X141327000Y-113895000D02*
X141577000Y-113895000D01*
X144677000Y-113895000D02*
X144427000Y-113895000D01*
X144677000Y-117245000D02*
X144427000Y-117245000D01*
X141327000Y-117245000D02*
X141327000Y-113895000D01*
X144677000Y-117245000D02*
X144677000Y-113895000D01*
X141577000Y-117245000D02*
X141577000Y-118495000D01*
X141132000Y-119013000D02*
X142332000Y-119013000D01*
X142332000Y-120763000D02*
X141132000Y-120763000D01*
X141128000Y-110906000D02*
X141828000Y-110906000D01*
X141828000Y-112106000D02*
X141128000Y-112106000D01*
X128936000Y-110906000D02*
X129636000Y-110906000D01*
X129636000Y-112106000D02*
X128936000Y-112106000D01*
X104281000Y-111344000D02*
X104281000Y-110144000D01*
X106031000Y-110144000D02*
X106031000Y-111344000D01*
X108046000Y-120996000D02*
X107346000Y-120996000D01*
X107346000Y-119796000D02*
X108046000Y-119796000D01*
X108046000Y-119472000D02*
X107346000Y-119472000D01*
X107346000Y-118272000D02*
X108046000Y-118272000D01*
X107788000Y-115982000D02*
X107788000Y-116682000D01*
X106588000Y-116682000D02*
X106588000Y-115982000D01*
X101758000Y-109636000D02*
X102458000Y-109636000D01*
X102458000Y-110836000D02*
X101758000Y-110836000D01*
X101057000Y-118407000D02*
X101202000Y-118407000D01*
X101057000Y-114257000D02*
X101202000Y-114257000D01*
X106207000Y-114257000D02*
X106062000Y-114257000D01*
X106207000Y-118407000D02*
X106062000Y-118407000D01*
X101057000Y-118407000D02*
X101057000Y-114257000D01*
X106207000Y-118407000D02*
X106207000Y-114257000D01*
X101202000Y-118407000D02*
X101202000Y-119807000D01*
X101758000Y-111160000D02*
X102458000Y-111160000D01*
X102458000Y-112360000D02*
X101758000Y-112360000D01*
X113950000Y-111160000D02*
X114650000Y-111160000D01*
X114650000Y-112360000D02*
X113950000Y-112360000D01*
X121261000Y-123039000D02*
X121261000Y-123289000D01*
X124611000Y-123039000D02*
X124611000Y-123289000D01*
X124611000Y-126389000D02*
X124611000Y-126139000D01*
X121261000Y-126389000D02*
X121261000Y-126139000D01*
X121261000Y-123039000D02*
X124611000Y-123039000D01*
X121261000Y-126389000D02*
X124611000Y-126389000D01*
X121261000Y-123289000D02*
X120011000Y-123289000D01*
D13*
X132838000Y-156972000D02*
X132838000Y-158456000D01*
X132838000Y-154940000D02*
X133338000Y-154940000D01*
X133338000Y-154940000D02*
X133338000Y-156972000D01*
X133338000Y-156972000D02*
X132838000Y-156972000D01*
X145038000Y-153456000D02*
X145038000Y-158456000D01*
X145038000Y-158456000D02*
X132838000Y-158456000D01*
X132838000Y-154940000D02*
X132838000Y-153456000D01*
X132838000Y-153456000D02*
X145038000Y-153456000D01*
D12*
X112514000Y-161212000D02*
G75*
G03X112514000Y-161212000I-100000J0D01*
G01*
X111764000Y-160962000D02*
X112264000Y-160962000D01*
X111764000Y-158062000D02*
X111764000Y-160962000D01*
X112264000Y-158062000D02*
X111764000Y-158062000D01*
X112264000Y-160962000D02*
X112264000Y-158062000D01*
X132172000Y-120763000D02*
X130972000Y-120763000D01*
X130972000Y-119013000D02*
X132172000Y-119013000D01*
X109312000Y-162165000D02*
X108112000Y-162165000D01*
X108112000Y-160415000D02*
X109312000Y-160415000D01*
X109312000Y-158609000D02*
X108112000Y-158609000D01*
X108112000Y-156859000D02*
X109312000Y-156859000D01*
X109128000Y-124347000D02*
X110328000Y-124347000D01*
X110328000Y-126097000D02*
X109128000Y-126097000D01*
X106059000Y-128108000D02*
X106059000Y-126908000D01*
X107809000Y-126908000D02*
X107809000Y-128108000D01*
X103540000Y-124347000D02*
X104740000Y-124347000D01*
X104740000Y-126097000D02*
X103540000Y-126097000D01*
X100471000Y-128108000D02*
X100471000Y-126908000D01*
X102221000Y-126908000D02*
X102221000Y-128108000D01*
X124391000Y-140658000D02*
X124916000Y-140658000D01*
X124391000Y-133408000D02*
X124916000Y-133408000D01*
X131641000Y-133408000D02*
X131116000Y-133408000D01*
X131641000Y-140658000D02*
X131116000Y-140658000D01*
X124391000Y-140658000D02*
X124391000Y-140133000D01*
X131641000Y-140658000D02*
X131641000Y-140133000D01*
X131641000Y-133408000D02*
X131641000Y-133933000D01*
X124391000Y-133408000D02*
X124391000Y-133933000D01*
X124916000Y-140658000D02*
X124916000Y-142033000D01*
X129135000Y-117245000D02*
X129385000Y-117245000D01*
X129135000Y-113895000D02*
X129385000Y-113895000D01*
X132485000Y-113895000D02*
X132235000Y-113895000D01*
X132485000Y-117245000D02*
X132235000Y-117245000D01*
X129135000Y-117245000D02*
X129135000Y-113895000D01*
X132485000Y-117245000D02*
X132485000Y-113895000D01*
X129385000Y-117245000D02*
X129385000Y-118495000D01*
X113249000Y-118407000D02*
X113394000Y-118407000D01*
X113249000Y-114257000D02*
X113394000Y-114257000D01*
X118399000Y-114257000D02*
X118254000Y-114257000D01*
X118399000Y-118407000D02*
X118254000Y-118407000D01*
X113249000Y-118407000D02*
X113249000Y-114257000D01*
X118399000Y-118407000D02*
X118399000Y-114257000D01*
X113394000Y-118407000D02*
X113394000Y-119807000D01*
X119402000Y-158196000D02*
G75*
G03X119402000Y-158196000I-100000J0D01*
G01*
X119052000Y-158746000D02*
X119052000Y-158246000D01*
X116152000Y-158746000D02*
X119052000Y-158746000D01*
X116152000Y-158246000D02*
X116152000Y-158746000D01*
X119052000Y-158246000D02*
X116152000Y-158246000D01*
X120147000Y-159047000D02*
X120252000Y-159047000D01*
X120147000Y-154897000D02*
X120252000Y-154897000D01*
X130297000Y-154897000D02*
X130192000Y-154897000D01*
X130297000Y-159047000D02*
X130192000Y-159047000D01*
X120147000Y-159047000D02*
X120147000Y-154897000D01*
X130297000Y-159047000D02*
X130297000Y-154897000D01*
X120252000Y-159047000D02*
X120252000Y-160422000D01*
X122590000Y-131160000D02*
X122590000Y-130460000D01*
X123790000Y-130460000D02*
X123790000Y-131160000D01*
X132242000Y-131160000D02*
X132242000Y-130460000D01*
X133442000Y-130460000D02*
X133442000Y-131160000D01*
X125380000Y-130718000D02*
X126080000Y-130718000D01*
X126080000Y-131918000D02*
X125380000Y-131918000D01*
X130652000Y-131918000D02*
X129952000Y-131918000D01*
X129952000Y-130718000D02*
X130652000Y-130718000D01*
X125572000Y-130648000D02*
X124872000Y-130648000D01*
X124872000Y-129448000D02*
X125572000Y-129448000D01*
X130460000Y-129448000D02*
X131160000Y-129448000D01*
X131160000Y-130648000D02*
X130460000Y-130648000D01*
X132426000Y-141382000D02*
X132426000Y-142082000D01*
X131226000Y-142082000D02*
X131226000Y-141382000D01*
X128936000Y-109382000D02*
X129636000Y-109382000D01*
X129636000Y-110582000D02*
X128936000Y-110582000D01*
X134462000Y-118964000D02*
X133762000Y-118964000D01*
X133762000Y-117764000D02*
X134462000Y-117764000D01*
X113950000Y-109636000D02*
X114650000Y-109636000D01*
X114650000Y-110836000D02*
X113950000Y-110836000D01*
X119980000Y-115982000D02*
X119980000Y-116682000D01*
X118780000Y-116682000D02*
X118780000Y-115982000D01*
X120238000Y-119472000D02*
X119538000Y-119472000D01*
X119538000Y-118272000D02*
X120238000Y-118272000D01*
X120238000Y-120996000D02*
X119538000Y-120996000D01*
X119538000Y-119796000D02*
X120238000Y-119796000D01*
X130968000Y-123606000D02*
X131668000Y-123606000D01*
X131668000Y-124806000D02*
X130968000Y-124806000D01*
X124810000Y-127854000D02*
X124110000Y-127854000D01*
X124110000Y-126654000D02*
X124810000Y-126654000D01*
X108935000Y-134585000D02*
X108235000Y-134585000D01*
X108235000Y-133385000D02*
X108935000Y-133385000D01*
X110078000Y-127346000D02*
X109378000Y-127346000D01*
X109378000Y-126146000D02*
X110078000Y-126146000D01*
X114900000Y-158400000D02*
X114900000Y-159100000D01*
X113700000Y-159100000D02*
X113700000Y-158400000D01*
X103474000Y-134712000D02*
X102774000Y-134712000D01*
X102774000Y-133512000D02*
X103474000Y-133512000D01*
X104490000Y-127346000D02*
X103790000Y-127346000D01*
X103790000Y-126146000D02*
X104490000Y-126146000D01*
X122626878Y-135812231D02*
G75*
G03X122612000Y-134418000I-1214878J684231D01*
G01*
X120197122Y-134443769D02*
G75*
G03X120212000Y-135838000I1214878J-684231D01*
G01*
X120197122Y-137745769D02*
G75*
G03X120212000Y-139140000I1214878J-684231D01*
G01*
X122626878Y-139114231D02*
G75*
G03X122612000Y-137720000I-1214878J684231D01*
G01*
X135834878Y-135812231D02*
G75*
G03X135820000Y-134418000I-1214878J684231D01*
G01*
X133405122Y-134443769D02*
G75*
G03X133420000Y-135838000I1214878J-684231D01*
G01*
X133405122Y-137745769D02*
G75*
G03X133420000Y-139140000I1214878J-684231D01*
G01*
X135834878Y-139114231D02*
G75*
G03X135820000Y-137720000I-1214878J684231D01*
G01*
X123620231Y-143057122D02*
G75*
G03X122226000Y-143072000I-684231J-1214878D01*
G01*
X122251769Y-145486878D02*
G75*
G03X123646000Y-145472000I684231J1214878D01*
G01*
X134517000Y-128421000D02*
X134517000Y-128171000D01*
X131167000Y-128421000D02*
X131167000Y-128171000D01*
X131167000Y-125071000D02*
X131167000Y-125321000D01*
X134517000Y-125071000D02*
X134517000Y-125321000D01*
X134517000Y-128421000D02*
X131167000Y-128421000D01*
X134517000Y-125071000D02*
X131167000Y-125071000D01*
X134517000Y-128171000D02*
X135767000Y-128171000D01*
X120808000Y-160944000D02*
X121508000Y-160944000D01*
X121508000Y-162144000D02*
X120808000Y-162144000D01*
D16*
X110998000Y-129540000D02*
G75*
G03X110998000Y-129540000I-254000J0D01*
G01*
X108204000Y-129032000D02*
X111252000Y-129032000D01*
X111252000Y-129032000D02*
X111252000Y-132080000D01*
X111252000Y-132080000D02*
X108204000Y-132080000D01*
X108204000Y-132080000D02*
X108204000Y-129032000D01*
D12*
X116473000Y-111344000D02*
X116473000Y-110144000D01*
X118223000Y-110144000D02*
X118223000Y-111344000D01*
D15*
X134739380Y-92991940D02*
X134739380Y-92047060D01*
X129420620Y-92991940D02*
X129420620Y-92047060D01*
X129420620Y-101498400D02*
X129420620Y-97718880D01*
X134739380Y-101498400D02*
X134739380Y-97718880D01*
X128887220Y-93306900D02*
X132346700Y-92991940D01*
X135272780Y-97088960D02*
X129420620Y-97718880D01*
X128887220Y-97088960D02*
X135272780Y-96459040D01*
X128887220Y-96459040D02*
X135272780Y-95829120D01*
X128887220Y-95829120D02*
X135272780Y-95199200D01*
X128887220Y-95199200D02*
X135272780Y-94566740D01*
X128887220Y-94566740D02*
X135272780Y-93936820D01*
X128887220Y-93936820D02*
X135272780Y-93306900D01*
X128887220Y-93306900D02*
X129420620Y-92991940D01*
X129420620Y-92991940D02*
X134739380Y-92991940D01*
X134739380Y-92991940D02*
X135272780Y-93306900D01*
X135272780Y-93306900D02*
X135272780Y-97403920D01*
X135272780Y-97403920D02*
X134739380Y-97718880D01*
X134739380Y-97718880D02*
X129420620Y-97718880D01*
X129420620Y-97718880D02*
X128887220Y-97403920D01*
X128887220Y-97403920D02*
X128887220Y-93306900D01*
X134739380Y-92047060D02*
X129420620Y-92047060D01*
X128930400Y-101498400D02*
X135229600Y-101498400D01*
X135229600Y-101498400D02*
X135229600Y-107797600D01*
X135229600Y-107797600D02*
X128930400Y-107797600D01*
X128930400Y-107797600D02*
X128930400Y-101498400D01*
D12*
X136890000Y-141019000D02*
X134890000Y-141019000D01*
X134890000Y-143969000D02*
X136890000Y-143969000D01*
X146558000Y-146558000D02*
X149098000Y-146558000D01*
X143738000Y-146278000D02*
X145288000Y-146278000D01*
X146558000Y-146558000D02*
X146558000Y-149098000D01*
X145288000Y-149378000D02*
X143738000Y-149378000D01*
X143738000Y-149378000D02*
X143738000Y-146278000D01*
X146558000Y-149098000D02*
X149098000Y-149098000D01*
X149098000Y-149098000D02*
X149098000Y-146558000D01*
D15*
X107815380Y-92991940D02*
X107815380Y-92047060D01*
X102496620Y-92991940D02*
X102496620Y-92047060D01*
X102496620Y-101498400D02*
X102496620Y-97718880D01*
X107815380Y-101498400D02*
X107815380Y-97718880D01*
X101963220Y-93306900D02*
X105422700Y-92991940D01*
X108348780Y-97088960D02*
X102496620Y-97718880D01*
X101963220Y-97088960D02*
X108348780Y-96459040D01*
X101963220Y-96459040D02*
X108348780Y-95829120D01*
X101963220Y-95829120D02*
X108348780Y-95199200D01*
X101963220Y-95199200D02*
X108348780Y-94566740D01*
X101963220Y-94566740D02*
X108348780Y-93936820D01*
X101963220Y-93936820D02*
X108348780Y-93306900D01*
X101963220Y-93306900D02*
X102496620Y-92991940D01*
X102496620Y-92991940D02*
X107815380Y-92991940D01*
X107815380Y-92991940D02*
X108348780Y-93306900D01*
X108348780Y-93306900D02*
X108348780Y-97403920D01*
X108348780Y-97403920D02*
X107815380Y-97718880D01*
X107815380Y-97718880D02*
X102496620Y-97718880D01*
X102496620Y-97718880D02*
X101963220Y-97403920D01*
X101963220Y-97403920D02*
X101963220Y-93306900D01*
X107815380Y-92047060D02*
X102496620Y-92047060D01*
X102006400Y-101498400D02*
X108305600Y-101498400D01*
X108305600Y-101498400D02*
X108305600Y-107797600D01*
X108305600Y-107797600D02*
X102006400Y-107797600D01*
X102006400Y-107797600D02*
X102006400Y-101498400D01*
X120007380Y-92991940D02*
X120007380Y-92047060D01*
X114688620Y-92991940D02*
X114688620Y-92047060D01*
X114688620Y-101498400D02*
X114688620Y-97718880D01*
X120007380Y-101498400D02*
X120007380Y-97718880D01*
X114155220Y-93306900D02*
X117614700Y-92991940D01*
X120540780Y-97088960D02*
X114688620Y-97718880D01*
X114155220Y-97088960D02*
X120540780Y-96459040D01*
X114155220Y-96459040D02*
X120540780Y-95829120D01*
X114155220Y-95829120D02*
X120540780Y-95199200D01*
X114155220Y-95199200D02*
X120540780Y-94566740D01*
X114155220Y-94566740D02*
X120540780Y-93936820D01*
X114155220Y-93936820D02*
X120540780Y-93306900D01*
X114155220Y-93306900D02*
X114688620Y-92991940D01*
X114688620Y-92991940D02*
X120007380Y-92991940D01*
X120007380Y-92991940D02*
X120540780Y-93306900D01*
X120540780Y-93306900D02*
X120540780Y-97403920D01*
X120540780Y-97403920D02*
X120007380Y-97718880D01*
X120007380Y-97718880D02*
X114688620Y-97718880D01*
X114688620Y-97718880D02*
X114155220Y-97403920D01*
X114155220Y-97403920D02*
X114155220Y-93306900D01*
X120007380Y-92047060D02*
X114688620Y-92047060D01*
X114198400Y-101498400D02*
X120497600Y-101498400D01*
X120497600Y-101498400D02*
X120497600Y-107797600D01*
X120497600Y-107797600D02*
X114198400Y-107797600D01*
X114198400Y-107797600D02*
X114198400Y-101498400D01*
D12*
X125373000Y-150630000D02*
X125373000Y-151630000D01*
X122023000Y-150630000D02*
X122023000Y-151630000D01*
X134462000Y-117440000D02*
X133762000Y-117440000D01*
X133762000Y-116240000D02*
X134462000Y-116240000D01*
X125617000Y-152238000D02*
X125617000Y-151038000D01*
X127367000Y-151038000D02*
X127367000Y-152238000D01*
X109312000Y-160387000D02*
X108112000Y-160387000D01*
X108112000Y-158637000D02*
X109312000Y-158637000D01*
X104486000Y-160432000D02*
X104486000Y-161132000D01*
X103286000Y-161132000D02*
X103286000Y-160432000D01*
X107026000Y-160432000D02*
X107026000Y-161132000D01*
X105826000Y-161132000D02*
X105826000Y-160432000D01*
X103856840Y-159146240D02*
X103905100Y-159146240D01*
X106655820Y-158445200D02*
X106655820Y-159146240D01*
X106655820Y-159146240D02*
X106406900Y-159146240D01*
X103856840Y-159146240D02*
X103656180Y-159146240D01*
X103656180Y-159146240D02*
X103656180Y-158445200D01*
D17*
X139954000Y-144724000D02*
X139954000Y-125024000D01*
X137104000Y-147574000D02*
X117404000Y-147574000D01*
X139954000Y-144724000D02*
G75*
G02X137104000Y-147574000I-2850000J0D01*
G01*
X114554000Y-144724000D02*
G75*
G03X117404000Y-147574000I2850000J0D01*
G01*
X139954000Y-125024000D02*
G75*
G03X137104000Y-122174000I-2850000J0D01*
G01*
X114554000Y-125024000D02*
G75*
G02X117404000Y-122174000I2850000J0D01*
G01*
X114554000Y-144724000D02*
X114554000Y-125024000D01*
X137104000Y-122174000D02*
X117404000Y-122174000D01*
D11*
X148652667Y-105164666D02*
X147952667Y-105164666D01*
X147952667Y-104898000D01*
X147986000Y-104831333D01*
X148019333Y-104798000D01*
X148086000Y-104764666D01*
X148186000Y-104764666D01*
X148252667Y-104798000D01*
X148286000Y-104831333D01*
X148319333Y-104898000D01*
X148319333Y-105164666D01*
X147952667Y-104131333D02*
X147952667Y-104464666D01*
X148286000Y-104498000D01*
X148252667Y-104464666D01*
X148219333Y-104398000D01*
X148219333Y-104231333D01*
X148252667Y-104164666D01*
X148286000Y-104131333D01*
X148352667Y-104098000D01*
X148519333Y-104098000D01*
X148586000Y-104131333D01*
X148619333Y-104164666D01*
X148652667Y-104231333D01*
X148652667Y-104398000D01*
X148619333Y-104464666D01*
X148586000Y-104498000D01*
X145158667Y-140312666D02*
X145725333Y-140312666D01*
X145792000Y-140279333D01*
X145825333Y-140246000D01*
X145858667Y-140179333D01*
X145858667Y-140046000D01*
X145825333Y-139979333D01*
X145792000Y-139946000D01*
X145725333Y-139912666D01*
X145158667Y-139912666D01*
X145858667Y-139212667D02*
X145858667Y-139612667D01*
X145858667Y-139412667D02*
X145158667Y-139412667D01*
X145258667Y-139479333D01*
X145325333Y-139546000D01*
X145358667Y-139612667D01*
X145225333Y-138946000D02*
X145192000Y-138912666D01*
X145158667Y-138846000D01*
X145158667Y-138679333D01*
X145192000Y-138612666D01*
X145225333Y-138579333D01*
X145292000Y-138546000D01*
X145358667Y-138546000D01*
X145458667Y-138579333D01*
X145858667Y-138979333D01*
X145858667Y-138546000D01*
X143441000Y-131441000D02*
X143407666Y-131474333D01*
X143307666Y-131507667D01*
X143241000Y-131507667D01*
X143141000Y-131474333D01*
X143074333Y-131407667D01*
X143041000Y-131341000D01*
X143007666Y-131207667D01*
X143007666Y-131107667D01*
X143041000Y-130974333D01*
X143074333Y-130907667D01*
X143141000Y-130841000D01*
X143241000Y-130807667D01*
X143307666Y-130807667D01*
X143407666Y-130841000D01*
X143441000Y-130874333D01*
X144074333Y-130807667D02*
X143741000Y-130807667D01*
X143707666Y-131141000D01*
X143741000Y-131107667D01*
X143807666Y-131074333D01*
X143974333Y-131074333D01*
X144041000Y-131107667D01*
X144074333Y-131141000D01*
X144107666Y-131207667D01*
X144107666Y-131374333D01*
X144074333Y-131441000D01*
X144041000Y-131474333D01*
X143974333Y-131507667D01*
X143807666Y-131507667D01*
X143741000Y-131474333D01*
X143707666Y-131441000D01*
X144707667Y-131041000D02*
X144707667Y-131507667D01*
X144541000Y-130774333D02*
X144374333Y-131274333D01*
X144807667Y-131274333D01*
X106738000Y-155764667D02*
X106504666Y-155431333D01*
X106338000Y-155764667D02*
X106338000Y-155064667D01*
X106604666Y-155064667D01*
X106671333Y-155098000D01*
X106704666Y-155131333D01*
X106738000Y-155198000D01*
X106738000Y-155298000D01*
X106704666Y-155364667D01*
X106671333Y-155398000D01*
X106604666Y-155431333D01*
X106338000Y-155431333D01*
X107404666Y-155764667D02*
X107004666Y-155764667D01*
X107204666Y-155764667D02*
X107204666Y-155064667D01*
X107138000Y-155164667D01*
X107071333Y-155231333D01*
X107004666Y-155264667D01*
X107804667Y-155364667D02*
X107738000Y-155331333D01*
X107704667Y-155298000D01*
X107671333Y-155231333D01*
X107671333Y-155198000D01*
X107704667Y-155131333D01*
X107738000Y-155098000D01*
X107804667Y-155064667D01*
X107938000Y-155064667D01*
X108004667Y-155098000D01*
X108038000Y-155131333D01*
X108071333Y-155198000D01*
X108071333Y-155231333D01*
X108038000Y-155298000D01*
X108004667Y-155331333D01*
X107938000Y-155364667D01*
X107804667Y-155364667D01*
X107738000Y-155398000D01*
X107704667Y-155431333D01*
X107671333Y-155498000D01*
X107671333Y-155631333D01*
X107704667Y-155698000D01*
X107738000Y-155731333D01*
X107804667Y-155764667D01*
X107938000Y-155764667D01*
X108004667Y-155731333D01*
X108038000Y-155698000D01*
X108071333Y-155631333D01*
X108071333Y-155498000D01*
X108038000Y-155431333D01*
X108004667Y-155398000D01*
X107938000Y-155364667D01*
X112326000Y-151446667D02*
X112092666Y-151113333D01*
X111926000Y-151446667D02*
X111926000Y-150746667D01*
X112192666Y-150746667D01*
X112259333Y-150780000D01*
X112292666Y-150813333D01*
X112326000Y-150880000D01*
X112326000Y-150980000D01*
X112292666Y-151046667D01*
X112259333Y-151080000D01*
X112192666Y-151113333D01*
X111926000Y-151113333D01*
X112992666Y-151446667D02*
X112592666Y-151446667D01*
X112792666Y-151446667D02*
X112792666Y-150746667D01*
X112726000Y-150846667D01*
X112659333Y-150913333D01*
X112592666Y-150946667D01*
X113326000Y-151446667D02*
X113459333Y-151446667D01*
X113526000Y-151413333D01*
X113559333Y-151380000D01*
X113626000Y-151280000D01*
X113659333Y-151146667D01*
X113659333Y-150880000D01*
X113626000Y-150813333D01*
X113592667Y-150780000D01*
X113526000Y-150746667D01*
X113392667Y-150746667D01*
X113326000Y-150780000D01*
X113292667Y-150813333D01*
X113259333Y-150880000D01*
X113259333Y-151046667D01*
X113292667Y-151113333D01*
X113326000Y-151146667D01*
X113392667Y-151180000D01*
X113526000Y-151180000D01*
X113592667Y-151146667D01*
X113626000Y-151113333D01*
X113659333Y-151046667D01*
X111756000Y-146246000D02*
X111789333Y-146279334D01*
X111822667Y-146379334D01*
X111822667Y-146446000D01*
X111789333Y-146546000D01*
X111722667Y-146612667D01*
X111656000Y-146646000D01*
X111522667Y-146679334D01*
X111422667Y-146679334D01*
X111289333Y-146646000D01*
X111222667Y-146612667D01*
X111156000Y-146546000D01*
X111122667Y-146446000D01*
X111122667Y-146379334D01*
X111156000Y-146279334D01*
X111189333Y-146246000D01*
X111122667Y-145612667D02*
X111122667Y-145946000D01*
X111456000Y-145979334D01*
X111422667Y-145946000D01*
X111389333Y-145879334D01*
X111389333Y-145712667D01*
X111422667Y-145646000D01*
X111456000Y-145612667D01*
X111522667Y-145579334D01*
X111689333Y-145579334D01*
X111756000Y-145612667D01*
X111789333Y-145646000D01*
X111822667Y-145712667D01*
X111822667Y-145879334D01*
X111789333Y-145946000D01*
X111756000Y-145979334D01*
X111122667Y-144979333D02*
X111122667Y-145112667D01*
X111156000Y-145179333D01*
X111189333Y-145212667D01*
X111289333Y-145279333D01*
X111422667Y-145312667D01*
X111689333Y-145312667D01*
X111756000Y-145279333D01*
X111789333Y-145246000D01*
X111822667Y-145179333D01*
X111822667Y-145046000D01*
X111789333Y-144979333D01*
X111756000Y-144946000D01*
X111689333Y-144912667D01*
X111522667Y-144912667D01*
X111456000Y-144946000D01*
X111422667Y-144979333D01*
X111389333Y-145046000D01*
X111389333Y-145179333D01*
X111422667Y-145246000D01*
X111456000Y-145279333D01*
X111522667Y-145312667D01*
X106230000Y-154174000D02*
X106196666Y-154207333D01*
X106096666Y-154240667D01*
X106030000Y-154240667D01*
X105930000Y-154207333D01*
X105863333Y-154140667D01*
X105830000Y-154074000D01*
X105796666Y-153940667D01*
X105796666Y-153840667D01*
X105830000Y-153707333D01*
X105863333Y-153640667D01*
X105930000Y-153574000D01*
X106030000Y-153540667D01*
X106096666Y-153540667D01*
X106196666Y-153574000D01*
X106230000Y-153607333D01*
X106863333Y-153540667D02*
X106530000Y-153540667D01*
X106496666Y-153874000D01*
X106530000Y-153840667D01*
X106596666Y-153807333D01*
X106763333Y-153807333D01*
X106830000Y-153840667D01*
X106863333Y-153874000D01*
X106896666Y-153940667D01*
X106896666Y-154107333D01*
X106863333Y-154174000D01*
X106830000Y-154207333D01*
X106763333Y-154240667D01*
X106596666Y-154240667D01*
X106530000Y-154207333D01*
X106496666Y-154174000D01*
X107230000Y-154240667D02*
X107363333Y-154240667D01*
X107430000Y-154207333D01*
X107463333Y-154174000D01*
X107530000Y-154074000D01*
X107563333Y-153940667D01*
X107563333Y-153674000D01*
X107530000Y-153607333D01*
X107496667Y-153574000D01*
X107430000Y-153540667D01*
X107296667Y-153540667D01*
X107230000Y-153574000D01*
X107196667Y-153607333D01*
X107163333Y-153674000D01*
X107163333Y-153840667D01*
X107196667Y-153907333D01*
X107230000Y-153940667D01*
X107296667Y-153974000D01*
X107430000Y-153974000D01*
X107496667Y-153940667D01*
X107530000Y-153907333D01*
X107563333Y-153840667D01*
X111884667Y-150218666D02*
X112451333Y-150218666D01*
X112518000Y-150185333D01*
X112551333Y-150152000D01*
X112584667Y-150085333D01*
X112584667Y-149952000D01*
X112551333Y-149885333D01*
X112518000Y-149852000D01*
X112451333Y-149818666D01*
X111884667Y-149818666D01*
X112584667Y-149118667D02*
X112584667Y-149518667D01*
X112584667Y-149318667D02*
X111884667Y-149318667D01*
X111984667Y-149385333D01*
X112051333Y-149452000D01*
X112084667Y-149518667D01*
X111884667Y-148685333D02*
X111884667Y-148618666D01*
X111918000Y-148552000D01*
X111951333Y-148518666D01*
X112018000Y-148485333D01*
X112151333Y-148452000D01*
X112318000Y-148452000D01*
X112451333Y-148485333D01*
X112518000Y-148518666D01*
X112551333Y-148552000D01*
X112584667Y-148618666D01*
X112584667Y-148685333D01*
X112551333Y-148752000D01*
X112518000Y-148785333D01*
X112451333Y-148818666D01*
X112318000Y-148852000D01*
X112151333Y-148852000D01*
X112018000Y-148818666D01*
X111951333Y-148785333D01*
X111918000Y-148752000D01*
X111884667Y-148685333D01*
X145158667Y-129057333D02*
X145725333Y-129057333D01*
X145792000Y-129024000D01*
X145825333Y-128990667D01*
X145858667Y-128924000D01*
X145858667Y-128790667D01*
X145825333Y-128724000D01*
X145792000Y-128690667D01*
X145725333Y-128657333D01*
X145158667Y-128657333D01*
X145458667Y-128224000D02*
X145425333Y-128290667D01*
X145392000Y-128324000D01*
X145325333Y-128357334D01*
X145292000Y-128357334D01*
X145225333Y-128324000D01*
X145192000Y-128290667D01*
X145158667Y-128224000D01*
X145158667Y-128090667D01*
X145192000Y-128024000D01*
X145225333Y-127990667D01*
X145292000Y-127957334D01*
X145325333Y-127957334D01*
X145392000Y-127990667D01*
X145425333Y-128024000D01*
X145458667Y-128090667D01*
X145458667Y-128224000D01*
X145492000Y-128290667D01*
X145525333Y-128324000D01*
X145592000Y-128357334D01*
X145725333Y-128357334D01*
X145792000Y-128324000D01*
X145825333Y-128290667D01*
X145858667Y-128224000D01*
X145858667Y-128090667D01*
X145825333Y-128024000D01*
X145792000Y-127990667D01*
X145725333Y-127957334D01*
X145592000Y-127957334D01*
X145525333Y-127990667D01*
X145492000Y-128024000D01*
X145458667Y-128090667D01*
X144330000Y-122678000D02*
X144296666Y-122711333D01*
X144196666Y-122744667D01*
X144130000Y-122744667D01*
X144030000Y-122711333D01*
X143963333Y-122644667D01*
X143930000Y-122578000D01*
X143896666Y-122444667D01*
X143896666Y-122344667D01*
X143930000Y-122211333D01*
X143963333Y-122144667D01*
X144030000Y-122078000D01*
X144130000Y-122044667D01*
X144196666Y-122044667D01*
X144296666Y-122078000D01*
X144330000Y-122111333D01*
X144963333Y-122044667D02*
X144630000Y-122044667D01*
X144596666Y-122378000D01*
X144630000Y-122344667D01*
X144696666Y-122311333D01*
X144863333Y-122311333D01*
X144930000Y-122344667D01*
X144963333Y-122378000D01*
X144996666Y-122444667D01*
X144996666Y-122611333D01*
X144963333Y-122678000D01*
X144930000Y-122711333D01*
X144863333Y-122744667D01*
X144696666Y-122744667D01*
X144630000Y-122711333D01*
X144596666Y-122678000D01*
X145230000Y-122044667D02*
X145696667Y-122044667D01*
X145396667Y-122744667D01*
X144330000Y-127062667D02*
X144096666Y-126729333D01*
X143930000Y-127062667D02*
X143930000Y-126362667D01*
X144196666Y-126362667D01*
X144263333Y-126396000D01*
X144296666Y-126429333D01*
X144330000Y-126496000D01*
X144330000Y-126596000D01*
X144296666Y-126662667D01*
X144263333Y-126696000D01*
X144196666Y-126729333D01*
X143930000Y-126729333D01*
X144996666Y-127062667D02*
X144596666Y-127062667D01*
X144796666Y-127062667D02*
X144796666Y-126362667D01*
X144730000Y-126462667D01*
X144663333Y-126529333D01*
X144596666Y-126562667D01*
X145630000Y-126362667D02*
X145296667Y-126362667D01*
X145263333Y-126696000D01*
X145296667Y-126662667D01*
X145363333Y-126629333D01*
X145530000Y-126629333D01*
X145596667Y-126662667D01*
X145630000Y-126696000D01*
X145663333Y-126762667D01*
X145663333Y-126929333D01*
X145630000Y-126996000D01*
X145596667Y-127029333D01*
X145530000Y-127062667D01*
X145363333Y-127062667D01*
X145296667Y-127029333D01*
X145263333Y-126996000D01*
X147124000Y-121220667D02*
X146890666Y-120887333D01*
X146724000Y-121220667D02*
X146724000Y-120520667D01*
X146990666Y-120520667D01*
X147057333Y-120554000D01*
X147090666Y-120587333D01*
X147124000Y-120654000D01*
X147124000Y-120754000D01*
X147090666Y-120820667D01*
X147057333Y-120854000D01*
X146990666Y-120887333D01*
X146724000Y-120887333D01*
X147790666Y-121220667D02*
X147390666Y-121220667D01*
X147590666Y-121220667D02*
X147590666Y-120520667D01*
X147524000Y-120620667D01*
X147457333Y-120687333D01*
X147390666Y-120720667D01*
X148390667Y-120754000D02*
X148390667Y-121220667D01*
X148224000Y-120487333D02*
X148057333Y-120987333D01*
X148490667Y-120987333D01*
X144330000Y-138238667D02*
X144096666Y-137905333D01*
X143930000Y-138238667D02*
X143930000Y-137538667D01*
X144196666Y-137538667D01*
X144263333Y-137572000D01*
X144296666Y-137605333D01*
X144330000Y-137672000D01*
X144330000Y-137772000D01*
X144296666Y-137838667D01*
X144263333Y-137872000D01*
X144196666Y-137905333D01*
X143930000Y-137905333D01*
X144596666Y-137605333D02*
X144630000Y-137572000D01*
X144696666Y-137538667D01*
X144863333Y-137538667D01*
X144930000Y-137572000D01*
X144963333Y-137605333D01*
X144996666Y-137672000D01*
X144996666Y-137738667D01*
X144963333Y-137838667D01*
X144563333Y-138238667D01*
X144996666Y-138238667D01*
X145263333Y-137605333D02*
X145296667Y-137572000D01*
X145363333Y-137538667D01*
X145530000Y-137538667D01*
X145596667Y-137572000D01*
X145630000Y-137605333D01*
X145663333Y-137672000D01*
X145663333Y-137738667D01*
X145630000Y-137838667D01*
X145230000Y-138238667D01*
X145663333Y-138238667D01*
X144076000Y-133854000D02*
X144042666Y-133887333D01*
X143942666Y-133920667D01*
X143876000Y-133920667D01*
X143776000Y-133887333D01*
X143709333Y-133820667D01*
X143676000Y-133754000D01*
X143642666Y-133620667D01*
X143642666Y-133520667D01*
X143676000Y-133387333D01*
X143709333Y-133320667D01*
X143776000Y-133254000D01*
X143876000Y-133220667D01*
X143942666Y-133220667D01*
X144042666Y-133254000D01*
X144076000Y-133287333D01*
X144676000Y-133220667D02*
X144542666Y-133220667D01*
X144476000Y-133254000D01*
X144442666Y-133287333D01*
X144376000Y-133387333D01*
X144342666Y-133520667D01*
X144342666Y-133787333D01*
X144376000Y-133854000D01*
X144409333Y-133887333D01*
X144476000Y-133920667D01*
X144609333Y-133920667D01*
X144676000Y-133887333D01*
X144709333Y-133854000D01*
X144742666Y-133787333D01*
X144742666Y-133620667D01*
X144709333Y-133554000D01*
X144676000Y-133520667D01*
X144609333Y-133487333D01*
X144476000Y-133487333D01*
X144409333Y-133520667D01*
X144376000Y-133554000D01*
X144342666Y-133620667D01*
X145142667Y-133520667D02*
X145076000Y-133487333D01*
X145042667Y-133454000D01*
X145009333Y-133387333D01*
X145009333Y-133354000D01*
X145042667Y-133287333D01*
X145076000Y-133254000D01*
X145142667Y-133220667D01*
X145276000Y-133220667D01*
X145342667Y-133254000D01*
X145376000Y-133287333D01*
X145409333Y-133354000D01*
X145409333Y-133387333D01*
X145376000Y-133454000D01*
X145342667Y-133487333D01*
X145276000Y-133520667D01*
X145142667Y-133520667D01*
X145076000Y-133554000D01*
X145042667Y-133587333D01*
X145009333Y-133654000D01*
X145009333Y-133787333D01*
X145042667Y-133854000D01*
X145076000Y-133887333D01*
X145142667Y-133920667D01*
X145276000Y-133920667D01*
X145342667Y-133887333D01*
X145376000Y-133854000D01*
X145409333Y-133787333D01*
X145409333Y-133654000D01*
X145376000Y-133587333D01*
X145342667Y-133554000D01*
X145276000Y-133520667D01*
X146108000Y-143760000D02*
X146074666Y-143793333D01*
X145974666Y-143826667D01*
X145908000Y-143826667D01*
X145808000Y-143793333D01*
X145741333Y-143726667D01*
X145708000Y-143660000D01*
X145674666Y-143526667D01*
X145674666Y-143426667D01*
X145708000Y-143293333D01*
X145741333Y-143226667D01*
X145808000Y-143160000D01*
X145908000Y-143126667D01*
X145974666Y-143126667D01*
X146074666Y-143160000D01*
X146108000Y-143193333D01*
X146708000Y-143126667D02*
X146574666Y-143126667D01*
X146508000Y-143160000D01*
X146474666Y-143193333D01*
X146408000Y-143293333D01*
X146374666Y-143426667D01*
X146374666Y-143693333D01*
X146408000Y-143760000D01*
X146441333Y-143793333D01*
X146508000Y-143826667D01*
X146641333Y-143826667D01*
X146708000Y-143793333D01*
X146741333Y-143760000D01*
X146774666Y-143693333D01*
X146774666Y-143526667D01*
X146741333Y-143460000D01*
X146708000Y-143426667D01*
X146641333Y-143393333D01*
X146508000Y-143393333D01*
X146441333Y-143426667D01*
X146408000Y-143460000D01*
X146374666Y-143526667D01*
X147374667Y-143126667D02*
X147241333Y-143126667D01*
X147174667Y-143160000D01*
X147141333Y-143193333D01*
X147074667Y-143293333D01*
X147041333Y-143426667D01*
X147041333Y-143693333D01*
X147074667Y-143760000D01*
X147108000Y-143793333D01*
X147174667Y-143826667D01*
X147308000Y-143826667D01*
X147374667Y-143793333D01*
X147408000Y-143760000D01*
X147441333Y-143693333D01*
X147441333Y-143526667D01*
X147408000Y-143460000D01*
X147374667Y-143426667D01*
X147308000Y-143393333D01*
X147174667Y-143393333D01*
X147108000Y-143426667D01*
X147074667Y-143460000D01*
X147041333Y-143526667D01*
X144584000Y-132904667D02*
X144350666Y-132571333D01*
X144184000Y-132904667D02*
X144184000Y-132204667D01*
X144450666Y-132204667D01*
X144517333Y-132238000D01*
X144550666Y-132271333D01*
X144584000Y-132338000D01*
X144584000Y-132438000D01*
X144550666Y-132504667D01*
X144517333Y-132538000D01*
X144450666Y-132571333D01*
X144184000Y-132571333D01*
X144850666Y-132271333D02*
X144884000Y-132238000D01*
X144950666Y-132204667D01*
X145117333Y-132204667D01*
X145184000Y-132238000D01*
X145217333Y-132271333D01*
X145250666Y-132338000D01*
X145250666Y-132404667D01*
X145217333Y-132504667D01*
X144817333Y-132904667D01*
X145250666Y-132904667D01*
X145917333Y-132904667D02*
X145517333Y-132904667D01*
X145717333Y-132904667D02*
X145717333Y-132204667D01*
X145650667Y-132304667D01*
X145584000Y-132371333D01*
X145517333Y-132404667D01*
X120279334Y-142302667D02*
X120046000Y-141969333D01*
X119879334Y-142302667D02*
X119879334Y-141602667D01*
X120146000Y-141602667D01*
X120212667Y-141636000D01*
X120246000Y-141669333D01*
X120279334Y-141736000D01*
X120279334Y-141836000D01*
X120246000Y-141902667D01*
X120212667Y-141936000D01*
X120146000Y-141969333D01*
X119879334Y-141969333D01*
X120546000Y-141669333D02*
X120579334Y-141636000D01*
X120646000Y-141602667D01*
X120812667Y-141602667D01*
X120879334Y-141636000D01*
X120912667Y-141669333D01*
X120946000Y-141736000D01*
X120946000Y-141802667D01*
X120912667Y-141902667D01*
X120512667Y-142302667D01*
X120946000Y-142302667D01*
X126208001Y-143888667D02*
X126208001Y-144455333D01*
X126241334Y-144522000D01*
X126274667Y-144555333D01*
X126341334Y-144588667D01*
X126474667Y-144588667D01*
X126541334Y-144555333D01*
X126574667Y-144522000D01*
X126608001Y-144455333D01*
X126608001Y-143888667D01*
X126941334Y-144588667D02*
X126941334Y-143888667D01*
X127341334Y-144588667D01*
X127341334Y-143888667D01*
X127674667Y-144588667D02*
X127674667Y-143888667D01*
X127841333Y-144655333D02*
X128374666Y-144655333D01*
X128507999Y-144388667D02*
X128841333Y-144388667D01*
X128441333Y-144588667D02*
X128674666Y-143888667D01*
X128907999Y-144588667D01*
X108195334Y-139762667D02*
X108195334Y-139062667D01*
X108462000Y-139062667D01*
X108528667Y-139096000D01*
X108562000Y-139129333D01*
X108595334Y-139196000D01*
X108595334Y-139296000D01*
X108562000Y-139362667D01*
X108528667Y-139396000D01*
X108462000Y-139429333D01*
X108195334Y-139429333D01*
X108862000Y-139129333D02*
X108895334Y-139096000D01*
X108962000Y-139062667D01*
X109128667Y-139062667D01*
X109195334Y-139096000D01*
X109228667Y-139129333D01*
X109262000Y-139196000D01*
X109262000Y-139262667D01*
X109228667Y-139362667D01*
X108828667Y-139762667D01*
X109262000Y-139762667D01*
X106042667Y-131930666D02*
X106609333Y-131930666D01*
X106676000Y-131897333D01*
X106709333Y-131864000D01*
X106742667Y-131797333D01*
X106742667Y-131664000D01*
X106709333Y-131597333D01*
X106676000Y-131564000D01*
X106609333Y-131530666D01*
X106042667Y-131530666D01*
X106742667Y-130830667D02*
X106742667Y-131230667D01*
X106742667Y-131030667D02*
X106042667Y-131030667D01*
X106142667Y-131097333D01*
X106209333Y-131164000D01*
X106242667Y-131230667D01*
X106042667Y-130597333D02*
X106042667Y-130164000D01*
X106309333Y-130397333D01*
X106309333Y-130297333D01*
X106342667Y-130230666D01*
X106376000Y-130197333D01*
X106442667Y-130164000D01*
X106609333Y-130164000D01*
X106676000Y-130197333D01*
X106709333Y-130230666D01*
X106742667Y-130297333D01*
X106742667Y-130497333D01*
X106709333Y-130564000D01*
X106676000Y-130597333D01*
X146616000Y-115820000D02*
X146582666Y-115853333D01*
X146482666Y-115886667D01*
X146416000Y-115886667D01*
X146316000Y-115853333D01*
X146249333Y-115786667D01*
X146216000Y-115720000D01*
X146182666Y-115586667D01*
X146182666Y-115486667D01*
X146216000Y-115353333D01*
X146249333Y-115286667D01*
X146316000Y-115220000D01*
X146416000Y-115186667D01*
X146482666Y-115186667D01*
X146582666Y-115220000D01*
X146616000Y-115253333D01*
X147282666Y-115886667D02*
X146882666Y-115886667D01*
X147082666Y-115886667D02*
X147082666Y-115186667D01*
X147016000Y-115286667D01*
X146949333Y-115353333D01*
X146882666Y-115386667D01*
X147682667Y-115486667D02*
X147616000Y-115453333D01*
X147582667Y-115420000D01*
X147549333Y-115353333D01*
X147549333Y-115320000D01*
X147582667Y-115253333D01*
X147616000Y-115220000D01*
X147682667Y-115186667D01*
X147816000Y-115186667D01*
X147882667Y-115220000D01*
X147916000Y-115253333D01*
X147949333Y-115320000D01*
X147949333Y-115353333D01*
X147916000Y-115420000D01*
X147882667Y-115453333D01*
X147816000Y-115486667D01*
X147682667Y-115486667D01*
X147616000Y-115520000D01*
X147582667Y-115553333D01*
X147549333Y-115620000D01*
X147549333Y-115753333D01*
X147582667Y-115820000D01*
X147616000Y-115853333D01*
X147682667Y-115886667D01*
X147816000Y-115886667D01*
X147882667Y-115853333D01*
X147916000Y-115820000D01*
X147949333Y-115753333D01*
X147949333Y-115620000D01*
X147916000Y-115553333D01*
X147882667Y-115520000D01*
X147816000Y-115486667D01*
X145854000Y-119884000D02*
X145820666Y-119917333D01*
X145720666Y-119950667D01*
X145654000Y-119950667D01*
X145554000Y-119917333D01*
X145487333Y-119850667D01*
X145454000Y-119784000D01*
X145420666Y-119650667D01*
X145420666Y-119550667D01*
X145454000Y-119417333D01*
X145487333Y-119350667D01*
X145554000Y-119284000D01*
X145654000Y-119250667D01*
X145720666Y-119250667D01*
X145820666Y-119284000D01*
X145854000Y-119317333D01*
X146520666Y-119950667D02*
X146120666Y-119950667D01*
X146320666Y-119950667D02*
X146320666Y-119250667D01*
X146254000Y-119350667D01*
X146187333Y-119417333D01*
X146120666Y-119450667D01*
X146854000Y-119950667D02*
X146987333Y-119950667D01*
X147054000Y-119917333D01*
X147087333Y-119884000D01*
X147154000Y-119784000D01*
X147187333Y-119650667D01*
X147187333Y-119384000D01*
X147154000Y-119317333D01*
X147120667Y-119284000D01*
X147054000Y-119250667D01*
X146920667Y-119250667D01*
X146854000Y-119284000D01*
X146820667Y-119317333D01*
X146787333Y-119384000D01*
X146787333Y-119550667D01*
X146820667Y-119617333D01*
X146854000Y-119650667D01*
X146920667Y-119684000D01*
X147054000Y-119684000D01*
X147120667Y-119650667D01*
X147154000Y-119617333D01*
X147187333Y-119550667D01*
X143568000Y-110232000D02*
X143534666Y-110265333D01*
X143434666Y-110298667D01*
X143368000Y-110298667D01*
X143268000Y-110265333D01*
X143201333Y-110198667D01*
X143168000Y-110132000D01*
X143134666Y-109998667D01*
X143134666Y-109898667D01*
X143168000Y-109765333D01*
X143201333Y-109698667D01*
X143268000Y-109632000D01*
X143368000Y-109598667D01*
X143434666Y-109598667D01*
X143534666Y-109632000D01*
X143568000Y-109665333D01*
X144234666Y-110298667D02*
X143834666Y-110298667D01*
X144034666Y-110298667D02*
X144034666Y-109598667D01*
X143968000Y-109698667D01*
X143901333Y-109765333D01*
X143834666Y-109798667D01*
X144834667Y-109598667D02*
X144701333Y-109598667D01*
X144634667Y-109632000D01*
X144601333Y-109665333D01*
X144534667Y-109765333D01*
X144501333Y-109898667D01*
X144501333Y-110165333D01*
X144534667Y-110232000D01*
X144568000Y-110265333D01*
X144634667Y-110298667D01*
X144768000Y-110298667D01*
X144834667Y-110265333D01*
X144868000Y-110232000D01*
X144901333Y-110165333D01*
X144901333Y-109998667D01*
X144868000Y-109932000D01*
X144834667Y-109898667D01*
X144768000Y-109865333D01*
X144634667Y-109865333D01*
X144568000Y-109898667D01*
X144534667Y-109932000D01*
X144501333Y-109998667D01*
X140332667Y-116103333D02*
X140899333Y-116103333D01*
X140966000Y-116070000D01*
X140999333Y-116036667D01*
X141032667Y-115970000D01*
X141032667Y-115836667D01*
X140999333Y-115770000D01*
X140966000Y-115736667D01*
X140899333Y-115703333D01*
X140332667Y-115703333D01*
X140399333Y-115403334D02*
X140366000Y-115370000D01*
X140332667Y-115303334D01*
X140332667Y-115136667D01*
X140366000Y-115070000D01*
X140399333Y-115036667D01*
X140466000Y-115003334D01*
X140532667Y-115003334D01*
X140632667Y-115036667D01*
X141032667Y-115436667D01*
X141032667Y-115003334D01*
X143901334Y-120204667D02*
X143668000Y-119871333D01*
X143501334Y-120204667D02*
X143501334Y-119504667D01*
X143768000Y-119504667D01*
X143834667Y-119538000D01*
X143868000Y-119571333D01*
X143901334Y-119638000D01*
X143901334Y-119738000D01*
X143868000Y-119804667D01*
X143834667Y-119838000D01*
X143768000Y-119871333D01*
X143501334Y-119871333D01*
X144501334Y-119738000D02*
X144501334Y-120204667D01*
X144334667Y-119471333D02*
X144168000Y-119971333D01*
X144601334Y-119971333D01*
X143568000Y-111756000D02*
X143534666Y-111789333D01*
X143434666Y-111822667D01*
X143368000Y-111822667D01*
X143268000Y-111789333D01*
X143201333Y-111722667D01*
X143168000Y-111656000D01*
X143134666Y-111522667D01*
X143134666Y-111422667D01*
X143168000Y-111289333D01*
X143201333Y-111222667D01*
X143268000Y-111156000D01*
X143368000Y-111122667D01*
X143434666Y-111122667D01*
X143534666Y-111156000D01*
X143568000Y-111189333D01*
X144234666Y-111822667D02*
X143834666Y-111822667D01*
X144034666Y-111822667D02*
X144034666Y-111122667D01*
X143968000Y-111222667D01*
X143901333Y-111289333D01*
X143834666Y-111322667D01*
X144468000Y-111122667D02*
X144934667Y-111122667D01*
X144634667Y-111822667D01*
X126296000Y-111756000D02*
X126262666Y-111789333D01*
X126162666Y-111822667D01*
X126096000Y-111822667D01*
X125996000Y-111789333D01*
X125929333Y-111722667D01*
X125896000Y-111656000D01*
X125862666Y-111522667D01*
X125862666Y-111422667D01*
X125896000Y-111289333D01*
X125929333Y-111222667D01*
X125996000Y-111156000D01*
X126096000Y-111122667D01*
X126162666Y-111122667D01*
X126262666Y-111156000D01*
X126296000Y-111189333D01*
X126562666Y-111189333D02*
X126596000Y-111156000D01*
X126662666Y-111122667D01*
X126829333Y-111122667D01*
X126896000Y-111156000D01*
X126929333Y-111189333D01*
X126962666Y-111256000D01*
X126962666Y-111322667D01*
X126929333Y-111422667D01*
X126529333Y-111822667D01*
X126962666Y-111822667D01*
X127596000Y-111122667D02*
X127262667Y-111122667D01*
X127229333Y-111456000D01*
X127262667Y-111422667D01*
X127329333Y-111389333D01*
X127496000Y-111389333D01*
X127562667Y-111422667D01*
X127596000Y-111456000D01*
X127629333Y-111522667D01*
X127629333Y-111689333D01*
X127596000Y-111756000D01*
X127562667Y-111789333D01*
X127496000Y-111822667D01*
X127329333Y-111822667D01*
X127262667Y-111789333D01*
X127229333Y-111756000D01*
X106817334Y-111060667D02*
X106584000Y-110727333D01*
X106417334Y-111060667D02*
X106417334Y-110360667D01*
X106684000Y-110360667D01*
X106750667Y-110394000D01*
X106784000Y-110427333D01*
X106817334Y-110494000D01*
X106817334Y-110594000D01*
X106784000Y-110660667D01*
X106750667Y-110694000D01*
X106684000Y-110727333D01*
X106417334Y-110727333D01*
X107217334Y-110660667D02*
X107150667Y-110627333D01*
X107117334Y-110594000D01*
X107084000Y-110527333D01*
X107084000Y-110494000D01*
X107117334Y-110427333D01*
X107150667Y-110394000D01*
X107217334Y-110360667D01*
X107350667Y-110360667D01*
X107417334Y-110394000D01*
X107450667Y-110427333D01*
X107484000Y-110494000D01*
X107484000Y-110527333D01*
X107450667Y-110594000D01*
X107417334Y-110627333D01*
X107350667Y-110660667D01*
X107217334Y-110660667D01*
X107150667Y-110694000D01*
X107117334Y-110727333D01*
X107084000Y-110794000D01*
X107084000Y-110927333D01*
X107117334Y-110994000D01*
X107150667Y-111027333D01*
X107217334Y-111060667D01*
X107350667Y-111060667D01*
X107417334Y-111027333D01*
X107450667Y-110994000D01*
X107484000Y-110927333D01*
X107484000Y-110794000D01*
X107450667Y-110727333D01*
X107417334Y-110694000D01*
X107350667Y-110660667D01*
X109786000Y-121154000D02*
X109752666Y-121187333D01*
X109652666Y-121220667D01*
X109586000Y-121220667D01*
X109486000Y-121187333D01*
X109419333Y-121120667D01*
X109386000Y-121054000D01*
X109352666Y-120920667D01*
X109352666Y-120820667D01*
X109386000Y-120687333D01*
X109419333Y-120620667D01*
X109486000Y-120554000D01*
X109586000Y-120520667D01*
X109652666Y-120520667D01*
X109752666Y-120554000D01*
X109786000Y-120587333D01*
X110019333Y-120520667D02*
X110452666Y-120520667D01*
X110219333Y-120787333D01*
X110319333Y-120787333D01*
X110386000Y-120820667D01*
X110419333Y-120854000D01*
X110452666Y-120920667D01*
X110452666Y-121087333D01*
X110419333Y-121154000D01*
X110386000Y-121187333D01*
X110319333Y-121220667D01*
X110119333Y-121220667D01*
X110052666Y-121187333D01*
X110019333Y-121154000D01*
X111086000Y-120520667D02*
X110752667Y-120520667D01*
X110719333Y-120854000D01*
X110752667Y-120820667D01*
X110819333Y-120787333D01*
X110986000Y-120787333D01*
X111052667Y-120820667D01*
X111086000Y-120854000D01*
X111119333Y-120920667D01*
X111119333Y-121087333D01*
X111086000Y-121154000D01*
X111052667Y-121187333D01*
X110986000Y-121220667D01*
X110819333Y-121220667D01*
X110752667Y-121187333D01*
X110719333Y-121154000D01*
X108516000Y-117852000D02*
X108482666Y-117885333D01*
X108382666Y-117918667D01*
X108316000Y-117918667D01*
X108216000Y-117885333D01*
X108149333Y-117818667D01*
X108116000Y-117752000D01*
X108082666Y-117618667D01*
X108082666Y-117518667D01*
X108116000Y-117385333D01*
X108149333Y-117318667D01*
X108216000Y-117252000D01*
X108316000Y-117218667D01*
X108382666Y-117218667D01*
X108482666Y-117252000D01*
X108516000Y-117285333D01*
X108749333Y-117218667D02*
X109182666Y-117218667D01*
X108949333Y-117485333D01*
X109049333Y-117485333D01*
X109116000Y-117518667D01*
X109149333Y-117552000D01*
X109182666Y-117618667D01*
X109182666Y-117785333D01*
X109149333Y-117852000D01*
X109116000Y-117885333D01*
X109049333Y-117918667D01*
X108849333Y-117918667D01*
X108782666Y-117885333D01*
X108749333Y-117852000D01*
X109782667Y-117452000D02*
X109782667Y-117918667D01*
X109616000Y-117185333D02*
X109449333Y-117685333D01*
X109882667Y-117685333D01*
X108516000Y-116582000D02*
X108482666Y-116615333D01*
X108382666Y-116648667D01*
X108316000Y-116648667D01*
X108216000Y-116615333D01*
X108149333Y-116548667D01*
X108116000Y-116482000D01*
X108082666Y-116348667D01*
X108082666Y-116248667D01*
X108116000Y-116115333D01*
X108149333Y-116048667D01*
X108216000Y-115982000D01*
X108316000Y-115948667D01*
X108382666Y-115948667D01*
X108482666Y-115982000D01*
X108516000Y-116015333D01*
X108749333Y-115948667D02*
X109182666Y-115948667D01*
X108949333Y-116215333D01*
X109049333Y-116215333D01*
X109116000Y-116248667D01*
X109149333Y-116282000D01*
X109182666Y-116348667D01*
X109182666Y-116515333D01*
X109149333Y-116582000D01*
X109116000Y-116615333D01*
X109049333Y-116648667D01*
X108849333Y-116648667D01*
X108782666Y-116615333D01*
X108749333Y-116582000D01*
X109416000Y-115948667D02*
X109849333Y-115948667D01*
X109616000Y-116215333D01*
X109716000Y-116215333D01*
X109782667Y-116248667D01*
X109816000Y-116282000D01*
X109849333Y-116348667D01*
X109849333Y-116515333D01*
X109816000Y-116582000D01*
X109782667Y-116615333D01*
X109716000Y-116648667D01*
X109516000Y-116648667D01*
X109449333Y-116615333D01*
X109416000Y-116582000D01*
X104452000Y-108708000D02*
X104418666Y-108741333D01*
X104318666Y-108774667D01*
X104252000Y-108774667D01*
X104152000Y-108741333D01*
X104085333Y-108674667D01*
X104052000Y-108608000D01*
X104018666Y-108474667D01*
X104018666Y-108374667D01*
X104052000Y-108241333D01*
X104085333Y-108174667D01*
X104152000Y-108108000D01*
X104252000Y-108074667D01*
X104318666Y-108074667D01*
X104418666Y-108108000D01*
X104452000Y-108141333D01*
X104685333Y-108074667D02*
X105118666Y-108074667D01*
X104885333Y-108341333D01*
X104985333Y-108341333D01*
X105052000Y-108374667D01*
X105085333Y-108408000D01*
X105118666Y-108474667D01*
X105118666Y-108641333D01*
X105085333Y-108708000D01*
X105052000Y-108741333D01*
X104985333Y-108774667D01*
X104785333Y-108774667D01*
X104718666Y-108741333D01*
X104685333Y-108708000D01*
X105785333Y-108774667D02*
X105385333Y-108774667D01*
X105585333Y-108774667D02*
X105585333Y-108074667D01*
X105518667Y-108174667D01*
X105452000Y-108241333D01*
X105385333Y-108274667D01*
X106550667Y-114579333D02*
X107117333Y-114579333D01*
X107184000Y-114546000D01*
X107217333Y-114512667D01*
X107250667Y-114446000D01*
X107250667Y-114312667D01*
X107217333Y-114246000D01*
X107184000Y-114212667D01*
X107117333Y-114179333D01*
X106550667Y-114179333D01*
X106784000Y-113546000D02*
X107250667Y-113546000D01*
X106517333Y-113712667D02*
X107017333Y-113879334D01*
X107017333Y-113446000D01*
X106738000Y-112264000D02*
X106704666Y-112297333D01*
X106604666Y-112330667D01*
X106538000Y-112330667D01*
X106438000Y-112297333D01*
X106371333Y-112230667D01*
X106338000Y-112164000D01*
X106304666Y-112030667D01*
X106304666Y-111930667D01*
X106338000Y-111797333D01*
X106371333Y-111730667D01*
X106438000Y-111664000D01*
X106538000Y-111630667D01*
X106604666Y-111630667D01*
X106704666Y-111664000D01*
X106738000Y-111697333D01*
X106971333Y-111630667D02*
X107404666Y-111630667D01*
X107171333Y-111897333D01*
X107271333Y-111897333D01*
X107338000Y-111930667D01*
X107371333Y-111964000D01*
X107404666Y-112030667D01*
X107404666Y-112197333D01*
X107371333Y-112264000D01*
X107338000Y-112297333D01*
X107271333Y-112330667D01*
X107071333Y-112330667D01*
X107004666Y-112297333D01*
X106971333Y-112264000D01*
X107671333Y-111697333D02*
X107704667Y-111664000D01*
X107771333Y-111630667D01*
X107938000Y-111630667D01*
X108004667Y-111664000D01*
X108038000Y-111697333D01*
X108071333Y-111764000D01*
X108071333Y-111830667D01*
X108038000Y-111930667D01*
X107638000Y-112330667D01*
X108071333Y-112330667D01*
X111310000Y-112010000D02*
X111276666Y-112043333D01*
X111176666Y-112076667D01*
X111110000Y-112076667D01*
X111010000Y-112043333D01*
X110943333Y-111976667D01*
X110910000Y-111910000D01*
X110876666Y-111776667D01*
X110876666Y-111676667D01*
X110910000Y-111543333D01*
X110943333Y-111476667D01*
X111010000Y-111410000D01*
X111110000Y-111376667D01*
X111176666Y-111376667D01*
X111276666Y-111410000D01*
X111310000Y-111443333D01*
X111910000Y-111610000D02*
X111910000Y-112076667D01*
X111743333Y-111343333D02*
X111576666Y-111843333D01*
X112010000Y-111843333D01*
X112410000Y-111376667D02*
X112476667Y-111376667D01*
X112543333Y-111410000D01*
X112576667Y-111443333D01*
X112610000Y-111510000D01*
X112643333Y-111643333D01*
X112643333Y-111810000D01*
X112610000Y-111943333D01*
X112576667Y-112010000D01*
X112543333Y-112043333D01*
X112476667Y-112076667D01*
X112410000Y-112076667D01*
X112343333Y-112043333D01*
X112310000Y-112010000D01*
X112276667Y-111943333D01*
X112243333Y-111810000D01*
X112243333Y-111643333D01*
X112276667Y-111510000D01*
X112310000Y-111443333D01*
X112343333Y-111410000D01*
X112410000Y-111376667D01*
X126212667Y-122806667D02*
X126212667Y-123373333D01*
X126246000Y-123440000D01*
X126279333Y-123473333D01*
X126346000Y-123506667D01*
X126479333Y-123506667D01*
X126546000Y-123473333D01*
X126579333Y-123440000D01*
X126612667Y-123373333D01*
X126612667Y-122806667D01*
X126879333Y-122806667D02*
X127346000Y-122806667D01*
X127046000Y-123506667D01*
X133087334Y-159828667D02*
X133087334Y-159128667D01*
X133354000Y-159128667D01*
X133420667Y-159162000D01*
X133454000Y-159195333D01*
X133487334Y-159262000D01*
X133487334Y-159362000D01*
X133454000Y-159428667D01*
X133420667Y-159462000D01*
X133354000Y-159495333D01*
X133087334Y-159495333D01*
X134154000Y-159828667D02*
X133754000Y-159828667D01*
X133954000Y-159828667D02*
X133954000Y-159128667D01*
X133887334Y-159228667D01*
X133820667Y-159295333D01*
X133754000Y-159328667D01*
X111147334Y-161668667D02*
X111147334Y-162235333D01*
X111180667Y-162302000D01*
X111214000Y-162335333D01*
X111280667Y-162368667D01*
X111414000Y-162368667D01*
X111480667Y-162335333D01*
X111514000Y-162302000D01*
X111547334Y-162235333D01*
X111547334Y-161668667D01*
X112247333Y-162368667D02*
X111847333Y-162368667D01*
X112047333Y-162368667D02*
X112047333Y-161668667D01*
X111980667Y-161768667D01*
X111914000Y-161835333D01*
X111847333Y-161868667D01*
X112914000Y-162368667D02*
X112514000Y-162368667D01*
X112714000Y-162368667D02*
X112714000Y-161668667D01*
X112647334Y-161768667D01*
X112580667Y-161835333D01*
X112514000Y-161868667D01*
X129169334Y-120204667D02*
X128936000Y-119871333D01*
X128769334Y-120204667D02*
X128769334Y-119504667D01*
X129036000Y-119504667D01*
X129102667Y-119538000D01*
X129136000Y-119571333D01*
X129169334Y-119638000D01*
X129169334Y-119738000D01*
X129136000Y-119804667D01*
X129102667Y-119838000D01*
X129036000Y-119871333D01*
X128769334Y-119871333D01*
X129769334Y-119504667D02*
X129636000Y-119504667D01*
X129569334Y-119538000D01*
X129536000Y-119571333D01*
X129469334Y-119671333D01*
X129436000Y-119804667D01*
X129436000Y-120071333D01*
X129469334Y-120138000D01*
X129502667Y-120171333D01*
X129569334Y-120204667D01*
X129702667Y-120204667D01*
X129769334Y-120171333D01*
X129802667Y-120138000D01*
X129836000Y-120071333D01*
X129836000Y-119904667D01*
X129802667Y-119838000D01*
X129769334Y-119804667D01*
X129702667Y-119771333D01*
X129569334Y-119771333D01*
X129502667Y-119804667D01*
X129469334Y-119838000D01*
X129436000Y-119904667D01*
X108262000Y-163130667D02*
X108028666Y-162797333D01*
X107862000Y-163130667D02*
X107862000Y-162430667D01*
X108128666Y-162430667D01*
X108195333Y-162464000D01*
X108228666Y-162497333D01*
X108262000Y-162564000D01*
X108262000Y-162664000D01*
X108228666Y-162730667D01*
X108195333Y-162764000D01*
X108128666Y-162797333D01*
X107862000Y-162797333D01*
X108928666Y-163130667D02*
X108528666Y-163130667D01*
X108728666Y-163130667D02*
X108728666Y-162430667D01*
X108662000Y-162530667D01*
X108595333Y-162597333D01*
X108528666Y-162630667D01*
X109195333Y-162497333D02*
X109228667Y-162464000D01*
X109295333Y-162430667D01*
X109462000Y-162430667D01*
X109528667Y-162464000D01*
X109562000Y-162497333D01*
X109595333Y-162564000D01*
X109595333Y-162630667D01*
X109562000Y-162730667D01*
X109162000Y-163130667D01*
X109595333Y-163130667D01*
X110802000Y-157796667D02*
X110568666Y-157463333D01*
X110402000Y-157796667D02*
X110402000Y-157096667D01*
X110668666Y-157096667D01*
X110735333Y-157130000D01*
X110768666Y-157163333D01*
X110802000Y-157230000D01*
X110802000Y-157330000D01*
X110768666Y-157396667D01*
X110735333Y-157430000D01*
X110668666Y-157463333D01*
X110402000Y-157463333D01*
X111468666Y-157796667D02*
X111068666Y-157796667D01*
X111268666Y-157796667D02*
X111268666Y-157096667D01*
X111202000Y-157196667D01*
X111135333Y-157263333D01*
X111068666Y-157296667D01*
X111702000Y-157096667D02*
X112135333Y-157096667D01*
X111902000Y-157363333D01*
X112002000Y-157363333D01*
X112068667Y-157396667D01*
X112102000Y-157430000D01*
X112135333Y-157496667D01*
X112135333Y-157663333D01*
X112102000Y-157730000D01*
X112068667Y-157763333D01*
X112002000Y-157796667D01*
X111802000Y-157796667D01*
X111735333Y-157763333D01*
X111702000Y-157730000D01*
X109278000Y-124014667D02*
X109044666Y-123681333D01*
X108878000Y-124014667D02*
X108878000Y-123314667D01*
X109144666Y-123314667D01*
X109211333Y-123348000D01*
X109244666Y-123381333D01*
X109278000Y-123448000D01*
X109278000Y-123548000D01*
X109244666Y-123614667D01*
X109211333Y-123648000D01*
X109144666Y-123681333D01*
X108878000Y-123681333D01*
X109944666Y-124014667D02*
X109544666Y-124014667D01*
X109744666Y-124014667D02*
X109744666Y-123314667D01*
X109678000Y-123414667D01*
X109611333Y-123481333D01*
X109544666Y-123514667D01*
X110544667Y-123314667D02*
X110411333Y-123314667D01*
X110344667Y-123348000D01*
X110311333Y-123381333D01*
X110244667Y-123481333D01*
X110211333Y-123614667D01*
X110211333Y-123881333D01*
X110244667Y-123948000D01*
X110278000Y-123981333D01*
X110344667Y-124014667D01*
X110478000Y-124014667D01*
X110544667Y-123981333D01*
X110578000Y-123948000D01*
X110611333Y-123881333D01*
X110611333Y-123714667D01*
X110578000Y-123648000D01*
X110544667Y-123614667D01*
X110478000Y-123581333D01*
X110344667Y-123581333D01*
X110278000Y-123614667D01*
X110244667Y-123648000D01*
X110211333Y-123714667D01*
X106484000Y-129856667D02*
X106250666Y-129523333D01*
X106084000Y-129856667D02*
X106084000Y-129156667D01*
X106350666Y-129156667D01*
X106417333Y-129190000D01*
X106450666Y-129223333D01*
X106484000Y-129290000D01*
X106484000Y-129390000D01*
X106450666Y-129456667D01*
X106417333Y-129490000D01*
X106350666Y-129523333D01*
X106084000Y-129523333D01*
X107150666Y-129856667D02*
X106750666Y-129856667D01*
X106950666Y-129856667D02*
X106950666Y-129156667D01*
X106884000Y-129256667D01*
X106817333Y-129323333D01*
X106750666Y-129356667D01*
X107384000Y-129156667D02*
X107850667Y-129156667D01*
X107550667Y-129856667D01*
X103690000Y-124014667D02*
X103456666Y-123681333D01*
X103290000Y-124014667D02*
X103290000Y-123314667D01*
X103556666Y-123314667D01*
X103623333Y-123348000D01*
X103656666Y-123381333D01*
X103690000Y-123448000D01*
X103690000Y-123548000D01*
X103656666Y-123614667D01*
X103623333Y-123648000D01*
X103556666Y-123681333D01*
X103290000Y-123681333D01*
X103956666Y-123381333D02*
X103990000Y-123348000D01*
X104056666Y-123314667D01*
X104223333Y-123314667D01*
X104290000Y-123348000D01*
X104323333Y-123381333D01*
X104356666Y-123448000D01*
X104356666Y-123514667D01*
X104323333Y-123614667D01*
X103923333Y-124014667D01*
X104356666Y-124014667D01*
X104590000Y-123314667D02*
X105023333Y-123314667D01*
X104790000Y-123581333D01*
X104890000Y-123581333D01*
X104956667Y-123614667D01*
X104990000Y-123648000D01*
X105023333Y-123714667D01*
X105023333Y-123881333D01*
X104990000Y-123948000D01*
X104956667Y-123981333D01*
X104890000Y-124014667D01*
X104690000Y-124014667D01*
X104623333Y-123981333D01*
X104590000Y-123948000D01*
X100896000Y-129856667D02*
X100662666Y-129523333D01*
X100496000Y-129856667D02*
X100496000Y-129156667D01*
X100762666Y-129156667D01*
X100829333Y-129190000D01*
X100862666Y-129223333D01*
X100896000Y-129290000D01*
X100896000Y-129390000D01*
X100862666Y-129456667D01*
X100829333Y-129490000D01*
X100762666Y-129523333D01*
X100496000Y-129523333D01*
X101162666Y-129223333D02*
X101196000Y-129190000D01*
X101262666Y-129156667D01*
X101429333Y-129156667D01*
X101496000Y-129190000D01*
X101529333Y-129223333D01*
X101562666Y-129290000D01*
X101562666Y-129356667D01*
X101529333Y-129456667D01*
X101129333Y-129856667D01*
X101562666Y-129856667D01*
X102162667Y-129390000D02*
X102162667Y-129856667D01*
X101996000Y-129123333D02*
X101829333Y-129623333D01*
X102262667Y-129623333D01*
X127228667Y-142364667D02*
X127228667Y-142931333D01*
X127262000Y-142998000D01*
X127295333Y-143031333D01*
X127362000Y-143064667D01*
X127495333Y-143064667D01*
X127562000Y-143031333D01*
X127595333Y-142998000D01*
X127628667Y-142931333D01*
X127628667Y-142364667D01*
X128328666Y-143064667D02*
X127928666Y-143064667D01*
X128128666Y-143064667D02*
X128128666Y-142364667D01*
X128062000Y-142464667D01*
X127995333Y-142531333D01*
X127928666Y-142564667D01*
X128140667Y-116103333D02*
X128707333Y-116103333D01*
X128774000Y-116070000D01*
X128807333Y-116036667D01*
X128840667Y-115970000D01*
X128840667Y-115836667D01*
X128807333Y-115770000D01*
X128774000Y-115736667D01*
X128707333Y-115703333D01*
X128140667Y-115703333D01*
X128140667Y-115436667D02*
X128140667Y-115003334D01*
X128407333Y-115236667D01*
X128407333Y-115136667D01*
X128440667Y-115070000D01*
X128474000Y-115036667D01*
X128540667Y-115003334D01*
X128707333Y-115003334D01*
X128774000Y-115036667D01*
X128807333Y-115070000D01*
X128840667Y-115136667D01*
X128840667Y-115336667D01*
X128807333Y-115403334D01*
X128774000Y-115436667D01*
X118742667Y-114579333D02*
X119309333Y-114579333D01*
X119376000Y-114546000D01*
X119409333Y-114512667D01*
X119442667Y-114446000D01*
X119442667Y-114312667D01*
X119409333Y-114246000D01*
X119376000Y-114212667D01*
X119309333Y-114179333D01*
X118742667Y-114179333D01*
X118742667Y-113512667D02*
X118742667Y-113846000D01*
X119076000Y-113879334D01*
X119042667Y-113846000D01*
X119009333Y-113779334D01*
X119009333Y-113612667D01*
X119042667Y-113546000D01*
X119076000Y-113512667D01*
X119142667Y-113479334D01*
X119309333Y-113479334D01*
X119376000Y-113512667D01*
X119409333Y-113546000D01*
X119442667Y-113612667D01*
X119442667Y-113779334D01*
X119409333Y-113846000D01*
X119376000Y-113879334D01*
X116735334Y-155572667D02*
X116735334Y-156139333D01*
X116768667Y-156206000D01*
X116802000Y-156239333D01*
X116868667Y-156272667D01*
X117002000Y-156272667D01*
X117068667Y-156239333D01*
X117102000Y-156206000D01*
X117135334Y-156139333D01*
X117135334Y-155572667D01*
X117835333Y-156272667D02*
X117435333Y-156272667D01*
X117635333Y-156272667D02*
X117635333Y-155572667D01*
X117568667Y-155672667D01*
X117502000Y-155739333D01*
X117435333Y-155772667D01*
X118435334Y-155806000D02*
X118435334Y-156272667D01*
X118268667Y-155539333D02*
X118102000Y-156039333D01*
X118535334Y-156039333D01*
X130680667Y-157838666D02*
X131247333Y-157838666D01*
X131314000Y-157805333D01*
X131347333Y-157772000D01*
X131380667Y-157705333D01*
X131380667Y-157572000D01*
X131347333Y-157505333D01*
X131314000Y-157472000D01*
X131247333Y-157438666D01*
X130680667Y-157438666D01*
X131380667Y-156738667D02*
X131380667Y-157138667D01*
X131380667Y-156938667D02*
X130680667Y-156938667D01*
X130780667Y-157005333D01*
X130847333Y-157072000D01*
X130880667Y-157138667D01*
X130680667Y-156105333D02*
X130680667Y-156438666D01*
X131014000Y-156472000D01*
X130980667Y-156438666D01*
X130947333Y-156372000D01*
X130947333Y-156205333D01*
X130980667Y-156138666D01*
X131014000Y-156105333D01*
X131080667Y-156072000D01*
X131247333Y-156072000D01*
X131314000Y-156105333D01*
X131347333Y-156138666D01*
X131380667Y-156205333D01*
X131380667Y-156372000D01*
X131347333Y-156438666D01*
X131314000Y-156472000D01*
X121549334Y-131060000D02*
X121516000Y-131093333D01*
X121416000Y-131126667D01*
X121349334Y-131126667D01*
X121249334Y-131093333D01*
X121182667Y-131026667D01*
X121149334Y-130960000D01*
X121116000Y-130826667D01*
X121116000Y-130726667D01*
X121149334Y-130593333D01*
X121182667Y-130526667D01*
X121249334Y-130460000D01*
X121349334Y-130426667D01*
X121416000Y-130426667D01*
X121516000Y-130460000D01*
X121549334Y-130493333D01*
X121816000Y-130493333D02*
X121849334Y-130460000D01*
X121916000Y-130426667D01*
X122082667Y-130426667D01*
X122149334Y-130460000D01*
X122182667Y-130493333D01*
X122216000Y-130560000D01*
X122216000Y-130626667D01*
X122182667Y-130726667D01*
X121782667Y-131126667D01*
X122216000Y-131126667D01*
X134249334Y-131060000D02*
X134216000Y-131093333D01*
X134116000Y-131126667D01*
X134049334Y-131126667D01*
X133949334Y-131093333D01*
X133882667Y-131026667D01*
X133849334Y-130960000D01*
X133816000Y-130826667D01*
X133816000Y-130726667D01*
X133849334Y-130593333D01*
X133882667Y-130526667D01*
X133949334Y-130460000D01*
X134049334Y-130426667D01*
X134116000Y-130426667D01*
X134216000Y-130460000D01*
X134249334Y-130493333D01*
X134849334Y-130660000D02*
X134849334Y-131126667D01*
X134682667Y-130393333D02*
X134516000Y-130893333D01*
X134949334Y-130893333D01*
X127645334Y-131568000D02*
X127612000Y-131601333D01*
X127512000Y-131634667D01*
X127445334Y-131634667D01*
X127345334Y-131601333D01*
X127278667Y-131534667D01*
X127245334Y-131468000D01*
X127212000Y-131334667D01*
X127212000Y-131234667D01*
X127245334Y-131101333D01*
X127278667Y-131034667D01*
X127345334Y-130968000D01*
X127445334Y-130934667D01*
X127512000Y-130934667D01*
X127612000Y-130968000D01*
X127645334Y-131001333D01*
X128278667Y-130934667D02*
X127945334Y-130934667D01*
X127912000Y-131268000D01*
X127945334Y-131234667D01*
X128012000Y-131201333D01*
X128178667Y-131201333D01*
X128245334Y-131234667D01*
X128278667Y-131268000D01*
X128312000Y-131334667D01*
X128312000Y-131501333D01*
X128278667Y-131568000D01*
X128245334Y-131601333D01*
X128178667Y-131634667D01*
X128012000Y-131634667D01*
X127945334Y-131601333D01*
X127912000Y-131568000D01*
X133233334Y-132838000D02*
X133200000Y-132871333D01*
X133100000Y-132904667D01*
X133033334Y-132904667D01*
X132933334Y-132871333D01*
X132866667Y-132804667D01*
X132833334Y-132738000D01*
X132800000Y-132604667D01*
X132800000Y-132504667D01*
X132833334Y-132371333D01*
X132866667Y-132304667D01*
X132933334Y-132238000D01*
X133033334Y-132204667D01*
X133100000Y-132204667D01*
X133200000Y-132238000D01*
X133233334Y-132271333D01*
X133833334Y-132204667D02*
X133700000Y-132204667D01*
X133633334Y-132238000D01*
X133600000Y-132271333D01*
X133533334Y-132371333D01*
X133500000Y-132504667D01*
X133500000Y-132771333D01*
X133533334Y-132838000D01*
X133566667Y-132871333D01*
X133633334Y-132904667D01*
X133766667Y-132904667D01*
X133833334Y-132871333D01*
X133866667Y-132838000D01*
X133900000Y-132771333D01*
X133900000Y-132604667D01*
X133866667Y-132538000D01*
X133833334Y-132504667D01*
X133766667Y-132471333D01*
X133633334Y-132471333D01*
X133566667Y-132504667D01*
X133533334Y-132538000D01*
X133500000Y-132604667D01*
X127137334Y-130298000D02*
X127104000Y-130331333D01*
X127004000Y-130364667D01*
X126937334Y-130364667D01*
X126837334Y-130331333D01*
X126770667Y-130264667D01*
X126737334Y-130198000D01*
X126704000Y-130064667D01*
X126704000Y-129964667D01*
X126737334Y-129831333D01*
X126770667Y-129764667D01*
X126837334Y-129698000D01*
X126937334Y-129664667D01*
X127004000Y-129664667D01*
X127104000Y-129698000D01*
X127137334Y-129731333D01*
X127537334Y-129964667D02*
X127470667Y-129931333D01*
X127437334Y-129898000D01*
X127404000Y-129831333D01*
X127404000Y-129798000D01*
X127437334Y-129731333D01*
X127470667Y-129698000D01*
X127537334Y-129664667D01*
X127670667Y-129664667D01*
X127737334Y-129698000D01*
X127770667Y-129731333D01*
X127804000Y-129798000D01*
X127804000Y-129831333D01*
X127770667Y-129898000D01*
X127737334Y-129931333D01*
X127670667Y-129964667D01*
X127537334Y-129964667D01*
X127470667Y-129998000D01*
X127437334Y-130031333D01*
X127404000Y-130098000D01*
X127404000Y-130231333D01*
X127437334Y-130298000D01*
X127470667Y-130331333D01*
X127537334Y-130364667D01*
X127670667Y-130364667D01*
X127737334Y-130331333D01*
X127770667Y-130298000D01*
X127804000Y-130231333D01*
X127804000Y-130098000D01*
X127770667Y-130031333D01*
X127737334Y-129998000D01*
X127670667Y-129964667D01*
X131630000Y-129282000D02*
X131596666Y-129315333D01*
X131496666Y-129348667D01*
X131430000Y-129348667D01*
X131330000Y-129315333D01*
X131263333Y-129248667D01*
X131230000Y-129182000D01*
X131196666Y-129048667D01*
X131196666Y-128948667D01*
X131230000Y-128815333D01*
X131263333Y-128748667D01*
X131330000Y-128682000D01*
X131430000Y-128648667D01*
X131496666Y-128648667D01*
X131596666Y-128682000D01*
X131630000Y-128715333D01*
X132296666Y-129348667D02*
X131896666Y-129348667D01*
X132096666Y-129348667D02*
X132096666Y-128648667D01*
X132030000Y-128748667D01*
X131963333Y-128815333D01*
X131896666Y-128848667D01*
X132730000Y-128648667D02*
X132796667Y-128648667D01*
X132863333Y-128682000D01*
X132896667Y-128715333D01*
X132930000Y-128782000D01*
X132963333Y-128915333D01*
X132963333Y-129082000D01*
X132930000Y-129215333D01*
X132896667Y-129282000D01*
X132863333Y-129315333D01*
X132796667Y-129348667D01*
X132730000Y-129348667D01*
X132663333Y-129315333D01*
X132630000Y-129282000D01*
X132596667Y-129215333D01*
X132563333Y-129082000D01*
X132563333Y-128915333D01*
X132596667Y-128782000D01*
X132630000Y-128715333D01*
X132663333Y-128682000D01*
X132730000Y-128648667D01*
X133346000Y-142944000D02*
X133379333Y-142977334D01*
X133412667Y-143077334D01*
X133412667Y-143144000D01*
X133379333Y-143244000D01*
X133312667Y-143310667D01*
X133246000Y-143344000D01*
X133112667Y-143377334D01*
X133012667Y-143377334D01*
X132879333Y-143344000D01*
X132812667Y-143310667D01*
X132746000Y-143244000D01*
X132712667Y-143144000D01*
X132712667Y-143077334D01*
X132746000Y-142977334D01*
X132779333Y-142944000D01*
X133412667Y-142277334D02*
X133412667Y-142677334D01*
X133412667Y-142477334D02*
X132712667Y-142477334D01*
X132812667Y-142544000D01*
X132879333Y-142610667D01*
X132912667Y-142677334D01*
X133412667Y-141610667D02*
X133412667Y-142010667D01*
X133412667Y-141810667D02*
X132712667Y-141810667D01*
X132812667Y-141877333D01*
X132879333Y-141944000D01*
X132912667Y-142010667D01*
X126296000Y-110232000D02*
X126262666Y-110265333D01*
X126162666Y-110298667D01*
X126096000Y-110298667D01*
X125996000Y-110265333D01*
X125929333Y-110198667D01*
X125896000Y-110132000D01*
X125862666Y-109998667D01*
X125862666Y-109898667D01*
X125896000Y-109765333D01*
X125929333Y-109698667D01*
X125996000Y-109632000D01*
X126096000Y-109598667D01*
X126162666Y-109598667D01*
X126262666Y-109632000D01*
X126296000Y-109665333D01*
X126562666Y-109665333D02*
X126596000Y-109632000D01*
X126662666Y-109598667D01*
X126829333Y-109598667D01*
X126896000Y-109632000D01*
X126929333Y-109665333D01*
X126962666Y-109732000D01*
X126962666Y-109798667D01*
X126929333Y-109898667D01*
X126529333Y-110298667D01*
X126962666Y-110298667D01*
X127562667Y-109832000D02*
X127562667Y-110298667D01*
X127396000Y-109565333D02*
X127229333Y-110065333D01*
X127662667Y-110065333D01*
X133662000Y-119884000D02*
X133628666Y-119917333D01*
X133528666Y-119950667D01*
X133462000Y-119950667D01*
X133362000Y-119917333D01*
X133295333Y-119850667D01*
X133262000Y-119784000D01*
X133228666Y-119650667D01*
X133228666Y-119550667D01*
X133262000Y-119417333D01*
X133295333Y-119350667D01*
X133362000Y-119284000D01*
X133462000Y-119250667D01*
X133528666Y-119250667D01*
X133628666Y-119284000D01*
X133662000Y-119317333D01*
X133928666Y-119317333D02*
X133962000Y-119284000D01*
X134028666Y-119250667D01*
X134195333Y-119250667D01*
X134262000Y-119284000D01*
X134295333Y-119317333D01*
X134328666Y-119384000D01*
X134328666Y-119450667D01*
X134295333Y-119550667D01*
X133895333Y-119950667D01*
X134328666Y-119950667D01*
X134562000Y-119250667D02*
X135028667Y-119250667D01*
X134728667Y-119950667D01*
X111310000Y-110486000D02*
X111276666Y-110519333D01*
X111176666Y-110552667D01*
X111110000Y-110552667D01*
X111010000Y-110519333D01*
X110943333Y-110452667D01*
X110910000Y-110386000D01*
X110876666Y-110252667D01*
X110876666Y-110152667D01*
X110910000Y-110019333D01*
X110943333Y-109952667D01*
X111010000Y-109886000D01*
X111110000Y-109852667D01*
X111176666Y-109852667D01*
X111276666Y-109886000D01*
X111310000Y-109919333D01*
X111543333Y-109852667D02*
X111976666Y-109852667D01*
X111743333Y-110119333D01*
X111843333Y-110119333D01*
X111910000Y-110152667D01*
X111943333Y-110186000D01*
X111976666Y-110252667D01*
X111976666Y-110419333D01*
X111943333Y-110486000D01*
X111910000Y-110519333D01*
X111843333Y-110552667D01*
X111643333Y-110552667D01*
X111576666Y-110519333D01*
X111543333Y-110486000D01*
X112310000Y-110552667D02*
X112443333Y-110552667D01*
X112510000Y-110519333D01*
X112543333Y-110486000D01*
X112610000Y-110386000D01*
X112643333Y-110252667D01*
X112643333Y-109986000D01*
X112610000Y-109919333D01*
X112576667Y-109886000D01*
X112510000Y-109852667D01*
X112376667Y-109852667D01*
X112310000Y-109886000D01*
X112276667Y-109919333D01*
X112243333Y-109986000D01*
X112243333Y-110152667D01*
X112276667Y-110219333D01*
X112310000Y-110252667D01*
X112376667Y-110286000D01*
X112510000Y-110286000D01*
X112576667Y-110252667D01*
X112610000Y-110219333D01*
X112643333Y-110152667D01*
X120708000Y-116582000D02*
X120674666Y-116615333D01*
X120574666Y-116648667D01*
X120508000Y-116648667D01*
X120408000Y-116615333D01*
X120341333Y-116548667D01*
X120308000Y-116482000D01*
X120274666Y-116348667D01*
X120274666Y-116248667D01*
X120308000Y-116115333D01*
X120341333Y-116048667D01*
X120408000Y-115982000D01*
X120508000Y-115948667D01*
X120574666Y-115948667D01*
X120674666Y-115982000D01*
X120708000Y-116015333D01*
X121308000Y-116182000D02*
X121308000Y-116648667D01*
X121141333Y-115915333D02*
X120974666Y-116415333D01*
X121408000Y-116415333D01*
X122041333Y-116648667D02*
X121641333Y-116648667D01*
X121841333Y-116648667D02*
X121841333Y-115948667D01*
X121774667Y-116048667D01*
X121708000Y-116115333D01*
X121641333Y-116148667D01*
X121978000Y-119122000D02*
X121944666Y-119155333D01*
X121844666Y-119188667D01*
X121778000Y-119188667D01*
X121678000Y-119155333D01*
X121611333Y-119088667D01*
X121578000Y-119022000D01*
X121544666Y-118888667D01*
X121544666Y-118788667D01*
X121578000Y-118655333D01*
X121611333Y-118588667D01*
X121678000Y-118522000D01*
X121778000Y-118488667D01*
X121844666Y-118488667D01*
X121944666Y-118522000D01*
X121978000Y-118555333D01*
X122578000Y-118722000D02*
X122578000Y-119188667D01*
X122411333Y-118455333D02*
X122244666Y-118955333D01*
X122678000Y-118955333D01*
X122911333Y-118555333D02*
X122944667Y-118522000D01*
X123011333Y-118488667D01*
X123178000Y-118488667D01*
X123244667Y-118522000D01*
X123278000Y-118555333D01*
X123311333Y-118622000D01*
X123311333Y-118688667D01*
X123278000Y-118788667D01*
X122878000Y-119188667D01*
X123311333Y-119188667D01*
X121978000Y-120646000D02*
X121944666Y-120679333D01*
X121844666Y-120712667D01*
X121778000Y-120712667D01*
X121678000Y-120679333D01*
X121611333Y-120612667D01*
X121578000Y-120546000D01*
X121544666Y-120412667D01*
X121544666Y-120312667D01*
X121578000Y-120179333D01*
X121611333Y-120112667D01*
X121678000Y-120046000D01*
X121778000Y-120012667D01*
X121844666Y-120012667D01*
X121944666Y-120046000D01*
X121978000Y-120079333D01*
X122578000Y-120246000D02*
X122578000Y-120712667D01*
X122411333Y-119979333D02*
X122244666Y-120479333D01*
X122678000Y-120479333D01*
X122878000Y-120012667D02*
X123311333Y-120012667D01*
X123078000Y-120279333D01*
X123178000Y-120279333D01*
X123244667Y-120312667D01*
X123278000Y-120346000D01*
X123311333Y-120412667D01*
X123311333Y-120579333D01*
X123278000Y-120646000D01*
X123244667Y-120679333D01*
X123178000Y-120712667D01*
X122978000Y-120712667D01*
X122911333Y-120679333D01*
X122878000Y-120646000D01*
X130868000Y-123440000D02*
X130834666Y-123473333D01*
X130734666Y-123506667D01*
X130668000Y-123506667D01*
X130568000Y-123473333D01*
X130501333Y-123406667D01*
X130468000Y-123340000D01*
X130434666Y-123206667D01*
X130434666Y-123106667D01*
X130468000Y-122973333D01*
X130501333Y-122906667D01*
X130568000Y-122840000D01*
X130668000Y-122806667D01*
X130734666Y-122806667D01*
X130834666Y-122840000D01*
X130868000Y-122873333D01*
X131468000Y-123040000D02*
X131468000Y-123506667D01*
X131301333Y-122773333D02*
X131134666Y-123273333D01*
X131568000Y-123273333D01*
X131768000Y-122806667D02*
X132234667Y-122806667D01*
X131934667Y-123506667D01*
X123756000Y-128774000D02*
X123722666Y-128807333D01*
X123622666Y-128840667D01*
X123556000Y-128840667D01*
X123456000Y-128807333D01*
X123389333Y-128740667D01*
X123356000Y-128674000D01*
X123322666Y-128540667D01*
X123322666Y-128440667D01*
X123356000Y-128307333D01*
X123389333Y-128240667D01*
X123456000Y-128174000D01*
X123556000Y-128140667D01*
X123622666Y-128140667D01*
X123722666Y-128174000D01*
X123756000Y-128207333D01*
X124356000Y-128374000D02*
X124356000Y-128840667D01*
X124189333Y-128107333D02*
X124022666Y-128607333D01*
X124456000Y-128607333D01*
X124822667Y-128440667D02*
X124756000Y-128407333D01*
X124722667Y-128374000D01*
X124689333Y-128307333D01*
X124689333Y-128274000D01*
X124722667Y-128207333D01*
X124756000Y-128174000D01*
X124822667Y-128140667D01*
X124956000Y-128140667D01*
X125022667Y-128174000D01*
X125056000Y-128207333D01*
X125089333Y-128274000D01*
X125089333Y-128307333D01*
X125056000Y-128374000D01*
X125022667Y-128407333D01*
X124956000Y-128440667D01*
X124822667Y-128440667D01*
X124756000Y-128474000D01*
X124722667Y-128507333D01*
X124689333Y-128574000D01*
X124689333Y-128707333D01*
X124722667Y-128774000D01*
X124756000Y-128807333D01*
X124822667Y-128840667D01*
X124956000Y-128840667D01*
X125022667Y-128807333D01*
X125056000Y-128774000D01*
X125089333Y-128707333D01*
X125089333Y-128574000D01*
X125056000Y-128507333D01*
X125022667Y-128474000D01*
X124956000Y-128440667D01*
X108135000Y-135505000D02*
X108101666Y-135538333D01*
X108001666Y-135571667D01*
X107935000Y-135571667D01*
X107835000Y-135538333D01*
X107768333Y-135471667D01*
X107735000Y-135405000D01*
X107701666Y-135271667D01*
X107701666Y-135171667D01*
X107735000Y-135038333D01*
X107768333Y-134971667D01*
X107835000Y-134905000D01*
X107935000Y-134871667D01*
X108001666Y-134871667D01*
X108101666Y-134905000D01*
X108135000Y-134938333D01*
X108768333Y-134871667D02*
X108435000Y-134871667D01*
X108401666Y-135205000D01*
X108435000Y-135171667D01*
X108501666Y-135138333D01*
X108668333Y-135138333D01*
X108735000Y-135171667D01*
X108768333Y-135205000D01*
X108801666Y-135271667D01*
X108801666Y-135438333D01*
X108768333Y-135505000D01*
X108735000Y-135538333D01*
X108668333Y-135571667D01*
X108501666Y-135571667D01*
X108435000Y-135538333D01*
X108401666Y-135505000D01*
X109435000Y-134871667D02*
X109101667Y-134871667D01*
X109068333Y-135205000D01*
X109101667Y-135171667D01*
X109168333Y-135138333D01*
X109335000Y-135138333D01*
X109401667Y-135171667D01*
X109435000Y-135205000D01*
X109468333Y-135271667D01*
X109468333Y-135438333D01*
X109435000Y-135505000D01*
X109401667Y-135538333D01*
X109335000Y-135571667D01*
X109168333Y-135571667D01*
X109101667Y-135538333D01*
X109068333Y-135505000D01*
X112137000Y-125418000D02*
X112170333Y-125451334D01*
X112203667Y-125551334D01*
X112203667Y-125618000D01*
X112170333Y-125718000D01*
X112103667Y-125784667D01*
X112037000Y-125818000D01*
X111903667Y-125851334D01*
X111803667Y-125851334D01*
X111670333Y-125818000D01*
X111603667Y-125784667D01*
X111537000Y-125718000D01*
X111503667Y-125618000D01*
X111503667Y-125551334D01*
X111537000Y-125451334D01*
X111570333Y-125418000D01*
X111503667Y-124784667D02*
X111503667Y-125118000D01*
X111837000Y-125151334D01*
X111803667Y-125118000D01*
X111770333Y-125051334D01*
X111770333Y-124884667D01*
X111803667Y-124818000D01*
X111837000Y-124784667D01*
X111903667Y-124751334D01*
X112070333Y-124751334D01*
X112137000Y-124784667D01*
X112170333Y-124818000D01*
X112203667Y-124884667D01*
X112203667Y-125051334D01*
X112170333Y-125118000D01*
X112137000Y-125151334D01*
X111803667Y-124351333D02*
X111770333Y-124418000D01*
X111737000Y-124451333D01*
X111670333Y-124484667D01*
X111637000Y-124484667D01*
X111570333Y-124451333D01*
X111537000Y-124418000D01*
X111503667Y-124351333D01*
X111503667Y-124218000D01*
X111537000Y-124151333D01*
X111570333Y-124118000D01*
X111637000Y-124084667D01*
X111670333Y-124084667D01*
X111737000Y-124118000D01*
X111770333Y-124151333D01*
X111803667Y-124218000D01*
X111803667Y-124351333D01*
X111837000Y-124418000D01*
X111870333Y-124451333D01*
X111937000Y-124484667D01*
X112070333Y-124484667D01*
X112137000Y-124451333D01*
X112170333Y-124418000D01*
X112203667Y-124351333D01*
X112203667Y-124218000D01*
X112170333Y-124151333D01*
X112137000Y-124118000D01*
X112070333Y-124084667D01*
X111937000Y-124084667D01*
X111870333Y-124118000D01*
X111837000Y-124151333D01*
X111803667Y-124218000D01*
X113850000Y-156968000D02*
X113816666Y-157001333D01*
X113716666Y-157034667D01*
X113650000Y-157034667D01*
X113550000Y-157001333D01*
X113483333Y-156934667D01*
X113450000Y-156868000D01*
X113416666Y-156734667D01*
X113416666Y-156634667D01*
X113450000Y-156501333D01*
X113483333Y-156434667D01*
X113550000Y-156368000D01*
X113650000Y-156334667D01*
X113716666Y-156334667D01*
X113816666Y-156368000D01*
X113850000Y-156401333D01*
X114450000Y-156334667D02*
X114316666Y-156334667D01*
X114250000Y-156368000D01*
X114216666Y-156401333D01*
X114150000Y-156501333D01*
X114116666Y-156634667D01*
X114116666Y-156901333D01*
X114150000Y-156968000D01*
X114183333Y-157001333D01*
X114250000Y-157034667D01*
X114383333Y-157034667D01*
X114450000Y-157001333D01*
X114483333Y-156968000D01*
X114516666Y-156901333D01*
X114516666Y-156734667D01*
X114483333Y-156668000D01*
X114450000Y-156634667D01*
X114383333Y-156601333D01*
X114250000Y-156601333D01*
X114183333Y-156634667D01*
X114150000Y-156668000D01*
X114116666Y-156734667D01*
X115150000Y-156334667D02*
X114816667Y-156334667D01*
X114783333Y-156668000D01*
X114816667Y-156634667D01*
X114883333Y-156601333D01*
X115050000Y-156601333D01*
X115116667Y-156634667D01*
X115150000Y-156668000D01*
X115183333Y-156734667D01*
X115183333Y-156901333D01*
X115150000Y-156968000D01*
X115116667Y-157001333D01*
X115050000Y-157034667D01*
X114883333Y-157034667D01*
X114816667Y-157001333D01*
X114783333Y-156968000D01*
X102674000Y-135632000D02*
X102640666Y-135665333D01*
X102540666Y-135698667D01*
X102474000Y-135698667D01*
X102374000Y-135665333D01*
X102307333Y-135598667D01*
X102274000Y-135532000D01*
X102240666Y-135398667D01*
X102240666Y-135298667D01*
X102274000Y-135165333D01*
X102307333Y-135098667D01*
X102374000Y-135032000D01*
X102474000Y-134998667D01*
X102540666Y-134998667D01*
X102640666Y-135032000D01*
X102674000Y-135065333D01*
X103274000Y-134998667D02*
X103140666Y-134998667D01*
X103074000Y-135032000D01*
X103040666Y-135065333D01*
X102974000Y-135165333D01*
X102940666Y-135298667D01*
X102940666Y-135565333D01*
X102974000Y-135632000D01*
X103007333Y-135665333D01*
X103074000Y-135698667D01*
X103207333Y-135698667D01*
X103274000Y-135665333D01*
X103307333Y-135632000D01*
X103340666Y-135565333D01*
X103340666Y-135398667D01*
X103307333Y-135332000D01*
X103274000Y-135298667D01*
X103207333Y-135265333D01*
X103074000Y-135265333D01*
X103007333Y-135298667D01*
X102974000Y-135332000D01*
X102940666Y-135398667D01*
X103574000Y-134998667D02*
X104040667Y-134998667D01*
X103740667Y-135698667D01*
X106230000Y-125726000D02*
X106196666Y-125759333D01*
X106096666Y-125792667D01*
X106030000Y-125792667D01*
X105930000Y-125759333D01*
X105863333Y-125692667D01*
X105830000Y-125626000D01*
X105796666Y-125492667D01*
X105796666Y-125392667D01*
X105830000Y-125259333D01*
X105863333Y-125192667D01*
X105930000Y-125126000D01*
X106030000Y-125092667D01*
X106096666Y-125092667D01*
X106196666Y-125126000D01*
X106230000Y-125159333D01*
X106830000Y-125092667D02*
X106696666Y-125092667D01*
X106630000Y-125126000D01*
X106596666Y-125159333D01*
X106530000Y-125259333D01*
X106496666Y-125392667D01*
X106496666Y-125659333D01*
X106530000Y-125726000D01*
X106563333Y-125759333D01*
X106630000Y-125792667D01*
X106763333Y-125792667D01*
X106830000Y-125759333D01*
X106863333Y-125726000D01*
X106896666Y-125659333D01*
X106896666Y-125492667D01*
X106863333Y-125426000D01*
X106830000Y-125392667D01*
X106763333Y-125359333D01*
X106630000Y-125359333D01*
X106563333Y-125392667D01*
X106530000Y-125426000D01*
X106496666Y-125492667D01*
X107230000Y-125792667D02*
X107363333Y-125792667D01*
X107430000Y-125759333D01*
X107463333Y-125726000D01*
X107530000Y-125626000D01*
X107563333Y-125492667D01*
X107563333Y-125226000D01*
X107530000Y-125159333D01*
X107496667Y-125126000D01*
X107430000Y-125092667D01*
X107296667Y-125092667D01*
X107230000Y-125126000D01*
X107196667Y-125159333D01*
X107163333Y-125226000D01*
X107163333Y-125392667D01*
X107196667Y-125459333D01*
X107230000Y-125492667D01*
X107296667Y-125526000D01*
X107430000Y-125526000D01*
X107496667Y-125492667D01*
X107530000Y-125459333D01*
X107563333Y-125392667D01*
X117501333Y-135444667D02*
X117868000Y-134978000D01*
X117501333Y-134978000D02*
X117868000Y-135444667D01*
X118101333Y-134811333D02*
X118134667Y-134778000D01*
X118201333Y-134744667D01*
X118368000Y-134744667D01*
X118434667Y-134778000D01*
X118468000Y-134811333D01*
X118501333Y-134878000D01*
X118501333Y-134944667D01*
X118468000Y-135044667D01*
X118068000Y-135444667D01*
X118501333Y-135444667D01*
X118634667Y-135511333D02*
X119168000Y-135511333D01*
X119268000Y-134744667D02*
X119701333Y-134744667D01*
X119468000Y-135011333D01*
X119568000Y-135011333D01*
X119634667Y-135044667D01*
X119668000Y-135078000D01*
X119701333Y-135144667D01*
X119701333Y-135311333D01*
X119668000Y-135378000D01*
X119634667Y-135411333D01*
X119568000Y-135444667D01*
X119368000Y-135444667D01*
X119301333Y-135411333D01*
X119268000Y-135378000D01*
X117501333Y-138746667D02*
X117868000Y-138280000D01*
X117501333Y-138280000D02*
X117868000Y-138746667D01*
X118101333Y-138113333D02*
X118134667Y-138080000D01*
X118201333Y-138046667D01*
X118368000Y-138046667D01*
X118434667Y-138080000D01*
X118468000Y-138113333D01*
X118501333Y-138180000D01*
X118501333Y-138246667D01*
X118468000Y-138346667D01*
X118068000Y-138746667D01*
X118501333Y-138746667D01*
X118634667Y-138813333D02*
X119168000Y-138813333D01*
X119301333Y-138113333D02*
X119334667Y-138080000D01*
X119401333Y-138046667D01*
X119568000Y-138046667D01*
X119634667Y-138080000D01*
X119668000Y-138113333D01*
X119701333Y-138180000D01*
X119701333Y-138246667D01*
X119668000Y-138346667D01*
X119268000Y-138746667D01*
X119701333Y-138746667D01*
X136297333Y-135444667D02*
X136664000Y-134978000D01*
X136297333Y-134978000D02*
X136664000Y-135444667D01*
X136897333Y-134811333D02*
X136930667Y-134778000D01*
X136997333Y-134744667D01*
X137164000Y-134744667D01*
X137230667Y-134778000D01*
X137264000Y-134811333D01*
X137297333Y-134878000D01*
X137297333Y-134944667D01*
X137264000Y-135044667D01*
X136864000Y-135444667D01*
X137297333Y-135444667D01*
X137430667Y-135511333D02*
X137964000Y-135511333D01*
X138497333Y-135444667D02*
X138097333Y-135444667D01*
X138297333Y-135444667D02*
X138297333Y-134744667D01*
X138230667Y-134844667D01*
X138164000Y-134911333D01*
X138097333Y-134944667D01*
X136297333Y-138746667D02*
X136664000Y-138280000D01*
X136297333Y-138280000D02*
X136664000Y-138746667D01*
X136897333Y-138113333D02*
X136930667Y-138080000D01*
X136997333Y-138046667D01*
X137164000Y-138046667D01*
X137230667Y-138080000D01*
X137264000Y-138113333D01*
X137297333Y-138180000D01*
X137297333Y-138246667D01*
X137264000Y-138346667D01*
X136864000Y-138746667D01*
X137297333Y-138746667D01*
X137430667Y-138813333D02*
X137964000Y-138813333D01*
X138264000Y-138046667D02*
X138330667Y-138046667D01*
X138397333Y-138080000D01*
X138430667Y-138113333D01*
X138464000Y-138180000D01*
X138497333Y-138313333D01*
X138497333Y-138480000D01*
X138464000Y-138613333D01*
X138430667Y-138680000D01*
X138397333Y-138713333D01*
X138330667Y-138746667D01*
X138264000Y-138746667D01*
X138197333Y-138713333D01*
X138164000Y-138680000D01*
X138130667Y-138613333D01*
X138097333Y-138480000D01*
X138097333Y-138313333D01*
X138130667Y-138180000D01*
X138164000Y-138113333D01*
X138197333Y-138080000D01*
X138264000Y-138046667D01*
X117522001Y-143888667D02*
X117522001Y-144455333D01*
X117555334Y-144522000D01*
X117588667Y-144555333D01*
X117655334Y-144588667D01*
X117788667Y-144588667D01*
X117855334Y-144555333D01*
X117888667Y-144522000D01*
X117922001Y-144455333D01*
X117922001Y-143888667D01*
X118255334Y-144588667D02*
X118255334Y-143888667D01*
X118655334Y-144588667D01*
X118655334Y-143888667D01*
X118988667Y-144588667D02*
X118988667Y-143888667D01*
X119155333Y-144655333D02*
X119688666Y-144655333D01*
X120088666Y-144222000D02*
X120188666Y-144255333D01*
X120221999Y-144288667D01*
X120255333Y-144355333D01*
X120255333Y-144455333D01*
X120221999Y-144522000D01*
X120188666Y-144555333D01*
X120121999Y-144588667D01*
X119855333Y-144588667D01*
X119855333Y-143888667D01*
X120088666Y-143888667D01*
X120155333Y-143922000D01*
X120188666Y-143955333D01*
X120221999Y-144022000D01*
X120221999Y-144088667D01*
X120188666Y-144155333D01*
X120155333Y-144188667D01*
X120088666Y-144222000D01*
X119855333Y-144222000D01*
X133324667Y-124076667D02*
X133324667Y-124643333D01*
X133358000Y-124710000D01*
X133391333Y-124743333D01*
X133458000Y-124776667D01*
X133591333Y-124776667D01*
X133658000Y-124743333D01*
X133691333Y-124710000D01*
X133724667Y-124643333D01*
X133724667Y-124076667D01*
X134358000Y-124076667D02*
X134224666Y-124076667D01*
X134158000Y-124110000D01*
X134124666Y-124143333D01*
X134058000Y-124243333D01*
X134024666Y-124376667D01*
X134024666Y-124643333D01*
X134058000Y-124710000D01*
X134091333Y-124743333D01*
X134158000Y-124776667D01*
X134291333Y-124776667D01*
X134358000Y-124743333D01*
X134391333Y-124710000D01*
X134424666Y-124643333D01*
X134424666Y-124476667D01*
X134391333Y-124410000D01*
X134358000Y-124376667D01*
X134291333Y-124343333D01*
X134158000Y-124343333D01*
X134091333Y-124376667D01*
X134058000Y-124410000D01*
X134024666Y-124476667D01*
X118168000Y-161794000D02*
X118134666Y-161827333D01*
X118034666Y-161860667D01*
X117968000Y-161860667D01*
X117868000Y-161827333D01*
X117801333Y-161760667D01*
X117768000Y-161694000D01*
X117734666Y-161560667D01*
X117734666Y-161460667D01*
X117768000Y-161327333D01*
X117801333Y-161260667D01*
X117868000Y-161194000D01*
X117968000Y-161160667D01*
X118034666Y-161160667D01*
X118134666Y-161194000D01*
X118168000Y-161227333D01*
X118401333Y-161160667D02*
X118868000Y-161160667D01*
X118568000Y-161860667D01*
X119434667Y-161394000D02*
X119434667Y-161860667D01*
X119268000Y-161127333D02*
X119101333Y-161627333D01*
X119534667Y-161627333D01*
X111630667Y-131851333D02*
X112197333Y-131851333D01*
X112264000Y-131818000D01*
X112297333Y-131784667D01*
X112330667Y-131718000D01*
X112330667Y-131584667D01*
X112297333Y-131518000D01*
X112264000Y-131484667D01*
X112197333Y-131451333D01*
X111630667Y-131451333D01*
X112330667Y-131084667D02*
X112330667Y-130951334D01*
X112297333Y-130884667D01*
X112264000Y-130851334D01*
X112164000Y-130784667D01*
X112030667Y-130751334D01*
X111764000Y-130751334D01*
X111697333Y-130784667D01*
X111664000Y-130818000D01*
X111630667Y-130884667D01*
X111630667Y-131018000D01*
X111664000Y-131084667D01*
X111697333Y-131118000D01*
X111764000Y-131151334D01*
X111930667Y-131151334D01*
X111997333Y-131118000D01*
X112030667Y-131084667D01*
X112064000Y-131018000D01*
X112064000Y-130884667D01*
X112030667Y-130818000D01*
X111997333Y-130784667D01*
X111930667Y-130751334D01*
X119009334Y-111060667D02*
X118776000Y-110727333D01*
X118609334Y-111060667D02*
X118609334Y-110360667D01*
X118876000Y-110360667D01*
X118942667Y-110394000D01*
X118976000Y-110427333D01*
X119009334Y-110494000D01*
X119009334Y-110594000D01*
X118976000Y-110660667D01*
X118942667Y-110694000D01*
X118876000Y-110727333D01*
X118609334Y-110727333D01*
X119342667Y-111060667D02*
X119476000Y-111060667D01*
X119542667Y-111027333D01*
X119576000Y-110994000D01*
X119642667Y-110894000D01*
X119676000Y-110760667D01*
X119676000Y-110494000D01*
X119642667Y-110427333D01*
X119609334Y-110394000D01*
X119542667Y-110360667D01*
X119409334Y-110360667D01*
X119342667Y-110394000D01*
X119309334Y-110427333D01*
X119276000Y-110494000D01*
X119276000Y-110660667D01*
X119309334Y-110727333D01*
X119342667Y-110760667D01*
X119409334Y-110794000D01*
X119542667Y-110794000D01*
X119609334Y-110760667D01*
X119642667Y-110727333D01*
X119676000Y-110660667D01*
X128586667Y-105164666D02*
X127886667Y-105164666D01*
X127886667Y-104898000D01*
X127920000Y-104831333D01*
X127953333Y-104798000D01*
X128020000Y-104764666D01*
X128120000Y-104764666D01*
X128186667Y-104798000D01*
X128220000Y-104831333D01*
X128253333Y-104898000D01*
X128253333Y-105164666D01*
X127886667Y-104164666D02*
X127886667Y-104298000D01*
X127920000Y-104364666D01*
X127953333Y-104398000D01*
X128053333Y-104464666D01*
X128186667Y-104498000D01*
X128453333Y-104498000D01*
X128520000Y-104464666D01*
X128553333Y-104431333D01*
X128586667Y-104364666D01*
X128586667Y-104231333D01*
X128553333Y-104164666D01*
X128520000Y-104131333D01*
X128453333Y-104098000D01*
X128286667Y-104098000D01*
X128220000Y-104131333D01*
X128186667Y-104164666D01*
X128153333Y-104231333D01*
X128153333Y-104364666D01*
X128186667Y-104431333D01*
X128220000Y-104464666D01*
X128286667Y-104498000D01*
X135440000Y-145030000D02*
X135406666Y-145063333D01*
X135306666Y-145096667D01*
X135240000Y-145096667D01*
X135140000Y-145063333D01*
X135073333Y-144996667D01*
X135040000Y-144930000D01*
X135006666Y-144796667D01*
X135006666Y-144696667D01*
X135040000Y-144563333D01*
X135073333Y-144496667D01*
X135140000Y-144430000D01*
X135240000Y-144396667D01*
X135306666Y-144396667D01*
X135406666Y-144430000D01*
X135440000Y-144463333D01*
X136106666Y-145096667D02*
X135706666Y-145096667D01*
X135906666Y-145096667D02*
X135906666Y-144396667D01*
X135840000Y-144496667D01*
X135773333Y-144563333D01*
X135706666Y-144596667D01*
X136373333Y-144463333D02*
X136406667Y-144430000D01*
X136473333Y-144396667D01*
X136640000Y-144396667D01*
X136706667Y-144430000D01*
X136740000Y-144463333D01*
X136773333Y-144530000D01*
X136773333Y-144596667D01*
X136740000Y-144696667D01*
X136340000Y-145096667D01*
X136773333Y-145096667D01*
X143572667Y-149360666D02*
X142872667Y-149360666D01*
X142872667Y-149094000D01*
X142906000Y-149027333D01*
X142939333Y-148994000D01*
X143006000Y-148960666D01*
X143106000Y-148960666D01*
X143172667Y-148994000D01*
X143206000Y-149027333D01*
X143239333Y-149094000D01*
X143239333Y-149360666D01*
X142872667Y-148727333D02*
X142872667Y-148294000D01*
X143139333Y-148527333D01*
X143139333Y-148427333D01*
X143172667Y-148360666D01*
X143206000Y-148327333D01*
X143272667Y-148294000D01*
X143439333Y-148294000D01*
X143506000Y-148327333D01*
X143539333Y-148360666D01*
X143572667Y-148427333D01*
X143572667Y-148627333D01*
X143539333Y-148694000D01*
X143506000Y-148727333D01*
X101662667Y-105164666D02*
X100962667Y-105164666D01*
X100962667Y-104898000D01*
X100996000Y-104831333D01*
X101029333Y-104798000D01*
X101096000Y-104764666D01*
X101196000Y-104764666D01*
X101262667Y-104798000D01*
X101296000Y-104831333D01*
X101329333Y-104898000D01*
X101329333Y-105164666D01*
X100962667Y-104531333D02*
X100962667Y-104064666D01*
X101662667Y-104364666D01*
X121728667Y-105164666D02*
X121028667Y-105164666D01*
X121028667Y-104898000D01*
X121062000Y-104831333D01*
X121095333Y-104798000D01*
X121162000Y-104764666D01*
X121262000Y-104764666D01*
X121328667Y-104798000D01*
X121362000Y-104831333D01*
X121395333Y-104898000D01*
X121395333Y-105164666D01*
X121328667Y-104364666D02*
X121295333Y-104431333D01*
X121262000Y-104464666D01*
X121195333Y-104498000D01*
X121162000Y-104498000D01*
X121095333Y-104464666D01*
X121062000Y-104431333D01*
X121028667Y-104364666D01*
X121028667Y-104231333D01*
X121062000Y-104164666D01*
X121095333Y-104131333D01*
X121162000Y-104098000D01*
X121195333Y-104098000D01*
X121262000Y-104131333D01*
X121295333Y-104164666D01*
X121328667Y-104231333D01*
X121328667Y-104364666D01*
X121362000Y-104431333D01*
X121395333Y-104464666D01*
X121462000Y-104498000D01*
X121595333Y-104498000D01*
X121662000Y-104464666D01*
X121695333Y-104431333D01*
X121728667Y-104364666D01*
X121728667Y-104231333D01*
X121695333Y-104164666D01*
X121662000Y-104131333D01*
X121595333Y-104098000D01*
X121462000Y-104098000D01*
X121395333Y-104131333D01*
X121362000Y-104164666D01*
X121328667Y-104231333D01*
X121474667Y-151596666D02*
X121141333Y-151830000D01*
X121474667Y-151996666D02*
X120774667Y-151996666D01*
X120774667Y-151730000D01*
X120808000Y-151663333D01*
X120841333Y-151630000D01*
X120908000Y-151596666D01*
X121008000Y-151596666D01*
X121074667Y-151630000D01*
X121108000Y-151663333D01*
X121141333Y-151730000D01*
X121141333Y-151996666D01*
X121474667Y-151296666D02*
X120774667Y-151296666D01*
X120774667Y-151030000D01*
X120808000Y-150963333D01*
X120841333Y-150930000D01*
X120908000Y-150896666D01*
X121008000Y-150896666D01*
X121074667Y-150930000D01*
X121108000Y-150963333D01*
X121141333Y-151030000D01*
X121141333Y-151296666D01*
X121474667Y-150230000D02*
X121474667Y-150630000D01*
X121474667Y-150430000D02*
X120774667Y-150430000D01*
X120874667Y-150496666D01*
X120941333Y-150563333D01*
X120974667Y-150630000D01*
X134424000Y-115820000D02*
X134390666Y-115853333D01*
X134290666Y-115886667D01*
X134224000Y-115886667D01*
X134124000Y-115853333D01*
X134057333Y-115786667D01*
X134024000Y-115720000D01*
X133990666Y-115586667D01*
X133990666Y-115486667D01*
X134024000Y-115353333D01*
X134057333Y-115286667D01*
X134124000Y-115220000D01*
X134224000Y-115186667D01*
X134290666Y-115186667D01*
X134390666Y-115220000D01*
X134424000Y-115253333D01*
X134690666Y-115253333D02*
X134724000Y-115220000D01*
X134790666Y-115186667D01*
X134957333Y-115186667D01*
X135024000Y-115220000D01*
X135057333Y-115253333D01*
X135090666Y-115320000D01*
X135090666Y-115386667D01*
X135057333Y-115486667D01*
X134657333Y-115886667D01*
X135090666Y-115886667D01*
X135690667Y-115186667D02*
X135557333Y-115186667D01*
X135490667Y-115220000D01*
X135457333Y-115253333D01*
X135390667Y-115353333D01*
X135357333Y-115486667D01*
X135357333Y-115753333D01*
X135390667Y-115820000D01*
X135424000Y-115853333D01*
X135490667Y-115886667D01*
X135624000Y-115886667D01*
X135690667Y-115853333D01*
X135724000Y-115820000D01*
X135757333Y-115753333D01*
X135757333Y-115586667D01*
X135724000Y-115520000D01*
X135690667Y-115486667D01*
X135624000Y-115453333D01*
X135490667Y-115453333D01*
X135424000Y-115486667D01*
X135390667Y-115520000D01*
X135357333Y-115586667D01*
X126042000Y-149922667D02*
X125808666Y-149589333D01*
X125642000Y-149922667D02*
X125642000Y-149222667D01*
X125908666Y-149222667D01*
X125975333Y-149256000D01*
X126008666Y-149289333D01*
X126042000Y-149356000D01*
X126042000Y-149456000D01*
X126008666Y-149522667D01*
X125975333Y-149556000D01*
X125908666Y-149589333D01*
X125642000Y-149589333D01*
X126308666Y-149289333D02*
X126342000Y-149256000D01*
X126408666Y-149222667D01*
X126575333Y-149222667D01*
X126642000Y-149256000D01*
X126675333Y-149289333D01*
X126708666Y-149356000D01*
X126708666Y-149422667D01*
X126675333Y-149522667D01*
X126275333Y-149922667D01*
X126708666Y-149922667D01*
X127342000Y-149222667D02*
X127008667Y-149222667D01*
X126975333Y-149556000D01*
X127008667Y-149522667D01*
X127075333Y-149489333D01*
X127242000Y-149489333D01*
X127308667Y-149522667D01*
X127342000Y-149556000D01*
X127375333Y-149622667D01*
X127375333Y-149789333D01*
X127342000Y-149856000D01*
X127308667Y-149889333D01*
X127242000Y-149922667D01*
X127075333Y-149922667D01*
X127008667Y-149889333D01*
X126975333Y-149856000D01*
X104452000Y-156526667D02*
X104218666Y-156193333D01*
X104052000Y-156526667D02*
X104052000Y-155826667D01*
X104318666Y-155826667D01*
X104385333Y-155860000D01*
X104418666Y-155893333D01*
X104452000Y-155960000D01*
X104452000Y-156060000D01*
X104418666Y-156126667D01*
X104385333Y-156160000D01*
X104318666Y-156193333D01*
X104052000Y-156193333D01*
X104718666Y-155893333D02*
X104752000Y-155860000D01*
X104818666Y-155826667D01*
X104985333Y-155826667D01*
X105052000Y-155860000D01*
X105085333Y-155893333D01*
X105118666Y-155960000D01*
X105118666Y-156026667D01*
X105085333Y-156126667D01*
X104685333Y-156526667D01*
X105118666Y-156526667D01*
X105552000Y-155826667D02*
X105618667Y-155826667D01*
X105685333Y-155860000D01*
X105718667Y-155893333D01*
X105752000Y-155960000D01*
X105785333Y-156093333D01*
X105785333Y-156260000D01*
X105752000Y-156393333D01*
X105718667Y-156460000D01*
X105685333Y-156493333D01*
X105618667Y-156526667D01*
X105552000Y-156526667D01*
X105485333Y-156493333D01*
X105452000Y-156460000D01*
X105418667Y-156393333D01*
X105385333Y-156260000D01*
X105385333Y-156093333D01*
X105418667Y-155960000D01*
X105452000Y-155893333D01*
X105485333Y-155860000D01*
X105552000Y-155826667D01*
X103436000Y-163064000D02*
X103402666Y-163097333D01*
X103302666Y-163130667D01*
X103236000Y-163130667D01*
X103136000Y-163097333D01*
X103069333Y-163030667D01*
X103036000Y-162964000D01*
X103002666Y-162830667D01*
X103002666Y-162730667D01*
X103036000Y-162597333D01*
X103069333Y-162530667D01*
X103136000Y-162464000D01*
X103236000Y-162430667D01*
X103302666Y-162430667D01*
X103402666Y-162464000D01*
X103436000Y-162497333D01*
X103669333Y-162430667D02*
X104136000Y-162430667D01*
X103836000Y-163130667D01*
X104336000Y-162430667D02*
X104802667Y-162430667D01*
X104502667Y-163130667D01*
X105976000Y-163064000D02*
X105942666Y-163097333D01*
X105842666Y-163130667D01*
X105776000Y-163130667D01*
X105676000Y-163097333D01*
X105609333Y-163030667D01*
X105576000Y-162964000D01*
X105542666Y-162830667D01*
X105542666Y-162730667D01*
X105576000Y-162597333D01*
X105609333Y-162530667D01*
X105676000Y-162464000D01*
X105776000Y-162430667D01*
X105842666Y-162430667D01*
X105942666Y-162464000D01*
X105976000Y-162497333D01*
X106209333Y-162430667D02*
X106676000Y-162430667D01*
X106376000Y-163130667D01*
X107042667Y-162730667D02*
X106976000Y-162697333D01*
X106942667Y-162664000D01*
X106909333Y-162597333D01*
X106909333Y-162564000D01*
X106942667Y-162497333D01*
X106976000Y-162464000D01*
X107042667Y-162430667D01*
X107176000Y-162430667D01*
X107242667Y-162464000D01*
X107276000Y-162497333D01*
X107309333Y-162564000D01*
X107309333Y-162597333D01*
X107276000Y-162664000D01*
X107242667Y-162697333D01*
X107176000Y-162730667D01*
X107042667Y-162730667D01*
X106976000Y-162764000D01*
X106942667Y-162797333D01*
X106909333Y-162864000D01*
X106909333Y-162997333D01*
X106942667Y-163064000D01*
X106976000Y-163097333D01*
X107042667Y-163130667D01*
X107176000Y-163130667D01*
X107242667Y-163097333D01*
X107276000Y-163064000D01*
X107309333Y-162997333D01*
X107309333Y-162864000D01*
X107276000Y-162797333D01*
X107242667Y-162764000D01*
X107176000Y-162730667D01*
X101495334Y-158112667D02*
X101495334Y-158679333D01*
X101528667Y-158746000D01*
X101562000Y-158779333D01*
X101628667Y-158812667D01*
X101762000Y-158812667D01*
X101828667Y-158779333D01*
X101862000Y-158746000D01*
X101895334Y-158679333D01*
X101895334Y-158112667D01*
X102595333Y-158812667D02*
X102195333Y-158812667D01*
X102395333Y-158812667D02*
X102395333Y-158112667D01*
X102328667Y-158212667D01*
X102262000Y-158279333D01*
X102195333Y-158312667D01*
X103195334Y-158112667D02*
X103062000Y-158112667D01*
X102995334Y-158146000D01*
X102962000Y-158179333D01*
X102895334Y-158279333D01*
X102862000Y-158412667D01*
X102862000Y-158679333D01*
X102895334Y-158746000D01*
X102928667Y-158779333D01*
X102995334Y-158812667D01*
X103128667Y-158812667D01*
X103195334Y-158779333D01*
X103228667Y-158746000D01*
X103262000Y-158679333D01*
X103262000Y-158512667D01*
X103228667Y-158446000D01*
X103195334Y-158412667D01*
X103128667Y-158379333D01*
X102995334Y-158379333D01*
X102928667Y-158412667D01*
X102895334Y-158446000D01*
X102862000Y-158512667D01*
X116560666Y-149127333D02*
X116660666Y-149160667D01*
X116827333Y-149160667D01*
X116894000Y-149127333D01*
X116927333Y-149094000D01*
X116960666Y-149027333D01*
X116960666Y-148960667D01*
X116927333Y-148894000D01*
X116894000Y-148860667D01*
X116827333Y-148827333D01*
X116694000Y-148794000D01*
X116627333Y-148760667D01*
X116594000Y-148727333D01*
X116560666Y-148660667D01*
X116560666Y-148594000D01*
X116594000Y-148527333D01*
X116627333Y-148494000D01*
X116694000Y-148460667D01*
X116860666Y-148460667D01*
X116960666Y-148494000D01*
X117227333Y-148527333D02*
X117260667Y-148494000D01*
X117327333Y-148460667D01*
X117494000Y-148460667D01*
X117560667Y-148494000D01*
X117594000Y-148527333D01*
X117627333Y-148594000D01*
X117627333Y-148660667D01*
X117594000Y-148760667D01*
X117194000Y-149160667D01*
X117627333Y-149160667D01*
M02*
