G04 #@! TF.FileFunction,Copper,L4,Bot,Signal*
%FSLAX46Y46*%
G04 Gerber Fmt 4.6, Leading zero omitted, Abs format (unit mm)*
G04 Created by KiCad (PCBNEW 4.0.0-2.201512091501+6195~38~ubuntu14.04.1-stable) date Wed 16 Dec 2015 17:24:57 GMT*
%MOMM*%
G01*
G04 APERTURE LIST*
%ADD10C,0.100000*%
%ADD11R,1.060000X0.650000*%
%ADD12R,1.000000X1.250000*%
%ADD13R,0.700000X1.300000*%
%ADD14R,1.300000X0.700000*%
%ADD15R,2.230000X1.800000*%
%ADD16R,0.800000X0.750000*%
%ADD17R,1.800000X2.230000*%
%ADD18R,0.750000X0.800000*%
%ADD19R,2.032000X2.032000*%
%ADD20O,2.032000X2.032000*%
%ADD21R,1.727200X1.727200*%
%ADD22O,1.727200X1.727200*%
%ADD23O,2.500000X1.500000*%
%ADD24C,1.998980*%
%ADD25R,1.680000X1.880000*%
%ADD26C,1.000000*%
%ADD27C,0.889000*%
%ADD28C,1.500000*%
%ADD29C,0.508000*%
%ADD30C,1.016000*%
%ADD31C,0.254000*%
%ADD32C,0.381000*%
%ADD33C,1.500000*%
G04 APERTURE END LIST*
D10*
D11*
X106764000Y-114874000D03*
X106764000Y-115824000D03*
X106764000Y-116774000D03*
X104564000Y-116774000D03*
X104564000Y-114874000D03*
X104564000Y-115824000D03*
D12*
X102886000Y-123952000D03*
X104886000Y-123952000D03*
X102886000Y-129540000D03*
X104886000Y-129540000D03*
X102886000Y-118364000D03*
X104886000Y-118364000D03*
X109458000Y-123952000D03*
X107458000Y-123952000D03*
X109458000Y-129540000D03*
X107458000Y-129540000D03*
X109458000Y-118364000D03*
X107458000Y-118364000D03*
X102886000Y-112776000D03*
X104886000Y-112776000D03*
X102886000Y-135128000D03*
X104886000Y-135128000D03*
X109458000Y-112776000D03*
X107458000Y-112776000D03*
X109458000Y-135128000D03*
X107458000Y-135128000D03*
D13*
X132654000Y-126365000D03*
X134554000Y-126365000D03*
D14*
X140716000Y-126807000D03*
X140716000Y-124907000D03*
D13*
X144206000Y-125095000D03*
X142306000Y-125095000D03*
D14*
X140716000Y-119949000D03*
X140716000Y-118049000D03*
D13*
X144206000Y-118237000D03*
X142306000Y-118237000D03*
D15*
X129032000Y-122999000D03*
X129032000Y-120079000D03*
D16*
X129528000Y-118491000D03*
X128028000Y-118491000D03*
D15*
X135128000Y-122999000D03*
X135128000Y-120079000D03*
D16*
X134632000Y-118491000D03*
X136132000Y-118491000D03*
D17*
X133160000Y-116459000D03*
X136080000Y-116459000D03*
D18*
X131318000Y-119519000D03*
X131318000Y-121019000D03*
D17*
X131000000Y-116459000D03*
X128080000Y-116459000D03*
D18*
X132842000Y-119519000D03*
X132842000Y-121019000D03*
D16*
X144006000Y-126619000D03*
X142506000Y-126619000D03*
D18*
X146050000Y-127369000D03*
X146050000Y-125869000D03*
X147574000Y-127369000D03*
X147574000Y-125869000D03*
D16*
X143498000Y-128143000D03*
X141998000Y-128143000D03*
X143498000Y-129413000D03*
X141998000Y-129413000D03*
X144006000Y-119761000D03*
X142506000Y-119761000D03*
D18*
X147574000Y-120511000D03*
X147574000Y-119011000D03*
X146050000Y-120511000D03*
X146050000Y-119011000D03*
D16*
X143498000Y-121285000D03*
X141998000Y-121285000D03*
X143498000Y-122555000D03*
X141998000Y-122555000D03*
D18*
X121285000Y-128639000D03*
X121285000Y-127139000D03*
X121031000Y-131687000D03*
X121031000Y-130187000D03*
X119761000Y-131687000D03*
X119761000Y-130187000D03*
X122555000Y-128893000D03*
X122555000Y-127393000D03*
X123825000Y-128893000D03*
X123825000Y-127393000D03*
X121285000Y-120257000D03*
X121285000Y-118757000D03*
X120904000Y-123305000D03*
X120904000Y-121805000D03*
X119634000Y-123305000D03*
X119634000Y-121805000D03*
X122555000Y-120511000D03*
X122555000Y-119011000D03*
X123825000Y-120511000D03*
X123825000Y-119011000D03*
D17*
X137604000Y-113538000D03*
X134684000Y-113538000D03*
X126429000Y-113284000D03*
X129349000Y-113284000D03*
D18*
X108204000Y-116828000D03*
X108204000Y-115328000D03*
D10*
G36*
X128136000Y-125865000D02*
X129036000Y-125265000D01*
X129036000Y-127465000D01*
X128136000Y-126865000D01*
X128136000Y-125865000D01*
X128136000Y-125865000D01*
G37*
G36*
X130436000Y-126865000D02*
X129536000Y-127465000D01*
X129536000Y-125265000D01*
X130436000Y-125865000D01*
X130436000Y-126865000D01*
X130436000Y-126865000D01*
G37*
G36*
X134882000Y-129547000D02*
X134282000Y-128647000D01*
X136482000Y-128647000D01*
X135882000Y-129547000D01*
X134882000Y-129547000D01*
X134882000Y-129547000D01*
G37*
G36*
X135882000Y-127247000D02*
X136482000Y-128147000D01*
X134282000Y-128147000D01*
X134882000Y-127247000D01*
X135882000Y-127247000D01*
X135882000Y-127247000D01*
G37*
D19*
X145288000Y-147828000D03*
D20*
X147828000Y-147828000D03*
D19*
X145288000Y-145288000D03*
D20*
X147828000Y-145288000D03*
D21*
X103886000Y-140208000D03*
D22*
X106426000Y-140208000D03*
X103886000Y-142748000D03*
X106426000Y-142748000D03*
X103886000Y-145288000D03*
X106426000Y-145288000D03*
X103886000Y-147828000D03*
X106426000Y-147828000D03*
D23*
X121742000Y-133416000D03*
X143942000Y-109916000D03*
D24*
X144272000Y-104648000D03*
X146972020Y-101947980D03*
X141571980Y-101947980D03*
X141571980Y-107348020D03*
X146972020Y-107348020D03*
X117348000Y-104648000D03*
X120048020Y-101947980D03*
X114647980Y-101947980D03*
X114647980Y-107348020D03*
X120048020Y-107348020D03*
X105156000Y-104648000D03*
X107856020Y-101947980D03*
X102455980Y-101947980D03*
X102455980Y-107348020D03*
X107856020Y-107348020D03*
X132080000Y-104648000D03*
X134780020Y-101947980D03*
X129379980Y-101947980D03*
X129379980Y-107348020D03*
X134780020Y-107348020D03*
D23*
X143942000Y-133416000D03*
X121742000Y-109916000D03*
D25*
X106172000Y-135128000D03*
X106172000Y-112776000D03*
X106172000Y-118364000D03*
X106172000Y-129540000D03*
X106172000Y-123952000D03*
D26*
X130175000Y-120269000D03*
D27*
X146812000Y-118745000D03*
X146812000Y-125603000D03*
X109474000Y-124968000D03*
D26*
X133985000Y-120269000D03*
X138176000Y-122047000D03*
X102616000Y-122186000D03*
D27*
X102616000Y-116598000D03*
D26*
X108204000Y-109220000D03*
X102616000Y-110236000D03*
X127508000Y-116586000D03*
X111760000Y-104140000D03*
X125857000Y-121666000D03*
X127127000Y-113792000D03*
X137414000Y-112903000D03*
X144145000Y-122936000D03*
X134366000Y-122174000D03*
X146812000Y-128270000D03*
X130048000Y-122174000D03*
X144526000Y-130556000D03*
X140970000Y-121031000D03*
X140970000Y-127889000D03*
X109474000Y-113792000D03*
X130479800Y-116586000D03*
X133731000Y-116586000D03*
X135255000Y-125603000D03*
X124460000Y-138684000D03*
X116713000Y-140208000D03*
X144018000Y-126619000D03*
D27*
X142494000Y-125349000D03*
D26*
X144006000Y-119761000D03*
D27*
X142494000Y-118491000D03*
D26*
X119888000Y-129032000D03*
X109474000Y-130556000D03*
X120015000Y-120523000D03*
X109474000Y-136144000D03*
X122555000Y-126619000D03*
X122555000Y-118237000D03*
X109474000Y-119380000D03*
X142240000Y-115062000D03*
X123698000Y-112268000D03*
X132842000Y-113538000D03*
X128651000Y-113157000D03*
X102870000Y-124968000D03*
X102870000Y-113792000D03*
D28*
X115824000Y-146812000D03*
X138303000Y-140248000D03*
D26*
X111252000Y-148590000D03*
X118872000Y-148082000D03*
D28*
X139192000Y-147828000D03*
X126492000Y-147828000D03*
X130683000Y-140248000D03*
D26*
X112268000Y-143764000D03*
X135890000Y-129921000D03*
X128016000Y-126365000D03*
X133096000Y-140208000D03*
X119380000Y-144780000D03*
X123190000Y-147828000D03*
X135636000Y-140208000D03*
X132334000Y-125603000D03*
D27*
X103886000Y-122682000D03*
X104267000Y-116840000D03*
D26*
X103886000Y-111506000D03*
X112776000Y-147320000D03*
X124460000Y-147828000D03*
X102870000Y-119380000D03*
X102870000Y-130556000D03*
X102870000Y-136144000D03*
X111506000Y-138176000D03*
X137668000Y-128131000D03*
X125984000Y-141478000D03*
X126492000Y-139700000D03*
X127000000Y-128331000D03*
D29*
X134378000Y-119837000D02*
X134874000Y-120333000D01*
D30*
X129032000Y-120079000D02*
X128841000Y-120079000D01*
D31*
X129857000Y-120587000D02*
X130175000Y-120269000D01*
D29*
X134811000Y-120333000D02*
X134874000Y-120333000D01*
D31*
X129857000Y-120587000D02*
X129032000Y-120079000D01*
D29*
X147078000Y-119011000D02*
X146546000Y-119011000D01*
X146812000Y-118745000D02*
X146546000Y-119011000D01*
X146546000Y-119011000D02*
X146050000Y-119011000D01*
X147078000Y-119011000D02*
X147574000Y-119011000D01*
X146812000Y-118745000D02*
X147078000Y-119011000D01*
X146062000Y-125857000D02*
X146050000Y-125869000D01*
X146062000Y-125857000D02*
X146812000Y-125857000D01*
X147562000Y-125857000D02*
X147574000Y-125869000D01*
X146812000Y-125857000D02*
X147562000Y-125857000D01*
X146812000Y-125603000D02*
X147066000Y-125857000D01*
X147066000Y-125857000D02*
X146812000Y-125857000D01*
D30*
X109458000Y-124952000D02*
X109474000Y-124968000D01*
X109458000Y-123952000D02*
X109458000Y-124952000D01*
X134632000Y-119583000D02*
X135128000Y-120079000D01*
X134632000Y-118491000D02*
X134632000Y-119583000D01*
X134175000Y-120079000D02*
X135128000Y-120079000D01*
X133985000Y-120269000D02*
X134175000Y-120079000D01*
X129528000Y-119583000D02*
X129032000Y-120079000D01*
X129528000Y-118491000D02*
X129528000Y-119583000D01*
X129985000Y-120079000D02*
X130175000Y-120269000D01*
X129032000Y-120079000D02*
X129985000Y-120079000D01*
D29*
X121742000Y-131255000D02*
X122555000Y-130442000D01*
X122555000Y-130442000D02*
X122555000Y-128893000D01*
X135128000Y-122999000D02*
X134822000Y-122999000D01*
X134822000Y-122999000D02*
X132842000Y-121019000D01*
D30*
X136144000Y-117856000D02*
X136144000Y-116523000D01*
X136144000Y-116523000D02*
X136080000Y-116459000D01*
X135128000Y-122999000D02*
X135446000Y-122999000D01*
X135446000Y-122999000D02*
X137160000Y-121285000D01*
X136144000Y-117856000D02*
X136132000Y-117856000D01*
X136132000Y-117844000D02*
X136144000Y-117856000D01*
X137160000Y-118872000D02*
X136132000Y-117844000D01*
X137160000Y-121285000D02*
X137160000Y-118872000D01*
D29*
X121850500Y-122358500D02*
X121920000Y-122428000D01*
X121920000Y-122428000D02*
X124968000Y-122428000D01*
D30*
X122682000Y-121666000D02*
X122682000Y-122936000D01*
X124714000Y-121666000D02*
X122682000Y-121666000D01*
X124968000Y-121920000D02*
X124714000Y-121666000D01*
X124968000Y-122428000D02*
X124968000Y-121920000D01*
X124968000Y-123190000D02*
X124968000Y-122428000D01*
X121412000Y-123190000D02*
X124968000Y-123190000D01*
D29*
X125857000Y-121666000D02*
X125476000Y-122047000D01*
X125476000Y-122047000D02*
X125476000Y-123190000D01*
X125476000Y-123190000D02*
X124968000Y-123698000D01*
X124968000Y-123698000D02*
X121412000Y-123698000D01*
X125857000Y-121666000D02*
X125222000Y-121666000D01*
X125222000Y-121666000D02*
X124460000Y-120904000D01*
X124460000Y-120904000D02*
X122682000Y-120904000D01*
X122682000Y-120904000D02*
X122174000Y-121412000D01*
X122174000Y-122428000D02*
X121412000Y-123190000D01*
X121412000Y-123190000D02*
X120904000Y-123698000D01*
X122174000Y-121412000D02*
X122174000Y-122428000D01*
X120904000Y-123698000D02*
X119634000Y-123698000D01*
X119634000Y-123698000D02*
X119888000Y-123698000D01*
X119888000Y-123698000D02*
X119634000Y-123305000D01*
X119634000Y-123305000D02*
X119634000Y-123952000D01*
X119634000Y-123952000D02*
X125222000Y-123952000D01*
X125222000Y-123952000D02*
X125857000Y-123317000D01*
X125857000Y-123317000D02*
X125857000Y-121666000D01*
X125857000Y-121666000D02*
X124702000Y-120511000D01*
X124702000Y-120511000D02*
X123825000Y-120511000D01*
D31*
X102616000Y-122174000D02*
X102616000Y-122186000D01*
D29*
X102616000Y-116586000D02*
X102616000Y-116598000D01*
X105752000Y-116244000D02*
X105752000Y-117894000D01*
X128028000Y-118491000D02*
X128080000Y-118439000D01*
X128080000Y-118439000D02*
X128080000Y-116459000D01*
X127508000Y-116586000D02*
X127635000Y-116459000D01*
X127635000Y-116459000D02*
X128080000Y-116459000D01*
D30*
X107856020Y-107348020D02*
X107856020Y-101947980D01*
X107856020Y-101947980D02*
X102455980Y-101947980D01*
X102455980Y-101947980D02*
X102455980Y-107348020D01*
X102455980Y-107348020D02*
X107856020Y-107348020D01*
X114647980Y-101947980D02*
X120048020Y-101947980D01*
X120048020Y-101947980D02*
X120048020Y-107348020D01*
X120048020Y-107348020D02*
X114647980Y-107348020D01*
X114647980Y-107348020D02*
X114647980Y-101947980D01*
D29*
X136132000Y-118491000D02*
X136132000Y-117856000D01*
X136132000Y-117856000D02*
X136132000Y-116511000D01*
X136132000Y-116511000D02*
X136080000Y-116459000D01*
X123825000Y-120511000D02*
X122555000Y-120511000D01*
X122555000Y-120511000D02*
X121920000Y-121146000D01*
X121920000Y-122289000D02*
X121850500Y-122358500D01*
X121850500Y-122358500D02*
X120904000Y-123305000D01*
X121920000Y-121146000D02*
X121920000Y-122289000D01*
X120904000Y-123305000D02*
X119634000Y-123305000D01*
D30*
X146972020Y-101947980D02*
X146972020Y-107348020D01*
D29*
X137604000Y-112903000D02*
X138112000Y-113411000D01*
X123825000Y-128893000D02*
X122555000Y-128893000D01*
X119761000Y-131687000D02*
X121031000Y-131687000D01*
X121031000Y-131687000D02*
X121742000Y-131255000D01*
X121742000Y-131255000D02*
X121742000Y-132334000D01*
X121742000Y-132334000D02*
X121742000Y-133416000D01*
D30*
X107458000Y-135128000D02*
X107062000Y-135128000D01*
X107062000Y-135128000D02*
X106592000Y-135598000D01*
X107062000Y-135128000D02*
X106592000Y-134658000D01*
X105752000Y-134658000D02*
X106592000Y-134658000D01*
X105752000Y-135598000D02*
X106592000Y-135598000D01*
X104886000Y-135128000D02*
X105282000Y-135128000D01*
X105282000Y-135128000D02*
X105752000Y-135598000D01*
X105282000Y-135128000D02*
X105752000Y-134658000D01*
X106592000Y-130010000D02*
X107062000Y-129540000D01*
X107062000Y-129540000D02*
X107458000Y-129540000D01*
X107458000Y-129540000D02*
X107062000Y-129540000D01*
X107062000Y-129540000D02*
X106592000Y-129070000D01*
X106592000Y-118834000D02*
X107062000Y-118364000D01*
X107062000Y-118364000D02*
X107458000Y-118364000D01*
X107458000Y-118364000D02*
X107062000Y-118364000D01*
X107062000Y-118364000D02*
X106592000Y-117894000D01*
X105752000Y-118834000D02*
X106592000Y-118834000D01*
X106592000Y-117894000D02*
X105752000Y-117894000D01*
X104886000Y-118364000D02*
X105282000Y-118364000D01*
X105282000Y-118364000D02*
X105752000Y-118834000D01*
X105282000Y-118364000D02*
X105752000Y-117894000D01*
D29*
X127127000Y-113792000D02*
X126619000Y-113284000D01*
X126619000Y-113284000D02*
X126429000Y-113284000D01*
X137414000Y-112903000D02*
X137604000Y-112903000D01*
D30*
X105282000Y-123952000D02*
X105752000Y-124422000D01*
X105282000Y-123952000D02*
X105752000Y-123482000D01*
X104886000Y-123952000D02*
X105282000Y-123952000D01*
X106592000Y-124422000D02*
X105752000Y-124422000D01*
X107062000Y-123952000D02*
X106592000Y-124422000D01*
X106592000Y-123482000D02*
X105752000Y-123482000D01*
X107062000Y-123952000D02*
X106592000Y-123482000D01*
X107458000Y-123952000D02*
X107062000Y-123952000D01*
X107062000Y-112776000D02*
X106592000Y-112306000D01*
X107062000Y-112776000D02*
X106592000Y-113246000D01*
X107458000Y-112776000D02*
X107062000Y-112776000D01*
X106592000Y-113246000D02*
X105752000Y-113246000D01*
X106592000Y-112306000D02*
X105752000Y-112306000D01*
X105282000Y-112776000D02*
X105752000Y-112306000D01*
X105282000Y-112776000D02*
X105752000Y-113246000D01*
X104886000Y-112776000D02*
X105282000Y-112776000D01*
X105282000Y-129540000D02*
X105752000Y-129070000D01*
X105282000Y-129540000D02*
X105752000Y-130010000D01*
X104886000Y-129540000D02*
X105282000Y-129540000D01*
X106592000Y-129070000D02*
X105752000Y-129070000D01*
X105752000Y-130010000D02*
X106592000Y-130010000D01*
D29*
X142355000Y-123698000D02*
X143498000Y-122555000D01*
X141478000Y-123698000D02*
X142355000Y-123698000D01*
X139954000Y-122174000D02*
X141478000Y-123698000D01*
X139954000Y-120650000D02*
X139954000Y-122174000D01*
X140655000Y-119949000D02*
X139954000Y-120650000D01*
X140716000Y-119949000D02*
X140655000Y-119949000D01*
X143498000Y-122555000D02*
X143498000Y-121285000D01*
D31*
X143764000Y-122555000D02*
X143498000Y-122555000D01*
X143764000Y-122555000D02*
X144145000Y-122936000D01*
D29*
X145276000Y-121285000D02*
X143498000Y-121285000D01*
X146050000Y-120511000D02*
X145276000Y-121285000D01*
X147574000Y-120511000D02*
X146050000Y-120511000D01*
X146812000Y-127369000D02*
X146050000Y-127369000D01*
X147574000Y-127369000D02*
X146812000Y-127369000D01*
X145276000Y-128143000D02*
X143498000Y-128143000D01*
X146050000Y-127369000D02*
X145276000Y-128143000D01*
X143498000Y-128143000D02*
X143498000Y-129413000D01*
X143498000Y-129413000D02*
X143498000Y-129782000D01*
X135128000Y-122999000D02*
X135128000Y-122428000D01*
X134366000Y-122174000D02*
X135128000Y-122428000D01*
D31*
X136715000Y-115824000D02*
X136080000Y-116459000D01*
X132842000Y-121019000D02*
X132842000Y-121221500D01*
D29*
X132842000Y-121019000D02*
X131318000Y-121019000D01*
D30*
X146972020Y-101947980D02*
X141571980Y-101947980D01*
X141571980Y-101947980D02*
X141571980Y-107348020D01*
X141571980Y-107348020D02*
X146972020Y-107348020D01*
D29*
X146812000Y-128270000D02*
X146812000Y-127369000D01*
D31*
X129223000Y-122999000D02*
X129032000Y-122999000D01*
X130048000Y-122174000D02*
X129223000Y-122999000D01*
D29*
X130048000Y-122174000D02*
X129032000Y-122999000D01*
X130163000Y-122174000D02*
X130048000Y-122174000D01*
X131318000Y-121019000D02*
X130163000Y-122174000D01*
X144018000Y-130302000D02*
X143498000Y-129782000D01*
X144272000Y-130556000D02*
X144018000Y-130302000D01*
X144272000Y-130556000D02*
X144526000Y-130556000D01*
X141224000Y-130302000D02*
X144018000Y-130302000D01*
X140970000Y-130048000D02*
X141224000Y-130302000D01*
X140970000Y-129794000D02*
X140970000Y-130048000D01*
X140208000Y-129032000D02*
X140970000Y-129794000D01*
X140208000Y-128778000D02*
X140208000Y-129032000D01*
X139954000Y-128524000D02*
X140208000Y-128778000D01*
X139954000Y-127508000D02*
X139954000Y-128524000D01*
X140655000Y-126807000D02*
X139954000Y-127508000D01*
X140716000Y-126807000D02*
X140655000Y-126807000D01*
X106172000Y-115824000D02*
X105752000Y-116244000D01*
X106764000Y-115824000D02*
X106172000Y-115824000D01*
X106764000Y-115824000D02*
X107708000Y-115824000D01*
X107708000Y-115824000D02*
X108204000Y-115328000D01*
X130683000Y-116713000D02*
X130631000Y-116661000D01*
X130631000Y-116661000D02*
X130631000Y-116459000D01*
D31*
X131318000Y-119761000D02*
X131318000Y-119519000D01*
D29*
X141478000Y-121031000D02*
X141478000Y-121539000D01*
X141478000Y-121539000D02*
X141732000Y-121793000D01*
X140970000Y-121031000D02*
X141478000Y-121031000D01*
X141478000Y-121031000D02*
X141744000Y-121031000D01*
X141744000Y-121031000D02*
X141998000Y-121285000D01*
X141998000Y-121285000D02*
X141998000Y-122555000D01*
X140970000Y-121031000D02*
X140970000Y-121527000D01*
X141998000Y-122555000D02*
X140970000Y-121527000D01*
X141998000Y-129171000D02*
X141998000Y-129413000D01*
X141998000Y-128143000D02*
X141998000Y-129171000D01*
X141744000Y-127889000D02*
X141998000Y-128143000D01*
X141744000Y-127889000D02*
X140970000Y-127889000D01*
X140970000Y-128397000D02*
X141998000Y-129413000D01*
X140970000Y-127889000D02*
X140970000Y-128397000D01*
X141478000Y-128651000D02*
X141998000Y-129171000D01*
X141478000Y-128397000D02*
X141478000Y-128651000D01*
X141478000Y-128651000D02*
X141478000Y-128397000D01*
X141478000Y-127889000D02*
X141478000Y-128651000D01*
X140970000Y-127889000D02*
X141478000Y-127889000D01*
D30*
X109458000Y-113776000D02*
X109474000Y-113792000D01*
X109458000Y-112776000D02*
X109458000Y-113776000D01*
X132207000Y-116459000D02*
X133160000Y-116459000D01*
X130873000Y-116459000D02*
X132207000Y-116459000D01*
X131318000Y-116777000D02*
X130873000Y-116459000D01*
X131318000Y-119519000D02*
X131318000Y-116777000D01*
X132080000Y-119519000D02*
X131318000Y-119519000D01*
X132842000Y-119519000D02*
X132080000Y-119519000D01*
X132842000Y-116777000D02*
X132842000Y-119519000D01*
X133160000Y-116459000D02*
X132842000Y-116777000D01*
X132080000Y-116586000D02*
X132080000Y-119519000D01*
X132207000Y-116459000D02*
X132080000Y-116586000D01*
D31*
X134554000Y-126365000D02*
X135255000Y-125664000D01*
X135255000Y-125664000D02*
X135255000Y-125603000D01*
D30*
X110998000Y-116586000D02*
X110998000Y-131064000D01*
D32*
X106764000Y-114874000D02*
X107338000Y-114300000D01*
X108712000Y-114300000D02*
X109220000Y-114808000D01*
X107338000Y-114300000D02*
X108712000Y-114300000D01*
D29*
X109220000Y-114808000D02*
X109474000Y-115062000D01*
D30*
X109474000Y-115062000D02*
X110998000Y-116586000D01*
D31*
X134554000Y-126869000D02*
X135382000Y-127697000D01*
X134554000Y-126365000D02*
X134554000Y-126869000D01*
X131064000Y-126365000D02*
X132080000Y-127381000D01*
X132080000Y-127381000D02*
X133538000Y-127381000D01*
X133538000Y-127381000D02*
X134554000Y-126365000D01*
X129986000Y-126365000D02*
X131064000Y-126365000D01*
D29*
X108458000Y-133604000D02*
X108458000Y-136906000D01*
D30*
X110998000Y-131064000D02*
X108458000Y-133604000D01*
X105664000Y-138430000D02*
X106934000Y-138430000D01*
X106934000Y-138430000D02*
X108458000Y-136906000D01*
X103886000Y-140208000D02*
X105664000Y-138430000D01*
D31*
X144018000Y-126619000D02*
X144006000Y-126619000D01*
D29*
X144006000Y-125295000D02*
X144206000Y-125095000D01*
X144006000Y-126619000D02*
X144006000Y-125295000D01*
D31*
X142306000Y-125161000D02*
X142306000Y-125095000D01*
X142494000Y-125349000D02*
X142306000Y-125161000D01*
D29*
X142494000Y-125349000D02*
X142306000Y-125095000D01*
X142506000Y-125361000D02*
X142494000Y-125349000D01*
X142506000Y-125857000D02*
X142506000Y-125361000D01*
X142506000Y-126619000D02*
X142506000Y-125857000D01*
X142118000Y-124907000D02*
X142306000Y-125095000D01*
X141478000Y-124907000D02*
X142118000Y-124907000D01*
X140716000Y-124907000D02*
X141478000Y-124907000D01*
X141544000Y-124907000D02*
X142506000Y-125869000D01*
X142506000Y-125869000D02*
X142494000Y-125857000D01*
X142494000Y-125857000D02*
X142506000Y-125857000D01*
X141478000Y-124907000D02*
X141544000Y-124907000D01*
D30*
X144206000Y-113858000D02*
X144206000Y-118237000D01*
D29*
X144006000Y-118437000D02*
X144006000Y-119761000D01*
X144206000Y-118237000D02*
X144006000Y-118437000D01*
D30*
X134996000Y-104648000D02*
X144206000Y-113858000D01*
X132080000Y-104648000D02*
X134996000Y-104648000D01*
D29*
X141478000Y-118049000D02*
X142506000Y-119077000D01*
X142494000Y-118999000D02*
X142506000Y-118999000D01*
X142506000Y-119011000D02*
X142494000Y-118999000D01*
X142506000Y-119077000D02*
X142506000Y-119011000D01*
X142306000Y-118237000D02*
X142118000Y-118049000D01*
X142118000Y-118049000D02*
X141478000Y-118049000D01*
X141478000Y-118049000D02*
X140716000Y-118049000D01*
X142506000Y-119761000D02*
X142506000Y-118999000D01*
X142506000Y-118999000D02*
X142506000Y-118437000D01*
X142506000Y-118437000D02*
X142306000Y-118237000D01*
D31*
X142494000Y-118491000D02*
X142306000Y-118303000D01*
X142306000Y-118303000D02*
X142306000Y-118237000D01*
D30*
X121285000Y-128639000D02*
X121043000Y-128639000D01*
X121043000Y-128639000D02*
X119761000Y-129921000D01*
X119761000Y-129921000D02*
X119761000Y-130187000D01*
X119761000Y-130187000D02*
X119761000Y-129159000D01*
X120281000Y-128639000D02*
X121285000Y-128639000D01*
X119761000Y-129159000D02*
X120281000Y-128639000D01*
D29*
X121031000Y-120904000D02*
X120928000Y-120904000D01*
X120928000Y-120904000D02*
X120281000Y-120257000D01*
X120904000Y-121805000D02*
X120535000Y-121805000D01*
X120535000Y-121805000D02*
X119888000Y-121158000D01*
X119761000Y-121158000D02*
X119888000Y-121158000D01*
X119888000Y-121158000D02*
X120257000Y-121158000D01*
X120257000Y-121158000D02*
X120904000Y-121805000D01*
X109458000Y-129540000D02*
X109458000Y-130540000D01*
X109458000Y-130540000D02*
X109474000Y-130556000D01*
D30*
X121031000Y-130187000D02*
X121031000Y-129921000D01*
X121031000Y-130187000D02*
X119761000Y-130187000D01*
X121031000Y-130187000D02*
X121031000Y-128917000D01*
X121031000Y-128917000D02*
X121019000Y-128905000D01*
X121019000Y-128905000D02*
X121285000Y-128639000D01*
X119761000Y-130187000D02*
X119761000Y-130175000D01*
X121019000Y-128905000D02*
X121285000Y-128639000D01*
D29*
X120281000Y-120257000D02*
X120015000Y-120523000D01*
X121285000Y-120257000D02*
X120281000Y-120257000D01*
X119761000Y-120777000D02*
X120015000Y-120523000D01*
X119761000Y-121805000D02*
X119761000Y-121158000D01*
X119761000Y-121158000D02*
X119761000Y-120777000D01*
X121031000Y-121805000D02*
X119761000Y-121805000D01*
X121031000Y-120511000D02*
X121285000Y-120257000D01*
X121031000Y-121805000D02*
X121031000Y-120904000D01*
X121031000Y-120904000D02*
X121031000Y-120511000D01*
X121031000Y-121539000D02*
X120015000Y-120523000D01*
X121031000Y-121805000D02*
X121031000Y-121539000D01*
D30*
X122555000Y-126619000D02*
X122035000Y-127139000D01*
X122035000Y-127139000D02*
X121285000Y-127139000D01*
X109474000Y-136144000D02*
X110109000Y-135509000D01*
D33*
X110109000Y-135509000D02*
X117602000Y-128016000D01*
X117602000Y-128016000D02*
X117602000Y-119634000D01*
X117602000Y-119634000D02*
X118999000Y-118237000D01*
X118999000Y-118237000D02*
X122555000Y-118237000D01*
D29*
X122555000Y-118237000D02*
X123329000Y-119011000D01*
X123329000Y-119011000D02*
X123190000Y-118872000D01*
X123190000Y-118872000D02*
X123190000Y-119011000D01*
X109474000Y-136144000D02*
X109474000Y-135144000D01*
X109474000Y-135144000D02*
X109458000Y-135128000D01*
D30*
X123825000Y-127393000D02*
X123051000Y-126619000D01*
X123051000Y-126619000D02*
X122555000Y-126619000D01*
X123825000Y-127393000D02*
X122555000Y-127393000D01*
X122555000Y-127393000D02*
X122301000Y-127139000D01*
D29*
X122555000Y-119011000D02*
X123190000Y-119011000D01*
X123190000Y-119011000D02*
X123825000Y-119011000D01*
X122301000Y-118757000D02*
X122555000Y-119011000D01*
X122047000Y-118757000D02*
X122301000Y-118757000D01*
X121285000Y-118757000D02*
X122047000Y-118757000D01*
X122555000Y-118237000D02*
X122047000Y-118745000D01*
X122047000Y-118745000D02*
X122047000Y-118757000D01*
X123051000Y-118237000D02*
X122555000Y-118237000D01*
X123825000Y-119011000D02*
X123051000Y-118237000D01*
X109474000Y-119380000D02*
X109474000Y-118380000D01*
X109474000Y-118380000D02*
X109458000Y-118364000D01*
X132842000Y-113538000D02*
X134684000Y-113538000D01*
D31*
X128905000Y-113284000D02*
X129349000Y-113284000D01*
D32*
X128778000Y-113284000D02*
X129349000Y-113284000D01*
X128651000Y-113157000D02*
X128778000Y-113284000D01*
D30*
X102886000Y-124952000D02*
X102870000Y-124968000D01*
X102886000Y-123952000D02*
X102886000Y-124952000D01*
X102886000Y-113776000D02*
X102870000Y-113792000D01*
X102886000Y-112776000D02*
X102886000Y-113776000D01*
D29*
X138176000Y-140208000D02*
X138263000Y-140208000D01*
X138263000Y-140208000D02*
X138303000Y-140248000D01*
D31*
X135382000Y-129413000D02*
X135890000Y-129921000D01*
X135382000Y-129097000D02*
X135382000Y-129413000D01*
X128016000Y-126365000D02*
X128586000Y-126365000D01*
D29*
X133096000Y-141732000D02*
X133096000Y-140208000D01*
X131572000Y-143256000D02*
X133096000Y-141732000D01*
X120904000Y-143256000D02*
X131572000Y-143256000D01*
X119380000Y-144780000D02*
X120904000Y-143256000D01*
X123190000Y-147574000D02*
X125984000Y-144780000D01*
X123190000Y-147828000D02*
X123190000Y-147574000D01*
X125984000Y-144780000D02*
X132588000Y-144780000D01*
X135636000Y-141732000D02*
X135636000Y-140208000D01*
X132588000Y-144780000D02*
X135636000Y-141732000D01*
D31*
X132654000Y-125923000D02*
X132334000Y-125603000D01*
X132654000Y-125923000D02*
X132654000Y-126365000D01*
X104564000Y-114874000D02*
X103820000Y-114874000D01*
X103886000Y-117602000D02*
X103886000Y-122682000D01*
X103378000Y-117094000D02*
X103378000Y-115316000D01*
X103378000Y-115316000D02*
X103820000Y-114874000D01*
X103886000Y-117602000D02*
X103378000Y-117094000D01*
X104267000Y-116690000D02*
X104267000Y-116926000D01*
X104267000Y-116926000D02*
X104267000Y-116840000D01*
D32*
X104267000Y-116840000D02*
X104267000Y-116690000D01*
D31*
X105156000Y-115824000D02*
X105664000Y-115316000D01*
X104564000Y-115824000D02*
X105156000Y-115824000D01*
X103886000Y-113538000D02*
X103886000Y-111506000D01*
X104394000Y-114046000D02*
X103886000Y-113538000D01*
X105156000Y-114046000D02*
X104394000Y-114046000D01*
X105664000Y-114554000D02*
X105156000Y-114046000D01*
X105664000Y-115316000D02*
X105664000Y-114554000D01*
D29*
X124460000Y-147828000D02*
X124460000Y-148590000D01*
X123952000Y-149098000D02*
X123190000Y-149098000D01*
X124460000Y-148590000D02*
X123952000Y-149098000D01*
X123190000Y-149098000D02*
X114554000Y-149098000D01*
X114554000Y-149098000D02*
X112776000Y-147320000D01*
X108204000Y-116828000D02*
X106818000Y-116828000D01*
X106818000Y-116828000D02*
X106764000Y-116774000D01*
D30*
X101346000Y-132080000D02*
X101346000Y-120904000D01*
X101346000Y-120904000D02*
X102870000Y-119380000D01*
X102870000Y-130556000D02*
X101346000Y-132080000D01*
D29*
X102886000Y-119364000D02*
X102870000Y-119380000D01*
X102886000Y-118364000D02*
X102886000Y-119364000D01*
D32*
X102870000Y-130556000D02*
X102886000Y-130540000D01*
X102886000Y-130540000D02*
X102886000Y-129540000D01*
X105156000Y-146558000D02*
X104394000Y-146558000D01*
D30*
X106426000Y-147828000D02*
X105156000Y-146558000D01*
D32*
X102108000Y-144018000D02*
X101346000Y-144018000D01*
X102616000Y-144018000D02*
X102108000Y-144018000D01*
X103124000Y-144018000D02*
X102616000Y-144018000D01*
X103378000Y-144018000D02*
X103124000Y-144018000D01*
X104394000Y-144018000D02*
X103378000Y-144018000D01*
X105156000Y-145796000D02*
X105156000Y-144780000D01*
X105156000Y-146558000D02*
X105156000Y-145796000D01*
X104394000Y-144018000D02*
X105156000Y-144780000D01*
X105156000Y-145796000D02*
X104394000Y-146558000D01*
X104394000Y-146558000D02*
X105664000Y-147828000D01*
X106426000Y-147066000D02*
X105156000Y-145796000D01*
X106426000Y-147828000D02*
X106426000Y-147066000D01*
X102616000Y-148336000D02*
X101092000Y-146812000D01*
X103378000Y-149098000D02*
X102616000Y-148336000D01*
X105156000Y-149098000D02*
X106426000Y-147828000D01*
X104394000Y-149098000D02*
X103378000Y-149098000D01*
X105156000Y-149098000D02*
X104394000Y-149098000D01*
X104394000Y-146558000D02*
X103124000Y-146558000D01*
X102108000Y-146558000D02*
X101346000Y-146558000D01*
X103124000Y-146558000D02*
X102108000Y-146558000D01*
D30*
X101346000Y-145796000D02*
X101346000Y-146558000D01*
X101346000Y-145288000D02*
X101346000Y-145796000D01*
X101346000Y-144780000D02*
X101346000Y-145288000D01*
X101346000Y-143764000D02*
X101346000Y-144780000D01*
X101346000Y-143002000D02*
X101346000Y-143764000D01*
X101346000Y-142494000D02*
X101346000Y-143002000D01*
X101346000Y-141986000D02*
X101346000Y-142494000D01*
X101346000Y-132080000D02*
X101346000Y-141986000D01*
D32*
X101854000Y-145288000D02*
X101346000Y-145796000D01*
X102108000Y-145034000D02*
X101854000Y-145288000D01*
X102362000Y-144780000D02*
X102108000Y-145034000D01*
X102616000Y-144526000D02*
X102362000Y-144780000D01*
X102997000Y-144145000D02*
X102616000Y-144526000D01*
X103124000Y-144018000D02*
X102997000Y-144145000D01*
X102616000Y-147828000D02*
X102616000Y-148336000D01*
X102616000Y-147320000D02*
X102616000Y-147828000D01*
X102616000Y-145796000D02*
X102616000Y-147320000D01*
X102616000Y-144526000D02*
X102616000Y-145796000D01*
X103378000Y-146558000D02*
X103124000Y-146558000D01*
X102870000Y-146050000D02*
X103378000Y-146558000D01*
X102616000Y-145796000D02*
X102870000Y-146050000D01*
X102870000Y-147066000D02*
X102616000Y-147320000D01*
X103378000Y-146558000D02*
X102870000Y-147066000D01*
X104648000Y-148844000D02*
X104394000Y-149098000D01*
X105664000Y-147828000D02*
X104648000Y-148844000D01*
X106426000Y-147828000D02*
X105664000Y-147828000D01*
X105918000Y-147828000D02*
X106426000Y-147828000D01*
X104902000Y-148844000D02*
X105918000Y-147828000D01*
X104648000Y-148844000D02*
X104902000Y-148844000D01*
X102870000Y-147066000D02*
X102870000Y-146050000D01*
X102616000Y-147828000D02*
X101346000Y-146558000D01*
X101854000Y-146558000D02*
X102108000Y-146558000D01*
X102616000Y-147320000D02*
X101854000Y-146558000D01*
X102616000Y-147320000D02*
X102616000Y-147320000D01*
X102362000Y-147066000D02*
X102362000Y-144780000D01*
X102616000Y-147320000D02*
X102362000Y-147066000D01*
X102108000Y-145288000D02*
X102108000Y-145034000D01*
X102108000Y-145034000D02*
X102108000Y-145288000D01*
X102108000Y-146558000D02*
X102108000Y-145034000D01*
X101854000Y-145542000D02*
X101854000Y-145288000D01*
X101854000Y-145288000D02*
X101854000Y-145542000D01*
X101854000Y-146558000D02*
X101854000Y-145288000D01*
X102489000Y-144145000D02*
X101346000Y-145288000D01*
X102616000Y-144018000D02*
X102489000Y-144145000D01*
X101981000Y-144145000D02*
X101346000Y-144780000D01*
X102108000Y-144018000D02*
X101981000Y-144145000D01*
X103378000Y-144018000D02*
X101346000Y-141986000D01*
X102997000Y-144145000D02*
X101346000Y-142494000D01*
X102489000Y-144145000D02*
X101346000Y-143002000D01*
X101346000Y-143510000D02*
X101600000Y-143764000D01*
X101600000Y-143764000D02*
X101346000Y-143764000D01*
X101981000Y-144145000D02*
X101346000Y-143510000D01*
X102886000Y-136128000D02*
X102886000Y-135128000D01*
X102870000Y-136144000D02*
X102886000Y-136128000D01*
D31*
G36*
X143637000Y-139244606D02*
X143637000Y-144210569D01*
X143624560Y-144272000D01*
X143624560Y-146304000D01*
X143637000Y-146370113D01*
X143637000Y-146750569D01*
X143624560Y-146812000D01*
X143624560Y-148844000D01*
X143637000Y-148910113D01*
X143637000Y-149175000D01*
X125117763Y-149175000D01*
X125281329Y-148930206D01*
X125349000Y-148590000D01*
X125349000Y-148544283D01*
X125421645Y-148471765D01*
X125594803Y-148054756D01*
X125595197Y-147603225D01*
X125422767Y-147185914D01*
X125129301Y-146891935D01*
X126352236Y-145669000D01*
X132588000Y-145669000D01*
X132928206Y-145601329D01*
X133216618Y-145408618D01*
X136264618Y-142360618D01*
X136457329Y-142072206D01*
X136525000Y-141732000D01*
X136525000Y-140924283D01*
X136597645Y-140851765D01*
X136734457Y-140522285D01*
X136917760Y-140522285D01*
X137128169Y-141031515D01*
X137517436Y-141421461D01*
X138026298Y-141632759D01*
X138577285Y-141633240D01*
X139086515Y-141422831D01*
X139476461Y-141033564D01*
X139687759Y-140524702D01*
X139688240Y-139973715D01*
X139477831Y-139464485D01*
X139088564Y-139074539D01*
X138579702Y-138863241D01*
X138028715Y-138862760D01*
X137519485Y-139073169D01*
X137129539Y-139462436D01*
X136918241Y-139971298D01*
X136917760Y-140522285D01*
X136734457Y-140522285D01*
X136770803Y-140434756D01*
X136771197Y-139983225D01*
X136598767Y-139565914D01*
X136279765Y-139246355D01*
X135862756Y-139073197D01*
X135411225Y-139072803D01*
X134993914Y-139245233D01*
X134674355Y-139564235D01*
X134501197Y-139981244D01*
X134500803Y-140432775D01*
X134673233Y-140850086D01*
X134747000Y-140923982D01*
X134747000Y-141363764D01*
X132219764Y-143891000D01*
X132191067Y-143891000D01*
X132200618Y-143884618D01*
X133724618Y-142360618D01*
X133917329Y-142072206D01*
X133985000Y-141732000D01*
X133985000Y-140924283D01*
X134057645Y-140851765D01*
X134230803Y-140434756D01*
X134231197Y-139983225D01*
X134058767Y-139565914D01*
X133739765Y-139246355D01*
X133322756Y-139073197D01*
X132871225Y-139072803D01*
X132453914Y-139245233D01*
X132134355Y-139564235D01*
X131961197Y-139981244D01*
X131960803Y-140432775D01*
X132133233Y-140850086D01*
X132207000Y-140923982D01*
X132207000Y-141363764D01*
X131203764Y-142367000D01*
X126798606Y-142367000D01*
X128613803Y-140551803D01*
X128641666Y-140509789D01*
X128651000Y-140462000D01*
X128651000Y-136779000D01*
X141171394Y-136779000D01*
X143637000Y-139244606D01*
X143637000Y-139244606D01*
G37*
X143637000Y-139244606D02*
X143637000Y-144210569D01*
X143624560Y-144272000D01*
X143624560Y-146304000D01*
X143637000Y-146370113D01*
X143637000Y-146750569D01*
X143624560Y-146812000D01*
X143624560Y-148844000D01*
X143637000Y-148910113D01*
X143637000Y-149175000D01*
X125117763Y-149175000D01*
X125281329Y-148930206D01*
X125349000Y-148590000D01*
X125349000Y-148544283D01*
X125421645Y-148471765D01*
X125594803Y-148054756D01*
X125595197Y-147603225D01*
X125422767Y-147185914D01*
X125129301Y-146891935D01*
X126352236Y-145669000D01*
X132588000Y-145669000D01*
X132928206Y-145601329D01*
X133216618Y-145408618D01*
X136264618Y-142360618D01*
X136457329Y-142072206D01*
X136525000Y-141732000D01*
X136525000Y-140924283D01*
X136597645Y-140851765D01*
X136734457Y-140522285D01*
X136917760Y-140522285D01*
X137128169Y-141031515D01*
X137517436Y-141421461D01*
X138026298Y-141632759D01*
X138577285Y-141633240D01*
X139086515Y-141422831D01*
X139476461Y-141033564D01*
X139687759Y-140524702D01*
X139688240Y-139973715D01*
X139477831Y-139464485D01*
X139088564Y-139074539D01*
X138579702Y-138863241D01*
X138028715Y-138862760D01*
X137519485Y-139073169D01*
X137129539Y-139462436D01*
X136918241Y-139971298D01*
X136917760Y-140522285D01*
X136734457Y-140522285D01*
X136770803Y-140434756D01*
X136771197Y-139983225D01*
X136598767Y-139565914D01*
X136279765Y-139246355D01*
X135862756Y-139073197D01*
X135411225Y-139072803D01*
X134993914Y-139245233D01*
X134674355Y-139564235D01*
X134501197Y-139981244D01*
X134500803Y-140432775D01*
X134673233Y-140850086D01*
X134747000Y-140923982D01*
X134747000Y-141363764D01*
X132219764Y-143891000D01*
X132191067Y-143891000D01*
X132200618Y-143884618D01*
X133724618Y-142360618D01*
X133917329Y-142072206D01*
X133985000Y-141732000D01*
X133985000Y-140924283D01*
X134057645Y-140851765D01*
X134230803Y-140434756D01*
X134231197Y-139983225D01*
X134058767Y-139565914D01*
X133739765Y-139246355D01*
X133322756Y-139073197D01*
X132871225Y-139072803D01*
X132453914Y-139245233D01*
X132134355Y-139564235D01*
X131961197Y-139981244D01*
X131960803Y-140432775D01*
X132133233Y-140850086D01*
X132207000Y-140923982D01*
X132207000Y-141363764D01*
X131203764Y-142367000D01*
X126798606Y-142367000D01*
X128613803Y-140551803D01*
X128641666Y-140509789D01*
X128651000Y-140462000D01*
X128651000Y-136779000D01*
X141171394Y-136779000D01*
X143637000Y-139244606D01*
G36*
X119257871Y-143644893D02*
X119155225Y-143644803D01*
X118737914Y-143817233D01*
X118418355Y-144136235D01*
X118245197Y-144553244D01*
X118244803Y-145004775D01*
X118417233Y-145422086D01*
X118736235Y-145741645D01*
X119153244Y-145914803D01*
X119604775Y-145915197D01*
X120022086Y-145742767D01*
X120341645Y-145423765D01*
X120514803Y-145006756D01*
X120514894Y-144902342D01*
X121272236Y-144145000D01*
X125364933Y-144145000D01*
X125355382Y-144151382D01*
X122707450Y-146799314D01*
X122547914Y-146865233D01*
X122228355Y-147184235D01*
X122055197Y-147601244D01*
X122054803Y-148052775D01*
X122119354Y-148209000D01*
X114922236Y-148209000D01*
X113911107Y-147197871D01*
X113911197Y-147095225D01*
X113907504Y-147086285D01*
X114438760Y-147086285D01*
X114649169Y-147595515D01*
X115038436Y-147985461D01*
X115547298Y-148196759D01*
X116098285Y-148197240D01*
X116607515Y-147986831D01*
X116997461Y-147597564D01*
X117208759Y-147088702D01*
X117209240Y-146537715D01*
X116998831Y-146028485D01*
X116609564Y-145638539D01*
X116100702Y-145427241D01*
X115549715Y-145426760D01*
X115040485Y-145637169D01*
X114650539Y-146026436D01*
X114439241Y-146535298D01*
X114438760Y-147086285D01*
X113907504Y-147086285D01*
X113738767Y-146677914D01*
X113419765Y-146358355D01*
X113002756Y-146185197D01*
X112551225Y-146184803D01*
X112133914Y-146357233D01*
X111814355Y-146676235D01*
X111641197Y-147093244D01*
X111640803Y-147544775D01*
X111813233Y-147962086D01*
X112132235Y-148281645D01*
X112549244Y-148454803D01*
X112653658Y-148454894D01*
X113373764Y-149175000D01*
X110617000Y-149175000D01*
X110617000Y-142875000D01*
X120027764Y-142875000D01*
X119257871Y-143644893D01*
X119257871Y-143644893D01*
G37*
X119257871Y-143644893D02*
X119155225Y-143644803D01*
X118737914Y-143817233D01*
X118418355Y-144136235D01*
X118245197Y-144553244D01*
X118244803Y-145004775D01*
X118417233Y-145422086D01*
X118736235Y-145741645D01*
X119153244Y-145914803D01*
X119604775Y-145915197D01*
X120022086Y-145742767D01*
X120341645Y-145423765D01*
X120514803Y-145006756D01*
X120514894Y-144902342D01*
X121272236Y-144145000D01*
X125364933Y-144145000D01*
X125355382Y-144151382D01*
X122707450Y-146799314D01*
X122547914Y-146865233D01*
X122228355Y-147184235D01*
X122055197Y-147601244D01*
X122054803Y-148052775D01*
X122119354Y-148209000D01*
X114922236Y-148209000D01*
X113911107Y-147197871D01*
X113911197Y-147095225D01*
X113907504Y-147086285D01*
X114438760Y-147086285D01*
X114649169Y-147595515D01*
X115038436Y-147985461D01*
X115547298Y-148196759D01*
X116098285Y-148197240D01*
X116607515Y-147986831D01*
X116997461Y-147597564D01*
X117208759Y-147088702D01*
X117209240Y-146537715D01*
X116998831Y-146028485D01*
X116609564Y-145638539D01*
X116100702Y-145427241D01*
X115549715Y-145426760D01*
X115040485Y-145637169D01*
X114650539Y-146026436D01*
X114439241Y-146535298D01*
X114438760Y-147086285D01*
X113907504Y-147086285D01*
X113738767Y-146677914D01*
X113419765Y-146358355D01*
X113002756Y-146185197D01*
X112551225Y-146184803D01*
X112133914Y-146357233D01*
X111814355Y-146676235D01*
X111641197Y-147093244D01*
X111640803Y-147544775D01*
X111813233Y-147962086D01*
X112132235Y-148281645D01*
X112549244Y-148454803D01*
X112653658Y-148454894D01*
X113373764Y-149175000D01*
X110617000Y-149175000D01*
X110617000Y-142875000D01*
X120027764Y-142875000D01*
X119257871Y-143644893D01*
G36*
X109855000Y-149175000D02*
X107085010Y-149175000D01*
X107515029Y-148887670D01*
X107839885Y-148401489D01*
X107953959Y-147828000D01*
X107839885Y-147254511D01*
X107515029Y-146768330D01*
X107191772Y-146552336D01*
X107314490Y-146494821D01*
X107708688Y-146062947D01*
X107880958Y-145647026D01*
X107759817Y-145415000D01*
X106553000Y-145415000D01*
X106553000Y-145435000D01*
X106299000Y-145435000D01*
X106299000Y-145415000D01*
X106279000Y-145415000D01*
X106279000Y-145161000D01*
X106299000Y-145161000D01*
X106299000Y-145141000D01*
X106553000Y-145141000D01*
X106553000Y-145161000D01*
X107759817Y-145161000D01*
X107880958Y-144928974D01*
X107766653Y-144653000D01*
X108204000Y-144653000D01*
X108253410Y-144642994D01*
X108295035Y-144614553D01*
X108322315Y-144572159D01*
X108331000Y-144526000D01*
X108331000Y-142875000D01*
X109855000Y-142875000D01*
X109855000Y-149175000D01*
X109855000Y-149175000D01*
G37*
X109855000Y-149175000D02*
X107085010Y-149175000D01*
X107515029Y-148887670D01*
X107839885Y-148401489D01*
X107953959Y-147828000D01*
X107839885Y-147254511D01*
X107515029Y-146768330D01*
X107191772Y-146552336D01*
X107314490Y-146494821D01*
X107708688Y-146062947D01*
X107880958Y-145647026D01*
X107759817Y-145415000D01*
X106553000Y-145415000D01*
X106553000Y-145435000D01*
X106299000Y-145435000D01*
X106299000Y-145415000D01*
X106279000Y-145415000D01*
X106279000Y-145161000D01*
X106299000Y-145161000D01*
X106299000Y-145141000D01*
X106553000Y-145141000D01*
X106553000Y-145161000D01*
X107759817Y-145161000D01*
X107880958Y-144928974D01*
X107766653Y-144653000D01*
X108204000Y-144653000D01*
X108253410Y-144642994D01*
X108295035Y-144614553D01*
X108322315Y-144572159D01*
X108331000Y-144526000D01*
X108331000Y-142875000D01*
X109855000Y-142875000D01*
X109855000Y-149175000D01*
G36*
X104013000Y-145161000D02*
X104033000Y-145161000D01*
X104033000Y-145415000D01*
X104013000Y-145415000D01*
X104013000Y-145435000D01*
X103759000Y-145435000D01*
X103759000Y-145415000D01*
X103739000Y-145415000D01*
X103739000Y-145161000D01*
X103759000Y-145161000D01*
X103759000Y-145141000D01*
X104013000Y-145141000D01*
X104013000Y-145161000D01*
X104013000Y-145161000D01*
G37*
X104013000Y-145161000D02*
X104033000Y-145161000D01*
X104033000Y-145415000D01*
X104013000Y-145415000D01*
X104013000Y-145435000D01*
X103759000Y-145435000D01*
X103759000Y-145415000D01*
X103739000Y-145415000D01*
X103739000Y-145161000D01*
X103759000Y-145161000D01*
X103759000Y-145141000D01*
X104013000Y-145141000D01*
X104013000Y-145161000D01*
G36*
X101483423Y-100795817D02*
X102455980Y-101768375D01*
X103428537Y-100795817D01*
X103415670Y-100761000D01*
X106896330Y-100761000D01*
X106883463Y-100795817D01*
X107856020Y-101768375D01*
X108828577Y-100795817D01*
X108815710Y-100761000D01*
X113688290Y-100761000D01*
X113675423Y-100795817D01*
X114647980Y-101768375D01*
X115620537Y-100795817D01*
X115607670Y-100761000D01*
X119088330Y-100761000D01*
X119075463Y-100795817D01*
X120048020Y-101768375D01*
X121020577Y-100795817D01*
X121007710Y-100761000D01*
X128420290Y-100761000D01*
X128407423Y-100795817D01*
X129379980Y-101768375D01*
X130352537Y-100795817D01*
X130339670Y-100761000D01*
X133820330Y-100761000D01*
X133807463Y-100795817D01*
X134780020Y-101768375D01*
X135752577Y-100795817D01*
X135739710Y-100761000D01*
X140612290Y-100761000D01*
X140599423Y-100795817D01*
X141571980Y-101768375D01*
X142544537Y-100795817D01*
X142531670Y-100761000D01*
X146012330Y-100761000D01*
X145999463Y-100795817D01*
X146972020Y-101768375D01*
X147944577Y-100795817D01*
X147931710Y-100761000D01*
X149175000Y-100761000D01*
X149175000Y-143637000D01*
X146365431Y-143637000D01*
X146304000Y-143624560D01*
X144399000Y-143624560D01*
X144399000Y-138938000D01*
X144388994Y-138888590D01*
X144361803Y-138848197D01*
X139573000Y-134059394D01*
X139573000Y-133757185D01*
X142099682Y-133757185D01*
X142113827Y-133828684D01*
X142372855Y-134305540D01*
X142794651Y-134646972D01*
X143315000Y-134801000D01*
X143815000Y-134801000D01*
X143815000Y-133543000D01*
X144069000Y-133543000D01*
X144069000Y-134801000D01*
X144569000Y-134801000D01*
X145089349Y-134646972D01*
X145511145Y-134305540D01*
X145770173Y-133828684D01*
X145784318Y-133757185D01*
X145661656Y-133543000D01*
X144069000Y-133543000D01*
X143815000Y-133543000D01*
X142222344Y-133543000D01*
X142099682Y-133757185D01*
X139573000Y-133757185D01*
X139573000Y-133074815D01*
X142099682Y-133074815D01*
X142222344Y-133289000D01*
X143815000Y-133289000D01*
X143815000Y-132031000D01*
X144069000Y-132031000D01*
X144069000Y-133289000D01*
X145661656Y-133289000D01*
X145784318Y-133074815D01*
X145770173Y-133003316D01*
X145511145Y-132526460D01*
X145089349Y-132185028D01*
X144569000Y-132031000D01*
X144069000Y-132031000D01*
X143815000Y-132031000D01*
X143315000Y-132031000D01*
X142794651Y-132185028D01*
X142372855Y-132526460D01*
X142113827Y-133003316D01*
X142099682Y-133074815D01*
X139573000Y-133074815D01*
X139573000Y-127562025D01*
X139706301Y-127695327D01*
X139835122Y-127748686D01*
X139834803Y-128113775D01*
X140007233Y-128531086D01*
X140132665Y-128656737D01*
X140148671Y-128737206D01*
X140150148Y-128739417D01*
X140150682Y-128742021D01*
X140246461Y-128883558D01*
X140341382Y-129025618D01*
X140343592Y-129027095D01*
X140345083Y-129029298D01*
X140950560Y-129627707D01*
X140950560Y-129788000D01*
X140994838Y-130023317D01*
X141133910Y-130239441D01*
X141346110Y-130384431D01*
X141598000Y-130435440D01*
X142398000Y-130435440D01*
X142633317Y-130391162D01*
X142736646Y-130324671D01*
X142738302Y-130326327D01*
X142971691Y-130423000D01*
X143212250Y-130423000D01*
X143371000Y-130264250D01*
X143371000Y-129540000D01*
X143625000Y-129540000D01*
X143625000Y-130264250D01*
X143783750Y-130423000D01*
X144024309Y-130423000D01*
X144257698Y-130326327D01*
X144436327Y-130147699D01*
X144533000Y-129914310D01*
X144533000Y-129698750D01*
X144374250Y-129540000D01*
X143625000Y-129540000D01*
X143371000Y-129540000D01*
X143351000Y-129540000D01*
X143351000Y-129286000D01*
X143371000Y-129286000D01*
X143371000Y-128270000D01*
X143625000Y-128270000D01*
X143625000Y-129286000D01*
X144374250Y-129286000D01*
X144533000Y-129127250D01*
X144533000Y-128911690D01*
X144477624Y-128778000D01*
X144533000Y-128644310D01*
X144533000Y-128428750D01*
X144374250Y-128270000D01*
X143625000Y-128270000D01*
X143371000Y-128270000D01*
X143351000Y-128270000D01*
X143351000Y-128016000D01*
X143371000Y-128016000D01*
X143371000Y-127996000D01*
X143625000Y-127996000D01*
X143625000Y-128016000D01*
X144374250Y-128016000D01*
X144533000Y-127857250D01*
X144533000Y-127654750D01*
X145040000Y-127654750D01*
X145040000Y-127895309D01*
X145136673Y-128128698D01*
X145315301Y-128307327D01*
X145548690Y-128404000D01*
X145764250Y-128404000D01*
X145923000Y-128245250D01*
X145923000Y-127496000D01*
X146177000Y-127496000D01*
X146177000Y-128245250D01*
X146335750Y-128404000D01*
X146551310Y-128404000D01*
X146784699Y-128307327D01*
X146812000Y-128280026D01*
X146839301Y-128307327D01*
X147072690Y-128404000D01*
X147288250Y-128404000D01*
X147447000Y-128245250D01*
X147447000Y-127496000D01*
X147701000Y-127496000D01*
X147701000Y-128245250D01*
X147859750Y-128404000D01*
X148075310Y-128404000D01*
X148308699Y-128307327D01*
X148487327Y-128128698D01*
X148584000Y-127895309D01*
X148584000Y-127654750D01*
X148425250Y-127496000D01*
X147701000Y-127496000D01*
X147447000Y-127496000D01*
X146177000Y-127496000D01*
X145923000Y-127496000D01*
X145198750Y-127496000D01*
X145040000Y-127654750D01*
X144533000Y-127654750D01*
X144533000Y-127641690D01*
X144530379Y-127635361D01*
X144607367Y-127603550D01*
X144641317Y-127597162D01*
X144857441Y-127458090D01*
X145002431Y-127245890D01*
X145017451Y-127171718D01*
X145050024Y-127093274D01*
X145198750Y-127242000D01*
X145923000Y-127242000D01*
X145923000Y-127222000D01*
X146177000Y-127222000D01*
X146177000Y-127242000D01*
X147447000Y-127242000D01*
X147447000Y-127222000D01*
X147701000Y-127222000D01*
X147701000Y-127242000D01*
X148425250Y-127242000D01*
X148584000Y-127083250D01*
X148584000Y-126842691D01*
X148487327Y-126609302D01*
X148485957Y-126607932D01*
X148545431Y-126520890D01*
X148596440Y-126269000D01*
X148596440Y-125469000D01*
X148552162Y-125233683D01*
X148413090Y-125017559D01*
X148200890Y-124872569D01*
X147949000Y-124821560D01*
X147557236Y-124821560D01*
X147424286Y-124688378D01*
X147027668Y-124523687D01*
X146598216Y-124523313D01*
X146201311Y-124687311D01*
X146066827Y-124821560D01*
X145675000Y-124821560D01*
X145439683Y-124865838D01*
X145223559Y-125004910D01*
X145203440Y-125034355D01*
X145203440Y-124445000D01*
X145159162Y-124209683D01*
X145020090Y-123993559D01*
X144807890Y-123848569D01*
X144556000Y-123797560D01*
X143856000Y-123797560D01*
X143620683Y-123841838D01*
X143404559Y-123980910D01*
X143259569Y-124193110D01*
X143256919Y-124206197D01*
X143120090Y-123993559D01*
X142907890Y-123848569D01*
X142656000Y-123797560D01*
X141956000Y-123797560D01*
X141720683Y-123841838D01*
X141555731Y-123947982D01*
X141366000Y-123909560D01*
X140066000Y-123909560D01*
X139830683Y-123953838D01*
X139614559Y-124092910D01*
X139469569Y-124305110D01*
X139418560Y-124557000D01*
X139418560Y-125257000D01*
X139462838Y-125492317D01*
X139601910Y-125708441D01*
X139814110Y-125853431D01*
X139847490Y-125860191D01*
X139706301Y-125918673D01*
X139527673Y-126097302D01*
X139515147Y-126127541D01*
X137503803Y-124116197D01*
X137461789Y-124088334D01*
X137414000Y-124079000D01*
X136855760Y-124079000D01*
X136878000Y-124025309D01*
X136878000Y-123284750D01*
X136719250Y-123126000D01*
X135255000Y-123126000D01*
X135255000Y-123146000D01*
X135001000Y-123146000D01*
X135001000Y-123126000D01*
X133536750Y-123126000D01*
X133378000Y-123284750D01*
X133378000Y-124025309D01*
X133400240Y-124079000D01*
X130759760Y-124079000D01*
X130782000Y-124025309D01*
X130782000Y-123284750D01*
X130623250Y-123126000D01*
X129159000Y-123126000D01*
X129159000Y-123146000D01*
X128905000Y-123146000D01*
X128905000Y-123126000D01*
X127440750Y-123126000D01*
X127282000Y-123284750D01*
X127282000Y-124025309D01*
X127378673Y-124258698D01*
X127557301Y-124437327D01*
X127790690Y-124534000D01*
X128524394Y-124534000D01*
X128217394Y-124841000D01*
X127000000Y-124841000D01*
X126950590Y-124851006D01*
X126910197Y-124878197D01*
X125386197Y-126402197D01*
X125358334Y-126444211D01*
X125349000Y-126492000D01*
X125349000Y-137033000D01*
X110189981Y-137033000D01*
X110247978Y-136975104D01*
X110282223Y-136952223D01*
X110397915Y-136836531D01*
X110639016Y-136788573D01*
X111088343Y-136488343D01*
X113819501Y-133757185D01*
X119899682Y-133757185D01*
X119913827Y-133828684D01*
X120172855Y-134305540D01*
X120594651Y-134646972D01*
X121115000Y-134801000D01*
X121615000Y-134801000D01*
X121615000Y-133543000D01*
X121869000Y-133543000D01*
X121869000Y-134801000D01*
X122369000Y-134801000D01*
X122889349Y-134646972D01*
X123311145Y-134305540D01*
X123570173Y-133828684D01*
X123584318Y-133757185D01*
X123461656Y-133543000D01*
X121869000Y-133543000D01*
X121615000Y-133543000D01*
X120022344Y-133543000D01*
X119899682Y-133757185D01*
X113819501Y-133757185D01*
X115603936Y-131972750D01*
X118751000Y-131972750D01*
X118751000Y-132213309D01*
X118847673Y-132446698D01*
X119026301Y-132625327D01*
X119259690Y-132722000D01*
X119475250Y-132722000D01*
X119634000Y-132563250D01*
X119634000Y-131814000D01*
X119888000Y-131814000D01*
X119888000Y-132563250D01*
X120046750Y-132722000D01*
X120066638Y-132722000D01*
X119913827Y-133003316D01*
X119899682Y-133074815D01*
X120022344Y-133289000D01*
X121615000Y-133289000D01*
X121615000Y-133269000D01*
X121869000Y-133269000D01*
X121869000Y-133289000D01*
X123461656Y-133289000D01*
X123584318Y-133074815D01*
X123570173Y-133003316D01*
X123311145Y-132526460D01*
X122889349Y-132185028D01*
X122369000Y-132031000D01*
X122041000Y-132031000D01*
X122041000Y-131972750D01*
X121882250Y-131814000D01*
X121158000Y-131814000D01*
X121158000Y-131834000D01*
X120904000Y-131834000D01*
X120904000Y-131814000D01*
X119888000Y-131814000D01*
X119634000Y-131814000D01*
X118909750Y-131814000D01*
X118751000Y-131972750D01*
X115603936Y-131972750D01*
X118581343Y-128995343D01*
X118679891Y-128847856D01*
X118618000Y-129159000D01*
X118618000Y-130187000D01*
X118705006Y-130624407D01*
X118761511Y-130708972D01*
X118782838Y-130822317D01*
X118849329Y-130925646D01*
X118847673Y-130927302D01*
X118751000Y-131160691D01*
X118751000Y-131401250D01*
X118909750Y-131560000D01*
X119634000Y-131560000D01*
X119634000Y-131540000D01*
X119888000Y-131540000D01*
X119888000Y-131560000D01*
X120904000Y-131560000D01*
X120904000Y-131540000D01*
X121158000Y-131540000D01*
X121158000Y-131560000D01*
X121882250Y-131560000D01*
X122041000Y-131401250D01*
X122041000Y-131160691D01*
X121944327Y-130927302D01*
X121942957Y-130925932D01*
X122002431Y-130838890D01*
X122027979Y-130712729D01*
X122086994Y-130624407D01*
X122174000Y-130187000D01*
X122174000Y-129928000D01*
X122269250Y-129928000D01*
X122428000Y-129769250D01*
X122428000Y-129020000D01*
X122682000Y-129020000D01*
X122682000Y-129769250D01*
X122840750Y-129928000D01*
X123056310Y-129928000D01*
X123190000Y-129872624D01*
X123323690Y-129928000D01*
X123539250Y-129928000D01*
X123698000Y-129769250D01*
X123698000Y-129020000D01*
X123952000Y-129020000D01*
X123952000Y-129769250D01*
X124110750Y-129928000D01*
X124326310Y-129928000D01*
X124559699Y-129831327D01*
X124738327Y-129652698D01*
X124835000Y-129419309D01*
X124835000Y-129178750D01*
X124676250Y-129020000D01*
X123952000Y-129020000D01*
X123698000Y-129020000D01*
X122682000Y-129020000D01*
X122428000Y-129020000D01*
X122408000Y-129020000D01*
X122408000Y-128766000D01*
X122428000Y-128766000D01*
X122428000Y-128746000D01*
X122682000Y-128746000D01*
X122682000Y-128766000D01*
X123698000Y-128766000D01*
X123698000Y-128746000D01*
X123952000Y-128746000D01*
X123952000Y-128766000D01*
X124676250Y-128766000D01*
X124835000Y-128607250D01*
X124835000Y-128366691D01*
X124738327Y-128133302D01*
X124736957Y-128131932D01*
X124796431Y-128044890D01*
X124821979Y-127918729D01*
X124880994Y-127830407D01*
X124968000Y-127393000D01*
X124880994Y-126955593D01*
X124824489Y-126871028D01*
X124803162Y-126757683D01*
X124664090Y-126541559D01*
X124451890Y-126396569D01*
X124443269Y-126394823D01*
X123859223Y-125810777D01*
X123488407Y-125563006D01*
X123051000Y-125476000D01*
X122555000Y-125476000D01*
X122514961Y-125483964D01*
X122330225Y-125483803D01*
X122157984Y-125554972D01*
X122117593Y-125563006D01*
X122083650Y-125585686D01*
X121912914Y-125656233D01*
X121781022Y-125787896D01*
X121746777Y-125810777D01*
X121561554Y-125996000D01*
X121285000Y-125996000D01*
X120847593Y-126083006D01*
X120805309Y-126111259D01*
X120674683Y-126135838D01*
X120458559Y-126274910D01*
X120313569Y-126487110D01*
X120288021Y-126613271D01*
X120229006Y-126701593D01*
X120142000Y-127139000D01*
X120215600Y-127509009D01*
X119843593Y-127583006D01*
X119472777Y-127830777D01*
X118952777Y-128350777D01*
X118930540Y-128384058D01*
X118926355Y-128388235D01*
X118924068Y-128393744D01*
X118906688Y-128419754D01*
X118987000Y-128016000D01*
X118987000Y-124279653D01*
X119132690Y-124340000D01*
X119348250Y-124340000D01*
X119507000Y-124181250D01*
X119507000Y-123432000D01*
X119761000Y-123432000D01*
X119761000Y-124181250D01*
X119919750Y-124340000D01*
X120135310Y-124340000D01*
X120269000Y-124284624D01*
X120402690Y-124340000D01*
X120618250Y-124340000D01*
X120777000Y-124181250D01*
X120777000Y-123432000D01*
X121031000Y-123432000D01*
X121031000Y-124181250D01*
X121189750Y-124340000D01*
X121405310Y-124340000D01*
X121638699Y-124243327D01*
X121817327Y-124064698D01*
X121914000Y-123831309D01*
X121914000Y-123590750D01*
X121755250Y-123432000D01*
X121031000Y-123432000D01*
X120777000Y-123432000D01*
X119761000Y-123432000D01*
X119507000Y-123432000D01*
X119487000Y-123432000D01*
X119487000Y-123178000D01*
X119507000Y-123178000D01*
X119507000Y-123158000D01*
X119761000Y-123158000D01*
X119761000Y-123178000D01*
X120777000Y-123178000D01*
X120777000Y-123158000D01*
X121031000Y-123158000D01*
X121031000Y-123178000D01*
X121755250Y-123178000D01*
X121914000Y-123019250D01*
X121914000Y-122778691D01*
X121817327Y-122545302D01*
X121815957Y-122543932D01*
X121875431Y-122456890D01*
X121926440Y-122205000D01*
X121926440Y-121493291D01*
X122053690Y-121546000D01*
X122269250Y-121546000D01*
X122428000Y-121387250D01*
X122428000Y-120638000D01*
X122682000Y-120638000D01*
X122682000Y-121387250D01*
X122840750Y-121546000D01*
X123056310Y-121546000D01*
X123190000Y-121490624D01*
X123323690Y-121546000D01*
X123539250Y-121546000D01*
X123698000Y-121387250D01*
X123698000Y-120638000D01*
X123952000Y-120638000D01*
X123952000Y-121387250D01*
X124110750Y-121546000D01*
X124326310Y-121546000D01*
X124559699Y-121449327D01*
X124738327Y-121270698D01*
X124835000Y-121037309D01*
X124835000Y-120796750D01*
X124676250Y-120638000D01*
X123952000Y-120638000D01*
X123698000Y-120638000D01*
X122682000Y-120638000D01*
X122428000Y-120638000D01*
X122408000Y-120638000D01*
X122408000Y-120384000D01*
X122428000Y-120384000D01*
X122428000Y-120364000D01*
X122682000Y-120364000D01*
X122682000Y-120384000D01*
X123698000Y-120384000D01*
X123698000Y-120364000D01*
X123952000Y-120364000D01*
X123952000Y-120384000D01*
X124676250Y-120384000D01*
X124835000Y-120225250D01*
X124835000Y-119984691D01*
X124738327Y-119751302D01*
X124736957Y-119749932D01*
X124796431Y-119662890D01*
X124847440Y-119411000D01*
X124847440Y-118611000D01*
X124803162Y-118375683D01*
X124664090Y-118159559D01*
X124451890Y-118014569D01*
X124200000Y-117963560D01*
X124034796Y-117963560D01*
X123848566Y-117777330D01*
X123834573Y-117706983D01*
X123534343Y-117257657D01*
X123085017Y-116957427D01*
X122555000Y-116852000D01*
X118999000Y-116852000D01*
X118468983Y-116957427D01*
X118171940Y-117155905D01*
X118019657Y-117257657D01*
X116622657Y-118654657D01*
X116322427Y-119103983D01*
X116217000Y-119634000D01*
X116217000Y-127442314D01*
X111844748Y-131814566D01*
X112053994Y-131501407D01*
X112141000Y-131064000D01*
X112141000Y-116744750D01*
X126545000Y-116744750D01*
X126545000Y-117700310D01*
X126641673Y-117933699D01*
X126820302Y-118112327D01*
X126993000Y-118183861D01*
X126993000Y-118205250D01*
X127151750Y-118364000D01*
X127901000Y-118364000D01*
X127901000Y-118102250D01*
X127953000Y-118050250D01*
X127953000Y-116586000D01*
X126703750Y-116586000D01*
X126545000Y-116744750D01*
X112141000Y-116744750D01*
X112141000Y-116586000D01*
X112053994Y-116148593D01*
X111806223Y-115777777D01*
X111246136Y-115217690D01*
X126545000Y-115217690D01*
X126545000Y-116173250D01*
X126703750Y-116332000D01*
X127953000Y-116332000D01*
X127953000Y-116312000D01*
X128207000Y-116312000D01*
X128207000Y-116332000D01*
X128227000Y-116332000D01*
X128227000Y-116586000D01*
X128207000Y-116586000D01*
X128207000Y-117587750D01*
X128155000Y-117639750D01*
X128155000Y-118364000D01*
X128175000Y-118364000D01*
X128175000Y-118531560D01*
X127917000Y-118531560D01*
X127681683Y-118575838D01*
X127616161Y-118618000D01*
X127151750Y-118618000D01*
X126993000Y-118776750D01*
X126993000Y-118992310D01*
X127089673Y-119225699D01*
X127268302Y-119404327D01*
X127269560Y-119404848D01*
X127269560Y-120979000D01*
X127313838Y-121214317D01*
X127452910Y-121430441D01*
X127610973Y-121538441D01*
X127557301Y-121560673D01*
X127378673Y-121739302D01*
X127282000Y-121972691D01*
X127282000Y-122713250D01*
X127440750Y-122872000D01*
X128905000Y-122872000D01*
X128905000Y-122852000D01*
X129159000Y-122852000D01*
X129159000Y-122872000D01*
X130623250Y-122872000D01*
X130782000Y-122713250D01*
X130782000Y-122039631D01*
X130816690Y-122054000D01*
X131032250Y-122054000D01*
X131191000Y-121895250D01*
X131191000Y-121146000D01*
X131445000Y-121146000D01*
X131445000Y-121895250D01*
X131603750Y-122054000D01*
X131819310Y-122054000D01*
X132052699Y-121957327D01*
X132080000Y-121930026D01*
X132107301Y-121957327D01*
X132340690Y-122054000D01*
X132556250Y-122054000D01*
X132715000Y-121895250D01*
X132715000Y-121146000D01*
X131445000Y-121146000D01*
X131191000Y-121146000D01*
X131171000Y-121146000D01*
X131171000Y-120892000D01*
X131191000Y-120892000D01*
X131191000Y-120872000D01*
X131445000Y-120872000D01*
X131445000Y-120892000D01*
X132715000Y-120892000D01*
X132715000Y-120872000D01*
X132969000Y-120872000D01*
X132969000Y-120892000D01*
X132989000Y-120892000D01*
X132989000Y-121146000D01*
X132969000Y-121146000D01*
X132969000Y-121895250D01*
X133127750Y-122054000D01*
X133343310Y-122054000D01*
X133378000Y-122039631D01*
X133378000Y-122713250D01*
X133536750Y-122872000D01*
X135001000Y-122872000D01*
X135001000Y-122852000D01*
X135255000Y-122852000D01*
X135255000Y-122872000D01*
X136719250Y-122872000D01*
X136878000Y-122713250D01*
X136878000Y-121972691D01*
X136781327Y-121739302D01*
X136602699Y-121560673D01*
X136547344Y-121537744D01*
X136694441Y-121443090D01*
X136839431Y-121230890D01*
X136890440Y-120979000D01*
X136890440Y-119404848D01*
X136891698Y-119404327D01*
X137070327Y-119225699D01*
X137167000Y-118992310D01*
X137167000Y-118776750D01*
X137008250Y-118618000D01*
X136546745Y-118618000D01*
X136494890Y-118582569D01*
X136243000Y-118531560D01*
X135985000Y-118531560D01*
X135985000Y-118364000D01*
X136005000Y-118364000D01*
X136005000Y-117639750D01*
X135953000Y-117587750D01*
X135953000Y-116586000D01*
X136207000Y-116586000D01*
X136207000Y-118050250D01*
X136259000Y-118102250D01*
X136259000Y-118364000D01*
X137008250Y-118364000D01*
X137167000Y-118205250D01*
X137167000Y-118183861D01*
X137339698Y-118112327D01*
X137518327Y-117933699D01*
X137615000Y-117700310D01*
X137615000Y-116744750D01*
X137456250Y-116586000D01*
X136207000Y-116586000D01*
X135953000Y-116586000D01*
X135933000Y-116586000D01*
X135933000Y-116332000D01*
X135953000Y-116332000D01*
X135953000Y-116312000D01*
X136207000Y-116312000D01*
X136207000Y-116332000D01*
X137456250Y-116332000D01*
X137615000Y-116173250D01*
X137615000Y-115288000D01*
X137731002Y-115288000D01*
X137731002Y-115129252D01*
X137889750Y-115288000D01*
X138630309Y-115288000D01*
X138863698Y-115191327D01*
X139042327Y-115012699D01*
X139139000Y-114779310D01*
X139139000Y-113823750D01*
X138980250Y-113665000D01*
X137731000Y-113665000D01*
X137731000Y-113685000D01*
X137477000Y-113685000D01*
X137477000Y-113665000D01*
X137457000Y-113665000D01*
X137457000Y-113411000D01*
X137477000Y-113411000D01*
X137477000Y-111946750D01*
X137731000Y-111946750D01*
X137731000Y-113411000D01*
X138980250Y-113411000D01*
X139139000Y-113252250D01*
X139139000Y-112296690D01*
X139042327Y-112063301D01*
X138863698Y-111884673D01*
X138630309Y-111788000D01*
X137889750Y-111788000D01*
X137731000Y-111946750D01*
X137477000Y-111946750D01*
X137318250Y-111788000D01*
X136577691Y-111788000D01*
X136344302Y-111884673D01*
X136165673Y-112063301D01*
X136142744Y-112118656D01*
X136048090Y-111971559D01*
X135835890Y-111826569D01*
X135584000Y-111775560D01*
X133784000Y-111775560D01*
X133548683Y-111819838D01*
X133332559Y-111958910D01*
X133187569Y-112171110D01*
X133136560Y-112423000D01*
X133136560Y-112431352D01*
X133068756Y-112403197D01*
X132617225Y-112402803D01*
X132199914Y-112575233D01*
X131880355Y-112894235D01*
X131707197Y-113311244D01*
X131706803Y-113762775D01*
X131879233Y-114180086D01*
X132198235Y-114499645D01*
X132615244Y-114672803D01*
X133066775Y-114673197D01*
X133136560Y-114644362D01*
X133136560Y-114653000D01*
X133144756Y-114696560D01*
X132260000Y-114696560D01*
X132073392Y-114731673D01*
X131900000Y-114696560D01*
X130814226Y-114696560D01*
X130845431Y-114650890D01*
X130896440Y-114399000D01*
X130896440Y-112169000D01*
X130852162Y-111933683D01*
X130713090Y-111717559D01*
X130500890Y-111572569D01*
X130249000Y-111521560D01*
X128449000Y-111521560D01*
X128213683Y-111565838D01*
X127997559Y-111704910D01*
X127889559Y-111862973D01*
X127867327Y-111809301D01*
X127688698Y-111630673D01*
X127455309Y-111534000D01*
X126714750Y-111534000D01*
X126556000Y-111692750D01*
X126556000Y-113157000D01*
X126576000Y-113157000D01*
X126576000Y-113411000D01*
X126556000Y-113411000D01*
X126556000Y-114875250D01*
X126653362Y-114972612D01*
X126641673Y-114984301D01*
X126545000Y-115217690D01*
X111246136Y-115217690D01*
X110444026Y-114415580D01*
X110507114Y-114263650D01*
X110529994Y-114229407D01*
X110537958Y-114189369D01*
X110608803Y-114018756D01*
X110608966Y-113832391D01*
X110617000Y-113792000D01*
X110609036Y-113751961D01*
X110609194Y-113569750D01*
X124894000Y-113569750D01*
X124894000Y-114525310D01*
X124990673Y-114758699D01*
X125169302Y-114937327D01*
X125402691Y-115034000D01*
X126143250Y-115034000D01*
X126302000Y-114875250D01*
X126302000Y-113411000D01*
X125052750Y-113411000D01*
X124894000Y-113569750D01*
X110609194Y-113569750D01*
X110609197Y-113567225D01*
X110601000Y-113547387D01*
X110601000Y-113422925D01*
X110605440Y-113401000D01*
X110605440Y-112492775D01*
X122562803Y-112492775D01*
X122735233Y-112910086D01*
X123054235Y-113229645D01*
X123471244Y-113402803D01*
X123922775Y-113403197D01*
X124340086Y-113230767D01*
X124659645Y-112911765D01*
X124832803Y-112494756D01*
X124833197Y-112043225D01*
X124832976Y-112042690D01*
X124894000Y-112042690D01*
X124894000Y-112998250D01*
X125052750Y-113157000D01*
X126302000Y-113157000D01*
X126302000Y-111692750D01*
X126143250Y-111534000D01*
X125402691Y-111534000D01*
X125169302Y-111630673D01*
X124990673Y-111809301D01*
X124894000Y-112042690D01*
X124832976Y-112042690D01*
X124660767Y-111625914D01*
X124341765Y-111306355D01*
X123924756Y-111133197D01*
X123473225Y-111132803D01*
X123055914Y-111305233D01*
X122736355Y-111624235D01*
X122563197Y-112041244D01*
X122562803Y-112492775D01*
X110605440Y-112492775D01*
X110605440Y-112151000D01*
X110561162Y-111915683D01*
X110422090Y-111699559D01*
X110209890Y-111554569D01*
X109958000Y-111503560D01*
X108958000Y-111503560D01*
X108722683Y-111547838D01*
X108506559Y-111686910D01*
X108460031Y-111755006D01*
X108317698Y-111612673D01*
X108084309Y-111516000D01*
X107743750Y-111516000D01*
X107618607Y-111641143D01*
X107585002Y-111560014D01*
X107585002Y-111516000D01*
X107566771Y-111516000D01*
X107550327Y-111476302D01*
X107371699Y-111297673D01*
X107138310Y-111201000D01*
X106457750Y-111201000D01*
X106299000Y-111359750D01*
X106299000Y-112649000D01*
X107488250Y-112649000D01*
X107508250Y-112629000D01*
X107585000Y-112629000D01*
X107585000Y-112649000D01*
X107605000Y-112649000D01*
X107605000Y-112903000D01*
X107585000Y-112903000D01*
X107585000Y-112923000D01*
X107508250Y-112923000D01*
X107488250Y-112903000D01*
X106299000Y-112903000D01*
X106299000Y-112923000D01*
X106045000Y-112923000D01*
X106045000Y-112903000D01*
X104855750Y-112903000D01*
X104835750Y-112923000D01*
X104759000Y-112923000D01*
X104759000Y-112903000D01*
X104739000Y-112903000D01*
X104739000Y-112649000D01*
X104759000Y-112649000D01*
X104759000Y-112629000D01*
X104835750Y-112629000D01*
X104855750Y-112649000D01*
X106045000Y-112649000D01*
X106045000Y-111359750D01*
X105886250Y-111201000D01*
X105205690Y-111201000D01*
X105019854Y-111277976D01*
X104848767Y-110863914D01*
X104529765Y-110544355D01*
X104112756Y-110371197D01*
X103661225Y-110370803D01*
X103243914Y-110543233D01*
X102924355Y-110862235D01*
X102751197Y-111279244D01*
X102751001Y-111503560D01*
X102386000Y-111503560D01*
X102150683Y-111547838D01*
X101934559Y-111686910D01*
X101789569Y-111899110D01*
X101738560Y-112151000D01*
X101738560Y-113401000D01*
X101743000Y-113424597D01*
X101743000Y-113546452D01*
X101735197Y-113565244D01*
X101735034Y-113751609D01*
X101727000Y-113792000D01*
X101734964Y-113832039D01*
X101734803Y-114016775D01*
X101805972Y-114189016D01*
X101814006Y-114229407D01*
X101836686Y-114263350D01*
X101907233Y-114434086D01*
X102038896Y-114565978D01*
X102061777Y-114600223D01*
X102095723Y-114622905D01*
X102226235Y-114753645D01*
X102398350Y-114825114D01*
X102432593Y-114847994D01*
X102472631Y-114855958D01*
X102643244Y-114926803D01*
X102739157Y-114926887D01*
X102674004Y-115024395D01*
X102616000Y-115316000D01*
X102616000Y-117091560D01*
X102386000Y-117091560D01*
X102150683Y-117135838D01*
X101934559Y-117274910D01*
X101789569Y-117487110D01*
X101738560Y-117739000D01*
X101738560Y-118894994D01*
X100761000Y-119872554D01*
X100761000Y-110257185D01*
X119899682Y-110257185D01*
X119913827Y-110328684D01*
X120172855Y-110805540D01*
X120594651Y-111146972D01*
X121115000Y-111301000D01*
X121615000Y-111301000D01*
X121615000Y-110043000D01*
X121869000Y-110043000D01*
X121869000Y-111301000D01*
X122369000Y-111301000D01*
X122889349Y-111146972D01*
X123311145Y-110805540D01*
X123570173Y-110328684D01*
X123584318Y-110257185D01*
X123461656Y-110043000D01*
X121869000Y-110043000D01*
X121615000Y-110043000D01*
X120022344Y-110043000D01*
X119899682Y-110257185D01*
X100761000Y-110257185D01*
X100761000Y-108500183D01*
X101483423Y-108500183D01*
X101582022Y-108766985D01*
X102191562Y-108993421D01*
X102841357Y-108969361D01*
X103329938Y-108766985D01*
X103428537Y-108500183D01*
X106883463Y-108500183D01*
X106982062Y-108766985D01*
X107591602Y-108993421D01*
X108241397Y-108969361D01*
X108729978Y-108766985D01*
X108828577Y-108500183D01*
X113675423Y-108500183D01*
X113774022Y-108766985D01*
X114383562Y-108993421D01*
X115033357Y-108969361D01*
X115521938Y-108766985D01*
X115620537Y-108500183D01*
X119075463Y-108500183D01*
X119174062Y-108766985D01*
X119783602Y-108993421D01*
X120234286Y-108976734D01*
X120172855Y-109026460D01*
X119913827Y-109503316D01*
X119899682Y-109574815D01*
X120022344Y-109789000D01*
X121615000Y-109789000D01*
X121615000Y-108531000D01*
X121869000Y-108531000D01*
X121869000Y-109789000D01*
X123461656Y-109789000D01*
X123584318Y-109574815D01*
X123570173Y-109503316D01*
X123311145Y-109026460D01*
X122889349Y-108685028D01*
X122369000Y-108531000D01*
X121869000Y-108531000D01*
X121615000Y-108531000D01*
X121115000Y-108531000D01*
X120996192Y-108566168D01*
X121020577Y-108500183D01*
X128407423Y-108500183D01*
X128506022Y-108766985D01*
X129115562Y-108993421D01*
X129765357Y-108969361D01*
X130253938Y-108766985D01*
X130352537Y-108500183D01*
X133807463Y-108500183D01*
X133906062Y-108766985D01*
X134515602Y-108993421D01*
X135165397Y-108969361D01*
X135653978Y-108766985D01*
X135752577Y-108500183D01*
X134780020Y-107527625D01*
X133807463Y-108500183D01*
X130352537Y-108500183D01*
X129379980Y-107527625D01*
X128407423Y-108500183D01*
X121020577Y-108500183D01*
X120048020Y-107527625D01*
X119075463Y-108500183D01*
X115620537Y-108500183D01*
X114647980Y-107527625D01*
X113675423Y-108500183D01*
X108828577Y-108500183D01*
X107856020Y-107527625D01*
X106883463Y-108500183D01*
X103428537Y-108500183D01*
X102455980Y-107527625D01*
X101483423Y-108500183D01*
X100761000Y-108500183D01*
X100761000Y-107083602D01*
X100810579Y-107083602D01*
X100834639Y-107733397D01*
X101037015Y-108221978D01*
X101303817Y-108320577D01*
X102276375Y-107348020D01*
X102635585Y-107348020D01*
X103608143Y-108320577D01*
X103874945Y-108221978D01*
X104101381Y-107612438D01*
X104081800Y-107083602D01*
X106210619Y-107083602D01*
X106234679Y-107733397D01*
X106437055Y-108221978D01*
X106703857Y-108320577D01*
X107676415Y-107348020D01*
X108035625Y-107348020D01*
X109008183Y-108320577D01*
X109274985Y-108221978D01*
X109501421Y-107612438D01*
X109481840Y-107083602D01*
X113002579Y-107083602D01*
X113026639Y-107733397D01*
X113229015Y-108221978D01*
X113495817Y-108320577D01*
X114468375Y-107348020D01*
X114827585Y-107348020D01*
X115800143Y-108320577D01*
X116066945Y-108221978D01*
X116293381Y-107612438D01*
X116273800Y-107083602D01*
X118402619Y-107083602D01*
X118426679Y-107733397D01*
X118629055Y-108221978D01*
X118895857Y-108320577D01*
X119868415Y-107348020D01*
X120227625Y-107348020D01*
X121200183Y-108320577D01*
X121466985Y-108221978D01*
X121693421Y-107612438D01*
X121673840Y-107083602D01*
X127734579Y-107083602D01*
X127758639Y-107733397D01*
X127961015Y-108221978D01*
X128227817Y-108320577D01*
X129200375Y-107348020D01*
X129559585Y-107348020D01*
X130532143Y-108320577D01*
X130798945Y-108221978D01*
X131025381Y-107612438D01*
X131005800Y-107083602D01*
X133134619Y-107083602D01*
X133158679Y-107733397D01*
X133361055Y-108221978D01*
X133627857Y-108320577D01*
X134600415Y-107348020D01*
X133627857Y-106375463D01*
X133361055Y-106474062D01*
X133134619Y-107083602D01*
X131005800Y-107083602D01*
X131001321Y-106962643D01*
X130798945Y-106474062D01*
X130532143Y-106375463D01*
X129559585Y-107348020D01*
X129200375Y-107348020D01*
X128227817Y-106375463D01*
X127961015Y-106474062D01*
X127734579Y-107083602D01*
X121673840Y-107083602D01*
X121669361Y-106962643D01*
X121466985Y-106474062D01*
X121200183Y-106375463D01*
X120227625Y-107348020D01*
X119868415Y-107348020D01*
X118895857Y-106375463D01*
X118629055Y-106474062D01*
X118402619Y-107083602D01*
X116273800Y-107083602D01*
X116269321Y-106962643D01*
X116066945Y-106474062D01*
X115800143Y-106375463D01*
X114827585Y-107348020D01*
X114468375Y-107348020D01*
X113495817Y-106375463D01*
X113229015Y-106474062D01*
X113002579Y-107083602D01*
X109481840Y-107083602D01*
X109477361Y-106962643D01*
X109274985Y-106474062D01*
X109008183Y-106375463D01*
X108035625Y-107348020D01*
X107676415Y-107348020D01*
X106703857Y-106375463D01*
X106437055Y-106474062D01*
X106210619Y-107083602D01*
X104081800Y-107083602D01*
X104077321Y-106962643D01*
X103874945Y-106474062D01*
X103608143Y-106375463D01*
X102635585Y-107348020D01*
X102276375Y-107348020D01*
X101303817Y-106375463D01*
X101037015Y-106474062D01*
X100810579Y-107083602D01*
X100761000Y-107083602D01*
X100761000Y-106195857D01*
X101483423Y-106195857D01*
X102455980Y-107168415D01*
X103428537Y-106195857D01*
X103329938Y-105929055D01*
X102720398Y-105702619D01*
X102070603Y-105726679D01*
X101582022Y-105929055D01*
X101483423Y-106195857D01*
X100761000Y-106195857D01*
X100761000Y-104971694D01*
X103521226Y-104971694D01*
X103769538Y-105572655D01*
X104228927Y-106032846D01*
X104829453Y-106282206D01*
X105479694Y-106282774D01*
X105690049Y-106195857D01*
X106883463Y-106195857D01*
X107856020Y-107168415D01*
X108828577Y-106195857D01*
X113675423Y-106195857D01*
X114647980Y-107168415D01*
X115620537Y-106195857D01*
X115521938Y-105929055D01*
X114912398Y-105702619D01*
X114262603Y-105726679D01*
X113774022Y-105929055D01*
X113675423Y-106195857D01*
X108828577Y-106195857D01*
X108729978Y-105929055D01*
X108120438Y-105702619D01*
X107470643Y-105726679D01*
X106982062Y-105929055D01*
X106883463Y-106195857D01*
X105690049Y-106195857D01*
X106080655Y-106034462D01*
X106540846Y-105575073D01*
X106790206Y-104974547D01*
X106790208Y-104971694D01*
X115713226Y-104971694D01*
X115961538Y-105572655D01*
X116420927Y-106032846D01*
X117021453Y-106282206D01*
X117671694Y-106282774D01*
X117882049Y-106195857D01*
X119075463Y-106195857D01*
X120048020Y-107168415D01*
X121020577Y-106195857D01*
X128407423Y-106195857D01*
X129379980Y-107168415D01*
X130352537Y-106195857D01*
X130253938Y-105929055D01*
X129644398Y-105702619D01*
X128994603Y-105726679D01*
X128506022Y-105929055D01*
X128407423Y-106195857D01*
X121020577Y-106195857D01*
X120921978Y-105929055D01*
X120312438Y-105702619D01*
X119662643Y-105726679D01*
X119174062Y-105929055D01*
X119075463Y-106195857D01*
X117882049Y-106195857D01*
X118272655Y-106034462D01*
X118732846Y-105575073D01*
X118982206Y-104974547D01*
X118982208Y-104971694D01*
X130445226Y-104971694D01*
X130693538Y-105572655D01*
X131152927Y-106032846D01*
X131753453Y-106282206D01*
X132403694Y-106282774D01*
X133004655Y-106034462D01*
X133248542Y-105791000D01*
X134239358Y-105791000D01*
X133906062Y-105929055D01*
X133807463Y-106195857D01*
X134780020Y-107168415D01*
X134794162Y-107154272D01*
X134973768Y-107333878D01*
X134959625Y-107348020D01*
X135932183Y-108320577D01*
X136198985Y-108221978D01*
X136403365Y-107671811D01*
X142795086Y-114063532D01*
X142466756Y-113927197D01*
X142015225Y-113926803D01*
X141597914Y-114099233D01*
X141278355Y-114418235D01*
X141105197Y-114835244D01*
X141104803Y-115286775D01*
X141277233Y-115704086D01*
X141596235Y-116023645D01*
X142013244Y-116196803D01*
X142464775Y-116197197D01*
X142882086Y-116024767D01*
X143063000Y-115844168D01*
X143063000Y-117096551D01*
X142907890Y-116990569D01*
X142656000Y-116939560D01*
X141956000Y-116939560D01*
X141720683Y-116983838D01*
X141555731Y-117089982D01*
X141366000Y-117051560D01*
X140066000Y-117051560D01*
X139830683Y-117095838D01*
X139614559Y-117234910D01*
X139469569Y-117447110D01*
X139418560Y-117699000D01*
X139418560Y-118399000D01*
X139462838Y-118634317D01*
X139601910Y-118850441D01*
X139814110Y-118995431D01*
X139847490Y-119002191D01*
X139706301Y-119060673D01*
X139527673Y-119239302D01*
X139431000Y-119472691D01*
X139431000Y-119663250D01*
X139589750Y-119822000D01*
X140589000Y-119822000D01*
X140589000Y-119802000D01*
X140843000Y-119802000D01*
X140843000Y-119822000D01*
X140863000Y-119822000D01*
X140863000Y-119895906D01*
X140745225Y-119895803D01*
X140327914Y-120068233D01*
X140320133Y-120076000D01*
X139589750Y-120076000D01*
X139431000Y-120234750D01*
X139431000Y-120425309D01*
X139527673Y-120658698D01*
X139706301Y-120837327D01*
X139835122Y-120890686D01*
X139834803Y-121255775D01*
X140007233Y-121673086D01*
X140135646Y-121801723D01*
X140148671Y-121867206D01*
X140250564Y-122019699D01*
X140341382Y-122155618D01*
X140950560Y-122764796D01*
X140950560Y-122930000D01*
X140994838Y-123165317D01*
X141133910Y-123381441D01*
X141346110Y-123526431D01*
X141598000Y-123577440D01*
X142398000Y-123577440D01*
X142633317Y-123533162D01*
X142736646Y-123466671D01*
X142738302Y-123468327D01*
X142971691Y-123565000D01*
X143212250Y-123565000D01*
X143371000Y-123406250D01*
X143371000Y-122682000D01*
X143625000Y-122682000D01*
X143625000Y-123406250D01*
X143783750Y-123565000D01*
X144024309Y-123565000D01*
X144257698Y-123468327D01*
X144436327Y-123289699D01*
X144533000Y-123056310D01*
X144533000Y-122840750D01*
X144374250Y-122682000D01*
X143625000Y-122682000D01*
X143371000Y-122682000D01*
X143351000Y-122682000D01*
X143351000Y-122428000D01*
X143371000Y-122428000D01*
X143371000Y-121412000D01*
X143625000Y-121412000D01*
X143625000Y-122428000D01*
X144374250Y-122428000D01*
X144533000Y-122269250D01*
X144533000Y-122053690D01*
X144477624Y-121920000D01*
X144533000Y-121786310D01*
X144533000Y-121570750D01*
X144374250Y-121412000D01*
X143625000Y-121412000D01*
X143371000Y-121412000D01*
X143351000Y-121412000D01*
X143351000Y-121158000D01*
X143371000Y-121158000D01*
X143371000Y-121138000D01*
X143625000Y-121138000D01*
X143625000Y-121158000D01*
X144374250Y-121158000D01*
X144533000Y-120999250D01*
X144533000Y-120796750D01*
X145040000Y-120796750D01*
X145040000Y-121037309D01*
X145136673Y-121270698D01*
X145315301Y-121449327D01*
X145548690Y-121546000D01*
X145764250Y-121546000D01*
X145923000Y-121387250D01*
X145923000Y-120638000D01*
X146177000Y-120638000D01*
X146177000Y-121387250D01*
X146335750Y-121546000D01*
X146551310Y-121546000D01*
X146784699Y-121449327D01*
X146812000Y-121422026D01*
X146839301Y-121449327D01*
X147072690Y-121546000D01*
X147288250Y-121546000D01*
X147447000Y-121387250D01*
X147447000Y-120638000D01*
X147701000Y-120638000D01*
X147701000Y-121387250D01*
X147859750Y-121546000D01*
X148075310Y-121546000D01*
X148308699Y-121449327D01*
X148487327Y-121270698D01*
X148584000Y-121037309D01*
X148584000Y-120796750D01*
X148425250Y-120638000D01*
X147701000Y-120638000D01*
X147447000Y-120638000D01*
X146177000Y-120638000D01*
X145923000Y-120638000D01*
X145198750Y-120638000D01*
X145040000Y-120796750D01*
X144533000Y-120796750D01*
X144533000Y-120783690D01*
X144528625Y-120773128D01*
X144585333Y-120749696D01*
X144641317Y-120739162D01*
X144857441Y-120600090D01*
X145002431Y-120387890D01*
X145028874Y-120257309D01*
X145041545Y-120226795D01*
X145198750Y-120384000D01*
X145923000Y-120384000D01*
X145923000Y-120364000D01*
X146177000Y-120364000D01*
X146177000Y-120384000D01*
X147447000Y-120384000D01*
X147447000Y-120364000D01*
X147701000Y-120364000D01*
X147701000Y-120384000D01*
X148425250Y-120384000D01*
X148584000Y-120225250D01*
X148584000Y-119984691D01*
X148487327Y-119751302D01*
X148485957Y-119749932D01*
X148545431Y-119662890D01*
X148596440Y-119411000D01*
X148596440Y-118611000D01*
X148552162Y-118375683D01*
X148413090Y-118159559D01*
X148200890Y-118014569D01*
X147949000Y-117963560D01*
X147557236Y-117963560D01*
X147424286Y-117830378D01*
X147027668Y-117665687D01*
X146598216Y-117665313D01*
X146201311Y-117829311D01*
X146066827Y-117963560D01*
X145675000Y-117963560D01*
X145439683Y-118007838D01*
X145349000Y-118066191D01*
X145349000Y-113858000D01*
X145261994Y-113420593D01*
X145014223Y-113049777D01*
X143244610Y-111280164D01*
X143315000Y-111301000D01*
X143815000Y-111301000D01*
X143815000Y-110043000D01*
X144069000Y-110043000D01*
X144069000Y-111301000D01*
X144569000Y-111301000D01*
X145089349Y-111146972D01*
X145511145Y-110805540D01*
X145770173Y-110328684D01*
X145784318Y-110257185D01*
X145661656Y-110043000D01*
X144069000Y-110043000D01*
X143815000Y-110043000D01*
X142222344Y-110043000D01*
X142144089Y-110179643D01*
X141539261Y-109574815D01*
X142099682Y-109574815D01*
X142222344Y-109789000D01*
X143815000Y-109789000D01*
X143815000Y-108531000D01*
X144069000Y-108531000D01*
X144069000Y-109789000D01*
X145661656Y-109789000D01*
X145784318Y-109574815D01*
X145770173Y-109503316D01*
X145511145Y-109026460D01*
X145089349Y-108685028D01*
X144569000Y-108531000D01*
X144069000Y-108531000D01*
X143815000Y-108531000D01*
X143315000Y-108531000D01*
X142794651Y-108685028D01*
X142372855Y-109026460D01*
X142113827Y-109503316D01*
X142099682Y-109574815D01*
X141539261Y-109574815D01*
X140751178Y-108786732D01*
X141307562Y-108993421D01*
X141957357Y-108969361D01*
X142445938Y-108766985D01*
X142544537Y-108500183D01*
X145999463Y-108500183D01*
X146098062Y-108766985D01*
X146707602Y-108993421D01*
X147357397Y-108969361D01*
X147845978Y-108766985D01*
X147944577Y-108500183D01*
X146972020Y-107527625D01*
X145999463Y-108500183D01*
X142544537Y-108500183D01*
X141571980Y-107527625D01*
X141557838Y-107541768D01*
X141378232Y-107362162D01*
X141392375Y-107348020D01*
X141751585Y-107348020D01*
X142724143Y-108320577D01*
X142990945Y-108221978D01*
X143217381Y-107612438D01*
X143197800Y-107083602D01*
X145326619Y-107083602D01*
X145350679Y-107733397D01*
X145553055Y-108221978D01*
X145819857Y-108320577D01*
X146792415Y-107348020D01*
X147151625Y-107348020D01*
X148124183Y-108320577D01*
X148390985Y-108221978D01*
X148617421Y-107612438D01*
X148593361Y-106962643D01*
X148390985Y-106474062D01*
X148124183Y-106375463D01*
X147151625Y-107348020D01*
X146792415Y-107348020D01*
X145819857Y-106375463D01*
X145553055Y-106474062D01*
X145326619Y-107083602D01*
X143197800Y-107083602D01*
X143193321Y-106962643D01*
X142990945Y-106474062D01*
X142724143Y-106375463D01*
X141751585Y-107348020D01*
X141392375Y-107348020D01*
X140419817Y-106375463D01*
X140153015Y-106474062D01*
X139926579Y-107083602D01*
X139950639Y-107733397D01*
X140129391Y-108164945D01*
X138160303Y-106195857D01*
X140599423Y-106195857D01*
X141571980Y-107168415D01*
X142544537Y-106195857D01*
X142445938Y-105929055D01*
X141836398Y-105702619D01*
X141186603Y-105726679D01*
X140698022Y-105929055D01*
X140599423Y-106195857D01*
X138160303Y-106195857D01*
X136936140Y-104971694D01*
X142637226Y-104971694D01*
X142885538Y-105572655D01*
X143344927Y-106032846D01*
X143945453Y-106282206D01*
X144595694Y-106282774D01*
X144806049Y-106195857D01*
X145999463Y-106195857D01*
X146972020Y-107168415D01*
X147944577Y-106195857D01*
X147845978Y-105929055D01*
X147236438Y-105702619D01*
X146586643Y-105726679D01*
X146098062Y-105929055D01*
X145999463Y-106195857D01*
X144806049Y-106195857D01*
X145196655Y-106034462D01*
X145656846Y-105575073D01*
X145906206Y-104974547D01*
X145906774Y-104324306D01*
X145658462Y-103723345D01*
X145199073Y-103263154D01*
X144806499Y-103100143D01*
X145999463Y-103100143D01*
X146098062Y-103366945D01*
X146707602Y-103593381D01*
X147357397Y-103569321D01*
X147845978Y-103366945D01*
X147944577Y-103100143D01*
X146972020Y-102127585D01*
X145999463Y-103100143D01*
X144806499Y-103100143D01*
X144598547Y-103013794D01*
X143948306Y-103013226D01*
X143347345Y-103261538D01*
X142887154Y-103720927D01*
X142637794Y-104321453D01*
X142637226Y-104971694D01*
X136936140Y-104971694D01*
X135804223Y-103839777D01*
X135433407Y-103592006D01*
X135215347Y-103548631D01*
X135653978Y-103366945D01*
X135752577Y-103100143D01*
X140599423Y-103100143D01*
X140698022Y-103366945D01*
X141307562Y-103593381D01*
X141957357Y-103569321D01*
X142445938Y-103366945D01*
X142544537Y-103100143D01*
X141571980Y-102127585D01*
X140599423Y-103100143D01*
X135752577Y-103100143D01*
X134780020Y-102127585D01*
X133807463Y-103100143D01*
X133906062Y-103366945D01*
X134277690Y-103505000D01*
X133248498Y-103505000D01*
X133007073Y-103263154D01*
X132406547Y-103013794D01*
X131756306Y-103013226D01*
X131155345Y-103261538D01*
X130695154Y-103720927D01*
X130445794Y-104321453D01*
X130445226Y-104971694D01*
X118982208Y-104971694D01*
X118982774Y-104324306D01*
X118734462Y-103723345D01*
X118275073Y-103263154D01*
X117882499Y-103100143D01*
X119075463Y-103100143D01*
X119174062Y-103366945D01*
X119783602Y-103593381D01*
X120433397Y-103569321D01*
X120921978Y-103366945D01*
X121020577Y-103100143D01*
X128407423Y-103100143D01*
X128506022Y-103366945D01*
X129115562Y-103593381D01*
X129765357Y-103569321D01*
X130253938Y-103366945D01*
X130352537Y-103100143D01*
X129379980Y-102127585D01*
X128407423Y-103100143D01*
X121020577Y-103100143D01*
X120048020Y-102127585D01*
X119075463Y-103100143D01*
X117882499Y-103100143D01*
X117674547Y-103013794D01*
X117024306Y-103013226D01*
X116423345Y-103261538D01*
X115963154Y-103720927D01*
X115713794Y-104321453D01*
X115713226Y-104971694D01*
X106790208Y-104971694D01*
X106790774Y-104324306D01*
X106542462Y-103723345D01*
X106083073Y-103263154D01*
X105690499Y-103100143D01*
X106883463Y-103100143D01*
X106982062Y-103366945D01*
X107591602Y-103593381D01*
X108241397Y-103569321D01*
X108729978Y-103366945D01*
X108828577Y-103100143D01*
X113675423Y-103100143D01*
X113774022Y-103366945D01*
X114383562Y-103593381D01*
X115033357Y-103569321D01*
X115521938Y-103366945D01*
X115620537Y-103100143D01*
X114647980Y-102127585D01*
X113675423Y-103100143D01*
X108828577Y-103100143D01*
X107856020Y-102127585D01*
X106883463Y-103100143D01*
X105690499Y-103100143D01*
X105482547Y-103013794D01*
X104832306Y-103013226D01*
X104231345Y-103261538D01*
X103771154Y-103720927D01*
X103521794Y-104321453D01*
X103521226Y-104971694D01*
X100761000Y-104971694D01*
X100761000Y-103100143D01*
X101483423Y-103100143D01*
X101582022Y-103366945D01*
X102191562Y-103593381D01*
X102841357Y-103569321D01*
X103329938Y-103366945D01*
X103428537Y-103100143D01*
X102455980Y-102127585D01*
X101483423Y-103100143D01*
X100761000Y-103100143D01*
X100761000Y-101683562D01*
X100810579Y-101683562D01*
X100834639Y-102333357D01*
X101037015Y-102821938D01*
X101303817Y-102920537D01*
X102276375Y-101947980D01*
X102635585Y-101947980D01*
X103608143Y-102920537D01*
X103874945Y-102821938D01*
X104101381Y-102212398D01*
X104081800Y-101683562D01*
X106210619Y-101683562D01*
X106234679Y-102333357D01*
X106437055Y-102821938D01*
X106703857Y-102920537D01*
X107676415Y-101947980D01*
X108035625Y-101947980D01*
X109008183Y-102920537D01*
X109274985Y-102821938D01*
X109501421Y-102212398D01*
X109481840Y-101683562D01*
X113002579Y-101683562D01*
X113026639Y-102333357D01*
X113229015Y-102821938D01*
X113495817Y-102920537D01*
X114468375Y-101947980D01*
X114827585Y-101947980D01*
X115800143Y-102920537D01*
X116066945Y-102821938D01*
X116293381Y-102212398D01*
X116273800Y-101683562D01*
X118402619Y-101683562D01*
X118426679Y-102333357D01*
X118629055Y-102821938D01*
X118895857Y-102920537D01*
X119868415Y-101947980D01*
X120227625Y-101947980D01*
X121200183Y-102920537D01*
X121466985Y-102821938D01*
X121693421Y-102212398D01*
X121673840Y-101683562D01*
X127734579Y-101683562D01*
X127758639Y-102333357D01*
X127961015Y-102821938D01*
X128227817Y-102920537D01*
X129200375Y-101947980D01*
X129559585Y-101947980D01*
X130532143Y-102920537D01*
X130798945Y-102821938D01*
X131025381Y-102212398D01*
X131005800Y-101683562D01*
X133134619Y-101683562D01*
X133158679Y-102333357D01*
X133361055Y-102821938D01*
X133627857Y-102920537D01*
X134600415Y-101947980D01*
X134959625Y-101947980D01*
X135932183Y-102920537D01*
X136198985Y-102821938D01*
X136425421Y-102212398D01*
X136405840Y-101683562D01*
X139926579Y-101683562D01*
X139950639Y-102333357D01*
X140153015Y-102821938D01*
X140419817Y-102920537D01*
X141392375Y-101947980D01*
X141751585Y-101947980D01*
X142724143Y-102920537D01*
X142990945Y-102821938D01*
X143217381Y-102212398D01*
X143197800Y-101683562D01*
X145326619Y-101683562D01*
X145350679Y-102333357D01*
X145553055Y-102821938D01*
X145819857Y-102920537D01*
X146792415Y-101947980D01*
X147151625Y-101947980D01*
X148124183Y-102920537D01*
X148390985Y-102821938D01*
X148617421Y-102212398D01*
X148593361Y-101562603D01*
X148390985Y-101074022D01*
X148124183Y-100975423D01*
X147151625Y-101947980D01*
X146792415Y-101947980D01*
X145819857Y-100975423D01*
X145553055Y-101074022D01*
X145326619Y-101683562D01*
X143197800Y-101683562D01*
X143193321Y-101562603D01*
X142990945Y-101074022D01*
X142724143Y-100975423D01*
X141751585Y-101947980D01*
X141392375Y-101947980D01*
X140419817Y-100975423D01*
X140153015Y-101074022D01*
X139926579Y-101683562D01*
X136405840Y-101683562D01*
X136401361Y-101562603D01*
X136198985Y-101074022D01*
X135932183Y-100975423D01*
X134959625Y-101947980D01*
X134600415Y-101947980D01*
X133627857Y-100975423D01*
X133361055Y-101074022D01*
X133134619Y-101683562D01*
X131005800Y-101683562D01*
X131001321Y-101562603D01*
X130798945Y-101074022D01*
X130532143Y-100975423D01*
X129559585Y-101947980D01*
X129200375Y-101947980D01*
X128227817Y-100975423D01*
X127961015Y-101074022D01*
X127734579Y-101683562D01*
X121673840Y-101683562D01*
X121669361Y-101562603D01*
X121466985Y-101074022D01*
X121200183Y-100975423D01*
X120227625Y-101947980D01*
X119868415Y-101947980D01*
X118895857Y-100975423D01*
X118629055Y-101074022D01*
X118402619Y-101683562D01*
X116273800Y-101683562D01*
X116269321Y-101562603D01*
X116066945Y-101074022D01*
X115800143Y-100975423D01*
X114827585Y-101947980D01*
X114468375Y-101947980D01*
X113495817Y-100975423D01*
X113229015Y-101074022D01*
X113002579Y-101683562D01*
X109481840Y-101683562D01*
X109477361Y-101562603D01*
X109274985Y-101074022D01*
X109008183Y-100975423D01*
X108035625Y-101947980D01*
X107676415Y-101947980D01*
X106703857Y-100975423D01*
X106437055Y-101074022D01*
X106210619Y-101683562D01*
X104081800Y-101683562D01*
X104077321Y-101562603D01*
X103874945Y-101074022D01*
X103608143Y-100975423D01*
X102635585Y-101947980D01*
X102276375Y-101947980D01*
X101303817Y-100975423D01*
X101037015Y-101074022D01*
X100810579Y-101683562D01*
X100761000Y-101683562D01*
X100761000Y-100761000D01*
X101496290Y-100761000D01*
X101483423Y-100795817D01*
X101483423Y-100795817D01*
G37*
X101483423Y-100795817D02*
X102455980Y-101768375D01*
X103428537Y-100795817D01*
X103415670Y-100761000D01*
X106896330Y-100761000D01*
X106883463Y-100795817D01*
X107856020Y-101768375D01*
X108828577Y-100795817D01*
X108815710Y-100761000D01*
X113688290Y-100761000D01*
X113675423Y-100795817D01*
X114647980Y-101768375D01*
X115620537Y-100795817D01*
X115607670Y-100761000D01*
X119088330Y-100761000D01*
X119075463Y-100795817D01*
X120048020Y-101768375D01*
X121020577Y-100795817D01*
X121007710Y-100761000D01*
X128420290Y-100761000D01*
X128407423Y-100795817D01*
X129379980Y-101768375D01*
X130352537Y-100795817D01*
X130339670Y-100761000D01*
X133820330Y-100761000D01*
X133807463Y-100795817D01*
X134780020Y-101768375D01*
X135752577Y-100795817D01*
X135739710Y-100761000D01*
X140612290Y-100761000D01*
X140599423Y-100795817D01*
X141571980Y-101768375D01*
X142544537Y-100795817D01*
X142531670Y-100761000D01*
X146012330Y-100761000D01*
X145999463Y-100795817D01*
X146972020Y-101768375D01*
X147944577Y-100795817D01*
X147931710Y-100761000D01*
X149175000Y-100761000D01*
X149175000Y-143637000D01*
X146365431Y-143637000D01*
X146304000Y-143624560D01*
X144399000Y-143624560D01*
X144399000Y-138938000D01*
X144388994Y-138888590D01*
X144361803Y-138848197D01*
X139573000Y-134059394D01*
X139573000Y-133757185D01*
X142099682Y-133757185D01*
X142113827Y-133828684D01*
X142372855Y-134305540D01*
X142794651Y-134646972D01*
X143315000Y-134801000D01*
X143815000Y-134801000D01*
X143815000Y-133543000D01*
X144069000Y-133543000D01*
X144069000Y-134801000D01*
X144569000Y-134801000D01*
X145089349Y-134646972D01*
X145511145Y-134305540D01*
X145770173Y-133828684D01*
X145784318Y-133757185D01*
X145661656Y-133543000D01*
X144069000Y-133543000D01*
X143815000Y-133543000D01*
X142222344Y-133543000D01*
X142099682Y-133757185D01*
X139573000Y-133757185D01*
X139573000Y-133074815D01*
X142099682Y-133074815D01*
X142222344Y-133289000D01*
X143815000Y-133289000D01*
X143815000Y-132031000D01*
X144069000Y-132031000D01*
X144069000Y-133289000D01*
X145661656Y-133289000D01*
X145784318Y-133074815D01*
X145770173Y-133003316D01*
X145511145Y-132526460D01*
X145089349Y-132185028D01*
X144569000Y-132031000D01*
X144069000Y-132031000D01*
X143815000Y-132031000D01*
X143315000Y-132031000D01*
X142794651Y-132185028D01*
X142372855Y-132526460D01*
X142113827Y-133003316D01*
X142099682Y-133074815D01*
X139573000Y-133074815D01*
X139573000Y-127562025D01*
X139706301Y-127695327D01*
X139835122Y-127748686D01*
X139834803Y-128113775D01*
X140007233Y-128531086D01*
X140132665Y-128656737D01*
X140148671Y-128737206D01*
X140150148Y-128739417D01*
X140150682Y-128742021D01*
X140246461Y-128883558D01*
X140341382Y-129025618D01*
X140343592Y-129027095D01*
X140345083Y-129029298D01*
X140950560Y-129627707D01*
X140950560Y-129788000D01*
X140994838Y-130023317D01*
X141133910Y-130239441D01*
X141346110Y-130384431D01*
X141598000Y-130435440D01*
X142398000Y-130435440D01*
X142633317Y-130391162D01*
X142736646Y-130324671D01*
X142738302Y-130326327D01*
X142971691Y-130423000D01*
X143212250Y-130423000D01*
X143371000Y-130264250D01*
X143371000Y-129540000D01*
X143625000Y-129540000D01*
X143625000Y-130264250D01*
X143783750Y-130423000D01*
X144024309Y-130423000D01*
X144257698Y-130326327D01*
X144436327Y-130147699D01*
X144533000Y-129914310D01*
X144533000Y-129698750D01*
X144374250Y-129540000D01*
X143625000Y-129540000D01*
X143371000Y-129540000D01*
X143351000Y-129540000D01*
X143351000Y-129286000D01*
X143371000Y-129286000D01*
X143371000Y-128270000D01*
X143625000Y-128270000D01*
X143625000Y-129286000D01*
X144374250Y-129286000D01*
X144533000Y-129127250D01*
X144533000Y-128911690D01*
X144477624Y-128778000D01*
X144533000Y-128644310D01*
X144533000Y-128428750D01*
X144374250Y-128270000D01*
X143625000Y-128270000D01*
X143371000Y-128270000D01*
X143351000Y-128270000D01*
X143351000Y-128016000D01*
X143371000Y-128016000D01*
X143371000Y-127996000D01*
X143625000Y-127996000D01*
X143625000Y-128016000D01*
X144374250Y-128016000D01*
X144533000Y-127857250D01*
X144533000Y-127654750D01*
X145040000Y-127654750D01*
X145040000Y-127895309D01*
X145136673Y-128128698D01*
X145315301Y-128307327D01*
X145548690Y-128404000D01*
X145764250Y-128404000D01*
X145923000Y-128245250D01*
X145923000Y-127496000D01*
X146177000Y-127496000D01*
X146177000Y-128245250D01*
X146335750Y-128404000D01*
X146551310Y-128404000D01*
X146784699Y-128307327D01*
X146812000Y-128280026D01*
X146839301Y-128307327D01*
X147072690Y-128404000D01*
X147288250Y-128404000D01*
X147447000Y-128245250D01*
X147447000Y-127496000D01*
X147701000Y-127496000D01*
X147701000Y-128245250D01*
X147859750Y-128404000D01*
X148075310Y-128404000D01*
X148308699Y-128307327D01*
X148487327Y-128128698D01*
X148584000Y-127895309D01*
X148584000Y-127654750D01*
X148425250Y-127496000D01*
X147701000Y-127496000D01*
X147447000Y-127496000D01*
X146177000Y-127496000D01*
X145923000Y-127496000D01*
X145198750Y-127496000D01*
X145040000Y-127654750D01*
X144533000Y-127654750D01*
X144533000Y-127641690D01*
X144530379Y-127635361D01*
X144607367Y-127603550D01*
X144641317Y-127597162D01*
X144857441Y-127458090D01*
X145002431Y-127245890D01*
X145017451Y-127171718D01*
X145050024Y-127093274D01*
X145198750Y-127242000D01*
X145923000Y-127242000D01*
X145923000Y-127222000D01*
X146177000Y-127222000D01*
X146177000Y-127242000D01*
X147447000Y-127242000D01*
X147447000Y-127222000D01*
X147701000Y-127222000D01*
X147701000Y-127242000D01*
X148425250Y-127242000D01*
X148584000Y-127083250D01*
X148584000Y-126842691D01*
X148487327Y-126609302D01*
X148485957Y-126607932D01*
X148545431Y-126520890D01*
X148596440Y-126269000D01*
X148596440Y-125469000D01*
X148552162Y-125233683D01*
X148413090Y-125017559D01*
X148200890Y-124872569D01*
X147949000Y-124821560D01*
X147557236Y-124821560D01*
X147424286Y-124688378D01*
X147027668Y-124523687D01*
X146598216Y-124523313D01*
X146201311Y-124687311D01*
X146066827Y-124821560D01*
X145675000Y-124821560D01*
X145439683Y-124865838D01*
X145223559Y-125004910D01*
X145203440Y-125034355D01*
X145203440Y-124445000D01*
X145159162Y-124209683D01*
X145020090Y-123993559D01*
X144807890Y-123848569D01*
X144556000Y-123797560D01*
X143856000Y-123797560D01*
X143620683Y-123841838D01*
X143404559Y-123980910D01*
X143259569Y-124193110D01*
X143256919Y-124206197D01*
X143120090Y-123993559D01*
X142907890Y-123848569D01*
X142656000Y-123797560D01*
X141956000Y-123797560D01*
X141720683Y-123841838D01*
X141555731Y-123947982D01*
X141366000Y-123909560D01*
X140066000Y-123909560D01*
X139830683Y-123953838D01*
X139614559Y-124092910D01*
X139469569Y-124305110D01*
X139418560Y-124557000D01*
X139418560Y-125257000D01*
X139462838Y-125492317D01*
X139601910Y-125708441D01*
X139814110Y-125853431D01*
X139847490Y-125860191D01*
X139706301Y-125918673D01*
X139527673Y-126097302D01*
X139515147Y-126127541D01*
X137503803Y-124116197D01*
X137461789Y-124088334D01*
X137414000Y-124079000D01*
X136855760Y-124079000D01*
X136878000Y-124025309D01*
X136878000Y-123284750D01*
X136719250Y-123126000D01*
X135255000Y-123126000D01*
X135255000Y-123146000D01*
X135001000Y-123146000D01*
X135001000Y-123126000D01*
X133536750Y-123126000D01*
X133378000Y-123284750D01*
X133378000Y-124025309D01*
X133400240Y-124079000D01*
X130759760Y-124079000D01*
X130782000Y-124025309D01*
X130782000Y-123284750D01*
X130623250Y-123126000D01*
X129159000Y-123126000D01*
X129159000Y-123146000D01*
X128905000Y-123146000D01*
X128905000Y-123126000D01*
X127440750Y-123126000D01*
X127282000Y-123284750D01*
X127282000Y-124025309D01*
X127378673Y-124258698D01*
X127557301Y-124437327D01*
X127790690Y-124534000D01*
X128524394Y-124534000D01*
X128217394Y-124841000D01*
X127000000Y-124841000D01*
X126950590Y-124851006D01*
X126910197Y-124878197D01*
X125386197Y-126402197D01*
X125358334Y-126444211D01*
X125349000Y-126492000D01*
X125349000Y-137033000D01*
X110189981Y-137033000D01*
X110247978Y-136975104D01*
X110282223Y-136952223D01*
X110397915Y-136836531D01*
X110639016Y-136788573D01*
X111088343Y-136488343D01*
X113819501Y-133757185D01*
X119899682Y-133757185D01*
X119913827Y-133828684D01*
X120172855Y-134305540D01*
X120594651Y-134646972D01*
X121115000Y-134801000D01*
X121615000Y-134801000D01*
X121615000Y-133543000D01*
X121869000Y-133543000D01*
X121869000Y-134801000D01*
X122369000Y-134801000D01*
X122889349Y-134646972D01*
X123311145Y-134305540D01*
X123570173Y-133828684D01*
X123584318Y-133757185D01*
X123461656Y-133543000D01*
X121869000Y-133543000D01*
X121615000Y-133543000D01*
X120022344Y-133543000D01*
X119899682Y-133757185D01*
X113819501Y-133757185D01*
X115603936Y-131972750D01*
X118751000Y-131972750D01*
X118751000Y-132213309D01*
X118847673Y-132446698D01*
X119026301Y-132625327D01*
X119259690Y-132722000D01*
X119475250Y-132722000D01*
X119634000Y-132563250D01*
X119634000Y-131814000D01*
X119888000Y-131814000D01*
X119888000Y-132563250D01*
X120046750Y-132722000D01*
X120066638Y-132722000D01*
X119913827Y-133003316D01*
X119899682Y-133074815D01*
X120022344Y-133289000D01*
X121615000Y-133289000D01*
X121615000Y-133269000D01*
X121869000Y-133269000D01*
X121869000Y-133289000D01*
X123461656Y-133289000D01*
X123584318Y-133074815D01*
X123570173Y-133003316D01*
X123311145Y-132526460D01*
X122889349Y-132185028D01*
X122369000Y-132031000D01*
X122041000Y-132031000D01*
X122041000Y-131972750D01*
X121882250Y-131814000D01*
X121158000Y-131814000D01*
X121158000Y-131834000D01*
X120904000Y-131834000D01*
X120904000Y-131814000D01*
X119888000Y-131814000D01*
X119634000Y-131814000D01*
X118909750Y-131814000D01*
X118751000Y-131972750D01*
X115603936Y-131972750D01*
X118581343Y-128995343D01*
X118679891Y-128847856D01*
X118618000Y-129159000D01*
X118618000Y-130187000D01*
X118705006Y-130624407D01*
X118761511Y-130708972D01*
X118782838Y-130822317D01*
X118849329Y-130925646D01*
X118847673Y-130927302D01*
X118751000Y-131160691D01*
X118751000Y-131401250D01*
X118909750Y-131560000D01*
X119634000Y-131560000D01*
X119634000Y-131540000D01*
X119888000Y-131540000D01*
X119888000Y-131560000D01*
X120904000Y-131560000D01*
X120904000Y-131540000D01*
X121158000Y-131540000D01*
X121158000Y-131560000D01*
X121882250Y-131560000D01*
X122041000Y-131401250D01*
X122041000Y-131160691D01*
X121944327Y-130927302D01*
X121942957Y-130925932D01*
X122002431Y-130838890D01*
X122027979Y-130712729D01*
X122086994Y-130624407D01*
X122174000Y-130187000D01*
X122174000Y-129928000D01*
X122269250Y-129928000D01*
X122428000Y-129769250D01*
X122428000Y-129020000D01*
X122682000Y-129020000D01*
X122682000Y-129769250D01*
X122840750Y-129928000D01*
X123056310Y-129928000D01*
X123190000Y-129872624D01*
X123323690Y-129928000D01*
X123539250Y-129928000D01*
X123698000Y-129769250D01*
X123698000Y-129020000D01*
X123952000Y-129020000D01*
X123952000Y-129769250D01*
X124110750Y-129928000D01*
X124326310Y-129928000D01*
X124559699Y-129831327D01*
X124738327Y-129652698D01*
X124835000Y-129419309D01*
X124835000Y-129178750D01*
X124676250Y-129020000D01*
X123952000Y-129020000D01*
X123698000Y-129020000D01*
X122682000Y-129020000D01*
X122428000Y-129020000D01*
X122408000Y-129020000D01*
X122408000Y-128766000D01*
X122428000Y-128766000D01*
X122428000Y-128746000D01*
X122682000Y-128746000D01*
X122682000Y-128766000D01*
X123698000Y-128766000D01*
X123698000Y-128746000D01*
X123952000Y-128746000D01*
X123952000Y-128766000D01*
X124676250Y-128766000D01*
X124835000Y-128607250D01*
X124835000Y-128366691D01*
X124738327Y-128133302D01*
X124736957Y-128131932D01*
X124796431Y-128044890D01*
X124821979Y-127918729D01*
X124880994Y-127830407D01*
X124968000Y-127393000D01*
X124880994Y-126955593D01*
X124824489Y-126871028D01*
X124803162Y-126757683D01*
X124664090Y-126541559D01*
X124451890Y-126396569D01*
X124443269Y-126394823D01*
X123859223Y-125810777D01*
X123488407Y-125563006D01*
X123051000Y-125476000D01*
X122555000Y-125476000D01*
X122514961Y-125483964D01*
X122330225Y-125483803D01*
X122157984Y-125554972D01*
X122117593Y-125563006D01*
X122083650Y-125585686D01*
X121912914Y-125656233D01*
X121781022Y-125787896D01*
X121746777Y-125810777D01*
X121561554Y-125996000D01*
X121285000Y-125996000D01*
X120847593Y-126083006D01*
X120805309Y-126111259D01*
X120674683Y-126135838D01*
X120458559Y-126274910D01*
X120313569Y-126487110D01*
X120288021Y-126613271D01*
X120229006Y-126701593D01*
X120142000Y-127139000D01*
X120215600Y-127509009D01*
X119843593Y-127583006D01*
X119472777Y-127830777D01*
X118952777Y-128350777D01*
X118930540Y-128384058D01*
X118926355Y-128388235D01*
X118924068Y-128393744D01*
X118906688Y-128419754D01*
X118987000Y-128016000D01*
X118987000Y-124279653D01*
X119132690Y-124340000D01*
X119348250Y-124340000D01*
X119507000Y-124181250D01*
X119507000Y-123432000D01*
X119761000Y-123432000D01*
X119761000Y-124181250D01*
X119919750Y-124340000D01*
X120135310Y-124340000D01*
X120269000Y-124284624D01*
X120402690Y-124340000D01*
X120618250Y-124340000D01*
X120777000Y-124181250D01*
X120777000Y-123432000D01*
X121031000Y-123432000D01*
X121031000Y-124181250D01*
X121189750Y-124340000D01*
X121405310Y-124340000D01*
X121638699Y-124243327D01*
X121817327Y-124064698D01*
X121914000Y-123831309D01*
X121914000Y-123590750D01*
X121755250Y-123432000D01*
X121031000Y-123432000D01*
X120777000Y-123432000D01*
X119761000Y-123432000D01*
X119507000Y-123432000D01*
X119487000Y-123432000D01*
X119487000Y-123178000D01*
X119507000Y-123178000D01*
X119507000Y-123158000D01*
X119761000Y-123158000D01*
X119761000Y-123178000D01*
X120777000Y-123178000D01*
X120777000Y-123158000D01*
X121031000Y-123158000D01*
X121031000Y-123178000D01*
X121755250Y-123178000D01*
X121914000Y-123019250D01*
X121914000Y-122778691D01*
X121817327Y-122545302D01*
X121815957Y-122543932D01*
X121875431Y-122456890D01*
X121926440Y-122205000D01*
X121926440Y-121493291D01*
X122053690Y-121546000D01*
X122269250Y-121546000D01*
X122428000Y-121387250D01*
X122428000Y-120638000D01*
X122682000Y-120638000D01*
X122682000Y-121387250D01*
X122840750Y-121546000D01*
X123056310Y-121546000D01*
X123190000Y-121490624D01*
X123323690Y-121546000D01*
X123539250Y-121546000D01*
X123698000Y-121387250D01*
X123698000Y-120638000D01*
X123952000Y-120638000D01*
X123952000Y-121387250D01*
X124110750Y-121546000D01*
X124326310Y-121546000D01*
X124559699Y-121449327D01*
X124738327Y-121270698D01*
X124835000Y-121037309D01*
X124835000Y-120796750D01*
X124676250Y-120638000D01*
X123952000Y-120638000D01*
X123698000Y-120638000D01*
X122682000Y-120638000D01*
X122428000Y-120638000D01*
X122408000Y-120638000D01*
X122408000Y-120384000D01*
X122428000Y-120384000D01*
X122428000Y-120364000D01*
X122682000Y-120364000D01*
X122682000Y-120384000D01*
X123698000Y-120384000D01*
X123698000Y-120364000D01*
X123952000Y-120364000D01*
X123952000Y-120384000D01*
X124676250Y-120384000D01*
X124835000Y-120225250D01*
X124835000Y-119984691D01*
X124738327Y-119751302D01*
X124736957Y-119749932D01*
X124796431Y-119662890D01*
X124847440Y-119411000D01*
X124847440Y-118611000D01*
X124803162Y-118375683D01*
X124664090Y-118159559D01*
X124451890Y-118014569D01*
X124200000Y-117963560D01*
X124034796Y-117963560D01*
X123848566Y-117777330D01*
X123834573Y-117706983D01*
X123534343Y-117257657D01*
X123085017Y-116957427D01*
X122555000Y-116852000D01*
X118999000Y-116852000D01*
X118468983Y-116957427D01*
X118171940Y-117155905D01*
X118019657Y-117257657D01*
X116622657Y-118654657D01*
X116322427Y-119103983D01*
X116217000Y-119634000D01*
X116217000Y-127442314D01*
X111844748Y-131814566D01*
X112053994Y-131501407D01*
X112141000Y-131064000D01*
X112141000Y-116744750D01*
X126545000Y-116744750D01*
X126545000Y-117700310D01*
X126641673Y-117933699D01*
X126820302Y-118112327D01*
X126993000Y-118183861D01*
X126993000Y-118205250D01*
X127151750Y-118364000D01*
X127901000Y-118364000D01*
X127901000Y-118102250D01*
X127953000Y-118050250D01*
X127953000Y-116586000D01*
X126703750Y-116586000D01*
X126545000Y-116744750D01*
X112141000Y-116744750D01*
X112141000Y-116586000D01*
X112053994Y-116148593D01*
X111806223Y-115777777D01*
X111246136Y-115217690D01*
X126545000Y-115217690D01*
X126545000Y-116173250D01*
X126703750Y-116332000D01*
X127953000Y-116332000D01*
X127953000Y-116312000D01*
X128207000Y-116312000D01*
X128207000Y-116332000D01*
X128227000Y-116332000D01*
X128227000Y-116586000D01*
X128207000Y-116586000D01*
X128207000Y-117587750D01*
X128155000Y-117639750D01*
X128155000Y-118364000D01*
X128175000Y-118364000D01*
X128175000Y-118531560D01*
X127917000Y-118531560D01*
X127681683Y-118575838D01*
X127616161Y-118618000D01*
X127151750Y-118618000D01*
X126993000Y-118776750D01*
X126993000Y-118992310D01*
X127089673Y-119225699D01*
X127268302Y-119404327D01*
X127269560Y-119404848D01*
X127269560Y-120979000D01*
X127313838Y-121214317D01*
X127452910Y-121430441D01*
X127610973Y-121538441D01*
X127557301Y-121560673D01*
X127378673Y-121739302D01*
X127282000Y-121972691D01*
X127282000Y-122713250D01*
X127440750Y-122872000D01*
X128905000Y-122872000D01*
X128905000Y-122852000D01*
X129159000Y-122852000D01*
X129159000Y-122872000D01*
X130623250Y-122872000D01*
X130782000Y-122713250D01*
X130782000Y-122039631D01*
X130816690Y-122054000D01*
X131032250Y-122054000D01*
X131191000Y-121895250D01*
X131191000Y-121146000D01*
X131445000Y-121146000D01*
X131445000Y-121895250D01*
X131603750Y-122054000D01*
X131819310Y-122054000D01*
X132052699Y-121957327D01*
X132080000Y-121930026D01*
X132107301Y-121957327D01*
X132340690Y-122054000D01*
X132556250Y-122054000D01*
X132715000Y-121895250D01*
X132715000Y-121146000D01*
X131445000Y-121146000D01*
X131191000Y-121146000D01*
X131171000Y-121146000D01*
X131171000Y-120892000D01*
X131191000Y-120892000D01*
X131191000Y-120872000D01*
X131445000Y-120872000D01*
X131445000Y-120892000D01*
X132715000Y-120892000D01*
X132715000Y-120872000D01*
X132969000Y-120872000D01*
X132969000Y-120892000D01*
X132989000Y-120892000D01*
X132989000Y-121146000D01*
X132969000Y-121146000D01*
X132969000Y-121895250D01*
X133127750Y-122054000D01*
X133343310Y-122054000D01*
X133378000Y-122039631D01*
X133378000Y-122713250D01*
X133536750Y-122872000D01*
X135001000Y-122872000D01*
X135001000Y-122852000D01*
X135255000Y-122852000D01*
X135255000Y-122872000D01*
X136719250Y-122872000D01*
X136878000Y-122713250D01*
X136878000Y-121972691D01*
X136781327Y-121739302D01*
X136602699Y-121560673D01*
X136547344Y-121537744D01*
X136694441Y-121443090D01*
X136839431Y-121230890D01*
X136890440Y-120979000D01*
X136890440Y-119404848D01*
X136891698Y-119404327D01*
X137070327Y-119225699D01*
X137167000Y-118992310D01*
X137167000Y-118776750D01*
X137008250Y-118618000D01*
X136546745Y-118618000D01*
X136494890Y-118582569D01*
X136243000Y-118531560D01*
X135985000Y-118531560D01*
X135985000Y-118364000D01*
X136005000Y-118364000D01*
X136005000Y-117639750D01*
X135953000Y-117587750D01*
X135953000Y-116586000D01*
X136207000Y-116586000D01*
X136207000Y-118050250D01*
X136259000Y-118102250D01*
X136259000Y-118364000D01*
X137008250Y-118364000D01*
X137167000Y-118205250D01*
X137167000Y-118183861D01*
X137339698Y-118112327D01*
X137518327Y-117933699D01*
X137615000Y-117700310D01*
X137615000Y-116744750D01*
X137456250Y-116586000D01*
X136207000Y-116586000D01*
X135953000Y-116586000D01*
X135933000Y-116586000D01*
X135933000Y-116332000D01*
X135953000Y-116332000D01*
X135953000Y-116312000D01*
X136207000Y-116312000D01*
X136207000Y-116332000D01*
X137456250Y-116332000D01*
X137615000Y-116173250D01*
X137615000Y-115288000D01*
X137731002Y-115288000D01*
X137731002Y-115129252D01*
X137889750Y-115288000D01*
X138630309Y-115288000D01*
X138863698Y-115191327D01*
X139042327Y-115012699D01*
X139139000Y-114779310D01*
X139139000Y-113823750D01*
X138980250Y-113665000D01*
X137731000Y-113665000D01*
X137731000Y-113685000D01*
X137477000Y-113685000D01*
X137477000Y-113665000D01*
X137457000Y-113665000D01*
X137457000Y-113411000D01*
X137477000Y-113411000D01*
X137477000Y-111946750D01*
X137731000Y-111946750D01*
X137731000Y-113411000D01*
X138980250Y-113411000D01*
X139139000Y-113252250D01*
X139139000Y-112296690D01*
X139042327Y-112063301D01*
X138863698Y-111884673D01*
X138630309Y-111788000D01*
X137889750Y-111788000D01*
X137731000Y-111946750D01*
X137477000Y-111946750D01*
X137318250Y-111788000D01*
X136577691Y-111788000D01*
X136344302Y-111884673D01*
X136165673Y-112063301D01*
X136142744Y-112118656D01*
X136048090Y-111971559D01*
X135835890Y-111826569D01*
X135584000Y-111775560D01*
X133784000Y-111775560D01*
X133548683Y-111819838D01*
X133332559Y-111958910D01*
X133187569Y-112171110D01*
X133136560Y-112423000D01*
X133136560Y-112431352D01*
X133068756Y-112403197D01*
X132617225Y-112402803D01*
X132199914Y-112575233D01*
X131880355Y-112894235D01*
X131707197Y-113311244D01*
X131706803Y-113762775D01*
X131879233Y-114180086D01*
X132198235Y-114499645D01*
X132615244Y-114672803D01*
X133066775Y-114673197D01*
X133136560Y-114644362D01*
X133136560Y-114653000D01*
X133144756Y-114696560D01*
X132260000Y-114696560D01*
X132073392Y-114731673D01*
X131900000Y-114696560D01*
X130814226Y-114696560D01*
X130845431Y-114650890D01*
X130896440Y-114399000D01*
X130896440Y-112169000D01*
X130852162Y-111933683D01*
X130713090Y-111717559D01*
X130500890Y-111572569D01*
X130249000Y-111521560D01*
X128449000Y-111521560D01*
X128213683Y-111565838D01*
X127997559Y-111704910D01*
X127889559Y-111862973D01*
X127867327Y-111809301D01*
X127688698Y-111630673D01*
X127455309Y-111534000D01*
X126714750Y-111534000D01*
X126556000Y-111692750D01*
X126556000Y-113157000D01*
X126576000Y-113157000D01*
X126576000Y-113411000D01*
X126556000Y-113411000D01*
X126556000Y-114875250D01*
X126653362Y-114972612D01*
X126641673Y-114984301D01*
X126545000Y-115217690D01*
X111246136Y-115217690D01*
X110444026Y-114415580D01*
X110507114Y-114263650D01*
X110529994Y-114229407D01*
X110537958Y-114189369D01*
X110608803Y-114018756D01*
X110608966Y-113832391D01*
X110617000Y-113792000D01*
X110609036Y-113751961D01*
X110609194Y-113569750D01*
X124894000Y-113569750D01*
X124894000Y-114525310D01*
X124990673Y-114758699D01*
X125169302Y-114937327D01*
X125402691Y-115034000D01*
X126143250Y-115034000D01*
X126302000Y-114875250D01*
X126302000Y-113411000D01*
X125052750Y-113411000D01*
X124894000Y-113569750D01*
X110609194Y-113569750D01*
X110609197Y-113567225D01*
X110601000Y-113547387D01*
X110601000Y-113422925D01*
X110605440Y-113401000D01*
X110605440Y-112492775D01*
X122562803Y-112492775D01*
X122735233Y-112910086D01*
X123054235Y-113229645D01*
X123471244Y-113402803D01*
X123922775Y-113403197D01*
X124340086Y-113230767D01*
X124659645Y-112911765D01*
X124832803Y-112494756D01*
X124833197Y-112043225D01*
X124832976Y-112042690D01*
X124894000Y-112042690D01*
X124894000Y-112998250D01*
X125052750Y-113157000D01*
X126302000Y-113157000D01*
X126302000Y-111692750D01*
X126143250Y-111534000D01*
X125402691Y-111534000D01*
X125169302Y-111630673D01*
X124990673Y-111809301D01*
X124894000Y-112042690D01*
X124832976Y-112042690D01*
X124660767Y-111625914D01*
X124341765Y-111306355D01*
X123924756Y-111133197D01*
X123473225Y-111132803D01*
X123055914Y-111305233D01*
X122736355Y-111624235D01*
X122563197Y-112041244D01*
X122562803Y-112492775D01*
X110605440Y-112492775D01*
X110605440Y-112151000D01*
X110561162Y-111915683D01*
X110422090Y-111699559D01*
X110209890Y-111554569D01*
X109958000Y-111503560D01*
X108958000Y-111503560D01*
X108722683Y-111547838D01*
X108506559Y-111686910D01*
X108460031Y-111755006D01*
X108317698Y-111612673D01*
X108084309Y-111516000D01*
X107743750Y-111516000D01*
X107618607Y-111641143D01*
X107585002Y-111560014D01*
X107585002Y-111516000D01*
X107566771Y-111516000D01*
X107550327Y-111476302D01*
X107371699Y-111297673D01*
X107138310Y-111201000D01*
X106457750Y-111201000D01*
X106299000Y-111359750D01*
X106299000Y-112649000D01*
X107488250Y-112649000D01*
X107508250Y-112629000D01*
X107585000Y-112629000D01*
X107585000Y-112649000D01*
X107605000Y-112649000D01*
X107605000Y-112903000D01*
X107585000Y-112903000D01*
X107585000Y-112923000D01*
X107508250Y-112923000D01*
X107488250Y-112903000D01*
X106299000Y-112903000D01*
X106299000Y-112923000D01*
X106045000Y-112923000D01*
X106045000Y-112903000D01*
X104855750Y-112903000D01*
X104835750Y-112923000D01*
X104759000Y-112923000D01*
X104759000Y-112903000D01*
X104739000Y-112903000D01*
X104739000Y-112649000D01*
X104759000Y-112649000D01*
X104759000Y-112629000D01*
X104835750Y-112629000D01*
X104855750Y-112649000D01*
X106045000Y-112649000D01*
X106045000Y-111359750D01*
X105886250Y-111201000D01*
X105205690Y-111201000D01*
X105019854Y-111277976D01*
X104848767Y-110863914D01*
X104529765Y-110544355D01*
X104112756Y-110371197D01*
X103661225Y-110370803D01*
X103243914Y-110543233D01*
X102924355Y-110862235D01*
X102751197Y-111279244D01*
X102751001Y-111503560D01*
X102386000Y-111503560D01*
X102150683Y-111547838D01*
X101934559Y-111686910D01*
X101789569Y-111899110D01*
X101738560Y-112151000D01*
X101738560Y-113401000D01*
X101743000Y-113424597D01*
X101743000Y-113546452D01*
X101735197Y-113565244D01*
X101735034Y-113751609D01*
X101727000Y-113792000D01*
X101734964Y-113832039D01*
X101734803Y-114016775D01*
X101805972Y-114189016D01*
X101814006Y-114229407D01*
X101836686Y-114263350D01*
X101907233Y-114434086D01*
X102038896Y-114565978D01*
X102061777Y-114600223D01*
X102095723Y-114622905D01*
X102226235Y-114753645D01*
X102398350Y-114825114D01*
X102432593Y-114847994D01*
X102472631Y-114855958D01*
X102643244Y-114926803D01*
X102739157Y-114926887D01*
X102674004Y-115024395D01*
X102616000Y-115316000D01*
X102616000Y-117091560D01*
X102386000Y-117091560D01*
X102150683Y-117135838D01*
X101934559Y-117274910D01*
X101789569Y-117487110D01*
X101738560Y-117739000D01*
X101738560Y-118894994D01*
X100761000Y-119872554D01*
X100761000Y-110257185D01*
X119899682Y-110257185D01*
X119913827Y-110328684D01*
X120172855Y-110805540D01*
X120594651Y-111146972D01*
X121115000Y-111301000D01*
X121615000Y-111301000D01*
X121615000Y-110043000D01*
X121869000Y-110043000D01*
X121869000Y-111301000D01*
X122369000Y-111301000D01*
X122889349Y-111146972D01*
X123311145Y-110805540D01*
X123570173Y-110328684D01*
X123584318Y-110257185D01*
X123461656Y-110043000D01*
X121869000Y-110043000D01*
X121615000Y-110043000D01*
X120022344Y-110043000D01*
X119899682Y-110257185D01*
X100761000Y-110257185D01*
X100761000Y-108500183D01*
X101483423Y-108500183D01*
X101582022Y-108766985D01*
X102191562Y-108993421D01*
X102841357Y-108969361D01*
X103329938Y-108766985D01*
X103428537Y-108500183D01*
X106883463Y-108500183D01*
X106982062Y-108766985D01*
X107591602Y-108993421D01*
X108241397Y-108969361D01*
X108729978Y-108766985D01*
X108828577Y-108500183D01*
X113675423Y-108500183D01*
X113774022Y-108766985D01*
X114383562Y-108993421D01*
X115033357Y-108969361D01*
X115521938Y-108766985D01*
X115620537Y-108500183D01*
X119075463Y-108500183D01*
X119174062Y-108766985D01*
X119783602Y-108993421D01*
X120234286Y-108976734D01*
X120172855Y-109026460D01*
X119913827Y-109503316D01*
X119899682Y-109574815D01*
X120022344Y-109789000D01*
X121615000Y-109789000D01*
X121615000Y-108531000D01*
X121869000Y-108531000D01*
X121869000Y-109789000D01*
X123461656Y-109789000D01*
X123584318Y-109574815D01*
X123570173Y-109503316D01*
X123311145Y-109026460D01*
X122889349Y-108685028D01*
X122369000Y-108531000D01*
X121869000Y-108531000D01*
X121615000Y-108531000D01*
X121115000Y-108531000D01*
X120996192Y-108566168D01*
X121020577Y-108500183D01*
X128407423Y-108500183D01*
X128506022Y-108766985D01*
X129115562Y-108993421D01*
X129765357Y-108969361D01*
X130253938Y-108766985D01*
X130352537Y-108500183D01*
X133807463Y-108500183D01*
X133906062Y-108766985D01*
X134515602Y-108993421D01*
X135165397Y-108969361D01*
X135653978Y-108766985D01*
X135752577Y-108500183D01*
X134780020Y-107527625D01*
X133807463Y-108500183D01*
X130352537Y-108500183D01*
X129379980Y-107527625D01*
X128407423Y-108500183D01*
X121020577Y-108500183D01*
X120048020Y-107527625D01*
X119075463Y-108500183D01*
X115620537Y-108500183D01*
X114647980Y-107527625D01*
X113675423Y-108500183D01*
X108828577Y-108500183D01*
X107856020Y-107527625D01*
X106883463Y-108500183D01*
X103428537Y-108500183D01*
X102455980Y-107527625D01*
X101483423Y-108500183D01*
X100761000Y-108500183D01*
X100761000Y-107083602D01*
X100810579Y-107083602D01*
X100834639Y-107733397D01*
X101037015Y-108221978D01*
X101303817Y-108320577D01*
X102276375Y-107348020D01*
X102635585Y-107348020D01*
X103608143Y-108320577D01*
X103874945Y-108221978D01*
X104101381Y-107612438D01*
X104081800Y-107083602D01*
X106210619Y-107083602D01*
X106234679Y-107733397D01*
X106437055Y-108221978D01*
X106703857Y-108320577D01*
X107676415Y-107348020D01*
X108035625Y-107348020D01*
X109008183Y-108320577D01*
X109274985Y-108221978D01*
X109501421Y-107612438D01*
X109481840Y-107083602D01*
X113002579Y-107083602D01*
X113026639Y-107733397D01*
X113229015Y-108221978D01*
X113495817Y-108320577D01*
X114468375Y-107348020D01*
X114827585Y-107348020D01*
X115800143Y-108320577D01*
X116066945Y-108221978D01*
X116293381Y-107612438D01*
X116273800Y-107083602D01*
X118402619Y-107083602D01*
X118426679Y-107733397D01*
X118629055Y-108221978D01*
X118895857Y-108320577D01*
X119868415Y-107348020D01*
X120227625Y-107348020D01*
X121200183Y-108320577D01*
X121466985Y-108221978D01*
X121693421Y-107612438D01*
X121673840Y-107083602D01*
X127734579Y-107083602D01*
X127758639Y-107733397D01*
X127961015Y-108221978D01*
X128227817Y-108320577D01*
X129200375Y-107348020D01*
X129559585Y-107348020D01*
X130532143Y-108320577D01*
X130798945Y-108221978D01*
X131025381Y-107612438D01*
X131005800Y-107083602D01*
X133134619Y-107083602D01*
X133158679Y-107733397D01*
X133361055Y-108221978D01*
X133627857Y-108320577D01*
X134600415Y-107348020D01*
X133627857Y-106375463D01*
X133361055Y-106474062D01*
X133134619Y-107083602D01*
X131005800Y-107083602D01*
X131001321Y-106962643D01*
X130798945Y-106474062D01*
X130532143Y-106375463D01*
X129559585Y-107348020D01*
X129200375Y-107348020D01*
X128227817Y-106375463D01*
X127961015Y-106474062D01*
X127734579Y-107083602D01*
X121673840Y-107083602D01*
X121669361Y-106962643D01*
X121466985Y-106474062D01*
X121200183Y-106375463D01*
X120227625Y-107348020D01*
X119868415Y-107348020D01*
X118895857Y-106375463D01*
X118629055Y-106474062D01*
X118402619Y-107083602D01*
X116273800Y-107083602D01*
X116269321Y-106962643D01*
X116066945Y-106474062D01*
X115800143Y-106375463D01*
X114827585Y-107348020D01*
X114468375Y-107348020D01*
X113495817Y-106375463D01*
X113229015Y-106474062D01*
X113002579Y-107083602D01*
X109481840Y-107083602D01*
X109477361Y-106962643D01*
X109274985Y-106474062D01*
X109008183Y-106375463D01*
X108035625Y-107348020D01*
X107676415Y-107348020D01*
X106703857Y-106375463D01*
X106437055Y-106474062D01*
X106210619Y-107083602D01*
X104081800Y-107083602D01*
X104077321Y-106962643D01*
X103874945Y-106474062D01*
X103608143Y-106375463D01*
X102635585Y-107348020D01*
X102276375Y-107348020D01*
X101303817Y-106375463D01*
X101037015Y-106474062D01*
X100810579Y-107083602D01*
X100761000Y-107083602D01*
X100761000Y-106195857D01*
X101483423Y-106195857D01*
X102455980Y-107168415D01*
X103428537Y-106195857D01*
X103329938Y-105929055D01*
X102720398Y-105702619D01*
X102070603Y-105726679D01*
X101582022Y-105929055D01*
X101483423Y-106195857D01*
X100761000Y-106195857D01*
X100761000Y-104971694D01*
X103521226Y-104971694D01*
X103769538Y-105572655D01*
X104228927Y-106032846D01*
X104829453Y-106282206D01*
X105479694Y-106282774D01*
X105690049Y-106195857D01*
X106883463Y-106195857D01*
X107856020Y-107168415D01*
X108828577Y-106195857D01*
X113675423Y-106195857D01*
X114647980Y-107168415D01*
X115620537Y-106195857D01*
X115521938Y-105929055D01*
X114912398Y-105702619D01*
X114262603Y-105726679D01*
X113774022Y-105929055D01*
X113675423Y-106195857D01*
X108828577Y-106195857D01*
X108729978Y-105929055D01*
X108120438Y-105702619D01*
X107470643Y-105726679D01*
X106982062Y-105929055D01*
X106883463Y-106195857D01*
X105690049Y-106195857D01*
X106080655Y-106034462D01*
X106540846Y-105575073D01*
X106790206Y-104974547D01*
X106790208Y-104971694D01*
X115713226Y-104971694D01*
X115961538Y-105572655D01*
X116420927Y-106032846D01*
X117021453Y-106282206D01*
X117671694Y-106282774D01*
X117882049Y-106195857D01*
X119075463Y-106195857D01*
X120048020Y-107168415D01*
X121020577Y-106195857D01*
X128407423Y-106195857D01*
X129379980Y-107168415D01*
X130352537Y-106195857D01*
X130253938Y-105929055D01*
X129644398Y-105702619D01*
X128994603Y-105726679D01*
X128506022Y-105929055D01*
X128407423Y-106195857D01*
X121020577Y-106195857D01*
X120921978Y-105929055D01*
X120312438Y-105702619D01*
X119662643Y-105726679D01*
X119174062Y-105929055D01*
X119075463Y-106195857D01*
X117882049Y-106195857D01*
X118272655Y-106034462D01*
X118732846Y-105575073D01*
X118982206Y-104974547D01*
X118982208Y-104971694D01*
X130445226Y-104971694D01*
X130693538Y-105572655D01*
X131152927Y-106032846D01*
X131753453Y-106282206D01*
X132403694Y-106282774D01*
X133004655Y-106034462D01*
X133248542Y-105791000D01*
X134239358Y-105791000D01*
X133906062Y-105929055D01*
X133807463Y-106195857D01*
X134780020Y-107168415D01*
X134794162Y-107154272D01*
X134973768Y-107333878D01*
X134959625Y-107348020D01*
X135932183Y-108320577D01*
X136198985Y-108221978D01*
X136403365Y-107671811D01*
X142795086Y-114063532D01*
X142466756Y-113927197D01*
X142015225Y-113926803D01*
X141597914Y-114099233D01*
X141278355Y-114418235D01*
X141105197Y-114835244D01*
X141104803Y-115286775D01*
X141277233Y-115704086D01*
X141596235Y-116023645D01*
X142013244Y-116196803D01*
X142464775Y-116197197D01*
X142882086Y-116024767D01*
X143063000Y-115844168D01*
X143063000Y-117096551D01*
X142907890Y-116990569D01*
X142656000Y-116939560D01*
X141956000Y-116939560D01*
X141720683Y-116983838D01*
X141555731Y-117089982D01*
X141366000Y-117051560D01*
X140066000Y-117051560D01*
X139830683Y-117095838D01*
X139614559Y-117234910D01*
X139469569Y-117447110D01*
X139418560Y-117699000D01*
X139418560Y-118399000D01*
X139462838Y-118634317D01*
X139601910Y-118850441D01*
X139814110Y-118995431D01*
X139847490Y-119002191D01*
X139706301Y-119060673D01*
X139527673Y-119239302D01*
X139431000Y-119472691D01*
X139431000Y-119663250D01*
X139589750Y-119822000D01*
X140589000Y-119822000D01*
X140589000Y-119802000D01*
X140843000Y-119802000D01*
X140843000Y-119822000D01*
X140863000Y-119822000D01*
X140863000Y-119895906D01*
X140745225Y-119895803D01*
X140327914Y-120068233D01*
X140320133Y-120076000D01*
X139589750Y-120076000D01*
X139431000Y-120234750D01*
X139431000Y-120425309D01*
X139527673Y-120658698D01*
X139706301Y-120837327D01*
X139835122Y-120890686D01*
X139834803Y-121255775D01*
X140007233Y-121673086D01*
X140135646Y-121801723D01*
X140148671Y-121867206D01*
X140250564Y-122019699D01*
X140341382Y-122155618D01*
X140950560Y-122764796D01*
X140950560Y-122930000D01*
X140994838Y-123165317D01*
X141133910Y-123381441D01*
X141346110Y-123526431D01*
X141598000Y-123577440D01*
X142398000Y-123577440D01*
X142633317Y-123533162D01*
X142736646Y-123466671D01*
X142738302Y-123468327D01*
X142971691Y-123565000D01*
X143212250Y-123565000D01*
X143371000Y-123406250D01*
X143371000Y-122682000D01*
X143625000Y-122682000D01*
X143625000Y-123406250D01*
X143783750Y-123565000D01*
X144024309Y-123565000D01*
X144257698Y-123468327D01*
X144436327Y-123289699D01*
X144533000Y-123056310D01*
X144533000Y-122840750D01*
X144374250Y-122682000D01*
X143625000Y-122682000D01*
X143371000Y-122682000D01*
X143351000Y-122682000D01*
X143351000Y-122428000D01*
X143371000Y-122428000D01*
X143371000Y-121412000D01*
X143625000Y-121412000D01*
X143625000Y-122428000D01*
X144374250Y-122428000D01*
X144533000Y-122269250D01*
X144533000Y-122053690D01*
X144477624Y-121920000D01*
X144533000Y-121786310D01*
X144533000Y-121570750D01*
X144374250Y-121412000D01*
X143625000Y-121412000D01*
X143371000Y-121412000D01*
X143351000Y-121412000D01*
X143351000Y-121158000D01*
X143371000Y-121158000D01*
X143371000Y-121138000D01*
X143625000Y-121138000D01*
X143625000Y-121158000D01*
X144374250Y-121158000D01*
X144533000Y-120999250D01*
X144533000Y-120796750D01*
X145040000Y-120796750D01*
X145040000Y-121037309D01*
X145136673Y-121270698D01*
X145315301Y-121449327D01*
X145548690Y-121546000D01*
X145764250Y-121546000D01*
X145923000Y-121387250D01*
X145923000Y-120638000D01*
X146177000Y-120638000D01*
X146177000Y-121387250D01*
X146335750Y-121546000D01*
X146551310Y-121546000D01*
X146784699Y-121449327D01*
X146812000Y-121422026D01*
X146839301Y-121449327D01*
X147072690Y-121546000D01*
X147288250Y-121546000D01*
X147447000Y-121387250D01*
X147447000Y-120638000D01*
X147701000Y-120638000D01*
X147701000Y-121387250D01*
X147859750Y-121546000D01*
X148075310Y-121546000D01*
X148308699Y-121449327D01*
X148487327Y-121270698D01*
X148584000Y-121037309D01*
X148584000Y-120796750D01*
X148425250Y-120638000D01*
X147701000Y-120638000D01*
X147447000Y-120638000D01*
X146177000Y-120638000D01*
X145923000Y-120638000D01*
X145198750Y-120638000D01*
X145040000Y-120796750D01*
X144533000Y-120796750D01*
X144533000Y-120783690D01*
X144528625Y-120773128D01*
X144585333Y-120749696D01*
X144641317Y-120739162D01*
X144857441Y-120600090D01*
X145002431Y-120387890D01*
X145028874Y-120257309D01*
X145041545Y-120226795D01*
X145198750Y-120384000D01*
X145923000Y-120384000D01*
X145923000Y-120364000D01*
X146177000Y-120364000D01*
X146177000Y-120384000D01*
X147447000Y-120384000D01*
X147447000Y-120364000D01*
X147701000Y-120364000D01*
X147701000Y-120384000D01*
X148425250Y-120384000D01*
X148584000Y-120225250D01*
X148584000Y-119984691D01*
X148487327Y-119751302D01*
X148485957Y-119749932D01*
X148545431Y-119662890D01*
X148596440Y-119411000D01*
X148596440Y-118611000D01*
X148552162Y-118375683D01*
X148413090Y-118159559D01*
X148200890Y-118014569D01*
X147949000Y-117963560D01*
X147557236Y-117963560D01*
X147424286Y-117830378D01*
X147027668Y-117665687D01*
X146598216Y-117665313D01*
X146201311Y-117829311D01*
X146066827Y-117963560D01*
X145675000Y-117963560D01*
X145439683Y-118007838D01*
X145349000Y-118066191D01*
X145349000Y-113858000D01*
X145261994Y-113420593D01*
X145014223Y-113049777D01*
X143244610Y-111280164D01*
X143315000Y-111301000D01*
X143815000Y-111301000D01*
X143815000Y-110043000D01*
X144069000Y-110043000D01*
X144069000Y-111301000D01*
X144569000Y-111301000D01*
X145089349Y-111146972D01*
X145511145Y-110805540D01*
X145770173Y-110328684D01*
X145784318Y-110257185D01*
X145661656Y-110043000D01*
X144069000Y-110043000D01*
X143815000Y-110043000D01*
X142222344Y-110043000D01*
X142144089Y-110179643D01*
X141539261Y-109574815D01*
X142099682Y-109574815D01*
X142222344Y-109789000D01*
X143815000Y-109789000D01*
X143815000Y-108531000D01*
X144069000Y-108531000D01*
X144069000Y-109789000D01*
X145661656Y-109789000D01*
X145784318Y-109574815D01*
X145770173Y-109503316D01*
X145511145Y-109026460D01*
X145089349Y-108685028D01*
X144569000Y-108531000D01*
X144069000Y-108531000D01*
X143815000Y-108531000D01*
X143315000Y-108531000D01*
X142794651Y-108685028D01*
X142372855Y-109026460D01*
X142113827Y-109503316D01*
X142099682Y-109574815D01*
X141539261Y-109574815D01*
X140751178Y-108786732D01*
X141307562Y-108993421D01*
X141957357Y-108969361D01*
X142445938Y-108766985D01*
X142544537Y-108500183D01*
X145999463Y-108500183D01*
X146098062Y-108766985D01*
X146707602Y-108993421D01*
X147357397Y-108969361D01*
X147845978Y-108766985D01*
X147944577Y-108500183D01*
X146972020Y-107527625D01*
X145999463Y-108500183D01*
X142544537Y-108500183D01*
X141571980Y-107527625D01*
X141557838Y-107541768D01*
X141378232Y-107362162D01*
X141392375Y-107348020D01*
X141751585Y-107348020D01*
X142724143Y-108320577D01*
X142990945Y-108221978D01*
X143217381Y-107612438D01*
X143197800Y-107083602D01*
X145326619Y-107083602D01*
X145350679Y-107733397D01*
X145553055Y-108221978D01*
X145819857Y-108320577D01*
X146792415Y-107348020D01*
X147151625Y-107348020D01*
X148124183Y-108320577D01*
X148390985Y-108221978D01*
X148617421Y-107612438D01*
X148593361Y-106962643D01*
X148390985Y-106474062D01*
X148124183Y-106375463D01*
X147151625Y-107348020D01*
X146792415Y-107348020D01*
X145819857Y-106375463D01*
X145553055Y-106474062D01*
X145326619Y-107083602D01*
X143197800Y-107083602D01*
X143193321Y-106962643D01*
X142990945Y-106474062D01*
X142724143Y-106375463D01*
X141751585Y-107348020D01*
X141392375Y-107348020D01*
X140419817Y-106375463D01*
X140153015Y-106474062D01*
X139926579Y-107083602D01*
X139950639Y-107733397D01*
X140129391Y-108164945D01*
X138160303Y-106195857D01*
X140599423Y-106195857D01*
X141571980Y-107168415D01*
X142544537Y-106195857D01*
X142445938Y-105929055D01*
X141836398Y-105702619D01*
X141186603Y-105726679D01*
X140698022Y-105929055D01*
X140599423Y-106195857D01*
X138160303Y-106195857D01*
X136936140Y-104971694D01*
X142637226Y-104971694D01*
X142885538Y-105572655D01*
X143344927Y-106032846D01*
X143945453Y-106282206D01*
X144595694Y-106282774D01*
X144806049Y-106195857D01*
X145999463Y-106195857D01*
X146972020Y-107168415D01*
X147944577Y-106195857D01*
X147845978Y-105929055D01*
X147236438Y-105702619D01*
X146586643Y-105726679D01*
X146098062Y-105929055D01*
X145999463Y-106195857D01*
X144806049Y-106195857D01*
X145196655Y-106034462D01*
X145656846Y-105575073D01*
X145906206Y-104974547D01*
X145906774Y-104324306D01*
X145658462Y-103723345D01*
X145199073Y-103263154D01*
X144806499Y-103100143D01*
X145999463Y-103100143D01*
X146098062Y-103366945D01*
X146707602Y-103593381D01*
X147357397Y-103569321D01*
X147845978Y-103366945D01*
X147944577Y-103100143D01*
X146972020Y-102127585D01*
X145999463Y-103100143D01*
X144806499Y-103100143D01*
X144598547Y-103013794D01*
X143948306Y-103013226D01*
X143347345Y-103261538D01*
X142887154Y-103720927D01*
X142637794Y-104321453D01*
X142637226Y-104971694D01*
X136936140Y-104971694D01*
X135804223Y-103839777D01*
X135433407Y-103592006D01*
X135215347Y-103548631D01*
X135653978Y-103366945D01*
X135752577Y-103100143D01*
X140599423Y-103100143D01*
X140698022Y-103366945D01*
X141307562Y-103593381D01*
X141957357Y-103569321D01*
X142445938Y-103366945D01*
X142544537Y-103100143D01*
X141571980Y-102127585D01*
X140599423Y-103100143D01*
X135752577Y-103100143D01*
X134780020Y-102127585D01*
X133807463Y-103100143D01*
X133906062Y-103366945D01*
X134277690Y-103505000D01*
X133248498Y-103505000D01*
X133007073Y-103263154D01*
X132406547Y-103013794D01*
X131756306Y-103013226D01*
X131155345Y-103261538D01*
X130695154Y-103720927D01*
X130445794Y-104321453D01*
X130445226Y-104971694D01*
X118982208Y-104971694D01*
X118982774Y-104324306D01*
X118734462Y-103723345D01*
X118275073Y-103263154D01*
X117882499Y-103100143D01*
X119075463Y-103100143D01*
X119174062Y-103366945D01*
X119783602Y-103593381D01*
X120433397Y-103569321D01*
X120921978Y-103366945D01*
X121020577Y-103100143D01*
X128407423Y-103100143D01*
X128506022Y-103366945D01*
X129115562Y-103593381D01*
X129765357Y-103569321D01*
X130253938Y-103366945D01*
X130352537Y-103100143D01*
X129379980Y-102127585D01*
X128407423Y-103100143D01*
X121020577Y-103100143D01*
X120048020Y-102127585D01*
X119075463Y-103100143D01*
X117882499Y-103100143D01*
X117674547Y-103013794D01*
X117024306Y-103013226D01*
X116423345Y-103261538D01*
X115963154Y-103720927D01*
X115713794Y-104321453D01*
X115713226Y-104971694D01*
X106790208Y-104971694D01*
X106790774Y-104324306D01*
X106542462Y-103723345D01*
X106083073Y-103263154D01*
X105690499Y-103100143D01*
X106883463Y-103100143D01*
X106982062Y-103366945D01*
X107591602Y-103593381D01*
X108241397Y-103569321D01*
X108729978Y-103366945D01*
X108828577Y-103100143D01*
X113675423Y-103100143D01*
X113774022Y-103366945D01*
X114383562Y-103593381D01*
X115033357Y-103569321D01*
X115521938Y-103366945D01*
X115620537Y-103100143D01*
X114647980Y-102127585D01*
X113675423Y-103100143D01*
X108828577Y-103100143D01*
X107856020Y-102127585D01*
X106883463Y-103100143D01*
X105690499Y-103100143D01*
X105482547Y-103013794D01*
X104832306Y-103013226D01*
X104231345Y-103261538D01*
X103771154Y-103720927D01*
X103521794Y-104321453D01*
X103521226Y-104971694D01*
X100761000Y-104971694D01*
X100761000Y-103100143D01*
X101483423Y-103100143D01*
X101582022Y-103366945D01*
X102191562Y-103593381D01*
X102841357Y-103569321D01*
X103329938Y-103366945D01*
X103428537Y-103100143D01*
X102455980Y-102127585D01*
X101483423Y-103100143D01*
X100761000Y-103100143D01*
X100761000Y-101683562D01*
X100810579Y-101683562D01*
X100834639Y-102333357D01*
X101037015Y-102821938D01*
X101303817Y-102920537D01*
X102276375Y-101947980D01*
X102635585Y-101947980D01*
X103608143Y-102920537D01*
X103874945Y-102821938D01*
X104101381Y-102212398D01*
X104081800Y-101683562D01*
X106210619Y-101683562D01*
X106234679Y-102333357D01*
X106437055Y-102821938D01*
X106703857Y-102920537D01*
X107676415Y-101947980D01*
X108035625Y-101947980D01*
X109008183Y-102920537D01*
X109274985Y-102821938D01*
X109501421Y-102212398D01*
X109481840Y-101683562D01*
X113002579Y-101683562D01*
X113026639Y-102333357D01*
X113229015Y-102821938D01*
X113495817Y-102920537D01*
X114468375Y-101947980D01*
X114827585Y-101947980D01*
X115800143Y-102920537D01*
X116066945Y-102821938D01*
X116293381Y-102212398D01*
X116273800Y-101683562D01*
X118402619Y-101683562D01*
X118426679Y-102333357D01*
X118629055Y-102821938D01*
X118895857Y-102920537D01*
X119868415Y-101947980D01*
X120227625Y-101947980D01*
X121200183Y-102920537D01*
X121466985Y-102821938D01*
X121693421Y-102212398D01*
X121673840Y-101683562D01*
X127734579Y-101683562D01*
X127758639Y-102333357D01*
X127961015Y-102821938D01*
X128227817Y-102920537D01*
X129200375Y-101947980D01*
X129559585Y-101947980D01*
X130532143Y-102920537D01*
X130798945Y-102821938D01*
X131025381Y-102212398D01*
X131005800Y-101683562D01*
X133134619Y-101683562D01*
X133158679Y-102333357D01*
X133361055Y-102821938D01*
X133627857Y-102920537D01*
X134600415Y-101947980D01*
X134959625Y-101947980D01*
X135932183Y-102920537D01*
X136198985Y-102821938D01*
X136425421Y-102212398D01*
X136405840Y-101683562D01*
X139926579Y-101683562D01*
X139950639Y-102333357D01*
X140153015Y-102821938D01*
X140419817Y-102920537D01*
X141392375Y-101947980D01*
X141751585Y-101947980D01*
X142724143Y-102920537D01*
X142990945Y-102821938D01*
X143217381Y-102212398D01*
X143197800Y-101683562D01*
X145326619Y-101683562D01*
X145350679Y-102333357D01*
X145553055Y-102821938D01*
X145819857Y-102920537D01*
X146792415Y-101947980D01*
X147151625Y-101947980D01*
X148124183Y-102920537D01*
X148390985Y-102821938D01*
X148617421Y-102212398D01*
X148593361Y-101562603D01*
X148390985Y-101074022D01*
X148124183Y-100975423D01*
X147151625Y-101947980D01*
X146792415Y-101947980D01*
X145819857Y-100975423D01*
X145553055Y-101074022D01*
X145326619Y-101683562D01*
X143197800Y-101683562D01*
X143193321Y-101562603D01*
X142990945Y-101074022D01*
X142724143Y-100975423D01*
X141751585Y-101947980D01*
X141392375Y-101947980D01*
X140419817Y-100975423D01*
X140153015Y-101074022D01*
X139926579Y-101683562D01*
X136405840Y-101683562D01*
X136401361Y-101562603D01*
X136198985Y-101074022D01*
X135932183Y-100975423D01*
X134959625Y-101947980D01*
X134600415Y-101947980D01*
X133627857Y-100975423D01*
X133361055Y-101074022D01*
X133134619Y-101683562D01*
X131005800Y-101683562D01*
X131001321Y-101562603D01*
X130798945Y-101074022D01*
X130532143Y-100975423D01*
X129559585Y-101947980D01*
X129200375Y-101947980D01*
X128227817Y-100975423D01*
X127961015Y-101074022D01*
X127734579Y-101683562D01*
X121673840Y-101683562D01*
X121669361Y-101562603D01*
X121466985Y-101074022D01*
X121200183Y-100975423D01*
X120227625Y-101947980D01*
X119868415Y-101947980D01*
X118895857Y-100975423D01*
X118629055Y-101074022D01*
X118402619Y-101683562D01*
X116273800Y-101683562D01*
X116269321Y-101562603D01*
X116066945Y-101074022D01*
X115800143Y-100975423D01*
X114827585Y-101947980D01*
X114468375Y-101947980D01*
X113495817Y-100975423D01*
X113229015Y-101074022D01*
X113002579Y-101683562D01*
X109481840Y-101683562D01*
X109477361Y-101562603D01*
X109274985Y-101074022D01*
X109008183Y-100975423D01*
X108035625Y-101947980D01*
X107676415Y-101947980D01*
X106703857Y-100975423D01*
X106437055Y-101074022D01*
X106210619Y-101683562D01*
X104081800Y-101683562D01*
X104077321Y-101562603D01*
X103874945Y-101074022D01*
X103608143Y-100975423D01*
X102635585Y-101947980D01*
X102276375Y-101947980D01*
X101303817Y-100975423D01*
X101037015Y-101074022D01*
X100810579Y-101683562D01*
X100761000Y-101683562D01*
X100761000Y-100761000D01*
X101496290Y-100761000D01*
X101483423Y-100795817D01*
G36*
X104855750Y-118237000D02*
X106045000Y-118237000D01*
X106045000Y-118217000D01*
X106299000Y-118217000D01*
X106299000Y-118237000D01*
X107488250Y-118237000D01*
X107508250Y-118217000D01*
X107585000Y-118217000D01*
X107585000Y-118237000D01*
X107605000Y-118237000D01*
X107605000Y-118491000D01*
X107585000Y-118491000D01*
X107585000Y-118511000D01*
X107508250Y-118511000D01*
X107488250Y-118491000D01*
X106299000Y-118491000D01*
X106299000Y-119780250D01*
X106457750Y-119939000D01*
X107138310Y-119939000D01*
X107371699Y-119842327D01*
X107550327Y-119663698D01*
X107566771Y-119624000D01*
X107585002Y-119624000D01*
X107585002Y-119579986D01*
X107618607Y-119498857D01*
X107743750Y-119624000D01*
X108084309Y-119624000D01*
X108317698Y-119527327D01*
X108338889Y-119506136D01*
X108338803Y-119604775D01*
X108511233Y-120022086D01*
X108830235Y-120341645D01*
X109247244Y-120514803D01*
X109698775Y-120515197D01*
X109855000Y-120450646D01*
X109855000Y-122679560D01*
X108958000Y-122679560D01*
X108722683Y-122723838D01*
X108506559Y-122862910D01*
X108460031Y-122931006D01*
X108317698Y-122788673D01*
X108084309Y-122692000D01*
X107743750Y-122692000D01*
X107618607Y-122817143D01*
X107585002Y-122736014D01*
X107585002Y-122692000D01*
X107566771Y-122692000D01*
X107550327Y-122652302D01*
X107371699Y-122473673D01*
X107138310Y-122377000D01*
X106457750Y-122377000D01*
X106299000Y-122535750D01*
X106299000Y-123825000D01*
X107488250Y-123825000D01*
X107508250Y-123805000D01*
X107585000Y-123805000D01*
X107585000Y-123825000D01*
X107605000Y-123825000D01*
X107605000Y-124079000D01*
X107585000Y-124079000D01*
X107585000Y-124099000D01*
X107508250Y-124099000D01*
X107488250Y-124079000D01*
X106299000Y-124079000D01*
X106299000Y-125368250D01*
X106457750Y-125527000D01*
X107138310Y-125527000D01*
X107371699Y-125430327D01*
X107550327Y-125251698D01*
X107566771Y-125212000D01*
X107585002Y-125212000D01*
X107585002Y-125167986D01*
X107618607Y-125086857D01*
X107743750Y-125212000D01*
X108084309Y-125212000D01*
X108317698Y-125115327D01*
X108342545Y-125090480D01*
X108402006Y-125389407D01*
X108649777Y-125760223D01*
X108665777Y-125776223D01*
X109036593Y-126023994D01*
X109474000Y-126111000D01*
X109855000Y-126035214D01*
X109855000Y-128267560D01*
X108958000Y-128267560D01*
X108722683Y-128311838D01*
X108506559Y-128450910D01*
X108460031Y-128519006D01*
X108317698Y-128376673D01*
X108084309Y-128280000D01*
X107743750Y-128280000D01*
X107618607Y-128405143D01*
X107585002Y-128324014D01*
X107585002Y-128280000D01*
X107566771Y-128280000D01*
X107550327Y-128240302D01*
X107371699Y-128061673D01*
X107138310Y-127965000D01*
X106457750Y-127965000D01*
X106299000Y-128123750D01*
X106299000Y-129413000D01*
X107488250Y-129413000D01*
X107508250Y-129393000D01*
X107585000Y-129393000D01*
X107585000Y-129413000D01*
X107605000Y-129413000D01*
X107605000Y-129667000D01*
X107585000Y-129667000D01*
X107585000Y-129687000D01*
X107508250Y-129687000D01*
X107488250Y-129667000D01*
X106299000Y-129667000D01*
X106299000Y-130956250D01*
X106457750Y-131115000D01*
X107138310Y-131115000D01*
X107371699Y-131018327D01*
X107550327Y-130839698D01*
X107566771Y-130800000D01*
X107585002Y-130800000D01*
X107585002Y-130755986D01*
X107618607Y-130674857D01*
X107743750Y-130800000D01*
X108084309Y-130800000D01*
X108317698Y-130703327D01*
X108338889Y-130682136D01*
X108338803Y-130780775D01*
X108511233Y-131198086D01*
X108830235Y-131517645D01*
X108899251Y-131546303D01*
X107649777Y-132795777D01*
X107402006Y-133166593D01*
X107315000Y-133604000D01*
X107319810Y-133628180D01*
X107138310Y-133553000D01*
X106457750Y-133553000D01*
X106299000Y-133711750D01*
X106299000Y-135001000D01*
X106319000Y-135001000D01*
X106319000Y-135255000D01*
X106299000Y-135255000D01*
X106299000Y-136544250D01*
X106457750Y-136703000D01*
X107044554Y-136703000D01*
X106714554Y-137033000D01*
X103585982Y-137033000D01*
X103831645Y-136787765D01*
X104004803Y-136370756D01*
X104004891Y-136269916D01*
X104026302Y-136291327D01*
X104259691Y-136388000D01*
X104600250Y-136388000D01*
X104725393Y-136262857D01*
X104758998Y-136343986D01*
X104758998Y-136388000D01*
X104777229Y-136388000D01*
X104793673Y-136427698D01*
X104972301Y-136606327D01*
X105205690Y-136703000D01*
X105886250Y-136703000D01*
X106045000Y-136544250D01*
X106045000Y-135255000D01*
X104855750Y-135255000D01*
X104835750Y-135275000D01*
X104759000Y-135275000D01*
X104759000Y-135255000D01*
X104739000Y-135255000D01*
X104739000Y-135001000D01*
X104759000Y-135001000D01*
X104759000Y-134981000D01*
X104835750Y-134981000D01*
X104855750Y-135001000D01*
X106045000Y-135001000D01*
X106045000Y-133711750D01*
X105886250Y-133553000D01*
X105205690Y-133553000D01*
X104972301Y-133649673D01*
X104793673Y-133828302D01*
X104777229Y-133868000D01*
X104758998Y-133868000D01*
X104758998Y-133912014D01*
X104725393Y-133993143D01*
X104600250Y-133868000D01*
X104259691Y-133868000D01*
X104026302Y-133964673D01*
X103885064Y-134105910D01*
X103850090Y-134051559D01*
X103637890Y-133906569D01*
X103386000Y-133855560D01*
X102489000Y-133855560D01*
X102489000Y-132553446D01*
X103678223Y-131364223D01*
X103700905Y-131330277D01*
X103831645Y-131199765D01*
X103903114Y-131027650D01*
X103925994Y-130993407D01*
X103933958Y-130953369D01*
X104004803Y-130782756D01*
X104004891Y-130681916D01*
X104026302Y-130703327D01*
X104259691Y-130800000D01*
X104600250Y-130800000D01*
X104725393Y-130674857D01*
X104758998Y-130755986D01*
X104758998Y-130800000D01*
X104777229Y-130800000D01*
X104793673Y-130839698D01*
X104972301Y-131018327D01*
X105205690Y-131115000D01*
X105886250Y-131115000D01*
X106045000Y-130956250D01*
X106045000Y-129667000D01*
X104855750Y-129667000D01*
X104835750Y-129687000D01*
X104759000Y-129687000D01*
X104759000Y-129667000D01*
X104739000Y-129667000D01*
X104739000Y-129413000D01*
X104759000Y-129413000D01*
X104759000Y-129393000D01*
X104835750Y-129393000D01*
X104855750Y-129413000D01*
X106045000Y-129413000D01*
X106045000Y-128123750D01*
X105886250Y-127965000D01*
X105205690Y-127965000D01*
X104972301Y-128061673D01*
X104793673Y-128240302D01*
X104777229Y-128280000D01*
X104758998Y-128280000D01*
X104758998Y-128324014D01*
X104725393Y-128405143D01*
X104600250Y-128280000D01*
X104259691Y-128280000D01*
X104026302Y-128376673D01*
X103885064Y-128517910D01*
X103850090Y-128463559D01*
X103637890Y-128318569D01*
X103386000Y-128267560D01*
X102489000Y-128267560D01*
X102489000Y-126038755D01*
X102643244Y-126102803D01*
X102829609Y-126102966D01*
X102870000Y-126111000D01*
X102910039Y-126103036D01*
X103094775Y-126103197D01*
X103267016Y-126032028D01*
X103307407Y-126023994D01*
X103341350Y-126001314D01*
X103512086Y-125930767D01*
X103643978Y-125799104D01*
X103678223Y-125776223D01*
X103694223Y-125760223D01*
X103716849Y-125726361D01*
X103831645Y-125611765D01*
X103894398Y-125460639D01*
X103941994Y-125389407D01*
X103958561Y-125306118D01*
X104004803Y-125194756D01*
X104004891Y-125093916D01*
X104026302Y-125115327D01*
X104259691Y-125212000D01*
X104600250Y-125212000D01*
X104725393Y-125086857D01*
X104758998Y-125167986D01*
X104758998Y-125212000D01*
X104777229Y-125212000D01*
X104793673Y-125251698D01*
X104972301Y-125430327D01*
X105205690Y-125527000D01*
X105886250Y-125527000D01*
X106045000Y-125368250D01*
X106045000Y-124079000D01*
X104855750Y-124079000D01*
X104835750Y-124099000D01*
X104759000Y-124099000D01*
X104759000Y-124079000D01*
X104739000Y-124079000D01*
X104739000Y-123825000D01*
X104759000Y-123825000D01*
X104759000Y-123805000D01*
X104835750Y-123805000D01*
X104855750Y-123825000D01*
X106045000Y-123825000D01*
X106045000Y-122535750D01*
X105886250Y-122377000D01*
X105205690Y-122377000D01*
X104972301Y-122473673D01*
X104965676Y-122480298D01*
X104965687Y-122468216D01*
X104801689Y-122071311D01*
X104648000Y-121917354D01*
X104648000Y-119576250D01*
X104725393Y-119498857D01*
X104758998Y-119579986D01*
X104758998Y-119624000D01*
X104777229Y-119624000D01*
X104793673Y-119663698D01*
X104972301Y-119842327D01*
X105205690Y-119939000D01*
X105886250Y-119939000D01*
X106045000Y-119780250D01*
X106045000Y-118491000D01*
X104855750Y-118491000D01*
X104835750Y-118511000D01*
X104759000Y-118511000D01*
X104759000Y-118491000D01*
X104739000Y-118491000D01*
X104739000Y-118237000D01*
X104759000Y-118237000D01*
X104759000Y-118217000D01*
X104835750Y-118217000D01*
X104855750Y-118237000D01*
X104855750Y-118237000D01*
G37*
X104855750Y-118237000D02*
X106045000Y-118237000D01*
X106045000Y-118217000D01*
X106299000Y-118217000D01*
X106299000Y-118237000D01*
X107488250Y-118237000D01*
X107508250Y-118217000D01*
X107585000Y-118217000D01*
X107585000Y-118237000D01*
X107605000Y-118237000D01*
X107605000Y-118491000D01*
X107585000Y-118491000D01*
X107585000Y-118511000D01*
X107508250Y-118511000D01*
X107488250Y-118491000D01*
X106299000Y-118491000D01*
X106299000Y-119780250D01*
X106457750Y-119939000D01*
X107138310Y-119939000D01*
X107371699Y-119842327D01*
X107550327Y-119663698D01*
X107566771Y-119624000D01*
X107585002Y-119624000D01*
X107585002Y-119579986D01*
X107618607Y-119498857D01*
X107743750Y-119624000D01*
X108084309Y-119624000D01*
X108317698Y-119527327D01*
X108338889Y-119506136D01*
X108338803Y-119604775D01*
X108511233Y-120022086D01*
X108830235Y-120341645D01*
X109247244Y-120514803D01*
X109698775Y-120515197D01*
X109855000Y-120450646D01*
X109855000Y-122679560D01*
X108958000Y-122679560D01*
X108722683Y-122723838D01*
X108506559Y-122862910D01*
X108460031Y-122931006D01*
X108317698Y-122788673D01*
X108084309Y-122692000D01*
X107743750Y-122692000D01*
X107618607Y-122817143D01*
X107585002Y-122736014D01*
X107585002Y-122692000D01*
X107566771Y-122692000D01*
X107550327Y-122652302D01*
X107371699Y-122473673D01*
X107138310Y-122377000D01*
X106457750Y-122377000D01*
X106299000Y-122535750D01*
X106299000Y-123825000D01*
X107488250Y-123825000D01*
X107508250Y-123805000D01*
X107585000Y-123805000D01*
X107585000Y-123825000D01*
X107605000Y-123825000D01*
X107605000Y-124079000D01*
X107585000Y-124079000D01*
X107585000Y-124099000D01*
X107508250Y-124099000D01*
X107488250Y-124079000D01*
X106299000Y-124079000D01*
X106299000Y-125368250D01*
X106457750Y-125527000D01*
X107138310Y-125527000D01*
X107371699Y-125430327D01*
X107550327Y-125251698D01*
X107566771Y-125212000D01*
X107585002Y-125212000D01*
X107585002Y-125167986D01*
X107618607Y-125086857D01*
X107743750Y-125212000D01*
X108084309Y-125212000D01*
X108317698Y-125115327D01*
X108342545Y-125090480D01*
X108402006Y-125389407D01*
X108649777Y-125760223D01*
X108665777Y-125776223D01*
X109036593Y-126023994D01*
X109474000Y-126111000D01*
X109855000Y-126035214D01*
X109855000Y-128267560D01*
X108958000Y-128267560D01*
X108722683Y-128311838D01*
X108506559Y-128450910D01*
X108460031Y-128519006D01*
X108317698Y-128376673D01*
X108084309Y-128280000D01*
X107743750Y-128280000D01*
X107618607Y-128405143D01*
X107585002Y-128324014D01*
X107585002Y-128280000D01*
X107566771Y-128280000D01*
X107550327Y-128240302D01*
X107371699Y-128061673D01*
X107138310Y-127965000D01*
X106457750Y-127965000D01*
X106299000Y-128123750D01*
X106299000Y-129413000D01*
X107488250Y-129413000D01*
X107508250Y-129393000D01*
X107585000Y-129393000D01*
X107585000Y-129413000D01*
X107605000Y-129413000D01*
X107605000Y-129667000D01*
X107585000Y-129667000D01*
X107585000Y-129687000D01*
X107508250Y-129687000D01*
X107488250Y-129667000D01*
X106299000Y-129667000D01*
X106299000Y-130956250D01*
X106457750Y-131115000D01*
X107138310Y-131115000D01*
X107371699Y-131018327D01*
X107550327Y-130839698D01*
X107566771Y-130800000D01*
X107585002Y-130800000D01*
X107585002Y-130755986D01*
X107618607Y-130674857D01*
X107743750Y-130800000D01*
X108084309Y-130800000D01*
X108317698Y-130703327D01*
X108338889Y-130682136D01*
X108338803Y-130780775D01*
X108511233Y-131198086D01*
X108830235Y-131517645D01*
X108899251Y-131546303D01*
X107649777Y-132795777D01*
X107402006Y-133166593D01*
X107315000Y-133604000D01*
X107319810Y-133628180D01*
X107138310Y-133553000D01*
X106457750Y-133553000D01*
X106299000Y-133711750D01*
X106299000Y-135001000D01*
X106319000Y-135001000D01*
X106319000Y-135255000D01*
X106299000Y-135255000D01*
X106299000Y-136544250D01*
X106457750Y-136703000D01*
X107044554Y-136703000D01*
X106714554Y-137033000D01*
X103585982Y-137033000D01*
X103831645Y-136787765D01*
X104004803Y-136370756D01*
X104004891Y-136269916D01*
X104026302Y-136291327D01*
X104259691Y-136388000D01*
X104600250Y-136388000D01*
X104725393Y-136262857D01*
X104758998Y-136343986D01*
X104758998Y-136388000D01*
X104777229Y-136388000D01*
X104793673Y-136427698D01*
X104972301Y-136606327D01*
X105205690Y-136703000D01*
X105886250Y-136703000D01*
X106045000Y-136544250D01*
X106045000Y-135255000D01*
X104855750Y-135255000D01*
X104835750Y-135275000D01*
X104759000Y-135275000D01*
X104759000Y-135255000D01*
X104739000Y-135255000D01*
X104739000Y-135001000D01*
X104759000Y-135001000D01*
X104759000Y-134981000D01*
X104835750Y-134981000D01*
X104855750Y-135001000D01*
X106045000Y-135001000D01*
X106045000Y-133711750D01*
X105886250Y-133553000D01*
X105205690Y-133553000D01*
X104972301Y-133649673D01*
X104793673Y-133828302D01*
X104777229Y-133868000D01*
X104758998Y-133868000D01*
X104758998Y-133912014D01*
X104725393Y-133993143D01*
X104600250Y-133868000D01*
X104259691Y-133868000D01*
X104026302Y-133964673D01*
X103885064Y-134105910D01*
X103850090Y-134051559D01*
X103637890Y-133906569D01*
X103386000Y-133855560D01*
X102489000Y-133855560D01*
X102489000Y-132553446D01*
X103678223Y-131364223D01*
X103700905Y-131330277D01*
X103831645Y-131199765D01*
X103903114Y-131027650D01*
X103925994Y-130993407D01*
X103933958Y-130953369D01*
X104004803Y-130782756D01*
X104004891Y-130681916D01*
X104026302Y-130703327D01*
X104259691Y-130800000D01*
X104600250Y-130800000D01*
X104725393Y-130674857D01*
X104758998Y-130755986D01*
X104758998Y-130800000D01*
X104777229Y-130800000D01*
X104793673Y-130839698D01*
X104972301Y-131018327D01*
X105205690Y-131115000D01*
X105886250Y-131115000D01*
X106045000Y-130956250D01*
X106045000Y-129667000D01*
X104855750Y-129667000D01*
X104835750Y-129687000D01*
X104759000Y-129687000D01*
X104759000Y-129667000D01*
X104739000Y-129667000D01*
X104739000Y-129413000D01*
X104759000Y-129413000D01*
X104759000Y-129393000D01*
X104835750Y-129393000D01*
X104855750Y-129413000D01*
X106045000Y-129413000D01*
X106045000Y-128123750D01*
X105886250Y-127965000D01*
X105205690Y-127965000D01*
X104972301Y-128061673D01*
X104793673Y-128240302D01*
X104777229Y-128280000D01*
X104758998Y-128280000D01*
X104758998Y-128324014D01*
X104725393Y-128405143D01*
X104600250Y-128280000D01*
X104259691Y-128280000D01*
X104026302Y-128376673D01*
X103885064Y-128517910D01*
X103850090Y-128463559D01*
X103637890Y-128318569D01*
X103386000Y-128267560D01*
X102489000Y-128267560D01*
X102489000Y-126038755D01*
X102643244Y-126102803D01*
X102829609Y-126102966D01*
X102870000Y-126111000D01*
X102910039Y-126103036D01*
X103094775Y-126103197D01*
X103267016Y-126032028D01*
X103307407Y-126023994D01*
X103341350Y-126001314D01*
X103512086Y-125930767D01*
X103643978Y-125799104D01*
X103678223Y-125776223D01*
X103694223Y-125760223D01*
X103716849Y-125726361D01*
X103831645Y-125611765D01*
X103894398Y-125460639D01*
X103941994Y-125389407D01*
X103958561Y-125306118D01*
X104004803Y-125194756D01*
X104004891Y-125093916D01*
X104026302Y-125115327D01*
X104259691Y-125212000D01*
X104600250Y-125212000D01*
X104725393Y-125086857D01*
X104758998Y-125167986D01*
X104758998Y-125212000D01*
X104777229Y-125212000D01*
X104793673Y-125251698D01*
X104972301Y-125430327D01*
X105205690Y-125527000D01*
X105886250Y-125527000D01*
X106045000Y-125368250D01*
X106045000Y-124079000D01*
X104855750Y-124079000D01*
X104835750Y-124099000D01*
X104759000Y-124099000D01*
X104759000Y-124079000D01*
X104739000Y-124079000D01*
X104739000Y-123825000D01*
X104759000Y-123825000D01*
X104759000Y-123805000D01*
X104835750Y-123805000D01*
X104855750Y-123825000D01*
X106045000Y-123825000D01*
X106045000Y-122535750D01*
X105886250Y-122377000D01*
X105205690Y-122377000D01*
X104972301Y-122473673D01*
X104965676Y-122480298D01*
X104965687Y-122468216D01*
X104801689Y-122071311D01*
X104648000Y-121917354D01*
X104648000Y-119576250D01*
X104725393Y-119498857D01*
X104758998Y-119579986D01*
X104758998Y-119624000D01*
X104777229Y-119624000D01*
X104793673Y-119663698D01*
X104972301Y-119842327D01*
X105205690Y-119939000D01*
X105886250Y-119939000D01*
X106045000Y-119780250D01*
X106045000Y-118491000D01*
X104855750Y-118491000D01*
X104835750Y-118511000D01*
X104759000Y-118511000D01*
X104759000Y-118491000D01*
X104739000Y-118491000D01*
X104739000Y-118237000D01*
X104759000Y-118237000D01*
X104759000Y-118217000D01*
X104835750Y-118217000D01*
X104855750Y-118237000D01*
G36*
X103124000Y-121917358D02*
X102971378Y-122069714D01*
X102806687Y-122466332D01*
X102806501Y-122679560D01*
X102489000Y-122679560D01*
X102489000Y-121377446D01*
X103124000Y-120742446D01*
X103124000Y-121917358D01*
X103124000Y-121917358D01*
G37*
X103124000Y-121917358D02*
X102971378Y-122069714D01*
X102806687Y-122466332D01*
X102806501Y-122679560D01*
X102489000Y-122679560D01*
X102489000Y-121377446D01*
X103124000Y-120742446D01*
X103124000Y-121917358D01*
G36*
X108331000Y-115201000D02*
X108351000Y-115201000D01*
X108351000Y-115455000D01*
X108331000Y-115455000D01*
X108331000Y-115475000D01*
X108077000Y-115475000D01*
X108077000Y-115455000D01*
X108057000Y-115455000D01*
X108057000Y-115201000D01*
X108077000Y-115201000D01*
X108077000Y-115181000D01*
X108331000Y-115181000D01*
X108331000Y-115201000D01*
X108331000Y-115201000D01*
G37*
X108331000Y-115201000D02*
X108351000Y-115201000D01*
X108351000Y-115455000D01*
X108331000Y-115455000D01*
X108331000Y-115475000D01*
X108077000Y-115475000D01*
X108077000Y-115455000D01*
X108057000Y-115455000D01*
X108057000Y-115201000D01*
X108077000Y-115201000D01*
X108077000Y-115181000D01*
X108331000Y-115181000D01*
X108331000Y-115201000D01*
G36*
X138811000Y-126544606D02*
X138811000Y-134366000D01*
X138821006Y-134415410D01*
X138848197Y-134455803D01*
X140409394Y-136017000D01*
X128016000Y-136017000D01*
X127966590Y-136027006D01*
X127924965Y-136055447D01*
X127897685Y-136097841D01*
X127889000Y-136144000D01*
X127889000Y-140155394D01*
X125931394Y-142113000D01*
X108331000Y-142113000D01*
X108331000Y-141986000D01*
X108320994Y-141936590D01*
X108293803Y-141896197D01*
X107552103Y-141154497D01*
X107708688Y-140982947D01*
X107880958Y-140567026D01*
X107810866Y-140432775D01*
X115577803Y-140432775D01*
X115750233Y-140850086D01*
X116069235Y-141169645D01*
X116486244Y-141342803D01*
X116937775Y-141343197D01*
X117355086Y-141170767D01*
X117674645Y-140851765D01*
X117847803Y-140434756D01*
X117848197Y-139983225D01*
X117675767Y-139565914D01*
X117356765Y-139246355D01*
X116939756Y-139073197D01*
X116488225Y-139072803D01*
X116070914Y-139245233D01*
X115751355Y-139564235D01*
X115578197Y-139981244D01*
X115577803Y-140432775D01*
X107810866Y-140432775D01*
X107759817Y-140335000D01*
X106732606Y-140335000D01*
X106458606Y-140061000D01*
X106553000Y-140061000D01*
X106553000Y-140081000D01*
X107759817Y-140081000D01*
X107880958Y-139848974D01*
X107708688Y-139433053D01*
X107610929Y-139325951D01*
X107742223Y-139238223D01*
X109185446Y-137795000D01*
X123744018Y-137795000D01*
X123498355Y-138040235D01*
X123325197Y-138457244D01*
X123324803Y-138908775D01*
X123497233Y-139326086D01*
X123816235Y-139645645D01*
X124233244Y-139818803D01*
X124684775Y-139819197D01*
X125102086Y-139646767D01*
X125421645Y-139327765D01*
X125594803Y-138910756D01*
X125595197Y-138459225D01*
X125422767Y-138041914D01*
X125176283Y-137795000D01*
X125984000Y-137795000D01*
X126033410Y-137784994D01*
X126075035Y-137756553D01*
X126102315Y-137714159D01*
X126111000Y-137668000D01*
X126111000Y-126798606D01*
X126959191Y-125950415D01*
X126881197Y-126138244D01*
X126880803Y-126589775D01*
X127053233Y-127007086D01*
X127372235Y-127326645D01*
X127789244Y-127499803D01*
X127921188Y-127499918D01*
X128676865Y-128003703D01*
X129018113Y-128112193D01*
X129271317Y-128068162D01*
X129295695Y-128052475D01*
X129400268Y-128098052D01*
X129657255Y-128100984D01*
X129895135Y-128003703D01*
X130795135Y-127403703D01*
X130899242Y-127277872D01*
X131541185Y-127919815D01*
X131788395Y-128084996D01*
X132080000Y-128143000D01*
X133538000Y-128143000D01*
X133636629Y-128123381D01*
X133634807Y-128129113D01*
X133678838Y-128382317D01*
X133694525Y-128406695D01*
X133648948Y-128511268D01*
X133646016Y-128768255D01*
X133743297Y-129006135D01*
X134343297Y-129906135D01*
X134630110Y-130143431D01*
X134765132Y-130170774D01*
X134927233Y-130563086D01*
X135246235Y-130882645D01*
X135663244Y-131055803D01*
X136114775Y-131056197D01*
X136532086Y-130883767D01*
X136851645Y-130564765D01*
X137024803Y-130147756D01*
X137025197Y-129696225D01*
X136852767Y-129278914D01*
X136844423Y-129270555D01*
X137020703Y-129006135D01*
X137129193Y-128664887D01*
X137085162Y-128411683D01*
X137069475Y-128387305D01*
X137115052Y-128282732D01*
X137117984Y-128025745D01*
X137020703Y-127787865D01*
X136420703Y-126887865D01*
X136133890Y-126650569D01*
X135882000Y-126599560D01*
X135815301Y-126599560D01*
X135897086Y-126565767D01*
X136216645Y-126246765D01*
X136389803Y-125829756D01*
X136390197Y-125378225D01*
X136217767Y-124960914D01*
X136098062Y-124841000D01*
X137107394Y-124841000D01*
X138811000Y-126544606D01*
X138811000Y-126544606D01*
G37*
X138811000Y-126544606D02*
X138811000Y-134366000D01*
X138821006Y-134415410D01*
X138848197Y-134455803D01*
X140409394Y-136017000D01*
X128016000Y-136017000D01*
X127966590Y-136027006D01*
X127924965Y-136055447D01*
X127897685Y-136097841D01*
X127889000Y-136144000D01*
X127889000Y-140155394D01*
X125931394Y-142113000D01*
X108331000Y-142113000D01*
X108331000Y-141986000D01*
X108320994Y-141936590D01*
X108293803Y-141896197D01*
X107552103Y-141154497D01*
X107708688Y-140982947D01*
X107880958Y-140567026D01*
X107810866Y-140432775D01*
X115577803Y-140432775D01*
X115750233Y-140850086D01*
X116069235Y-141169645D01*
X116486244Y-141342803D01*
X116937775Y-141343197D01*
X117355086Y-141170767D01*
X117674645Y-140851765D01*
X117847803Y-140434756D01*
X117848197Y-139983225D01*
X117675767Y-139565914D01*
X117356765Y-139246355D01*
X116939756Y-139073197D01*
X116488225Y-139072803D01*
X116070914Y-139245233D01*
X115751355Y-139564235D01*
X115578197Y-139981244D01*
X115577803Y-140432775D01*
X107810866Y-140432775D01*
X107759817Y-140335000D01*
X106732606Y-140335000D01*
X106458606Y-140061000D01*
X106553000Y-140061000D01*
X106553000Y-140081000D01*
X107759817Y-140081000D01*
X107880958Y-139848974D01*
X107708688Y-139433053D01*
X107610929Y-139325951D01*
X107742223Y-139238223D01*
X109185446Y-137795000D01*
X123744018Y-137795000D01*
X123498355Y-138040235D01*
X123325197Y-138457244D01*
X123324803Y-138908775D01*
X123497233Y-139326086D01*
X123816235Y-139645645D01*
X124233244Y-139818803D01*
X124684775Y-139819197D01*
X125102086Y-139646767D01*
X125421645Y-139327765D01*
X125594803Y-138910756D01*
X125595197Y-138459225D01*
X125422767Y-138041914D01*
X125176283Y-137795000D01*
X125984000Y-137795000D01*
X126033410Y-137784994D01*
X126075035Y-137756553D01*
X126102315Y-137714159D01*
X126111000Y-137668000D01*
X126111000Y-126798606D01*
X126959191Y-125950415D01*
X126881197Y-126138244D01*
X126880803Y-126589775D01*
X127053233Y-127007086D01*
X127372235Y-127326645D01*
X127789244Y-127499803D01*
X127921188Y-127499918D01*
X128676865Y-128003703D01*
X129018113Y-128112193D01*
X129271317Y-128068162D01*
X129295695Y-128052475D01*
X129400268Y-128098052D01*
X129657255Y-128100984D01*
X129895135Y-128003703D01*
X130795135Y-127403703D01*
X130899242Y-127277872D01*
X131541185Y-127919815D01*
X131788395Y-128084996D01*
X132080000Y-128143000D01*
X133538000Y-128143000D01*
X133636629Y-128123381D01*
X133634807Y-128129113D01*
X133678838Y-128382317D01*
X133694525Y-128406695D01*
X133648948Y-128511268D01*
X133646016Y-128768255D01*
X133743297Y-129006135D01*
X134343297Y-129906135D01*
X134630110Y-130143431D01*
X134765132Y-130170774D01*
X134927233Y-130563086D01*
X135246235Y-130882645D01*
X135663244Y-131055803D01*
X136114775Y-131056197D01*
X136532086Y-130883767D01*
X136851645Y-130564765D01*
X137024803Y-130147756D01*
X137025197Y-129696225D01*
X136852767Y-129278914D01*
X136844423Y-129270555D01*
X137020703Y-129006135D01*
X137129193Y-128664887D01*
X137085162Y-128411683D01*
X137069475Y-128387305D01*
X137115052Y-128282732D01*
X137117984Y-128025745D01*
X137020703Y-127787865D01*
X136420703Y-126887865D01*
X136133890Y-126650569D01*
X135882000Y-126599560D01*
X135815301Y-126599560D01*
X135897086Y-126565767D01*
X136216645Y-126246765D01*
X136389803Y-125829756D01*
X136390197Y-125378225D01*
X136217767Y-124960914D01*
X136098062Y-124841000D01*
X137107394Y-124841000D01*
X138811000Y-126544606D01*
M02*
