G04 #@! TF.FileFunction,Copper,L3,Inr,Signal*
%FSLAX46Y46*%
G04 Gerber Fmt 4.6, Leading zero omitted, Abs format (unit mm)*
G04 Created by KiCad (PCBNEW 4.0.2-4+6225~38~ubuntu14.04.1-stable) date Wed 23 Mar 2016 15:36:34 GMT*
%MOMM*%
G01*
G04 APERTURE LIST*
%ADD10C,0.100000*%
%ADD11C,2.800000*%
%ADD12R,1.880000X1.680000*%
%ADD13R,1.727200X1.727200*%
%ADD14O,1.727200X1.727200*%
%ADD15R,2.032000X2.032000*%
%ADD16O,2.032000X2.032000*%
%ADD17O,2.500000X1.500000*%
%ADD18O,1.500000X2.500000*%
%ADD19C,1.000000*%
%ADD20C,1.500000*%
%ADD21C,0.889000*%
%ADD22C,1.016000*%
%ADD23C,2.000000*%
%ADD24C,1.500000*%
%ADD25C,0.508000*%
%ADD26C,0.254000*%
G04 APERTURE END LIST*
D10*
D11*
X144272000Y-104648000D03*
X146972000Y-101948000D03*
X141572000Y-101948000D03*
X141572000Y-107348000D03*
X146972000Y-107348000D03*
D12*
X147574000Y-138684000D03*
X109982000Y-150114000D03*
X147574000Y-127508000D03*
D13*
X103886000Y-140208000D03*
D14*
X106426000Y-140208000D03*
X103886000Y-142748000D03*
X106426000Y-142748000D03*
X103886000Y-145288000D03*
X106426000Y-145288000D03*
X103886000Y-147828000D03*
X106426000Y-147828000D03*
D12*
X104140000Y-130556000D03*
X109728000Y-130556000D03*
D11*
X132080000Y-104648000D03*
X134780000Y-101948000D03*
X129380000Y-101948000D03*
X129380000Y-107348000D03*
X134780000Y-107348000D03*
D15*
X145288000Y-147828000D03*
D16*
X147828000Y-147828000D03*
D15*
X145288000Y-145288000D03*
D16*
X147828000Y-145288000D03*
D11*
X105156000Y-104648000D03*
X107856000Y-101948000D03*
X102456000Y-101948000D03*
X102456000Y-107348000D03*
X107856000Y-107348000D03*
X117348000Y-104648000D03*
X120048000Y-101948000D03*
X114648000Y-101948000D03*
X114648000Y-107348000D03*
X120048000Y-107348000D03*
D17*
X120954000Y-122174000D03*
X133554000Y-147574000D03*
D18*
X139954000Y-141174000D03*
X114554000Y-128574000D03*
D19*
X145542000Y-113804000D03*
X130036000Y-109982000D03*
X133350000Y-113804000D03*
X142228000Y-109982000D03*
X142228000Y-111506000D03*
X130036000Y-111506000D03*
X124206000Y-132588000D03*
X130810000Y-134112000D03*
X131826000Y-132588000D03*
X125222000Y-134112000D03*
X148524000Y-123498000D03*
X148524000Y-122174000D03*
X147054000Y-116840000D03*
X147054000Y-118364000D03*
X148336000Y-110236000D03*
X102362000Y-166878000D03*
X148082000Y-150876000D03*
X112395000Y-163195000D03*
D20*
X137287000Y-119888000D03*
X138430000Y-116840000D03*
X137922000Y-117856000D03*
X138430000Y-119888000D03*
D19*
X140716000Y-118110000D03*
X128524000Y-118618000D03*
X134862000Y-118364000D03*
X134862000Y-116840000D03*
X128536000Y-109982000D03*
X113538000Y-117348000D03*
D20*
X137160000Y-116840000D03*
X110490000Y-118618000D03*
X111252000Y-119634000D03*
X111760000Y-118618000D03*
D19*
X140728000Y-109982000D03*
X140728000Y-111506000D03*
X101358000Y-111760000D03*
X113550000Y-111760000D03*
X128536000Y-111506000D03*
X101358000Y-110236000D03*
X108446000Y-120396000D03*
X108446000Y-118872000D03*
X120638000Y-120396000D03*
X120638000Y-118872000D03*
X113550000Y-110236000D03*
X132842000Y-130060000D03*
X127508000Y-134874000D03*
X128524000Y-134874000D03*
X125857000Y-128651000D03*
X130175000Y-128651000D03*
X133108000Y-126238000D03*
D20*
X122682000Y-125222000D03*
D19*
X122670000Y-126214000D03*
D20*
X133108000Y-125246000D03*
D19*
X130429000Y-136779000D03*
X125603000Y-136779000D03*
X131560000Y-130048000D03*
X123190000Y-129794000D03*
X124460000Y-129794000D03*
X145554000Y-116840000D03*
X145554000Y-118364000D03*
X145542000Y-115304000D03*
X133350000Y-115304000D03*
X133362000Y-118364000D03*
X133362000Y-116840000D03*
X125972000Y-130048000D03*
X130060000Y-130048000D03*
X126415800Y-131064000D03*
X129667000Y-131064000D03*
X148524000Y-134674000D03*
X148524000Y-133350000D03*
X131826000Y-144526000D03*
X132334000Y-140970000D03*
X120904000Y-144780000D03*
X121920000Y-144780000D03*
X120650000Y-154686000D03*
X143256000Y-114808000D03*
X142748000Y-116332000D03*
X131064000Y-114808000D03*
X130556000Y-116332000D03*
X102858000Y-110236000D03*
X115050000Y-110236000D03*
X110678000Y-125222000D03*
X110678000Y-126546000D03*
X102870000Y-114808000D03*
X115050000Y-111760000D03*
X102858000Y-111760000D03*
X115062000Y-114808000D03*
X105090000Y-125222000D03*
X105090000Y-126546000D03*
X105410000Y-117856000D03*
X106946000Y-118872000D03*
X106946000Y-120396000D03*
X119138000Y-120396000D03*
X119138000Y-118872000D03*
X117602000Y-117856000D03*
X119126000Y-124206000D03*
X119126000Y-125222000D03*
X108204000Y-153924000D03*
X109232000Y-153924000D03*
X136906000Y-128016000D03*
X136398000Y-127127000D03*
X129794000Y-146050000D03*
X128016000Y-139954000D03*
D20*
X115824000Y-143764000D03*
X115824000Y-145034000D03*
D19*
X129286000Y-139954000D03*
X120904000Y-143002000D03*
X129540000Y-154686000D03*
X131826000Y-142494000D03*
X128778000Y-126492000D03*
X127254000Y-126492000D03*
X148336000Y-131064000D03*
X108966000Y-146812000D03*
X110744000Y-133858000D03*
X148590000Y-141986000D03*
X105156000Y-133858000D03*
X141986000Y-154940000D03*
X119634000Y-160020000D03*
X116586000Y-156972000D03*
X122682000Y-161290000D03*
D20*
X143002000Y-161036000D03*
X130302000Y-161036000D03*
X134493000Y-153456000D03*
D19*
X136906000Y-153416000D03*
X123190000Y-157988000D03*
X127000000Y-161036000D03*
X139446000Y-153416000D03*
D21*
X110998000Y-160782000D03*
D19*
X142494000Y-138176000D03*
X146050000Y-140970000D03*
D21*
X109662000Y-159512000D03*
D19*
X116586000Y-160528000D03*
X128270000Y-161036000D03*
D22*
X147054000Y-116840000D02*
X147054000Y-111518000D01*
X147054000Y-118364000D02*
X147054000Y-120154000D01*
X147054000Y-120154000D02*
X145034000Y-122174000D01*
X145034000Y-122428000D02*
X145034000Y-122174000D01*
X147054000Y-116840000D02*
X147054000Y-118364000D01*
X147054000Y-111518000D02*
X148336000Y-110236000D01*
D23*
X138430000Y-119888000D02*
X138430000Y-116840000D01*
X138430000Y-116840000D02*
X137160000Y-116840000D01*
X122174000Y-136779000D02*
X122174000Y-137160000D01*
X122174000Y-137160000D02*
X120142000Y-139192000D01*
D22*
X114554000Y-128574000D02*
X118618000Y-132638000D01*
X118618000Y-132638000D02*
X118618000Y-134874000D01*
X115570000Y-123952000D02*
X117348000Y-122174000D01*
X117348000Y-122174000D02*
X120954000Y-122174000D01*
X114554000Y-128574000D02*
X114554000Y-125476000D01*
X115570000Y-123952000D02*
X115570000Y-124079000D01*
X115760500Y-124142500D02*
X115570000Y-123952000D01*
X115760500Y-124269500D02*
X115760500Y-124142500D01*
X114554000Y-125476000D02*
X115760500Y-124269500D01*
X145034000Y-122428000D02*
X140716000Y-118110000D01*
X140716000Y-111518000D02*
X140716000Y-118110000D01*
X140716000Y-111518000D02*
X140728000Y-111506000D01*
X134862000Y-112510000D02*
X135866000Y-111506000D01*
X135866000Y-111506000D02*
X140728000Y-111506000D01*
X129032000Y-113792000D02*
X129032000Y-118110000D01*
X129032000Y-118110000D02*
X128524000Y-118618000D01*
X129032000Y-113792000D02*
X129540000Y-113284000D01*
X134862000Y-118364000D02*
X134862000Y-116840000D01*
X134862000Y-116840000D02*
X134862000Y-112510000D01*
X134862000Y-112510000D02*
X131584000Y-112510000D01*
X131584000Y-112510000D02*
X130810000Y-113284000D01*
X130810000Y-113284000D02*
X129540000Y-113284000D01*
X129540000Y-113284000D02*
X128536000Y-112280000D01*
X128536000Y-112280000D02*
X128536000Y-109982000D01*
X145034000Y-122428000D02*
X145034000Y-127508000D01*
D23*
X131572000Y-137922000D02*
X123190000Y-137922000D01*
D22*
X131560000Y-130048000D02*
X132830000Y-130048000D01*
X132830000Y-130048000D02*
X132842000Y-130060000D01*
X123190000Y-129794000D02*
X124460000Y-129794000D01*
X124460000Y-129794000D02*
X124460000Y-130810000D01*
X131560000Y-131076000D02*
X131560000Y-130048000D01*
X130302000Y-132334000D02*
X131560000Y-131076000D01*
X125984000Y-132334000D02*
X130302000Y-132334000D01*
X124460000Y-130810000D02*
X125984000Y-132334000D01*
D23*
X134112000Y-137922000D02*
X134620000Y-137922000D01*
X145034000Y-127508000D02*
X147574000Y-127508000D01*
X134620000Y-137922000D02*
X145034000Y-127508000D01*
X130429000Y-136779000D02*
X130429000Y-137795000D01*
X130556000Y-137922000D02*
X131572000Y-137922000D01*
X131572000Y-137922000D02*
X134112000Y-137922000D01*
X130429000Y-137795000D02*
X130556000Y-137922000D01*
X138430000Y-119634000D02*
X138430000Y-123190000D01*
X138430000Y-123190000D02*
X138938000Y-123698000D01*
X138176000Y-120650000D02*
X138049000Y-119380000D01*
X138049000Y-119380000D02*
X138430000Y-119634000D01*
X132842000Y-136779000D02*
X132842000Y-136144000D01*
X130429000Y-136779000D02*
X132842000Y-136779000D01*
X132842000Y-136144000D02*
X140208000Y-128778000D01*
X140208000Y-128778000D02*
X140208000Y-122682000D01*
X140208000Y-122682000D02*
X138176000Y-120650000D01*
X137160000Y-116840000D02*
X137160000Y-121920000D01*
X137160000Y-121920000D02*
X138938000Y-123698000D01*
X138938000Y-128524000D02*
X133604000Y-133858000D01*
X138938000Y-123698000D02*
X138938000Y-128524000D01*
X110490000Y-121666000D02*
X113030000Y-124206000D01*
X110490000Y-121666000D02*
X110490000Y-118618000D01*
X108077000Y-144399000D02*
X109093000Y-144399000D01*
X110744000Y-146050000D02*
X110744000Y-149352000D01*
X109093000Y-144399000D02*
X110744000Y-146050000D01*
X110744000Y-149352000D02*
X109982000Y-150114000D01*
X106426000Y-145288000D02*
X107188000Y-145288000D01*
X107188000Y-145288000D02*
X108077000Y-144399000D01*
X108077000Y-144399000D02*
X108712000Y-143764000D01*
X108712000Y-143764000D02*
X108712000Y-134620000D01*
X104140000Y-130556000D02*
X104648000Y-130556000D01*
X104648000Y-130556000D02*
X108712000Y-134620000D01*
X108712000Y-134620000D02*
X114808000Y-140716000D01*
X120396000Y-140716000D02*
X121920000Y-139192000D01*
X114808000Y-140716000D02*
X120396000Y-140716000D01*
X113030000Y-124206000D02*
X113792000Y-124206000D01*
X113792000Y-124206000D02*
X114808000Y-125222000D01*
X114808000Y-125222000D02*
X114808000Y-128778000D01*
X114808000Y-128778000D02*
X121158000Y-135128000D01*
X121158000Y-135128000D02*
X122682000Y-135128000D01*
X104140000Y-130556000D02*
X109728000Y-130556000D01*
X109728000Y-130556000D02*
X110744000Y-130556000D01*
X110744000Y-130556000D02*
X119380000Y-139192000D01*
X119380000Y-139192000D02*
X120142000Y-139192000D01*
X121920000Y-139192000D02*
X123190000Y-137922000D01*
X123190000Y-137922000D02*
X124333000Y-136779000D01*
X120142000Y-139192000D02*
X121920000Y-139192000D01*
X113284000Y-129540000D02*
X118618000Y-134874000D01*
X113284000Y-124460000D02*
X113030000Y-124206000D01*
X113284000Y-129540000D02*
X113284000Y-124460000D01*
X118618000Y-134874000D02*
X120523000Y-136779000D01*
X120523000Y-136779000D02*
X122174000Y-136779000D01*
X122174000Y-136779000D02*
X124333000Y-136779000D01*
X124333000Y-136779000D02*
X122682000Y-135128000D01*
X122682000Y-135128000D02*
X116459000Y-128905000D01*
X111760000Y-120269000D02*
X111760000Y-118618000D01*
X116459000Y-124968000D02*
X115570000Y-124079000D01*
X115570000Y-124079000D02*
X111760000Y-120269000D01*
X116459000Y-128905000D02*
X116459000Y-124968000D01*
X125603000Y-136779000D02*
X124333000Y-136779000D01*
D24*
X108446000Y-117094000D02*
X108446000Y-113550000D01*
X109462000Y-112534000D02*
X113550000Y-112534000D01*
X108446000Y-113550000D02*
X109462000Y-112534000D01*
X108446000Y-118872000D02*
X108446000Y-117094000D01*
X108446000Y-117094000D02*
X108446000Y-117082000D01*
X108446000Y-117082000D02*
X104648000Y-113284000D01*
X104648000Y-113284000D02*
X102108000Y-113284000D01*
X102108000Y-113284000D02*
X101358000Y-112534000D01*
X101358000Y-112534000D02*
X101358000Y-110236000D01*
X108446000Y-120396000D02*
X108446000Y-118872000D01*
D22*
X120638000Y-120396000D02*
X120638000Y-118872000D01*
D24*
X120638000Y-118872000D02*
X120638000Y-117082000D01*
X120638000Y-117082000D02*
X116840000Y-113284000D01*
X116840000Y-113284000D02*
X114300000Y-113284000D01*
X114300000Y-113284000D02*
X113550000Y-112534000D01*
X113550000Y-112534000D02*
X113550000Y-110236000D01*
D23*
X125603000Y-136779000D02*
X125095000Y-136779000D01*
X122428000Y-130822000D02*
X123190000Y-129794000D01*
X125095000Y-136779000D02*
X122428000Y-134112000D01*
X122428000Y-134112000D02*
X122428000Y-130822000D01*
X130429000Y-136779000D02*
X130683000Y-136779000D01*
X130683000Y-136779000D02*
X133604000Y-133858000D01*
X133604000Y-133858000D02*
X133604000Y-130822000D01*
X133604000Y-130822000D02*
X132842000Y-130060000D01*
X127508000Y-134874000D02*
X128016000Y-134366000D01*
D24*
X128016000Y-130302000D02*
X128016000Y-131826000D01*
D23*
X128016000Y-134366000D02*
X128016000Y-131826000D01*
X128016000Y-128270000D02*
X128016000Y-130302000D01*
X128016000Y-134366000D02*
X128524000Y-134874000D01*
X122682000Y-125222000D02*
X125730000Y-128270000D01*
X130084000Y-128270000D02*
X133108000Y-125246000D01*
X125730000Y-128270000D02*
X128016000Y-128270000D01*
X128016000Y-128270000D02*
X130084000Y-128270000D01*
D22*
X122670000Y-126214000D02*
X125107000Y-128651000D01*
X125107000Y-128651000D02*
X125857000Y-128651000D01*
X130175000Y-128651000D02*
X130695000Y-128651000D01*
X130695000Y-128651000D02*
X133108000Y-126238000D01*
D23*
X144653000Y-139065000D02*
X143002000Y-140716000D01*
X144653000Y-134747000D02*
X144653000Y-139065000D01*
D22*
X148336000Y-131064000D02*
X147320000Y-132080000D01*
D23*
X144653000Y-134747000D02*
X147320000Y-132080000D01*
X101600000Y-150114000D02*
X103886000Y-147828000D01*
X143002000Y-149352000D02*
X143002000Y-140716000D01*
X101600000Y-150114000D02*
X101600000Y-163322000D01*
X101600000Y-163322000D02*
X105410000Y-167132000D01*
X105410000Y-167132000D02*
X144780000Y-167132000D01*
X144780000Y-167132000D02*
X147320000Y-164592000D01*
X147320000Y-164592000D02*
X147320000Y-153670000D01*
X147320000Y-153670000D02*
X143002000Y-149352000D01*
D25*
X141478000Y-139192000D02*
X142494000Y-138176000D01*
X110998000Y-165100000D02*
X111252000Y-165354000D01*
X111252000Y-165354000D02*
X144272000Y-165354000D01*
X144272000Y-165354000D02*
X145796000Y-163830000D01*
X145796000Y-163830000D02*
X145796000Y-154432000D01*
X145796000Y-154432000D02*
X141478000Y-150114000D01*
X141478000Y-150114000D02*
X141478000Y-139192000D01*
X110998000Y-160782000D02*
X110998000Y-165100000D01*
D26*
G36*
X144145000Y-154992606D02*
X144145000Y-162761394D01*
X143203394Y-163703000D01*
X115951000Y-163703000D01*
X115951000Y-161493285D01*
X116359244Y-161662803D01*
X116810775Y-161663197D01*
X117228086Y-161490767D01*
X117458479Y-161260775D01*
X125864803Y-161260775D01*
X126037233Y-161678086D01*
X126356235Y-161997645D01*
X126773244Y-162170803D01*
X127224775Y-162171197D01*
X127635495Y-162001490D01*
X128043244Y-162170803D01*
X128494775Y-162171197D01*
X128912086Y-161998767D01*
X129231645Y-161679765D01*
X129404803Y-161262756D01*
X129405197Y-160811225D01*
X129232767Y-160393914D01*
X128913765Y-160074355D01*
X128496756Y-159901197D01*
X128045225Y-159900803D01*
X127634505Y-160070510D01*
X127226756Y-159901197D01*
X126775225Y-159900803D01*
X126357914Y-160073233D01*
X126038355Y-160392235D01*
X125865197Y-160809244D01*
X125864803Y-161260775D01*
X117458479Y-161260775D01*
X117547645Y-161171765D01*
X117720803Y-160754756D01*
X117721197Y-160303225D01*
X117697046Y-160244775D01*
X118498803Y-160244775D01*
X118671233Y-160662086D01*
X118990235Y-160981645D01*
X119407244Y-161154803D01*
X119858775Y-161155197D01*
X120276086Y-160982767D01*
X120595645Y-160663765D01*
X120768803Y-160246756D01*
X120769197Y-159795225D01*
X120596767Y-159377914D01*
X120277765Y-159058355D01*
X119860756Y-158885197D01*
X119409225Y-158884803D01*
X118991914Y-159057233D01*
X118672355Y-159376235D01*
X118499197Y-159793244D01*
X118498803Y-160244775D01*
X117697046Y-160244775D01*
X117548767Y-159885914D01*
X117229765Y-159566355D01*
X116812756Y-159393197D01*
X116361225Y-159392803D01*
X115951000Y-159562305D01*
X115951000Y-158212775D01*
X122054803Y-158212775D01*
X122227233Y-158630086D01*
X122546235Y-158949645D01*
X122963244Y-159122803D01*
X123414775Y-159123197D01*
X123832086Y-158950767D01*
X124151645Y-158631765D01*
X124324803Y-158214756D01*
X124325197Y-157763225D01*
X124152767Y-157345914D01*
X123833765Y-157026355D01*
X123416756Y-156853197D01*
X122965225Y-156852803D01*
X122547914Y-157025233D01*
X122228355Y-157344235D01*
X122055197Y-157761244D01*
X122054803Y-158212775D01*
X115951000Y-158212775D01*
X115951000Y-156083000D01*
X130048000Y-156083000D01*
X130097410Y-156072994D01*
X130137803Y-156045803D01*
X131018831Y-155164775D01*
X140850803Y-155164775D01*
X141023233Y-155582086D01*
X141342235Y-155901645D01*
X141759244Y-156074803D01*
X142210775Y-156075197D01*
X142628086Y-155902767D01*
X142947645Y-155583765D01*
X143120803Y-155166756D01*
X143121197Y-154715225D01*
X142948767Y-154297914D01*
X142629765Y-153978355D01*
X142212756Y-153805197D01*
X141761225Y-153804803D01*
X141343914Y-153977233D01*
X141024355Y-154296235D01*
X140851197Y-154713244D01*
X140850803Y-155164775D01*
X131018831Y-155164775D01*
X132423803Y-153759803D01*
X132451666Y-153717789D01*
X132461000Y-153670000D01*
X132461000Y-153640775D01*
X135770803Y-153640775D01*
X135943233Y-154058086D01*
X136262235Y-154377645D01*
X136679244Y-154550803D01*
X137130775Y-154551197D01*
X137548086Y-154378767D01*
X137867645Y-154059765D01*
X138040803Y-153642756D01*
X138040804Y-153640775D01*
X138310803Y-153640775D01*
X138483233Y-154058086D01*
X138802235Y-154377645D01*
X139219244Y-154550803D01*
X139670775Y-154551197D01*
X140088086Y-154378767D01*
X140407645Y-154059765D01*
X140580803Y-153642756D01*
X140581197Y-153191225D01*
X140408767Y-152773914D01*
X140089765Y-152454355D01*
X139672756Y-152281197D01*
X139221225Y-152280803D01*
X138803914Y-152453233D01*
X138484355Y-152772235D01*
X138311197Y-153189244D01*
X138310803Y-153640775D01*
X138040804Y-153640775D01*
X138041197Y-153191225D01*
X137868767Y-152773914D01*
X137549765Y-152454355D01*
X137132756Y-152281197D01*
X136681225Y-152280803D01*
X136263914Y-152453233D01*
X135944355Y-152772235D01*
X135771197Y-153189244D01*
X135770803Y-153640775D01*
X132461000Y-153640775D01*
X132461000Y-149987000D01*
X139139394Y-149987000D01*
X144145000Y-154992606D01*
X144145000Y-154992606D01*
G37*
X144145000Y-154992606D02*
X144145000Y-162761394D01*
X143203394Y-163703000D01*
X115951000Y-163703000D01*
X115951000Y-161493285D01*
X116359244Y-161662803D01*
X116810775Y-161663197D01*
X117228086Y-161490767D01*
X117458479Y-161260775D01*
X125864803Y-161260775D01*
X126037233Y-161678086D01*
X126356235Y-161997645D01*
X126773244Y-162170803D01*
X127224775Y-162171197D01*
X127635495Y-162001490D01*
X128043244Y-162170803D01*
X128494775Y-162171197D01*
X128912086Y-161998767D01*
X129231645Y-161679765D01*
X129404803Y-161262756D01*
X129405197Y-160811225D01*
X129232767Y-160393914D01*
X128913765Y-160074355D01*
X128496756Y-159901197D01*
X128045225Y-159900803D01*
X127634505Y-160070510D01*
X127226756Y-159901197D01*
X126775225Y-159900803D01*
X126357914Y-160073233D01*
X126038355Y-160392235D01*
X125865197Y-160809244D01*
X125864803Y-161260775D01*
X117458479Y-161260775D01*
X117547645Y-161171765D01*
X117720803Y-160754756D01*
X117721197Y-160303225D01*
X117697046Y-160244775D01*
X118498803Y-160244775D01*
X118671233Y-160662086D01*
X118990235Y-160981645D01*
X119407244Y-161154803D01*
X119858775Y-161155197D01*
X120276086Y-160982767D01*
X120595645Y-160663765D01*
X120768803Y-160246756D01*
X120769197Y-159795225D01*
X120596767Y-159377914D01*
X120277765Y-159058355D01*
X119860756Y-158885197D01*
X119409225Y-158884803D01*
X118991914Y-159057233D01*
X118672355Y-159376235D01*
X118499197Y-159793244D01*
X118498803Y-160244775D01*
X117697046Y-160244775D01*
X117548767Y-159885914D01*
X117229765Y-159566355D01*
X116812756Y-159393197D01*
X116361225Y-159392803D01*
X115951000Y-159562305D01*
X115951000Y-158212775D01*
X122054803Y-158212775D01*
X122227233Y-158630086D01*
X122546235Y-158949645D01*
X122963244Y-159122803D01*
X123414775Y-159123197D01*
X123832086Y-158950767D01*
X124151645Y-158631765D01*
X124324803Y-158214756D01*
X124325197Y-157763225D01*
X124152767Y-157345914D01*
X123833765Y-157026355D01*
X123416756Y-156853197D01*
X122965225Y-156852803D01*
X122547914Y-157025233D01*
X122228355Y-157344235D01*
X122055197Y-157761244D01*
X122054803Y-158212775D01*
X115951000Y-158212775D01*
X115951000Y-156083000D01*
X130048000Y-156083000D01*
X130097410Y-156072994D01*
X130137803Y-156045803D01*
X131018831Y-155164775D01*
X140850803Y-155164775D01*
X141023233Y-155582086D01*
X141342235Y-155901645D01*
X141759244Y-156074803D01*
X142210775Y-156075197D01*
X142628086Y-155902767D01*
X142947645Y-155583765D01*
X143120803Y-155166756D01*
X143121197Y-154715225D01*
X142948767Y-154297914D01*
X142629765Y-153978355D01*
X142212756Y-153805197D01*
X141761225Y-153804803D01*
X141343914Y-153977233D01*
X141024355Y-154296235D01*
X140851197Y-154713244D01*
X140850803Y-155164775D01*
X131018831Y-155164775D01*
X132423803Y-153759803D01*
X132451666Y-153717789D01*
X132461000Y-153670000D01*
X132461000Y-153640775D01*
X135770803Y-153640775D01*
X135943233Y-154058086D01*
X136262235Y-154377645D01*
X136679244Y-154550803D01*
X137130775Y-154551197D01*
X137548086Y-154378767D01*
X137867645Y-154059765D01*
X138040803Y-153642756D01*
X138040804Y-153640775D01*
X138310803Y-153640775D01*
X138483233Y-154058086D01*
X138802235Y-154377645D01*
X139219244Y-154550803D01*
X139670775Y-154551197D01*
X140088086Y-154378767D01*
X140407645Y-154059765D01*
X140580803Y-153642756D01*
X140581197Y-153191225D01*
X140408767Y-152773914D01*
X140089765Y-152454355D01*
X139672756Y-152281197D01*
X139221225Y-152280803D01*
X138803914Y-152453233D01*
X138484355Y-152772235D01*
X138311197Y-153189244D01*
X138310803Y-153640775D01*
X138040804Y-153640775D01*
X138041197Y-153191225D01*
X137868767Y-152773914D01*
X137549765Y-152454355D01*
X137132756Y-152281197D01*
X136681225Y-152280803D01*
X136263914Y-152453233D01*
X135944355Y-152772235D01*
X135771197Y-153189244D01*
X135770803Y-153640775D01*
X132461000Y-153640775D01*
X132461000Y-149987000D01*
X139139394Y-149987000D01*
X144145000Y-154992606D01*
G36*
X112649000Y-108712000D02*
X112659006Y-108761410D01*
X112686197Y-108801803D01*
X113194197Y-109309803D01*
X113236211Y-109337666D01*
X113284000Y-109347000D01*
X114334018Y-109347000D01*
X114088355Y-109592235D01*
X113915197Y-110009244D01*
X113914803Y-110460775D01*
X114087233Y-110878086D01*
X114206867Y-110997929D01*
X114088355Y-111116235D01*
X113915197Y-111533244D01*
X113914803Y-111984775D01*
X114087233Y-112402086D01*
X114406235Y-112721645D01*
X114823244Y-112894803D01*
X115274775Y-112895197D01*
X115692086Y-112722767D01*
X116011645Y-112403765D01*
X116184803Y-111986756D01*
X116185197Y-111535225D01*
X116012767Y-111117914D01*
X115893133Y-110998071D01*
X116011645Y-110879765D01*
X116184803Y-110462756D01*
X116185197Y-110011225D01*
X116012767Y-109593914D01*
X115766283Y-109347000D01*
X122174000Y-109347000D01*
X122223410Y-109336994D01*
X122265035Y-109308553D01*
X122292315Y-109266159D01*
X122301000Y-109220000D01*
X122301000Y-100965000D01*
X124333000Y-100965000D01*
X124333000Y-121285000D01*
X122466452Y-121285000D01*
X121736447Y-120798330D01*
X121666000Y-120777000D01*
X120208755Y-120777000D01*
X120272803Y-120622756D01*
X120273197Y-120171225D01*
X120100767Y-119753914D01*
X119981133Y-119634071D01*
X120099645Y-119515765D01*
X120272803Y-119098756D01*
X120273197Y-118647225D01*
X120100767Y-118229914D01*
X119781765Y-117910355D01*
X119364756Y-117737197D01*
X118913225Y-117736803D01*
X118737041Y-117809601D01*
X118737197Y-117631225D01*
X118564767Y-117213914D01*
X118245765Y-116894355D01*
X117828756Y-116721197D01*
X117377225Y-116720803D01*
X116959914Y-116893233D01*
X116640355Y-117212235D01*
X116467197Y-117629244D01*
X116466803Y-118080775D01*
X116639233Y-118498086D01*
X116958235Y-118817645D01*
X117375244Y-118990803D01*
X117826775Y-118991197D01*
X118002959Y-118918399D01*
X118002803Y-119096775D01*
X118175233Y-119514086D01*
X118294867Y-119633929D01*
X118176355Y-119752235D01*
X118003197Y-120169244D01*
X118002803Y-120620775D01*
X118067354Y-120777000D01*
X117094000Y-120777000D01*
X117044590Y-120787006D01*
X117004197Y-120814197D01*
X116533394Y-121285000D01*
X115114606Y-121285000D01*
X113411000Y-119581394D01*
X113411000Y-117094000D01*
X113400994Y-117044590D01*
X113372553Y-117002965D01*
X113330159Y-116975685D01*
X113284000Y-116967000D01*
X108966000Y-116967000D01*
X108916590Y-116977006D01*
X108874965Y-117005447D01*
X108847685Y-117047841D01*
X108839000Y-117094000D01*
X108839000Y-122428000D01*
X108849006Y-122477410D01*
X108876197Y-122517803D01*
X110447544Y-124089150D01*
X110035914Y-124259233D01*
X109716355Y-124578235D01*
X109543197Y-124995244D01*
X109542803Y-125446775D01*
X109715233Y-125864086D01*
X109734867Y-125883755D01*
X109716355Y-125902235D01*
X109543197Y-126319244D01*
X109542803Y-126770775D01*
X109715233Y-127188086D01*
X110034235Y-127507645D01*
X110451244Y-127680803D01*
X110902775Y-127681197D01*
X111320086Y-127508767D01*
X111379000Y-127449956D01*
X111379000Y-130048000D01*
X111389006Y-130097410D01*
X111416197Y-130137803D01*
X119507000Y-138228606D01*
X119507000Y-141351000D01*
X114554000Y-141351000D01*
X114504590Y-141361006D01*
X114464197Y-141388197D01*
X113702197Y-142150197D01*
X113674334Y-142192211D01*
X113665000Y-142240000D01*
X113665000Y-146558000D01*
X113675006Y-146607410D01*
X113702197Y-146647803D01*
X117221000Y-150166606D01*
X117221000Y-154813000D01*
X114808000Y-154813000D01*
X114758590Y-154823006D01*
X114716965Y-154851447D01*
X114689685Y-154893841D01*
X114681000Y-154940000D01*
X114681000Y-164211000D01*
X111887000Y-164211000D01*
X111887000Y-161419863D01*
X111912622Y-161394286D01*
X112077313Y-160997668D01*
X112077687Y-160568216D01*
X111913689Y-160171311D01*
X111610286Y-159867378D01*
X111213668Y-159702687D01*
X110784216Y-159702313D01*
X110741320Y-159720037D01*
X110741687Y-159298216D01*
X110577689Y-158901311D01*
X110274286Y-158597378D01*
X109877668Y-158432687D01*
X109448216Y-158432313D01*
X109051311Y-158596311D01*
X108747378Y-158899714D01*
X108582687Y-159296332D01*
X108582313Y-159725784D01*
X108746311Y-160122689D01*
X109049714Y-160426622D01*
X109446332Y-160591313D01*
X109875784Y-160591687D01*
X109918680Y-160573963D01*
X109918313Y-160995784D01*
X110082311Y-161392689D01*
X110109000Y-161419425D01*
X110109000Y-164211000D01*
X105457718Y-164211000D01*
X103505000Y-162502372D01*
X103505000Y-154148775D01*
X107068803Y-154148775D01*
X107241233Y-154566086D01*
X107560235Y-154885645D01*
X107977244Y-155058803D01*
X108428775Y-155059197D01*
X108718197Y-154939610D01*
X109005244Y-155058803D01*
X109456775Y-155059197D01*
X109874086Y-154886767D01*
X110193645Y-154567765D01*
X110366803Y-154150756D01*
X110367197Y-153699225D01*
X110194767Y-153281914D01*
X109875765Y-152962355D01*
X109458756Y-152789197D01*
X109007225Y-152788803D01*
X108717803Y-152908390D01*
X108430756Y-152789197D01*
X107979225Y-152788803D01*
X107561914Y-152961233D01*
X107242355Y-153280235D01*
X107069197Y-153697244D01*
X107068803Y-154148775D01*
X103505000Y-154148775D01*
X103505000Y-150928606D01*
X105462236Y-148971370D01*
X105823152Y-149212526D01*
X106396641Y-149326600D01*
X106455359Y-149326600D01*
X107028848Y-149212526D01*
X107515029Y-148887670D01*
X107839885Y-148401489D01*
X107953959Y-147828000D01*
X107839885Y-147254511D01*
X107694399Y-147036775D01*
X107830803Y-147036775D01*
X108003233Y-147454086D01*
X108322235Y-147773645D01*
X108739244Y-147946803D01*
X109190775Y-147947197D01*
X109608086Y-147774767D01*
X109927645Y-147455765D01*
X110100803Y-147038756D01*
X110101197Y-146587225D01*
X109928767Y-146169914D01*
X109609765Y-145850355D01*
X109192756Y-145677197D01*
X108741225Y-145676803D01*
X108323914Y-145849233D01*
X108004355Y-146168235D01*
X107831197Y-146585244D01*
X107830803Y-147036775D01*
X107694399Y-147036775D01*
X107515029Y-146768330D01*
X107028848Y-146443474D01*
X106455359Y-146329400D01*
X106396641Y-146329400D01*
X105823152Y-146443474D01*
X105537000Y-146634675D01*
X105537000Y-144399000D01*
X107696000Y-144399000D01*
X107745410Y-144388994D01*
X107787035Y-144360553D01*
X107814315Y-144318159D01*
X107823000Y-144272000D01*
X107823000Y-143346759D01*
X107839885Y-143321489D01*
X107953959Y-142748000D01*
X107839885Y-142174511D01*
X107823000Y-142149241D01*
X107823000Y-140806759D01*
X107839885Y-140781489D01*
X107953959Y-140208000D01*
X107839885Y-139634511D01*
X107823000Y-139609241D01*
X107823000Y-136652000D01*
X107812994Y-136602590D01*
X107784553Y-136560965D01*
X107742159Y-136533685D01*
X107696000Y-136525000D01*
X100761000Y-136525000D01*
X100761000Y-134082775D01*
X104020803Y-134082775D01*
X104193233Y-134500086D01*
X104512235Y-134819645D01*
X104929244Y-134992803D01*
X105380775Y-134993197D01*
X105798086Y-134820767D01*
X106117645Y-134501765D01*
X106290803Y-134084756D01*
X106290804Y-134082775D01*
X109608803Y-134082775D01*
X109781233Y-134500086D01*
X110100235Y-134819645D01*
X110517244Y-134992803D01*
X110968775Y-134993197D01*
X111386086Y-134820767D01*
X111705645Y-134501765D01*
X111878803Y-134084756D01*
X111879197Y-133633225D01*
X111706767Y-133215914D01*
X111387765Y-132896355D01*
X110970756Y-132723197D01*
X110519225Y-132722803D01*
X110101914Y-132895233D01*
X109782355Y-133214235D01*
X109609197Y-133631244D01*
X109608803Y-134082775D01*
X106290804Y-134082775D01*
X106291197Y-133633225D01*
X106118767Y-133215914D01*
X105799765Y-132896355D01*
X105382756Y-132723197D01*
X104931225Y-132722803D01*
X104513914Y-132895233D01*
X104194355Y-133214235D01*
X104021197Y-133631244D01*
X104020803Y-134082775D01*
X100761000Y-134082775D01*
X100761000Y-125446775D01*
X103954803Y-125446775D01*
X104127233Y-125864086D01*
X104146867Y-125883755D01*
X104128355Y-125902235D01*
X103955197Y-126319244D01*
X103954803Y-126770775D01*
X104127233Y-127188086D01*
X104446235Y-127507645D01*
X104863244Y-127680803D01*
X105314775Y-127681197D01*
X105732086Y-127508767D01*
X106051645Y-127189765D01*
X106224803Y-126772756D01*
X106225197Y-126321225D01*
X106052767Y-125903914D01*
X106033133Y-125884245D01*
X106051645Y-125865765D01*
X106224803Y-125448756D01*
X106225197Y-124997225D01*
X106052767Y-124579914D01*
X105733765Y-124260355D01*
X105316756Y-124087197D01*
X104865225Y-124086803D01*
X104447914Y-124259233D01*
X104128355Y-124578235D01*
X103955197Y-124995244D01*
X103954803Y-125446775D01*
X100761000Y-125446775D01*
X100761000Y-118080775D01*
X104274803Y-118080775D01*
X104447233Y-118498086D01*
X104766235Y-118817645D01*
X105183244Y-118990803D01*
X105634775Y-118991197D01*
X105810959Y-118918399D01*
X105810803Y-119096775D01*
X105983233Y-119514086D01*
X106102867Y-119633929D01*
X105984355Y-119752235D01*
X105811197Y-120169244D01*
X105810803Y-120620775D01*
X105983233Y-121038086D01*
X106302235Y-121357645D01*
X106719244Y-121530803D01*
X107170775Y-121531197D01*
X107588086Y-121358767D01*
X107907645Y-121039765D01*
X108080803Y-120622756D01*
X108081197Y-120171225D01*
X107908767Y-119753914D01*
X107789133Y-119634071D01*
X107907645Y-119515765D01*
X108080803Y-119098756D01*
X108081197Y-118647225D01*
X107908767Y-118229914D01*
X107589765Y-117910355D01*
X107172756Y-117737197D01*
X106721225Y-117736803D01*
X106545041Y-117809601D01*
X106545197Y-117631225D01*
X106372767Y-117213914D01*
X106053765Y-116894355D01*
X105636756Y-116721197D01*
X105185225Y-116720803D01*
X104767914Y-116893233D01*
X104448355Y-117212235D01*
X104275197Y-117629244D01*
X104274803Y-118080775D01*
X100761000Y-118080775D01*
X100761000Y-115032775D01*
X101734803Y-115032775D01*
X101907233Y-115450086D01*
X102226235Y-115769645D01*
X102643244Y-115942803D01*
X103094775Y-115943197D01*
X103512086Y-115770767D01*
X103831645Y-115451765D01*
X104004803Y-115034756D01*
X104004804Y-115032775D01*
X113926803Y-115032775D01*
X114099233Y-115450086D01*
X114418235Y-115769645D01*
X114835244Y-115942803D01*
X115286775Y-115943197D01*
X115704086Y-115770767D01*
X116023645Y-115451765D01*
X116196803Y-115034756D01*
X116197197Y-114583225D01*
X116024767Y-114165914D01*
X115705765Y-113846355D01*
X115288756Y-113673197D01*
X114837225Y-113672803D01*
X114419914Y-113845233D01*
X114100355Y-114164235D01*
X113927197Y-114581244D01*
X113926803Y-115032775D01*
X104004804Y-115032775D01*
X104005197Y-114583225D01*
X103832767Y-114165914D01*
X103513765Y-113846355D01*
X103096756Y-113673197D01*
X102645225Y-113672803D01*
X102227914Y-113845233D01*
X101908355Y-114164235D01*
X101735197Y-114581244D01*
X101734803Y-115032775D01*
X100761000Y-115032775D01*
X100761000Y-109347000D01*
X102142018Y-109347000D01*
X101896355Y-109592235D01*
X101723197Y-110009244D01*
X101722803Y-110460775D01*
X101895233Y-110878086D01*
X102014867Y-110997929D01*
X101896355Y-111116235D01*
X101723197Y-111533244D01*
X101722803Y-111984775D01*
X101895233Y-112402086D01*
X102214235Y-112721645D01*
X102631244Y-112894803D01*
X103082775Y-112895197D01*
X103500086Y-112722767D01*
X103819645Y-112403765D01*
X103992803Y-111986756D01*
X103993197Y-111535225D01*
X103820767Y-111117914D01*
X103701133Y-110998071D01*
X103819645Y-110879765D01*
X103992803Y-110462756D01*
X103993197Y-110011225D01*
X103820767Y-109593914D01*
X103574283Y-109347000D01*
X109220000Y-109347000D01*
X109269410Y-109336994D01*
X109309803Y-109309803D01*
X109817803Y-108801803D01*
X109845666Y-108759789D01*
X109855000Y-108712000D01*
X109855000Y-100761000D01*
X112649000Y-100761000D01*
X112649000Y-108712000D01*
X112649000Y-108712000D01*
G37*
X112649000Y-108712000D02*
X112659006Y-108761410D01*
X112686197Y-108801803D01*
X113194197Y-109309803D01*
X113236211Y-109337666D01*
X113284000Y-109347000D01*
X114334018Y-109347000D01*
X114088355Y-109592235D01*
X113915197Y-110009244D01*
X113914803Y-110460775D01*
X114087233Y-110878086D01*
X114206867Y-110997929D01*
X114088355Y-111116235D01*
X113915197Y-111533244D01*
X113914803Y-111984775D01*
X114087233Y-112402086D01*
X114406235Y-112721645D01*
X114823244Y-112894803D01*
X115274775Y-112895197D01*
X115692086Y-112722767D01*
X116011645Y-112403765D01*
X116184803Y-111986756D01*
X116185197Y-111535225D01*
X116012767Y-111117914D01*
X115893133Y-110998071D01*
X116011645Y-110879765D01*
X116184803Y-110462756D01*
X116185197Y-110011225D01*
X116012767Y-109593914D01*
X115766283Y-109347000D01*
X122174000Y-109347000D01*
X122223410Y-109336994D01*
X122265035Y-109308553D01*
X122292315Y-109266159D01*
X122301000Y-109220000D01*
X122301000Y-100965000D01*
X124333000Y-100965000D01*
X124333000Y-121285000D01*
X122466452Y-121285000D01*
X121736447Y-120798330D01*
X121666000Y-120777000D01*
X120208755Y-120777000D01*
X120272803Y-120622756D01*
X120273197Y-120171225D01*
X120100767Y-119753914D01*
X119981133Y-119634071D01*
X120099645Y-119515765D01*
X120272803Y-119098756D01*
X120273197Y-118647225D01*
X120100767Y-118229914D01*
X119781765Y-117910355D01*
X119364756Y-117737197D01*
X118913225Y-117736803D01*
X118737041Y-117809601D01*
X118737197Y-117631225D01*
X118564767Y-117213914D01*
X118245765Y-116894355D01*
X117828756Y-116721197D01*
X117377225Y-116720803D01*
X116959914Y-116893233D01*
X116640355Y-117212235D01*
X116467197Y-117629244D01*
X116466803Y-118080775D01*
X116639233Y-118498086D01*
X116958235Y-118817645D01*
X117375244Y-118990803D01*
X117826775Y-118991197D01*
X118002959Y-118918399D01*
X118002803Y-119096775D01*
X118175233Y-119514086D01*
X118294867Y-119633929D01*
X118176355Y-119752235D01*
X118003197Y-120169244D01*
X118002803Y-120620775D01*
X118067354Y-120777000D01*
X117094000Y-120777000D01*
X117044590Y-120787006D01*
X117004197Y-120814197D01*
X116533394Y-121285000D01*
X115114606Y-121285000D01*
X113411000Y-119581394D01*
X113411000Y-117094000D01*
X113400994Y-117044590D01*
X113372553Y-117002965D01*
X113330159Y-116975685D01*
X113284000Y-116967000D01*
X108966000Y-116967000D01*
X108916590Y-116977006D01*
X108874965Y-117005447D01*
X108847685Y-117047841D01*
X108839000Y-117094000D01*
X108839000Y-122428000D01*
X108849006Y-122477410D01*
X108876197Y-122517803D01*
X110447544Y-124089150D01*
X110035914Y-124259233D01*
X109716355Y-124578235D01*
X109543197Y-124995244D01*
X109542803Y-125446775D01*
X109715233Y-125864086D01*
X109734867Y-125883755D01*
X109716355Y-125902235D01*
X109543197Y-126319244D01*
X109542803Y-126770775D01*
X109715233Y-127188086D01*
X110034235Y-127507645D01*
X110451244Y-127680803D01*
X110902775Y-127681197D01*
X111320086Y-127508767D01*
X111379000Y-127449956D01*
X111379000Y-130048000D01*
X111389006Y-130097410D01*
X111416197Y-130137803D01*
X119507000Y-138228606D01*
X119507000Y-141351000D01*
X114554000Y-141351000D01*
X114504590Y-141361006D01*
X114464197Y-141388197D01*
X113702197Y-142150197D01*
X113674334Y-142192211D01*
X113665000Y-142240000D01*
X113665000Y-146558000D01*
X113675006Y-146607410D01*
X113702197Y-146647803D01*
X117221000Y-150166606D01*
X117221000Y-154813000D01*
X114808000Y-154813000D01*
X114758590Y-154823006D01*
X114716965Y-154851447D01*
X114689685Y-154893841D01*
X114681000Y-154940000D01*
X114681000Y-164211000D01*
X111887000Y-164211000D01*
X111887000Y-161419863D01*
X111912622Y-161394286D01*
X112077313Y-160997668D01*
X112077687Y-160568216D01*
X111913689Y-160171311D01*
X111610286Y-159867378D01*
X111213668Y-159702687D01*
X110784216Y-159702313D01*
X110741320Y-159720037D01*
X110741687Y-159298216D01*
X110577689Y-158901311D01*
X110274286Y-158597378D01*
X109877668Y-158432687D01*
X109448216Y-158432313D01*
X109051311Y-158596311D01*
X108747378Y-158899714D01*
X108582687Y-159296332D01*
X108582313Y-159725784D01*
X108746311Y-160122689D01*
X109049714Y-160426622D01*
X109446332Y-160591313D01*
X109875784Y-160591687D01*
X109918680Y-160573963D01*
X109918313Y-160995784D01*
X110082311Y-161392689D01*
X110109000Y-161419425D01*
X110109000Y-164211000D01*
X105457718Y-164211000D01*
X103505000Y-162502372D01*
X103505000Y-154148775D01*
X107068803Y-154148775D01*
X107241233Y-154566086D01*
X107560235Y-154885645D01*
X107977244Y-155058803D01*
X108428775Y-155059197D01*
X108718197Y-154939610D01*
X109005244Y-155058803D01*
X109456775Y-155059197D01*
X109874086Y-154886767D01*
X110193645Y-154567765D01*
X110366803Y-154150756D01*
X110367197Y-153699225D01*
X110194767Y-153281914D01*
X109875765Y-152962355D01*
X109458756Y-152789197D01*
X109007225Y-152788803D01*
X108717803Y-152908390D01*
X108430756Y-152789197D01*
X107979225Y-152788803D01*
X107561914Y-152961233D01*
X107242355Y-153280235D01*
X107069197Y-153697244D01*
X107068803Y-154148775D01*
X103505000Y-154148775D01*
X103505000Y-150928606D01*
X105462236Y-148971370D01*
X105823152Y-149212526D01*
X106396641Y-149326600D01*
X106455359Y-149326600D01*
X107028848Y-149212526D01*
X107515029Y-148887670D01*
X107839885Y-148401489D01*
X107953959Y-147828000D01*
X107839885Y-147254511D01*
X107694399Y-147036775D01*
X107830803Y-147036775D01*
X108003233Y-147454086D01*
X108322235Y-147773645D01*
X108739244Y-147946803D01*
X109190775Y-147947197D01*
X109608086Y-147774767D01*
X109927645Y-147455765D01*
X110100803Y-147038756D01*
X110101197Y-146587225D01*
X109928767Y-146169914D01*
X109609765Y-145850355D01*
X109192756Y-145677197D01*
X108741225Y-145676803D01*
X108323914Y-145849233D01*
X108004355Y-146168235D01*
X107831197Y-146585244D01*
X107830803Y-147036775D01*
X107694399Y-147036775D01*
X107515029Y-146768330D01*
X107028848Y-146443474D01*
X106455359Y-146329400D01*
X106396641Y-146329400D01*
X105823152Y-146443474D01*
X105537000Y-146634675D01*
X105537000Y-144399000D01*
X107696000Y-144399000D01*
X107745410Y-144388994D01*
X107787035Y-144360553D01*
X107814315Y-144318159D01*
X107823000Y-144272000D01*
X107823000Y-143346759D01*
X107839885Y-143321489D01*
X107953959Y-142748000D01*
X107839885Y-142174511D01*
X107823000Y-142149241D01*
X107823000Y-140806759D01*
X107839885Y-140781489D01*
X107953959Y-140208000D01*
X107839885Y-139634511D01*
X107823000Y-139609241D01*
X107823000Y-136652000D01*
X107812994Y-136602590D01*
X107784553Y-136560965D01*
X107742159Y-136533685D01*
X107696000Y-136525000D01*
X100761000Y-136525000D01*
X100761000Y-134082775D01*
X104020803Y-134082775D01*
X104193233Y-134500086D01*
X104512235Y-134819645D01*
X104929244Y-134992803D01*
X105380775Y-134993197D01*
X105798086Y-134820767D01*
X106117645Y-134501765D01*
X106290803Y-134084756D01*
X106290804Y-134082775D01*
X109608803Y-134082775D01*
X109781233Y-134500086D01*
X110100235Y-134819645D01*
X110517244Y-134992803D01*
X110968775Y-134993197D01*
X111386086Y-134820767D01*
X111705645Y-134501765D01*
X111878803Y-134084756D01*
X111879197Y-133633225D01*
X111706767Y-133215914D01*
X111387765Y-132896355D01*
X110970756Y-132723197D01*
X110519225Y-132722803D01*
X110101914Y-132895233D01*
X109782355Y-133214235D01*
X109609197Y-133631244D01*
X109608803Y-134082775D01*
X106290804Y-134082775D01*
X106291197Y-133633225D01*
X106118767Y-133215914D01*
X105799765Y-132896355D01*
X105382756Y-132723197D01*
X104931225Y-132722803D01*
X104513914Y-132895233D01*
X104194355Y-133214235D01*
X104021197Y-133631244D01*
X104020803Y-134082775D01*
X100761000Y-134082775D01*
X100761000Y-125446775D01*
X103954803Y-125446775D01*
X104127233Y-125864086D01*
X104146867Y-125883755D01*
X104128355Y-125902235D01*
X103955197Y-126319244D01*
X103954803Y-126770775D01*
X104127233Y-127188086D01*
X104446235Y-127507645D01*
X104863244Y-127680803D01*
X105314775Y-127681197D01*
X105732086Y-127508767D01*
X106051645Y-127189765D01*
X106224803Y-126772756D01*
X106225197Y-126321225D01*
X106052767Y-125903914D01*
X106033133Y-125884245D01*
X106051645Y-125865765D01*
X106224803Y-125448756D01*
X106225197Y-124997225D01*
X106052767Y-124579914D01*
X105733765Y-124260355D01*
X105316756Y-124087197D01*
X104865225Y-124086803D01*
X104447914Y-124259233D01*
X104128355Y-124578235D01*
X103955197Y-124995244D01*
X103954803Y-125446775D01*
X100761000Y-125446775D01*
X100761000Y-118080775D01*
X104274803Y-118080775D01*
X104447233Y-118498086D01*
X104766235Y-118817645D01*
X105183244Y-118990803D01*
X105634775Y-118991197D01*
X105810959Y-118918399D01*
X105810803Y-119096775D01*
X105983233Y-119514086D01*
X106102867Y-119633929D01*
X105984355Y-119752235D01*
X105811197Y-120169244D01*
X105810803Y-120620775D01*
X105983233Y-121038086D01*
X106302235Y-121357645D01*
X106719244Y-121530803D01*
X107170775Y-121531197D01*
X107588086Y-121358767D01*
X107907645Y-121039765D01*
X108080803Y-120622756D01*
X108081197Y-120171225D01*
X107908767Y-119753914D01*
X107789133Y-119634071D01*
X107907645Y-119515765D01*
X108080803Y-119098756D01*
X108081197Y-118647225D01*
X107908767Y-118229914D01*
X107589765Y-117910355D01*
X107172756Y-117737197D01*
X106721225Y-117736803D01*
X106545041Y-117809601D01*
X106545197Y-117631225D01*
X106372767Y-117213914D01*
X106053765Y-116894355D01*
X105636756Y-116721197D01*
X105185225Y-116720803D01*
X104767914Y-116893233D01*
X104448355Y-117212235D01*
X104275197Y-117629244D01*
X104274803Y-118080775D01*
X100761000Y-118080775D01*
X100761000Y-115032775D01*
X101734803Y-115032775D01*
X101907233Y-115450086D01*
X102226235Y-115769645D01*
X102643244Y-115942803D01*
X103094775Y-115943197D01*
X103512086Y-115770767D01*
X103831645Y-115451765D01*
X104004803Y-115034756D01*
X104004804Y-115032775D01*
X113926803Y-115032775D01*
X114099233Y-115450086D01*
X114418235Y-115769645D01*
X114835244Y-115942803D01*
X115286775Y-115943197D01*
X115704086Y-115770767D01*
X116023645Y-115451765D01*
X116196803Y-115034756D01*
X116197197Y-114583225D01*
X116024767Y-114165914D01*
X115705765Y-113846355D01*
X115288756Y-113673197D01*
X114837225Y-113672803D01*
X114419914Y-113845233D01*
X114100355Y-114164235D01*
X113927197Y-114581244D01*
X113926803Y-115032775D01*
X104004804Y-115032775D01*
X104005197Y-114583225D01*
X103832767Y-114165914D01*
X103513765Y-113846355D01*
X103096756Y-113673197D01*
X102645225Y-113672803D01*
X102227914Y-113845233D01*
X101908355Y-114164235D01*
X101735197Y-114581244D01*
X101734803Y-115032775D01*
X100761000Y-115032775D01*
X100761000Y-109347000D01*
X102142018Y-109347000D01*
X101896355Y-109592235D01*
X101723197Y-110009244D01*
X101722803Y-110460775D01*
X101895233Y-110878086D01*
X102014867Y-110997929D01*
X101896355Y-111116235D01*
X101723197Y-111533244D01*
X101722803Y-111984775D01*
X101895233Y-112402086D01*
X102214235Y-112721645D01*
X102631244Y-112894803D01*
X103082775Y-112895197D01*
X103500086Y-112722767D01*
X103819645Y-112403765D01*
X103992803Y-111986756D01*
X103993197Y-111535225D01*
X103820767Y-111117914D01*
X103701133Y-110998071D01*
X103819645Y-110879765D01*
X103992803Y-110462756D01*
X103993197Y-110011225D01*
X103820767Y-109593914D01*
X103574283Y-109347000D01*
X109220000Y-109347000D01*
X109269410Y-109336994D01*
X109309803Y-109309803D01*
X109817803Y-108801803D01*
X109845666Y-108759789D01*
X109855000Y-108712000D01*
X109855000Y-100761000D01*
X112649000Y-100761000D01*
X112649000Y-108712000D01*
G36*
X137033000Y-124512606D02*
X137033000Y-126161715D01*
X136624756Y-125992197D01*
X136173225Y-125991803D01*
X135755914Y-126164233D01*
X135436355Y-126483235D01*
X135263197Y-126900244D01*
X135262803Y-127351775D01*
X135435233Y-127769086D01*
X135754235Y-128088645D01*
X135770930Y-128095577D01*
X135770803Y-128240775D01*
X135940305Y-128651000D01*
X131318000Y-128651000D01*
X131268590Y-128661006D01*
X131228197Y-128688197D01*
X130766847Y-129149547D01*
X130703765Y-129086355D01*
X130286756Y-128913197D01*
X129835225Y-128912803D01*
X129417914Y-129085233D01*
X129344018Y-129159000D01*
X126688283Y-129159000D01*
X126615765Y-129086355D01*
X126198756Y-128913197D01*
X125747225Y-128912803D01*
X125329914Y-129085233D01*
X125256018Y-129159000D01*
X125020606Y-129159000D01*
X124041803Y-128180197D01*
X123999789Y-128152334D01*
X123952000Y-128143000D01*
X118484491Y-128143000D01*
X118409427Y-126716775D01*
X126118803Y-126716775D01*
X126291233Y-127134086D01*
X126610235Y-127453645D01*
X127027244Y-127626803D01*
X127478775Y-127627197D01*
X127896086Y-127454767D01*
X128015929Y-127335133D01*
X128134235Y-127453645D01*
X128551244Y-127626803D01*
X129002775Y-127627197D01*
X129420086Y-127454767D01*
X129739645Y-127135765D01*
X129912803Y-126718756D01*
X129913197Y-126267225D01*
X129740767Y-125849914D01*
X129421765Y-125530355D01*
X129004756Y-125357197D01*
X128553225Y-125356803D01*
X128135914Y-125529233D01*
X128016071Y-125648867D01*
X127897765Y-125530355D01*
X127480756Y-125357197D01*
X127029225Y-125356803D01*
X126611914Y-125529233D01*
X126292355Y-125848235D01*
X126119197Y-126265244D01*
X126118803Y-126716775D01*
X118409427Y-126716775D01*
X118375753Y-126076977D01*
X118482235Y-126183645D01*
X118899244Y-126356803D01*
X119350775Y-126357197D01*
X119768086Y-126184767D01*
X120087645Y-125865765D01*
X120260803Y-125448756D01*
X120261197Y-124997225D01*
X120144095Y-124713818D01*
X120260803Y-124432756D01*
X120261197Y-123981225D01*
X120091695Y-123571000D01*
X121920000Y-123571000D01*
X121969410Y-123560994D01*
X122009803Y-123533803D01*
X123242606Y-122301000D01*
X134821394Y-122301000D01*
X137033000Y-124512606D01*
X137033000Y-124512606D01*
G37*
X137033000Y-124512606D02*
X137033000Y-126161715D01*
X136624756Y-125992197D01*
X136173225Y-125991803D01*
X135755914Y-126164233D01*
X135436355Y-126483235D01*
X135263197Y-126900244D01*
X135262803Y-127351775D01*
X135435233Y-127769086D01*
X135754235Y-128088645D01*
X135770930Y-128095577D01*
X135770803Y-128240775D01*
X135940305Y-128651000D01*
X131318000Y-128651000D01*
X131268590Y-128661006D01*
X131228197Y-128688197D01*
X130766847Y-129149547D01*
X130703765Y-129086355D01*
X130286756Y-128913197D01*
X129835225Y-128912803D01*
X129417914Y-129085233D01*
X129344018Y-129159000D01*
X126688283Y-129159000D01*
X126615765Y-129086355D01*
X126198756Y-128913197D01*
X125747225Y-128912803D01*
X125329914Y-129085233D01*
X125256018Y-129159000D01*
X125020606Y-129159000D01*
X124041803Y-128180197D01*
X123999789Y-128152334D01*
X123952000Y-128143000D01*
X118484491Y-128143000D01*
X118409427Y-126716775D01*
X126118803Y-126716775D01*
X126291233Y-127134086D01*
X126610235Y-127453645D01*
X127027244Y-127626803D01*
X127478775Y-127627197D01*
X127896086Y-127454767D01*
X128015929Y-127335133D01*
X128134235Y-127453645D01*
X128551244Y-127626803D01*
X129002775Y-127627197D01*
X129420086Y-127454767D01*
X129739645Y-127135765D01*
X129912803Y-126718756D01*
X129913197Y-126267225D01*
X129740767Y-125849914D01*
X129421765Y-125530355D01*
X129004756Y-125357197D01*
X128553225Y-125356803D01*
X128135914Y-125529233D01*
X128016071Y-125648867D01*
X127897765Y-125530355D01*
X127480756Y-125357197D01*
X127029225Y-125356803D01*
X126611914Y-125529233D01*
X126292355Y-125848235D01*
X126119197Y-126265244D01*
X126118803Y-126716775D01*
X118409427Y-126716775D01*
X118375753Y-126076977D01*
X118482235Y-126183645D01*
X118899244Y-126356803D01*
X119350775Y-126357197D01*
X119768086Y-126184767D01*
X120087645Y-125865765D01*
X120260803Y-125448756D01*
X120261197Y-124997225D01*
X120144095Y-124713818D01*
X120260803Y-124432756D01*
X120261197Y-123981225D01*
X120091695Y-123571000D01*
X121920000Y-123571000D01*
X121969410Y-123560994D01*
X122009803Y-123533803D01*
X123242606Y-122301000D01*
X134821394Y-122301000D01*
X137033000Y-124512606D01*
G36*
X104253878Y-168288117D02*
X104253880Y-168288120D01*
X104539553Y-168479000D01*
X100761000Y-168479000D01*
X100761000Y-164795240D01*
X104253878Y-168288117D01*
X104253878Y-168288117D01*
G37*
X104253878Y-168288117D02*
X104253880Y-168288120D01*
X104539553Y-168479000D01*
X100761000Y-168479000D01*
X100761000Y-164795240D01*
X104253878Y-168288117D01*
G36*
X149175000Y-168479000D02*
X145650448Y-168479000D01*
X145936120Y-168288120D01*
X148476117Y-165748122D01*
X148476120Y-165748120D01*
X148830543Y-165217687D01*
X148955000Y-164592000D01*
X148955000Y-153670000D01*
X148830543Y-153044313D01*
X148830543Y-153044312D01*
X148659817Y-152788803D01*
X148476120Y-152513880D01*
X148476117Y-152513878D01*
X145695240Y-149733000D01*
X149175000Y-149733000D01*
X149175000Y-168479000D01*
X149175000Y-168479000D01*
G37*
X149175000Y-168479000D02*
X145650448Y-168479000D01*
X145936120Y-168288120D01*
X148476117Y-165748122D01*
X148476120Y-165748120D01*
X148830543Y-165217687D01*
X148955000Y-164592000D01*
X148955000Y-153670000D01*
X148830543Y-153044313D01*
X148830543Y-153044312D01*
X148659817Y-152788803D01*
X148476120Y-152513880D01*
X148476117Y-152513878D01*
X145695240Y-149733000D01*
X149175000Y-149733000D01*
X149175000Y-168479000D01*
G36*
X102472115Y-142174511D02*
X102358041Y-142748000D01*
X102472115Y-143321489D01*
X102796971Y-143807670D01*
X103283152Y-144132526D01*
X103856641Y-144246600D01*
X103915359Y-144246600D01*
X104488848Y-144132526D01*
X104775000Y-143941325D01*
X104775000Y-146493397D01*
X104511688Y-146317457D01*
X103886000Y-146193000D01*
X103260312Y-146317457D01*
X102729880Y-146671881D01*
X100761000Y-148640760D01*
X100761000Y-141859000D01*
X102682933Y-141859000D01*
X102472115Y-142174511D01*
X102472115Y-142174511D01*
G37*
X102472115Y-142174511D02*
X102358041Y-142748000D01*
X102472115Y-143321489D01*
X102796971Y-143807670D01*
X103283152Y-144132526D01*
X103856641Y-144246600D01*
X103915359Y-144246600D01*
X104488848Y-144132526D01*
X104775000Y-143941325D01*
X104775000Y-146493397D01*
X104511688Y-146317457D01*
X103886000Y-146193000D01*
X103260312Y-146317457D01*
X102729880Y-146671881D01*
X100761000Y-148640760D01*
X100761000Y-141859000D01*
X102682933Y-141859000D01*
X102472115Y-142174511D01*
G36*
X147389197Y-134447244D02*
X147388803Y-134898775D01*
X147561233Y-135316086D01*
X147880235Y-135635645D01*
X148297244Y-135808803D01*
X148748775Y-135809197D01*
X149166086Y-135636767D01*
X149175000Y-135627869D01*
X149175000Y-140999954D01*
X148816756Y-140851197D01*
X148365225Y-140850803D01*
X147947914Y-141023233D01*
X147628355Y-141342235D01*
X147455197Y-141759244D01*
X147454803Y-142210775D01*
X147627233Y-142628086D01*
X147946235Y-142947645D01*
X148363244Y-143120803D01*
X148814775Y-143121197D01*
X149175000Y-142972355D01*
X149175000Y-143383000D01*
X144637000Y-143383000D01*
X144637000Y-141393240D01*
X144914872Y-141115367D01*
X144914803Y-141194775D01*
X145087233Y-141612086D01*
X145406235Y-141931645D01*
X145823244Y-142104803D01*
X146274775Y-142105197D01*
X146692086Y-141932767D01*
X147011645Y-141613765D01*
X147184803Y-141196756D01*
X147185197Y-140745225D01*
X147012767Y-140327914D01*
X146693765Y-140008355D01*
X146276756Y-139835197D01*
X146067107Y-139835014D01*
X146163543Y-139690687D01*
X146195067Y-139532205D01*
X146288001Y-139065000D01*
X146288000Y-139064995D01*
X146288000Y-135424240D01*
X147477392Y-134234847D01*
X147389197Y-134447244D01*
X147389197Y-134447244D01*
G37*
X147389197Y-134447244D02*
X147388803Y-134898775D01*
X147561233Y-135316086D01*
X147880235Y-135635645D01*
X148297244Y-135808803D01*
X148748775Y-135809197D01*
X149166086Y-135636767D01*
X149175000Y-135627869D01*
X149175000Y-140999954D01*
X148816756Y-140851197D01*
X148365225Y-140850803D01*
X147947914Y-141023233D01*
X147628355Y-141342235D01*
X147455197Y-141759244D01*
X147454803Y-142210775D01*
X147627233Y-142628086D01*
X147946235Y-142947645D01*
X148363244Y-143120803D01*
X148814775Y-143121197D01*
X149175000Y-142972355D01*
X149175000Y-143383000D01*
X144637000Y-143383000D01*
X144637000Y-141393240D01*
X144914872Y-141115367D01*
X144914803Y-141194775D01*
X145087233Y-141612086D01*
X145406235Y-141931645D01*
X145823244Y-142104803D01*
X146274775Y-142105197D01*
X146692086Y-141932767D01*
X147011645Y-141613765D01*
X147184803Y-141196756D01*
X147185197Y-140745225D01*
X147012767Y-140327914D01*
X146693765Y-140008355D01*
X146276756Y-139835197D01*
X146067107Y-139835014D01*
X146163543Y-139690687D01*
X146195067Y-139532205D01*
X146288001Y-139065000D01*
X146288000Y-139064995D01*
X146288000Y-135424240D01*
X147477392Y-134234847D01*
X147389197Y-134447244D01*
G36*
X127127000Y-109220000D02*
X127137006Y-109269410D01*
X127165447Y-109311035D01*
X127207841Y-109338315D01*
X127254000Y-109347000D01*
X129070715Y-109347000D01*
X128901197Y-109755244D01*
X128900803Y-110206775D01*
X129073233Y-110624086D01*
X129192867Y-110743929D01*
X129074355Y-110862235D01*
X128901197Y-111279244D01*
X128900803Y-111730775D01*
X129073233Y-112148086D01*
X129392235Y-112467645D01*
X129809244Y-112640803D01*
X130260775Y-112641197D01*
X130678086Y-112468767D01*
X130997645Y-112149765D01*
X131170803Y-111732756D01*
X131171197Y-111281225D01*
X130998767Y-110863914D01*
X130879133Y-110744071D01*
X130997645Y-110625765D01*
X131170803Y-110208756D01*
X131171197Y-109757225D01*
X131001695Y-109347000D01*
X136906000Y-109347000D01*
X136955410Y-109336994D01*
X136997035Y-109308553D01*
X137024315Y-109266159D01*
X137033000Y-109220000D01*
X137033000Y-100965000D01*
X139319000Y-100965000D01*
X139319000Y-109220000D01*
X139329006Y-109269410D01*
X139357447Y-109311035D01*
X139399841Y-109338315D01*
X139446000Y-109347000D01*
X141262715Y-109347000D01*
X141093197Y-109755244D01*
X141092803Y-110206775D01*
X141265233Y-110624086D01*
X141384867Y-110743929D01*
X141266355Y-110862235D01*
X141093197Y-111279244D01*
X141092803Y-111730775D01*
X141265233Y-112148086D01*
X141584235Y-112467645D01*
X142001244Y-112640803D01*
X142452775Y-112641197D01*
X142870086Y-112468767D01*
X143189645Y-112149765D01*
X143362803Y-111732756D01*
X143363197Y-111281225D01*
X143190767Y-110863914D01*
X143071133Y-110744071D01*
X143189645Y-110625765D01*
X143362803Y-110208756D01*
X143363197Y-109757225D01*
X143193695Y-109347000D01*
X149175000Y-109347000D01*
X149175000Y-121219603D01*
X149167765Y-121212355D01*
X148750756Y-121039197D01*
X148299225Y-121038803D01*
X147881914Y-121211233D01*
X147562355Y-121530235D01*
X147389197Y-121947244D01*
X147388803Y-122398775D01*
X147561233Y-122816086D01*
X147580867Y-122835755D01*
X147562355Y-122854235D01*
X147389197Y-123271244D01*
X147388803Y-123722775D01*
X147561233Y-124140086D01*
X147880235Y-124459645D01*
X148297244Y-124632803D01*
X148748775Y-124633197D01*
X149166086Y-124460767D01*
X149175000Y-124451869D01*
X149175000Y-130297931D01*
X149167104Y-130290022D01*
X149144223Y-130255777D01*
X149110277Y-130233095D01*
X148979765Y-130102355D01*
X148807650Y-130030886D01*
X148773407Y-130008006D01*
X148733369Y-130000042D01*
X148562756Y-129929197D01*
X148376391Y-129929034D01*
X148336000Y-129921000D01*
X148295961Y-129928964D01*
X148111225Y-129928803D01*
X147938984Y-129999972D01*
X147898593Y-130008006D01*
X147864650Y-130030686D01*
X147693914Y-130101233D01*
X147562022Y-130232896D01*
X147527777Y-130255777D01*
X147335477Y-130448077D01*
X147320000Y-130444999D01*
X146694313Y-130569457D01*
X146163881Y-130923880D01*
X143496880Y-133590880D01*
X143142457Y-134121312D01*
X143017999Y-134747000D01*
X143018000Y-134747005D01*
X143018000Y-137164624D01*
X142720756Y-137041197D01*
X142269225Y-137040803D01*
X141851914Y-137213233D01*
X141532355Y-137532235D01*
X141359197Y-137949244D01*
X141359106Y-138053658D01*
X140849382Y-138563382D01*
X140656671Y-138851794D01*
X140589000Y-139192000D01*
X140589000Y-139427645D01*
X140484017Y-139357498D01*
X139954000Y-139252071D01*
X139423983Y-139357498D01*
X138974657Y-139657728D01*
X138674427Y-140107054D01*
X138629086Y-140335000D01*
X137414000Y-140335000D01*
X137364590Y-140345006D01*
X137324197Y-140372197D01*
X137107394Y-140589000D01*
X134926606Y-140589000D01*
X133185803Y-138848197D01*
X133143789Y-138820334D01*
X133096000Y-138811000D01*
X125222000Y-138811000D01*
X125172590Y-138821006D01*
X125132197Y-138848197D01*
X124407394Y-139573000D01*
X122047000Y-139573000D01*
X122047000Y-132812775D01*
X123070803Y-132812775D01*
X123243233Y-133230086D01*
X123562235Y-133549645D01*
X123979244Y-133722803D01*
X124154585Y-133722956D01*
X124087197Y-133885244D01*
X124086803Y-134336775D01*
X124259233Y-134754086D01*
X124578235Y-135073645D01*
X124995244Y-135246803D01*
X125446775Y-135247197D01*
X125864086Y-135074767D01*
X126183645Y-134755765D01*
X126356803Y-134338756D01*
X126356804Y-134336775D01*
X129674803Y-134336775D01*
X129847233Y-134754086D01*
X130166235Y-135073645D01*
X130583244Y-135246803D01*
X131034775Y-135247197D01*
X131452086Y-135074767D01*
X131771645Y-134755765D01*
X131944803Y-134338756D01*
X131945197Y-133887225D01*
X131877359Y-133723046D01*
X132050775Y-133723197D01*
X132468086Y-133550767D01*
X132787645Y-133231765D01*
X132960803Y-132814756D01*
X132961197Y-132363225D01*
X132788767Y-131945914D01*
X132469765Y-131626355D01*
X132052756Y-131453197D01*
X131601225Y-131452803D01*
X131183914Y-131625233D01*
X130864355Y-131944235D01*
X130691197Y-132361244D01*
X130690803Y-132812775D01*
X130758641Y-132976954D01*
X130585225Y-132976803D01*
X130167914Y-133149233D01*
X129848355Y-133468235D01*
X129675197Y-133885244D01*
X129674803Y-134336775D01*
X126356804Y-134336775D01*
X126357197Y-133887225D01*
X126184767Y-133469914D01*
X125865765Y-133150355D01*
X125448756Y-132977197D01*
X125273415Y-132977044D01*
X125340803Y-132814756D01*
X125341197Y-132363225D01*
X125168767Y-131945914D01*
X124849765Y-131626355D01*
X124432756Y-131453197D01*
X123981225Y-131452803D01*
X123563914Y-131625233D01*
X123244355Y-131944235D01*
X123071197Y-132361244D01*
X123070803Y-132812775D01*
X122047000Y-132812775D01*
X122047000Y-129667000D01*
X124901245Y-129667000D01*
X124837197Y-129821244D01*
X124836803Y-130272775D01*
X125009233Y-130690086D01*
X125280888Y-130962215D01*
X125280603Y-131288775D01*
X125453033Y-131706086D01*
X125772035Y-132025645D01*
X126189044Y-132198803D01*
X126640575Y-132199197D01*
X127057886Y-132026767D01*
X127377445Y-131707765D01*
X127550603Y-131290756D01*
X127550997Y-130839225D01*
X127378567Y-130421914D01*
X127106912Y-130149785D01*
X127107197Y-129823225D01*
X127042646Y-129667000D01*
X128989245Y-129667000D01*
X128925197Y-129821244D01*
X128924866Y-130201107D01*
X128705355Y-130420235D01*
X128532197Y-130837244D01*
X128531803Y-131288775D01*
X128704233Y-131706086D01*
X129023235Y-132025645D01*
X129440244Y-132198803D01*
X129891775Y-132199197D01*
X130309086Y-132026767D01*
X130628645Y-131707765D01*
X130801803Y-131290756D01*
X130802134Y-130910893D01*
X131021645Y-130691765D01*
X131194803Y-130274756D01*
X131195197Y-129823225D01*
X131130646Y-129667000D01*
X133551394Y-129667000D01*
X134493000Y-130608606D01*
X134493000Y-136652000D01*
X134503006Y-136701410D01*
X134531447Y-136743035D01*
X134573841Y-136770315D01*
X134623509Y-136778952D01*
X134672623Y-136767584D01*
X134709803Y-136741803D01*
X142075803Y-129375803D01*
X142103666Y-129333789D01*
X142113000Y-129286000D01*
X142113000Y-121666000D01*
X142102994Y-121616590D01*
X142075803Y-121576197D01*
X140335000Y-119835394D01*
X140335000Y-116556775D01*
X141612803Y-116556775D01*
X141785233Y-116974086D01*
X142104235Y-117293645D01*
X142521244Y-117466803D01*
X142972775Y-117467197D01*
X143390086Y-117294767D01*
X143709645Y-116975765D01*
X143882803Y-116558756D01*
X143883197Y-116107225D01*
X143766620Y-115825088D01*
X143898086Y-115770767D01*
X144217645Y-115451765D01*
X144390803Y-115034756D01*
X144391197Y-114583225D01*
X144218767Y-114165914D01*
X144081868Y-114028775D01*
X144406803Y-114028775D01*
X144579233Y-114446086D01*
X144686867Y-114553908D01*
X144580355Y-114660235D01*
X144407197Y-115077244D01*
X144406803Y-115528775D01*
X144579233Y-115946086D01*
X144710857Y-116077940D01*
X144592355Y-116196235D01*
X144419197Y-116613244D01*
X144418803Y-117064775D01*
X144591233Y-117482086D01*
X144710867Y-117601929D01*
X144592355Y-117720235D01*
X144419197Y-118137244D01*
X144418803Y-118588775D01*
X144591233Y-119006086D01*
X144910235Y-119325645D01*
X145327244Y-119498803D01*
X145778775Y-119499197D01*
X146196086Y-119326767D01*
X146515645Y-119007765D01*
X146688803Y-118590756D01*
X146689197Y-118139225D01*
X146516767Y-117721914D01*
X146397133Y-117602071D01*
X146515645Y-117483765D01*
X146688803Y-117066756D01*
X146689197Y-116615225D01*
X146516767Y-116197914D01*
X146385143Y-116066060D01*
X146503645Y-115947765D01*
X146676803Y-115530756D01*
X146677197Y-115079225D01*
X146504767Y-114661914D01*
X146397133Y-114554092D01*
X146503645Y-114447765D01*
X146676803Y-114030756D01*
X146677197Y-113579225D01*
X146504767Y-113161914D01*
X146185765Y-112842355D01*
X145768756Y-112669197D01*
X145317225Y-112668803D01*
X144899914Y-112841233D01*
X144580355Y-113160235D01*
X144407197Y-113577244D01*
X144406803Y-114028775D01*
X144081868Y-114028775D01*
X143899765Y-113846355D01*
X143482756Y-113673197D01*
X143031225Y-113672803D01*
X142613914Y-113845233D01*
X142294355Y-114164235D01*
X142121197Y-114581244D01*
X142120803Y-115032775D01*
X142237380Y-115314912D01*
X142105914Y-115369233D01*
X141786355Y-115688235D01*
X141613197Y-116105244D01*
X141612803Y-116556775D01*
X140335000Y-116556775D01*
X140335000Y-115316000D01*
X140324994Y-115266590D01*
X140296553Y-115224965D01*
X140254159Y-115197685D01*
X140208000Y-115189000D01*
X135382000Y-115189000D01*
X135332590Y-115199006D01*
X135290965Y-115227447D01*
X135263685Y-115269841D01*
X135255000Y-115316000D01*
X135255000Y-121285000D01*
X125349000Y-121285000D01*
X125349000Y-116556775D01*
X129420803Y-116556775D01*
X129593233Y-116974086D01*
X129912235Y-117293645D01*
X130329244Y-117466803D01*
X130780775Y-117467197D01*
X131198086Y-117294767D01*
X131517645Y-116975765D01*
X131690803Y-116558756D01*
X131691197Y-116107225D01*
X131574620Y-115825088D01*
X131706086Y-115770767D01*
X132025645Y-115451765D01*
X132198803Y-115034756D01*
X132199197Y-114583225D01*
X132026767Y-114165914D01*
X131889868Y-114028775D01*
X132214803Y-114028775D01*
X132387233Y-114446086D01*
X132494867Y-114553908D01*
X132388355Y-114660235D01*
X132215197Y-115077244D01*
X132214803Y-115528775D01*
X132387233Y-115946086D01*
X132518857Y-116077940D01*
X132400355Y-116196235D01*
X132227197Y-116613244D01*
X132226803Y-117064775D01*
X132399233Y-117482086D01*
X132518867Y-117601929D01*
X132400355Y-117720235D01*
X132227197Y-118137244D01*
X132226803Y-118588775D01*
X132399233Y-119006086D01*
X132718235Y-119325645D01*
X133135244Y-119498803D01*
X133586775Y-119499197D01*
X134004086Y-119326767D01*
X134323645Y-119007765D01*
X134496803Y-118590756D01*
X134497197Y-118139225D01*
X134324767Y-117721914D01*
X134205133Y-117602071D01*
X134323645Y-117483765D01*
X134496803Y-117066756D01*
X134497197Y-116615225D01*
X134324767Y-116197914D01*
X134193143Y-116066060D01*
X134311645Y-115947765D01*
X134484803Y-115530756D01*
X134485197Y-115079225D01*
X134312767Y-114661914D01*
X134205133Y-114554092D01*
X134311645Y-114447765D01*
X134484803Y-114030756D01*
X134485197Y-113579225D01*
X134312767Y-113161914D01*
X133993765Y-112842355D01*
X133576756Y-112669197D01*
X133125225Y-112668803D01*
X132707914Y-112841233D01*
X132388355Y-113160235D01*
X132215197Y-113577244D01*
X132214803Y-114028775D01*
X131889868Y-114028775D01*
X131707765Y-113846355D01*
X131290756Y-113673197D01*
X130839225Y-113672803D01*
X130421914Y-113845233D01*
X130102355Y-114164235D01*
X129929197Y-114581244D01*
X129928803Y-115032775D01*
X130045380Y-115314912D01*
X129913914Y-115369233D01*
X129594355Y-115688235D01*
X129421197Y-116105244D01*
X129420803Y-116556775D01*
X125349000Y-116556775D01*
X125349000Y-100965000D01*
X127127000Y-100965000D01*
X127127000Y-109220000D01*
X127127000Y-109220000D01*
G37*
X127127000Y-109220000D02*
X127137006Y-109269410D01*
X127165447Y-109311035D01*
X127207841Y-109338315D01*
X127254000Y-109347000D01*
X129070715Y-109347000D01*
X128901197Y-109755244D01*
X128900803Y-110206775D01*
X129073233Y-110624086D01*
X129192867Y-110743929D01*
X129074355Y-110862235D01*
X128901197Y-111279244D01*
X128900803Y-111730775D01*
X129073233Y-112148086D01*
X129392235Y-112467645D01*
X129809244Y-112640803D01*
X130260775Y-112641197D01*
X130678086Y-112468767D01*
X130997645Y-112149765D01*
X131170803Y-111732756D01*
X131171197Y-111281225D01*
X130998767Y-110863914D01*
X130879133Y-110744071D01*
X130997645Y-110625765D01*
X131170803Y-110208756D01*
X131171197Y-109757225D01*
X131001695Y-109347000D01*
X136906000Y-109347000D01*
X136955410Y-109336994D01*
X136997035Y-109308553D01*
X137024315Y-109266159D01*
X137033000Y-109220000D01*
X137033000Y-100965000D01*
X139319000Y-100965000D01*
X139319000Y-109220000D01*
X139329006Y-109269410D01*
X139357447Y-109311035D01*
X139399841Y-109338315D01*
X139446000Y-109347000D01*
X141262715Y-109347000D01*
X141093197Y-109755244D01*
X141092803Y-110206775D01*
X141265233Y-110624086D01*
X141384867Y-110743929D01*
X141266355Y-110862235D01*
X141093197Y-111279244D01*
X141092803Y-111730775D01*
X141265233Y-112148086D01*
X141584235Y-112467645D01*
X142001244Y-112640803D01*
X142452775Y-112641197D01*
X142870086Y-112468767D01*
X143189645Y-112149765D01*
X143362803Y-111732756D01*
X143363197Y-111281225D01*
X143190767Y-110863914D01*
X143071133Y-110744071D01*
X143189645Y-110625765D01*
X143362803Y-110208756D01*
X143363197Y-109757225D01*
X143193695Y-109347000D01*
X149175000Y-109347000D01*
X149175000Y-121219603D01*
X149167765Y-121212355D01*
X148750756Y-121039197D01*
X148299225Y-121038803D01*
X147881914Y-121211233D01*
X147562355Y-121530235D01*
X147389197Y-121947244D01*
X147388803Y-122398775D01*
X147561233Y-122816086D01*
X147580867Y-122835755D01*
X147562355Y-122854235D01*
X147389197Y-123271244D01*
X147388803Y-123722775D01*
X147561233Y-124140086D01*
X147880235Y-124459645D01*
X148297244Y-124632803D01*
X148748775Y-124633197D01*
X149166086Y-124460767D01*
X149175000Y-124451869D01*
X149175000Y-130297931D01*
X149167104Y-130290022D01*
X149144223Y-130255777D01*
X149110277Y-130233095D01*
X148979765Y-130102355D01*
X148807650Y-130030886D01*
X148773407Y-130008006D01*
X148733369Y-130000042D01*
X148562756Y-129929197D01*
X148376391Y-129929034D01*
X148336000Y-129921000D01*
X148295961Y-129928964D01*
X148111225Y-129928803D01*
X147938984Y-129999972D01*
X147898593Y-130008006D01*
X147864650Y-130030686D01*
X147693914Y-130101233D01*
X147562022Y-130232896D01*
X147527777Y-130255777D01*
X147335477Y-130448077D01*
X147320000Y-130444999D01*
X146694313Y-130569457D01*
X146163881Y-130923880D01*
X143496880Y-133590880D01*
X143142457Y-134121312D01*
X143017999Y-134747000D01*
X143018000Y-134747005D01*
X143018000Y-137164624D01*
X142720756Y-137041197D01*
X142269225Y-137040803D01*
X141851914Y-137213233D01*
X141532355Y-137532235D01*
X141359197Y-137949244D01*
X141359106Y-138053658D01*
X140849382Y-138563382D01*
X140656671Y-138851794D01*
X140589000Y-139192000D01*
X140589000Y-139427645D01*
X140484017Y-139357498D01*
X139954000Y-139252071D01*
X139423983Y-139357498D01*
X138974657Y-139657728D01*
X138674427Y-140107054D01*
X138629086Y-140335000D01*
X137414000Y-140335000D01*
X137364590Y-140345006D01*
X137324197Y-140372197D01*
X137107394Y-140589000D01*
X134926606Y-140589000D01*
X133185803Y-138848197D01*
X133143789Y-138820334D01*
X133096000Y-138811000D01*
X125222000Y-138811000D01*
X125172590Y-138821006D01*
X125132197Y-138848197D01*
X124407394Y-139573000D01*
X122047000Y-139573000D01*
X122047000Y-132812775D01*
X123070803Y-132812775D01*
X123243233Y-133230086D01*
X123562235Y-133549645D01*
X123979244Y-133722803D01*
X124154585Y-133722956D01*
X124087197Y-133885244D01*
X124086803Y-134336775D01*
X124259233Y-134754086D01*
X124578235Y-135073645D01*
X124995244Y-135246803D01*
X125446775Y-135247197D01*
X125864086Y-135074767D01*
X126183645Y-134755765D01*
X126356803Y-134338756D01*
X126356804Y-134336775D01*
X129674803Y-134336775D01*
X129847233Y-134754086D01*
X130166235Y-135073645D01*
X130583244Y-135246803D01*
X131034775Y-135247197D01*
X131452086Y-135074767D01*
X131771645Y-134755765D01*
X131944803Y-134338756D01*
X131945197Y-133887225D01*
X131877359Y-133723046D01*
X132050775Y-133723197D01*
X132468086Y-133550767D01*
X132787645Y-133231765D01*
X132960803Y-132814756D01*
X132961197Y-132363225D01*
X132788767Y-131945914D01*
X132469765Y-131626355D01*
X132052756Y-131453197D01*
X131601225Y-131452803D01*
X131183914Y-131625233D01*
X130864355Y-131944235D01*
X130691197Y-132361244D01*
X130690803Y-132812775D01*
X130758641Y-132976954D01*
X130585225Y-132976803D01*
X130167914Y-133149233D01*
X129848355Y-133468235D01*
X129675197Y-133885244D01*
X129674803Y-134336775D01*
X126356804Y-134336775D01*
X126357197Y-133887225D01*
X126184767Y-133469914D01*
X125865765Y-133150355D01*
X125448756Y-132977197D01*
X125273415Y-132977044D01*
X125340803Y-132814756D01*
X125341197Y-132363225D01*
X125168767Y-131945914D01*
X124849765Y-131626355D01*
X124432756Y-131453197D01*
X123981225Y-131452803D01*
X123563914Y-131625233D01*
X123244355Y-131944235D01*
X123071197Y-132361244D01*
X123070803Y-132812775D01*
X122047000Y-132812775D01*
X122047000Y-129667000D01*
X124901245Y-129667000D01*
X124837197Y-129821244D01*
X124836803Y-130272775D01*
X125009233Y-130690086D01*
X125280888Y-130962215D01*
X125280603Y-131288775D01*
X125453033Y-131706086D01*
X125772035Y-132025645D01*
X126189044Y-132198803D01*
X126640575Y-132199197D01*
X127057886Y-132026767D01*
X127377445Y-131707765D01*
X127550603Y-131290756D01*
X127550997Y-130839225D01*
X127378567Y-130421914D01*
X127106912Y-130149785D01*
X127107197Y-129823225D01*
X127042646Y-129667000D01*
X128989245Y-129667000D01*
X128925197Y-129821244D01*
X128924866Y-130201107D01*
X128705355Y-130420235D01*
X128532197Y-130837244D01*
X128531803Y-131288775D01*
X128704233Y-131706086D01*
X129023235Y-132025645D01*
X129440244Y-132198803D01*
X129891775Y-132199197D01*
X130309086Y-132026767D01*
X130628645Y-131707765D01*
X130801803Y-131290756D01*
X130802134Y-130910893D01*
X131021645Y-130691765D01*
X131194803Y-130274756D01*
X131195197Y-129823225D01*
X131130646Y-129667000D01*
X133551394Y-129667000D01*
X134493000Y-130608606D01*
X134493000Y-136652000D01*
X134503006Y-136701410D01*
X134531447Y-136743035D01*
X134573841Y-136770315D01*
X134623509Y-136778952D01*
X134672623Y-136767584D01*
X134709803Y-136741803D01*
X142075803Y-129375803D01*
X142103666Y-129333789D01*
X142113000Y-129286000D01*
X142113000Y-121666000D01*
X142102994Y-121616590D01*
X142075803Y-121576197D01*
X140335000Y-119835394D01*
X140335000Y-116556775D01*
X141612803Y-116556775D01*
X141785233Y-116974086D01*
X142104235Y-117293645D01*
X142521244Y-117466803D01*
X142972775Y-117467197D01*
X143390086Y-117294767D01*
X143709645Y-116975765D01*
X143882803Y-116558756D01*
X143883197Y-116107225D01*
X143766620Y-115825088D01*
X143898086Y-115770767D01*
X144217645Y-115451765D01*
X144390803Y-115034756D01*
X144391197Y-114583225D01*
X144218767Y-114165914D01*
X144081868Y-114028775D01*
X144406803Y-114028775D01*
X144579233Y-114446086D01*
X144686867Y-114553908D01*
X144580355Y-114660235D01*
X144407197Y-115077244D01*
X144406803Y-115528775D01*
X144579233Y-115946086D01*
X144710857Y-116077940D01*
X144592355Y-116196235D01*
X144419197Y-116613244D01*
X144418803Y-117064775D01*
X144591233Y-117482086D01*
X144710867Y-117601929D01*
X144592355Y-117720235D01*
X144419197Y-118137244D01*
X144418803Y-118588775D01*
X144591233Y-119006086D01*
X144910235Y-119325645D01*
X145327244Y-119498803D01*
X145778775Y-119499197D01*
X146196086Y-119326767D01*
X146515645Y-119007765D01*
X146688803Y-118590756D01*
X146689197Y-118139225D01*
X146516767Y-117721914D01*
X146397133Y-117602071D01*
X146515645Y-117483765D01*
X146688803Y-117066756D01*
X146689197Y-116615225D01*
X146516767Y-116197914D01*
X146385143Y-116066060D01*
X146503645Y-115947765D01*
X146676803Y-115530756D01*
X146677197Y-115079225D01*
X146504767Y-114661914D01*
X146397133Y-114554092D01*
X146503645Y-114447765D01*
X146676803Y-114030756D01*
X146677197Y-113579225D01*
X146504767Y-113161914D01*
X146185765Y-112842355D01*
X145768756Y-112669197D01*
X145317225Y-112668803D01*
X144899914Y-112841233D01*
X144580355Y-113160235D01*
X144407197Y-113577244D01*
X144406803Y-114028775D01*
X144081868Y-114028775D01*
X143899765Y-113846355D01*
X143482756Y-113673197D01*
X143031225Y-113672803D01*
X142613914Y-113845233D01*
X142294355Y-114164235D01*
X142121197Y-114581244D01*
X142120803Y-115032775D01*
X142237380Y-115314912D01*
X142105914Y-115369233D01*
X141786355Y-115688235D01*
X141613197Y-116105244D01*
X141612803Y-116556775D01*
X140335000Y-116556775D01*
X140335000Y-115316000D01*
X140324994Y-115266590D01*
X140296553Y-115224965D01*
X140254159Y-115197685D01*
X140208000Y-115189000D01*
X135382000Y-115189000D01*
X135332590Y-115199006D01*
X135290965Y-115227447D01*
X135263685Y-115269841D01*
X135255000Y-115316000D01*
X135255000Y-121285000D01*
X125349000Y-121285000D01*
X125349000Y-116556775D01*
X129420803Y-116556775D01*
X129593233Y-116974086D01*
X129912235Y-117293645D01*
X130329244Y-117466803D01*
X130780775Y-117467197D01*
X131198086Y-117294767D01*
X131517645Y-116975765D01*
X131690803Y-116558756D01*
X131691197Y-116107225D01*
X131574620Y-115825088D01*
X131706086Y-115770767D01*
X132025645Y-115451765D01*
X132198803Y-115034756D01*
X132199197Y-114583225D01*
X132026767Y-114165914D01*
X131889868Y-114028775D01*
X132214803Y-114028775D01*
X132387233Y-114446086D01*
X132494867Y-114553908D01*
X132388355Y-114660235D01*
X132215197Y-115077244D01*
X132214803Y-115528775D01*
X132387233Y-115946086D01*
X132518857Y-116077940D01*
X132400355Y-116196235D01*
X132227197Y-116613244D01*
X132226803Y-117064775D01*
X132399233Y-117482086D01*
X132518867Y-117601929D01*
X132400355Y-117720235D01*
X132227197Y-118137244D01*
X132226803Y-118588775D01*
X132399233Y-119006086D01*
X132718235Y-119325645D01*
X133135244Y-119498803D01*
X133586775Y-119499197D01*
X134004086Y-119326767D01*
X134323645Y-119007765D01*
X134496803Y-118590756D01*
X134497197Y-118139225D01*
X134324767Y-117721914D01*
X134205133Y-117602071D01*
X134323645Y-117483765D01*
X134496803Y-117066756D01*
X134497197Y-116615225D01*
X134324767Y-116197914D01*
X134193143Y-116066060D01*
X134311645Y-115947765D01*
X134484803Y-115530756D01*
X134485197Y-115079225D01*
X134312767Y-114661914D01*
X134205133Y-114554092D01*
X134311645Y-114447765D01*
X134484803Y-114030756D01*
X134485197Y-113579225D01*
X134312767Y-113161914D01*
X133993765Y-112842355D01*
X133576756Y-112669197D01*
X133125225Y-112668803D01*
X132707914Y-112841233D01*
X132388355Y-113160235D01*
X132215197Y-113577244D01*
X132214803Y-114028775D01*
X131889868Y-114028775D01*
X131707765Y-113846355D01*
X131290756Y-113673197D01*
X130839225Y-113672803D01*
X130421914Y-113845233D01*
X130102355Y-114164235D01*
X129929197Y-114581244D01*
X129928803Y-115032775D01*
X130045380Y-115314912D01*
X129913914Y-115369233D01*
X129594355Y-115688235D01*
X129421197Y-116105244D01*
X129420803Y-116556775D01*
X125349000Y-116556775D01*
X125349000Y-100965000D01*
X127127000Y-100965000D01*
X127127000Y-109220000D01*
G36*
X126881197Y-139727244D02*
X126880803Y-140178775D01*
X127053233Y-140596086D01*
X127372235Y-140915645D01*
X127789244Y-141088803D01*
X128240775Y-141089197D01*
X128658086Y-140916767D01*
X128977645Y-140597765D01*
X129150803Y-140180756D01*
X129151197Y-139729225D01*
X129086646Y-139573000D01*
X132027394Y-139573000D01*
X132289354Y-139834960D01*
X132109225Y-139834803D01*
X131691914Y-140007233D01*
X131372355Y-140326235D01*
X131199197Y-140743244D01*
X131198803Y-141194775D01*
X131371233Y-141612086D01*
X131690235Y-141931645D01*
X132107244Y-142104803D01*
X132558775Y-142105197D01*
X132976086Y-141932767D01*
X133295645Y-141613765D01*
X133468803Y-141196756D01*
X133469197Y-140745225D01*
X133404646Y-140589000D01*
X133805394Y-140589000D01*
X134530197Y-141313803D01*
X134572211Y-141341666D01*
X134620000Y-141351000D01*
X138303000Y-141351000D01*
X138303000Y-142494000D01*
X138313006Y-142543410D01*
X138340197Y-142583803D01*
X138811000Y-143054606D01*
X138811000Y-149225000D01*
X131826000Y-149225000D01*
X131776590Y-149235006D01*
X131734965Y-149263447D01*
X131707685Y-149305841D01*
X131699000Y-149352000D01*
X131699000Y-153363394D01*
X129741394Y-155321000D01*
X121615285Y-155321000D01*
X121784803Y-154912756D01*
X121785197Y-154461225D01*
X121612767Y-154043914D01*
X121293765Y-153724355D01*
X120876756Y-153551197D01*
X120425225Y-153550803D01*
X120007914Y-153723233D01*
X119688355Y-154042235D01*
X119515197Y-154459244D01*
X119514803Y-154910775D01*
X119684305Y-155321000D01*
X118491000Y-155321000D01*
X118491000Y-149606000D01*
X118480994Y-149556590D01*
X118450417Y-149512935D01*
X116362334Y-147574000D01*
X131632071Y-147574000D01*
X131737498Y-148104017D01*
X132037728Y-148553343D01*
X132487054Y-148853573D01*
X133017071Y-148959000D01*
X134090929Y-148959000D01*
X134620946Y-148853573D01*
X135070272Y-148553343D01*
X135370502Y-148104017D01*
X135475929Y-147574000D01*
X135370502Y-147043983D01*
X135070272Y-146594657D01*
X134620946Y-146294427D01*
X134090929Y-146189000D01*
X133017071Y-146189000D01*
X132487054Y-146294427D01*
X132037728Y-146594657D01*
X131737498Y-147043983D01*
X131632071Y-147574000D01*
X116362334Y-147574000D01*
X114963168Y-146274775D01*
X128658803Y-146274775D01*
X128831233Y-146692086D01*
X129150235Y-147011645D01*
X129567244Y-147184803D01*
X130018775Y-147185197D01*
X130436086Y-147012767D01*
X130755645Y-146693765D01*
X130928803Y-146276756D01*
X130929197Y-145825225D01*
X130756767Y-145407914D01*
X130437765Y-145088355D01*
X130020756Y-144915197D01*
X129569225Y-144914803D01*
X129151914Y-145087233D01*
X128832355Y-145406235D01*
X128659197Y-145823244D01*
X128658803Y-146274775D01*
X114963168Y-146274775D01*
X114935000Y-146248619D01*
X114935000Y-145004775D01*
X119768803Y-145004775D01*
X119941233Y-145422086D01*
X120260235Y-145741645D01*
X120677244Y-145914803D01*
X121128775Y-145915197D01*
X121412182Y-145798095D01*
X121693244Y-145914803D01*
X122144775Y-145915197D01*
X122562086Y-145742767D01*
X122881645Y-145423765D01*
X123054803Y-145006756D01*
X123055026Y-144750775D01*
X130690803Y-144750775D01*
X130863233Y-145168086D01*
X131182235Y-145487645D01*
X131599244Y-145660803D01*
X132050775Y-145661197D01*
X132468086Y-145488767D01*
X132787645Y-145169765D01*
X132960803Y-144752756D01*
X132961197Y-144301225D01*
X132788767Y-143883914D01*
X132469765Y-143564355D01*
X132052756Y-143391197D01*
X131601225Y-143390803D01*
X131183914Y-143563233D01*
X130864355Y-143882235D01*
X130691197Y-144299244D01*
X130690803Y-144750775D01*
X123055026Y-144750775D01*
X123055197Y-144555225D01*
X122882767Y-144137914D01*
X122563765Y-143818355D01*
X122146756Y-143645197D01*
X121695225Y-143644803D01*
X121411818Y-143761905D01*
X121130756Y-143645197D01*
X120679225Y-143644803D01*
X120261914Y-143817233D01*
X119942355Y-144136235D01*
X119769197Y-144553244D01*
X119768803Y-145004775D01*
X114935000Y-145004775D01*
X114935000Y-143054606D01*
X115622606Y-142367000D01*
X120650000Y-142367000D01*
X120699410Y-142356994D01*
X120739803Y-142329803D01*
X120798709Y-142270897D01*
X121021688Y-142226543D01*
X121552120Y-141872120D01*
X122581239Y-140843000D01*
X124460000Y-140843000D01*
X124509410Y-140832994D01*
X124549803Y-140805803D01*
X125782606Y-139573000D01*
X126945245Y-139573000D01*
X126881197Y-139727244D01*
X126881197Y-139727244D01*
G37*
X126881197Y-139727244D02*
X126880803Y-140178775D01*
X127053233Y-140596086D01*
X127372235Y-140915645D01*
X127789244Y-141088803D01*
X128240775Y-141089197D01*
X128658086Y-140916767D01*
X128977645Y-140597765D01*
X129150803Y-140180756D01*
X129151197Y-139729225D01*
X129086646Y-139573000D01*
X132027394Y-139573000D01*
X132289354Y-139834960D01*
X132109225Y-139834803D01*
X131691914Y-140007233D01*
X131372355Y-140326235D01*
X131199197Y-140743244D01*
X131198803Y-141194775D01*
X131371233Y-141612086D01*
X131690235Y-141931645D01*
X132107244Y-142104803D01*
X132558775Y-142105197D01*
X132976086Y-141932767D01*
X133295645Y-141613765D01*
X133468803Y-141196756D01*
X133469197Y-140745225D01*
X133404646Y-140589000D01*
X133805394Y-140589000D01*
X134530197Y-141313803D01*
X134572211Y-141341666D01*
X134620000Y-141351000D01*
X138303000Y-141351000D01*
X138303000Y-142494000D01*
X138313006Y-142543410D01*
X138340197Y-142583803D01*
X138811000Y-143054606D01*
X138811000Y-149225000D01*
X131826000Y-149225000D01*
X131776590Y-149235006D01*
X131734965Y-149263447D01*
X131707685Y-149305841D01*
X131699000Y-149352000D01*
X131699000Y-153363394D01*
X129741394Y-155321000D01*
X121615285Y-155321000D01*
X121784803Y-154912756D01*
X121785197Y-154461225D01*
X121612767Y-154043914D01*
X121293765Y-153724355D01*
X120876756Y-153551197D01*
X120425225Y-153550803D01*
X120007914Y-153723233D01*
X119688355Y-154042235D01*
X119515197Y-154459244D01*
X119514803Y-154910775D01*
X119684305Y-155321000D01*
X118491000Y-155321000D01*
X118491000Y-149606000D01*
X118480994Y-149556590D01*
X118450417Y-149512935D01*
X116362334Y-147574000D01*
X131632071Y-147574000D01*
X131737498Y-148104017D01*
X132037728Y-148553343D01*
X132487054Y-148853573D01*
X133017071Y-148959000D01*
X134090929Y-148959000D01*
X134620946Y-148853573D01*
X135070272Y-148553343D01*
X135370502Y-148104017D01*
X135475929Y-147574000D01*
X135370502Y-147043983D01*
X135070272Y-146594657D01*
X134620946Y-146294427D01*
X134090929Y-146189000D01*
X133017071Y-146189000D01*
X132487054Y-146294427D01*
X132037728Y-146594657D01*
X131737498Y-147043983D01*
X131632071Y-147574000D01*
X116362334Y-147574000D01*
X114963168Y-146274775D01*
X128658803Y-146274775D01*
X128831233Y-146692086D01*
X129150235Y-147011645D01*
X129567244Y-147184803D01*
X130018775Y-147185197D01*
X130436086Y-147012767D01*
X130755645Y-146693765D01*
X130928803Y-146276756D01*
X130929197Y-145825225D01*
X130756767Y-145407914D01*
X130437765Y-145088355D01*
X130020756Y-144915197D01*
X129569225Y-144914803D01*
X129151914Y-145087233D01*
X128832355Y-145406235D01*
X128659197Y-145823244D01*
X128658803Y-146274775D01*
X114963168Y-146274775D01*
X114935000Y-146248619D01*
X114935000Y-145004775D01*
X119768803Y-145004775D01*
X119941233Y-145422086D01*
X120260235Y-145741645D01*
X120677244Y-145914803D01*
X121128775Y-145915197D01*
X121412182Y-145798095D01*
X121693244Y-145914803D01*
X122144775Y-145915197D01*
X122562086Y-145742767D01*
X122881645Y-145423765D01*
X123054803Y-145006756D01*
X123055026Y-144750775D01*
X130690803Y-144750775D01*
X130863233Y-145168086D01*
X131182235Y-145487645D01*
X131599244Y-145660803D01*
X132050775Y-145661197D01*
X132468086Y-145488767D01*
X132787645Y-145169765D01*
X132960803Y-144752756D01*
X132961197Y-144301225D01*
X132788767Y-143883914D01*
X132469765Y-143564355D01*
X132052756Y-143391197D01*
X131601225Y-143390803D01*
X131183914Y-143563233D01*
X130864355Y-143882235D01*
X130691197Y-144299244D01*
X130690803Y-144750775D01*
X123055026Y-144750775D01*
X123055197Y-144555225D01*
X122882767Y-144137914D01*
X122563765Y-143818355D01*
X122146756Y-143645197D01*
X121695225Y-143644803D01*
X121411818Y-143761905D01*
X121130756Y-143645197D01*
X120679225Y-143644803D01*
X120261914Y-143817233D01*
X119942355Y-144136235D01*
X119769197Y-144553244D01*
X119768803Y-145004775D01*
X114935000Y-145004775D01*
X114935000Y-143054606D01*
X115622606Y-142367000D01*
X120650000Y-142367000D01*
X120699410Y-142356994D01*
X120739803Y-142329803D01*
X120798709Y-142270897D01*
X121021688Y-142226543D01*
X121552120Y-141872120D01*
X122581239Y-140843000D01*
X124460000Y-140843000D01*
X124509410Y-140832994D01*
X124549803Y-140805803D01*
X125782606Y-139573000D01*
X126945245Y-139573000D01*
X126881197Y-139727244D01*
M02*
